<svg width="512" height="512" viewBox="0 0 512 512" fill="none" xmlns="http://www.w3.org/2000/svg">
<path d="M191.778 289.06C182.58 289.05 173.762 285.392 167.257 278.889C160.752 272.386 157.091 263.568 157.078 254.37V56.8502C157.233 47.7505 160.956 39.0758 167.446 32.6953C173.935 26.3148 182.672 22.7393 191.773 22.7393C200.874 22.7393 209.611 26.3148 216.101 32.6953C222.59 39.0758 226.314 47.7505 226.468 56.8502V254.37C226.458 263.567 222.799 272.385 216.296 278.888C209.793 285.391 200.975 289.05 191.778 289.06ZM191.778 38.1602C186.821 38.1629 182.068 40.1325 178.562 43.6367C175.056 47.1409 173.083 51.8932 173.078 56.8502V254.37C173.191 259.254 175.21 263.899 178.704 267.313C182.198 270.727 186.888 272.638 191.773 272.638C196.658 272.638 201.349 270.727 204.842 267.313C208.336 263.899 210.355 259.254 210.468 254.37V56.8502C210.463 51.8949 208.492 47.1441 204.988 43.6402C201.484 40.1363 196.733 38.1655 191.778 38.1602Z" fill="#2B3990"/>
<path d="M218.469 260.66C216.347 260.66 214.312 259.817 212.812 258.317C211.312 256.816 210.469 254.782 210.469 252.66C210.469 250.538 211.312 248.503 212.812 247.003C214.312 245.503 216.347 244.66 218.469 244.66C229.026 244.66 239.479 242.581 249.233 238.541C258.986 234.501 267.848 228.579 275.313 221.114C282.778 213.649 288.699 204.787 292.739 195.034C296.779 185.28 298.859 174.827 298.859 164.27C298.859 153.713 296.779 143.259 292.739 133.506C288.699 123.753 282.778 114.89 275.313 107.426C267.848 99.9607 258.986 94.0392 249.233 89.9992C239.479 85.9592 229.026 83.8799 218.469 83.8799C216.347 83.8799 214.312 83.037 212.812 81.5367C211.312 80.0365 210.469 78.0016 210.469 75.8799C210.469 73.7582 211.312 71.7233 212.812 70.223C214.312 68.7227 216.347 67.8799 218.469 67.8799C244.033 67.8799 268.55 78.0352 286.627 96.1119C304.703 114.188 314.859 138.706 314.859 164.27C314.859 189.834 304.703 214.351 286.627 232.428C268.55 250.505 244.033 260.66 218.469 260.66Z" fill="#2B3990"/>
<path d="M348.329 215H295.879C293.757 215 291.722 214.157 290.222 212.657C288.722 211.157 287.879 209.122 287.879 207C287.879 204.878 288.722 202.844 290.222 201.343C291.722 199.843 293.757 199 295.879 199H348.329C350.451 199 352.485 199.843 353.986 201.343C355.486 202.844 356.329 204.878 356.329 207C356.329 209.122 355.486 211.157 353.986 212.657C352.485 214.157 350.451 215 348.329 215ZM348.329 158.62H305.809C303.687 158.62 301.652 157.777 300.152 156.277C298.652 154.777 297.809 152.742 297.809 150.62C297.809 148.498 298.652 146.464 300.152 144.963C301.652 143.463 303.687 142.62 305.809 142.62H348.329C350.451 142.62 352.485 143.463 353.986 144.963C355.486 146.464 356.329 148.498 356.329 150.62C356.329 152.742 355.486 154.777 353.986 156.277C352.485 157.777 350.451 158.62 348.329 158.62Z" fill="#2B3990"/>
<path d="M381.448 249.51H355.378C351.397 249.505 347.579 247.924 344.76 245.114C341.94 242.303 340.347 238.491 340.328 234.51V140C340.347 136.019 341.94 132.207 344.76 129.396C347.579 126.586 351.397 125.005 355.378 125H381.448C385.429 125.005 389.247 126.586 392.067 129.396C394.887 132.207 396.48 136.019 396.498 140V234.44C396.498 238.433 394.913 242.263 392.091 245.089C389.269 247.915 385.441 249.505 381.448 249.51ZM356.328 233.51H380.498V141H356.328V233.51Z" fill="#2B3990"/>
<path d="M461.09 237.53C458.968 237.53 456.933 236.687 455.433 235.187C453.933 233.687 453.09 231.652 453.09 229.53V158.34C453.059 156.925 452.48 155.577 451.474 154.581C450.469 153.585 449.115 153.018 447.7 153H388.5C386.378 153 384.343 152.157 382.843 150.657C381.343 149.157 380.5 147.122 380.5 145C380.5 142.878 381.343 140.843 382.843 139.343C384.343 137.843 386.378 137 388.5 137H447.7C453.371 137.005 458.809 139.261 462.819 143.271C466.829 147.281 469.085 152.719 469.09 158.39V229.58C469.077 231.693 468.228 233.715 466.729 235.205C465.23 236.694 463.203 237.53 461.09 237.53ZM415.28 237.53H388.5C386.378 237.53 384.343 236.687 382.843 235.187C381.343 233.687 380.5 231.652 380.5 229.53C380.5 227.408 381.343 225.373 382.843 223.873C384.343 222.373 386.378 221.53 388.5 221.53H415.28C417.402 221.53 419.437 222.373 420.937 223.873C422.437 225.373 423.28 227.408 423.28 229.53C423.28 231.652 422.437 233.687 420.937 235.187C419.437 236.687 417.402 237.53 415.28 237.53Z" fill="#2B3990"/>
<path d="M461.091 360.86H415.281C413.16 360.86 411.125 360.017 409.624 358.517C408.124 357.017 407.281 354.982 407.281 352.86V229.53C407.281 227.409 408.124 225.374 409.624 223.873C411.125 222.373 413.16 221.53 415.281 221.53C417.403 221.53 419.438 222.373 420.938 223.873C422.438 225.374 423.281 227.409 423.281 229.53V344.86H453.091V229.53C453.091 227.409 453.934 225.374 455.434 223.873C456.935 222.373 458.97 221.53 461.091 221.53C463.213 221.53 465.248 222.373 466.748 223.873C468.248 225.374 469.091 227.409 469.091 229.53V352.86C469.091 354.982 468.248 357.017 466.748 358.517C465.248 360.017 463.213 360.86 461.091 360.86Z" fill="#2B3990"/>
<path d="M319.432 466.58H86.8516C84.7298 466.58 82.695 465.737 81.1947 464.237C79.6944 462.737 78.8516 460.702 78.8516 458.58C78.8516 456.458 79.6944 454.423 81.1947 452.923C82.695 451.423 84.7298 450.58 86.8516 450.58H319.432C325.15 450.567 330.63 448.289 334.673 444.244C338.715 440.2 340.991 434.718 341.002 429V381.06C340.996 375.333 338.719 369.842 334.669 365.792C330.62 361.743 325.129 359.465 319.402 359.46H86.8516C84.7298 359.46 82.695 358.617 81.1947 357.117C79.6944 355.617 78.8516 353.582 78.8516 351.46C78.8516 349.338 79.6944 347.303 81.1947 345.803C82.695 344.303 84.7298 343.46 86.8516 343.46H319.432C329.4 343.471 338.958 347.435 346.007 354.484C353.056 361.534 357.021 371.091 357.032 381.06V429C357.016 438.965 353.049 448.518 346 455.563C338.952 462.607 329.397 466.569 319.432 466.58Z" fill="#2B3990"/>
<path d="M389.35 436.28H349C346.878 436.28 344.843 435.437 343.343 433.937C341.843 432.436 341 430.401 341 428.28C341 426.158 341.843 424.123 343.343 422.623C344.843 421.123 346.878 420.28 349 420.28H381.32V389.76H349C346.878 389.76 344.843 388.917 343.343 387.417C341.843 385.916 341 383.881 341 381.76C341 379.638 341.843 377.603 343.343 376.103C344.843 374.603 346.878 373.76 349 373.76H389.32C391.442 373.76 393.477 374.603 394.977 376.103C396.477 377.603 397.32 379.638 397.32 381.76V428.28C397.32 430.396 396.481 432.427 394.987 433.926C393.494 435.425 391.467 436.272 389.35 436.28Z" fill="#2B3990"/>
<path d="M86.8516 489.84C84.7298 489.84 82.695 488.997 81.1947 487.497C79.6944 485.997 78.8516 483.962 78.8516 481.84V328.2C78.8516 326.078 79.6944 324.044 81.1947 322.543C82.695 321.043 84.7298 320.2 86.8516 320.2C88.9733 320.2 91.0081 321.043 92.5084 322.543C94.0087 324.044 94.8516 326.078 94.8516 328.2V481.84C94.8516 483.962 94.0087 485.997 92.5084 487.497C91.0081 488.997 88.9733 489.84 86.8516 489.84Z" fill="#2B3990"/>
<path d="M86.85 443.33H28C25.8783 443.33 23.8434 442.487 22.3431 440.987C20.8429 439.487 20 437.452 20 435.33C20 433.208 20.8429 431.173 22.3431 429.673C23.8434 428.173 25.8783 427.33 28 427.33H86.85C88.9717 427.33 91.0066 428.173 92.5069 429.673C94.0071 431.173 94.85 433.208 94.85 435.33C94.85 437.452 94.0071 439.487 92.5069 440.987C91.0066 442.487 88.9717 443.33 86.85 443.33ZM86.85 382.71H28C25.8783 382.71 23.8434 381.867 22.3431 380.367C20.8429 378.867 20 376.832 20 374.71C20 372.588 20.8429 370.553 22.3431 369.053C23.8434 367.553 25.8783 366.71 28 366.71H86.85C88.9717 366.71 91.0066 367.553 92.5069 369.053C94.0071 370.553 94.85 372.588 94.85 374.71C94.85 376.832 94.0071 378.867 92.5069 380.367C91.0066 381.867 88.9717 382.71 86.85 382.71Z" fill="#2B3990"/>
<path d="M28 479.271C25.8783 479.271 23.8434 478.428 22.3431 476.927C20.8429 475.427 20 473.392 20 471.271V338.771C20 336.649 20.8429 334.614 22.3431 333.114C23.8434 331.613 25.8783 330.771 28 330.771C30.1217 330.771 32.1566 331.613 33.6569 333.114C35.1571 334.614 36 336.649 36 338.771V471.271C36 473.392 35.1571 475.427 33.6569 476.927C32.1566 478.428 30.1217 479.271 28 479.271Z" fill="#2B3990"/>
<path d="M484.002 413H389.352C387.23 413 385.195 412.157 383.695 410.657C382.194 409.157 381.352 407.122 381.352 405C381.352 402.878 382.194 400.843 383.695 399.343C385.195 397.843 387.23 397 389.352 397H484.002C486.123 397 488.158 397.843 489.658 399.343C491.159 400.843 492.002 402.878 492.002 405C492.002 407.122 491.159 409.157 489.658 410.657C488.158 412.157 486.123 413 484.002 413Z" fill="#2B3990"/>
<path d="M150.281 466.58C148.16 466.58 146.125 465.738 144.624 464.237C143.124 462.737 142.281 460.702 142.281 458.58V429.69C142.281 427.569 143.124 425.534 144.624 424.034C146.125 422.533 148.16 421.69 150.281 421.69C152.403 421.69 154.438 422.533 155.938 424.034C157.438 425.534 158.281 427.569 158.281 429.69V458.58C158.281 460.702 157.438 462.737 155.938 464.237C154.438 465.738 152.403 466.58 150.281 466.58Z" fill="#2B3990"/>
<path d="M195.391 466.58C193.269 466.58 191.234 465.738 189.734 464.237C188.233 462.737 187.391 460.702 187.391 458.58V429.69C187.391 427.569 188.233 425.534 189.734 424.034C191.234 422.533 193.269 421.69 195.391 421.69C197.512 421.69 199.547 422.533 201.047 424.034C202.548 425.534 203.391 427.569 203.391 429.69V458.58C203.391 460.702 202.548 462.737 201.047 464.237C199.547 465.738 197.512 466.58 195.391 466.58Z" fill="#2B3990"/>
<path d="M240.488 466.58C238.367 466.58 236.332 465.738 234.831 464.237C233.331 462.737 232.488 460.702 232.488 458.58V429.69C232.488 427.569 233.331 425.534 234.831 424.034C236.332 422.533 238.367 421.69 240.488 421.69C242.61 421.69 244.645 422.533 246.145 424.034C247.645 425.534 248.488 427.569 248.488 429.69V458.58C248.488 460.702 247.645 462.737 246.145 464.237C244.645 465.738 242.61 466.58 240.488 466.58Z" fill="#2B3990"/>
<path d="M285.602 466.58C283.48 466.58 281.445 465.738 279.945 464.237C278.444 462.737 277.602 460.702 277.602 458.58V429.69C277.602 427.569 278.444 425.534 279.945 424.034C281.445 422.533 283.48 421.69 285.602 421.69C287.723 421.69 289.758 422.533 291.258 424.034C292.759 425.534 293.602 427.569 293.602 429.69V458.58C293.602 460.702 292.759 462.737 291.258 464.237C289.758 465.738 287.723 466.58 285.602 466.58Z" fill="#2B3990"/>
</svg>
