<svg width="512" height="512" viewBox="0 0 512 512" fill="none" xmlns="http://www.w3.org/2000/svg">
<path d="M89.053 175.557C57.7118 186.023 37.1227 218.858 33.9668 263.369C33.8076 265.591 34.5381 267.785 35.9975 269.468C37.4569 271.151 39.5255 272.184 41.7475 272.341H42.3519C46.7643 272.352 50.432 268.945 50.7453 264.544C53.3976 227.025 69.7229 199.704 94.3912 191.462C98.795 189.993 101.174 185.231 99.7042 180.828C98.2348 176.424 93.4735 174.045 89.0698 175.515L89.053 175.557Z" fill="#2B3990"/>
<path d="M336.475 167.457H336.525C338.294 167.997 340.132 168.279 341.981 168.296C353.959 168.296 366.322 157.385 372.676 140.246C375.871 132.021 376.869 123.105 375.572 114.377C374.645 106.643 369.954 99.8686 363.04 96.2807C353.774 91.3553 344.089 87.2601 334.1 84.0431C257.845 59.0306 202.86 92.7471 172.106 121.965C175.177 100.786 176.567 79.3966 176.261 57.9983V29.9642C176.261 13.043 150.93 4.19629 125.9 4.19629C100.871 4.19629 75.5397 13.0514 75.5397 29.9726C75.5397 35.9906 75.6321 41.6059 75.7076 46.7594C75.8503 55.7488 75.9678 63.5463 75.5649 69.6064C75.0613 77.0933 72.367 102.248 58.5262 111.691C31.1228 130.198 15.9141 162.113 18.8001 195.055C8.00417 215.469 1.75621 237.978 0.485566 261.036C-4.33069 352.602 46.6594 438.002 129.552 477.2C169.84 497.345 203.573 507.35 231.523 507.35C245.823 507.61 259.976 504.444 272.802 498.117C317.716 475.245 331.372 413.872 341.52 352.91C343.059 343.667 344.101 334.348 344.642 324.994C344.906 320.358 341.362 316.386 336.727 316.122C332.091 315.858 328.119 319.401 327.855 324.037C327.349 332.792 326.374 341.514 324.934 350.166C315.5 406.838 303.111 463.788 265.164 483.109C236.434 497.747 194.525 490.873 137.03 462.126C60.2318 425.956 12.9023 346.965 17.2305 262.186C18.3451 241.788 23.7991 221.863 33.2284 203.742C34.2037 202.757 34.9139 201.542 35.2932 200.208C45.9464 181.216 63.1867 166.782 83.7569 159.634C96.9844 154.93 111.06 153.088 125.053 154.229C134.195 155.097 143.111 157.583 151.383 161.573C194.936 182.7 211.942 240.354 212.109 240.942C213.384 245.399 218.031 247.979 222.488 246.704C226.945 245.429 229.525 240.782 228.25 236.325C227.545 233.807 211.295 178.411 167.641 151.4C189.179 124.995 244.718 72.4098 328.887 100.024C331.515 100.864 334.133 101.955 336.76 102.954C331.208 108.432 326.954 115.087 324.313 122.426C321.426 129.923 320.331 137.991 321.115 145.987C282.958 137.736 258.743 144.719 244.651 152.827C239.38 155.65 234.703 159.463 230.877 164.058C229.024 166.6 228.748 169.966 230.163 172.776C231.578 175.586 234.446 177.369 237.592 177.395C240.185 177.397 242.637 176.213 244.248 174.18C246.338 171.964 248.718 170.042 251.324 168.464C265.349 167.734 280.18 176.287 293.291 192.956C295.147 195.312 298.119 196.498 301.087 196.068C304.055 195.639 306.568 193.658 307.68 190.873C308.792 188.088 308.333 184.921 306.477 182.565C299.412 173.292 290.64 165.455 280.634 159.475C299.588 158.503 318.552 161.214 336.475 167.457ZM125.9 20.9832C146.162 20.9832 157.795 27.2615 159.39 29.9726C157.837 32.734 146.179 38.9703 125.9 38.9703C105.093 38.9703 93.3842 32.3479 92.3266 30.2747V30.216C93.401 27.6056 105.11 20.9832 125.9 20.9832ZM78.4439 143.704C63.0629 148.872 49.1441 157.65 37.8532 169.304C41.8501 151.377 52.654 135.704 67.9856 125.591C87.5423 112.253 91.4873 82.7841 92.3266 70.7563C92.7295 64.7718 92.6707 57.7129 92.5532 49.7055C103.169 53.8751 114.497 55.9308 125.9 55.7572C137.386 55.9369 148.794 53.852 159.474 49.6216V58.015C160.466 86.6134 157.357 115.206 150.241 142.923C142.673 140.121 134.773 138.313 126.74 137.543C110.386 136.154 93.9247 138.254 78.4439 143.704ZM356.938 134.471C352.347 146.91 344.054 152.534 341.108 151.4C338.162 150.267 335.476 140.674 340.059 128.243C341.958 122.714 345.233 117.76 349.577 113.848C351.099 112.415 353.029 111.491 355.1 111.204C355.371 111.196 355.642 111.239 355.897 111.33C357.257 111.834 358.491 114.192 359.053 117.348C359.812 123.14 359.084 129.038 356.938 134.471Z" fill="#2B3990"/>
<path d="M480.782 121.536C472.707 110.239 457.011 107.61 445.697 115.661L271.583 238.583C264.145 243.936 260.218 252.921 261.343 262.017L238.975 277.965C231.609 273.462 222.267 273.793 215.238 278.804L81.8161 374.128C75.1122 378.938 73.5587 388.263 78.3412 394.986C88.4063 408.765 104.785 416.484 121.819 415.474H218.226C222.862 415.474 226.62 411.717 226.62 407.081C226.62 402.445 222.862 398.688 218.226 398.688H182.135C197.387 391.205 211.986 382.459 225.78 372.542L263.14 345.859C270.168 340.841 273.51 332.103 271.625 323.675L293.986 307.728C296.107 308.788 298.367 309.543 300.7 309.969C302.087 310.203 303.491 310.32 304.897 310.321C310.113 310.323 315.197 308.688 319.434 305.646L493.531 182.733C498.969 178.854 502.643 172.974 503.745 166.386C504.847 159.799 503.286 153.043 499.407 147.606L480.782 121.536ZM263.232 309.02L250.121 290.664L268.486 277.545L281.597 295.91L263.232 309.02ZM253.361 332.203L216.002 358.877C193.757 375.613 168.668 388.184 141.947 395.985C119.041 401.634 102.607 398.503 93.1137 386.693L224.991 292.494C227.113 290.977 230.061 291.466 231.58 293.585L254.452 325.606C255.967 327.729 255.475 330.678 253.353 332.195L253.361 332.203ZM483.803 169.035L309.715 291.948C305.943 294.636 300.707 293.761 298.014 289.993L279.406 263.973C276.727 260.217 277.581 255.002 281.32 252.298L455.417 129.342C456.836 128.325 458.538 127.776 460.285 127.772C460.752 127.774 461.218 127.814 461.678 127.89C463.869 128.239 465.829 129.447 467.125 131.247L485.734 157.267C487.048 159.08 487.584 161.343 487.222 163.553C486.859 165.763 485.628 167.737 483.803 169.035Z" fill="#2B3990"/>
<path d="M276.984 415.475C281.619 415.475 285.377 411.717 285.377 407.082C285.377 402.446 281.619 398.688 276.984 398.688H251.804C247.168 398.688 243.41 402.446 243.41 407.082C243.41 411.717 247.168 415.475 251.804 415.475H276.984Z" fill="#2B3990"/>
</svg>
