<svg width="512" height="512" viewBox="0 0 512 512" fill="none" xmlns="http://www.w3.org/2000/svg">
<path d="M191.859 109.68C138.64 126.794 91.8822 164.282 82.7762 228.666C67.6062 335.921 117.907 429.529 219.306 488.997C260.03 512.881 281.346 506.177 298.381 489.01C309.659 477.645 320.294 465.817 330.048 453.457M339.376 441.081C380.897 383.358 402.627 314.202 382.125 227.119M373.219 195.854C368.971 183.578 363.12 168.766 357.201 155.773" stroke="#2B3990" stroke-width="15.0001" stroke-miterlimit="22.9256"/>
<path d="M158.566 185.514C243.557 163.068 257.475 117.802 339.28 90.8812C388.455 74.6982 410.527 137.201 358.421 158.838C333.082 169.36 293.881 182.559 276.434 201.697C228.374 254.418 270.042 298.6 228.374 344.053" stroke="#2B3990" stroke-width="15.0001" stroke-miterlimit="22.9256"/>
<path d="M140.428 134.892C132.332 120.735 129.149 99.678 129.996 78.02M131.271 62.575C133.936 41.36 140.289 21.008 149.502 7.5H189.959C192.091 25.461 197.72 59.696 210.98 74.792" stroke="#2B3990" stroke-width="15.0001" stroke-miterlimit="22.9256"/>
<path d="M252.629 247.62C269.975 257.392 298.151 282.046 304.625 316.473" stroke="#2B3990" stroke-width="15.0001" stroke-miterlimit="22.9256"/>
<path d="M185.505 176.84C175.419 123.829 204.842 65.7842 244.214 46.5342L240.694 28.1642L272.482 22.0732L275.941 40.1252C282.108 40.6342 288.325 42.1932 294.502 44.9372L305.61 30.4492L331.296 50.1422L320.435 64.3082C326.965 71.4152 333.289 80.1972 339.279 90.8802" stroke="#2B3990" stroke-width="15.0001" stroke-miterlimit="22.9256"/>
<path d="M276.435 201.697C314.722 187.293 386.796 190.927 422.017 211.091C442.608 222.879 427.703 248.915 407.112 237.126C383.672 223.707 355.274 221.277 328.868 224.09C300.305 227.132 277.664 235.232 252.633 247.62" stroke="#2B3990" stroke-width="15.0001" stroke-miterlimit="22.9256"/>
<path d="M351.117 283.271H366.117M343.617 253.271H358.617" stroke="#2B3990" stroke-width="15.0001" stroke-miterlimit="22.9256"/>
</svg>
