<svg width="60" height="60" viewBox="0 0 60 60" fill="none" xmlns="http://www.w3.org/2000/svg">
<g clip-path="url(#clip0_1107_2461)">
<path d="M9.292 44.1646C10.394 45.5775 10.9948 47.3168 11 49.1086V56.9996C11 57.7952 11.3161 58.5583 11.8787 59.1209C12.4413 59.6835 13.2044 59.9996 14 59.9996H34C34.7956 59.9996 35.5587 59.6835 36.1213 59.1209C36.6839 58.5583 37 57.7952 37 56.9996V54.7596C40.2688 54.2924 43.3798 53.0554 46.077 51.1506L54.127 59.2106C54.6405 59.7154 55.3321 59.9979 56.0522 59.9967C56.7723 59.9956 57.4631 59.711 57.975 59.2046L59.206 57.9746C59.7128 57.4612 59.9969 56.7689 59.9969 56.0476C59.9969 55.3262 59.7128 54.6339 59.206 54.1206L51.152 46.0766C53.0245 43.4316 54.2574 40.388 54.7537 37.1854C55.25 33.9829 54.9961 30.7089 54.0119 27.6212C53.0278 24.5335 51.3403 21.7164 49.0824 19.3917C46.8245 17.067 44.0577 15.2982 41 14.2246V9.16858C41.0122 7.90592 40.5585 6.68309 39.7257 5.7339C38.8929 4.78472 37.7395 4.1758 36.486 4.02359C35.7942 3.95579 35.0958 4.03301 34.4355 4.2503C33.7751 4.4676 33.1674 4.82019 32.651 5.28558C32.3763 4.5176 31.9163 3.82926 31.3119 3.28162C30.7074 2.73398 29.9772 2.34395 29.1859 2.14613C28.3946 1.94831 27.5667 1.9488 26.7756 2.14756C25.9846 2.34633 25.2548 2.73722 24.651 3.28559C24.376 2.51642 23.9152 1.82715 23.3095 1.2791C22.7038 0.731051 21.972 0.341209 21.1792 0.14426C20.3865 -0.0526897 19.5573 -0.0506402 18.7656 0.150226C17.9738 0.351092 17.244 0.744546 16.641 1.29559C16.2383 1.66038 15.8981 2.08872 15.634 2.56359C15.546 2.47159 15.455 2.38159 15.359 2.29559C14.842 1.82776 14.2331 1.47299 13.5712 1.25396C12.9093 1.03493 12.209 0.956464 11.515 1.02359C10.2613 1.17557 9.10765 1.78439 8.27467 2.7336C7.44169 3.68281 6.98787 4.90577 7 6.16859V10.0616C5.06765 10.3076 3.29113 11.2492 2.00275 12.7103C0.714367 14.1713 0.00239012 16.0516 0 17.9996L0 28.8896C0.00629375 31.1283 0.757031 33.3014 2.134 35.0666L9.292 44.1646ZM57.792 56.5646L56.562 57.7936C56.425 57.9278 56.2408 58.003 56.049 58.003C55.8572 58.003 55.673 57.9278 55.536 57.7936L50.386 52.6376L52.636 50.3876L57.786 55.5316C57.9211 55.6684 57.9973 55.8528 57.9982 56.0451C57.9991 56.2374 57.9248 56.4224 57.791 56.5606L57.792 56.5646ZM51.22 48.9716L48.972 51.2196L47.666 49.9116C48.4696 49.22 49.2204 48.4692 49.912 47.6656L51.22 48.9716ZM53 33.9996C53 37.7574 51.8857 41.4309 49.7979 44.5554C47.7102 47.68 44.7428 50.1152 41.271 51.5533C37.7992 52.9914 33.9789 53.3676 30.2933 52.6345C26.6076 51.9014 23.2222 50.0918 20.565 47.4346C17.9078 44.7774 16.0982 41.3919 15.3651 37.7063C14.632 34.0207 15.0082 30.2004 16.4463 26.7286C17.8844 23.2568 20.3196 20.2894 23.4442 18.2017C26.5687 16.1139 30.2422 14.9996 34 14.9996C39.0374 15.0051 43.8669 17.0087 47.4289 20.5707C50.9909 24.1327 52.9944 28.9622 53 33.9996ZM2 17.9996C2.00263 16.583 2.50587 15.213 3.4208 14.1316C4.33573 13.0501 5.60346 12.3269 7 12.0896V25.9996C7 26.2648 7.10536 26.5192 7.29289 26.7067C7.48043 26.8942 7.73478 26.9996 8 26.9996C8.26522 26.9996 8.51957 26.8942 8.70711 26.7067C8.89464 26.5192 9 26.2648 9 25.9996V10.9996V6.16859C8.98448 5.402 9.25196 4.65658 9.75132 4.07475C10.2507 3.49293 10.9469 3.1155 11.707 3.01459C12.1238 2.97176 12.5449 3.01741 12.9428 3.14855C13.3407 3.27969 13.7064 3.49336 14.016 3.77559C14.3256 4.05749 14.5731 4.40088 14.7425 4.78382C14.912 5.16676 14.9996 5.58084 15 5.99959C15 6.2648 15.1054 6.51916 15.2929 6.70669C15.4804 6.89423 15.7348 6.99959 16 6.99959C16.2652 6.99959 16.5196 6.89423 16.7071 6.70669C16.8946 6.51916 17 6.2648 17 5.99959V4.99959C17.0002 4.58096 17.088 4.16701 17.2578 3.78436C17.4276 3.40172 17.6756 3.05884 17.9859 2.77779C18.2961 2.49673 18.6618 2.28372 19.0593 2.15245C19.4568 2.02118 19.8774 1.97456 20.294 2.01559C21.0537 2.1167 21.7496 2.49409 22.2487 3.07568C22.7479 3.65727 23.0153 4.40232 23 5.16859V6.99959C23 7.2648 23.1054 7.51916 23.2929 7.70669C23.4804 7.89423 23.7348 7.99959 24 7.99959C24.2652 7.99959 24.5196 7.89423 24.7071 7.70669C24.8946 7.51916 25 7.2648 25 6.99959C25.0005 6.581 25.0882 6.16712 25.2577 5.78436C25.4271 5.4016 25.6745 5.05837 25.984 4.77659C26.2936 4.49407 26.6595 4.28021 27.0576 4.14906C27.4557 4.01791 27.8771 3.97242 28.294 4.01558C29.0537 4.1167 29.7496 4.49409 30.2487 5.07568C30.7479 5.65727 31.0153 6.40232 31 7.16859V8.99959C31 9.2648 31.1054 9.51916 31.2929 9.70669C31.4804 9.89423 31.7348 9.99959 32 9.99959C32.2652 9.99959 32.5196 9.89423 32.7071 9.70669C32.8946 9.51916 33 9.2648 33 8.99959C33.0005 8.581 33.0882 8.16712 33.2577 7.78436C33.4271 7.4016 33.6745 7.05837 33.984 6.77659C34.2939 6.49444 34.6598 6.28083 35.0578 6.1497C35.4559 6.01857 35.8771 5.97287 36.294 6.01558C37.0537 6.1167 37.7496 6.49409 38.2487 7.07568C38.7479 7.65727 39.0153 8.40232 39 9.16858V13.6266C36.1159 12.9175 33.1142 12.8286 30.1932 13.3656C27.2722 13.9026 24.4984 15.0535 22.0551 16.742C19.6118 18.4305 17.5547 20.6184 16.0197 23.1609C14.4846 25.7034 13.5066 28.5427 13.1503 31.4912C12.794 34.4398 13.0674 37.4303 13.9526 40.2653C14.8377 43.1003 16.3144 45.7152 18.2851 47.9372C20.2558 50.1592 22.6756 51.9376 25.3845 53.1551C28.0935 54.3725 31.03 55.0012 34 54.9996C34.338 54.9996 34.666 54.9646 35 54.9486V56.9996C35 57.2648 34.8946 57.5192 34.7071 57.7067C34.5196 57.8942 34.2652 57.9996 34 57.9996H14C13.7348 57.9996 13.4804 57.8942 13.2929 57.7067C13.1054 57.5192 13 57.2648 13 56.9996V49.1086C12.9937 46.8698 12.243 44.6968 10.866 42.9316L3.708 33.8316C2.60645 32.4192 2.00562 30.6807 2 28.8896V17.9996Z" fill="#2B3990"/>
<path d="M17 34C17.0003 37.1795 17.8923 40.2952 19.5746 42.9931C21.257 45.6911 23.6622 47.8632 26.5171 49.2627C29.372 50.6622 32.5622 51.2331 35.7253 50.9104C38.8883 50.5877 41.8975 49.3845 44.4111 47.4373C46.9246 45.4901 48.8416 42.8771 49.9445 39.895C51.0474 36.9129 51.2919 33.6813 50.6502 30.5672C50.0085 27.4532 48.5064 24.5815 46.3144 22.2783C44.1225 19.9752 41.3285 18.3329 38.25 17.538C37.9955 17.4782 37.7277 17.5204 37.5039 17.6556C37.2802 17.7908 37.1183 18.0083 37.0529 18.2614C36.9875 18.5145 37.0239 18.7832 37.1542 19.0099C37.2845 19.2365 37.4984 19.4031 37.75 19.474C38.1747 19.584 38.5913 19.7117 39 19.857V31.3C39.0023 32.28 38.7978 33.2494 38.4 34.145L35.783 40.039C35.2675 41.1907 35.0007 42.4382 35 43.7V48.949C34.668 48.971 34.338 49 34 49C30.0218 49 26.2064 47.4196 23.3934 44.6066C20.5804 41.7936 19 37.9782 19 34C19 30.0218 20.5804 26.2064 23.3934 23.3934C26.2064 20.5804 30.0218 19 34 19C34.2652 19 34.5196 18.8946 34.7071 18.7071C34.8946 18.5196 35 18.2652 35 18C35 17.7348 34.8946 17.4804 34.7071 17.2929C34.5196 17.1054 34.2652 17 34 17C29.4929 17.005 25.1718 18.7977 21.9847 21.9847C18.7977 25.1718 17.005 29.4929 17 34ZM37 43.7C36.9977 42.72 37.2022 41.7506 37.6 40.855L40.217 34.961C40.7325 33.8093 40.9993 32.5618 41 31.3V20.74C43.734 22.1838 45.9551 24.4372 47.3592 27.1918C48.7634 29.9464 49.282 33.0676 48.8441 36.1283C48.4063 39.189 47.0333 42.0396 44.9131 44.29C42.793 46.5404 40.0292 48.0807 37 48.7V43.7Z" fill="#2B3990"/>
<path d="M32 42C31.7348 42 31.4804 42.1054 31.2929 42.2929C31.1054 42.4804 31 42.7348 31 43V44C31 44.2652 31.1054 44.5196 31.2929 44.7071C31.4804 44.8946 31.7348 45 32 45C32.2652 45 32.5196 44.8946 32.7071 44.7071C32.8946 44.5196 33 44.2652 33 44V43C33 42.7348 32.8946 42.4804 32.7071 42.2929C32.5196 42.1054 32.2652 42 32 42Z" fill="#2B3990"/>
<path d="M33 38C33 37.7348 32.8946 37.4804 32.7071 37.2929C32.5196 37.1054 32.2652 37 32 37C31.7348 37 31.4804 37.1054 31.2929 37.2929C31.1054 37.4804 31 37.7348 31 38V39C31 39.2652 31.1054 39.5196 31.2929 39.7071C31.4804 39.8946 31.7348 40 32 40C32.2652 40 32.5196 39.8946 32.7071 39.7071C32.8946 39.5196 33 39.2652 33 39V38Z" fill="#2B3990"/>
<path d="M33 33C33 32.7348 32.8946 32.4804 32.7071 32.2929C32.5196 32.1054 32.2652 32 32 32C31.7348 32 31.4804 32.1054 31.2929 32.2929C31.1054 32.4804 31 32.7348 31 33V34C31 34.2652 31.1054 34.5196 31.2929 34.7071C31.4804 34.8946 31.7348 35 32 35C32.2652 35 32.5196 34.8946 32.7071 34.7071C32.8946 34.5196 33 34.2652 33 34V33Z" fill="#2B3990"/>
<path d="M33 28C33 27.7348 32.8946 27.4804 32.7071 27.2929C32.5196 27.1054 32.2652 27 32 27C31.7348 27 31.4804 27.1054 31.2929 27.2929C31.1054 27.4804 31 27.7348 31 28V29C31 29.2652 31.1054 29.5196 31.2929 29.7071C31.4804 29.8946 31.7348 30 32 30C32.2652 30 32.5196 29.8946 32.7071 29.7071C32.8946 29.5196 33 29.2652 33 29V28Z" fill="#2B3990"/>
<path d="M33 23C33 22.7348 32.8946 22.4804 32.7071 22.2929C32.5196 22.1054 32.2652 22 32 22C31.7348 22 31.4804 22.1054 31.2929 22.2929C31.1054 22.4804 31 22.7348 31 23V24C31 24.2652 31.1054 24.5196 31.2929 24.7071C31.4804 24.8946 31.7348 25 32 25C32.2652 25 32.5196 24.8946 32.7071 24.7071C32.8946 24.5196 33 24.2652 33 24V23Z" fill="#2B3990"/>
<path d="M36 31C35.7348 31 35.4804 31.1054 35.2929 31.2929C35.1054 31.4804 35 31.7348 35 32V33C35 33.2652 35.1054 33.5196 35.2929 33.7071C35.4804 33.8946 35.7348 34 36 34C36.2652 34 36.5196 33.8946 36.7071 33.7071C36.8946 33.5196 37 33.2652 37 33V32C37 31.7348 36.8946 31.4804 36.7071 31.2929C36.5196 31.1054 36.2652 31 36 31Z" fill="#2B3990"/>
<path d="M37 27C37 26.7348 36.8946 26.4804 36.7071 26.2929C36.5196 26.1054 36.2652 26 36 26C35.7348 26 35.4804 26.1054 35.2929 26.2929C35.1054 26.4804 35 26.7348 35 27V28C35 28.2652 35.1054 28.5196 35.2929 28.7071C35.4804 28.8946 35.7348 29 36 29C36.2652 29 36.5196 28.8946 36.7071 28.7071C36.8946 28.5196 37 28.2652 37 28V27Z" fill="#2B3990"/>
<path d="M35 23C35 23.2652 35.1054 23.5196 35.2929 23.7071C35.4804 23.8946 35.7348 24 36 24C36.2652 24 36.5196 23.8946 36.7071 23.7071C36.8946 23.5196 37 23.2652 37 23V22C37 21.7348 36.8946 21.4804 36.7071 21.2929C36.5196 21.1054 36.2652 21 36 21C35.7348 21 35.4804 21.1054 35.2929 21.2929C35.1054 21.4804 35 21.7348 35 22V23Z" fill="#2B3990"/>
<path d="M29 35C29 34.7348 28.8946 34.4804 28.7071 34.2929C28.5196 34.1054 28.2652 34 28 34C27.7348 34 27.4804 34.1054 27.2929 34.2929C27.1054 34.4804 27 34.7348 27 35V36C27 36.2652 27.1054 36.5196 27.2929 36.7071C27.4804 36.8946 27.7348 37 28 37C28.2652 37 28.5196 36.8946 28.7071 36.7071C28.8946 36.5196 29 36.2652 29 36V35Z" fill="#2B3990"/>
<path d="M28 39C27.7348 39 27.4804 39.1054 27.2929 39.2929C27.1054 39.4804 27 39.7348 27 40V41C27 41.2652 27.1054 41.5196 27.2929 41.7071C27.4804 41.8946 27.7348 42 28 42C28.2652 42 28.5196 41.8946 28.7071 41.7071C28.8946 41.5196 29 41.2652 29 41V40C29 39.7348 28.8946 39.4804 28.7071 39.2929C28.5196 39.1054 28.2652 39 28 39Z" fill="#2B3990"/>
<path d="M29 30C29 29.7348 28.8946 29.4804 28.7071 29.2929C28.5196 29.1054 28.2652 29 28 29C27.7348 29 27.4804 29.1054 27.2929 29.2929C27.1054 29.4804 27 29.7348 27 30V31C27 31.2652 27.1054 31.5196 27.2929 31.7071C27.4804 31.8946 27.7348 32 28 32C28.2652 32 28.5196 31.8946 28.7071 31.7071C28.8946 31.5196 29 31.2652 29 31V30Z" fill="#2B3990"/>
<path d="M25 34C25 33.7348 24.8946 33.4804 24.7071 33.2929C24.5196 33.1054 24.2652 33 24 33C23.7348 33 23.4804 33.1054 23.2929 33.2929C23.1054 33.4804 23 33.7348 23 34V35C23 35.2652 23.1054 35.5196 23.2929 35.7071C23.4804 35.8946 23.7348 36 24 36C24.2652 36 24.5196 35.8946 24.7071 35.7071C24.8946 35.5196 25 35.2652 25 35V34Z" fill="#2B3990"/>
<path d="M24 38C23.7348 38 23.4804 38.1054 23.2929 38.2929C23.1054 38.4804 23 38.7348 23 39V40C23 40.2652 23.1054 40.5196 23.2929 40.7071C23.4804 40.8946 23.7348 41 24 41C24.2652 41 24.5196 40.8946 24.7071 40.7071C24.8946 40.5196 25 40.2652 25 40V39C25 38.7348 24.8946 38.4804 24.7071 38.2929C24.5196 38.1054 24.2652 38 24 38Z" fill="#2B3990"/>
<path d="M25 29C25 28.7348 24.8946 28.4804 24.7071 28.2929C24.5196 28.1054 24.2652 28 24 28C23.7348 28 23.4804 28.1054 23.2929 28.2929C23.1054 28.4804 23 28.7348 23 29V30C23 30.2652 23.1054 30.5196 23.2929 30.7071C23.4804 30.8946 23.7348 31 24 31C24.2652 31 24.5196 30.8946 24.7071 30.7071C24.8946 30.5196 25 30.2652 25 30V29Z" fill="#2B3990"/>
<path d="M29 25C29 24.7348 28.8946 24.4804 28.7071 24.2929C28.5196 24.1054 28.2652 24 28 24C27.7348 24 27.4804 24.1054 27.2929 24.2929C27.1054 24.4804 27 24.7348 27 25V26C27 26.2652 27.1054 26.5196 27.2929 26.7071C27.4804 26.8946 27.7348 27 28 27C28.2652 27 28.5196 26.8946 28.7071 26.7071C28.8946 26.5196 29 26.2652 29 26V25Z" fill="#2B3990"/>
</g>
<defs>
<clipPath id="clip0_1107_2461">
<rect width="60" height="60" fill="white"/>
</clipPath>
</defs>
</svg>
