<svg width="512" height="512" viewBox="0 0 512 512" fill="none" xmlns="http://www.w3.org/2000/svg">
<path d="M38.9688 371.129V484.319C38.9688 495.459 47.9987 504.499 59.1387 504.499H127.149C138.289 504.499 147.319 495.459 147.319 484.319V259.579C147.319 248.439 138.289 239.409 127.149 239.409H59.1387C47.9987 239.409 38.9688 248.439 38.9688 259.579V336.129" stroke="#2B3990" stroke-width="15" stroke-miterlimit="10" stroke-linecap="round" stroke-linejoin="round"/>
<path d="M119.484 125.909H66.8086V239.409H119.484V125.909Z" stroke="#2B3990" stroke-width="15" stroke-miterlimit="10" stroke-linecap="round" stroke-linejoin="round"/>
<path d="M137.086 125.909H78.0217C50.9327 125.909 28.9727 103.949 28.9727 76.86V56.55C28.9717 29.46 50.9327 7.5 78.0217 7.5H137.087C147.794 7.5 156.475 16.18 156.475 26.888V106.521C156.474 117.228 147.794 125.909 137.086 125.909Z" stroke="#2B3990" stroke-width="15" stroke-miterlimit="10" stroke-linecap="round" stroke-linejoin="round"/>
<path d="M207.269 47.8691L228.899 49.3591C236.039 49.8591 241.579 55.7891 241.579 62.9491C241.579 66.5191 240.189 69.7991 237.919 72.2391C235.639 74.6791 232.469 76.2791 228.899 76.5291L156.469 81.5191V44.3691L172.659 45.4891" stroke="#2B3990" stroke-width="15" stroke-miterlimit="10" stroke-linecap="round" stroke-linejoin="round"/>
<path d="M38.9727 279.752H147.322" stroke="#2B3990" stroke-width="15" stroke-miterlimit="10" stroke-linecap="round" stroke-linejoin="round"/>
<path d="M38.9727 311.692H147.322" stroke="#2B3990" stroke-width="15" stroke-miterlimit="10" stroke-linecap="round" stroke-linejoin="round"/>
<path d="M468.619 317.619C471.119 310.309 473.849 303.079 476.769 295.919C480.989 285.579 483.229 274.209 483.009 262.299C482.159 217.259 445.599 180.429 400.569 179.259C381.949 178.769 364.639 184.309 350.449 194.059C339.489 201.589 325.109 201.589 314.149 194.059C299.959 184.309 282.649 178.769 264.029 179.259C218.999 180.429 182.439 217.259 181.589 262.299C181.369 274.209 183.609 285.579 187.829 295.919C199.089 323.479 207.389 352.159 211.309 381.679L224.469 480.629C226.279 494.289 237.939 504.499 251.719 504.499C257.679 504.499 263.299 502.58 267.889 499.24C272.479 495.9 276.039 491.14 277.869 485.46L302.579 408.969C311.899 380.129 352.699 380.129 362.019 408.969L386.729 485.46C390.389 496.81 400.959 504.499 412.879 504.499C419.769 504.499 426.129 501.949 430.989 497.689C435.859 493.429 439.229 487.459 440.129 480.629L453.289 381.679C454.679 371.189 456.629 360.809 459.069 350.549" stroke="#2B3990" stroke-width="15" stroke-miterlimit="10" stroke-linecap="round" stroke-linejoin="round"/>
</svg>
