<svg width="100" height="100" viewBox="0 0 100 100" fill="none" xmlns="http://www.w3.org/2000/svg">
<path d="M18.6992 91.6996C18.6992 86.9996 18.6992 82.4996 18.6992 77.7996C16.3992 77.7996 14.1992 77.7996 11.9992 77.7996C9.29922 77.7996 8.39922 76.8996 8.29922 74.1996C8.29922 72.8996 8.29922 71.5996 8.29922 70.2996C8.29922 67.6996 9.19922 66.6996 11.8992 66.6996C25.1992 66.6996 38.4992 66.6996 51.6992 66.6996C59.3992 66.6996 67.1992 66.6996 74.8992 66.6996C75.2992 66.6996 75.7992 66.6996 76.2992 66.6996C76.2992 54.8996 76.2992 43.0996 76.2992 31.2996C71.8992 31.2996 67.6992 31.2996 63.1992 31.2996C63.1992 31.9996 63.1992 32.5996 63.1992 33.2996C63.1992 34.5996 63.1992 35.7996 63.1992 37.0996C63.1992 39.8996 61.4992 41.5996 58.6992 41.6996C56.6992 41.6996 54.6992 41.6996 52.6992 41.6996C52.2992 41.6996 51.8992 41.6996 51.3992 41.6996C51.3992 42.9996 51.3992 44.1996 51.3992 45.2996C51.3992 48.3996 49.7992 49.9996 46.6992 49.9996C43.2992 49.9996 39.8992 49.9996 36.4992 49.9996C33.6992 49.9996 31.9992 48.2996 31.9992 45.4996C31.9992 44.2996 31.9992 43.0996 31.9992 41.6996C30.1992 41.6996 28.3992 41.6996 26.6992 41.6996C25.9992 41.6996 25.2992 41.6996 24.5992 41.6996C21.7992 41.5996 20.1992 39.9996 20.0992 37.1996C20.0992 34.0996 20.0992 30.8996 20.0992 27.7996C20.0992 22.8996 20.0992 18.0996 20.0992 13.1996C20.0992 9.89961 21.6992 8.29961 24.9992 8.29961C36.0992 8.29961 47.2992 8.29961 58.3992 8.29961C61.5992 8.29961 63.1992 9.89961 63.1992 13.0996C63.1992 14.8996 63.1992 16.7996 63.1992 18.6996C67.5992 18.6996 71.9992 18.6996 76.3992 18.6996C76.3992 18.1996 76.3992 17.7996 76.3992 17.3996C76.3992 14.4996 76.3992 11.4996 76.3992 8.59961C76.3992 6.69961 77.4992 5.59961 79.3992 5.59961C82.3992 5.59961 85.3992 5.59961 88.3992 5.59961C90.4992 5.59961 91.5992 6.69961 91.5992 8.79961C91.5992 16.6996 91.5992 24.4996 91.5992 32.3996C91.5992 52.3996 91.5992 72.3996 91.5992 92.3996C91.5992 94.2996 91.1992 94.6996 89.2992 94.6996C62.9992 94.6996 36.7992 94.6996 10.4992 94.6996C8.89922 94.6996 8.19922 94.2996 8.19922 93.2996C8.19922 92.2996 8.89922 91.8996 10.3992 91.8996C13.1992 91.6996 15.8992 91.6996 18.6992 91.6996ZM88.7992 91.6996C88.7992 63.8996 88.7992 36.0996 88.7992 8.39961C85.5992 8.39961 82.3992 8.39961 79.1992 8.39961C79.1992 36.1996 79.1992 63.8996 79.1992 91.6996C82.4992 91.6996 85.5992 91.6996 88.7992 91.6996ZM21.5992 77.7996C21.5992 82.4996 21.5992 86.9996 21.5992 91.5996C34.9992 91.5996 48.3992 91.5996 61.6992 91.5996C61.6992 86.9996 61.6992 82.3996 61.6992 77.7996C48.2992 77.7996 34.9992 77.7996 21.5992 77.7996ZM41.6992 11.0996C36.0992 11.0996 30.4992 11.0996 24.8992 11.0996C23.2992 11.0996 22.8992 11.4996 22.8992 13.1996C22.8992 21.0996 22.8992 28.9996 22.8992 36.8996C22.8992 38.4996 23.2992 38.9996 24.8992 38.9996C35.9992 38.9996 47.1992 38.9996 58.2992 38.9996C59.8992 38.9996 60.3992 38.5996 60.3992 36.9996C60.3992 29.0996 60.3992 21.0996 60.3992 13.1996C60.3992 11.5996 59.9992 11.1996 58.3992 11.1996C52.8992 11.0996 47.2992 11.0996 41.6992 11.0996ZM76.2992 74.9996C76.2992 73.0996 76.2992 71.3996 76.2992 69.5996C54.4992 69.5996 32.7992 69.5996 11.0992 69.5996C11.0992 71.4996 11.0992 73.1996 11.0992 74.9996C32.8992 74.9996 54.5992 74.9996 76.2992 74.9996ZM64.6992 77.8996C64.6992 82.4996 64.6992 87.0996 64.6992 91.6996C68.5992 91.6996 72.4992 91.6996 76.3992 91.6996C76.3992 87.0996 76.3992 82.4996 76.3992 77.8996C72.3992 77.8996 68.4992 77.8996 64.6992 77.8996ZM76.3992 21.5996C71.9992 21.5996 67.6992 21.5996 63.2992 21.5996C63.2992 23.8996 63.2992 26.0996 63.2992 28.3996C67.6992 28.3996 71.9992 28.3996 76.3992 28.3996C76.3992 26.0996 76.3992 23.8996 76.3992 21.5996ZM34.7992 41.6996C34.7992 43.1996 34.7992 44.5996 34.7992 45.9996C34.7992 46.6996 35.3992 47.1996 36.0992 47.1996C39.7992 47.1996 43.4992 47.1996 47.2992 47.1996C47.6992 47.1996 48.4992 46.5996 48.5992 46.1996C48.7992 44.7996 48.6992 43.2996 48.6992 41.7996C43.8992 41.6996 39.3992 41.6996 34.7992 41.6996Z" fill="#2B3990"/>
<path d="M41.8001 62.5C38.3001 62.4 35.5001 61.3 33.2001 59.2C32.3001 58.4 32.2001 57.6 32.8001 57C33.4001 56.4 34.2001 56.4 35.0001 57.2C39.1001 60.7 44.2001 60.8 48.3001 57.2C49.2001 56.4 50.0001 56.4 50.6001 57C51.2001 57.6 51.0001 58.5 50.2001 59.2C47.7001 61.5 44.7001 62.5 41.8001 62.5Z" fill="#2B3990"/>
<path d="M41.5982 56.2996C39.9982 56.1996 38.5982 55.6996 37.3982 54.5996C36.7982 53.9996 36.5982 53.2996 37.1982 52.5996C37.7982 51.8996 38.4982 51.9996 39.1982 52.4996C41.1982 53.8996 42.0982 53.8996 44.1982 52.4996C44.8982 51.9996 45.5982 51.9996 46.0982 52.5996C46.6982 53.2996 46.5982 53.9996 45.9982 54.5996C44.7982 55.6996 43.2982 56.1996 41.5982 56.2996Z" fill="#2B3990"/>
<path d="M41.6992 18C45.5992 18 49.5992 18 53.4992 18C55.0992 18 55.4992 18.4 55.4992 20C55.4992 24.7 55.4992 29.4 55.4992 34.1C55.4992 35.6 55.0992 36 53.5992 36C45.5992 36 37.6992 36 29.6992 36C28.1992 36 27.6992 35.6 27.6992 34.1C27.6992 29.4 27.6992 24.6 27.6992 19.9C27.6992 18.3 28.0992 18 29.5992 18C33.6992 18 37.6992 18 41.6992 18ZM30.5992 20.9C30.5992 25.1 30.5992 29.2 30.5992 33.3C37.9992 33.3 45.2992 33.3 52.6992 33.3C52.6992 29.1 52.6992 25.1 52.6992 20.9C45.2992 20.9 37.9992 20.9 30.5992 20.9Z" fill="#2B3990"/>
<path d="M52.3984 15.9C51.8984 15.9 51.2984 15.9 50.7984 15.9C49.9984 15.9 49.3984 15.4 49.3984 14.6C49.3984 13.8 49.7984 13.3 50.5984 13.2C51.8984 13.1 53.0984 13.1 54.3984 13.2C55.1984 13.2 55.5984 13.8 55.5984 14.6C55.5984 15.4 55.0984 15.9 54.2984 15.9C53.5984 15.9 52.9984 15.9 52.3984 15.9Z" fill="#2B3990"/>
<path d="M31.9008 14.6001C31.9008 15.7001 30.9008 16.6001 29.8008 16.6001C28.6008 16.6001 27.8008 15.7001 27.8008 14.5001C27.8008 13.4001 28.8008 12.4001 29.9008 12.5001C31.0008 12.5001 32.0008 13.5001 31.9008 14.6001Z" fill="#2B3990"/>
</svg>
