<svg width="510" height="510" viewBox="0 0 510 510" fill="none" xmlns="http://www.w3.org/2000/svg">
<path fill-rule="evenodd" clip-rule="evenodd" d="M428.075 62.893H429.883C437.27 62.893 444.355 65.828 449.578 71.051C454.802 76.275 457.736 83.359 457.736 90.747V261.573C457.736 268.96 454.802 276.044 449.578 281.268C444.355 286.491 437.27 289.426 429.883 289.426H180.131C172.744 289.426 165.659 286.491 160.436 281.268C155.212 276.044 152.278 268.96 152.278 261.573V247.578C152.278 243.714 155.414 240.578 159.278 240.578C163.141 240.578 166.278 243.714 166.278 247.578V261.573C166.278 265.247 167.737 268.77 170.335 271.368C172.933 273.966 176.457 275.426 180.131 275.426H429.883C433.557 275.426 437.081 273.966 439.679 271.368C442.277 268.77 443.736 265.247 443.736 261.573V90.747C443.736 87.072 442.277 83.549 439.679 80.951C437.081 78.353 433.557 76.893 429.883 76.893H180.131C176.457 76.893 172.933 78.353 170.335 80.951C167.737 83.549 166.278 87.072 166.278 90.747V122.746C166.278 126.61 163.141 129.746 159.278 129.746C155.414 129.746 152.278 126.61 152.278 122.746V90.747C152.278 83.359 155.212 76.275 160.436 71.051C165.659 65.828 172.744 62.893 180.131 62.893H181.94V47.311C181.94 39.606 188.186 33.36 195.891 33.36H217.447C225.152 33.36 231.398 39.606 231.398 47.311V62.893H246.881V28.903C246.881 23.36 249.083 18.043 253.003 14.123C256.923 10.203 262.239 8.00098 267.783 8.00098H342.231C347.775 8.00098 353.092 10.203 357.012 14.123C360.932 18.043 363.134 23.36 363.134 28.903V62.893H378.616V45.129C378.616 37.424 384.862 31.178 392.567 31.178H414.124C421.829 31.178 428.075 37.424 428.075 45.129V62.893ZM392.616 62.893H414.075V45.178H392.616V62.893ZM260.881 62.893H349.134V28.903C349.134 27.073 348.407 25.317 347.112 24.023C345.818 22.728 344.062 22.001 342.231 22.001H267.783C265.952 22.001 264.197 22.728 262.902 24.023C261.608 25.317 260.881 27.073 260.881 28.903V62.893ZM195.94 62.893H217.398V47.36H195.94V62.893ZM168.207 455.141C169.213 457.559 170.22 459.976 171.226 462.394L171.229 462.402C173.297 467.402 173.3 472.44 171.258 477.469L171.246 477.499C169.179 482.46 165.616 486.037 160.599 488.15L160.581 488.157L130.834 500.489C120.831 504.665 109.248 499.873 105.099 489.878C88.3166 449.552 71.5096 409.227 54.7276 368.902C52.6186 363.91 52.6116 358.844 54.6906 353.815C56.7646 348.799 60.3486 345.218 65.3316 343.142L95.1096 330.784C105.107 326.634 116.652 331.383 120.843 341.387L120.846 341.394C121.707 343.464 122.568 345.533 123.43 347.603C137.96 340.733 152.47 333.817 166.914 326.753C186.651 317.097 202.214 310.701 220.336 313.15C232.155 314.747 245.174 320.118 261.182 331.32L316.097 346.031C325.448 348.535 332.823 354.845 337.002 362.85L413.751 340.335C446.972 330.589 465.333 337.728 473.41 348.644C478.798 355.927 480.206 365.358 478.189 374.68C475.355 387.783 465.679 400.501 452.491 405.589L336.333 450.35C316.787 457.871 290.67 468.378 269.694 462.288L207.811 444.337L207.8 444.333C200.535 442.213 193.564 442.802 186.75 446.121L168.207 455.141ZM113.305 359.711C111.512 355.402 109.718 351.094 107.925 346.785C106.711 343.892 103.371 342.512 100.477 343.714L70.7096 356.068C69.2666 356.67 68.2296 357.71 67.6286 359.165C67.0356 360.597 67.0246 362.04 67.6376 363.484L67.6466 363.506C84.4306 403.837 101.24 444.168 118.025 484.501L118.027 484.504C119.224 487.388 122.563 488.775 125.458 487.562L155.196 475.234L155.219 475.224C156.663 474.607 157.705 473.578 158.319 472.123C158.895 470.67 158.892 469.207 158.293 467.755C156.449 463.326 154.606 458.896 152.762 454.467C152.749 454.436 152.736 454.404 152.723 454.372C139.587 422.819 126.44 391.265 113.305 359.711ZM162.817 442.194L180.62 433.534C190.688 428.631 200.988 427.761 211.712 430.891L273.595 448.843C282.256 451.357 291.946 450.128 301.496 447.681C312.033 444.981 322.401 440.71 331.302 437.285L447.451 392.528C456.278 389.122 462.609 380.49 464.506 371.72C465.644 366.46 465.195 361.08 462.155 356.971C459.566 353.472 455.174 351.078 448.887 350.111C441.113 348.914 430.862 349.905 417.692 353.769L340.753 376.339C340.958 379.798 340.623 383.341 339.681 386.858C334.938 404.567 316.55 415.188 298.853 410.418L224.273 390.447C220.541 389.448 218.322 385.606 219.322 381.874C220.321 378.143 224.162 375.924 227.894 376.923L302.475 396.894L302.486 396.897C312.751 399.664 323.408 393.502 326.157 383.236C328.908 372.967 322.745 362.305 312.475 359.554L256.357 344.521C255.554 344.306 254.795 343.949 254.117 343.468C240.03 333.47 228.778 328.418 218.461 327.024C202.999 324.935 189.905 331.09 173.066 339.328C158.368 346.518 143.602 353.552 128.816 360.542C140.147 387.758 151.485 414.975 162.817 442.194ZM278.215 149.368V125.923C278.215 118.218 284.461 111.972 292.166 111.972H317.848C325.553 111.972 331.799 118.218 331.799 125.923V149.368H355.244C362.949 149.368 369.195 155.614 369.195 163.319V189C369.195 196.705 362.949 202.951 355.244 202.951H331.799V226.397C331.799 234.102 325.553 240.348 317.848 240.348H292.166C284.461 240.348 278.215 234.102 278.215 226.397V202.951H254.77C247.065 202.951 240.819 196.705 240.819 189V163.319C240.819 155.614 247.065 149.368 254.77 149.368H278.215ZM254.819 163.368V188.951H285.215C289.081 188.951 292.215 192.085 292.215 195.951V226.348H317.799V195.951C317.799 192.085 320.933 188.951 324.799 188.951H355.195V163.368H324.799C320.933 163.368 317.799 160.234 317.799 156.368V125.972H292.215V156.368C292.215 160.234 289.081 163.368 285.215 163.368H254.819ZM96.4616 150.594C92.5986 150.594 89.4616 147.457 89.4616 143.594C89.4616 139.73 92.5986 136.594 96.4616 136.594H206.669C210.532 136.594 213.669 139.73 213.669 143.594C213.669 147.457 210.532 150.594 206.669 150.594H96.4616ZM37.9336 192.261C34.0696 192.261 30.9336 189.124 30.9336 185.261C30.9336 181.397 34.0696 178.261 37.9336 178.261H181.091C184.954 178.261 188.091 181.397 188.091 185.261C188.091 189.124 184.954 192.261 181.091 192.261H37.9336ZM69.9346 233.928C66.0716 233.928 62.9346 230.791 62.9346 226.928C62.9346 223.065 66.0716 219.928 69.9346 219.928H213.092C216.956 219.928 220.092 223.065 220.092 226.928C220.092 230.791 216.956 233.928 213.092 233.928H69.9346Z" fill="#2B3990"/>
</svg>
