<svg width="64" height="64" viewBox="0 0 64 64" fill="none" xmlns="http://www.w3.org/2000/svg">
<path d="M52.4148 49.246V43.401H56.7588C57.4958 43.401 58.1598 43.023 58.5358 42.389C58.9128 41.755 58.9268 40.991 58.5738 40.344C58.2208 39.697 53.4598 30.969 53.4598 30.969C53.7508 29.45 53.8978 27.902 53.8978 26.361C53.8978 12.928 42.9688 2 29.5368 2C16.1048 2 5.17578 12.928 5.17578 26.361C5.17578 35.883 10.7048 44.491 19.3178 48.474V60.999C19.3178 61.551 19.7648 61.999 20.3178 61.999H38.4698C39.0228 61.999 39.4698 61.551 39.4698 60.999V54.155C39.4698 54.05 39.5548 53.965 39.6598 53.965H47.6948C50.2978 53.965 52.4148 51.849 52.4148 49.246ZM51.4148 41.401C50.8618 41.401 50.4148 41.849 50.4148 42.401V45.065C47.6388 43.736 41.5788 41.092 38.0518 41.487C33.1378 42.036 33.1688 44.888 33.1918 46.97L33.1958 59.999H26.4858V43.297C26.4808 40.92 26.4748 37.328 28.8138 34.985C30.4068 33.389 32.9328 32.58 36.3248 32.58C44.7458 32.58 51.0658 38.88 53.2568 41.4L51.4148 41.401ZM20.7128 46.907C12.4888 43.369 7.17578 35.304 7.17578 26.361C7.17578 14.031 17.2068 4 29.5368 4C41.8668 4 51.8978 14.031 51.8978 26.361C51.8978 27.888 51.7398 29.424 51.4278 30.926C51.3798 31.158 51.4158 31.4 51.5298 31.608L56.8178 41.301L57.6958 40.822L56.7578 41.401H55.7818C55.7568 41.351 55.7468 41.297 55.7128 41.251C55.3968 40.815 47.8288 30.581 36.3228 30.581C32.3818 30.581 29.3778 31.588 27.3958 33.573C24.4708 36.503 24.4788 40.76 24.4838 43.302V60H21.3158V47.826C21.3158 47.427 21.0778 47.065 20.7118 46.908L20.7128 46.907ZM37.4698 54.156V60H35.1958V47.452L35.1918 46.949C35.1698 44.868 35.1578 43.823 38.2748 43.475C41.3478 43.135 47.6358 45.895 50.4158 47.289V49.246C50.4158 50.746 49.1958 51.966 47.6958 51.966H39.6608C38.4528 51.966 37.4708 52.948 37.4708 54.156H37.4698Z" fill="#2B3990"/>
<path d="M18.536 10.0563C15.157 12.6033 10.832 17.2643 9.41899 25.0113C9.31899 25.5543 9.67999 26.0753 10.223 26.1753C10.284 26.1863 10.344 26.1913 10.404 26.1913C10.878 26.1913 11.299 25.8533 11.386 25.3713C12.684 18.2593 16.646 13.9873 19.74 11.6553C20.181 11.3223 20.269 10.6963 19.937 10.2543C19.604 9.81432 18.978 9.72532 18.537 10.0573L18.536 10.0563Z" fill="#2B3990"/>
<path d="M22.8951 9.54611C23.0411 9.54611 23.1911 9.51411 23.3321 9.44511C24.2781 8.98511 24.8881 8.78411 24.8941 8.78211C25.4181 8.61111 25.7061 8.04811 25.5361 7.52311C25.3671 6.99911 24.8031 6.70811 24.2791 6.87911C24.2501 6.88811 23.5431 7.11811 22.4571 7.64611C21.9611 7.88811 21.7541 8.48611 21.9951 8.98311C22.1681 9.33811 22.5241 9.54611 22.8951 9.54611Z" fill="#2B3990"/>
<path d="M41.5977 34.602C41.4017 34.516 36.7357 32.508 32.7377 34.351C32.2367 34.582 32.0167 35.176 32.2487 35.678C32.4787 36.178 33.0707 36.399 33.5757 36.167C36.7487 34.702 40.7557 36.416 40.7947 36.433C40.9257 36.49 41.0617 36.516 41.1937 36.516C41.5797 36.516 41.9467 36.292 42.1107 35.917C42.3327 35.412 42.1027 34.824 41.5977 34.602Z" fill="#2B3990"/>
</svg>
