<svg width="512" height="512" viewBox="0 0 512 512" fill="none" xmlns="http://www.w3.org/2000/svg">
<g clip-path="url(#clip0_1105_2420)">
<path d="M264.48 53.334C264.434 54.0343 264.527 54.7368 264.753 55.4013C264.979 56.0658 265.334 56.6793 265.797 57.2067C266.26 57.7342 266.822 58.1652 267.452 58.4753C268.082 58.7854 268.766 58.9684 269.467 59.014C270.881 59.1059 272.274 58.6322 273.339 57.697C273.867 57.2339 274.298 56.6715 274.608 56.0419C274.918 55.4122 275.101 54.7277 275.147 54.0273C275.476 49.4629 276.963 45.0577 279.467 41.2273L300.8 8.58728C301.21 8.00259 301.498 7.34153 301.648 6.64331C301.798 5.94509 301.805 5.22393 301.671 4.5226C301.537 3.82126 301.263 3.15404 300.866 2.5605C300.469 1.96696 299.957 1.45918 299.36 1.06728C298.184 0.295387 296.751 0.0192203 295.373 0.298907C293.994 0.578593 292.782 1.39149 292 2.56062L270.667 35.2006C267.042 40.5939 264.907 46.8498 264.48 53.334Z" fill="#2B3990"/>
<path d="M474.666 179.894C466.446 155.566 450.777 134.443 429.88 119.519C408.983 104.595 383.918 96.6279 358.239 96.7471C353.922 96.7437 349.649 95.884 345.667 94.2179C341.684 92.5517 338.072 90.1121 335.039 87.0404L312.319 64.0004C309.184 60.7719 307.15 56.6346 306.508 52.1803C305.866 47.7259 306.65 43.1827 308.746 39.2004L325.333 8.00041C325.72 7.38058 325.977 6.68762 326.085 5.96457C326.194 5.24152 326.153 4.50382 325.965 3.79731C325.776 3.09081 325.445 2.43058 324.991 1.85764C324.536 1.2847 323.969 0.811291 323.324 0.466823C322.679 0.122355 321.97 -0.0858145 321.241 -0.144754C320.513 -0.203693 319.779 -0.112143 319.087 0.124209C318.396 0.360561 317.76 0.736666 317.219 1.22916C316.679 1.72165 316.245 2.32002 315.946 2.98708L299.359 34.1337C296.122 40.1044 294.892 46.9586 295.853 53.6823C296.813 60.406 299.913 66.6418 304.693 71.4671L327.413 94.5604C331.499 98.6857 336.369 101.953 341.736 104.169C347.103 106.385 352.859 107.507 358.666 107.467C382.037 107.407 404.835 114.698 423.834 128.309C442.833 141.919 457.07 161.159 464.533 183.307C479.944 229.48 481.726 279.115 469.667 326.274C457.607 373.434 432.217 416.12 396.533 449.227C330.026 510.827 229.173 518.56 151.199 467.68L31.9992 389.92C30.811 389.142 29.3625 388.868 27.9722 389.158C26.5819 389.448 25.3638 390.279 24.5858 391.467C23.8079 392.655 23.5338 394.104 23.8238 395.494C24.1139 396.884 24.9443 398.102 26.1325 398.88L145.439 476.587C180.399 499.581 221.302 511.888 263.146 512C421.333 512 526.933 335.627 474.666 179.894Z" fill="#2B3990"/>
<path d="M47.9975 329.547C53.6517 332.835 59.8766 335.025 66.3442 336.001C69.1143 336.39 71.9347 336.207 74.6314 335.464C77.3282 334.721 79.8442 333.433 82.0242 331.681L93.7042 322.401C96.1256 320.474 99.1717 319.507 102.261 319.684C105.35 319.861 108.266 321.17 110.451 323.361C117.331 330.401 122.184 336.854 132.531 336.427C274.664 330.667 348.264 164.641 257.864 74.294C253.618 69.9694 250.971 64.3273 250.36 58.2972C249.749 52.2671 251.211 46.2088 254.504 41.1206L275.838 8.42729C276.62 7.26437 276.913 5.84026 276.653 4.46294C276.394 3.08561 275.603 1.86579 274.451 1.06728C273.275 0.295387 271.842 0.0192203 270.463 0.298907C269.085 0.578593 267.873 1.39149 267.091 2.56062L245.758 35.2006C241.109 42.3449 239.044 50.8648 239.908 59.3446C240.771 67.8244 244.511 75.7534 250.504 81.814C334.291 165.601 265.278 320.481 132.264 325.707C126.931 325.707 124.691 322.401 118.184 315.787C114.168 311.692 108.775 309.234 103.05 308.889C97.3251 308.545 91.6759 310.337 87.1975 313.921L75.3575 323.201C74.3409 324.059 73.1568 324.697 71.8807 325.073C70.6045 325.449 69.264 325.556 67.9442 325.387C62.783 324.537 57.8266 322.728 53.3309 320.054C52.7215 319.704 52.0492 319.477 51.3522 319.387C50.6553 319.296 49.9473 319.344 49.2688 319.527C48.5904 319.711 47.9546 320.026 47.3979 320.455C46.8412 320.884 46.3744 321.418 46.0242 322.027C45.674 322.637 45.4473 323.309 45.3569 324.006C45.2666 324.703 45.3144 325.411 45.4976 326.089C45.6808 326.768 45.9959 327.404 46.4249 327.96C46.8538 328.517 47.3882 328.984 47.9975 329.334V329.547Z" fill="#2B3990"/>
<path d="M330.668 244.64C331.991 245.104 333.443 245.029 334.711 244.43C335.978 243.831 336.959 242.757 337.441 241.44C346.176 217.347 350.459 191.866 350.081 166.24C350.257 164.468 351.108 162.831 352.459 161.669C353.809 160.507 355.555 159.909 357.334 160C369.919 159.717 382.269 163.439 392.602 170.628C402.935 177.817 410.718 188.102 414.828 200C426.127 233.775 428.207 269.953 420.854 304.8C420.711 305.501 420.707 306.223 420.842 306.925C420.977 307.627 421.25 308.295 421.643 308.892C422.037 309.489 422.544 310.002 423.137 310.403C423.729 310.803 424.394 311.083 425.094 311.227C425.795 311.371 426.517 311.375 427.219 311.239C427.921 311.104 428.589 310.832 429.186 310.438C429.783 310.044 430.296 309.537 430.697 308.945C431.097 308.353 431.377 307.687 431.521 306.987C439.249 270.273 437.04 232.162 425.121 196.587C420.349 182.684 411.32 170.637 399.315 162.155C387.31 153.673 372.939 149.187 358.241 149.334C355.841 149.136 353.426 149.434 351.146 150.21C348.866 150.986 346.77 152.223 344.989 153.844C343.208 155.465 341.78 157.435 340.793 159.632C339.807 161.829 339.283 164.206 339.254 166.614C339.579 190.929 335.514 215.102 327.254 237.974C326.833 239.311 326.955 240.759 327.594 242.007C328.233 243.255 329.337 244.201 330.668 244.64Z" fill="#2B3990"/>
<path d="M276.265 285.441C248.979 319.477 210.803 343.076 168.159 352.267C160.167 353.888 152.98 358.217 147.811 364.523C142.641 370.83 139.807 378.727 139.785 386.881V416.747C139.779 422.623 141.238 428.407 144.032 433.576C146.826 438.745 150.866 443.134 155.785 446.347C181.812 463.254 214.932 480.481 263.092 480.481C312.745 480.481 359.785 461.441 398.185 418.294C425.418 387.706 444.101 350.476 452.351 310.362C460.601 270.247 458.124 228.666 445.172 189.814C438.928 171.643 427.127 155.896 411.439 144.802C395.752 133.709 376.972 127.831 357.759 128.001C352.56 127.865 347.386 128.776 342.547 130.68C337.707 132.584 333.3 135.443 329.588 139.085C325.876 142.728 322.935 147.08 320.939 151.882C318.943 156.685 317.934 161.84 317.972 167.041C318.159 208.892 304.321 249.601 278.665 282.667C277.865 283.734 277.012 284.534 276.265 285.441ZM263.092 469.814C217.705 469.814 186.345 453.441 161.759 437.387C158.332 435.144 155.518 432.083 153.571 428.479C151.625 424.875 150.608 420.843 150.612 416.747V386.881C150.646 381.199 152.622 375.7 156.211 371.296C159.8 366.892 164.788 363.847 170.345 362.667C216.87 352.853 258.364 326.753 287.359 289.067C291.596 284.695 296.93 281.541 302.803 279.937C308.677 278.333 314.874 278.336 320.745 279.947C361.119 291.467 389.385 317.974 409.705 329.921C416.005 333.519 420.648 339.439 422.641 346.415C424.634 353.391 423.82 360.87 420.372 367.254C388.425 428.214 333.545 469.814 263.092 469.814ZM328.639 166.667C328.649 162.88 329.425 159.133 330.92 155.653C332.415 152.173 334.598 149.031 337.338 146.416C340.078 143.801 343.318 141.766 346.864 140.435C350.41 139.103 354.188 138.502 357.972 138.667C374.915 138.504 391.48 143.682 405.314 153.466C419.148 163.25 429.548 177.144 435.039 193.174C451.182 241.403 450.24 293.717 432.372 341.334C429.23 332.645 423.132 325.339 415.145 320.694C394.665 308.801 366.452 281.867 323.359 269.601C315.888 267.546 308.002 267.546 300.532 269.601C319.219 238.54 328.947 202.914 328.639 166.667Z" fill="#2B3990"/>
<path d="M54.7201 363.947C53.494 363.444 52.1248 363.416 50.879 363.867C49.6333 364.319 48.6002 365.218 47.9811 366.39C47.3621 367.561 47.2013 368.921 47.5301 370.205C47.859 371.488 48.6539 372.604 49.76 373.333C103.093 401.333 99.0934 399.573 100.96 399.573C102.145 399.567 103.294 399.167 104.226 398.436C105.158 397.704 105.82 396.683 106.108 395.534C106.395 394.384 106.292 393.172 105.813 392.087C105.335 391.003 104.509 390.109 103.467 389.547L54.7201 363.947Z" fill="#2B3990"/>
<path d="M332.265 336.693C328.449 336.704 324.721 337.845 321.553 339.973C318.385 342.101 315.919 345.12 314.466 348.649C313.013 352.177 312.638 356.058 313.389 359.799C314.14 363.541 315.983 366.976 318.685 369.671C321.388 372.365 324.828 374.199 328.571 374.94C332.315 375.68 336.194 375.295 339.719 373.832C343.244 372.369 346.256 369.895 348.375 366.721C350.494 363.547 351.625 359.816 351.625 356C351.625 353.46 351.124 350.945 350.15 348.599C349.177 346.254 347.75 344.123 345.951 342.329C344.153 340.536 342.018 339.115 339.67 338.148C337.321 337.181 334.805 336.686 332.265 336.693ZM332.265 364.64C330.559 364.63 328.893 364.114 327.48 363.158C326.066 362.202 324.967 360.849 324.321 359.27C323.675 357.69 323.512 355.955 323.851 354.282C324.19 352.61 325.017 351.075 326.228 349.872C327.438 348.669 328.978 347.852 330.652 347.522C332.327 347.193 334.061 347.368 335.637 348.023C337.213 348.678 338.559 349.786 339.506 351.206C340.453 352.625 340.958 354.294 340.958 356C340.958 357.139 340.733 358.267 340.296 359.319C339.858 360.371 339.217 361.325 338.409 362.128C337.601 362.931 336.642 363.567 335.588 363.998C334.533 364.429 333.404 364.647 332.265 364.64Z" fill="#2B3990"/>
<path d="M219.891 380.693C216.265 380.704 212.723 381.789 209.713 383.811C206.703 385.834 204.359 388.703 202.979 392.056C201.599 395.409 201.243 399.097 201.957 402.652C202.671 406.207 204.422 409.471 206.99 412.032C209.558 414.592 212.827 416.334 216.385 417.038C219.942 417.742 223.628 417.375 226.978 415.985C230.327 414.595 233.189 412.243 235.203 409.227C237.216 406.211 238.291 402.666 238.291 399.04C238.277 394.169 236.332 389.503 232.883 386.064C229.434 382.625 224.762 380.693 219.891 380.693ZM219.891 406.72C218.374 406.71 216.895 406.25 215.639 405.4C214.383 404.55 213.407 403.347 212.834 401.942C212.261 400.538 212.116 398.996 212.418 397.509C212.721 396.023 213.456 394.66 214.533 393.591C215.609 392.522 216.977 391.796 218.466 391.504C219.954 391.212 221.495 391.367 222.896 391.95C224.296 392.533 225.492 393.517 226.334 394.779C227.175 396.041 227.624 397.523 227.624 399.04C227.624 400.053 227.424 401.056 227.035 401.991C226.645 402.927 226.075 403.776 225.356 404.49C224.637 405.203 223.784 405.768 222.846 406.151C221.908 406.534 220.904 406.727 219.891 406.72Z" fill="#2B3990"/>
<path d="M299.734 402.987C296.019 402.987 292.387 404.09 289.299 406.155C286.21 408.22 283.804 411.155 282.385 414.589C280.966 418.022 280.597 421.8 281.326 425.443C282.054 429.086 283.848 432.431 286.478 435.054C289.109 437.678 292.459 439.461 296.105 440.18C299.75 440.898 303.526 440.519 306.955 439.09C310.385 437.661 313.313 435.246 315.37 432.152C317.426 429.058 318.518 425.423 318.508 421.707C318.508 419.245 318.022 416.806 317.077 414.531C316.133 412.257 314.75 410.19 313.006 408.451C311.262 406.712 309.192 405.335 306.914 404.397C304.637 403.459 302.197 402.98 299.734 402.987ZM299.734 429.654C298.131 429.654 296.564 429.179 295.23 428.288C293.897 427.397 292.858 426.131 292.245 424.65C291.631 423.168 291.47 421.538 291.783 419.966C292.096 418.393 292.868 416.949 294.002 415.815C295.136 414.681 296.58 413.909 298.153 413.597C299.725 413.284 301.355 413.444 302.836 414.058C304.318 414.671 305.584 415.71 306.475 417.044C307.365 418.377 307.841 419.944 307.841 421.547C307.862 422.625 307.668 423.697 307.27 424.699C306.872 425.701 306.279 426.614 305.524 427.383C304.769 428.153 303.868 428.765 302.874 429.182C301.88 429.599 300.812 429.814 299.734 429.814V429.654Z" fill="#2B3990"/>
<path d="M164.318 278.668C182.727 278.678 200.726 273.229 216.038 263.009C231.349 252.789 243.286 238.258 250.338 221.253C257.391 204.248 259.241 185.534 255.656 167.477C252.071 149.421 243.212 132.833 230.198 119.812C217.185 106.791 200.602 97.9217 182.547 94.3264C164.493 90.7311 145.777 92.571 128.769 99.6134C111.76 106.656 97.2216 118.584 86.993 133.89C76.7643 149.196 71.3047 167.192 71.3047 185.601C71.3329 210.266 81.1398 233.913 98.5756 251.359C116.011 268.805 139.653 278.625 164.318 278.668ZM164.318 103.201C180.617 103.19 196.554 108.014 210.112 117.062C223.669 126.11 234.239 138.975 240.484 154.031C246.729 169.086 248.368 185.656 245.195 201.644C242.021 217.631 234.178 232.318 222.656 243.848C211.134 255.377 196.452 263.23 180.466 266.414C164.481 269.597 147.91 267.969 132.851 261.734C117.791 255.499 104.919 244.937 95.862 231.385C86.8054 217.834 81.9714 201.9 81.9714 185.601C81.9995 163.765 90.6827 142.831 106.118 127.385C121.553 111.94 142.482 103.243 164.318 103.201Z" fill="#2B3990"/>
<path d="M124.533 203.52H146.399V225.387C146.399 226.802 146.961 228.158 147.961 229.158C148.962 230.159 150.318 230.72 151.733 230.72H176.959C178.374 230.72 179.73 230.159 180.73 229.158C181.731 228.158 182.293 226.802 182.293 225.387V203.52H204.159C205.574 203.52 206.93 202.959 207.93 201.958C208.931 200.958 209.493 199.602 209.493 198.187V173.014C209.493 171.599 208.931 170.243 207.93 169.243C206.93 168.242 205.574 167.68 204.159 167.68H182.293V145.814C182.293 144.399 181.731 143.043 180.73 142.043C179.73 141.042 178.374 140.48 176.959 140.48H151.733C150.318 140.48 148.962 141.042 147.961 142.043C146.961 143.043 146.399 144.399 146.399 145.814V167.68H124.533C123.118 167.68 121.762 168.242 120.761 169.243C119.761 170.243 119.199 171.599 119.199 173.014V198.187C119.199 199.602 119.761 200.958 120.761 201.958C121.762 202.959 123.118 203.52 124.533 203.52ZM129.866 178.347H151.733C153.147 178.347 154.504 177.785 155.504 176.785C156.504 175.785 157.066 174.428 157.066 173.014V151.147H171.626V173.014C171.626 174.428 172.188 175.785 173.188 176.785C174.188 177.785 175.545 178.347 176.959 178.347H198.826V192.854H176.959C175.545 192.854 174.188 193.416 173.188 194.416C172.188 195.416 171.626 196.773 171.626 198.187V220.054H157.066V198.187C157.066 196.773 156.504 195.416 155.504 194.416C154.504 193.416 153.147 192.854 151.733 192.854H129.866V178.347Z" fill="#2B3990"/>
</g>
<defs>
<clipPath id="clip0_1105_2420">
<rect width="512" height="512" fill="white"/>
</clipPath>
</defs>
</svg>
