<svg width="512" height="512" viewBox="0 0 512 512" fill="none" xmlns="http://www.w3.org/2000/svg">
<path d="M68.651 329.766H302.806C306.665 329.766 309.794 326.637 309.794 322.778C309.794 318.919 306.665 315.79 302.806 315.79H68.651C56.172 315.79 46.02 305.637 46.02 293.159V116.064C46.02 103.585 56.173 93.4318 68.651 93.4318H142.855H276.1H350.304C362.783 93.4318 372.935 103.585 372.935 116.064V124.041C372.935 127.9 376.064 131.029 379.923 131.029C383.782 131.029 386.911 127.9 386.911 124.041V116.064C386.911 95.8788 370.489 79.4568 350.304 79.4568H283.088V58.4658C283.088 43.6938 271.082 31.6758 256.325 31.6758H162.63C147.873 31.6758 135.867 43.6938 135.867 58.4658V79.4578H68.651C48.466 79.4578 32.044 95.8798 32.044 116.065V293.159C32.043 313.343 48.466 329.766 68.651 329.766ZM149.843 58.4658C149.843 51.3998 155.579 45.6508 162.63 45.6508H256.325C263.376 45.6508 269.112 51.3998 269.112 58.4658V79.4578H149.843V58.4658ZM209.477 116.234C160.745 116.234 121.099 155.88 121.099 204.612C121.099 253.344 160.745 292.99 209.477 292.99C258.209 292.99 297.855 253.344 297.855 204.612C297.855 155.88 258.209 116.234 209.477 116.234ZM209.477 279.014C168.452 279.014 135.075 245.637 135.075 204.612C135.075 163.587 168.452 130.21 209.477 130.21C250.502 130.21 283.879 163.587 283.879 204.612C283.879 245.637 250.503 279.014 209.477 279.014ZM255.165 176.604H237.485V158.923C237.485 155.064 234.356 151.935 230.497 151.935H188.458C184.599 151.935 181.47 155.064 181.47 158.923V176.604H163.79C159.931 176.604 156.802 179.733 156.802 183.592V225.63C156.802 229.489 159.931 232.618 163.79 232.618H181.47V250.299C181.47 254.158 184.599 257.287 188.458 257.287H230.497C234.356 257.287 237.485 254.158 237.485 250.299V232.618H255.165C259.024 232.618 262.153 229.489 262.153 225.63V183.592C262.153 179.733 259.025 176.604 255.165 176.604ZM248.177 218.642H230.497C226.638 218.642 223.509 221.771 223.509 225.63V243.311H195.446V225.63C195.446 221.771 192.317 218.642 188.458 218.642H170.778V190.58H188.458C192.317 190.58 195.446 187.451 195.446 183.592V165.911H223.509V183.592C223.509 187.451 226.637 190.58 230.497 190.58H248.177V218.642ZM509.585 252.311L474.894 215.689V194.257H476.506C485.101 194.257 492.094 187.264 492.094 178.669V157.565C492.094 148.985 485.101 142.005 476.506 142.005H355.764C347.169 142.005 340.176 148.985 340.176 157.565V178.669C340.176 187.264 347.169 194.257 355.764 194.257H357.377V215.689L322.685 252.311C321.456 253.609 320.77 255.329 320.77 257.117V420.124C320.77 444.974 340.999 465.19 365.864 465.19H466.406C491.271 465.19 511.5 444.974 511.5 420.124V257.117C511.5 255.329 510.815 253.609 509.585 252.311ZM334.745 279.014H497.524V397.661H334.745V279.014ZM354.152 178.669V157.565C354.152 156.706 354.89 155.981 355.764 155.981H476.506C477.38 155.981 478.118 156.706 478.118 157.565V178.669C478.118 179.528 477.365 180.281 476.506 180.281H355.764C354.905 180.281 354.152 179.528 354.152 178.669ZM460.918 194.257V211.485H371.353V194.257H460.918ZM367.37 225.462H464.9L497.524 259.902V265.038H334.745V259.902L367.37 225.462ZM466.406 451.214H365.864C348.705 451.214 334.746 437.267 334.746 420.124V411.637H497.525V420.124C497.524 437.267 483.565 451.214 466.406 451.214ZM458.739 311.745H442.727V295.733C442.727 291.874 439.598 288.745 435.739 288.745H396.558C392.699 288.745 389.57 291.874 389.57 295.733V311.745H373.558C369.699 311.745 366.57 314.874 366.57 318.733V357.943C366.57 361.802 369.699 364.931 373.558 364.931H389.57V380.942C389.57 384.801 392.699 387.93 396.558 387.93H435.739C439.598 387.93 442.727 384.801 442.727 380.942V364.93H458.739C462.598 364.93 465.727 361.801 465.727 357.942V318.732C465.727 314.873 462.599 311.745 458.739 311.745ZM451.751 350.955H435.739C431.88 350.955 428.751 354.084 428.751 357.943V373.954H403.546V357.943C403.546 354.084 400.417 350.955 396.558 350.955H380.546V325.721H396.558C400.417 325.721 403.546 322.592 403.546 318.733V302.721H428.751V318.733C428.751 322.592 431.88 325.721 435.739 325.721H451.751V350.955ZM302.89 404.988H273.044V403.687C273.044 391.208 262.891 381.055 250.413 381.055H249.574C246.671 372.15 238.293 365.694 228.431 365.694H103.035C102.674 353.451 92.62 343.6 80.307 343.6C67.766 343.6 57.561 353.817 57.561 366.374V384.705H44.921C43.602 373.663 34.185 365.071 22.792 365.071C10.5 365.071 0.5 375.071 0.5 387.363V436.56C0.5 448.853 10.5 458.853 22.792 458.853C34.184 458.853 43.601 450.262 44.921 439.219H57.56V457.55C57.56 470.107 67.764 480.324 80.306 480.324C92.62 480.324 102.673 470.473 103.034 458.23H228.431C238.293 458.23 246.671 451.774 249.574 442.868H250.412C262.891 442.868 273.043 432.715 273.043 420.237V418.964H302.889C306.748 418.964 309.877 415.835 309.877 411.976C309.877 408.117 306.75 404.988 302.89 404.988ZM31.11 436.56C31.11 441.147 27.379 444.877 22.793 444.877C18.207 444.877 14.477 441.146 14.477 436.56V387.363C14.477 382.777 18.208 379.047 22.793 379.047C27.38 379.047 31.11 382.778 31.11 387.363V391.692V432.231V436.56ZM45.086 425.243V398.68H57.561V425.243H45.086ZM89.076 457.551C89.076 462.403 85.142 466.349 80.306 466.349C75.47 466.349 71.536 462.403 71.536 457.551V366.373C71.536 361.521 75.47 357.575 80.306 357.575C85.142 357.575 89.076 361.521 89.076 366.373V372.682V451.243V457.551ZM236.691 435.994C236.691 440.548 232.986 444.254 228.431 444.254H103.051V379.67H228.431C232.985 379.67 236.691 383.375 236.691 387.93V435.994ZM259.069 420.237C259.069 424.924 255.322 428.743 250.668 428.88V395.044C255.322 395.18 259.069 399 259.069 403.688V420.237Z" fill="#2B3990"/>
</svg>
