<svg width="100" height="100" viewBox="0 0 100 100" fill="none" xmlns="http://www.w3.org/2000/svg">
<path d="M20.8994 75.16C20.8994 74.67 20.8994 74.29 20.8994 73.92C20.8994 63.05 20.8994 52.19 20.8994 41.32C20.8994 40.97 20.8894 40.61 20.9294 40.26C21.0094 39.62 21.3994 39.26 22.0394 39.2C22.2694 39.18 22.5094 39.19 22.7494 39.19C41.2294 39.19 59.7194 39.19 78.1994 39.19C79.7194 39.19 80.0594 39.53 80.0594 41.07C80.0594 52.02 80.0594 62.98 80.0594 73.93C80.0594 74.31 80.0594 74.68 80.0594 75.16C80.4594 75.16 80.7794 75.16 81.0894 75.16C84.8094 75.16 88.5294 75.17 92.2494 75.16C93.0294 75.16 93.5894 75.43 93.7294 76.24C93.8794 77.06 93.2894 77.64 92.3394 77.64C89.5594 77.65 86.7894 77.64 84.0094 77.64C82.7394 77.64 81.4794 77.64 80.1294 77.64C80.1294 82.18 80.1294 86.68 80.1294 91.28C80.4394 91.28 80.7494 91.28 81.0694 91.28C84.7294 91.28 88.3894 91.28 92.0494 91.28C93.1894 91.28 93.7294 91.67 93.7394 92.5C93.7494 93.33 93.1994 93.75 92.0794 93.75C63.9994 93.75 35.9194 93.75 7.83943 93.76C7.08943 93.76 6.46943 93.61 6.25943 92.81C6.09943 92.2 6.33943 91.68 6.91943 91.42C7.19943 91.3 7.54943 91.29 7.85943 91.29C11.8494 91.28 15.8294 91.28 19.8194 91.28C20.1394 91.28 20.4594 91.28 20.8194 91.28C20.8194 86.72 20.8194 82.24 20.8194 77.68C20.4794 77.67 20.1694 77.64 19.8594 77.64C15.8194 77.64 11.7694 77.64 7.72943 77.64C6.77943 77.64 6.27943 77.25 6.22943 76.51C6.16943 75.69 6.72943 75.17 7.71943 75.17C11.4994 75.16 15.2794 75.17 19.0594 75.17C19.6394 75.16 20.1894 75.16 20.8994 75.16ZM23.4294 75.16C24.1494 75.16 24.7994 75.11 25.4294 75.17C26.0994 75.23 26.4694 75 26.8094 74.39C28.7694 70.86 30.7894 67.36 32.7694 63.85C33.1094 63.25 33.4894 62.73 34.2594 62.84C35.0294 62.95 35.2794 63.55 35.4194 64.22C36.3794 68.74 37.3394 73.26 38.2994 77.78C38.5794 79.08 38.8694 80.38 39.1494 81.67C39.9094 80.02 40.4994 78.39 41.0894 76.76C41.6594 75.19 41.7094 75.15 43.3694 75.15C45.2794 75.15 47.1894 75.15 49.1194 75.15C49.1194 63.94 49.1194 52.83 49.1194 41.73C40.5094 41.73 31.9694 41.73 23.4194 41.73C23.4294 52.87 23.4294 63.94 23.4294 75.16ZM51.8094 41.69C51.8094 52.88 51.8094 63.99 51.8094 75.16C53.5294 75.16 55.1794 75.13 56.8194 75.17C57.4294 75.19 57.7594 74.99 58.0594 74.45C60.0594 70.87 62.0994 67.32 64.1094 63.75C64.4394 63.17 64.8394 62.71 65.5594 62.83C66.2694 62.95 66.5294 63.47 66.6694 64.14C67.5294 68.23 68.4094 72.32 69.2894 76.4C69.6694 78.15 70.0494 79.9 70.4194 81.65C71.1794 80.05 71.7494 78.45 72.3194 76.85C72.9194 75.17 72.9594 75.14 74.7194 75.14C75.6194 75.14 76.5294 75.14 77.4194 75.14C77.4194 63.91 77.4194 52.8 77.4194 41.67C68.8694 41.69 60.3694 41.69 51.8094 41.69ZM23.4494 91.2C32.0694 91.2 40.6094 91.2 49.1294 91.2C49.1294 86.66 49.1294 82.19 49.1294 77.63C47.4494 77.63 45.8294 77.66 44.2194 77.61C43.5994 77.59 43.3494 77.81 43.1594 78.37C42.1994 81.15 41.1894 83.91 40.1994 86.69C39.9594 87.36 39.5694 87.88 38.8094 87.81C38.0594 87.75 37.7494 87.21 37.5994 86.5C36.6094 81.78 35.5994 77.06 34.5894 72.34C34.2694 70.83 33.9294 69.32 33.5594 67.63C33.2994 68.05 33.1394 68.29 32.9994 68.53C31.4694 71.22 29.9294 73.9 28.4294 76.61C28.0194 77.34 27.5094 77.68 26.6594 77.64C25.6094 77.59 24.5594 77.63 23.4594 77.63C23.4494 82.21 23.4494 86.69 23.4494 91.2ZM77.4694 77.64C76.7894 77.64 76.1994 77.69 75.6194 77.63C74.9394 77.56 74.6494 77.83 74.4294 78.47C73.4994 81.17 72.5194 83.85 71.5594 86.54C71.3094 87.25 70.9794 87.89 70.1094 87.83C69.2394 87.77 68.9994 87.08 68.8494 86.35C67.8294 81.54 66.8094 76.73 65.7794 71.92C65.4894 70.54 65.1794 69.17 64.8294 67.59C63.0894 70.65 61.4494 73.47 59.8894 76.35C59.3794 77.29 58.7694 77.72 57.6594 77.67C55.7194 77.59 53.7794 77.65 51.8094 77.65C51.8094 82.24 51.8094 86.73 51.8094 91.24C60.3894 91.24 68.9094 91.24 77.4694 91.24C77.4694 86.7 77.4694 82.23 77.4694 77.64Z" fill="#2B3990"/>
<path d="M49.9508 33.1804C48.0008 33.1804 46.0508 33.1904 44.1108 33.1804C42.9608 33.1704 42.5608 32.7804 42.5608 31.6504C42.5508 28.9004 42.5308 26.1604 42.5708 23.4104C42.6308 19.4704 45.9808 16.2304 49.9608 16.2004C53.9608 16.1704 57.3708 19.4404 57.4308 23.4204C57.4708 26.1604 57.4508 28.9104 57.4408 31.6604C57.4408 32.7804 57.0308 33.1804 55.8808 33.1804C53.9108 33.1904 51.9308 33.1804 49.9508 33.1804ZM51.2408 26.9404C52.5208 26.9404 53.7008 26.9404 54.9608 26.9404C54.9608 25.7204 55.0108 24.5404 54.9508 23.3704C54.8208 21.0604 52.9508 19.0504 50.7608 18.7904C48.2308 18.5004 45.9108 19.8004 45.3408 22.1504C44.9708 23.6804 45.0508 25.3304 44.9308 26.9204C46.3408 26.9204 47.5308 26.9204 48.7608 26.9204C48.7608 25.8504 48.7508 24.8504 48.7608 23.8504C48.7708 22.8704 49.1908 22.3604 49.9808 22.3604C50.7808 22.3504 51.2208 22.8604 51.2308 23.8304C51.2508 24.8604 51.2408 25.8804 51.2408 26.9404ZM45.0908 29.5904C45.0908 30.0104 45.0908 30.3204 45.0908 30.6404C48.4008 30.6404 51.6508 30.6404 54.9008 30.6404C54.9008 30.2504 54.9008 29.9204 54.9008 29.5904C51.6008 29.5904 48.3708 29.5904 45.0908 29.5904Z" fill="#2B3990"/>
<path d="M37.7412 11.1104C38.1812 11.3604 38.5212 11.4904 38.7612 11.7204C39.8412 12.7604 40.9012 13.8204 41.9412 14.9004C42.5112 15.4904 42.5112 16.1904 42.0112 16.7004C41.5012 17.2204 40.7412 17.2104 40.1312 16.6204C39.0812 15.6004 38.0112 14.5804 37.0412 13.4804C36.7512 13.1504 36.6012 12.5004 36.7212 12.0804C36.8212 11.7004 37.3712 11.4404 37.7412 11.1104Z" fill="#2B3990"/>
<path d="M58.7582 17.18C58.4482 16.93 57.9582 16.72 57.8182 16.37C57.6682 16.01 57.6982 15.36 57.9382 15.09C59.0382 13.87 60.2182 12.71 61.4082 11.58C61.9282 11.09 62.5582 11.15 63.0682 11.65C63.5782 12.16 63.6282 12.79 63.1382 13.31C62.0082 14.5 60.8283 15.65 59.6483 16.8C59.4683 16.97 59.1682 17.01 58.7582 17.18Z" fill="#2B3990"/>
<path d="M48.7706 9.74024C48.7706 9.00024 48.7506 8.26024 48.7706 7.53024C48.7906 6.72024 49.3006 6.21024 50.0306 6.25024C50.8006 6.29024 51.2206 6.74024 51.2306 7.50024C51.2506 9.03024 51.2506 10.5702 51.2306 12.1102C51.2206 12.9102 50.6906 13.4502 49.9706 13.4002C49.2206 13.3402 48.7806 12.9202 48.7706 12.1402C48.7606 11.3302 48.7706 10.5402 48.7706 9.74024Z" fill="#2B3990"/>
<path d="M35.1191 25.9402C34.3491 25.9402 33.5891 25.9602 32.8191 25.9402C32.0591 25.9202 31.5991 25.5402 31.5491 24.7502C31.5091 24.0202 32.0091 23.4702 32.8091 23.4502C34.3391 23.4202 35.8791 23.4202 37.4091 23.4502C38.2091 23.4702 38.7091 24.0102 38.6791 24.7402C38.6391 25.5302 38.1791 25.8902 37.4191 25.9402C37.3591 25.9402 37.2991 25.9502 37.2391 25.9502C36.5291 25.9502 35.8291 25.9502 35.1191 25.9402Z" fill="#2B3990"/>
<path d="M64.8288 25.9399C64.0888 25.9399 63.3487 25.9699 62.6187 25.9299C61.7687 25.8899 61.3088 25.4299 61.3288 24.6799C61.3488 23.8899 61.8288 23.4699 62.5588 23.4499C64.1188 23.4099 65.6887 23.3999 67.2487 23.4499C67.9887 23.4699 68.4587 23.9299 68.4487 24.7099C68.4387 25.4899 67.9787 25.8999 67.2188 25.9299C66.4287 25.9599 65.6288 25.9399 64.8288 25.9399Z" fill="#2B3990"/>
<path d="M36.2784 59.0303C33.6484 59.0303 31.0284 59.0303 28.3984 59.0303C27.1284 59.0303 26.7284 58.6603 26.7184 57.4303C26.7084 53.9203 26.7084 50.4103 26.7184 46.9003C26.7184 45.7403 27.1184 45.3503 28.2684 45.3503C33.6084 45.3403 38.9484 45.3403 44.2884 45.3503C45.4584 45.3503 45.8884 45.7903 45.8984 46.9503C45.9084 50.4303 45.9084 53.9103 45.8984 57.3903C45.8984 58.6003 45.4584 59.0303 44.2384 59.0303C41.5884 59.0303 38.9384 59.0303 36.2784 59.0303ZM29.2884 56.4903C34.0284 56.4903 38.6684 56.4903 43.3084 56.4903C43.3084 53.5903 43.3084 50.7503 43.3084 47.9203C38.5984 47.9203 33.9484 47.9203 29.2884 47.9203C29.2884 50.8003 29.2884 53.6203 29.2884 56.4903Z" fill="#2B3990"/>
<path d="M64.6292 59.0303C61.9992 59.0303 59.3792 59.0303 56.7492 59.0303C55.4492 59.0303 55.0292 58.6403 55.0192 57.3703C55.0092 53.9203 55.0092 50.4703 55.0192 47.0203C55.0192 45.7403 55.4392 45.3503 56.7392 45.3503C61.9892 45.3403 67.2392 45.3403 72.4892 45.3503C73.8192 45.3503 74.2192 45.7603 74.2192 47.1003C74.2292 50.4903 74.2292 53.8803 74.2192 57.2803C74.2192 58.6603 73.8192 59.0403 72.4092 59.0403C69.8292 59.0303 67.2292 59.0303 64.6292 59.0303ZM57.6192 56.5003C62.3492 56.5003 66.9692 56.5003 71.6192 56.5003C71.6192 53.6103 71.6192 50.7703 71.6192 47.9103C66.9192 47.9103 62.2792 47.9103 57.6192 47.9103C57.6192 50.8003 57.6192 53.6303 57.6192 56.5003Z" fill="#2B3990"/>
</svg>
