<svg width="512" height="512" viewBox="0 0 512 512" fill="none" xmlns="http://www.w3.org/2000/svg">
<g clip-path="url(#clip0_1110_2576)">
<path d="M242.5 40C233.884 40.0106 225.623 43.4381 219.531 49.5307C213.438 55.6234 210.011 63.8837 210 72.5V142.5C210 151.12 213.424 159.386 219.519 165.481C225.614 171.576 233.88 175 242.5 175C251.12 175 259.386 171.576 265.481 165.481C271.576 159.386 275 151.12 275 142.5V72.5C274.989 63.8837 271.562 55.6234 265.469 49.5307C259.377 43.4381 251.116 40.0106 242.5 40ZM260 142.5C260 147.141 258.156 151.592 254.874 154.874C251.592 158.156 247.141 160 242.5 160C237.859 160 233.408 158.156 230.126 154.874C226.844 151.592 225 147.141 225 142.5V72.5C225 67.8587 226.844 63.4075 230.126 60.1256C233.408 56.8437 237.859 55 242.5 55C247.141 55 251.592 56.8437 254.874 60.1256C258.156 63.4075 260 67.8587 260 72.5V142.5Z" fill="#2B3990"/>
<path d="M484.5 70H315V27.5C314.989 20.2098 312.089 13.2212 306.934 8.06625C301.779 2.91129 294.79 0.0105809 287.5 0L27.5 0C20.2098 0.0105809 13.2212 2.91129 8.06625 8.06625C2.91129 13.2212 0.0105809 20.2098 0 27.5L0 187.5C0.0105809 194.79 2.91129 201.779 8.06625 206.934C13.2212 212.089 20.2098 214.989 27.5 215H68.5V277.5C68.5159 290.093 73.5254 302.165 82.43 311.07C91.3345 319.975 103.407 324.984 116 325H160.14L168.72 359.32C169.128 360.942 170.065 362.382 171.384 363.411C172.703 364.44 174.327 364.999 176 365H223.5V387H216C208.71 387.011 201.721 389.911 196.566 395.066C191.411 400.221 188.511 407.21 188.5 414.5V467H121C115.033 467 109.31 469.371 105.09 473.59C100.871 477.81 98.5 483.533 98.5 489.5C98.5 495.467 100.871 501.19 105.09 505.41C109.31 509.629 115.033 512 121 512H391C396.967 512 402.69 509.629 406.91 505.41C411.129 501.19 413.5 495.467 413.5 489.5C413.5 483.533 411.129 477.81 406.91 473.59C402.69 469.371 396.967 467 391 467H323.5V414.5C323.489 407.21 320.589 400.221 315.434 395.066C310.279 389.911 303.29 387.011 296 387H288.5V365H336C337.673 364.999 339.297 364.44 340.616 363.411C341.935 362.382 342.872 360.942 343.28 359.32L351.86 325H396C408.593 324.984 420.665 319.975 429.57 311.07C438.475 302.165 443.484 290.093 443.5 277.5V165H484.5C491.79 164.989 498.779 162.089 503.934 156.934C509.089 151.779 511.989 144.79 512 137.5V97.5C511.989 90.2098 509.089 83.2212 503.934 78.0663C498.779 72.9113 491.79 70.0106 484.5 70ZM315 187.5V165H388.5V257.5C388.495 260.814 387.176 263.99 384.833 266.333C382.49 268.676 379.314 269.995 376 270H136C132.686 269.995 129.51 268.676 127.167 266.333C124.824 263.99 123.505 260.814 123.5 257.5V215H287.5C294.79 214.989 301.779 212.089 306.934 206.934C312.089 201.779 314.989 194.79 315 187.5ZM15 187.5V27.5C15.0053 24.1864 16.3239 21.0101 18.667 18.667C21.0101 16.3239 24.1864 15.0053 27.5 15H287.5C290.814 15.0053 293.99 16.3239 296.333 18.667C298.676 21.0101 299.995 24.1864 300 27.5V187.5C299.995 190.814 298.676 193.99 296.333 196.333C293.99 198.676 290.814 199.995 287.5 200H27.5C24.1864 199.995 21.0101 198.676 18.667 196.333C16.3239 193.99 15.0053 190.814 15 187.5ZM273.5 467H238.5V442H273.5V467ZM203.5 414.5C203.505 411.186 204.824 408.01 207.167 405.667C209.51 403.324 212.686 402.005 216 402H223.5V467H203.5V414.5ZM398.5 489.5C398.5 491.489 397.71 493.397 396.303 494.803C394.897 496.21 392.989 497 391 497H121C119.011 497 117.103 496.21 115.697 494.803C114.29 493.397 113.5 491.489 113.5 489.5C113.5 487.511 114.29 485.603 115.697 484.197C117.103 482.79 119.011 482 121 482H391C392.989 482 394.897 482.79 396.303 484.197C397.71 485.603 398.5 487.511 398.5 489.5ZM296 402C299.314 402.005 302.49 403.324 304.833 405.667C307.176 408.01 308.495 411.186 308.5 414.5V467H288.5V402H296ZM273.5 427H238.5V365H273.5V427ZM330.14 350H181.86L175.61 325H336.39L330.14 350ZM428.5 277.5C428.489 286.116 425.062 294.377 418.969 300.469C412.877 306.562 404.616 309.989 396 310H116C107.384 309.989 99.1234 306.562 93.0307 300.469C86.9381 294.377 83.5106 286.116 83.5 277.5V215H108.5V257.5C108.511 264.79 111.411 271.779 116.566 276.934C121.721 282.089 128.71 284.989 136 285H376C383.29 284.989 390.279 282.089 395.434 276.934C400.589 271.779 403.489 264.79 403.5 257.5V165H428.5V277.5ZM497 137.5C496.995 140.814 495.676 143.99 493.333 146.333C490.99 148.676 487.814 149.995 484.5 150H315V85H484.5C487.814 85.0053 490.99 86.3239 493.333 88.667C495.676 91.0101 496.995 94.1864 497 97.5V137.5Z" fill="#2B3990"/>
<path d="M107.5 40C94.1498 40 81.0994 43.9588 69.999 51.3758C58.8987 58.7928 50.2471 69.3349 45.1382 81.6689C40.0292 94.0029 38.6925 107.575 41.297 120.669C43.9015 133.762 50.3303 145.79 59.7703 155.23C69.2104 164.67 81.2377 171.099 94.3314 173.703C107.425 176.308 120.997 174.971 133.331 169.862C145.665 164.753 156.207 156.101 163.624 145.001C171.041 133.901 175 120.85 175 107.5C174.979 89.6044 167.86 72.4478 155.206 59.7937C142.552 47.1396 125.396 40.0212 107.5 40ZM107.5 160C97.1165 160 86.9662 156.921 78.3326 151.152C69.699 145.383 62.97 137.184 58.9964 127.591C55.0228 117.998 53.9831 107.442 56.0088 97.2578C58.0345 87.0738 63.0347 77.7191 70.3769 70.3769C77.7192 63.0346 87.0738 58.0345 97.2578 56.0088C107.442 53.983 117.998 55.0227 127.591 58.9963C137.184 62.9699 145.383 69.699 151.152 78.3326C156.921 86.9661 160 97.1165 160 107.5C159.984 121.419 154.448 134.763 144.606 144.606C134.763 154.448 121.419 159.984 107.5 160Z" fill="#2B3990"/>
<path d="M137.5 100C131.534 99.9947 125.814 97.6225 121.596 93.4041C117.378 89.1856 115.005 83.4657 115 77.5C115 75.5109 114.21 73.6032 112.803 72.1967C111.397 70.7902 109.489 70 107.5 70C100.083 70 92.833 72.1993 86.6661 76.3199C80.4993 80.4404 75.6928 86.2971 72.8545 93.1494C70.0162 100.002 69.2736 107.542 70.7206 114.816C72.1675 122.09 75.739 128.772 80.9835 134.017C86.228 139.261 92.9098 142.833 100.184 144.279C107.458 145.726 114.998 144.984 121.851 142.145C128.703 139.307 134.56 134.501 138.68 128.334C142.801 122.167 145 114.917 145 107.5C145 105.511 144.21 103.603 142.803 102.197C141.397 100.79 139.489 100 137.5 100ZM107.5 130C102.125 129.968 96.9392 128.014 92.8806 124.49C88.8221 120.966 86.1591 116.106 85.3736 110.789C84.5881 105.471 85.732 100.049 88.5983 95.5017C91.4646 90.9549 95.8639 87.5843 101 86C102.605 92.8078 106.075 99.0338 111.02 103.98C115.966 108.925 122.192 112.395 129 114C127.599 118.616 124.755 122.661 120.885 125.54C117.015 128.42 112.324 129.983 107.5 130Z" fill="#2B3990"/>
<path d="M242.5 75C240.511 75 238.603 75.7902 237.197 77.1967C235.79 78.6032 235 80.5109 235 82.5V92.5C235 94.4891 235.79 96.3968 237.197 97.8033C238.603 99.2098 240.511 100 242.5 100C244.489 100 246.397 99.2098 247.803 97.8033C249.21 96.3968 250 94.4891 250 92.5V82.5C250 80.5109 249.21 78.6032 247.803 77.1967C246.397 75.7902 244.489 75 242.5 75Z" fill="#2B3990"/>
<path d="M242.5 115C240.511 115 238.603 115.79 237.197 117.197C235.79 118.603 235 120.511 235 122.5V132.5C235 134.489 235.79 136.397 237.197 137.803C238.603 139.21 240.511 140 242.5 140C244.489 140 246.397 139.21 247.803 137.803C249.21 136.397 250 134.489 250 132.5V122.5C250 120.511 249.21 118.603 247.803 117.197C246.397 115.79 244.489 115 242.5 115Z" fill="#2B3990"/>
<path d="M366 110H346C344.011 110 342.103 110.79 340.697 112.197C339.29 113.603 338.5 115.511 338.5 117.5C338.5 119.489 339.29 121.397 340.697 122.803C342.103 124.21 344.011 125 346 125H366C367.989 125 369.897 124.21 371.303 122.803C372.71 121.397 373.5 119.489 373.5 117.5C373.5 115.511 372.71 113.603 371.303 112.197C369.897 110.79 367.989 110 366 110Z" fill="#2B3990"/>
<path d="M416 110H396C394.011 110 392.103 110.79 390.697 112.197C389.29 113.603 388.5 115.511 388.5 117.5C388.5 119.489 389.29 121.397 390.697 122.803C392.103 124.21 394.011 125 396 125H416C417.989 125 419.897 124.21 421.303 122.803C422.71 121.397 423.5 119.489 423.5 117.5C423.5 115.511 422.71 113.603 421.303 112.197C419.897 110.79 417.989 110 416 110Z" fill="#2B3990"/>
<path d="M466 110H446C444.011 110 442.103 110.79 440.697 112.197C439.29 113.603 438.5 115.511 438.5 117.5C438.5 119.489 439.29 121.397 440.697 122.803C442.103 124.21 444.011 125 446 125H466C467.989 125 469.897 124.21 471.303 122.803C472.71 121.397 473.5 119.489 473.5 117.5C473.5 115.511 472.71 113.603 471.303 112.197C469.897 110.79 467.989 110 466 110Z" fill="#2B3990"/>
<path d="M336 250H356C357.989 250 359.897 249.21 361.303 247.803C362.71 246.397 363.5 244.489 363.5 242.5C363.5 240.511 362.71 238.603 361.303 237.197C359.897 235.79 357.989 235 356 235H336C334.011 235 332.103 235.79 330.697 237.197C329.29 238.603 328.5 240.511 328.5 242.5C328.5 244.489 329.29 246.397 330.697 247.803C332.103 249.21 334.011 250 336 250Z" fill="#2B3990"/>
<path d="M268.5 242.5C268.5 244.489 269.29 246.397 270.697 247.803C272.103 249.21 274.011 250 276 250H296C297.989 250 299.897 249.21 301.303 247.803C302.71 246.397 303.5 244.489 303.5 242.5C303.5 240.511 302.71 238.603 301.303 237.197C299.897 235.79 297.989 235 296 235H276C274.011 235 272.103 235.79 270.697 237.197C269.29 238.603 268.5 240.511 268.5 242.5Z" fill="#2B3990"/>
</g>
<defs>
<clipPath id="clip0_1110_2576">
<rect width="512" height="512" fill="white"/>
</clipPath>
</defs>
</svg>
