<svg width="100" height="100" viewBox="0 0 100 100" fill="none" xmlns="http://www.w3.org/2000/svg">
<path d="M85.0949 75.9862C81.8123 73.031 78.7115 70.2405 78.7115 65.0391C78.7115 59.9449 80.497 56.6015 82.5656 52.7296C84.924 48.3129 87.5982 43.307 87.5982 34.961C87.5982 6.57813 70.6793 6.25 70.5084 6.25C40.5902 6.25 34.6464 18.1493 34.4078 18.6559C34.388 18.6982 34.3695 18.742 34.3545 18.7864L29.5693 32.4583C29.3198 33.1706 29.6958 33.9506 30.4081 34.2001C31.1211 34.4496 31.9011 34.0737 32.1499 33.3613L36.9022 19.7838C37.3445 18.997 43.5304 8.98435 70.5009 8.98435C71.0874 8.99117 84.8639 9.44373 84.8639 34.9609C84.8639 42.6226 82.4692 47.1056 80.1532 51.441C78.0054 55.4625 75.9771 59.2599 75.9771 65.039C75.9771 71.4587 79.8497 74.9436 83.2656 78.0177C86.5482 80.9729 89.649 83.7634 89.649 88.9648C89.649 89.7195 90.2615 90.332 91.0162 90.332C91.7709 90.332 92.3834 89.7195 92.3834 88.9648C92.3834 82.5452 88.5108 79.0603 85.0949 75.9862Z" fill="#2A3D90"/>
<path d="M34.9611 72.5437C35.7165 72.5437 36.3283 71.9319 36.3283 71.1765V69.1442C36.3283 68.49 36.1574 67.8399 35.8197 67.2124C33.1831 62.3069 34.903 55.1866 34.9208 55.1169C35.076 54.4948 34.7786 53.8488 34.2057 53.5624L28.9257 50.923L34.1839 44.7085C35.2865 43.4055 35.2058 41.4751 33.9986 40.2685L33.2446 39.5145C32.7634 39.0333 31.9882 38.9164 31.4358 39.3149C30.7317 39.8221 30.6736 40.8099 31.2608 41.3971L32.0661 42.2031C32.2671 42.4041 32.2808 42.726 32.0969 42.9427L26.7532 49.2578C26.3082 49.7834 26.0334 50.4554 26.0792 51.1431C26.1407 52.0653 26.6705 52.8528 27.4771 53.2561L32.0435 55.5393C31.6101 57.9497 30.9183 63.8682 33.4121 68.5085C33.5338 68.734 33.5953 68.948 33.5953 69.1456V71.1779C33.5939 71.9312 34.2057 72.5437 34.9611 72.5437Z" fill="#2A3D90"/>
<path d="M68.7072 33.685C68.0332 32.6303 66.9333 31.9473 65.6892 31.812C64.4464 31.6753 63.2268 32.1066 62.3429 32.9898L58.2619 37.0709C57.728 37.6047 57.728 38.4702 58.2619 39.0041C58.7958 39.5379 59.6612 39.5379 60.1951 39.0041L64.2762 34.923C64.5708 34.6277 64.9775 34.4841 65.3925 34.5299C65.8081 34.5751 66.1766 34.8041 66.4001 35.1541L68.524 38.4975C68.7811 38.8967 68.8084 39.4108 68.5951 39.8367L67.9655 41.0897C63.056 48.009 61.2438 55.5785 60.5998 59.4859C60.3305 61.1258 59.5806 62.5067 58.4861 63.3749C56.0067 65.3484 53.4016 67.0376 50.7451 68.3952C50.3008 68.6139 50 69.1184 50 69.6126V75.2249C50 81.0697 52.2764 86.5644 56.4094 90.6974L57.2365 91.5245C57.5038 91.7918 57.8531 91.9251 58.2031 91.9251C58.5531 91.9251 58.9024 91.7918 59.1697 91.5245C59.7036 90.9906 59.7036 90.1252 59.1697 89.5913L58.3426 88.7642C54.7271 85.1473 52.735 80.3389 52.735 75.2249V70.4247C55.2944 69.0569 57.8005 67.4169 60.1883 65.5158C61.8145 64.2259 62.9192 62.2414 63.2986 59.9302C63.907 56.2415 65.6194 49.0843 70.2542 42.5922C70.2952 42.5348 70.3315 42.4746 70.3629 42.4117L71.041 41.063C71.685 39.7751 71.6015 38.2254 70.8284 37.025L68.7072 33.685Z" fill="#2A3D90"/>
<path d="M45.4596 51.6741C43.9201 50.3158 43.0875 48.2842 43.2338 46.2389C43.5195 42.2351 42.7478 39.2204 40.9396 37.2783C39.5082 35.7409 37.4964 34.9609 34.9609 34.9609C19.9219 34.9609 19.9219 43.7075 19.9219 46.582V52.1144L15.8224 55.7012C15.0089 56.4135 14.7204 57.5209 15.0068 58.5169C12.5493 61.2219 7.61719 67.6648 7.61719 92.3828C7.61719 93.1375 8.22969 93.75 8.98439 93.75C9.73909 93.75 10.3516 93.1375 10.3516 92.3828C10.3516 70.6931 14.2337 63.7683 16.4889 60.9867L18.7858 64.4313C16.3946 68.1843 15.1367 77.773 15.1367 92.3828C15.1367 93.1375 15.7492 93.75 16.5039 93.75C17.2586 93.75 17.8711 93.1375 17.8711 92.3828C17.8711 74.8917 19.7182 68.6149 20.7908 66.4438C21.0779 66.5443 21.3793 66.599 21.6849 66.599C22.1812 66.599 22.6843 66.463 23.1389 66.1786L25.3948 64.769C25.4898 70.14 27.4401 78.7109 34.2774 78.7109C40.7032 78.7109 50 73.1123 50 62.9883C50 56.946 47.5315 53.5007 45.4596 51.6741ZM21.6903 63.8592L17.6229 57.7588L21.0361 54.7722C22.2707 56.624 23.9879 59.4849 24.8506 61.8836L21.6903 63.8592ZM34.2773 75.9765C28.1954 75.9765 28.125 64.4717 28.125 64.3554C28.125 60.3339 23.8641 54.0079 22.6562 52.2955V46.582C22.6562 43.6972 22.6562 37.6953 34.9609 37.6953C36.7314 37.6953 38.0323 38.1683 38.9388 39.1418C40.5206 40.8405 40.6648 43.8326 40.5062 46.044C40.2998 48.9349 41.4756 51.8067 43.6514 53.7249C45.3003 55.1789 47.2656 57.9659 47.2656 62.9882C47.2656 71.0349 39.701 75.9765 34.2773 75.9765Z" fill="#2A3D90"/>
</svg>
