<svg width="100" height="100" viewBox="0 0 100 100" fill="none" xmlns="http://www.w3.org/2000/svg">
<path d="M66.8046 9.66797H63.4436C51.3936 9.66797 41.5966 19.466 41.5966 31.515V68.487C41.5966 68.763 41.6066 69.036 41.6176 69.31C41.5886 69.518 41.6006 69.726 41.6496 69.928C42.3936 81.308 51.8786 90.335 63.4436 90.335H66.8046C78.3696 90.335 87.8546 81.308 88.5996 69.929C88.6476 69.727 88.6596 69.517 88.6316 69.307C88.6416 69.035 88.6516 68.763 88.6516 68.488V57.445C88.6516 56.521 87.8956 55.764 86.9716 55.764C86.0476 55.764 85.3076 56.504 85.2906 57.412V57.445V68.487C85.2906 68.498 85.2896 68.508 85.2896 68.52C71.7286 75.525 58.5166 75.525 44.9576 68.519C44.9576 68.509 44.9566 68.498 44.9566 68.487V57.059C48.2626 58.432 51.6146 59.057 54.9466 59.057C66.2656 59.057 77.3106 51.981 85.2906 43.675V44.001C85.2906 44.925 86.0476 45.681 86.9716 45.681C87.8956 45.681 88.6516 44.925 88.6516 44.001V31.515C88.6526 19.466 78.8546 9.66797 66.8046 9.66797ZM65.1246 77.085C71.7086 77.085 78.2936 75.552 84.8416 72.488C82.9926 80.744 75.5986 86.959 66.8046 86.973H63.4436C54.6506 86.959 47.2566 80.745 45.4066 72.488C51.9566 75.552 58.5406 77.085 65.1246 77.085ZM44.9576 53.371V31.515C44.9736 21.348 53.2766 13.045 63.4436 13.029H66.8046C76.9716 13.045 85.2746 21.348 85.2906 31.515V38.665C75.5696 50.065 59.4556 60.427 44.9576 53.371ZM88.6526 50.723C88.6526 51.647 87.8966 52.403 86.9726 52.403C86.0486 52.403 85.2916 51.647 85.2916 50.723C85.2916 49.799 86.0486 49.042 86.9726 49.042C87.8956 49.042 88.6526 49.799 88.6526 50.723ZM65.1246 16.39C56.7846 16.39 49.9996 23.174 49.9996 31.515C49.9996 39.855 56.7836 46.64 65.1246 46.64C73.4646 46.64 80.2496 39.855 80.2496 31.515C80.2496 23.174 73.4646 16.39 65.1246 16.39ZM71.8226 41.172C71.8336 41.035 71.8466 40.898 71.8466 40.758C71.8466 37.515 68.8316 34.876 65.1246 34.876C61.4166 34.876 58.4026 37.515 58.4026 40.758C58.4026 40.898 58.4156 41.035 58.4266 41.172C55.3696 39.045 53.3616 35.511 53.3616 31.515C53.3616 25.518 57.8766 20.563 63.6826 19.849C64.1396 21.43 65.1936 22.485 66.3146 23.606C66.6316 23.921 66.8056 24.343 66.8056 24.793C66.8056 25.72 66.0526 26.473 65.1256 26.473C64.1966 26.473 63.4446 27.225 63.4446 28.154C63.4446 29.083 64.1966 29.834 65.1256 29.834C67.9056 29.834 70.1666 27.572 70.1666 24.793C70.1666 23.444 69.6416 22.177 68.6516 21.191C68.1696 20.708 67.8066 20.336 67.5306 20.001C72.8666 21.115 76.8886 25.854 76.8886 31.516C76.8886 35.512 74.8796 39.045 71.8226 41.172ZM65.1246 43.279C64.9906 43.279 64.8596 43.271 64.7296 43.259C63.0866 43.107 61.7636 42.025 61.7636 40.759C61.7636 39.392 63.3036 38.238 65.1246 38.238C66.9466 38.238 68.4856 39.392 68.4856 40.759C68.4856 42.026 67.1626 43.108 65.5186 43.259C65.3896 43.271 65.2576 43.279 65.1246 43.279ZM36.5556 75.209H34.8756V66.806V36.556C34.8756 33.938 32.8686 31.78 30.3116 31.539L28.9436 26.066C28.7566 25.317 28.0846 24.793 27.3136 24.793H26.4736V11.348C26.4736 10.419 25.7216 9.66797 24.7926 9.66797C23.8646 9.66797 23.1126 10.419 23.1126 11.348V24.793H22.2726C21.5016 24.793 20.8296 25.318 20.6426 26.066L19.2746 31.539C16.7176 31.78 14.7106 33.937 14.7106 36.556V66.806V75.209H13.0306C12.1026 75.209 11.3496 75.961 11.3496 76.89C11.3496 77.818 12.1016 78.57 13.0306 78.57H16.3916H23.1136V86.973H18.0716C17.1436 86.973 16.3916 87.725 16.3916 88.654C16.3916 89.583 17.1436 90.334 18.0716 90.334H24.7936H31.5166C32.4446 90.334 33.1966 89.583 33.1966 88.654C33.1966 87.725 32.4446 86.973 31.5166 86.973H26.4746V78.57H33.1966H36.5576C37.4856 78.57 38.2386 77.818 38.2386 76.89C38.2356 75.961 37.4836 75.209 36.5556 75.209ZM24.7916 28.154H25.9996L26.8396 31.515H22.7416L23.5816 28.154H24.7916ZM18.0686 36.556C18.0686 35.629 18.8226 34.876 19.7496 34.876H20.5896H28.9916H29.8316C30.7586 34.876 31.5126 35.629 31.5126 36.556V65.126H26.4706H23.1096H18.0676L18.0686 36.556ZM18.0686 68.487H23.1106V75.209H18.0686V68.487ZM26.4716 68.487H31.5136V75.209H26.4716V68.487ZM24.7916 60.084V39.918C24.7916 38.989 25.5446 38.237 26.4726 38.237C27.4006 38.237 28.1536 38.989 28.1536 39.918V60.084C28.1536 61.013 27.4006 61.765 26.4726 61.765C25.5446 61.765 24.7916 61.013 24.7916 60.084Z" fill="#2B3990"/>
</svg>
