<svg width="512" height="512" viewBox="0 0 512 512" fill="none" xmlns="http://www.w3.org/2000/svg">
<g clip-path="url(#clip0_1105_2418)">
<path d="M510.99 130.6C503.101 56.2254 451.473 14.0534 406.144 16.2234C390.357 16.9844 376.776 23.1234 366.872 33.9794C356.308 45.5564 350.626 62.0494 350.444 81.6714C350.293 98.5474 355.474 108.448 360.044 117.184C362.062 120.782 363.771 124.545 365.15 128.433C366.436 132.552 367.283 136.795 367.677 141.091H333.209C318.29 141.108 303.987 147.042 293.438 157.591C282.889 168.14 276.956 182.443 276.939 197.361V302.306C263.064 300.204 248.956 300.163 235.07 302.184V197.364C235.053 182.446 229.119 168.144 218.571 157.595C208.022 147.046 193.72 141.112 178.802 141.094H144.315C144.711 136.8 145.563 132.56 146.856 128.446C148.236 124.555 149.945 120.789 151.965 117.188C156.536 108.452 161.715 98.5504 161.565 81.6754C161.382 62.0534 155.702 45.5634 145.139 33.9864C135.239 23.1314 121.657 16.9864 105.871 16.2284C60.5286 14.0124 8.89462 56.2184 0.989622 130.612C-0.329874 142.225 -0.329874 153.949 0.989622 165.561C8.69862 238.108 57.9896 280.022 102.49 280.022C103.618 280.022 104.749 279.995 105.87 279.941C121.656 279.179 135.234 273.041 145.138 262.184C155.701 250.606 161.381 234.116 161.564 214.49C161.713 197.615 156.534 187.713 151.964 178.977C149.943 175.375 148.233 171.607 146.854 167.713C145.561 163.611 144.71 159.382 144.314 155.098H178.801C190.006 155.111 200.749 159.569 208.672 167.492C216.595 175.416 221.052 186.159 221.065 197.364V304.941C215.128 306.415 209.284 308.242 203.565 310.411C187.104 316.64 177.365 329.323 175.407 347.089C173.485 364.52 179.238 386.389 191.607 408.658C202.067 427.491 216.107 444.202 229.712 454.158V488.853C229.712 490.71 230.449 492.49 231.762 493.803C233.075 495.116 234.855 495.853 236.712 495.853H275.265C277.121 495.853 278.902 495.116 280.214 493.803C281.527 492.49 282.265 490.71 282.265 488.853V454.033C295.927 443.986 310.012 427.151 320.492 408.202C332.884 385.796 338.592 363.88 336.552 346.492C334.493 328.892 324.708 316.41 308.26 310.383C302.587 308.3 296.805 306.529 290.939 305.078V197.364C290.952 186.158 295.41 175.415 303.334 167.492C311.259 159.568 322.003 155.112 333.209 155.1H367.675C367.282 159.385 366.436 163.616 365.152 167.722C363.773 171.614 362.063 175.38 360.043 178.98C355.474 187.716 350.293 197.617 350.443 214.496C350.625 234.119 356.307 250.611 366.871 262.189C376.771 273.043 390.356 279.183 406.143 279.944C407.264 279.997 408.388 280.024 409.515 280.024C454.015 280.024 503.299 238.103 510.988 165.569C512.337 153.952 512.338 142.218 510.99 130.6ZM133.528 172.016C135.141 176.668 137.159 181.169 139.558 185.468C143.735 193.455 147.682 200.998 147.564 214.368C147.274 245.405 131.436 264.692 105.196 265.959C72.4006 267.522 22.6616 236.982 14.9176 164.091C13.6936 153.457 13.6936 142.718 14.9176 132.083C22.4716 60.9724 69.9546 30.1524 102.748 30.1524C103.572 30.1524 104.391 30.1724 105.196 30.2114C131.434 31.4794 147.272 50.7654 147.564 81.7984C147.682 95.1674 143.735 102.711 139.558 110.698C137.159 114.997 135.141 119.498 133.529 124.149C131.793 129.655 130.693 135.34 130.249 141.095H108.701C106.998 128.834 100.923 117.601 91.5932 109.464C82.2638 101.328 70.3087 96.8359 57.9296 96.8164C56.0731 96.8164 54.2926 97.5539 52.9799 98.8666C51.6671 100.179 50.9296 101.96 50.9296 103.816C50.9296 105.673 51.6671 107.453 52.9799 108.766C54.2926 110.079 56.0731 110.816 57.9296 110.816C66.5947 110.83 74.985 113.858 81.6611 119.382C88.3373 124.906 92.883 132.581 94.5186 141.09H57.9296C56.0731 141.09 54.2926 141.828 52.9799 143.141C51.6671 144.453 50.9296 146.234 50.9296 148.09C50.9296 149.947 51.6671 151.727 52.9799 153.04C54.2926 154.353 56.0731 155.09 57.9296 155.09H94.5176C92.8772 163.595 88.3294 171.264 81.6538 176.782C74.9782 182.301 66.5908 185.325 57.9296 185.336C56.0731 185.336 54.2926 186.074 52.9799 187.387C51.6671 188.699 50.9296 190.48 50.9296 192.336C50.9296 194.193 51.6671 195.973 52.9799 197.286C54.2926 198.599 56.0731 199.336 57.9296 199.336C70.3026 199.32 82.2531 194.834 91.5819 186.706C100.911 178.578 106.99 167.354 108.701 155.1H130.246C130.69 160.846 131.791 166.522 133.528 172.016ZM322.647 348.124C326.308 379.382 297.531 427.271 271.404 444.55C270.439 445.189 269.647 446.056 269.099 447.075C268.551 448.094 268.264 449.233 268.265 450.39V481.854H243.716V450.5C243.716 449.34 243.428 448.197 242.877 447.176C242.326 446.154 241.53 445.286 240.56 444.648C214.611 427.595 185.874 379.935 189.327 348.621C190.71 336.085 196.989 327.869 208.527 323.504C239.467 311.776 271.403 311.784 303.447 323.531C314.922 327.74 321.201 335.783 322.647 348.124ZM497.064 164.083C489.526 235.192 442.049 266.015 409.264 266.013C408.441 266.013 407.624 265.993 406.82 265.954C380.579 264.69 364.739 245.403 364.449 214.366C364.331 200.999 368.276 193.456 372.449 185.466C374.848 181.165 376.866 176.661 378.48 172.006C380.204 166.511 381.297 160.838 381.737 155.095H403.301C405.008 167.353 411.086 178.581 420.416 186.712C429.746 194.843 441.7 199.329 454.076 199.345C455.932 199.345 457.713 198.608 459.025 197.295C460.338 195.982 461.076 194.202 461.076 192.345C461.076 190.489 460.338 188.708 459.025 187.396C457.713 186.083 455.932 185.345 454.076 185.345C445.415 185.333 437.028 182.309 430.354 176.791C423.679 171.272 419.131 163.604 417.491 155.1H454.08C455.936 155.1 457.717 154.363 459.029 153.05C460.342 151.737 461.08 149.957 461.08 148.1C461.08 146.244 460.342 144.463 459.029 143.151C457.717 141.838 455.936 141.1 454.08 141.1H417.49C419.125 132.591 423.671 124.916 430.348 119.392C437.024 113.868 445.414 110.84 454.08 110.826C455.936 110.826 457.717 110.089 459.029 108.776C460.342 107.463 461.08 105.683 461.08 103.826C461.08 101.97 460.342 100.189 459.029 98.8766C457.717 97.5639 455.936 96.8264 454.08 96.8264C441.701 96.8436 429.745 101.333 420.414 109.467C411.083 117.602 405.006 128.834 403.301 141.094H381.74C381.299 135.341 380.205 129.657 378.48 124.15C376.867 119.5 374.849 114.999 372.451 110.7C368.273 102.714 364.328 95.1704 364.451 81.8004C364.743 50.7634 380.583 31.4774 406.823 30.2124C439.608 28.6184 489.34 59.1894 497.07 132.09C498.318 142.718 498.316 153.456 497.064 164.083Z" fill="#2B3990"/>
</g>
<defs>
<clipPath id="clip0_1105_2418">
<rect width="512" height="512" fill="white"/>
</clipPath>
</defs>
</svg>
