<svg width="512" height="512" viewBox="0 0 512 512" fill="none" xmlns="http://www.w3.org/2000/svg">
<g clip-path="url(#clip0_1096_2435)">
<path d="M279.832 504.5V446.163C279.832 421.838 271.326 398.281 255.8 379.553L238.809 359.067" stroke="#2B3990" stroke-width="15" stroke-miterlimit="10" stroke-linecap="round" stroke-linejoin="round"/>
<path d="M379.148 504.5V466.95" stroke="#2B3990" stroke-width="15" stroke-miterlimit="10" stroke-linecap="round" stroke-linejoin="round"/>
<path d="M379.148 431.95V383" stroke="#2B3990" stroke-width="15" stroke-miterlimit="10" stroke-linecap="round" stroke-linejoin="round"/>
<path d="M98.06 322.8C87.06 311.27 79.89 296.06 78.6 279.2C73.05 281.16 67.09 282.24 60.86 282.24C31.39 282.24 7.5 258.34 7.5 228.87C7.5 215.2 12.65 202.74 21.1 193.3C12.65 183.85 7.5 171.39 7.5 157.72C7.5 128.25 31.39 104.36 60.86 104.36C60.86 65.06 92.72 33.2 132.02 33.2C140.8 33.2 149.21 34.8 156.97 37.72C172.06 19.27 194.99 7.5 220.67 7.5C236.71 7.5 251.66 12.1 264.31 20.04C271.62 16.28 279.9 14.14 288.69 14.14C307.85 14.14 324.65 24.25 334.06 39.42C343.91 40.52 353.41 42.79 362.42 46.07" stroke="#2B3990" stroke-width="15" stroke-miterlimit="10" stroke-linecap="round" stroke-linejoin="round"/>
<path d="M393.188 62.5698C403.338 70.0298 412.298 79.0198 419.748 89.1898C444.758 93.1898 463.948 114.57 464.578 140.55C488.498 154.94 504.498 181.14 504.498 211.08C504.498 233.44 495.568 253.69 481.108 268.52C477.408 333.37 423.658 384.82 357.888 384.82C327.138 384.82 299.038 373.56 277.428 354.96C268.758 358.07 259.418 359.77 249.678 359.77C225.598 359.77 203.938 349.43 188.898 332.94C177.618 340.45 164.088 344.84 149.518 344.84C141.828 344.84 134.428 343.62 127.488 341.36" stroke="#2B3990" stroke-width="15" stroke-miterlimit="10" stroke-linecap="round" stroke-linejoin="round"/>
<path d="M347.672 384.397V504.5" stroke="#2B3990" stroke-width="15" stroke-miterlimit="10" stroke-linecap="round" stroke-linejoin="round"/>
<path d="M153.445 105.48H178.108C196.554 105.48 213.334 116.153 221.154 132.86L228.644 148.863" stroke="#2B3990" stroke-width="15" stroke-miterlimit="10" stroke-linecap="round" stroke-linejoin="round"/>
<path d="M229.543 178.528L218.242 207.05C211.062 225.171 193.547 237.071 174.056 237.071H153.445" stroke="#2B3990" stroke-width="15" stroke-miterlimit="10" stroke-linecap="round" stroke-linejoin="round"/>
<path d="M251.66 163.5H264.93C284.6 163.5 302.36 151.76 310.06 133.66L317.65 115.8" stroke="#2B3990" stroke-width="15" stroke-miterlimit="10" stroke-linecap="round" stroke-linejoin="round"/>
<path d="M269.281 163.5L358.691 163.68C369.571 163.71 380.081 167.36 388.601 173.97" stroke="#2B3990" stroke-width="15" stroke-miterlimit="10" stroke-linecap="round" stroke-linejoin="round"/>
<path d="M261.531 163.5H269.281C285.061 163.5 298.131 175.78 299.111 191.53L302.661 248.48" stroke="#2B3990" stroke-width="15" stroke-miterlimit="10" stroke-linecap="round" stroke-linejoin="round"/>
<path d="M137.284 121.643C146.211 121.643 153.447 114.406 153.447 105.48C153.447 96.5533 146.211 89.3169 137.284 89.3169C128.358 89.3169 121.121 96.5533 121.121 105.48C121.121 114.406 128.358 121.643 137.284 121.643Z" stroke="#2B3990" stroke-width="15" stroke-miterlimit="10" stroke-linecap="round" stroke-linejoin="round"/>
<path d="M235.495 179.665C244.422 179.665 251.658 172.428 251.658 163.502C251.658 154.575 244.422 147.339 235.495 147.339C226.568 147.339 219.332 154.575 219.332 163.502C219.332 172.428 226.568 179.665 235.495 179.665Z" stroke="#2B3990" stroke-width="15" stroke-miterlimit="10" stroke-linecap="round" stroke-linejoin="round"/>
<path d="M137.284 253.234C146.211 253.234 153.447 245.998 153.447 237.071C153.447 228.145 146.211 220.908 137.284 220.908C128.358 220.908 121.121 228.145 121.121 237.071C121.121 245.998 128.358 253.234 137.284 253.234Z" stroke="#2B3990" stroke-width="15" stroke-miterlimit="10" stroke-linecap="round" stroke-linejoin="round"/>
<path d="M303.659 280.771C312.586 280.771 319.822 273.534 319.822 264.608C319.822 255.681 312.586 248.445 303.659 248.445C294.733 248.445 287.496 255.681 287.496 264.608C287.496 273.534 294.733 280.771 303.659 280.771Z" stroke="#2B3990" stroke-width="15" stroke-miterlimit="10" stroke-linecap="round" stroke-linejoin="round"/>
<path d="M323.979 117.093C332.906 117.093 340.142 109.857 340.142 100.93C340.142 92.0035 332.906 84.7671 323.979 84.7671C315.053 84.7671 307.816 92.0035 307.816 100.93C307.816 109.857 315.053 117.093 323.979 117.093Z" stroke="#2B3990" stroke-width="15" stroke-miterlimit="10" stroke-linecap="round" stroke-linejoin="round"/>
<path d="M400.296 201.281C409.222 201.281 416.459 194.045 416.459 185.118C416.459 176.191 409.222 168.955 400.296 168.955C391.369 168.955 384.133 176.191 384.133 185.118C384.133 194.045 391.369 201.281 400.296 201.281Z" stroke="#2B3990" stroke-width="15" stroke-miterlimit="10" stroke-linecap="round" stroke-linejoin="round"/>
<path d="M400.296 201.281V248.117C400.296 262.36 392.101 275.332 379.239 281.449L368.729 286.448C355.867 292.566 347.672 305.537 347.672 319.78V384.397" stroke="#2B3990" stroke-width="15" stroke-miterlimit="10" stroke-linecap="round" stroke-linejoin="round"/>
<path d="M303.66 280.77V297.636C303.66 308.442 308.395 318.704 316.616 325.717L334.716 341.157C342.937 348.17 347.672 358.433 347.672 369.238V384.397" stroke="#2B3990" stroke-width="15" stroke-miterlimit="10" stroke-linecap="round" stroke-linejoin="round"/>
<path d="M347.673 394.391V412.08C347.673 422.21 343.76 431.947 336.751 439.261L326.27 450.197C319.261 457.51 315.348 467.248 315.348 477.378V504.5" stroke="#2B3990" stroke-width="15" stroke-miterlimit="10" stroke-linecap="round" stroke-linejoin="round"/>
</g>
<defs>
<clipPath id="clip0_1096_2435">
<rect width="512" height="512" fill="white"/>
</clipPath>
</defs>
</svg>
