<svg width="512" height="512" viewBox="0 0 512 512" fill="none" xmlns="http://www.w3.org/2000/svg">
<g clip-path="url(#clip0_45_821)">
<path d="M327.324 381.433C305.903 395.228 281.364 404.597 254.999 408.262V424.999C254.999 438.749 243.749 449.999 229.999 449.999C216.249 449.999 204.999 438.749 204.999 424.999V408.262C173.98 403.951 145.492 391.741 121.63 373.723L109.791 385.562C100.068 395.285 84.158 395.285 74.436 385.562C64.713 375.839 64.713 359.929 74.436 350.207L86.275 338.368C68.254 314.508 56.049 286.017 51.737 254.999H35C21.25 254.999 10 243.749 10 229.999C10 216.249 21.25 204.999 35 204.999H51.737C56.048 173.98 68.258 145.492 86.276 121.63L74.437 109.791C64.714 100.068 64.714 84.158 74.437 74.436C84.16 64.713 100.07 64.713 109.792 74.436L121.631 86.275C145.49 68.254 173.982 56.048 205 51.736V35C205 21.25 216.25 10 230 10C243.75 10 255 21.25 255 35V51.737C286.019 56.048 314.507 68.258 338.369 86.275L350.208 74.436C359.931 64.713 375.841 64.713 385.563 74.436C395.286 84.159 395.286 100.069 385.563 109.791L373.724 121.63C391.745 145.489 403.951 173.981 408.263 204.999H424.999C438.749 204.999 449.999 216.249 449.999 229.999C449.999 243.749 438.749 254.999 424.999 254.999H408.263C404.6 281.358 395.231 305.888 381.443 327.307" stroke="#2B3990" stroke-width="20" stroke-miterlimit="2.6131" stroke-linecap="round" stroke-linejoin="round"/>
<path d="M222.386 283.979C238.007 268.358 238.007 243.032 222.386 227.411C206.765 211.79 181.439 211.79 165.818 227.411C150.197 243.032 150.197 268.358 165.818 283.979C181.439 299.6 206.765 299.6 222.386 283.979Z" stroke="#2B3990" stroke-width="20" stroke-miterlimit="2.6131" stroke-linecap="round" stroke-linejoin="round"/>
<path d="M294.603 202.893C301.869 192.812 299.587 178.75 289.507 171.485C279.427 164.219 265.365 166.501 258.099 176.581C250.833 186.661 253.115 200.723 263.195 207.989C273.276 215.254 287.337 212.973 294.603 202.893Z" stroke="#2B3990" stroke-width="20" stroke-miterlimit="2.6131" stroke-linecap="round" stroke-linejoin="round"/>
<path d="M309.431 242.772H309.438" stroke="#2B3990" stroke-width="20" stroke-miterlimit="22.9256" stroke-linecap="round" stroke-linejoin="round"/>
<path d="M221.321 160.094H221.328" stroke="#2B3990" stroke-width="20" stroke-miterlimit="22.9256" stroke-linecap="round" stroke-linejoin="round"/>
<path d="M283.183 280.812H283.19" stroke="#2B3990" stroke-width="20" stroke-miterlimit="22.9256" stroke-linecap="round" stroke-linejoin="round"/>
<path d="M385.76 454.57C422.871 423.415 459.452 368.416 412 362C364.548 368.416 401.129 423.415 438.24 454.569" stroke="#2B3990" stroke-width="20" stroke-miterlimit="2.6131" stroke-linecap="round" stroke-linejoin="round"/>
<path d="M475.634 475.639C510.781 440.492 510.781 383.508 475.634 348.361C440.487 313.214 383.503 313.214 348.356 348.361C313.209 383.508 313.209 440.492 348.356 475.639C383.503 510.786 440.487 510.786 475.634 475.639Z" stroke="#2B3990" stroke-width="20" stroke-miterlimit="2.6131" stroke-linecap="round" stroke-linejoin="round"/>
<path d="M179.339 115.7C194.825 108.826 211.964 105 229.999 105C299.034 105 354.999 160.964 354.999 229.999C354.999 299.034 299.035 354.999 229.999 354.999C160.964 354.999 105 299.035 105 229.999C105 211.964 108.826 194.824 115.7 179.339" stroke="#2B3990" stroke-width="20" stroke-miterlimit="2.6131" stroke-linecap="round" stroke-linejoin="round"/>
<path d="M141.606 141.606L141.612 141.612" stroke="#2B3990" stroke-width="20" stroke-miterlimit="22.9256" stroke-linecap="round" stroke-linejoin="round"/>
</g>
<defs>
<clipPath id="clip0_45_821">
<rect width="512" height="512" fill="white"/>
</clipPath>
</defs>
</svg>
