<svg width="512" height="512" viewBox="0 0 512 512" fill="none" xmlns="http://www.w3.org/2000/svg">
<path d="M241.184 240.032C228.618 234.251 214.439 232.996 201.052 236.477C200.73 227.358 197.073 218.673 190.774 212.071C175.278 196.164 148.43 198.782 147.231 198.899C113.452 201.138 99.0157 229.775 105.92 256.97C107.359 264.521 108.037 272.197 107.942 279.883C109.16 297.697 105.219 315.485 96.5903 331.118L50.3012 412.539C49.3045 414.38 49.0688 416.538 49.6448 418.55C50.2208 420.563 51.5626 422.269 53.3822 423.304C55.2019 424.338 57.3546 424.618 59.3784 424.084C61.4022 423.549 63.1359 422.243 64.2077 420.445L110.496 339.024C119.301 323.525 123.934 306.006 123.942 288.18C124.378 276.663 123.593 265.133 121.598 253.782C119.096 244.384 120.412 234.378 125.258 225.946C132.873 214.761 161.866 208.239 179.348 223.273C181.938 226.411 183.77 230.103 184.702 234.064C185.635 238.024 185.644 242.146 184.727 246.11C184.545 247.487 184.726 248.887 185.249 250.173C185.773 251.459 186.623 252.587 187.714 253.445C188.806 254.303 190.102 254.863 191.475 255.068C192.849 255.274 194.252 255.119 195.547 254.618C195.782 254.532 218.727 246.016 233.532 254.086C236.994 256.194 239.929 259.065 242.114 262.48C244.298 265.894 245.674 269.762 246.137 273.789C248.694 283.109 247.904 293.031 243.903 301.829C239.683 310.949 225.894 313.638 216.399 317.18C190.014 326.645 167.888 345.24 154.024 369.602L98.0278 468.047C97.0313 469.888 96.7959 472.046 97.372 474.058C97.948 476.07 99.2898 477.776 101.109 478.811C102.929 479.845 105.081 480.125 107.105 479.591C109.129 479.057 110.862 477.751 111.934 475.953L167.93 377.508C179.903 356.473 199.008 340.417 221.789 332.243C236.285 327.548 250.873 323.13 257.816 309.734C263.884 297.371 265.247 283.224 261.653 269.93C260.719 263.725 258.392 257.812 254.847 252.634C251.302 247.456 246.631 243.147 241.184 240.032Z" fill="#2B3990"/>
<path d="M461.688 108.094C460.634 106.253 458.891 104.907 456.844 104.35C454.797 103.793 452.612 104.072 450.77 105.125L369.493 151.664C351.686 162.084 337.229 177.378 327.825 195.743C315.811 212.359 318.807 230.268 299.245 241.501C286.836 247.188 258.875 238.213 251.321 216.274C250.689 212.256 250.991 208.145 252.203 204.262C253.416 200.379 255.507 196.828 258.313 193.883C259.151 192.785 259.693 191.49 259.887 190.123C260.081 188.756 259.921 187.361 259.421 186.074C258.922 184.786 258.1 183.648 257.034 182.77C255.969 181.891 254.696 181.3 253.337 181.055C253.095 181.016 229.032 176.781 220.333 162.148C218.434 158.57 217.376 154.606 217.238 150.557C217.1 146.508 217.886 142.481 219.536 138.781C221.863 128.829 234.435 106.352 256.744 114.524C287.338 122.768 319.944 118.704 347.579 103.203L445.876 46.9454C447.715 45.8904 449.06 44.1484 449.616 42.1022C450.172 40.056 449.893 37.8729 448.84 36.0324C447.787 34.1919 446.047 32.8446 444.001 32.2863C441.956 31.728 439.772 32.0044 437.931 33.0549L339.634 89.3126C318.625 101.338 294.003 105.437 270.231 100.867L260.958 99.0861C228.397 88.2189 207.863 117.838 204.213 134.236C192.589 163.604 215.257 187.124 239.358 193.866C222.87 223.814 254.044 248.687 266.565 253.593C296.246 268.523 323.332 252.477 331.676 224.632C335.416 214.87 340.157 205.521 345.821 196.735C353.486 183.78 364.382 173.037 377.442 165.555L458.724 119.016C460.565 117.96 461.911 116.217 462.467 114.169C463.023 112.121 462.743 109.936 461.688 108.094Z" fill="#2B3990"/>
<path d="M181.52 131.422C182.57 131.422 183.611 131.215 184.581 130.813C185.552 130.412 186.434 129.822 187.177 129.079C187.92 128.336 188.509 127.454 188.911 126.484C189.313 125.513 189.52 124.472 189.52 123.422V76.2266C189.52 74.1048 188.677 72.07 187.176 70.5697C185.676 69.0694 183.641 68.2266 181.52 68.2266C179.398 68.2266 177.363 69.0694 175.863 70.5697C174.362 72.07 173.52 74.1048 173.52 76.2266V123.422C173.519 124.472 173.726 125.513 174.128 126.484C174.53 127.454 175.119 128.336 175.862 129.079C176.605 129.822 177.487 130.411 178.458 130.813C179.428 131.215 180.469 131.422 181.52 131.422Z" fill="#2B3990"/>
<path d="M141.571 148.337C143.125 149.742 145.168 150.481 147.261 150.396C149.355 150.311 151.331 149.409 152.766 147.882C154.202 146.356 154.981 144.328 154.937 142.233C154.893 140.139 154.029 138.145 152.531 136.68L117.001 103.274C115.446 101.869 113.403 101.13 111.31 101.215C109.217 101.3 107.24 102.202 105.805 103.728C104.37 105.255 103.591 107.283 103.635 109.377C103.679 111.472 104.542 113.466 106.04 114.931L141.571 148.337Z" fill="#2B3990"/>
<path d="M80.7674 187.102H129.287C131.382 187.061 133.377 186.2 134.844 184.704C136.311 183.208 137.132 181.196 137.132 179.101C137.132 177.006 136.31 174.995 134.843 173.499C133.376 172.003 131.381 171.142 129.286 171.102H80.7674C78.6727 171.142 76.6776 172.003 75.2106 173.499C73.7436 174.995 72.9219 177.006 72.9219 179.102C72.9219 181.197 73.7436 183.208 75.2106 184.704C76.6776 186.2 78.6727 187.061 80.7674 187.102Z" fill="#2B3990"/>
<path d="M272.199 315.344C271.149 315.343 270.108 315.55 269.137 315.952C268.167 316.354 267.285 316.943 266.542 317.686C265.799 318.429 265.21 319.311 264.808 320.282C264.406 321.253 264.199 322.293 264.199 323.344V371.594C264.199 373.715 265.042 375.75 266.542 377.251C268.043 378.751 270.077 379.594 272.199 379.594C274.321 379.594 276.356 378.751 277.856 377.251C279.356 375.75 280.199 373.715 280.199 371.594V323.344C280.2 322.293 279.993 321.253 279.591 320.282C279.189 319.311 278.6 318.429 277.857 317.686C277.114 316.943 276.232 316.354 275.261 315.952C274.29 315.55 273.25 315.343 272.199 315.344Z" fill="#2B3990"/>
<path d="M312.29 298.024C310.77 296.581 308.745 295.793 306.649 295.827C304.554 295.862 302.556 296.716 301.084 298.208C299.612 299.699 298.784 301.708 298.777 303.804C298.771 305.899 299.586 307.914 301.048 309.415L337.11 345.024C338.63 346.465 340.655 347.253 342.75 347.218C344.844 347.183 346.842 346.329 348.314 344.838C349.785 343.347 350.613 341.338 350.621 339.243C350.628 337.148 349.813 335.134 348.352 333.633L312.29 298.024Z" fill="#2B3990"/>
<path d="M375.611 260.188H324.701C322.606 260.228 320.611 261.089 319.144 262.585C317.677 264.081 316.855 266.093 316.855 268.188C316.856 270.283 317.677 272.294 319.144 273.79C320.611 275.286 322.607 276.147 324.701 276.188H375.611C377.706 276.147 379.701 275.286 381.168 273.79C382.635 272.294 383.456 270.283 383.456 268.188C383.456 266.092 382.635 264.081 381.168 262.585C379.701 261.089 377.706 260.228 375.611 260.188Z" fill="#2B3990"/>
</svg>
