<svg width="100" height="100" viewBox="0 0 100 100" fill="none" xmlns="http://www.w3.org/2000/svg">
<path d="M86.5471 31.04C86.4771 30.983 86.4011 30.933 86.3221 30.888L80.7931 27.776C80.4451 27.458 80.2481 27.012 80.2481 26.537V21.431C81.1761 21.431 81.9281 20.679 81.9281 19.751V14.709C81.9281 14.617 81.9211 14.525 81.9051 14.433C81.3791 11.271 79.3841 9.66797 75.9771 9.66797H57.6311C54.2241 9.66797 52.2291 11.271 51.7021 14.433C51.6871 14.525 51.6791 14.617 51.6791 14.709V19.751C51.6791 20.679 52.4311 21.431 53.3601 21.431V26.473V26.537C53.3601 27.012 53.1631 27.458 52.8151 27.776L47.2871 30.888C47.2071 30.933 47.1321 30.984 47.0611 31.04C44.6561 32.963 43.2771 35.833 43.2771 38.914V41.597V80.25V88.652C43.2771 89.58 44.0291 90.332 44.9571 90.332H88.6521C89.5801 90.332 90.3321 89.58 90.3321 88.652V80.25V41.598V38.915C90.3311 35.834 88.9521 32.964 86.5471 31.04ZM46.6371 38.914C46.6371 36.904 47.5181 35.028 49.0591 33.747L54.6021 30.627C54.6821 30.582 54.7581 30.531 54.8291 30.474C55.5951 29.86 56.1491 29.054 56.4531 28.153H71.8451C72.7731 28.153 73.5261 27.401 73.5261 26.473C73.5261 25.545 72.7731 24.792 71.8451 24.792H56.7201V21.431H76.8871V26.537C76.8871 28.076 77.5761 29.511 78.7771 30.474C78.8481 30.531 78.9251 30.582 79.0041 30.627L84.5481 33.747C86.0891 35.028 86.9701 36.904 86.9701 38.914V39.917H46.6371V38.914ZM55.0401 14.854C55.2701 13.618 55.7511 13.028 57.6311 13.028H75.9771C77.8571 13.028 78.3381 13.618 78.5681 14.854V18.069H55.0401V14.854ZM86.9701 86.973H46.6371V80.251V43.278H86.9701V78.57H58.4011C57.4761 78.57 56.7201 79.326 56.7201 80.251C56.7201 81.175 57.4761 81.931 58.4011 81.931H86.9701V86.973ZM53.3591 80.251C53.3591 81.175 52.6021 81.931 51.6781 81.931C50.7541 81.931 49.9981 81.174 49.9981 80.251C49.9981 79.326 50.7541 78.57 51.6781 78.57C52.6021 78.57 53.3591 79.325 53.3591 80.251ZM56.7201 75.196C55.7921 75.196 55.0391 74.443 55.0391 73.515V67.497C55.0391 67.08 54.8431 66.701 54.5161 66.483C52.3351 65.036 51.2961 62.597 51.8061 60.116C52.3051 57.682 54.3791 55.701 56.9691 55.184C58.6371 54.855 60.3281 55.112 61.7621 55.901C63.1961 55.112 64.8861 54.855 66.5561 55.185C69.1451 55.7 71.2191 57.682 71.7181 60.117C72.2271 62.596 71.1881 65.036 69.0081 66.483C68.6801 66.701 68.4841 67.08 68.4841 67.497V73.528C68.4841 74.456 67.7321 75.208 66.8031 75.208C65.8751 75.208 65.1231 74.456 65.1231 73.528V73.526V67.497C65.1231 65.95 65.8801 64.524 67.1501 63.682C68.1801 62.999 68.6581 61.919 68.4261 60.793C68.1991 59.683 67.1591 58.733 65.8991 58.482C64.7861 58.257 63.6681 58.528 62.8331 59.219C62.2131 59.733 61.3121 59.733 60.6911 59.219C59.8551 58.53 58.7421 58.261 57.6261 58.481C56.3651 58.732 55.3251 59.682 55.0981 60.792C54.8671 61.92 55.3441 63 56.3741 63.682C57.6431 64.524 58.4011 65.95 58.4011 67.497V73.515L58.4001 73.517C58.4001 74.444 57.6481 75.196 56.7201 75.196ZM34.2011 66.806H28.1511H22.1001C18.9501 66.806 16.3871 69.369 16.3871 72.519V74.536C16.3871 75.375 16.5741 76.17 16.9001 76.888H15.3781C12.2281 76.888 9.66406 79.451 9.66406 82.602V84.619C9.66406 87.77 12.2271 90.333 15.3781 90.333H21.4281H27.4791C30.6291 90.333 33.1921 87.77 33.1921 84.619V82.602C33.1921 81.763 33.0051 80.968 32.6791 80.25H34.2001C37.3501 80.25 39.9131 77.686 39.9131 74.536V72.519C39.9151 69.369 37.3511 66.806 34.2011 66.806ZM36.5541 74.537C36.5541 75.834 35.4991 76.889 34.2021 76.889H29.8321V70.167H34.2021C35.4991 70.167 36.5541 71.222 36.5541 72.519V74.537ZM29.8311 84.62C29.8311 85.918 28.7761 86.973 27.4791 86.973H23.1091V80.251H27.4791C28.7761 80.251 29.8311 81.306 29.8311 82.603V84.62ZM13.0261 84.62V82.603C13.0261 81.305 14.0811 80.251 15.3781 80.251H19.7481V86.973H15.3781C14.0811 86.973 13.0261 85.917 13.0261 84.62ZM19.7481 72.519C19.7481 71.222 20.8031 70.167 22.1001 70.167H26.4701V76.889H22.1001C20.8031 76.889 19.7481 75.834 19.7481 74.537V72.519ZM23.1091 56.723C30.5221 56.723 36.5531 50.691 36.5531 43.278C36.5531 35.864 30.5221 29.833 23.1091 29.833C15.6961 29.833 9.66406 35.864 9.66406 43.278C9.66506 50.691 15.6961 56.723 23.1091 56.723ZM23.1091 33.195C28.6691 33.195 33.1921 37.718 33.1921 43.278C33.1921 48.838 28.6691 53.361 23.1091 53.361C17.5491 53.361 13.0261 48.838 13.0261 43.278C13.0261 37.718 17.5491 33.195 23.1091 33.195ZM16.3871 43.278C16.3871 42.35 17.1391 41.598 18.0671 41.598H21.4281V38.236C21.4281 37.308 22.1801 36.556 23.1091 36.556C24.0371 36.556 24.7891 37.308 24.7891 38.236V41.598H28.1511C29.0791 41.598 29.8311 42.35 29.8311 43.278C29.8311 44.206 29.0791 44.958 28.1511 44.958H24.7891V48.319C24.7891 49.247 24.0371 50 23.1091 50C22.1811 50 21.4281 49.247 21.4281 48.319V44.958H18.0671C17.1401 44.958 16.3871 44.206 16.3871 43.278ZM75.3831 57.474C75.0991 56.905 75.1601 56.223 75.5431 55.714L80.5841 48.992C81.1411 48.252 82.1931 48.098 82.9371 48.656C83.6801 49.213 83.8301 50.266 83.2721 51.009L80.2481 55.042H81.9281C82.5651 55.042 83.1471 55.401 83.4321 55.971C83.7161 56.54 83.6551 57.221 83.2721 57.731L78.2301 64.453C77.9001 64.893 77.3961 65.126 76.8851 65.126C76.5351 65.126 76.1811 65.017 75.8781 64.789C75.1351 64.232 74.9851 63.179 75.5421 62.436L78.5671 58.403H76.8871C76.2501 58.403 75.6681 58.043 75.3831 57.474Z" fill="#2B3990"/>
</svg>
