<svg width="1024" height="1024" viewBox="0 0 1024 1024" fill="none" xmlns="http://www.w3.org/2000/svg">
<path d="M320 330C323.31 330 326 332.69 326 336H346C346 321.66 334.34 310 320 310C305.66 310 294 321.66 294 336H314C314 332.69 316.69 330 320 330Z" fill="#2B3990"/>
<path d="M416 330C419.31 330 422 332.69 422 336H442C442 321.66 430.34 310 416 310C401.66 310 390 321.66 390 336H410C410 332.69 412.69 330 416 330Z" fill="#2B3990"/>
<path d="M326 416C326 439.16 344.84 458 368 458C391.16 458 410 439.16 410 416C410 392.84 391.16 374 368 374C344.84 374 326 392.84 326 416ZM368 394C380.13 394 390 403.87 390 416C390 428.13 380.13 438 368 438C355.87 438 346 428.13 346 416C346 403.87 355.87 394 368 394Z" fill="#2B3990"/>
<path d="M448.001 682.38C453.734 682.38 458.381 677.733 458.381 672C458.381 666.267 453.734 661.62 448.001 661.62C442.268 661.62 437.621 666.267 437.621 672C437.621 677.733 442.268 682.38 448.001 682.38Z" fill="#2B3990"/>
<path d="M900.33 220.5C896.99 216.37 892.03 214 886.71 214H858V208H838V240H858V234H883.63L851.63 383.33C844.84 415.01 816.4 438 784 438C751.6 438 723.16 415.01 716.37 383.33L684.37 234H710V240H730V208H710V214H681.29C675.98 214 671.01 216.37 667.67 220.5C664.33 224.63 663.05 229.98 664.17 235.18L696.81 387.52C701.07 407.4 712.13 425.4 727.94 438.18C741.15 448.86 757.21 455.51 774 457.42V760C774 785.36 753.36 806 728 806C702.64 806 682 785.36 682 760V728C682 692.25 653.43 663.07 617.92 662.05C617.92 662.04 617.92 662.04 617.92 662.03C617.98 660.02 618 658.01 618 656V368C618 301.22 592 238.44 544.78 191.22C497.56 144 434.78 118 368 118C301.22 118 238.44 144 191.22 191.22C144 238.44 118 301.22 118 368V656C118 722.78 144 785.56 191.22 832.78C238.44 880 301.22 906 368 906C434.78 906 497.56 880 544.78 832.78C585.81 791.75 610.82 738.96 616.67 682.02C641.73 682.38 662 702.86 662 728V760C662 796.39 691.61 826 728 826C764.39 826 794 796.39 794 760V457.41C810.78 455.5 826.85 448.85 840.06 438.17C855.87 425.39 866.93 407.39 871.19 387.51L903.83 235.17C904.94 229.98 903.67 224.63 900.33 220.5ZM368 138C476.88 138 568.32 214.05 592.03 315.81C578.3 356.61 546.96 388.01 522.82 407.31C514.12 414.27 505 420.84 495.72 427.18C512.62 399.28 522 367.31 522 336C522 294.94 506.19 259.86 476.28 234.54C448.45 210.98 409.99 198 368 198C326.01 198 287.55 210.98 259.72 234.54C229.81 259.86 214 294.94 214 336C214 372.64 226.84 410.2 249.59 441.06C223.88 428.01 198.81 413.31 178.32 392.95C158.81 373.56 146.72 352.53 141.36 328.74C160.04 220.56 254.57 138 368 138ZM370.55 515.77C367.32 512.27 363.95 508.95 360.48 505.78C362.98 505.93 365.48 506 367.99 506C372.69 506 377.36 505.73 382 505.23C378.2 508.56 374.37 512.07 370.55 515.77ZM359.68 218.19C365.8 222.5 370.31 228 372.51 233.91C374.97 240.53 374.33 247.98 370.83 253.33C367.18 258.92 360.08 262.46 353.56 261.95C350.69 261.73 348.08 260.67 346.91 259.27C345.7 257.82 345.7 255.09 346.91 252.93C348.53 250.03 352.04 247.5 356.53 245.97L350.08 227.04C340.84 230.19 333.52 235.91 329.45 243.16C324.15 252.62 324.99 264.25 331.55 272.1C336.21 277.68 343.66 281.25 351.99 281.9C352.95 281.97 353.9 282.01 354.86 282.01C367.78 282.01 380.38 275.26 387.56 264.28C394.57 253.55 395.95 239.6 391.24 226.95C390.23 224.23 388.95 221.58 387.42 219.03C455.79 226.34 502 272.38 502 336C502 406.81 444.69 486 368 486C291.31 486 234 406.81 234 336C234 268.99 285.26 221.48 359.68 218.19ZM368 886C242.05 886 139.42 784.24 138.02 658.62V658.61C158.91 682.64 188.92 699.04 218.68 713.82C252.2 730.47 293.92 751.2 310.92 788.18L329.09 779.83C309.15 736.43 263.92 713.96 227.58 695.91C190.61 677.54 153.31 656.7 138.01 621.92V373.86C144.9 385.51 153.59 396.56 164.23 407.13C193.93 436.66 230.92 454.48 266.69 471.71L266.84 471.78C297.55 486.58 332.16 503.27 356.7 530.25C334.84 554.88 315.93 585.82 310.14 622.43L329.89 625.56C338.22 572.88 378.22 532.51 410.3 507.91C428.95 493.61 449.29 480.78 468.96 468.37C491.18 454.35 514.15 439.86 535.32 422.93C555.41 406.87 580.13 382.99 597.48 352.31C597.84 357.5 598.02 362.72 598.02 368V511.36C594.38 542 571.75 568.06 553.35 584.55L566.7 599.44C577.01 590.2 588.49 578.22 598.03 564.07V656C598.03 658.01 598 660 597.95 662H505.16C500.41 634.77 476.6 614 448.03 614C416.05 614 390.03 640.02 390.03 672C390.03 703.98 416.05 730 448.03 730C476.6 730 500.41 709.23 505.16 682H596.57C583.58 796.63 486.03 886 368 886ZM486 672C486 692.95 468.95 710 448 710C427.05 710 410 692.95 410 672C410 651.05 427.05 634 448 634C468.95 634 486 651.05 486 672Z" fill="#2B3990"/>
</svg>
