<svg width="656" height="656" viewBox="0 0 656 656" fill="none" xmlns="http://www.w3.org/2000/svg">
<path fill-rule="evenodd" clip-rule="evenodd" d="M610.645 614.491H44.7171C41.2142 614.491 38.3984 611.664 38.3984 608.177C38.3988 502.628 193.914 472.246 241.585 465.448C245.035 464.954 248.243 467.357 248.73 470.809C249.217 474.263 246.822 477.462 243.375 477.954C199.258 484.243 57.5697 511.528 51.2405 601.861L604.102 601.86C601.879 571.084 583.339 544.468 548.877 522.673C515.235 501.386 467.89 485.922 411.981 477.954C408.522 477.462 406.126 474.263 406.613 470.81C407.113 467.357 410.31 464.962 413.758 465.448C540.998 483.584 616.957 536.938 616.957 608.177C616.957 611.663 614.131 614.492 610.645 614.491Z" fill="#2B3990"/>
<path fill-rule="evenodd" clip-rule="evenodd" d="M328.104 413.651C300.841 413.651 274.851 404.499 252.943 387.179C230.142 369.152 213.14 343.019 203.64 311.455C169.43 297.505 157.284 267.619 163.376 245.884C167.18 232.357 177.126 223.956 190.048 222.55C161.733 165.969 176.139 126.653 193.942 103.22C234.681 49.5799 329.299 30.4437 392.102 46.2255C427.434 55.1029 449.564 73.8577 454.748 99.1934C485.328 124.275 489.275 173.466 465.314 222.422C475.709 223.467 484.262 229.138 489.248 238.696C497.051 253.663 494.617 278.458 474.893 296.892C472.343 299.272 468.34 299.138 465.959 296.589C463.58 294.039 463.722 290.043 466.262 287.663C481.393 273.532 483.643 255.27 478.038 244.534C473.894 236.566 465.998 233.37 455.814 235.534C453.381 236.054 450.866 235.092 449.393 233.083C447.933 231.074 447.774 228.392 449.011 226.23C476.079 178.711 474.485 129.972 445.143 107.704C443.853 106.717 442.985 105.27 442.721 103.66C438.169 74.9443 407.129 63.0255 389.023 58.4769C359.38 51.0259 322.588 51.8846 288.088 60.8255C251.088 70.4164 221.219 88.1855 203.995 110.859C180.313 142.051 181.113 181.946 206.337 226.23C207.562 228.377 207.429 231.042 205.982 233.048C204.536 235.052 202.048 236.032 199.626 235.552C187.629 233.179 178.626 238.314 175.547 249.295C170.798 266.203 181.613 289.986 210.995 300.761C212.903 301.457 214.35 303.025 214.903 304.974C231.403 363.333 275.825 401.019 328.102 401.019H328.246C380.092 400.951 424.011 363.648 440.156 305.982C441.091 302.622 444.577 300.661 447.932 301.603C451.302 302.542 453.261 306.029 452.314 309.388C443.196 341.956 426.103 368.906 402.879 387.323C381.196 404.512 355.392 413.616 328.272 413.651C328.223 413.651 328.154 413.651 328.104 413.651Z" fill="#2B3990"/>
<path fill-rule="evenodd" clip-rule="evenodd" d="M327.683 492.408C298.103 492.408 268.537 487.493 240.392 477.665C237.868 476.776 236.168 474.387 236.168 471.701L236.169 368.873C236.169 365.385 238.997 362.558 242.484 362.558C245.971 362.556 248.8 365.385 248.8 368.874L248.801 467.174C299.842 483.983 355.511 483.983 406.565 467.175L406.567 369.478C406.567 365.991 409.381 363.163 412.881 363.163C416.369 363.162 419.197 365.991 419.197 369.479L419.2 471.701C419.2 474.386 417.5 476.778 414.96 477.665C386.817 487.492 357.249 492.409 327.683 492.408Z" fill="#2B3990"/>
<path fill-rule="evenodd" clip-rule="evenodd" d="M467.025 208.542C465.275 208.542 463.524 207.814 462.274 206.39C428.262 167.601 379.154 145.357 327.561 145.357C275.971 145.357 226.862 167.601 192.849 206.39C190.547 209.011 186.56 209.274 183.941 206.974C181.31 204.674 181.047 200.685 183.35 198.061C219.771 156.537 272.337 132.725 327.561 132.725C382.788 132.723 435.353 156.538 471.774 198.061C474.077 200.684 473.813 204.674 471.182 206.974C469.985 208.026 468.497 208.541 467.025 208.542Z" fill="#2B3990"/>
<path fill-rule="evenodd" clip-rule="evenodd" d="M301.355 370.989C300.013 370.989 298.656 370.564 297.511 369.685C293.485 366.591 289.511 363.095 285.721 359.293C283.248 356.823 283.261 352.824 285.721 350.36C288.198 347.896 292.195 347.9 294.656 350.369C298.065 353.78 301.603 356.909 305.195 359.664C307.974 361.788 308.485 365.753 306.367 368.52C305.117 370.14 303.248 370.99 301.355 370.989Z" fill="#2B3990"/>
<path fill-rule="evenodd" clip-rule="evenodd" d="M271.708 338.206C269.653 338.206 267.639 337.209 266.429 335.372C261.692 328.212 257.192 320.289 253.047 311.821C251.522 308.688 252.81 304.906 255.942 303.371C259.086 301.838 262.863 303.133 264.389 306.266C268.3 314.249 272.534 321.698 276.968 328.406C278.889 331.315 278.087 335.234 275.178 337.157C274.114 337.866 272.902 338.206 271.708 338.206Z" fill="#2B3990"/>
<path fill-rule="evenodd" clip-rule="evenodd" d="M248.866 292.418C246.314 292.418 243.905 290.86 242.944 288.33C240.064 280.669 237.378 272.598 234.984 264.337C234.01 260.986 235.931 257.483 239.286 256.511C242.628 255.534 246.142 257.463 247.115 260.813C249.42 268.76 251.997 276.519 254.773 283.873C255.998 287.137 254.352 290.781 251.089 292.011C250.352 292.286 249.602 292.419 248.866 292.418Z" fill="#2B3990"/>
<path fill-rule="evenodd" clip-rule="evenodd" d="M235.236 245.948C232.287 245.948 229.667 243.892 229.049 240.902C228.299 237.28 227.102 231.003 225.457 222.245C224.814 218.815 227.062 215.516 230.497 214.873C233.918 214.227 237.22 216.487 237.865 219.916C239.499 228.604 240.694 234.811 241.418 238.364C242.131 241.778 239.918 245.119 236.51 245.82C236.077 245.909 235.655 245.949 235.236 245.948Z" fill="#2B3990"/>
<path fill-rule="evenodd" clip-rule="evenodd" d="M354.013 370.989C352.119 370.989 350.235 370.14 348.998 368.519C346.867 365.752 347.393 361.788 350.156 359.664C353.75 356.909 357.288 353.782 360.696 350.369C363.159 347.898 367.156 347.895 369.629 350.36C372.105 352.823 372.103 356.823 369.643 359.293C365.841 363.096 361.88 366.593 357.853 369.685C356.695 370.563 355.354 370.99 354.013 370.989Z" fill="#2B3990"/>
<path fill-rule="evenodd" clip-rule="evenodd" d="M383.647 338.206C382.462 338.206 381.249 337.867 380.17 337.157C377.263 335.233 376.46 331.317 378.381 328.406C382.818 321.698 387.052 314.249 390.96 306.266C392.502 303.132 396.275 301.838 399.408 303.371C402.541 304.905 403.842 308.688 402.302 311.821C398.159 320.289 393.657 328.212 388.92 335.372C387.711 337.208 385.697 338.206 383.647 338.206Z" fill="#2B3990"/>
<path fill-rule="evenodd" clip-rule="evenodd" d="M406.5 292.418C405.763 292.418 404.998 292.287 404.273 292.011C401.011 290.779 399.353 287.138 400.589 283.873C403.353 276.519 405.931 268.761 408.247 260.813C409.224 257.463 412.721 255.537 416.076 256.51C419.42 257.482 421.352 260.987 420.379 264.337C417.972 272.597 415.3 280.67 412.405 288.33C411.459 290.859 409.05 292.419 406.5 292.418Z" fill="#2B3990"/>
<path fill-rule="evenodd" clip-rule="evenodd" d="M420.129 245.949C419.708 245.949 419.272 245.909 418.851 245.821C415.43 245.119 413.233 241.78 413.93 238.365C414.654 234.811 415.851 228.605 417.483 219.917C418.127 216.487 421.417 214.23 424.851 214.873C428.288 215.516 430.548 218.817 429.904 222.246C428.261 231.003 427.048 237.281 426.298 240.902C425.694 243.892 423.061 245.95 420.129 245.949Z" fill="#2B3990"/>
<path fill-rule="evenodd" clip-rule="evenodd" d="M391.421 205.009C390.344 205.009 389.263 204.738 388.263 204.164C380.515 199.691 372.249 196.073 363.684 193.411C360.356 192.373 358.499 188.835 359.539 185.503C360.567 182.173 364.105 180.314 367.447 181.349C376.897 184.288 386.026 188.283 394.579 193.222C397.606 194.964 398.645 198.827 396.895 201.849C395.726 203.875 393.605 205.01 391.421 205.009Z" fill="#2B3990"/>
<path fill-rule="evenodd" clip-rule="evenodd" d="M339.075 188.451C338.891 188.451 338.693 188.444 338.509 188.427C331.324 187.781 324.035 187.783 316.851 188.426C313.365 188.735 310.298 186.172 309.995 182.698C309.679 179.223 312.245 176.154 315.718 175.845C323.653 175.132 331.706 175.135 339.627 175.845C343.101 176.156 345.667 179.226 345.364 182.699C345.061 185.982 342.311 188.452 339.075 188.451Z" fill="#2B3990"/>
<path fill-rule="evenodd" clip-rule="evenodd" d="M263.932 205.008C261.762 205.008 259.628 203.875 258.457 201.849C256.723 198.825 257.76 194.964 260.773 193.221C269.353 188.274 278.484 184.28 287.918 181.346C291.249 180.309 294.787 182.17 295.826 185.501C296.854 188.83 294.997 192.372 291.668 193.408C283.117 196.064 274.852 199.683 267.089 204.163C266.091 204.736 265.01 205.009 263.932 205.008Z" fill="#2B3990"/>
<path fill-rule="evenodd" clip-rule="evenodd" d="M514.304 367.333L489.264 381.671C488.829 381.92 488.645 382.297 488.579 382.568C488.5 382.841 488.474 383.254 488.724 383.686L540.002 471.761C540.423 472.485 541.435 472.756 542.159 472.338L567.201 458.001C567.633 457.752 567.817 457.376 567.883 457.103C567.962 456.831 567.988 456.417 567.738 455.985L516.463 367.91C516.043 367.187 515.042 366.917 514.304 367.333ZM541.408 485.169C536.503 485.169 531.711 482.637 529.08 478.117L477.804 390.042C475.909 386.774 475.395 382.96 476.368 379.3C477.357 375.639 479.697 372.589 482.987 370.71L508.028 356.371C514.778 352.501 523.461 354.83 527.382 361.555L578.661 449.629C580.556 452.898 581.067 456.714 580.093 460.373C579.108 464.032 576.764 467.084 573.475 468.962L548.437 483.3C546.225 484.567 543.804 485.169 541.408 485.169Z" fill="#2B3990"/>
<path fill-rule="evenodd" clip-rule="evenodd" d="M486.134 382.508C483.964 382.508 481.844 381.384 480.673 379.369L426.609 286.506C425.753 285.051 425.527 283.32 425.962 281.694C426.399 280.068 427.462 278.683 428.923 277.848C445.725 268.223 467.33 274.013 477.081 290.753L516.636 358.673C518.386 361.689 517.358 365.556 514.344 367.31C511.334 369.064 507.463 368.046 505.713 365.03L466.162 297.107C461.016 288.252 450.686 284.164 441.172 286.437L491.581 373.012C493.346 376.027 492.317 379.894 489.305 381.649C488.307 382.231 487.212 382.508 486.134 382.508Z" fill="#2B3990"/>
</svg>
