<svg width="64" height="64" viewBox="0 0 64 64" fill="none" xmlns="http://www.w3.org/2000/svg">
<path d="M39.8527 48.5464C41.1157 48.5464 42.3016 48.2884 43.3026 47.7384C45.2346 46.6774 46.2666 44.9104 46.5316 44.0964L46.5436 44.1004C46.8296 43.3004 46.9486 42.4494 46.8976 41.5714C46.8836 41.3304 46.9917 41.1134 47.1807 41.0054L49.4396 39.7124C49.9836 39.4014 50.3276 38.8414 50.3576 38.2144L50.4837 35.5974L50.5197 34.8524C50.5477 34.2704 50.3136 33.7164 49.8766 33.3314C49.4406 32.9464 48.8636 32.7834 48.2876 32.8834C48.2876 32.8834 48.2857 32.8834 48.2847 32.8834L47.7036 32.9864C46.8546 33.1304 46.2087 33.8294 46.1307 34.6814L46.0147 35.8634L42.7027 37.0304C42.5297 36.7104 42.2757 36.4314 41.9437 36.2454C41.4827 35.9874 40.9286 35.9254 40.4266 36.0784C39.9166 36.2314 39.5016 36.5754 39.2586 37.0464C38.6256 38.2674 37.4697 39.0194 36.4217 38.8794C36.2897 38.8614 36.1657 38.8254 36.0467 38.7824C37.7907 38.0614 39.1726 36.6344 39.7246 34.8414C40.6076 31.9704 39.2617 28.6864 36.7227 27.5214C34.2277 26.3734 31.2997 27.6464 29.6387 29.3134C26.1487 32.8144 26.9777 39.4284 29.9427 43.4084C32.3117 46.5894 36.3717 48.5474 39.8517 48.5474L39.8527 48.5464ZM31.0557 30.7244C32.0477 29.7304 34.1527 28.5404 35.8897 29.3374C37.5217 30.0874 38.4037 32.3374 37.8137 34.2524C37.2987 35.9264 35.7057 37.1444 33.8487 37.2834C33.8267 37.2854 33.8096 37.2974 33.7886 37.3004C33.7216 37.3094 33.6586 37.3314 33.5936 37.3554C33.5306 37.3784 33.4686 37.3994 33.4126 37.4334C33.3946 37.4444 33.3727 37.4464 33.3547 37.4584C33.3207 37.4824 33.3017 37.5174 33.2717 37.5454C33.2197 37.5914 33.1707 37.6374 33.1297 37.6934C33.0907 37.7464 33.0627 37.8004 33.0357 37.8594C33.0087 37.9164 32.9836 37.9704 32.9676 38.0324C32.9496 38.1004 32.9447 38.1674 32.9417 38.2384C32.9397 38.2784 32.9236 38.3154 32.9266 38.3564C32.9286 38.3774 32.9407 38.3954 32.9437 38.4164C32.9527 38.4864 32.9767 38.5504 33.0007 38.6174C33.0227 38.6764 33.0417 38.7344 33.0737 38.7874C33.0857 38.8074 33.0876 38.8314 33.1006 38.8514C33.4666 39.3804 34.4967 40.6354 36.1517 40.8624C38.0477 41.1244 40.0056 39.9584 40.9476 37.9324C40.8216 38.7194 40.5377 39.4444 40.1047 40.0884C39.7187 40.6634 39.2286 41.1534 38.6476 41.5454C38.1896 41.8544 38.0696 42.4764 38.3776 42.9334C38.5706 43.2204 38.8867 43.3744 39.2077 43.3744C39.3997 43.3744 39.5946 43.3194 39.7666 43.2034C40.5616 42.6664 41.2347 41.9944 41.7647 41.2034C42.1907 40.5704 42.5047 39.8804 42.7157 39.1484L46.8197 37.7014C47.4757 37.4724 47.9357 36.8774 47.9907 36.2014L48.1136 34.9464L48.5147 34.8754L48.4847 35.5014L48.3636 38.0234L46.1867 39.2694C45.3327 39.7574 44.8407 40.6844 44.9007 41.6884C44.9357 42.2944 44.8556 42.8784 44.6616 43.4224C44.6396 43.4814 44.0167 45.0634 42.3397 45.9844C39.4267 47.5854 34.1827 45.7494 31.5467 42.2124C29.1317 38.9684 28.3357 33.4534 31.0557 30.7244Z" fill="#2B3990"/>
<path d="M25.8317 26.822C23.0207 30.362 21.6997 34.759 22.2087 38.887C22.9967 45.168 27.8027 50.606 34.4527 52.741C35.2257 52.99 35.7467 53.677 35.7467 54.45V61C35.7467 61.552 36.1937 62 36.7467 62H51.3647C51.6387 62 51.9017 61.887 52.0917 61.688C56.6627 56.856 59.0287 51.853 59.1217 46.817C59.2067 42.368 57.5157 39.563 55.8797 36.851C54.2487 34.149 52.7097 31.596 52.9857 27.403C53.1487 24.906 53.8687 23.191 54.7017 21.205C55.7577 18.687 56.9547 15.834 57.4227 10.714C57.6617 8.13698 57.6617 5.51098 57.4227 2.90898C57.3747 2.39398 56.9437 2.00098 56.4267 2.00098H45.8877C45.3587 2.00098 44.9207 2.41398 44.8897 2.94198C44.7657 5.03398 44.1807 6.76798 43.1517 8.09498C42.3397 9.14098 41.3997 9.75698 40.4907 10.352C39.2997 11.132 38.0667 11.939 37.3237 13.588C36.5177 15.37 36.5637 17.512 37.4547 19.967C32.8197 20.771 28.7297 23.174 25.8327 26.823L25.8317 26.822ZM38.9737 21.772C39.2937 21.738 39.5777 21.552 39.7377 21.273C39.8977 20.994 39.9117 20.655 39.7777 20.362C38.6707 17.937 38.4577 15.934 39.1467 14.41C39.6507 13.292 40.5037 12.733 41.5857 12.025C42.5837 11.372 43.7147 10.631 44.7317 9.31998C45.8487 7.87998 46.5437 6.09298 46.8007 3.99998H55.5037C55.6557 6.18198 55.6317 8.37298 55.4307 10.53C54.9917 15.344 53.8587 18.047 52.8577 20.431C51.9927 22.493 51.1757 24.441 50.9907 27.271C50.6737 32.091 52.4497 35.036 54.1677 37.883C55.7257 40.466 57.1967 42.906 57.1227 46.779C57.0407 51.196 54.9587 55.642 50.9327 60H37.7477V54.45C37.7477 52.804 36.6697 51.353 35.0647 50.837C29.1517 48.939 24.8847 44.15 24.1937 38.64C23.7517 35.042 24.9197 31.188 27.3987 28.065C30.2287 24.5 34.3397 22.266 38.9737 21.772Z" fill="#2B3990"/>
<path d="M25.959 14.6178C23.865 12.5228 20.789 11.7568 17.971 12.5458L11.684 6.2588C10.127 4.7028 7.596 4.7028 6.041 6.2588C5.289 7.0098 4.875 8.0118 4.875 9.0798C4.875 10.1478 5.289 11.1498 6.041 11.9008L12.329 18.1888C11.541 21.0118 12.307 24.0828 14.399 26.1758L17.358 29.1338C17.553 29.3288 17.809 29.4268 18.065 29.4268C18.321 29.4268 18.577 29.3288 18.772 29.1338L28.917 18.9888C29.308 18.5978 29.308 17.9658 28.917 17.5748L25.959 14.6168V14.6178ZM6.875 9.0808C6.875 8.5468 7.081 8.0478 7.455 7.6738C7.843 7.2858 8.352 7.0918 8.862 7.0918C9.372 7.0918 9.882 7.2858 10.269 7.6738L15.972 13.3768C15.941 13.3948 15.914 13.4188 15.883 13.4378C15.702 13.5498 15.529 13.6728 15.356 13.7988C15.273 13.8598 15.187 13.9138 15.106 13.9778C14.857 14.1748 14.616 14.3838 14.391 14.6098C14.166 14.8358 13.955 15.0768 13.758 15.3258C13.696 15.4038 13.643 15.4878 13.584 15.5688C13.455 15.7448 13.33 15.9208 13.216 16.1048C13.198 16.1338 13.175 16.1608 13.157 16.1908L7.454 10.4878C7.08 10.1138 6.875 9.6138 6.875 9.0808ZM18.065 27.0148L15.813 24.7638C14.113 23.0628 13.553 20.5038 14.393 18.2348C14.681 17.4238 15.17 16.6598 15.805 16.0248C16.44 15.3898 17.204 14.9018 18.026 14.6078C18.722 14.3508 19.446 14.2258 20.166 14.2258C21.78 14.2258 23.368 14.8558 24.545 16.0328L26.796 18.2838L18.065 27.0148Z" fill="#2B3990"/>
</svg>
