<svg width="512" height="512" viewBox="0 0 512 512" fill="none" xmlns="http://www.w3.org/2000/svg">
<path d="M72.7179 450.754C70.5468 450.754 68.3756 450.754 66.1397 450.721C50.2612 450.559 35.3873 444.24 24.2723 432.931C13.125 421.621 7.03284 406.683 7.13005 390.804C7.32448 354.511 11.4075 300.653 29.8784 250.101C51.687 190.379 88.1427 148.998 138.241 127.157C146.731 123.462 155.48 121.68 164.262 121.842C178.877 122.134 191.288 127.61 200.167 137.656C214.036 153.34 219.156 179.75 215.397 216.238C214.944 220.516 211.152 223.626 206.875 223.173C202.597 222.719 199.487 218.928 199.94 214.65C201.755 197.184 201.366 182.342 198.838 170.515C196.797 160.955 193.33 153.372 188.534 147.961C182.506 141.156 174.243 137.591 163.971 137.397C157.425 137.267 150.879 138.628 144.463 141.415C39.4055 187.203 23.0733 317.407 22.6845 390.901C22.5549 415.043 42.1275 434.907 66.3341 435.167C115.201 435.685 143.815 429.949 159.239 425.024C173.141 420.584 183.9 409.632 188.048 395.73C201.982 349.066 201.107 275.863 201.107 275.151C201.042 270.841 204.477 267.308 208.754 267.276C213.032 267.211 216.596 270.646 216.629 274.924C216.661 278.002 217.569 351.238 202.921 400.202C197.283 419.029 182.733 433.838 163.938 439.833C141.255 447.092 110.599 450.754 72.7179 450.754Z" fill="#2B3990"/>
<path d="M439.284 450.754C401.402 450.754 370.747 447.092 348.063 439.833C329.268 433.838 314.718 418.997 309.08 400.202C294.433 351.238 295.34 278.035 295.373 274.924C295.437 270.679 298.905 267.276 303.15 267.276H303.28C307.589 267.341 310.992 270.873 310.927 275.151C310.927 275.928 310.02 349.099 323.986 395.73C328.134 409.632 338.925 420.585 352.794 425.024C368.187 429.95 396.801 435.718 445.7 435.167C469.906 434.908 489.479 415.043 489.349 390.902C488.961 317.375 472.628 187.203 367.571 141.383C361.155 138.596 354.609 137.235 348.063 137.364C337.791 137.559 329.495 141.123 323.5 147.928C318.704 153.34 315.237 160.923 313.195 170.482C310.668 182.278 310.279 197.152 312.094 214.618C312.547 218.895 309.436 222.719 305.159 223.141C300.882 223.594 297.058 220.483 296.636 216.206C292.877 179.75 297.997 153.308 311.867 137.624C320.746 127.578 333.189 122.102 347.772 121.81C356.586 121.648 365.335 123.43 373.793 127.124C423.891 148.965 460.347 190.347 482.155 250.102C500.594 300.653 504.709 354.511 504.904 390.804C505.001 406.683 498.909 421.622 487.762 432.931C476.614 444.208 461.74 450.527 445.894 450.721C443.626 450.754 441.455 450.754 439.284 450.754Z" fill="#2B3990"/>
<path d="M161.15 357.492C157.197 357.492 153.794 354.478 153.405 350.46C153.211 348.418 148.707 299.778 160.47 261.767C161.734 257.652 166.108 255.384 170.191 256.647C174.307 257.911 176.575 262.286 175.311 266.369C164.488 301.366 168.83 348.516 168.863 348.969C169.284 353.247 166.141 357.038 161.863 357.459C161.636 357.492 161.377 357.492 161.15 357.492Z" fill="#2B3990"/>
<path d="M136.426 287.27C95.6602 287.27 66.6901 271.878 65.4263 271.197C61.6349 269.156 60.2415 264.425 62.283 260.666C64.3245 256.874 69.0232 255.481 72.8146 257.522C73.3007 257.781 102.951 273.336 142.712 271.618C146.99 271.424 150.619 274.762 150.814 279.039C151.008 283.317 147.67 286.946 143.393 287.14C141.027 287.205 138.727 287.27 136.426 287.27Z" fill="#2B3990"/>
<path d="M72.4243 399.846C69.9291 399.846 67.4663 398.647 65.9757 396.411C63.5777 392.846 64.5174 388.018 68.082 385.62C90.4091 370.616 102.723 349.067 109.107 333.642C117.208 314.134 118.342 298.936 117.597 294.983C116.819 290.77 119.606 286.687 123.819 285.909C128.031 285.132 132.114 287.919 132.892 292.131C134.415 300.362 132.114 318.736 123.462 339.572C116.236 356.974 102.269 381.342 76.7341 398.517C75.4379 399.424 73.9149 399.846 72.4243 399.846Z" fill="#2B3990"/>
<path d="M430.566 340.447C428.395 340.447 426.224 339.54 424.668 337.757C392.134 300.2 347.382 273.466 315.593 257.652C286.752 243.329 263.194 235.195 256 232.83C248.774 235.195 225.021 243.394 196.115 257.782C164.391 273.563 119.769 300.265 87.2993 337.757C84.48 340.998 79.5869 341.354 76.3139 338.535C73.0734 335.716 72.717 330.823 75.5362 327.55C90.7018 310.051 109.497 293.362 131.467 277.905C148.934 265.624 168.442 254.12 189.472 243.685C225.215 225.96 252.597 217.567 253.732 217.21C255.19 216.757 256.778 216.757 258.236 217.21C259.37 217.567 286.752 225.96 322.495 243.718C343.494 254.152 363.002 265.656 380.468 277.937C402.438 293.362 421.266 310.051 436.399 327.582C439.218 330.823 438.862 335.748 435.621 338.567C434.195 339.831 432.381 340.447 430.566 340.447Z" fill="#2B3990"/>
<path d="M350.849 357.492C350.589 357.492 350.363 357.492 350.103 357.46C345.826 357.038 342.683 353.247 343.104 348.97C343.136 348.516 347.511 301.366 336.655 266.369C335.392 262.254 337.692 257.911 341.775 256.647C345.891 255.384 350.233 257.684 351.497 261.767C363.26 299.779 358.756 348.419 358.561 350.46C358.205 354.478 354.802 357.492 350.849 357.492Z" fill="#2B3990"/>
<path d="M375.574 287.27C373.306 287.27 370.973 287.237 368.64 287.108C364.362 286.913 361.025 283.284 361.219 279.006C361.413 274.729 365.043 271.391 369.32 271.586C409.211 273.303 438.926 257.651 439.218 257.489C443.009 255.448 447.708 256.874 449.75 260.665C451.791 264.457 450.365 269.155 446.606 271.197C445.31 271.845 416.308 287.27 375.574 287.27Z" fill="#2B3990"/>
<path d="M439.574 399.846C438.083 399.846 436.56 399.424 435.231 398.517C409.696 381.342 395.73 356.974 388.503 339.572C379.851 318.736 377.55 300.362 379.073 292.131C379.851 287.919 383.902 285.099 388.147 285.909C392.36 286.687 395.146 290.738 394.369 294.983C393.656 298.936 394.757 314.134 402.859 333.642C409.275 349.067 421.589 370.616 443.884 385.62C447.448 388.018 448.388 392.846 445.99 396.411C444.532 398.647 442.069 399.846 439.574 399.846Z" fill="#2B3990"/>
<path d="M256 232.441C251.69 232.441 248.223 228.974 248.223 224.664V69.0223C248.223 64.7125 251.69 61.2451 256 61.2451C260.31 61.2451 263.777 64.7125 263.777 69.0223V224.664C263.777 228.941 260.31 232.441 256 232.441Z" fill="#2B3990"/>
</svg>
