<svg width="512" height="512" viewBox="0 0 512 512" fill="none" xmlns="http://www.w3.org/2000/svg">
<path d="M485.053 290.235C485.938 287.125 486.442 283.92 486.553 280.689C487.121 267.189 481.812 252.116 468.724 250.93L440.35 248.73C438.213 237.751 428.633 229.288 416.002 227.877L323.202 217.628V213.35C323.186 200.471 318.811 187.976 310.789 177.901C302.768 167.825 291.572 160.761 279.024 157.86C283.959 153.375 287.902 147.908 290.599 141.809C293.296 135.71 294.688 129.115 294.686 122.447V83.6706C294.676 75.2299 291.319 67.1377 285.349 61.1701C279.38 55.2024 271.287 51.8468 262.846 51.8396H230.532C222.093 51.8489 214.002 55.2055 208.034 61.1729C202.066 67.1403 198.71 75.2313 198.7 83.6706V122.448C198.698 129.116 200.09 135.711 202.788 141.81C205.485 147.909 209.428 153.376 214.363 157.861C201.815 160.762 190.619 167.826 182.598 177.902C174.576 187.977 170.201 200.472 170.185 213.351V229.665C167.8 230.202 165.464 230.938 163.202 231.865C163.259 230.954 163.297 230.038 163.297 229.112C163.305 221.897 161.547 214.79 158.177 208.411C154.807 202.031 149.928 196.574 143.964 192.513C138 188.453 131.134 185.914 123.963 185.117C116.793 184.319 109.536 185.289 102.826 187.941C96.1165 190.592 90.1575 194.845 85.469 200.329C80.7805 205.812 77.505 212.36 75.9281 219.4C74.3513 226.44 74.521 233.759 76.4224 240.719C78.3239 247.679 81.8994 254.067 86.837 259.328H74.775C69.4396 259.334 64.3244 261.456 60.5516 265.228C56.7787 269.001 54.6564 274.116 54.65 279.452V290.223H52.439C45.1756 290.227 38.2107 293.113 33.0721 298.246C27.9335 303.379 25.0409 310.341 25.029 317.605V338.014C25.029 339.87 25.7665 341.651 27.0793 342.963C28.392 344.276 30.1725 345.014 32.029 345.014H54.423V348.046C54.432 356.222 57.684 364.061 63.4654 369.843C69.2469 375.624 77.0857 378.876 85.262 378.886H89.8V474.919C89.8042 478.744 91.3257 482.411 94.0305 485.116C96.7354 487.821 100.403 489.342 104.228 489.347H123.247C127.072 489.342 130.739 487.821 133.444 485.116C136.149 482.411 137.671 478.744 137.675 474.919V378.888H399.328V474.921C399.333 478.746 400.854 482.413 403.559 485.118C406.264 487.823 409.931 489.344 413.756 489.349H432.8C436.625 489.344 440.292 487.823 442.997 485.118C445.701 482.413 447.223 478.746 447.227 474.921V378.888H451.734C459.914 378.882 467.758 375.632 473.545 369.85C479.332 364.069 482.589 356.228 482.602 348.048V345.016H505C506.857 345.016 508.637 344.278 509.95 342.965C511.262 341.653 512 339.872 512 338.016V317.605C511.987 310.422 509.158 303.532 504.119 298.414C499.08 293.296 492.234 290.359 485.053 290.235ZM440.8 262.81L467.549 264.882C469.168 265.03 471.002 268.132 471.911 272.261C473.852 281.083 471.326 288.911 469.674 290.084C469.274 290.096 468.876 290.143 468.484 290.223H440.8V262.81ZM414.455 241.794C420.399 242.458 426.798 246.375 426.798 253.403V331.012H221.8V232.852C221.759 231.286 222.07 229.731 222.708 228.301C223.347 226.871 224.297 225.602 225.49 224.587C226.666 223.521 228.062 222.727 229.579 222.262C231.096 221.798 232.697 221.673 234.268 221.897L414.455 241.794ZM212.7 83.6706C212.706 78.9439 214.586 74.4124 217.928 71.0701C221.271 67.7279 225.802 65.8479 230.529 65.8426H262.843C267.57 65.8479 272.101 67.7279 275.444 71.0701C278.786 74.4124 280.666 78.9439 280.672 83.6706V88.7996H212.7V83.6706ZM212.7 122.448V102.805H280.672V122.448C280.672 131.461 277.091 140.106 270.718 146.479C264.344 152.853 255.7 156.434 246.686 156.434C237.672 156.434 229.028 152.853 222.654 146.479C216.281 140.106 212.7 131.461 212.7 122.448ZM184.184 213.348C184.194 201.967 188.718 191.054 196.764 183.005C204.809 174.955 215.719 170.425 227.1 170.409H266.273C277.654 170.425 288.565 174.955 296.61 183.006C304.655 191.056 309.179 201.969 309.188 213.351V216.083L235.813 207.983C232.3 207.54 228.733 207.857 225.353 208.912C221.973 209.966 218.858 211.734 216.22 214.096C211.36 218.306 208.366 224.269 207.891 230.682L193.847 229.591C190.657 228.99 187.428 228.622 184.185 228.491L184.184 213.348ZM158.309 252.538C164.862 243.906 176.988 240.579 191.582 243.408C191.843 243.458 192.107 243.493 192.372 243.515L207.796 244.715V290.222H184.773C170.987 290.201 160.512 285.04 156.002 276.022C154.174 272.278 153.422 268.1 153.83 263.954C154.238 259.808 155.79 255.856 158.312 252.541L158.309 252.538ZM119.078 198.9C125.054 198.9 130.896 200.672 135.865 203.992C140.834 207.312 144.707 212.031 146.994 217.553C149.281 223.074 149.879 229.149 148.713 235.011C147.547 240.872 144.669 246.256 140.444 250.482C136.218 254.708 130.834 257.585 124.972 258.751C119.111 259.917 113.035 259.318 107.514 257.031C101.993 254.744 97.2739 250.871 93.9538 245.902C90.6338 240.933 88.8618 235.091 88.862 229.115C88.8713 221.104 92.0577 213.424 97.7224 207.759C103.387 202.095 111.067 198.909 119.078 198.9ZM68.652 279.452C68.6722 277.834 69.3239 276.289 70.4678 275.145C71.6118 274.001 73.1575 273.35 74.775 273.33H140.437C141.045 276.438 142.068 279.451 143.479 282.288C144.923 285.164 146.747 287.832 148.902 290.223H68.652V279.452ZM39.031 331.012V317.605C39.0389 314.054 40.455 310.651 42.9686 308.143C45.4822 305.635 48.8881 304.226 52.439 304.226H207.8V331.012H39.031ZM123.67 474.921C123.663 475.031 123.616 475.135 123.538 475.214C123.46 475.292 123.355 475.339 123.245 475.346H104.226C104.115 475.339 104.011 475.292 103.932 475.214C103.854 475.136 103.807 475.031 103.8 474.921V378.888H123.67V474.921ZM433.229 474.921C433.222 475.031 433.175 475.135 433.097 475.214C433.019 475.292 432.914 475.339 432.804 475.346H413.756C413.645 475.339 413.541 475.292 413.462 475.214C413.384 475.136 413.337 475.031 413.33 474.921V378.888H433.23L433.229 474.921ZM468.6 348.048C468.591 352.515 466.81 356.797 463.648 359.953C460.487 363.11 456.202 364.883 451.734 364.885H85.262C80.7982 364.879 76.5187 363.104 73.3623 359.947C70.2059 356.791 68.4303 352.511 68.425 348.048V345.016H468.6V348.048ZM498 331.012H440.8V304.226H484.594C488.145 304.226 491.55 305.635 494.063 308.143C496.576 310.652 497.992 314.054 498 317.605V331.012ZM505 32.5646H320.443C318.586 32.5646 316.806 33.3021 315.493 34.6149C314.181 35.9276 313.443 37.7081 313.443 39.5646V156.462C313.443 158.318 314.181 160.099 315.493 161.411C316.806 162.724 318.586 163.462 320.443 163.462H505C506.857 163.462 508.637 162.724 509.95 161.411C511.262 160.099 512 158.318 512 156.462V39.5666C512 38.6472 511.819 37.7367 511.468 36.8872C511.116 36.0377 510.6 35.2658 509.95 34.6156C509.3 33.9654 508.529 33.4496 507.679 33.0977C506.83 32.7458 505.919 32.5646 505 32.5646ZM498 149.465H327.444V46.5676H498V149.465ZM334.389 109.693C334.389 107.836 335.126 106.056 336.439 104.743C337.752 103.43 339.532 102.693 341.389 102.693H364.632C366.489 102.693 368.269 103.43 369.582 104.743C370.895 106.056 371.632 107.836 371.632 109.693C371.632 111.549 370.895 113.33 369.582 114.642C368.269 115.955 366.489 116.693 364.632 116.693H341.39C340.471 116.693 339.56 116.512 338.711 116.16C337.862 115.808 337.09 115.293 336.44 114.643C335.789 113.993 335.274 113.221 334.922 112.372C334.57 111.522 334.389 110.612 334.389 109.693ZM334.389 133.021C334.389 131.164 335.126 129.384 336.439 128.071C337.752 126.758 339.532 126.021 341.389 126.021H364.632C366.489 126.021 368.269 126.758 369.582 128.071C370.895 129.384 371.632 131.164 371.632 133.021C371.632 134.877 370.895 136.658 369.582 137.97C368.269 139.283 366.489 140.021 364.632 140.021H341.39C340.471 140.021 339.56 139.84 338.711 139.488C337.862 139.136 337.09 138.621 336.44 137.971C335.789 137.321 335.274 136.549 334.922 135.7C334.57 134.85 334.389 133.94 334.389 133.021ZM68.53 72.5596L34.307 106.784C30.602 110.498 28.5213 115.53 28.5213 120.776C28.5213 126.022 30.602 131.054 34.307 134.769L38.625 139.087L34.137 143.575C33.4859 144.225 32.9696 144.998 32.6176 145.849C32.2656 146.699 32.0847 147.611 32.0855 148.531C32.0862 149.452 32.2685 150.363 32.6219 151.213C32.9753 152.063 33.4929 152.835 34.145 153.485L43.477 162.785C45.3474 164.673 47.5752 166.171 50.0303 167.19C52.4855 168.208 55.1189 168.728 57.777 168.719C62.8439 168.731 67.7267 166.82 71.439 163.372L77.699 169.631C78.8424 170.774 80.2004 171.68 81.695 172.296C83.1896 172.913 84.7912 173.228 86.408 173.224C89.691 173.226 92.8422 171.933 95.176 169.624L104.234 160.537C105.389 159.392 106.307 158.03 106.935 156.53C107.562 155.03 107.887 153.42 107.89 151.794C107.893 150.167 107.574 148.556 106.952 147.053C106.331 145.551 105.418 144.186 104.267 143.037L98.05 136.82L107.069 127.801L113.301 134.032C114.444 135.175 115.802 136.08 117.297 136.697C118.792 137.313 120.393 137.628 122.01 137.624C125.293 137.626 128.444 136.333 130.778 134.024L139.835 124.938C140.991 123.793 141.909 122.432 142.536 120.931C143.164 119.431 143.488 117.821 143.492 116.195C143.495 114.568 143.176 112.957 142.555 111.455C141.933 109.952 141.02 108.587 139.869 107.438L133.652 101.22L142.685 92.1866L148.869 98.3706C150.006 99.5285 151.362 100.448 152.859 101.076C154.355 101.704 155.961 102.028 157.584 102.029H157.628C159.253 102.033 160.862 101.715 162.363 101.093C163.864 100.471 165.227 99.557 166.372 98.4046L175.472 89.3046C176.621 88.1584 177.532 86.7969 178.154 85.298C178.776 83.7992 179.096 82.1924 179.096 80.5696C179.096 78.9469 178.776 77.3401 178.154 75.8412C177.532 74.3424 176.621 72.9809 175.472 71.8346L169.227 65.5896C172.767 61.7617 174.688 56.7113 174.585 51.4981C174.482 46.2849 172.365 41.3141 168.676 37.6286L159.35 28.2756C158.7 27.624 157.929 27.1068 157.079 26.7536C156.229 26.4005 155.318 26.2184 154.398 26.2176C152.541 26.2178 150.76 26.9551 149.447 28.2676L144.959 32.7566L140.64 28.4376C136.926 24.7329 131.894 22.6523 126.647 22.6523C121.401 22.6523 116.369 24.7329 112.655 28.4376L78.431 62.6586L50.955 35.1816C50.3042 34.5311 49.5317 34.0152 48.6815 33.6633C47.8313 33.3114 46.9201 33.1304 46 33.1306H7C5.14348 33.1306 3.36301 33.8681 2.05025 35.1809C0.737498 36.4936 0 38.2741 0 40.1306C0 41.9872 0.737498 43.7676 2.05025 45.0804C3.36301 46.3931 5.14348 47.1306 7 47.1306H43.1L68.53 72.5596ZM86.437 158.56L81.374 153.5L88.154 146.72L93.206 151.773L86.437 158.56ZM122.037 122.96L116.974 117.896L123.753 111.117L128.806 116.17L122.037 122.96ZM157.637 87.3316L152.586 82.2806L159.352 75.5146L164.403 80.5656L157.637 87.3316ZM154.384 43.1236L158.784 47.5316C159.94 48.6948 160.589 50.2681 160.589 51.9081C160.589 53.5481 159.94 55.1215 158.784 56.2846L158.771 56.2966L154.41 60.6576L62.157 152.913C61.5798 153.488 60.895 153.943 60.1417 154.253C59.3884 154.563 58.5813 154.722 57.7666 154.72C56.952 154.718 56.1457 154.556 55.3939 154.242C54.642 153.928 53.9594 153.469 53.385 152.892L49 148.518L154.384 43.1236ZM122.55 38.3356C123.643 37.2652 125.112 36.6656 126.642 36.6656C128.171 36.6656 129.64 37.2652 130.733 38.3356L135.051 42.6536L48.527 129.185L44.209 124.868C43.1425 123.773 42.5457 122.305 42.5457 120.776C42.5457 119.248 43.1425 117.78 44.209 116.685L122.55 38.3356ZM380.558 109.691C380.558 107.834 381.295 106.054 382.608 104.741C383.921 103.428 385.701 102.691 387.558 102.691H401.5L410.609 84.0046C411.22 82.7492 412.193 81.7053 413.403 81.0072C414.612 80.3091 416.003 79.9886 417.396 80.087C418.788 80.1854 420.12 80.6981 421.219 81.5593C422.319 82.4205 423.135 83.5907 423.564 84.9196L431.681 110.029L436.559 94.5996C436.996 93.2152 437.853 92.001 439.011 91.1252C440.169 90.2494 441.571 89.7553 443.022 89.7113C444.473 89.6674 445.902 90.0758 447.111 90.8799C448.32 91.6841 449.249 92.8442 449.769 94.1996L456.869 112.66L457.142 112.339C457.799 111.564 458.617 110.941 459.539 110.514C460.461 110.087 461.465 109.866 462.481 109.866H484.052C485.909 109.866 487.689 110.603 489.002 111.916C490.314 113.229 491.052 115.009 491.052 116.866C491.052 118.722 490.314 120.503 489.002 121.815C487.689 123.128 485.909 123.866 484.052 123.866H465.724L459.912 130.718C459.126 131.645 458.113 132.351 456.971 132.768C455.829 133.184 454.599 133.296 453.401 133.093C452.203 132.89 451.078 132.378 450.138 131.608C449.198 130.838 448.474 129.837 448.038 128.703L443.88 117.893L438.43 135.131C437.983 136.546 437.097 137.782 435.901 138.662C434.706 139.541 433.261 140.017 431.777 140.022H431.755C430.275 140.022 428.832 139.553 427.635 138.682C426.438 137.811 425.548 136.582 425.093 135.174L415.583 105.756L412.169 112.756C411.594 113.935 410.699 114.929 409.587 115.625C408.474 116.32 407.188 116.689 405.876 116.689H387.564C385.708 116.689 383.928 115.952 382.615 114.64C381.302 113.328 380.564 111.549 380.563 109.693L380.558 109.691ZM334.389 63.0076C334.389 61.1511 335.126 59.3706 336.439 58.0579C337.752 56.7451 339.532 56.0076 341.389 56.0076H364.632C366.489 56.0076 368.269 56.7451 369.582 58.0579C370.895 59.3706 371.632 61.1511 371.632 63.0076C371.632 64.8642 370.895 66.6446 369.582 67.9574C368.269 69.2701 366.489 70.0076 364.632 70.0076H341.39C340.471 70.0078 339.56 69.8268 338.711 69.4751C337.862 69.1234 337.09 68.6078 336.44 67.9577C335.789 67.3077 335.274 66.536 334.922 65.6867C334.57 64.8373 334.389 63.927 334.389 63.0076ZM334.389 86.3356C334.389 84.4791 335.126 82.6986 336.439 81.3859C337.752 80.0731 339.532 79.3356 341.389 79.3356H364.632C366.489 79.3356 368.269 80.0731 369.582 81.3859C370.895 82.6986 371.632 84.4791 371.632 86.3356C371.632 88.1922 370.895 89.9726 369.582 91.2854C368.269 92.5981 366.489 93.3356 364.632 93.3356H341.39C340.471 93.3358 339.56 93.1548 338.711 92.8031C337.862 92.4514 337.09 91.9358 336.44 91.2857C335.789 90.6357 335.274 89.864 334.922 89.0147C334.57 88.1653 334.389 87.255 334.389 86.3356Z" fill="#2B3990"/>
</svg>
