<svg width="480" height="480" viewBox="0 0 480 480" fill="none" xmlns="http://www.w3.org/2000/svg">
<path d="M204.32 179.254C201.409 160.918 191.698 144.351 177.12 132.854C181.643 123.528 183.995 113.299 184 102.934C183.997 83.9099 176.189 65.7199 162.4 52.6139C133.352 25.1639 87.928 25.1639 58.88 52.6139C21.315 88.3699 0.036 137.952 0 189.814V194.134C0.036 245.995 21.315 295.578 58.88 331.334C87.943 358.744 133.336 358.744 162.4 331.334C164.371 329.378 166.24 327.322 168 325.174V447.974H184V287.974C184 285.654 184 283.334 184 281.014C184.013 262.01 176.2 243.839 162.4 230.774C140.971 210.415 140.105 176.539 160.464 155.11C161.093 154.448 161.738 153.803 162.4 153.174C164.618 151.062 166.677 148.789 168.56 146.374C179.247 155.372 186.322 167.931 188.48 181.734L194.48 220.614C198.14 244.44 199.985 268.509 200 292.614V447.974H216V292.934C215.991 267.92 214.092 242.942 210.32 218.214L204.32 179.254ZM153.483 139.291C152.77 140.047 152.036 140.781 151.28 141.494V141.654C146.413 146.396 142.215 151.779 138.8 157.654C125.234 151.863 115.206 139.996 111.76 125.654L96 129.894C100.758 148.994 114.206 164.752 132.32 172.454C128.587 185.2 128.587 198.748 132.32 211.494C114.206 219.196 100.758 234.954 96 254.054L111.52 257.894C114.966 243.552 124.994 231.685 138.56 225.894C141.975 231.769 146.173 237.152 151.04 241.894C172.447 262.084 173.433 295.805 153.243 317.211C152.53 317.967 151.796 318.701 151.04 319.414C128.227 340.952 92.573 340.952 69.76 319.414C35.507 286.731 16.087 241.477 16 194.134V189.814C15.997 142.24 35.518 96.7499 70 63.9739C92.813 42.4359 128.467 42.4359 151.28 63.9739C172.687 84.1639 173.673 117.884 153.483 139.291Z" fill="#2B3990"/>
<path d="M421.12 52.6139C392.072 25.1639 346.648 25.1639 317.6 52.6139C303.811 65.7199 296.003 83.9099 296 102.934C296.005 113.299 298.357 123.528 302.88 132.854C288.303 144.351 278.591 160.918 275.68 179.254L269.68 218.214C265.908 242.942 264.009 267.92 264 292.934V447.974H280V292.934C280.015 268.829 281.861 244.76 285.52 220.934L291.52 182.054C293.678 168.251 300.753 155.692 311.44 146.694C313.323 149.109 315.382 151.382 317.6 153.494C339.029 173.853 339.895 207.729 319.536 229.158C318.907 229.82 318.262 230.465 317.6 231.094C303.88 244.083 296.075 262.121 296 281.014C296 283.334 296 285.654 296 287.974V447.974H312V325.174C313.76 327.322 315.629 329.378 317.6 331.334C346.663 358.744 392.056 358.744 421.12 331.334C458.685 295.578 479.964 245.995 480 194.134V189.814C479.964 137.952 458.685 88.3699 421.12 52.6139ZM464 194.134C464.003 241.708 444.482 287.198 410 319.974C387.187 341.512 351.533 341.512 328.72 319.974C307.313 299.784 306.327 266.063 326.517 244.657C327.23 243.901 327.964 243.167 328.72 242.454C333.587 237.712 337.785 232.329 341.2 226.454C354.766 232.245 364.794 244.112 368.24 258.454L384 254.054C379.242 234.954 365.794 219.196 347.68 211.494C351.413 198.748 351.413 185.2 347.68 172.454C365.794 164.752 379.242 148.994 384 129.894L368 126.054C364.554 140.396 354.526 152.263 340.96 158.054C337.545 152.179 333.347 146.796 328.48 142.054C307.073 121.864 306.087 88.1429 326.277 66.7369C326.99 65.9809 327.724 65.2469 328.48 64.5339C351.293 42.9959 386.947 42.9959 409.76 64.5339C444.19 97.1339 463.788 142.399 464 189.814V194.134Z" fill="#2B3990"/>
</svg>
