<svg width="53" height="52" viewBox="0 0 53 52" fill="none" xmlns="http://www.w3.org/2000/svg">
<path d="M2.44969 41.942L3.55977 36.5332C3.74766 35.6197 4.32962 34.9115 5.20102 34.54L8.74454 33.0259C8.75368 33.0219 8.76282 33.0189 8.77095 33.015L10.3787 32.4153L10.3766 31.3375C9.32852 30.4689 8.55665 29.18 8.25399 27.654C7.62532 27.3761 7.19063 26.7495 7.19063 26.0513C7.19063 25.7196 7.2861 25.3988 7.46384 25.1219C7.04133 22.3338 8.01735 19.5348 9.88508 18.2459C11.4887 17.1382 13.6002 17.189 15.8549 18.3823C17.0727 18.0158 17.878 18.3564 18.3493 18.724C20.1297 20.1136 19.8534 23.8838 19.7092 25.11C19.892 25.3899 19.9905 25.7156 19.9905 26.0523C19.9905 26.7505 19.5559 27.3771 18.9272 27.655C18.6245 29.184 17.8496 30.4759 16.7974 31.3445V32.4153L18.4092 33.016C18.4184 33.0189 18.4275 33.0229 18.4356 33.0269L21.8441 34.4832C21.5069 33.8218 21.255 33.0927 21.1067 32.3117C20.3602 32.0099 19.8382 31.2808 19.8382 30.465C19.8382 30.0735 19.956 29.694 20.1734 29.3703C19.6523 26.0353 20.8102 22.6815 23.0354 21.1445C24.3923 20.2082 26.7191 19.499 30.1539 21.3417C31.6001 20.8915 32.5487 21.288 33.0982 21.7173C34.2977 22.6526 34.7029 24.5203 34.7984 26.2226C34.8938 24.4595 35.5905 22.8179 36.7534 21.6047L35.553 19.6862C35.4585 19.5348 35.4372 19.3505 35.4951 19.1822C35.553 19.0139 35.684 18.8794 35.8536 18.8166L40.883 16.9191C41.0241 16.8663 41.1795 16.8663 41.3207 16.9191L46.3491 18.8146C46.5177 18.8784 46.6497 19.0129 46.7076 19.1802C46.7655 19.3486 46.7441 19.5328 46.6497 19.6842L45.4492 21.6037C46.5725 22.7761 47.2591 24.347 47.3901 26.0423C47.4165 26.109 47.4307 26.1798 47.4307 26.2515C47.4317 26.3899 47.4256 26.5264 47.4144 26.6599C47.4124 27.5594 47.256 28.4329 46.9503 29.2587V32.7301C46.9503 33.261 46.6832 33.7312 46.2739 34.021L48.8221 35.1097C49.6366 35.4584 50.182 36.1208 50.3577 36.9754L51.3764 41.942C51.4119 42.1173 51.3662 42.2995 51.2505 42.438C51.1347 42.5765 50.962 42.6571 50.7792 42.6571H39.2762C39.3321 42.8115 39.3788 42.9709 39.4134 43.1373L40.753 49.6647C40.7885 49.84 40.7428 50.0223 40.627 50.1607C40.5112 50.2992 40.3386 50.3799 40.1558 50.3799H14.7103C14.5275 50.3799 14.3548 50.2992 14.2391 50.1607C14.1233 50.0223 14.0776 49.84 14.1131 49.6647L15.4527 43.1373C15.4873 42.9709 15.534 42.8105 15.5898 42.6571H3.04689C2.86407 42.6571 2.69141 42.5765 2.57563 42.438C2.45985 42.2995 2.41313 42.1173 2.44969 41.942ZM17.5886 19.6593C17.4962 19.5876 17.2809 19.4193 16.8553 19.4193C16.6339 19.4193 16.3556 19.4651 16.0093 19.5936C15.8387 19.6563 15.6487 19.6414 15.4903 19.5528C13.5515 18.461 11.8554 18.3465 10.5859 19.224C9.12032 20.2361 8.34946 22.4753 8.64501 24.7703C8.74251 24.7723 8.80649 24.7554 8.83899 24.7304C8.94157 24.6508 9.04719 24.337 9.00962 23.7124C8.99743 23.5212 9.08071 23.3359 9.23204 23.2144C9.38337 23.0929 9.58446 23.05 9.77337 23.0988C12.6181 23.836 14.7113 23.2981 16.1718 21.4533C16.3282 21.2561 16.5933 21.1744 16.836 21.2501C17.0787 21.3248 17.2484 21.541 17.2616 21.79C17.3408 23.323 17.7237 24.1637 18.5453 24.5183C18.7159 22.553 18.4996 20.3696 17.5886 19.6593ZM17.7826 27.1111C17.8202 26.8511 18.0253 26.6459 18.2894 26.6041C18.5636 26.5603 18.7698 26.3232 18.7698 26.0513C18.7698 25.9696 18.7495 25.8909 18.7139 25.8172C17.0574 25.4636 16.443 24.2095 16.2033 23.1546C14.6585 24.4715 12.6496 24.8978 10.2091 24.4227C10.141 24.9904 9.93688 25.3998 9.5936 25.6668C9.33766 25.865 9.02688 25.9646 8.66633 25.9646C8.5861 25.9646 8.50282 25.9576 8.41751 25.9477C8.41142 25.9815 8.40735 26.0154 8.40735 26.0503C8.40735 26.3222 8.61352 26.5603 8.88774 26.6031C9.1518 26.6449 9.35696 26.8501 9.39454 27.1101C9.60375 28.5634 10.3116 29.7796 11.2887 30.5267C11.3283 30.5496 11.3659 30.5765 11.3994 30.6074C12.0412 31.0656 12.7918 31.3276 13.588 31.3276C14.3812 31.3276 15.1287 31.0686 15.7696 30.6124C15.8031 30.5815 15.8397 30.5546 15.8793 30.5327C16.8614 29.7866 17.5734 28.5684 17.7826 27.1111ZM13.5891 32.5239C12.8873 32.5239 12.2149 32.3735 11.5954 32.0976L11.5964 32.5946C12.3134 33.3636 12.9969 33.7531 13.6307 33.7531C13.6388 33.7531 13.6469 33.7531 13.6541 33.7531C14.2716 33.7431 14.9175 33.3586 15.5766 32.6096V32.0996C14.9591 32.3735 14.2888 32.5239 13.5891 32.5239ZM29.9599 37.5681C29.1819 37.9436 28.3278 38.1508 27.4341 38.1508C26.5383 38.1508 25.6821 37.9426 24.9021 37.5651L24.9041 38.4078C25.8172 39.3979 26.6947 39.891 27.5163 39.882C28.3085 39.8701 29.1302 39.379 29.9599 38.4228V37.5681ZM23.6681 36.7742L23.6813 36.84V36.7852C23.6773 36.7812 23.6722 36.7772 23.6681 36.7742ZM21.7415 31.2539C22.0055 31.2957 22.2107 31.5009 22.2483 31.7609C22.5052 33.5499 23.3797 35.047 24.5873 35.9684C24.633 35.9933 24.6746 36.0242 24.7122 36.059C25.5095 36.6308 26.4428 36.9565 27.4341 36.9565C28.4223 36.9565 29.3516 36.6328 30.1478 36.065C30.1854 36.0301 30.227 35.9993 30.2717 35.9744C31.4834 35.054 32.3619 33.5538 32.6198 31.7609C32.6574 31.5009 32.8626 31.2957 33.1266 31.2539C33.5177 31.1921 33.8122 30.8524 33.8122 30.464C33.8122 30.3265 33.7746 30.192 33.7066 30.0735C31.6834 29.6741 30.9481 28.1959 30.6719 26.7296C28.7879 28.4309 26.2976 28.9748 23.2436 28.3503C23.1816 29.0714 22.947 29.5824 22.5337 29.9032C22.2473 30.1253 21.8989 30.2359 21.4916 30.2359C21.3667 30.2359 21.2367 30.2249 21.1006 30.204C21.0712 30.2867 21.0549 30.3753 21.0549 30.464C21.0559 30.8524 21.3505 31.1911 21.7415 31.2539ZM32.3395 22.6516C32.0673 22.4394 31.7464 22.3338 31.3696 22.3338C31.0558 22.3338 30.7044 22.4066 30.3103 22.553C30.1397 22.6157 29.9498 22.6008 29.7913 22.5121C27.4056 21.1684 25.3124 21.0329 23.7362 22.1207C21.9091 23.3827 20.9574 26.1828 21.3545 29.0306C21.517 29.0495 21.6795 29.0415 21.7791 28.9638C21.8542 28.9061 22.0939 28.6381 22.0319 27.6311C22.0198 27.4398 22.103 27.2545 22.2544 27.133C22.4057 27.0115 22.6068 26.9687 22.7957 27.0175C26.2834 27.9219 28.8529 27.2575 30.6495 24.9874C30.8059 24.7902 31.071 24.7085 31.3137 24.7842C31.5565 24.8589 31.7271 25.0751 31.7393 25.3241C31.8429 27.3303 32.371 28.3851 33.5248 28.7875C33.7614 26.3431 33.5004 23.5571 32.3395 22.6516ZM33.7624 32.3107C33.408 34.1764 32.4634 35.7492 31.1777 36.7921V38.2285L31.5555 38.369L31.8419 36.9754C32.0176 36.1208 32.563 35.4584 33.3775 35.1097L35.9257 34.021C35.5174 33.7312 35.2493 33.261 35.2493 32.7301V29.2597C35.0238 28.6501 34.8796 28.0136 34.8197 27.3601C34.8075 28.2038 34.7384 28.927 34.6877 29.3573C34.9111 29.684 35.0309 30.0675 35.0309 30.464C35.0309 31.2788 34.5099 32.0079 33.7624 32.3107ZM30.9542 43.9401C30.4748 43.9401 30.0848 44.3226 30.0848 44.7928C30.0848 45.2629 30.4748 45.6454 30.9542 45.6454C31.4336 45.6454 31.8236 45.2629 31.8236 44.7928C31.8236 44.3226 31.4336 43.9401 30.9542 43.9401ZM36.0476 26.8581C36.1634 27.6141 36.5523 28.2307 37.2074 28.6969C37.312 28.7716 37.3902 28.8772 37.4298 28.9977C38.0118 30.7757 39.4875 31.9701 41.1013 31.9701C42.7243 31.9701 44.202 30.7668 44.7799 28.9748C44.8185 28.8543 44.8947 28.7497 44.9983 28.675C45.6442 28.2058 46.0342 27.5972 46.1652 26.8621C43.4251 26.8621 41.1866 26.3541 39.4702 24.3808C38.8934 25.9895 37.5436 26.5722 36.0476 26.8581ZM36.4691 29.8882V32.7291C36.4691 32.9452 36.6549 33.1275 36.8753 33.1275H38.1032L38.0981 32.0667C37.4136 31.5109 36.8479 30.7678 36.4691 29.8882ZM45.7326 29.8892C45.3517 30.7718 44.783 31.5178 44.0954 32.0746V33.1275H45.3273C45.5477 33.1275 45.7336 32.9452 45.7336 32.7291L45.7326 29.8892ZM42.8766 32.8058C42.317 33.0399 41.7178 33.1664 41.1003 33.1664C40.4818 33.1664 39.8805 33.0389 39.3199 32.8028L39.323 33.3516C39.9659 34.037 40.5762 34.3846 41.1399 34.3846C41.147 34.3846 41.1541 34.3846 41.1612 34.3846C41.7097 34.3766 42.2866 34.033 42.8777 33.3646V32.8058H42.8766ZM36.0841 25.6279C37.7894 25.2434 38.413 24.5113 38.5287 22.9136C38.4089 22.9445 38.2901 22.9783 38.1723 23.0132C38.1134 23.0311 38.0534 23.0391 37.9935 23.0391C37.7853 23.0391 37.5873 22.9345 37.4745 22.7542L37.4197 22.6665C36.7209 23.4893 36.2588 24.5143 36.0841 25.6279ZM41.1013 18.1154L36.9748 19.6723L38.0473 21.3866L38.0484 21.3886L38.2718 21.7452C39.0335 21.5509 39.8094 21.4394 40.5966 21.4085C40.5305 21.3129 40.4919 21.1983 40.4919 21.0738V20.5568H39.9648C39.6287 20.5568 39.3555 20.2889 39.3555 19.9592C39.3555 19.6295 39.6287 19.3615 39.9648 19.3615H40.4919V18.8445C40.4919 18.5148 40.7652 18.2469 41.1013 18.2469C41.4375 18.2469 41.7107 18.5148 41.7107 18.8445V19.3615H42.2378C42.574 19.3615 42.8472 19.6295 42.8472 19.9592C42.8472 20.2889 42.574 20.5568 42.2378 20.5568H41.7107V21.0738C41.7107 21.2003 41.6701 21.3168 41.602 21.4135C42.3688 21.4503 43.1437 21.5629 43.9268 21.7521L44.1543 21.3886L44.1553 21.3876L45.2278 19.6733L41.1013 18.1154ZM44.7281 22.7552C44.5849 22.9833 44.3056 23.0909 44.0426 23.0172C42.5659 22.6068 41.1176 22.4962 39.7191 22.6815C41.2242 25.0801 43.3073 25.6618 46.1236 25.6658C45.954 24.5372 45.4878 23.4973 44.7819 22.6665L44.7281 22.7552ZM49.1654 37.2105C49.0699 36.7433 48.7835 36.3957 48.3377 36.2054L45.0978 34.8209L43.7633 34.3228H43.6363C42.8553 35.1426 42.0316 35.565 41.1816 35.5779C40.3061 35.5899 39.4347 35.1685 38.5866 34.3228H38.4414L37.1059 34.8209L33.866 36.2054C33.4202 36.3957 33.1337 36.7433 33.0383 37.2105L32.7123 38.7993L33.2059 38.9836C33.215 38.9865 33.2241 38.9905 33.2323 38.9945L37.508 40.8213C37.8869 40.9827 38.218 41.1989 38.4962 41.4618H50.0368L49.1654 37.2105ZM39.4123 49.1855L38.22 43.3733C38.0809 42.696 37.6665 42.193 37.0205 41.917L33.3094 40.3313C33.3379 40.5624 33.3521 40.7964 33.3521 41.0315C33.3521 41.9559 33.1287 42.8623 32.7021 43.6781C32.9164 43.9999 33.0413 44.3824 33.0413 44.7938C33.0413 45.9233 32.1049 46.8417 30.9532 46.8417C29.8015 46.8417 28.8651 45.9233 28.8651 44.7938C28.8651 43.6642 29.8015 42.7458 30.9532 42.7458C31.2284 42.7458 31.4915 42.7996 31.7322 42.8952C31.9952 42.3115 32.1334 41.677 32.1334 41.0315C32.1334 40.6122 32.0755 40.1988 31.9627 39.7994L30.7541 39.3491C29.7253 40.4797 28.6437 41.0604 27.5346 41.0783C26.393 41.1003 25.2464 40.5136 24.1252 39.3451L22.9044 39.8004C22.8637 39.9428 22.8302 40.0872 22.8048 40.2337C23.2152 40.136 23.6427 40.1938 24.0124 40.401C24.3963 40.6162 24.6716 40.9638 24.7873 41.3812L25.8578 45.235C26.0975 46.0967 25.5765 46.9892 24.698 47.2242C24.373 47.3109 24.0378 47.1236 23.9494 46.8049C23.8611 46.4861 24.052 46.1574 24.377 46.0708C24.6076 46.009 24.7447 45.7749 24.6817 45.5488L23.6112 41.6949C23.5808 41.5863 23.5087 41.4957 23.4071 41.4389C23.3055 41.3821 23.1887 41.3672 23.0791 41.3971L21.4906 41.8214C21.2601 41.8832 21.123 42.1173 21.1859 42.3434L22.2564 46.1973C22.2869 46.3058 22.359 46.3965 22.4605 46.4533C22.5621 46.51 22.6779 46.525 22.7886 46.4951C23.1136 46.4084 23.4487 46.5957 23.5371 46.9145C23.6255 47.2332 23.4345 47.5619 23.1095 47.6486C22.9663 47.6864 22.8201 47.7063 22.6748 47.7063C22.3905 47.7063 22.1102 47.6336 21.8562 47.4912C21.4723 47.276 21.1971 46.9284 21.0813 46.511L20.0109 42.6571C19.7712 41.7955 20.2922 40.903 21.1707 40.6679L21.5343 40.5703C21.5404 40.4906 21.5485 40.411 21.5587 40.3323L17.8476 41.918C17.2016 42.194 16.7873 42.698 16.6481 43.3743L15.4558 49.1855H39.4123ZM16.3719 41.4618C16.6502 41.1989 16.9812 40.9827 17.3601 40.8213L21.6359 38.9945C21.645 38.9905 21.6541 38.9875 21.6623 38.9836L22.7906 38.5632L22.423 36.7692C22.3153 36.2423 21.9923 35.8508 21.4896 35.6357L17.9593 34.1276L16.3678 33.5339C15.5096 34.4583 14.6047 34.9334 13.6713 34.9484C12.7126 34.9603 11.7518 34.4862 10.8174 33.5299L9.21376 34.1276L5.68446 35.6357C5.18173 35.8498 4.85977 36.2423 4.7511 36.7692L3.78829 41.4628L16.3719 41.4618ZM26.9141 19.0159C22.2341 19.0159 18.4275 15.2815 18.4275 10.6925C18.4275 6.1035 22.2341 2.36914 26.9141 2.36914C31.5941 2.36914 35.4006 6.1025 35.4006 10.6925C35.4006 15.2825 31.593 19.0159 26.9141 19.0159ZM26.9141 3.56445C22.9064 3.56445 19.6462 6.76191 19.6462 10.6925C19.6462 14.6231 22.9064 17.8205 26.9141 17.8205C30.9217 17.8205 34.1819 14.6231 34.1819 10.6925C34.1819 6.76191 30.9217 3.56445 26.9141 3.56445Z" fill="#30378E"/>
<path d="M6.77905 39.565C6.44288 39.565 6.16968 39.297 6.16968 38.9673C6.16968 38.6376 6.44288 38.3697 6.77905 38.3697H7.82311V37.3457C7.82311 37.016 8.09632 36.748 8.43249 36.748C8.76866 36.748 9.04186 37.016 9.04186 37.3457V38.3697H10.0859C10.4221 38.3697 10.6953 38.6376 10.6953 38.9673C10.6953 39.297 10.4221 39.565 10.0859 39.565H9.04186V40.589C9.04186 40.9187 8.76866 41.1866 8.43249 41.1866C8.09632 41.1866 7.82311 40.9187 7.82311 40.589V39.565H6.77905Z" fill="#009951"/>
<path d="M23.2912 11.9689C22.5789 11.9689 22 11.4012 22 10.7025C22 10.0039 22.5789 9.43617 23.2912 9.43617H25.5036V7.2664C25.5036 6.56777 26.0825 6 26.7948 6C27.5071 6 28.086 6.56777 28.086 7.2664V9.43617H30.2983C31.0107 9.43617 31.5896 10.0039 31.5896 10.7025C31.5896 11.4012 31.0107 11.9689 30.2983 11.9689H28.086V14.1387C28.086 14.8373 27.5071 15.4051 26.7948 15.4051C26.0825 15.4051 25.5036 14.8373 25.5036 14.1387V11.9689H23.2912Z" fill="#009951"/>
</svg>
