<svg width="45" height="46" viewBox="0 0 45 46" fill="none" xmlns="http://www.w3.org/2000/svg">
<path d="M22.6668 35.1159C22.8228 35.0119 22.9268 34.8559 23.0308 34.7519C25.1108 32.6719 27.1388 30.6439 29.2188 28.5639C29.5308 28.2519 29.8428 28.0959 30.3108 28.0959C37.1228 27.9919 42.8948 32.7759 44.2988 39.1199C44.6628 40.8359 44.6108 42.5519 44.6108 44.2679C44.6108 44.6839 44.2468 44.9439 43.8308 44.9439C43.4148 44.9439 43.1548 44.6319 43.1548 44.2159C43.1028 43.1759 43.2068 42.1359 43.0508 41.0959C42.5308 36.1559 39.9308 32.6199 35.4068 30.5399C35.0948 30.3839 34.7828 30.2799 34.4188 30.1239C34.4188 30.2799 34.3668 30.4359 34.3668 30.5399C34.3668 32.5679 34.3668 34.5439 34.3668 36.5719C34.3668 36.8319 34.4188 36.9879 34.6788 37.0919C36.0308 37.6119 36.7588 38.9639 36.5508 40.3159C36.2908 41.7199 35.0948 42.7599 33.6908 42.7599C32.2348 42.7599 31.0388 41.8239 30.7788 40.3679C30.5188 39.0159 31.2468 37.6119 32.5468 37.0919C32.8588 36.9879 32.9108 36.8319 32.9108 36.5199C32.9108 34.2839 32.9108 32.0479 32.9108 29.7079C32.0788 29.6559 31.2468 29.6039 30.4148 29.5519C30.3108 29.5519 30.1548 29.6559 30.1028 29.7599C27.9188 31.8919 25.7868 34.0759 23.6548 36.2599C23.4988 36.4159 23.4468 36.6759 23.4468 36.8319C23.4468 39.2239 23.4468 41.6679 23.4468 44.0599C23.4468 44.6319 23.1348 44.9439 22.6668 44.8919C22.2508 44.8919 21.9908 44.5799 21.9908 44.0599C21.9908 41.6679 21.9908 39.3279 21.9908 36.9359C21.9908 36.6239 21.8868 36.3639 21.6788 36.1559C19.5468 34.0759 17.4668 31.9439 15.3348 29.8639C15.1788 29.7079 14.9188 29.6039 14.6588 29.6039C13.9308 29.6039 13.2028 29.7079 12.4748 29.7599C12.4748 31.3199 12.4748 32.8279 12.4748 34.3359C12.6828 34.3879 12.9428 34.4399 13.1508 34.4919C14.8668 34.9599 16.0628 36.5199 16.1148 38.3399C16.1148 39.5359 16.1148 40.7319 16.1148 41.9279C16.1148 42.4999 15.8548 42.7599 15.2828 42.7599C14.8148 42.7599 14.3988 42.7599 13.9308 42.7599C13.4628 42.7599 13.1508 42.4479 13.1508 42.0319C13.1508 41.6159 13.4628 41.3039 13.9308 41.3039C14.1388 41.3039 14.3468 41.3039 14.6588 41.3039C14.6068 40.0559 14.6588 38.8599 14.4508 37.6639C14.2948 36.7279 13.5668 36.0519 12.5788 35.8959C11.9548 35.7919 11.2268 35.7919 10.6028 35.9479C9.51081 36.2079 8.88681 37.0399 8.78281 38.1319C8.67881 39.1719 8.78281 40.2119 8.78281 41.3039C9.04281 41.3039 9.30281 41.3039 9.51081 41.3039C9.92681 41.3039 10.2388 41.6159 10.1868 42.0319C10.1868 42.3959 9.92681 42.7079 9.51081 42.7599C8.99081 42.7599 8.47081 42.7599 7.95081 42.7599C7.58681 42.7599 7.27481 42.4999 7.27481 42.1879C7.27481 40.6799 7.17081 39.1719 7.32681 37.6639C7.53481 35.8959 8.73081 34.8559 10.4988 34.4399C10.6028 34.3879 10.7588 34.3879 10.8628 34.3359C10.8628 32.9839 10.8628 31.6319 10.8628 30.2279C10.6548 30.2799 10.4988 30.3319 10.3428 30.3839C5.81881 32.2039 3.06281 35.4799 2.28281 40.3159C2.07481 41.5639 2.12681 42.9159 2.07481 44.1639C2.07481 44.6839 1.65881 45.0999 1.19081 44.9439C1.08681 44.8399 0.774807 44.5279 0.774807 44.3199C0.566807 41.0959 0.930807 37.9239 2.69881 35.0639C5.09081 31.1119 8.62681 28.7719 13.3068 28.1999C13.9308 28.1479 14.5028 28.1479 15.1268 28.0959C15.4908 28.0439 15.8028 28.1999 16.0628 28.4599C18.1428 30.5399 20.2228 32.6199 22.3028 34.6999C22.4068 34.8559 22.5108 35.0119 22.6668 35.1159ZM35.0948 39.8479C35.0948 39.0679 34.4188 38.3919 33.6388 38.3919C32.8588 38.3919 32.1828 39.0679 32.1828 39.8479C32.1828 40.6279 32.8588 41.3039 33.6388 41.3039C34.4188 41.3039 35.0948 40.6279 35.0948 39.8479Z" fill="#2B3C90" stroke="#2A3D90" stroke-width="0.5" stroke-miterlimit="10"/>
<path d="M33.1188 12.1834C35.0948 12.9634 35.5108 14.8874 34.8348 16.2394C34.3668 17.2274 33.5348 17.7474 32.4948 17.9034C32.3388 17.9034 32.1308 18.0594 32.1308 18.1634C31.8188 20.1394 30.8308 21.7514 29.4788 23.1554C28.8548 23.7794 28.0748 24.3514 27.3988 24.9234C27.2428 25.0274 27.1388 25.2874 27.0868 25.4434C27.0348 26.2754 27.0868 27.1594 27.0868 27.9914C27.0868 28.5114 26.8268 28.8234 26.3588 28.8234C25.8908 28.8234 25.6308 28.5114 25.6308 27.9394C25.6308 27.2634 25.6308 26.5874 25.6308 25.8594C23.6548 26.8474 21.7308 26.8474 19.7548 25.8594C19.7548 26.6394 19.7548 27.3154 19.7548 27.9914C19.7548 28.5114 19.4948 28.8234 19.0268 28.8234C18.5588 28.8234 18.2988 28.5114 18.2988 27.9914C18.2988 27.1594 18.2988 26.3794 18.2988 25.5474C18.2988 25.1834 18.1948 25.0274 17.9348 24.8194C16.0628 23.5194 14.5028 21.9074 13.6708 19.7234C13.4628 19.1514 13.3068 18.5274 13.1508 17.9034C11.4348 17.6434 10.4468 16.7594 10.2388 15.3554C10.0308 14.0034 10.7588 12.8594 12.2148 12.1314C12.0588 11.3514 11.8508 10.6234 11.6948 9.84343C11.2268 7.76343 11.9548 5.99543 13.3588 4.48743C14.8668 2.87543 16.7388 1.93943 18.8708 1.47143C22.4068 0.639433 25.8908 0.847433 29.1668 2.51143C30.0508 2.97943 30.8828 3.55143 31.6108 4.22743C33.4308 5.89143 34.1068 7.97143 33.4308 10.4154C33.3788 10.9874 33.2228 11.5594 33.1188 12.1834ZM14.6068 13.2234C14.6068 14.4714 14.6068 15.6674 14.6068 16.9154C14.6068 18.0074 14.8668 19.0474 15.3868 20.0354C16.6868 22.3234 18.6108 23.8834 21.0028 24.8714C22.1468 25.3394 23.2908 25.2874 24.4348 24.8194C26.3588 24.0394 27.9188 22.7914 29.2188 21.1794C29.9988 20.1394 30.5708 19.0474 30.6748 17.7474C30.7788 16.2394 30.7268 14.7834 30.7268 13.2754C30.7268 13.1714 30.6228 13.0674 30.5188 13.0154C29.2708 12.2354 28.2308 11.1954 27.2948 10.1034C26.9308 9.68743 26.5668 9.21943 26.1508 8.75143C22.6148 10.9874 18.7668 12.4954 14.6068 13.2234ZM31.6628 11.9754C31.8708 11.0394 32.0268 10.2594 32.2348 9.53143C32.5468 8.17943 32.1308 7.03543 31.2988 5.99543C30.5708 5.05943 29.6348 4.43543 28.6468 3.86343C27.0868 3.03143 25.4228 2.66743 23.6548 2.56343C20.8468 2.40743 18.1428 2.87543 15.8028 4.48743C14.5548 5.37143 13.5148 6.41143 13.2028 7.97143C12.9428 9.32343 13.5148 10.5714 13.7748 11.9234C14.8668 11.6634 15.8548 11.4554 16.8428 11.1954C20.0148 10.3114 23.0828 9.11543 25.7868 7.19143C26.3588 6.77543 26.6708 6.82743 27.1388 7.39943C28.1268 8.54343 29.0628 9.68743 30.1028 10.7274C30.4668 11.1954 31.0388 11.5074 31.6628 11.9754ZM13.1508 16.3954C13.1508 15.4074 13.1508 14.4714 13.1508 13.5354C12.2668 13.6394 11.6948 14.2114 11.6948 14.9914C11.6948 15.7194 12.2668 16.2914 13.1508 16.3954ZM32.2348 16.3954C33.1188 16.2914 33.6908 15.7194 33.6908 14.9394C33.6908 14.1594 33.0668 13.5874 32.2348 13.5354C32.2348 14.4714 32.2348 15.4074 32.2348 16.3954Z" fill="#2A3D90" stroke="#2A3D90" stroke-width="0.25" stroke-miterlimit="10"/>
<path d="M22.6672 22.2715C21.7832 22.2715 20.9512 22.0115 20.1712 21.4915C19.7552 21.1795 19.5992 20.7635 19.8592 20.3995C20.1192 20.0355 20.5352 19.9835 20.9512 20.2435C22.0952 20.9715 23.2392 20.9715 24.3832 20.2435C24.8512 19.9315 25.2672 19.9835 25.5272 20.3995C25.7872 20.7635 25.6312 21.1795 25.2152 21.4915C24.4352 22.0115 23.6032 22.2715 22.6672 22.2715Z" fill="#2A3D90" stroke="#2A3D90" stroke-width="0.25" stroke-miterlimit="10"/>
<path d="M19.7544 14.9404C19.7544 15.7724 19.1304 16.4484 18.2984 16.3964C17.4664 16.3964 16.8424 15.7724 16.8424 14.9404C16.8424 14.1084 17.4664 13.4844 18.2984 13.4844C19.0784 13.4844 19.7544 14.1604 19.7544 14.9404Z" fill="#2A3D90" stroke="#2A3D90" stroke-width="0.25" stroke-miterlimit="10"/>
<path d="M25.6308 14.8884C25.6308 14.0564 26.3588 13.4844 27.1908 13.4844C27.9708 13.5364 28.5948 14.2124 28.5428 14.9924C28.5428 15.7724 27.8668 16.3964 27.0348 16.3964C26.2028 16.3964 25.5788 15.7204 25.6308 14.8884Z" fill="#2A3D90" stroke="#2A3D90" stroke-width="0.25" stroke-miterlimit="10"/>
</svg>
