<svg width="43" height="44" viewBox="0 0 43 44" fill="none" xmlns="http://www.w3.org/2000/svg">
<path d="M21.8968 1.14844C22.1568 1.25244 22.4688 1.30444 22.7288 1.46044C23.9248 2.03244 24.6008 3.02044 24.6008 4.32044C24.6008 16.1244 24.6008 27.8764 24.6008 39.6804C24.6008 41.4484 23.1448 42.9044 21.3768 42.9044C15.7088 42.9044 9.9888 42.9044 4.3208 42.9044C2.8648 42.9044 1.6168 41.9164 1.2528 40.5124C1.2008 40.4084 1.1488 40.3044 1.1488 40.2004C1.1488 28.0844 1.1488 15.9684 1.1488 3.85244C1.3568 3.07244 1.7208 2.29244 2.3968 1.82444C2.8128 1.56444 3.3328 1.35644 3.8008 1.14844C9.8328 1.14844 15.8648 1.14844 21.8968 1.14844ZM23.3008 31.2564C23.3008 31.1004 23.3008 30.9964 23.3008 30.8924C23.3008 22.1044 23.3008 13.3164 23.3008 4.52844C23.3008 3.22844 22.5208 2.44844 21.1688 2.44844C15.6568 2.44844 10.0928 2.44844 4.5808 2.44844C3.1768 2.44844 2.3968 3.22844 2.3968 4.63244C2.3968 13.4204 2.3968 22.1564 2.3968 30.9444C2.3968 31.0484 2.3968 31.2044 2.3968 31.3084C4.0088 28.3964 6.5048 26.4724 9.6248 25.3804C9.6248 25.3284 9.6248 25.3284 9.5728 25.3284C9.5208 25.2764 9.4688 25.2764 9.4688 25.2244C7.5968 23.9244 6.6608 22.1564 6.6608 19.8164C6.6608 17.2164 6.6608 14.6164 6.6608 12.0164C6.6608 10.0924 8.1168 8.58444 10.0408 8.58444C11.9128 8.58444 13.7328 8.58444 15.6048 8.58444C17.5808 8.58444 19.0368 10.0404 19.0368 12.0164C19.0368 14.6164 19.0368 17.2164 19.0368 19.8164C19.0368 22.0524 18.1008 23.7684 16.3328 25.1204C16.2808 25.1724 16.1768 25.2244 16.1248 25.3284C19.2968 26.3164 21.5848 28.3964 23.3008 31.2564ZM10.2488 35.9884C10.2488 34.7924 10.2488 33.5444 10.2488 32.3484C10.2488 31.4644 9.5728 30.8404 8.6888 30.7884C7.8048 30.7364 7.0248 31.3084 6.9728 32.1924C6.9208 33.4404 6.9728 34.6884 6.9728 35.9884C7.4928 36.1444 7.6488 36.4044 7.5968 36.7684C7.5448 37.1324 7.2848 37.3404 6.7648 37.3404C6.6608 37.3404 6.5568 37.3404 6.4528 37.3404C5.8808 37.3404 5.6728 37.1324 5.6208 36.5084C5.6208 35.1564 5.6208 33.8044 5.6208 32.4524C5.6208 31.0484 6.4008 30.0084 7.8048 29.5924C7.9088 29.5404 8.06481 29.5404 8.06481 29.4364C8.2728 28.6564 8.5328 27.9284 8.7408 27.0964C8.6368 27.1484 8.5848 27.1484 8.5328 27.2004C5.2048 28.8644 3.1768 31.5164 2.6048 35.1564C2.3968 36.5084 2.4488 37.9644 2.4488 39.3164C2.3968 40.7724 3.2288 41.5524 4.6328 41.5524C9.7288 41.5524 14.7728 41.5524 19.8688 41.5524C20.3888 41.5524 20.8568 41.5524 21.3768 41.5524C22.4688 41.5004 23.3008 40.6684 23.3008 39.5764C23.3008 38.6404 23.3008 37.6524 23.3008 36.7164C23.2488 33.6484 22.1048 30.9964 19.8168 28.9164C19.2968 28.4484 18.7248 28.0324 18.0488 27.5644C18.2568 28.5524 18.4648 29.3844 18.6208 30.2684C18.6728 30.4764 18.7248 30.5804 18.9328 30.6844C19.9728 31.1004 20.4928 31.9844 20.4408 33.1284C20.3888 34.4804 19.0888 35.5204 17.8408 35.3644C16.3848 35.1564 15.4488 33.8564 15.7088 32.5044C15.9168 31.5684 16.4888 30.9444 17.3728 30.6324C17.1648 29.3844 16.9568 28.1884 16.3848 27.0964C16.3328 26.9924 16.1768 26.8364 16.0728 26.7844C14.3568 26.3164 12.5888 26.0564 10.8208 26.4724C10.6648 26.5244 10.5088 26.6284 10.4568 26.7844C10.0928 27.7204 9.7808 28.6564 9.4688 29.4884C9.5208 29.5924 9.5728 29.5924 9.5728 29.5924C9.6768 29.6444 9.7808 29.6964 9.8848 29.7484C10.8728 30.2164 11.4968 30.9444 11.5488 32.0364C11.6528 33.5964 11.6008 35.1564 11.5488 36.7164C11.5488 37.0804 11.2888 37.2884 10.9248 37.3404C10.0928 37.3924 9.6768 37.2364 9.6248 36.8204C9.57281 36.5084 9.6768 36.2484 9.9368 36.0924C10.0408 36.0404 10.1448 36.0404 10.2488 35.9884ZM7.9608 16.4884C7.9608 17.6844 7.9608 18.8804 7.9608 20.0244C7.9608 20.2324 8.0128 20.4404 8.0128 20.6484C8.3248 22.9884 10.5088 24.9124 12.8488 24.9124C15.1888 24.9124 17.4248 22.9884 17.6328 20.6484C17.7368 19.2964 17.6848 17.8924 17.7368 16.5404L17.6848 16.4884C14.4608 16.4884 11.2368 16.4884 7.9608 16.4884ZM17.7368 15.1364C17.7368 14.9804 17.7368 14.8244 17.7368 14.6684C17.7368 13.7324 17.7888 12.7964 17.7368 11.8604C17.6848 10.7684 16.8008 9.93644 15.7088 9.93644C13.7848 9.93644 11.9128 9.93644 9.9888 9.93644C9.0008 9.93644 8.2208 10.6124 8.0128 11.5484C7.9088 12.0684 7.9608 12.5884 7.9608 13.1084C7.9608 13.7844 7.9608 14.4604 7.9608 15.1364C11.2368 15.1364 14.4608 15.1364 17.7368 15.1364ZM19.1928 32.9204C19.1928 32.2964 18.7248 31.8284 18.1008 31.8284C17.4768 31.8284 17.0088 32.2964 17.0088 32.9204C17.0088 33.5444 17.4768 34.0124 18.1008 33.9604C18.7248 34.0124 19.1928 33.5444 19.1928 32.9204Z" fill="#2B3C90" stroke="#2A3D90" stroke-width="0.5" stroke-miterlimit="10"/>
<path d="M34.9488 21.3247C32.6088 21.3247 30.3208 21.3247 27.9808 21.3247C26.6808 21.3247 25.9008 20.5447 25.9008 19.2447C25.9008 15.8647 25.9008 12.4327 25.9008 9.05266C25.9008 7.80466 26.7328 6.97266 27.9808 6.97266C31.1528 6.97266 34.3248 6.97266 37.4968 6.97266C38.7448 6.97266 39.5768 7.80466 39.5768 9.05266C39.5768 10.9767 39.5768 12.8487 39.5768 14.7727C39.5768 17.0087 40.5128 18.8287 42.3848 20.0767C42.6968 20.2847 42.9048 20.4927 42.8008 20.8567C42.6968 21.2207 42.3848 21.3767 42.0208 21.3767C39.6808 21.3247 37.3408 21.3247 34.9488 21.3247ZM40.3568 20.0247C40.2528 19.9207 40.2008 19.8687 40.2008 19.8687C38.9528 18.4127 38.3288 16.7487 38.3288 14.8247C38.3288 12.9527 38.3288 11.1327 38.3288 9.26066C38.3288 8.53266 38.1208 8.32466 37.3928 8.32466C34.3248 8.32466 31.2568 8.32466 28.1888 8.32466C27.4608 8.32466 27.2528 8.53266 27.2528 9.26066C27.2528 12.5367 27.2528 15.8127 27.2528 19.0887C27.2528 19.8687 27.4608 20.0767 28.2408 20.0767C32.1408 20.0767 35.9888 20.0767 39.8888 20.0767C39.9928 20.0247 40.0968 20.0247 40.3568 20.0247Z" fill="#2A3D90" stroke="#2A3D90" stroke-width="0.25" stroke-miterlimit="10"/>
<path d="M33.8566 35.6758C31.5166 35.6758 29.1766 35.6758 26.7846 35.6758C26.4206 35.6758 26.0566 35.6238 25.9526 35.2078C25.8486 34.7918 26.1086 34.5838 26.3686 34.3758C28.1886 33.1278 29.1246 31.3598 29.1246 29.1758C29.1246 28.0838 29.1246 26.9918 29.1246 25.8998C29.1246 24.8078 29.9566 23.9238 31.1006 23.9238C34.3766 23.9238 37.6006 23.9238 40.8766 23.9238C41.9686 23.9238 42.8526 24.7558 42.8526 25.8998C42.8526 28.4998 42.8526 31.0998 42.8526 33.6998C42.8526 34.7918 42.0206 35.6238 40.8766 35.6238C38.5366 35.6758 36.1966 35.6758 33.8566 35.6758ZM28.4486 34.3758C28.5526 34.3758 28.6046 34.4278 28.6566 34.4278C32.7126 34.4278 36.7686 34.4278 40.7726 34.4278C41.2926 34.4278 41.5526 34.1678 41.5526 33.5958C41.5526 31.0998 41.5526 28.6038 41.5526 26.1078C41.5526 25.5358 41.2926 25.2758 40.7206 25.2758C37.5486 25.2758 34.4286 25.2758 31.2566 25.2758C30.6846 25.2758 30.4246 25.5358 30.4246 26.1078C30.4246 27.2518 30.4246 28.3438 30.4246 29.4878C30.4246 29.9038 30.3726 30.3198 30.3206 30.6838C30.0606 32.0878 29.4366 33.2838 28.4486 34.3758Z" fill="#2A3D90" stroke="#2A3D90" stroke-width="0.25" stroke-miterlimit="10"/>
<path d="M12.8484 5.04805C12.2244 5.04805 11.6004 5.04805 10.9764 5.04805C10.5084 5.04805 10.2484 4.78805 10.2484 4.37205C10.2484 3.95605 10.5084 3.74805 10.9764 3.74805C12.2244 3.74805 13.4724 3.74805 14.7204 3.74805C15.1884 3.74805 15.4484 4.00805 15.4484 4.37205C15.4484 4.78805 15.1884 5.04805 14.7204 5.04805C14.0964 5.04805 13.4724 5.04805 12.8484 5.04805Z" fill="#2B3C90" stroke="#2A3D90" stroke-miterlimit="10"/>
<path d="M12.2243 11.8598C12.2763 11.1838 12.4323 10.9238 12.9003 10.9238C13.3163 10.9238 13.5243 11.1838 13.5763 11.8078C13.8883 11.9638 14.1483 12.0158 14.4083 12.1718C14.5123 12.2238 14.5643 12.4838 14.5123 12.6398C14.5123 13.0558 14.2523 13.1598 13.5763 13.2638C13.4723 13.9918 13.2643 14.2518 12.8483 14.1998C12.4323 14.1998 12.2763 13.9398 12.2243 13.3678C11.9123 13.2118 11.6523 13.1598 11.3923 13.0038C11.2883 12.9518 11.2363 12.6918 11.2883 12.5358C11.2363 12.0678 11.4963 11.9118 12.2243 11.8598Z" fill="#2A3D90" stroke="#2A3D90" stroke-width="0.25" stroke-miterlimit="10"/>
<path d="M33.0248 9.625C33.7528 9.677 34.5328 10.093 34.9488 10.977C35.3648 11.809 35.3128 12.693 34.7928 13.473C34.5848 13.785 34.3248 14.045 34.0648 14.357C33.6488 14.721 33.4408 15.189 33.3888 15.761C33.3888 16.229 33.0768 16.437 32.7128 16.437C32.3488 16.437 32.0888 16.125 32.0888 15.709C32.0888 14.825 32.4528 14.097 33.0248 13.421C33.2328 13.161 33.4408 12.953 33.6488 12.693C33.9608 12.277 33.9608 11.809 33.7008 11.393C33.4408 11.029 32.9728 10.821 32.5568 10.925C32.0368 11.029 31.6728 11.393 31.6208 11.913C31.5688 12.277 31.5168 12.537 31.1008 12.693C30.6328 12.849 30.2688 12.485 30.2688 11.965C30.3208 10.665 31.4128 9.625 33.0248 9.625Z" fill="#2A3D90"/>
<path d="M32.7645 17.2676C33.1805 17.2676 33.4925 17.5796 33.4925 17.9956C33.4925 18.4116 33.1805 18.7236 32.8165 18.7236C32.4005 18.7236 32.0365 18.4116 32.0365 17.9956C32.0365 17.6316 32.3485 17.2676 32.7645 17.2676Z" fill="#2A3D90"/>
<path d="M33.3888 29.1758C33.7528 29.1758 34.0648 29.4358 34.0648 29.7998C34.0648 30.1638 33.8048 30.4758 33.3888 30.4758C33.0248 30.4758 32.7648 30.2158 32.7648 29.8518C32.7648 29.4878 33.0248 29.1758 33.3888 29.1758Z" fill="#2A3D90" stroke="#2A3D90" stroke-width="0.25" stroke-miterlimit="10"/>
<path d="M36.0407 30.4758C35.6767 30.4758 35.4167 30.2158 35.3647 29.8518C35.3647 29.4878 35.6247 29.1758 36.0407 29.1758C36.4047 29.1758 36.6647 29.4358 36.6647 29.7998C36.6647 30.2158 36.4047 30.4758 36.0407 30.4758Z" fill="#2A3D90" stroke="#2A3D90" stroke-width="0.25" stroke-miterlimit="10"/>
<path d="M39.2648 29.8518C39.2648 30.2158 38.9528 30.4758 38.5888 30.4758C38.2248 30.4758 37.9128 30.1638 37.9648 29.7998C37.9648 29.4358 38.2768 29.1758 38.6408 29.1758C39.0048 29.1758 39.2648 29.4878 39.2648 29.8518Z" fill="#2A3D90" stroke="#2A3D90" stroke-width="0.25" stroke-miterlimit="10"/>
</svg>
