<svg width="44" height="42" viewBox="0 0 44 42" fill="none" xmlns="http://www.w3.org/2000/svg">
<path d="M42.8517 8.05183C42.6437 7.16783 42.2277 6.49183 41.6037 6.02383C41.5517 5.97183 41.4997 5.97183 41.4477 5.91983C41.0317 5.65983 40.5117 5.45183 39.8877 5.39983C38.9517 5.29583 38.0157 5.34783 37.0797 5.34783H36.5077V5.29583H36.2997V4.20383C36.2997 3.11183 35.8837 2.22783 35.2077 1.60383C35.1557 1.55183 35.1037 1.49983 35.0517 1.44783C34.5317 1.08383 33.8557 0.875833 33.1277 0.823833C32.3997 0.771833 31.7237 0.927833 31.1517 1.29183C31.0997 1.34383 31.0477 1.34383 30.9957 1.39583C30.3197 1.86383 29.8517 2.64383 29.6957 3.52783C29.6437 3.83983 29.6437 4.20383 29.6437 4.56783C29.6437 4.72383 29.6437 4.93183 29.6437 5.08783V5.24383H29.4877V5.29583H25.5357V5.24383H25.3797V4.67183C25.3797 4.41183 25.3797 4.15183 25.3797 3.89183C25.3797 2.90383 24.9637 1.91583 24.2357 1.29183C24.1317 1.18783 24.0277 1.13583 23.9237 1.03183C23.9237 1.03183 23.8717 1.03183 23.8717 0.979833C23.1957 0.615833 22.3117 0.407833 21.2717 0.615833C20.8557 0.667833 20.4917 0.823833 20.1797 1.03183C20.1277 1.08383 20.0757 1.08383 20.0237 1.13583C19.2437 1.70783 18.7237 2.64383 18.7237 3.73583C18.7237 4.04783 18.7237 4.30783 18.7237 4.61983V5.24383H18.5157V5.29583H14.5117V5.24383H14.3037V5.08783C14.3037 4.87983 14.3037 4.72383 14.3037 4.51583C14.3037 4.15183 14.3557 3.78783 14.3037 3.47583C14.1477 2.43583 13.5757 1.60383 12.7437 1.13583C12.6917 1.08383 12.6397 1.08383 12.5357 1.03183C12.0157 0.823833 11.4437 0.719833 10.8197 0.719833C10.1437 0.719833 9.5717 0.927833 9.0517 1.23983C8.9997 1.29183 8.9477 1.29183 8.8957 1.34383C8.2197 1.81183 7.8037 2.59183 7.6477 3.52783C7.5957 3.83983 7.5957 4.20383 7.6477 4.56783C7.6477 4.72383 7.6477 4.93183 7.6477 5.08783V5.24383H7.4917V5.29583C6.5037 5.29583 5.6197 5.29583 4.7357 5.29583C4.0077 5.29583 3.3837 5.45183 2.8637 5.76383C2.8117 5.81583 2.7597 5.81583 2.7077 5.86783C2.4997 5.97183 2.3437 6.12783 2.1877 6.28383C1.4597 6.95983 1.0957 7.94783 1.0957 8.93583C1.1477 13.3038 1.1477 17.7758 1.0957 22.0918C1.0957 23.8078 1.0957 25.5238 1.0957 27.2398V29.7878C1.0957 31.9718 1.0957 34.1558 1.0957 36.2878C1.0957 38.0038 2.5517 39.5118 4.1637 39.5638C5.8797 39.6158 7.6997 39.6158 9.4157 39.6158C9.9877 39.6158 10.5077 39.6158 11.0797 39.6158C11.3917 39.6158 11.6517 39.4078 11.7037 39.0438C11.7557 38.7838 11.7037 38.5758 11.5997 38.4718C11.5477 38.4198 11.5477 38.4198 11.4957 38.3678C11.3397 38.2638 11.1317 38.2118 10.9237 38.2118C8.8957 38.2118 6.8677 38.2118 4.8397 38.2118C4.3197 38.2118 3.8517 38.1078 3.5397 37.8998C2.9157 37.5358 2.6037 36.8598 2.6037 35.9238V14.3438H41.4997V14.6558C41.4997 14.7598 41.4997 14.8118 41.4997 14.9158V16.9958C41.4997 23.2878 41.4997 29.6318 41.4997 35.9238C41.4997 36.8598 41.1877 37.4838 40.5637 37.8478C40.1997 38.0558 39.7837 38.1598 39.2117 38.1598C37.9117 38.1598 36.6637 38.1598 35.3637 38.1598C35.1557 38.1598 34.9997 38.2118 34.8437 38.2638C34.6357 38.3678 34.5317 38.5758 34.5317 38.8358C34.5317 39.0438 34.5837 39.1998 34.7397 39.3558C34.8957 39.5118 35.1037 39.5638 35.4157 39.5638H35.9357C37.1317 39.5638 38.3277 39.5638 39.5757 39.5638C41.1357 39.5638 42.4357 38.5238 42.8517 37.0158C42.8517 36.9118 42.9037 36.8598 42.9557 36.7558L43.0077 36.6518V8.15583C42.9037 8.10383 42.9037 8.10383 42.8517 8.05183ZM31.2037 5.03583C31.2037 4.87983 31.2037 4.72383 31.2037 4.56783C31.2037 4.20383 31.2037 3.83983 31.3077 3.47583C31.5157 2.64383 32.3997 2.12383 33.3877 2.22783C34.2717 2.33183 34.8957 3.05983 34.9477 3.94383V5.24383H34.7397V5.29583H31.3597V5.24383H31.1517L31.2037 5.03583ZM20.1797 3.47583C20.2837 2.64383 21.0117 2.01983 21.9997 2.01983C22.9877 2.01983 23.7157 2.64383 23.8197 3.52783C23.8717 3.89183 23.8197 4.25583 23.8197 4.61983C23.8197 4.77583 23.8197 4.93183 23.8197 5.08783V5.29583H23.6637V5.34783H20.3357V5.29583H20.1797V5.08783C20.1797 4.93183 20.1797 4.77583 20.1797 4.56783C20.1797 4.20383 20.1277 3.83983 20.1797 3.47583ZM9.1037 3.68383C9.1557 2.79983 9.9357 2.17583 10.9757 2.17583C11.9637 2.17583 12.7437 2.85183 12.7957 3.73583C12.7957 4.04783 12.7957 4.35983 12.7957 4.67183C12.7957 4.82783 12.7957 4.93183 12.7957 5.08783V5.24383H12.6397V5.29583H9.3117V5.24383H9.1557V5.08783C9.1557 4.93183 9.1557 4.77583 9.1557 4.67183C9.1037 4.30783 9.1037 3.99583 9.1037 3.68383ZM41.4477 11.3278C41.4477 11.7438 41.4477 12.1598 41.4477 12.5758V12.7318H41.2397V12.7838H2.7597V12.7318H2.6037V11.1198C2.6037 10.3918 2.6037 9.66383 2.6037 8.88383C2.6037 7.47983 3.3837 6.69983 4.7877 6.69983H12.7437L12.7957 6.80383C13.0037 7.42783 12.9517 7.99983 12.6397 8.46783C12.4837 8.67583 12.3277 8.83183 12.1197 8.98783L12.0677 9.03983C11.8597 9.19583 11.5477 9.29983 11.2357 9.29983C11.0277 9.29983 10.8717 9.35183 10.7677 9.45583C10.5597 9.61183 10.5077 9.81983 10.5077 10.0798C10.5077 10.5478 10.8717 10.7558 11.3917 10.7558C13.0557 10.7038 14.4077 9.35183 14.4597 7.68783C14.4597 7.53183 14.4597 7.32383 14.4597 7.16783V6.69983H23.9237V6.85583C24.0277 7.53183 23.9237 8.05183 23.6117 8.46783C23.5077 8.57183 23.4037 8.72783 23.2477 8.77983L23.1957 8.83183C22.9357 8.98783 22.6237 9.14383 22.2077 9.14383C22.0517 9.14383 21.8957 9.19583 21.7917 9.29983C21.6357 9.45583 21.5317 9.66383 21.5317 9.92383C21.5317 10.3398 21.8437 10.5998 22.3117 10.5998H22.3637C24.0277 10.5998 25.4317 9.19583 25.4837 7.47983C25.4837 7.37583 25.4837 7.21983 25.4837 7.11583V6.69983H34.9477L34.9997 6.85583C35.1557 7.53183 35.1037 8.15583 34.7917 8.57183C34.6877 8.77983 34.4797 8.88383 34.3237 9.03983C34.0637 9.24783 33.6997 9.35183 33.2837 9.40383C33.1277 9.40383 33.0237 9.45583 32.8677 9.55983C32.7117 9.71583 32.6077 9.92383 32.6077 10.1318C32.6077 10.5478 32.9197 10.8598 33.3877 10.8598C35.0517 10.9118 36.5077 9.45583 36.5597 7.73983C36.5597 7.58383 36.5597 7.37583 36.5597 7.21983V6.80383L36.7677 6.75183C36.8197 6.75183 36.8717 6.69983 36.9237 6.69983H37.7037C38.3797 6.69983 39.1077 6.69983 39.8357 6.69983C40.7717 6.75183 41.5517 7.42783 41.6037 8.31183C41.4477 9.35183 41.4477 10.3398 41.4477 11.3278Z" fill="#2B3C90" stroke="#2A3D90" stroke-width="0.5" stroke-miterlimit="10"/>
<path d="M34.9997 34.6244C34.8957 34.7804 34.6877 34.8844 34.4797 34.8844C34.0117 34.9364 33.6997 34.6244 33.6477 34.1044C33.5437 33.2204 33.4397 32.3364 33.3357 31.4524C33.1797 30.2044 32.8677 28.9564 32.3477 27.7604C32.0877 27.1364 31.8277 26.5644 31.5677 25.9404L31.2557 25.2644C30.9957 24.6924 30.5277 24.3804 29.7997 24.3804H29.5397L29.6957 24.7964C29.7477 24.9004 29.7997 25.0044 29.7997 25.1084C29.9557 25.6284 29.7997 26.0444 29.4357 26.2004C29.0197 26.3564 28.6557 26.1484 28.3957 25.6804C28.3437 25.5244 28.2917 25.4204 28.1877 25.2644L28.2397 25.2124C28.0317 24.6924 27.8237 24.4844 27.5637 24.3804C27.3037 24.2764 26.9917 24.3804 26.4717 24.6924L26.3157 24.7964L26.4717 25.2124C26.5237 25.4204 26.6277 25.5764 26.6797 25.7844C26.8357 26.2524 26.7317 26.6164 26.3157 26.7724C25.8997 26.9284 25.5357 26.8244 25.3797 26.4084C25.3277 26.3044 25.2757 26.2004 25.2237 26.0444C25.1717 25.9924 25.1717 25.8884 25.1197 25.7844C24.9117 25.3164 24.7037 25.1084 24.4437 25.0564C24.1837 24.9524 23.8197 25.0564 23.4037 25.3684L23.2477 25.4724L23.4557 25.9404C23.5597 26.2004 23.6637 26.4604 23.8197 26.7204C23.9757 27.0844 24.0277 27.5524 23.4557 27.7604C23.0397 27.9684 22.6757 27.8124 22.4677 27.2924C21.7917 25.7324 21.0637 24.1724 20.3877 22.6124L19.1917 19.9604C19.0357 19.5964 18.7757 19.1804 18.1517 19.3884C17.8917 19.4924 17.7357 19.5964 17.6317 19.8044C17.5277 20.0124 17.5797 20.3244 17.6837 20.6364C18.3077 21.9884 18.8797 23.3924 19.5037 24.7444L20.9077 27.9164C21.4797 29.2164 22.0517 30.5684 22.6757 31.8684C22.8837 32.3364 22.7797 32.7524 22.3637 32.9604C22.0517 33.1164 21.7917 33.0644 21.4277 32.8044L20.7517 32.2324C19.9717 31.5564 19.2437 30.8804 18.4637 30.1524C17.7877 29.5284 17.0597 29.3724 16.0197 29.6324L15.7597 29.5804L15.9677 29.8924C16.0197 29.9444 16.0717 30.0484 16.1237 30.1004C16.3837 30.4124 16.6437 30.7244 16.9037 31.0364C17.4237 31.6604 17.8917 32.2844 18.3597 32.8564C19.0877 33.7404 20.0237 34.4164 20.9077 35.0924C21.1677 35.2484 21.4277 35.4564 21.6357 35.6124C22.9357 36.6004 24.2877 37.5364 25.5877 38.5244C26.2637 38.9924 26.9397 39.5124 27.5637 39.9804C27.9277 40.2404 28.0837 40.5524 27.9797 40.8644C27.9277 41.1244 27.7197 41.2804 27.5117 41.3844C27.2517 41.4884 26.9917 41.4364 26.7317 41.2284C25.8477 40.6044 24.9637 39.9284 24.1317 39.3044L23.0917 38.5244C22.6757 38.2124 22.2597 37.9004 21.8437 37.5884C20.9077 36.8604 19.9197 36.1324 18.9317 35.4564C18.0477 34.8324 17.3717 34.0004 16.7477 33.2204C16.5917 33.0124 16.4357 32.8044 16.2797 32.6484C15.8637 32.1284 15.4477 31.6604 15.0837 31.1404L14.6157 30.5164C14.2517 30.0484 14.0957 29.5804 14.1997 29.1644C14.3037 28.7484 14.6677 28.4364 15.1877 28.2284C15.7597 28.0204 16.3317 27.9164 16.9037 27.9164C17.7357 27.9164 18.5677 28.1764 19.3477 28.6964L19.8677 29.0084L18.7757 26.4604C17.9957 24.6404 17.2157 22.8724 16.4357 21.1044C15.9677 20.0124 16.1757 18.9204 17.0597 18.2444C18.0997 17.4124 19.3477 17.5684 20.1797 18.6084C20.8557 19.4404 21.2197 20.3764 21.6357 21.3644L21.6877 21.4684C21.8957 22.0404 22.1557 22.6124 22.3637 23.1324L22.6237 23.8084H22.7797C22.9877 23.7564 23.2477 23.7564 23.4557 23.7044C23.9237 23.6004 24.3397 23.5484 24.7037 23.5484C25.1717 23.6004 25.5877 23.4964 26.0557 23.2884C26.8877 22.9244 27.5637 22.7164 28.2397 23.0284C28.6557 23.1844 28.9677 23.2364 29.3837 23.0804C30.6317 22.7164 32.0357 23.3404 32.6077 24.4324L32.8157 24.8484C33.6477 26.5124 34.4797 28.2284 34.7917 30.1004C34.9997 31.3484 35.1557 32.5964 35.3117 33.8444L35.3637 34.1044C35.2077 34.3124 35.1557 34.4684 34.9997 34.6244Z" fill="#2A3D90"/>
<path d="M11.6 31.8156C11.6 32.2316 11.6 32.6996 11.6 33.1156C11.6 33.6356 11.288 33.9476 10.82 33.9476C10.3 33.9996 9.83198 33.9996 9.36398 33.9476C8.73998 33.8956 8.58398 33.4796 8.58398 33.1156V31.8156C8.58398 31.2956 8.84398 30.9836 9.36398 30.9316C9.62398 30.9316 9.83198 30.9316 10.092 30.9316C10.352 30.9316 10.56 30.9316 10.82 30.9316C11.444 30.9836 11.6 31.4516 11.6 31.8156Z" fill="#2A3D90"/>
<path d="M11.5997 26.6149C11.5997 27.0309 11.2877 27.3429 10.8717 27.3429C10.7157 27.3429 10.5077 27.3429 10.3517 27.3429H9.88374C9.72774 27.3429 9.57174 27.3429 9.36374 27.3429C8.94774 27.3429 8.63574 27.0309 8.63574 26.6149C8.63574 26.1469 8.63574 25.6789 8.63574 25.1069C8.63574 24.8469 8.73974 24.6389 8.89574 24.4829C8.99974 24.4309 9.15574 24.3789 9.31174 24.3789C9.83174 24.3789 10.3517 24.3789 10.8717 24.3789C11.0277 24.3789 11.1837 24.4309 11.3397 24.5349C11.4957 24.6389 11.5997 24.8469 11.5997 25.1069C11.5997 25.5229 11.5997 26.0429 11.5997 26.6149Z" fill="#2A3D90"/>
<path d="M30.3717 20.0113C30.3717 20.4273 30.0077 20.6873 29.5397 20.6873C29.1237 20.6873 28.7077 20.6873 28.2397 20.6873C27.6677 20.6873 27.3557 20.3753 27.3557 19.8033C27.3557 19.6473 27.3557 19.4913 27.3557 19.3353V18.9193C27.3557 18.7633 27.3557 18.5553 27.3557 18.3993C27.3557 18.1913 27.4597 17.9833 27.6157 17.8793C27.7197 17.8273 27.8757 17.7753 28.0317 17.7753C28.6037 17.7233 29.1757 17.7233 29.6957 17.7753C29.8517 17.7753 29.9557 17.8273 30.0597 17.8793C30.2157 17.9833 30.3197 18.1913 30.3717 18.3993C30.4237 18.9713 30.4237 19.4913 30.3717 20.0113Z" fill="#2A3D90"/>
<path d="M37.9117 18.5041C37.9117 18.6601 37.9117 18.8681 37.9117 19.0241V19.4401C37.9117 19.5961 37.9117 19.7521 37.9117 19.9081C37.9117 20.4801 37.5998 20.7401 37.0798 20.7921C36.6638 20.7921 36.2478 20.7921 35.7798 20.7921C35.2078 20.7921 34.8958 20.4801 34.8958 19.9081C34.8958 19.4401 34.8958 19.0241 34.8958 18.5561C34.8958 18.2961 34.9998 18.0361 35.2078 17.9321C35.3118 17.8801 35.4678 17.8281 35.6758 17.8281C36.1958 17.8281 36.7157 17.8281 37.1837 17.8281C37.3917 17.8281 37.5477 17.8801 37.7037 17.9841C37.8597 18.0361 37.9117 18.2961 37.9117 18.5041Z" fill="#2A3D90"/>
<path d="M11.6 19.9593C11.6 20.3753 11.288 20.6873 10.82 20.6873C10.352 20.6873 9.83198 20.6873 9.36398 20.6873C8.89598 20.6873 8.58398 20.3753 8.58398 19.8553V18.9193C8.58398 18.7633 8.58398 18.5553 8.58398 18.3993C8.58398 18.1913 8.68798 17.9833 8.89598 17.8273C8.89598 17.8273 8.89598 17.8273 8.94798 17.8273C9.05198 17.7753 9.15598 17.7753 9.25998 17.7753C9.83198 17.7233 10.404 17.7233 10.924 17.7753C11.08 17.7753 11.184 17.8273 11.288 17.8793C11.444 17.9833 11.548 18.1913 11.6 18.4513C11.6 18.9713 11.6 19.4913 11.6 19.9593Z" fill="#2A3D90"/>
</svg>
