<svg width="80" height="80" viewBox="0 0 80 80" fill="none" xmlns="http://www.w3.org/2000/svg">
<path d="M34.7018 64.9165H22.4852C18.1518 64.9165 14.6185 61.9165 14.6185 58.2499V16.5499C14.6185 12.8665 18.1518 9.86654 22.4852 9.86654H46.9185C51.2518 9.86654 54.7852 12.8665 54.7852 16.5499V26.8332C54.7852 27.7499 55.5352 28.4999 56.4518 28.4999C57.3685 28.4999 58.1185 27.7499 58.1185 26.8332V16.5499C58.1185 11.0332 53.1018 6.5332 46.9185 6.5332H22.4852C16.3018 6.5332 11.2852 11.0165 11.2852 16.5499V58.2332C11.2852 63.7499 16.3018 68.2332 22.4852 68.2332H34.7018C35.6185 68.2332 36.3685 67.4832 36.3685 66.5665C36.3685 65.6499 35.6185 64.8999 34.7018 64.8999V64.9165Z" fill="#2B3990"/>
<path d="M74.2503 51.9664C72.7336 48.0664 69.9003 45.8164 66.5003 45.8164C63.1003 45.8164 61.1003 47.0664 59.6336 47.9664C57.8169 49.0831 57.5003 49.0831 55.6836 47.9664C54.2169 47.0664 52.2169 45.8164 48.8169 45.8164C45.4169 45.8164 42.5836 48.0497 41.0669 51.9664C38.7003 58.0497 39.6503 67.7664 44.8503 72.5497C48.1836 75.6164 52.7003 76.0831 57.6503 73.8997C59.7003 74.7997 61.6669 75.2497 63.5169 75.2497C66.1336 75.2497 68.5003 74.3497 70.4503 72.5497C75.6503 67.7664 76.6169 58.0497 74.2336 51.9664H74.2503ZM68.2003 70.0997C65.7169 72.3831 62.4169 72.5331 58.3836 70.5664C57.9169 70.3497 57.3836 70.3497 56.9169 70.5664C52.8836 72.5331 49.5836 72.3831 47.1003 70.0997C43.0836 66.3997 42.2336 58.1164 44.1669 53.1831C44.8836 51.3497 46.2669 49.1664 48.8169 49.1664C51.3669 49.1664 52.6169 49.9997 53.9169 50.8164C55.0169 51.4997 56.1503 52.1997 57.6503 52.1997C59.1503 52.1997 60.2836 51.4997 61.3836 50.8164C62.7003 49.9997 64.0503 49.1664 66.4836 49.1664C68.9169 49.1664 70.4169 51.3497 71.1336 53.1831C73.0503 58.1164 72.2169 66.3997 68.2003 70.0997Z" fill="#2B3990"/>
<path d="M56.4498 38.767C55.5332 37.4337 54.4665 36.2504 53.2832 35.4504C52.5165 34.9337 51.4832 35.1337 50.9665 35.9004C50.4498 36.667 50.6498 37.7004 51.4165 38.217C53.9332 39.917 55.9832 44.417 55.9832 46.4504C55.9832 47.367 56.7332 48.117 57.6498 48.117C58.5665 48.117 59.3165 47.367 59.3165 46.4504C59.3165 46.3004 59.2832 46.117 59.2665 45.967C59.5332 46.0004 59.7998 46.0504 60.0665 46.0504C61.2832 46.0504 62.4498 45.767 63.5165 45.217C66.1998 43.817 68.2165 40.6837 69.1998 36.3837C69.3165 35.9004 69.1998 35.417 68.9165 35.017C68.6332 34.617 68.1832 34.3837 67.6998 34.3504C63.2998 34.0504 59.7165 35.067 57.5998 37.217C57.1332 37.6837 56.7665 38.217 56.4498 38.7837V38.767ZM59.9665 39.5337C61.0665 38.417 62.9832 37.7504 65.3665 37.6337C64.5498 39.8837 63.3665 41.517 61.9665 42.2504C61.0165 42.7504 59.9498 42.8504 58.7332 42.5337C58.7998 41.2837 59.1998 40.3004 59.9498 39.5337H59.9665Z" fill="#2B3990"/>
<path d="M48.3013 16.1338H21.0846C20.168 16.1338 19.418 16.8838 19.418 17.8005C19.418 18.7171 20.168 19.4671 21.0846 19.4671H48.318C49.2346 19.4671 49.9846 18.7171 49.9846 17.8005C49.9846 16.8838 49.2346 16.1338 48.318 16.1338H48.3013Z" fill="#2B3990"/>
<path d="M49.968 25.8337C49.968 24.917 49.218 24.167 48.3013 24.167H21.0846C20.168 24.167 19.418 24.917 19.418 25.8337C19.418 26.7503 20.168 27.5003 21.0846 27.5003H48.318C49.2346 27.5003 49.9846 26.7503 49.9846 25.8337H49.968Z" fill="#2B3990"/>
<path d="M41.1013 32.1836H21.0846C20.168 32.1836 19.418 32.9336 19.418 33.8503C19.418 34.7669 20.168 35.5169 21.0846 35.5169H41.1013C42.018 35.5169 42.768 34.7669 42.768 33.8503C42.768 32.9336 42.018 32.1836 41.1013 32.1836Z" fill="#2B3990"/>
<path d="M41.1013 39.9668H21.0846C20.168 39.9668 19.418 40.7168 19.418 41.6335C19.418 42.5501 20.168 43.3001 21.0846 43.3001H41.1013C42.018 43.3001 42.768 42.5501 42.768 41.6335C42.768 40.7168 42.018 39.9668 41.1013 39.9668Z" fill="#2B3990"/>
</svg>
