<svg width="80" height="80" viewBox="0 0 80 80" fill="none" xmlns="http://www.w3.org/2000/svg">
<path d="M15.8506 31.0605C15.9405 30.9255 16.1256 30.8854 16.2656 30.9756V30.9766C16.404 31.0686 16.4411 31.2551 16.3496 31.3926C13.6318 35.4809 14.4198 40.0898 14.7744 44.6807C15.1675 49.8183 13.9075 54.9329 11.2354 59.083C8.36371 63.5436 7.80939 68.9934 9.70801 74.0264C9.76646 74.1811 9.68785 74.3532 9.53223 74.4121C9.49631 74.4251 9.46053 74.4326 9.42676 74.4326C9.33514 74.4325 9.24883 74.3903 9.19238 74.3193L9.14648 74.2383C7.17695 69.0173 7.75663 63.3777 10.7314 58.7578C13.2573 54.8345 14.4811 50.0364 14.207 45.1963L14.1758 44.7275C13.8023 39.8022 13.0603 35.2584 15.8506 31.0615V31.0605Z" fill="#2B3990" stroke="#2B3990"/>
<path d="M20.7168 30.1562C20.8314 30.1742 23.0632 30.5483 24.6709 32.752C26.1693 34.8062 26.6622 37.7638 26.0234 41.627L25.1318 45.9746L25.1152 46.0586L25.127 46.1426C25.2573 47.0946 26.1642 53.3296 28.1494 57.2725C28.6896 58.3446 29.6774 59.144 30.9033 59.5449V59.5459C32.2861 60.001 33.3979 60.8897 34.126 62.0039L34.127 62.0059C34.1346 62.0175 34.1399 62.0279 34.1436 62.0361L34.2432 62.2686C35.1503 64.6014 33.5305 66.9752 30.8975 66.8555H30.8838C30.8702 66.8554 30.6933 66.861 30.3955 66.7959C30.0924 66.7296 29.6622 66.5881 29.1719 66.2861C28.1982 65.6864 26.938 64.4213 25.9912 61.7236L25.9424 61.5977C25.8366 61.349 25.6844 61.1249 25.4863 60.9492L25.3838 60.8662L25.0781 60.6318C23.3744 59.2939 19.1338 55.4289 17.9336 49.4102L17.9287 49.3896C17.9287 49.3751 17.9299 49.3521 17.9307 49.3174C17.9348 49.1391 17.951 48.7492 17.9893 47.8545L18.5645 34.2793C18.5682 34.193 18.6081 34.112 18.667 34.0566C18.7238 34.0033 18.7865 33.9839 18.8457 33.9902L18.877 33.9922C19.0219 33.9983 19.1389 34.1066 19.1611 34.2441L19.1641 34.3047L18.5322 49.2676L18.5293 49.3291L18.542 49.3896C19.8121 55.5643 24.3754 59.3647 25.7422 60.3838V60.3848C26.0583 60.6204 26.3165 60.949 26.4893 61.3496L26.5576 61.5254C27.3437 63.7642 28.3307 64.9566 29.1904 65.5869C29.9382 66.135 30.5599 66.232 30.8047 66.249C30.8596 66.2587 30.9253 66.2673 31 66.2617C31.0073 66.2612 31.0138 66.2594 31.0195 66.2588C32.1384 66.2562 33.0144 65.7729 33.4971 65.0049C33.976 64.2426 34.0263 63.2651 33.6299 62.3555L33.6113 62.3145L33.5869 62.2764L33.458 62.0938C32.8411 61.2523 31.9757 60.582 30.9414 60.1953L30.7168 60.1162C29.309 59.6549 28.2143 58.7355 27.6133 57.542C26.529 55.3887 25.7617 52.6057 25.2598 50.3018C24.7597 48.0063 24.5309 46.2229 24.5137 46.085C24.5096 46.0522 24.5098 46.0181 24.5166 45.9844L25.4336 41.5186L25.4375 41.499C26.0169 37.9909 25.6483 35.1348 24.209 33.1367C22.7558 31.1201 20.7645 30.7717 20.6299 30.75H20.6289C20.4841 30.7265 20.3811 30.6049 20.374 30.4678L20.377 30.4082C20.4012 30.251 20.5459 30.1367 20.7168 30.1562Z" fill="#2B3990" stroke="#2B3990"/>
<path d="M55.6191 13.0479C56.1824 13.0479 56.7621 13.1892 57.3799 13.4912L57.6475 13.6309C61.7553 15.9057 65.6552 17.4229 69.5674 18.2588C70.3344 18.4225 70.9088 18.7582 71.3027 19.2207C71.6969 19.6835 71.9407 20.309 71.9863 21.1025C72.0066 21.4544 72.011 22.0521 72.0088 22.5869C72.0077 22.8518 72.0046 23.0976 72.002 23.2832C72.0007 23.3759 71.9992 23.4534 71.998 23.5107C71.9975 23.5394 71.9975 23.5627 71.9971 23.5801C71.9969 23.5888 71.9963 23.5964 71.9961 23.6016V23.6104C71.7455 29.6396 70.6601 34.9367 68.3447 39.4209C66.1058 43.757 62.7038 47.3586 57.7412 50.1328L57.2559 50.3984C56.7088 50.6918 56.178 50.8331 55.6318 50.8242C55.0832 50.8153 54.4858 50.6548 53.8105 50.2959C46.4327 46.373 41.8965 40.1494 40.3105 31.7617C39.665 28.3467 39.5439 24.8347 39.2949 21.3486C39.2354 20.5143 39.4397 19.8338 39.835 19.3242C40.231 18.8135 40.8522 18.4316 41.7021 18.2568C45.3756 17.5033 49.0305 16.1236 52.8467 14.0537L53.6123 13.6299C54.3176 13.2325 54.9759 13.0479 55.6191 13.0479ZM55.6152 13.6504C55.0287 13.6515 54.4727 13.8348 53.9072 14.1523H53.9062C49.7401 16.4989 45.7888 18.0308 41.8232 18.8438L41.8223 18.8447C41.1985 18.9734 40.6731 19.2314 40.3223 19.6748C39.9687 20.1219 39.8494 20.6847 39.8936 21.3047V21.3057C40.1345 24.6634 40.2593 28.2616 40.8994 31.6494C42.4456 39.8281 46.8903 45.9373 54.0928 49.7666V49.7656C54.5968 50.0341 55.0778 50.1986 55.5654 50.2197C56.0602 50.2411 56.5182 50.1126 56.9717 49.8682C62.0906 47.1186 65.5843 43.5161 67.8535 39.0996C70.1181 34.692 71.1487 29.5034 71.3955 23.6016L71.3965 23.5918V23.5811C71.3965 22.7817 71.434 21.9522 71.3877 21.1367L71.3691 20.917C71.3114 20.4147 71.1542 19.9707 70.8516 19.6133C70.548 19.2549 70.1373 19.0295 69.6533 18.8965L69.4414 18.8447C65.4847 17.9993 61.5324 16.4696 57.3564 14.1562C56.7687 13.8303 56.2014 13.6493 55.6152 13.6504Z" fill="#2B3990" stroke="#2B3990"/>
<path d="M54.6855 19.0908C55.5408 18.7282 56.1352 18.8871 56.7158 19.1377C62.9367 21.8238 64.7822 22.4432 65.0811 22.5625L65.0938 22.5674C66.0566 22.9238 66.381 23.156 66.5371 23.4609C66.6201 23.623 66.6766 23.847 66.6992 24.2021C66.7216 24.5548 66.7091 24.9983 66.6807 25.5869L66.6797 25.6084V25.6191C66.1695 33.9252 63.434 40.4147 56.5146 44.7197C56.1818 44.9268 55.8996 44.9984 55.6406 44.9902C55.376 44.9818 55.0868 44.8881 54.7471 44.6846H54.7461C49.7366 41.7012 46.6669 37.1698 45.3867 30.7842L45.2686 30.1602C44.9548 28.4067 44.8539 26.6925 44.6719 24.9189L44.5879 24.1553C44.5239 23.6136 44.692 23.3188 44.8809 23.1318C45.0956 22.9194 45.3763 22.8065 45.6055 22.7188C48.1336 21.7558 50.4364 20.8482 52.585 19.9658L54.6855 19.0908ZM55.8984 19.5029C55.51 19.4317 55.2267 19.5136 54.9199 19.6426H54.918C52.8609 20.5131 50.6728 21.3998 48.2812 22.332L45.8193 23.2812C45.5933 23.367 45.4642 23.4327 45.3818 23.4902L45.0762 23.7041L45.1943 24.0586C45.186 24.0337 45.1949 24.0596 45.2119 24.2061C45.2259 24.3268 45.2415 24.4909 45.2598 24.6924C45.2992 25.1274 45.3372 25.5967 45.3945 26.2314C45.5026 27.428 45.6516 28.8932 45.8594 30.0547C47.0191 36.5301 50.0218 41.1708 55.0537 44.1689C55.2171 44.2667 55.4277 44.3882 55.6641 44.3926C55.9237 44.3974 56.1252 44.2557 56.1953 44.2129L56.1982 44.21C58.9679 42.4865 61.2955 40.2928 63.0029 37.2822C64.7085 34.2747 65.7794 30.4806 66.0801 25.5801V25.5732C66.0956 25.2563 66.1135 24.8876 66.1162 24.5791C66.1176 24.4255 66.1153 24.2758 66.1055 24.1494C66.1006 24.0866 66.0934 24.02 66.0811 23.957C66.0709 23.9051 66.0494 23.8084 65.9941 23.7148L65.9717 23.6768L65.9424 23.6436L65.8867 23.5869C65.8301 23.5364 65.774 23.5037 65.749 23.4893C65.6997 23.4606 65.6449 23.4334 65.5928 23.4092C65.4876 23.3602 65.3615 23.3081 65.2402 23.2607C64.9998 23.1668 64.7358 23.0737 64.6504 23.042H64.6494C60.3529 21.434 58.2877 20.4763 57.1592 19.9736C56.613 19.7303 56.2233 19.5625 55.8984 19.5029Z" fill="#2B3990" stroke="#2B3990"/>
<path d="M55.96 27.7441C57.2044 26.7514 59.0158 26.8317 60.1572 27.9727V27.9717C61.3478 29.1631 61.3767 31.0809 60.2686 32.3096L60.1572 32.4268V32.4277C60.14 32.445 60.1063 32.4786 60.0586 32.5264C59.9633 32.6219 59.8115 32.774 59.6211 32.9648C59.2401 33.3467 58.7041 33.8835 58.1562 34.4326C57.0639 35.5275 55.9229 36.6707 55.8633 36.7305C55.7462 36.8475 55.5566 36.8476 55.4395 36.7305L51.1357 32.4268C49.9081 31.1991 49.9082 29.2003 51.1357 27.9727V27.9717C52.2292 26.8771 54.1425 26.7867 55.335 27.7432L55.6465 27.9932L55.96 27.7441ZM59.7334 28.3965C58.7391 27.4011 57.1212 27.401 56.127 28.3965L56.1279 28.3975C56.0646 28.4554 56.0063 28.5185 55.9746 28.5537C55.9264 28.6073 55.8913 28.6449 55.8545 28.6768C55.7983 28.7253 55.749 28.7509 55.6758 28.7559C55.5327 28.7398 55.472 28.6986 55.4307 28.6631C55.3984 28.6353 55.3701 28.6039 55.3203 28.5488C55.2877 28.5128 55.2321 28.4547 55.165 28.3965C54.1739 27.4067 52.5466 27.4081 51.5596 28.3965C50.5653 29.3906 50.5658 31.0079 51.5596 32.002L55.2979 35.7412L55.6514 36.0947L56.0049 35.7402L59.7236 32.0117C60.7446 30.9907 60.7051 29.3695 59.7334 28.3965ZM60.5107 32.7803L60.3682 32.9229C60.2609 32.8221 60.1771 32.671 60.1709 32.4404L60.5107 32.7803Z" fill="#2B3990" stroke="#2B3990"/>
<path d="M15.5674 8.62305C17.0283 6.46257 19.4788 5.36884 22.6221 5.5957C23.5377 5.66305 24.5249 5.86273 25.7373 6.23438C28.919 7.20938 31.1416 10.1324 31.2588 13.5137V13.5146C31.2646 13.6667 31.2662 13.773 31.2363 13.8867C31.1237 14.3097 31.1202 14.7231 31.2881 15.124C31.4507 15.5123 31.7507 15.8316 32.1318 16.1211V16.1221C32.2757 16.2318 32.4109 16.351 32.5381 16.4727L32.8965 16.8379C33.5889 17.5817 33.4854 18.6636 32.6514 19.2539L32.3828 19.4434L32.4512 19.7646C32.5862 20.4039 32.5066 21.098 32.1709 21.8887C32.1033 22.0474 32.0675 22.2613 32.0723 22.5566L32.0908 22.8799C32.1756 23.7852 31.9428 24.309 31.6426 24.6289C31.3271 24.965 30.8697 25.1475 30.3916 25.2354C29.8624 25.3327 29.3206 25.3588 28.8359 25.3604L28.373 25.3555H28.3594C27.7305 25.3594 27.0355 25.8399 26.666 26.6865C26.4232 27.2434 26.4138 27.8933 26.5605 28.4834C26.7078 29.0753 27.0237 29.6547 27.4922 30.0723C28.5382 31.0083 29.9748 31.7004 31.2949 32.4072C32.6505 33.133 33.9218 33.8901 34.8203 34.9717L34.8223 34.9746C34.8478 35.0049 35.3353 35.5941 35.7656 36.5186C36.1975 37.4464 36.5552 38.6764 36.3711 40.0029V40.0039C36.2233 41.0699 35.7761 41.8703 35.3701 42.5859C35.1739 42.9317 34.9685 43.2906 34.8438 43.6348C34.7147 43.991 34.6495 44.3902 34.7939 44.8066L34.8066 44.8447L34.8262 44.8799C34.8635 44.9492 34.921 45.017 34.9463 45.0469C34.985 45.0925 35.034 45.148 35.0898 45.209C35.2022 45.3317 35.3533 45.4911 35.5283 45.6729C35.8791 46.037 36.3354 46.4999 36.79 46.958C37.2404 47.4118 37.6967 47.8679 38.0508 48.2197L38.6982 48.8564C41.1092 51.0245 42.509 53.3468 43.0254 55.9619C43.928 60.532 42.972 63.8344 41.6436 66.2207C40.976 67.4199 40.2091 68.3959 39.5195 69.1934C39.1731 69.594 38.8515 69.9449 38.5645 70.2637C38.2837 70.5754 38.0287 70.865 37.8428 71.123C37.1783 72.0445 36.7757 72.8764 36.5332 73.416L36.5322 73.417C36.4741 73.5466 36.3338 73.6172 36.1934 73.5859L36.1338 73.5664C35.9841 73.497 35.9185 73.3201 35.9854 73.1719H35.9863C37.101 70.6871 38.1924 69.7981 39.2363 68.6123C42.3557 65.0692 43.399 60.9476 42.4365 56.0781C41.971 53.7192 40.7358 51.6225 38.7119 49.6875L38.2969 49.3027C38.1137 49.138 37.7226 48.744 37.001 48.0166H37C35.7256 46.7351 35.0602 46.0755 34.6855 45.668C34.5 45.4661 34.4044 45.3449 34.3457 45.2549C34.3194 45.2146 34.2987 45.1783 34.2803 45.1387L34.2275 45.0039C33.942 44.1821 34.1665 43.5471 34.5811 42.7764C34.983 42.0291 35.6136 41.0998 35.7773 39.9199C35.9491 38.6822 35.5867 37.5406 35.2021 36.7295C34.8306 35.9459 34.4169 35.4267 34.3594 35.3574H34.3604C33.4663 34.2816 32.1031 33.5194 30.7832 32.8154C29.4263 32.0917 28.0988 31.4215 27.0928 30.5205L27.0918 30.5195C25.9789 29.5273 25.5451 27.7567 26.1162 26.4473C26.6182 25.2976 27.5259 24.7726 28.4072 24.7549C29.3977 24.7783 30.0872 24.7296 30.5557 24.584C30.7991 24.5083 31.0145 24.3976 31.1816 24.2295C31.3549 24.0551 31.4442 23.8521 31.4844 23.6514C31.522 23.4629 31.5175 23.2722 31.5078 23.1123C31.5029 23.0306 31.4956 22.945 31.4893 22.8662C31.4827 22.785 31.4767 22.7059 31.4727 22.626C31.4568 22.3122 31.4734 21.997 31.6182 21.6553C31.9633 20.8428 32.0248 20.148 31.7178 19.4316L31.7168 19.4307C31.6585 19.2947 31.7081 19.1366 31.834 19.0576L31.833 19.0566L32.252 18.7998L32.2578 18.7959C32.4959 18.6438 32.6963 18.4044 32.7441 18.0898C32.7929 17.769 32.6674 17.4733 32.459 17.248L32.457 17.2461C32.2731 17.049 32.0326 16.8007 31.7705 16.6006L31.7686 16.5996C31.2182 16.1818 30.8746 15.7371 30.6992 15.2773C30.5253 14.8213 30.5023 14.3118 30.6562 13.7344L30.6758 13.6611L30.6729 13.5859C30.5503 10.4192 28.5091 7.71191 25.5615 6.80762H25.5605C24.5607 6.50162 23.7078 6.31092 22.915 6.22461L22.5791 6.19434L22.1738 6.17285C20.0988 6.10163 17.3601 6.62971 15.7803 9.41699C15.7119 9.53781 15.5687 9.59612 15.4346 9.55664C14.8888 9.3961 14.1112 9.21773 13.3604 9.11523C12.9845 9.06394 12.6053 9.02992 12.2607 9.0293C11.9253 9.02872 11.5835 9.05886 11.3008 9.1582C10.0487 9.59589 9.08802 10.9546 8.8916 12.373L8.8623 12.6572C8.75044 14.3659 9.7497 15.9975 11.3291 16.7354V16.7363C11.4554 16.7955 11.5244 16.9318 11.498 17.0654L11.4971 17.0693C11.4717 17.203 11.2374 18.5248 11.6035 20.165C11.9729 21.8202 12.9562 23.801 15.3555 25.1875V25.1865C15.5711 25.3127 15.8063 25.288 15.9707 25.2148C16.1232 25.1469 16.2653 25.0177 16.3398 24.835L16.3682 24.7539L17.3955 21.002L17.4258 20.8916L17.4053 20.7793C17.1505 19.3908 17.4108 18.5176 17.9873 18.0068L17.9863 18.0059C18.4333 17.6102 19.0332 17.4734 19.6367 17.4707C20.2367 17.468 20.7807 17.5995 21.0439 17.6768L21.1396 17.7051L21.2393 17.6943C21.9374 17.6177 22.5688 17.1625 23.1104 16.5889C23.6623 16.0043 24.1835 15.2307 24.6543 14.3867C25.4791 12.9082 26.1834 11.1555 26.6553 9.67773L26.8428 9.0625C26.8873 8.90909 27.0508 8.81416 27.2168 8.8584C27.3757 8.90645 27.4656 9.07256 27.4199 9.22949H27.4189C27.2834 9.69669 26.5883 11.9939 25.4443 14.1768C24.8718 15.2692 24.1996 16.3083 23.4473 17.0732C22.6979 17.8351 21.917 18.2767 21.1143 18.3027C21.0401 18.2989 21.0086 18.294 20.9912 18.2881L20.9883 18.2871C20.7054 18.1931 20.2499 18.0949 19.791 18.0771C19.56 18.0682 19.3112 18.0786 19.0752 18.1289C18.8421 18.1786 18.5895 18.2743 18.3828 18.458H18.3818C18.0884 18.7198 17.9635 19.1053 17.9238 19.4883C17.8834 19.8795 17.9236 20.3386 18.0283 20.8389V20.8398C18.0407 20.899 18.0383 20.889 18.0361 20.9053C18.0284 20.9626 18.0027 21.07 17.9287 21.3379C17.7865 21.8522 17.4955 22.8532 16.9463 24.9131C16.7229 25.7302 15.7851 26.1274 15.0537 25.7061H15.0527C10.8254 23.2618 10.7229 19.0489 10.8447 17.4941L10.8691 17.1875L10.6055 17.0283C9.16595 16.1544 8.2662 14.5916 8.25391 12.9482L8.26367 12.6182C8.38202 10.8017 9.60724 9.11426 11.1035 8.5918H11.1045C11.5973 8.41901 12.3078 8.40208 13.0674 8.47754C13.8116 8.5515 14.5396 8.70665 15.0332 8.82812L15.3721 8.91211L15.5674 8.62305Z" fill="#2B3990" stroke="#2B3990"/>
<path d="M39.1387 58.123C39.2453 57.9952 39.4354 57.9785 39.5615 58.083L39.5625 58.084C40.5484 58.9027 40.5409 60.6017 39.5488 61.4111C39.4924 61.4569 39.4261 61.4794 39.3604 61.4795C39.3129 61.4795 39.2922 61.4663 39.2725 61.4463C39.2431 61.4165 39.2062 61.3548 39.1836 61.2588C39.1614 61.1641 39.1598 61.0655 39.1738 60.9902C39.1854 60.9285 39.2005 60.9146 39.1934 60.9238C39.55 60.6172 39.6949 60.1548 39.6963 59.7471C39.6974 59.3822 39.5854 58.9716 39.3076 58.668L39.1787 58.5449C39.0519 58.4394 39.0334 58.2513 39.1387 58.123Z" fill="#2B3990" stroke="#2B3990"/>
</svg>
