<svg width="50" height="49" viewBox="0 0 50 49" fill="none" xmlns="http://www.w3.org/2000/svg">
<path d="M0.449692 39.942L1.55977 34.5332C1.74766 33.6197 2.32962 32.9115 3.20102 32.54L6.74454 31.0259C6.75368 31.0219 6.76282 31.0189 6.77095 31.015L8.37871 30.4153L8.37661 29.3375C7.32852 28.4689 6.55665 27.18 6.25399 25.654C5.62532 25.3761 5.19063 24.7495 5.19063 24.0513C5.19063 23.7196 5.2861 23.3988 5.46384 23.1219C5.04133 20.3338 6.01735 17.5348 7.88508 16.2459C9.48871 15.1382 11.6002 15.189 13.8549 16.3823C15.0727 16.0158 15.878 16.3564 16.3493 16.724C18.1297 18.1136 17.8534 21.8838 17.7092 23.11C17.892 23.3899 17.9905 23.7156 17.9905 24.0523C17.9905 24.7505 17.5559 25.3771 16.9272 25.655C16.6245 27.184 15.8496 28.4759 14.7974 29.3445V30.4153L16.4092 31.016C16.4184 31.0189 16.4275 31.0229 16.4356 31.0269L19.8441 32.4832C19.5069 31.8218 19.255 31.0927 19.1067 30.3117C18.3602 30.0099 17.8382 29.2808 17.8382 28.465C17.8382 28.0735 17.956 27.694 18.1734 27.3703C17.6523 24.0353 18.8102 20.6815 21.0354 19.1445C22.3923 18.2082 24.7191 17.499 28.1539 19.3417C29.6001 18.8915 30.5487 19.288 31.0982 19.7173C32.2977 20.6526 32.7029 22.5203 32.7984 24.2226C32.8938 22.4595 33.5905 20.8179 34.7534 19.6047L33.553 17.6862C33.4585 17.5348 33.4372 17.3505 33.4951 17.1822C33.553 17.0139 33.684 16.8794 33.8536 16.8166L38.883 14.9191C39.0241 14.8663 39.1795 14.8663 39.3207 14.9191L44.3491 16.8146C44.5177 16.8784 44.6497 17.0129 44.7076 17.1802C44.7655 17.3486 44.7441 17.5328 44.6497 17.6842L43.4492 19.6037C44.5725 20.7761 45.2591 22.347 45.3901 24.0423C45.4165 24.109 45.4307 24.1798 45.4307 24.2515C45.4317 24.3899 45.4256 24.5264 45.4144 24.6599C45.4124 25.5594 45.256 26.4329 44.9503 27.2587V30.7301C44.9503 31.261 44.6832 31.7312 44.2739 32.021L46.8221 33.1097C47.6366 33.4584 48.182 34.1208 48.3577 34.9754L49.3764 39.942C49.4119 40.1173 49.3662 40.2995 49.2505 40.438C49.1347 40.5765 48.962 40.6571 48.7792 40.6571H37.2762C37.3321 40.8115 37.3788 40.9709 37.4134 41.1373L38.753 47.6647C38.7885 47.84 38.7428 48.0223 38.627 48.1607C38.5112 48.2992 38.3386 48.3799 38.1558 48.3799H12.7103C12.5275 48.3799 12.3548 48.2992 12.2391 48.1607C12.1233 48.0223 12.0776 47.84 12.1131 47.6647L13.4527 41.1373C13.4873 40.9709 13.534 40.8105 13.5898 40.6571H1.04689C0.864072 40.6571 0.691412 40.5765 0.575632 40.438C0.459852 40.2995 0.413132 40.1173 0.449692 39.942ZM15.5886 17.6593C15.4962 17.5876 15.2809 17.4193 14.8553 17.4193C14.6339 17.4193 14.3556 17.4651 14.0093 17.5936C13.8387 17.6563 13.6487 17.6414 13.4903 17.5528C11.5515 16.461 9.85541 16.3465 8.58591 17.224C7.12032 18.2361 6.34946 20.4753 6.64501 22.7703C6.74251 22.7723 6.80649 22.7554 6.83899 22.7304C6.94157 22.6508 7.04719 22.337 7.00962 21.7124C6.99743 21.5212 7.08071 21.3359 7.23204 21.2144C7.38337 21.0929 7.58446 21.05 7.77337 21.0988C10.6181 21.836 12.7113 21.2981 14.1718 19.4533C14.3282 19.2561 14.5933 19.1744 14.836 19.2501C15.0787 19.3248 15.2484 19.541 15.2616 19.79C15.3408 21.323 15.7237 22.1637 16.5453 22.5183C16.7159 20.553 16.4996 18.3696 15.5886 17.6593ZM15.7826 25.1111C15.8202 24.8511 16.0253 24.6459 16.2894 24.6041C16.5636 24.5603 16.7698 24.3232 16.7698 24.0513C16.7698 23.9696 16.7495 23.8909 16.7139 23.8172C15.0574 23.4636 14.443 22.2095 14.2033 21.1546C12.6585 22.4715 10.6496 22.8978 8.20911 22.4227C8.14101 22.9904 7.93688 23.3998 7.5936 23.6668C7.33766 23.865 7.02688 23.9646 6.66633 23.9646C6.5861 23.9646 6.50282 23.9576 6.41751 23.9477C6.41142 23.9815 6.40735 24.0154 6.40735 24.0503C6.40735 24.3222 6.61352 24.5603 6.88774 24.6031C7.1518 24.6449 7.35696 24.8501 7.39454 25.1101C7.60375 26.5634 8.31161 27.7796 9.28871 28.5267C9.32831 28.5496 9.36591 28.5765 9.39941 28.6074C10.0412 29.0656 10.7918 29.3276 11.588 29.3276C12.3812 29.3276 13.1287 29.0686 13.7696 28.6124C13.8031 28.5815 13.8397 28.5546 13.8793 28.5327C14.8614 27.7866 15.5734 26.5684 15.7826 25.1111ZM11.5891 30.5239C10.8873 30.5239 10.2149 30.3735 9.59541 30.0976L9.59641 30.5946C10.3134 31.3636 10.9969 31.7531 11.6307 31.7531C11.6388 31.7531 11.6469 31.7531 11.6541 31.7531C12.2716 31.7431 12.9175 31.3586 13.5766 30.6096V30.0996C12.9591 30.3735 12.2888 30.5239 11.5891 30.5239ZM27.9599 35.5681C27.1819 35.9436 26.3278 36.1508 25.4341 36.1508C24.5383 36.1508 23.6821 35.9426 22.9021 35.5651L22.9041 36.4078C23.8172 37.3979 24.6947 37.891 25.5163 37.882C26.3085 37.8701 27.1302 37.379 27.9599 36.4228V35.5681ZM21.6681 34.7742L21.6813 34.84V34.7852C21.6773 34.7812 21.6722 34.7772 21.6681 34.7742ZM19.7415 29.2539C20.0055 29.2957 20.2107 29.5009 20.2483 29.7609C20.5052 31.5499 21.3797 33.047 22.5873 33.9684C22.633 33.9933 22.6746 34.0242 22.7122 34.059C23.5095 34.6308 24.4428 34.9565 25.4341 34.9565C26.4223 34.9565 27.3516 34.6328 28.1478 34.065C28.1854 34.0301 28.227 33.9993 28.2717 33.9744C29.4834 33.054 30.3619 31.5538 30.6198 29.7609C30.6574 29.5009 30.8626 29.2957 31.1266 29.2539C31.5177 29.1921 31.8122 28.8524 31.8122 28.464C31.8122 28.3265 31.7746 28.192 31.7066 28.0735C29.6834 27.6741 28.9481 26.1959 28.6719 24.7296C26.7879 26.4309 24.2976 26.9748 21.2436 26.3503C21.1816 27.0714 20.947 27.5824 20.5337 27.9032C20.2473 28.1253 19.8989 28.2359 19.4916 28.2359C19.3667 28.2359 19.2367 28.2249 19.1006 28.204C19.0712 28.2867 19.0549 28.3753 19.0549 28.464C19.0559 28.8524 19.3505 29.1911 19.7415 29.2539ZM30.3395 20.6516C30.0673 20.4394 29.7464 20.3338 29.3696 20.3338C29.0558 20.3338 28.7044 20.4066 28.3103 20.553C28.1397 20.6157 27.9498 20.6008 27.7913 20.5121C25.4056 19.1684 23.3124 19.0329 21.7362 20.1207C19.9091 21.3827 18.9574 24.1828 19.3545 27.0306C19.517 27.0495 19.6795 27.0415 19.7791 26.9638C19.8542 26.9061 20.0939 26.6381 20.0319 25.6311C20.0198 25.4398 20.103 25.2545 20.2544 25.133C20.4057 25.0115 20.6068 24.9687 20.7957 25.0175C24.2834 25.9219 26.8529 25.2575 28.6495 22.9874C28.8059 22.7902 29.071 22.7085 29.3137 22.7842C29.5565 22.8589 29.7271 23.0751 29.7393 23.3241C29.8429 25.3303 30.371 26.3851 31.5248 26.7875C31.7614 24.3431 31.5004 21.5571 30.3395 20.6516ZM31.7624 30.3107C31.408 32.1764 30.4634 33.7492 29.1777 34.7921V36.2285L29.5555 36.369L29.8419 34.9754C30.0176 34.1208 30.563 33.4584 31.3775 33.1097L33.9257 32.021C33.5174 31.7312 33.2493 31.261 33.2493 30.7301V27.2597C33.0238 26.6501 32.8796 26.0136 32.8197 25.3601C32.8075 26.2038 32.7384 26.927 32.6877 27.3573C32.9111 27.684 33.0309 28.0675 33.0309 28.464C33.0309 29.2788 32.5099 30.0079 31.7624 30.3107ZM28.9542 41.9401C28.4748 41.9401 28.0848 42.3226 28.0848 42.7928C28.0848 43.2629 28.4748 43.6454 28.9542 43.6454C29.4336 43.6454 29.8236 43.2629 29.8236 42.7928C29.8236 42.3226 29.4336 41.9401 28.9542 41.9401ZM34.0476 24.8581C34.1634 25.6141 34.5523 26.2307 35.2074 26.6969C35.312 26.7716 35.3902 26.8772 35.4298 26.9977C36.0118 28.7757 37.4875 29.9701 39.1013 29.9701C40.7243 29.9701 42.202 28.7668 42.7799 26.9748C42.8185 26.8543 42.8947 26.7497 42.9983 26.675C43.6442 26.2058 44.0342 25.5972 44.1652 24.8621C41.4251 24.8621 39.1866 24.3541 37.4702 22.3808C36.8934 23.9895 35.5436 24.5722 34.0476 24.8581ZM34.4691 27.8882V30.7291C34.4691 30.9452 34.6549 31.1275 34.8753 31.1275H36.1032L36.0981 30.0667C35.4136 29.5109 34.8479 28.7678 34.4691 27.8882ZM43.7326 27.8892C43.3517 28.7718 42.783 29.5178 42.0954 30.0746V31.1275H43.3273C43.5477 31.1275 43.7336 30.9452 43.7336 30.7291L43.7326 27.8892ZM40.8766 30.8058C40.317 31.0399 39.7178 31.1664 39.1003 31.1664C38.4818 31.1664 37.8805 31.0389 37.3199 30.8028L37.323 31.3516C37.9659 32.037 38.5762 32.3846 39.1399 32.3846C39.147 32.3846 39.1541 32.3846 39.1612 32.3846C39.7097 32.3766 40.2866 32.033 40.8777 31.3646V30.8058H40.8766ZM34.0841 23.6279C35.7894 23.2434 36.413 22.5113 36.5287 20.9136C36.4089 20.9445 36.2901 20.9783 36.1723 21.0132C36.1134 21.0311 36.0534 21.0391 35.9935 21.0391C35.7853 21.0391 35.5873 20.9345 35.4745 20.7542L35.4197 20.6665C34.7209 21.4893 34.2588 22.5143 34.0841 23.6279ZM39.1013 16.1154L34.9748 17.6723L36.0473 19.3866L36.0484 19.3886L36.2718 19.7452C37.0335 19.5509 37.8094 19.4394 38.5966 19.4085C38.5305 19.3129 38.4919 19.1983 38.4919 19.0738V18.5568H37.9648C37.6287 18.5568 37.3555 18.2889 37.3555 17.9592C37.3555 17.6295 37.6287 17.3615 37.9648 17.3615H38.4919V16.8445C38.4919 16.5148 38.7652 16.2469 39.1013 16.2469C39.4375 16.2469 39.7107 16.5148 39.7107 16.8445V17.3615H40.2378C40.574 17.3615 40.8472 17.6295 40.8472 17.9592C40.8472 18.2889 40.574 18.5568 40.2378 18.5568H39.7107V19.0738C39.7107 19.2003 39.6701 19.3168 39.602 19.4135C40.3688 19.4503 41.1437 19.5629 41.9268 19.7521L42.1543 19.3886L42.1553 19.3876L43.2278 17.6733L39.1013 16.1154ZM42.7281 20.7552C42.5849 20.9833 42.3056 21.0909 42.0426 21.0172C40.5659 20.6068 39.1176 20.4962 37.7191 20.6815C39.2242 23.0801 41.3073 23.6618 44.1236 23.6658C43.954 22.5372 43.4878 21.4973 42.7819 20.6665L42.7281 20.7552ZM47.1654 35.2105C47.0699 34.7433 46.7835 34.3957 46.3377 34.2054L43.0978 32.8209L41.7633 32.3228H41.6363C40.8553 33.1426 40.0316 33.565 39.1816 33.5779C38.3061 33.5899 37.4347 33.1685 36.5866 32.3228H36.4414L35.1059 32.8209L31.866 34.2054C31.4202 34.3957 31.1337 34.7433 31.0383 35.2105L30.7123 36.7993L31.2059 36.9836C31.215 36.9865 31.2241 36.9905 31.2323 36.9945L35.508 38.8213C35.8869 38.9827 36.218 39.1989 36.4962 39.4618H48.0368L47.1654 35.2105ZM37.4123 47.1855L36.22 41.3733C36.0809 40.696 35.6665 40.193 35.0205 39.917L31.3094 38.3313C31.3379 38.5624 31.3521 38.7964 31.3521 39.0315C31.3521 39.9559 31.1287 40.8623 30.7021 41.6781C30.9164 41.9999 31.0413 42.3824 31.0413 42.7938C31.0413 43.9233 30.1049 44.8417 28.9532 44.8417C27.8015 44.8417 26.8651 43.9233 26.8651 42.7938C26.8651 41.6642 27.8015 40.7458 28.9532 40.7458C29.2284 40.7458 29.4915 40.7996 29.7322 40.8952C29.9952 40.3115 30.1334 39.677 30.1334 39.0315C30.1334 38.6122 30.0755 38.1988 29.9627 37.7994L28.7541 37.3491C27.7253 38.4797 26.6437 39.0604 25.5346 39.0783C24.393 39.1003 23.2464 38.5136 22.1252 37.3451L20.9044 37.8004C20.8637 37.9428 20.8302 38.0872 20.8048 38.2337C21.2152 38.136 21.6427 38.1938 22.0124 38.401C22.3963 38.6162 22.6716 38.9638 22.7873 39.3812L23.8578 43.235C24.0975 44.0967 23.5765 44.9892 22.698 45.2242C22.373 45.3109 22.0378 45.1236 21.9494 44.8049C21.8611 44.4861 22.052 44.1574 22.377 44.0708C22.6076 44.009 22.7447 43.7749 22.6817 43.5488L21.6112 39.6949C21.5808 39.5863 21.5087 39.4957 21.4071 39.4389C21.3055 39.3821 21.1887 39.3672 21.0791 39.3971L19.4906 39.8214C19.2601 39.8832 19.123 40.1173 19.1859 40.3434L20.2564 44.1973C20.2869 44.3058 20.359 44.3965 20.4605 44.4533C20.5621 44.51 20.6779 44.525 20.7886 44.4951C21.1136 44.4084 21.4487 44.5957 21.5371 44.9145C21.6255 45.2332 21.4345 45.5619 21.1095 45.6486C20.9663 45.6864 20.8201 45.7063 20.6748 45.7063C20.3905 45.7063 20.1102 45.6336 19.8562 45.4912C19.4723 45.276 19.1971 44.9284 19.0813 44.511L18.0109 40.6571C17.7712 39.7955 18.2922 38.903 19.1707 38.6679L19.5343 38.5703C19.5404 38.4906 19.5485 38.411 19.5587 38.3323L15.8476 39.918C15.2016 40.194 14.7873 40.698 14.6481 41.3743L13.4558 47.1855H37.4123ZM14.3719 39.4618C14.6502 39.1989 14.9812 38.9827 15.3601 38.8213L19.6359 36.9945C19.645 36.9905 19.6541 36.9875 19.6623 36.9836L20.7906 36.5632L20.423 34.7692C20.3153 34.2423 19.9923 33.8508 19.4896 33.6357L15.9593 32.1276L14.3678 31.5339C13.5096 32.4583 12.6047 32.9334 11.6713 32.9484C10.7126 32.9603 9.75181 32.4862 8.81741 31.5299L7.21376 32.1276L3.68446 33.6357C3.18173 33.8498 2.85977 34.2423 2.7511 34.7692L1.78829 39.4628L14.3719 39.4618ZM24.9141 17.0159C20.2341 17.0159 16.4275 13.2815 16.4275 8.6925C16.4275 4.1035 20.2341 0.369141 24.9141 0.369141C29.5941 0.369141 33.4006 4.1025 33.4006 8.6925C33.4006 13.2825 29.593 17.0159 24.9141 17.0159ZM24.9141 1.56445C20.9064 1.56445 17.6462 4.76191 17.6462 8.6925C17.6462 12.6231 20.9064 15.8205 24.9141 15.8205C28.9217 15.8205 32.1819 12.6231 32.1819 8.6925C32.1819 4.76191 28.9217 1.56445 24.9141 1.56445Z" fill="#30378E"/>
</svg>
