<svg width="53" height="52" viewBox="0 0 53 52" fill="none" xmlns="http://www.w3.org/2000/svg">
<path d="M26.5626 5.14801C26.8226 5.25201 27.1346 5.30401 27.3946 5.46001C28.5906 6.03201 29.2666 7.02001 29.2666 8.32001C29.2666 20.124 29.2666 31.876 29.2666 43.68C29.2666 45.448 27.8106 46.904 26.0426 46.904C20.3746 46.904 14.6546 46.904 8.98664 46.904C7.53064 46.904 6.28264 45.916 5.91864 44.512C5.86664 44.408 5.81464 44.304 5.81464 44.2C5.81464 32.084 5.81464 19.968 5.81464 7.85201C6.02264 7.07201 6.38664 6.29201 7.06264 5.82401C7.47864 5.56401 7.99864 5.35601 8.46664 5.14801C14.4986 5.14801 20.5306 5.14801 26.5626 5.14801ZM27.9666 35.256C27.9666 35.1 27.9666 34.996 27.9666 34.892C27.9666 26.104 27.9666 17.316 27.9666 8.52801C27.9666 7.22801 27.1866 6.44801 25.8346 6.44801C20.3226 6.44801 14.7586 6.44801 9.24664 6.44801C7.84264 6.44801 7.06264 7.22801 7.06264 8.63201C7.06264 17.42 7.06264 26.156 7.06264 34.944C7.06264 35.048 7.06264 35.204 7.06264 35.308C8.67464 32.396 11.1706 30.472 14.2906 29.38C14.2906 29.328 14.2906 29.328 14.2386 29.328C14.1866 29.276 14.1346 29.276 14.1346 29.224C12.2626 27.924 11.3266 26.156 11.3266 23.816C11.3266 21.216 11.3266 18.616 11.3266 16.016C11.3266 14.092 12.7826 12.584 14.7066 12.584C16.5786 12.584 18.3986 12.584 20.2706 12.584C22.2466 12.584 23.7026 14.04 23.7026 16.016C23.7026 18.616 23.7026 21.216 23.7026 23.816C23.7026 26.052 22.7666 27.768 20.9986 29.12C20.9466 29.172 20.8426 29.224 20.7906 29.328C23.9626 30.316 26.2506 32.396 27.9666 35.256ZM14.9146 39.988C14.9146 38.792 14.9146 37.544 14.9146 36.348C14.9146 35.464 14.2386 34.84 13.3546 34.788C12.4706 34.736 11.6906 35.308 11.6386 36.192C11.5866 37.44 11.6386 38.688 11.6386 39.988C12.1586 40.144 12.3146 40.404 12.2626 40.768C12.2106 41.132 11.9506 41.34 11.4306 41.34C11.3266 41.34 11.2226 41.34 11.1186 41.34C10.5466 41.34 10.3386 41.132 10.2866 40.508C10.2866 39.156 10.2866 37.804 10.2866 36.452C10.2866 35.048 11.0666 34.008 12.4706 33.592C12.5746 33.54 12.7306 33.54 12.7306 33.436C12.9386 32.656 13.1986 31.928 13.4066 31.096C13.3026 31.148 13.2506 31.148 13.1986 31.2C9.87064 32.864 7.84264 35.516 7.27064 39.156C7.06264 40.508 7.11464 41.964 7.11464 43.316C7.06264 44.772 7.89464 45.552 9.29864 45.552C14.3946 45.552 19.4386 45.552 24.5346 45.552C25.0546 45.552 25.5226 45.552 26.0426 45.552C27.1346 45.5 27.9666 44.668 27.9666 43.576C27.9666 42.64 27.9666 41.652 27.9666 40.716C27.9146 37.648 26.7706 34.996 24.4826 32.916C23.9626 32.448 23.3906 32.032 22.7146 31.564C22.9226 32.552 23.1306 33.384 23.2866 34.268C23.3386 34.476 23.3906 34.58 23.5986 34.684C24.6386 35.1 25.1586 35.984 25.1066 37.128C25.0546 38.48 23.7546 39.52 22.5066 39.364C21.0506 39.156 20.1146 37.856 20.3746 36.504C20.5826 35.568 21.1546 34.944 22.0386 34.632C21.8306 33.384 21.6226 32.188 21.0506 31.096C20.9986 30.992 20.8426 30.836 20.7386 30.784C19.0226 30.316 17.2546 30.056 15.4866 30.472C15.3306 30.524 15.1746 30.628 15.1226 30.784C14.7586 31.72 14.4466 32.656 14.1346 33.488C14.1866 33.592 14.2386 33.592 14.2386 33.592C14.3426 33.644 14.4466 33.696 14.5506 33.748C15.5386 34.216 16.1626 34.944 16.2146 36.036C16.3186 37.596 16.2666 39.156 16.2146 40.716C16.2146 41.08 15.9546 41.288 15.5906 41.34C14.7586 41.392 14.3426 41.236 14.2906 40.82C14.2386 40.508 14.3426 40.248 14.6026 40.092C14.7066 40.04 14.8106 40.04 14.9146 39.988ZM12.6266 20.488C12.6266 21.684 12.6266 22.88 12.6266 24.024C12.6266 24.232 12.6786 24.44 12.6786 24.648C12.9906 26.988 15.1746 28.912 17.5146 28.912C19.8546 28.912 22.0906 26.988 22.2986 24.648C22.4026 23.296 22.3506 21.892 22.4026 20.54L22.3506 20.488C19.1266 20.488 15.9026 20.488 12.6266 20.488ZM22.4026 19.136C22.4026 18.98 22.4026 18.824 22.4026 18.668C22.4026 17.732 22.4546 16.796 22.4026 15.86C22.3506 14.768 21.4666 13.936 20.3746 13.936C18.4506 13.936 16.5786 13.936 14.6546 13.936C13.6666 13.936 12.8866 14.612 12.6786 15.548C12.5746 16.068 12.6266 16.588 12.6266 17.108C12.6266 17.784 12.6266 18.46 12.6266 19.136C15.9026 19.136 19.1266 19.136 22.4026 19.136ZM23.8586 36.92C23.8586 36.296 23.3906 35.828 22.7666 35.828C22.1426 35.828 21.6746 36.296 21.6746 36.92C21.6746 37.544 22.1426 38.012 22.7666 37.96C23.3906 38.012 23.8586 37.544 23.8586 36.92Z" fill="#2B3C90" stroke="#2A3D90" stroke-width="0.5" stroke-miterlimit="10"/>
<path d="M39.6147 25.324C37.2747 25.324 34.9867 25.324 32.6467 25.324C31.3467 25.324 30.5667 24.544 30.5667 23.244C30.5667 19.864 30.5667 16.432 30.5667 13.052C30.5667 11.804 31.3987 10.972 32.6467 10.972C35.8187 10.972 38.9907 10.972 42.1627 10.972C43.4107 10.972 44.2427 11.804 44.2427 13.052C44.2427 14.976 44.2427 16.848 44.2427 18.772C44.2427 21.008 45.1786 22.828 47.0506 24.076C47.3626 24.284 47.5707 24.492 47.4667 24.856C47.3627 25.22 47.0507 25.376 46.6867 25.376C44.3467 25.324 42.0067 25.324 39.6147 25.324ZM45.0227 24.024C44.9187 23.92 44.8667 23.868 44.8667 23.868C43.6187 22.412 42.9947 20.748 42.9947 18.824C42.9947 16.952 42.9947 15.132 42.9947 13.26C42.9947 12.532 42.7867 12.324 42.0587 12.324C38.9907 12.324 35.9227 12.324 32.8547 12.324C32.1267 12.324 31.9186 12.532 31.9186 13.26C31.9186 16.536 31.9186 19.812 31.9186 23.088C31.9186 23.868 32.1267 24.076 32.9067 24.076C36.8067 24.076 40.6547 24.076 44.5547 24.076C44.6587 24.024 44.7627 24.024 45.0227 24.024Z" fill="#2A3D90" stroke="#2A3D90" stroke-width="0.25" stroke-miterlimit="10"/>
<path d="M38.5226 39.676C36.1826 39.676 33.8426 39.676 31.4506 39.676C31.0866 39.676 30.7226 39.624 30.6186 39.208C30.5146 38.792 30.7746 38.584 31.0346 38.376C32.8546 37.128 33.7906 35.36 33.7906 33.176C33.7906 32.084 33.7906 30.992 33.7906 29.9C33.7906 28.808 34.6226 27.924 35.7666 27.924C39.0426 27.924 42.2666 27.924 45.5426 27.924C46.6346 27.924 47.5186 28.756 47.5186 29.9C47.5186 32.5 47.5186 35.1 47.5186 37.7C47.5186 38.792 46.6866 39.624 45.5426 39.624C43.2026 39.676 40.8626 39.676 38.5226 39.676ZM33.1146 38.376C33.2186 38.376 33.2706 38.428 33.3226 38.428C37.3786 38.428 41.4346 38.428 45.4386 38.428C45.9586 38.428 46.2186 38.168 46.2186 37.596C46.2186 35.1 46.2186 32.604 46.2186 30.108C46.2186 29.536 45.9586 29.276 45.3866 29.276C42.2146 29.276 39.0946 29.276 35.9226 29.276C35.3506 29.276 35.0906 29.536 35.0906 30.108C35.0906 31.252 35.0906 32.344 35.0906 33.488C35.0906 33.904 35.0386 34.32 34.9866 34.684C34.7266 36.088 34.1026 37.284 33.1146 38.376Z" fill="#2A3D90" stroke="#2A3D90" stroke-width="0.25" stroke-miterlimit="10"/>
<path d="M17.5146 9.04799C16.8906 9.04799 16.2666 9.04799 15.6426 9.04799C15.1746 9.04799 14.9146 8.78799 14.9146 8.37199C14.9146 7.95599 15.1746 7.74799 15.6426 7.74799C16.8906 7.74799 18.1386 7.74799 19.3866 7.74799C19.8546 7.74799 20.1146 8.00799 20.1146 8.37199C20.1146 8.78799 19.8546 9.04799 19.3866 9.04799C18.7626 9.04799 18.1386 9.04799 17.5146 9.04799Z" fill="#2B3C90" stroke="#2A3D90" stroke-miterlimit="10"/>
<path d="M16.8907 15.86C16.9427 15.184 17.0987 14.924 17.5667 14.924C17.9827 14.924 18.1907 15.184 18.2427 15.808C18.5547 15.964 18.8147 16.016 19.0747 16.172C19.1787 16.224 19.2307 16.484 19.1787 16.64C19.1787 17.056 18.9187 17.16 18.2427 17.264C18.1387 17.992 17.9307 18.252 17.5147 18.2C17.0987 18.2 16.9427 17.94 16.8907 17.368C16.5787 17.212 16.3187 17.16 16.0587 17.004C15.9547 16.952 15.9027 16.692 15.9547 16.536C15.9027 16.068 16.1627 15.912 16.8907 15.86Z" fill="#2A3D90" stroke="#2A3D90" stroke-width="0.25" stroke-miterlimit="10"/>
<path d="M37.6906 13.624C38.4186 13.676 39.1986 14.092 39.6146 14.976C40.0306 15.808 39.9786 16.692 39.4586 17.472C39.2506 17.784 38.9906 18.044 38.7306 18.356C38.3146 18.72 38.1066 19.188 38.0546 19.76C38.0546 20.228 37.7426 20.436 37.3786 20.436C37.0146 20.436 36.7546 20.124 36.7546 19.708C36.7546 18.824 37.1186 18.096 37.6906 17.42C37.8986 17.16 38.1066 16.952 38.3146 16.692C38.6266 16.276 38.6266 15.808 38.3666 15.392C38.1066 15.028 37.6386 14.82 37.2226 14.924C36.7026 15.028 36.3386 15.392 36.2866 15.912C36.2346 16.276 36.1826 16.536 35.7666 16.692C35.2986 16.848 34.9346 16.484 34.9346 15.964C34.9866 14.664 36.0786 13.624 37.6906 13.624Z" fill="#2A3D90"/>
<path d="M37.4306 21.268C37.8466 21.268 38.1586 21.58 38.1586 21.996C38.1586 22.412 37.8466 22.724 37.4826 22.724C37.0666 22.724 36.7026 22.412 36.7026 21.996C36.7026 21.632 37.0146 21.268 37.4306 21.268Z" fill="#2A3D90"/>
<path d="M38.0547 33.176C38.4187 33.176 38.7307 33.436 38.7307 33.8C38.7307 34.164 38.4707 34.476 38.0547 34.476C37.6907 34.476 37.4307 34.216 37.4307 33.852C37.4307 33.488 37.6907 33.176 38.0547 33.176Z" fill="#2A3D90" stroke="#2A3D90" stroke-width="0.25" stroke-miterlimit="10"/>
<path d="M40.7066 34.476C40.3426 34.476 40.0826 34.216 40.0306 33.852C40.0306 33.488 40.2906 33.176 40.7066 33.176C41.0706 33.176 41.3306 33.436 41.3306 33.8C41.3306 34.216 41.0706 34.476 40.7066 34.476Z" fill="#2A3D90" stroke="#2A3D90" stroke-width="0.25" stroke-miterlimit="10"/>
<path d="M43.9306 33.852C43.9306 34.216 43.6186 34.476 43.2546 34.476C42.8906 34.476 42.5786 34.164 42.6306 33.8C42.6306 33.436 42.9426 33.176 43.3066 33.176C43.6706 33.176 43.9306 33.488 43.9306 33.852Z" fill="#2A3D90" stroke="#2A3D90" stroke-width="0.25" stroke-miterlimit="10"/>
</svg>
