<svg width="45" height="46" viewBox="0 0 45 46" fill="none" xmlns="http://www.w3.org/2000/svg">
<path d="M22.3333 35.116C22.4893 35.012 22.5933 34.856 22.6973 34.752C24.7773 32.672 26.8053 30.644 28.8853 28.564C29.1973 28.252 29.5093 28.096 29.9773 28.096C36.7893 27.992 42.5613 32.776 43.9653 39.12C44.3293 40.836 44.2773 42.552 44.2773 44.268C44.2773 44.684 43.9133 44.944 43.4973 44.944C43.0813 44.944 42.8213 44.632 42.8213 44.216C42.7693 43.176 42.8733 42.136 42.7173 41.096C42.1973 36.156 39.5973 32.62 35.0733 30.54C34.7613 30.384 34.4493 30.28 34.0853 30.124C34.0853 30.28 34.0333 30.436 34.0333 30.54C34.0333 32.568 34.0333 34.544 34.0333 36.572C34.0333 36.832 34.0853 36.988 34.3453 37.092C35.6973 37.612 36.4253 38.964 36.2173 40.316C35.9573 41.72 34.7613 42.76 33.3573 42.76C31.9013 42.76 30.7053 41.824 30.4453 40.368C30.1853 39.016 30.9133 37.612 32.2133 37.092C32.5253 36.988 32.5773 36.832 32.5773 36.52C32.5773 34.284 32.5773 32.048 32.5773 29.708C31.7453 29.656 30.9133 29.604 30.0813 29.552C29.9773 29.552 29.8213 29.656 29.7693 29.76C27.5853 31.892 25.4533 34.076 23.3213 36.26C23.1653 36.416 23.1133 36.676 23.1133 36.832C23.1133 39.224 23.1133 41.668 23.1133 44.06C23.1133 44.632 22.8013 44.944 22.3333 44.892C21.9173 44.892 21.6573 44.58 21.6573 44.06C21.6573 41.668 21.6573 39.328 21.6573 36.936C21.6573 36.624 21.5533 36.364 21.3453 36.156C19.2133 34.076 17.1333 31.944 15.0013 29.864C14.8453 29.708 14.5853 29.604 14.3253 29.604C13.5973 29.604 12.8693 29.708 12.1413 29.76C12.1413 31.32 12.1413 32.828 12.1413 34.336C12.3493 34.388 12.6093 34.44 12.8173 34.492C14.5333 34.96 15.7293 36.52 15.7813 38.34C15.7813 39.536 15.7813 40.732 15.7813 41.928C15.7813 42.5 15.5213 42.76 14.9493 42.76C14.4813 42.76 14.0653 42.76 13.5973 42.76C13.1293 42.76 12.8173 42.448 12.8173 42.032C12.8173 41.616 13.1293 41.304 13.5973 41.304C13.8053 41.304 14.0133 41.304 14.3253 41.304C14.2733 40.056 14.3253 38.86 14.1173 37.664C13.9613 36.728 13.2333 36.052 12.2453 35.896C11.6213 35.792 10.8933 35.792 10.2693 35.948C9.17731 36.208 8.55331 37.04 8.44931 38.132C8.34531 39.172 8.44931 40.212 8.44931 41.304C8.70931 41.304 8.96931 41.304 9.17731 41.304C9.59331 41.304 9.90531 41.616 9.85331 42.032C9.85331 42.396 9.59331 42.708 9.17731 42.76C8.65731 42.76 8.13731 42.76 7.61731 42.76C7.25331 42.76 6.94131 42.5 6.94131 42.188C6.94131 40.68 6.83731 39.172 6.99331 37.664C7.20131 35.896 8.39731 34.856 10.1653 34.44C10.2693 34.388 10.4253 34.388 10.5293 34.336C10.5293 32.984 10.5293 31.632 10.5293 30.228C10.3213 30.28 10.1653 30.332 10.0093 30.384C5.48531 32.204 2.72931 35.48 1.94931 40.316C1.74131 41.564 1.79331 42.916 1.74131 44.164C1.74131 44.684 1.32531 45.1 0.857311 44.944C0.753311 44.84 0.441311 44.528 0.441311 44.32C0.233311 41.096 0.597311 37.924 2.36531 35.064C4.75731 31.112 8.29331 28.772 12.9733 28.2C13.5973 28.148 14.1693 28.148 14.7933 28.096C15.1573 28.044 15.4693 28.2 15.7293 28.46C17.8093 30.54 19.8893 32.62 21.9693 34.7C22.0733 34.856 22.1773 35.012 22.3333 35.116ZM34.7613 39.848C34.7613 39.068 34.0853 38.392 33.3053 38.392C32.5253 38.392 31.8493 39.068 31.8493 39.848C31.8493 40.628 32.5253 41.304 33.3053 41.304C34.0853 41.304 34.7613 40.628 34.7613 39.848Z" fill="#2B3C90" stroke="#2A3D90" stroke-width="0.5" stroke-miterlimit="10"/>
<path d="M32.7853 12.184C34.7613 12.964 35.1773 14.888 34.5013 16.24C34.0333 17.228 33.2013 17.748 32.1613 17.904C32.0053 17.904 31.7973 18.06 31.7973 18.164C31.4853 20.14 30.4973 21.752 29.1453 23.156C28.5213 23.78 27.7413 24.352 27.0653 24.924C26.9093 25.028 26.8053 25.288 26.7533 25.444C26.7013 26.276 26.7533 27.16 26.7533 27.992C26.7533 28.512 26.4933 28.824 26.0253 28.824C25.5573 28.824 25.2973 28.512 25.2973 27.94C25.2973 27.264 25.2973 26.588 25.2973 25.86C23.3213 26.848 21.3973 26.848 19.4213 25.86C19.4213 26.64 19.4213 27.316 19.4213 27.992C19.4213 28.512 19.1613 28.824 18.6933 28.824C18.2253 28.824 17.9653 28.512 17.9653 27.992C17.9653 27.16 17.9653 26.38 17.9653 25.548C17.9653 25.184 17.8613 25.028 17.6013 24.82C15.7293 23.52 14.1693 21.908 13.3373 19.724C13.1293 19.152 12.9733 18.528 12.8173 17.904C11.1013 17.644 10.1133 16.76 9.90532 15.356C9.69732 14.004 10.4253 12.86 11.8813 12.132C11.7253 11.352 11.5173 10.624 11.3613 9.84398C10.8933 7.76398 11.6213 5.99598 13.0253 4.48798C14.5333 2.87598 16.4053 1.93998 18.5373 1.47198C22.0733 0.639982 25.5573 0.847982 28.8333 2.51198C29.7173 2.97998 30.5493 3.55198 31.2773 4.22798C33.0973 5.89198 33.7733 7.97198 33.0973 10.416C33.0453 10.988 32.8893 11.56 32.7853 12.184ZM14.2733 13.224C14.2733 14.472 14.2733 15.668 14.2733 16.916C14.2733 18.008 14.5333 19.048 15.0533 20.036C16.3533 22.324 18.2773 23.884 20.6693 24.872C21.8133 25.34 22.9573 25.288 24.1013 24.82C26.0253 24.04 27.5853 22.792 28.8853 21.18C29.6653 20.14 30.2373 19.048 30.3413 17.748C30.4453 16.24 30.3933 14.784 30.3933 13.276C30.3933 13.172 30.2893 13.068 30.1853 13.016C28.9373 12.236 27.8973 11.196 26.9613 10.104C26.5973 9.68798 26.2333 9.21998 25.8173 8.75198C22.2813 10.988 18.4333 12.496 14.2733 13.224ZM31.3293 11.976C31.5373 11.04 31.6933 10.26 31.9013 9.53198C32.2133 8.17998 31.7973 7.03598 30.9653 5.99598C30.2373 5.05998 29.3013 4.43598 28.3133 3.86398C26.7533 3.03198 25.0893 2.66798 23.3213 2.56398C20.5133 2.40798 17.8093 2.87598 15.4693 4.48798C14.2213 5.37198 13.1813 6.41198 12.8693 7.97198C12.6093 9.32398 13.1813 10.572 13.4413 11.924C14.5333 11.664 15.5213 11.456 16.5093 11.196C19.6813 10.312 22.7493 9.11598 25.4533 7.19198C26.0253 6.77598 26.3373 6.82798 26.8053 7.39998C27.7933 8.54398 28.7293 9.68798 29.7693 10.728C30.1333 11.196 30.7053 11.508 31.3293 11.976ZM12.8173 16.396C12.8173 15.408 12.8173 14.472 12.8173 13.536C11.9333 13.64 11.3613 14.212 11.3613 14.992C11.3613 15.72 11.9333 16.292 12.8173 16.396ZM31.9013 16.396C32.7853 16.292 33.3573 15.72 33.3573 14.94C33.3573 14.16 32.7333 13.588 31.9013 13.536C31.9013 14.472 31.9013 15.408 31.9013 16.396Z" fill="#2A3D90" stroke="#2A3D90" stroke-width="0.25" stroke-miterlimit="10"/>
<path d="M22.3333 22.272C21.4493 22.272 20.6173 22.012 19.8373 21.492C19.4213 21.18 19.2653 20.764 19.5253 20.4C19.7853 20.036 20.2013 19.984 20.6173 20.244C21.7613 20.972 22.9053 20.972 24.0493 20.244C24.5173 19.932 24.9333 19.984 25.1933 20.4C25.4533 20.764 25.2973 21.18 24.8813 21.492C24.1013 22.012 23.2693 22.272 22.3333 22.272Z" fill="#2A3D90" stroke="#2A3D90" stroke-width="0.25" stroke-miterlimit="10"/>
<path d="M19.4213 14.94C19.4213 15.772 18.7973 16.448 17.9653 16.396C17.1333 16.396 16.5093 15.772 16.5093 14.94C16.5093 14.108 17.1333 13.484 17.9653 13.484C18.7453 13.484 19.4213 14.16 19.4213 14.94Z" fill="#2A3D90" stroke="#2A3D90" stroke-width="0.25" stroke-miterlimit="10"/>
<path d="M25.2973 14.888C25.2973 14.056 26.0253 13.484 26.8573 13.484C27.6373 13.536 28.2613 14.212 28.2093 14.992C28.2093 15.772 27.5333 16.396 26.7013 16.396C25.8693 16.396 25.2453 15.72 25.2973 14.888Z" fill="#2A3D90" stroke="#2A3D90" stroke-width="0.25" stroke-miterlimit="10"/>
</svg>
