<svg width="90" height="90" viewBox="0 0 90 90" fill="none" xmlns="http://www.w3.org/2000/svg">
<g clip-path="url(#clip0_866_3677)">
<path d="M56.6255 83.672H47.9067C47.5856 83.6719 47.2742 83.5619 47.0243 83.3603C46.7743 83.1587 46.6009 82.8776 46.5328 82.5638C43.2717 67.5465 37.305 65.0546 35.2167 64.651C33.8923 64.9066 32.5466 65.0365 31.1977 65.0391C22.5183 65.0391 15.3661 59.8866 14.6039 53.3335C13.8499 53.4933 13.0811 53.5734 12.3103 53.5726C9.45035 53.5864 6.70164 52.4653 4.66721 50.4551C2.63277 48.4449 1.47875 45.7099 1.4583 42.8499C1.45926 42.3255 1.49922 41.8019 1.57784 41.2834C0.569291 40.1319 0.00917639 38.6557 2.34435e-05 37.1251C-0.00311279 35.5295 0.600086 33.9924 1.68752 32.8248C0.598911 31.6551 -0.00433406 30.1153 2.34435e-05 28.5174C0.00964526 26.8849 0.637265 25.3166 1.75657 24.1281C2.87589 22.9397 4.4038 22.2193 6.03284 22.112C6.34197 20.6459 6.95118 19.2597 7.82214 18.0406C8.6931 16.8214 9.80695 15.7958 11.0936 15.0281C12.3803 14.2604 13.8119 13.7673 15.2984 13.5798C16.7849 13.3924 18.2941 13.5146 19.7311 13.9388C20.9632 13.0294 22.3962 12.43 23.9088 12.1911C25.4214 11.9522 26.9693 12.0809 28.4217 12.5663C31.5357 9.2431 35.7039 7.10013 40.2186 6.50132C44.7332 5.90251 49.316 6.88478 53.1886 9.28133C54.0103 8.59327 54.9894 8.11904 56.0387 7.90084C57.088 7.68263 58.175 7.72723 59.2029 8.03066C60.2308 8.33409 61.1677 8.88693 61.9303 9.63999C62.6929 10.393 63.2574 11.323 63.5738 12.347C64.3924 12.1585 65.2298 12.0642 66.0699 12.0657C68.8751 12.0528 71.5754 13.1314 73.5998 15.0734C75.6242 17.0154 76.814 19.6686 76.9177 22.472C78.1816 22.9035 79.2801 23.7173 80.0611 24.8006C80.8421 25.884 81.267 27.1833 81.2771 28.5188C81.2772 28.695 81.2683 28.871 81.2503 29.0462C83.0089 29.9338 84.4862 31.2926 85.5175 32.9709C86.5487 34.6493 87.0933 36.5812 87.0905 38.551C87.0921 39.3716 86.9977 40.1895 86.8092 40.988C88.9611 44.3159 90.072 48.2097 90 52.172C90 60.9976 85.2328 67.9107 79.148 67.9107C78.8835 67.9101 78.6192 67.8956 78.3563 67.8671C78.1697 70.6083 76.9466 73.1756 74.9353 75.0473C72.9241 76.9191 70.2756 77.9549 67.5281 77.9443C67.3552 77.9443 67.1836 77.9359 67.0135 77.926C66.9433 77.9377 66.8723 77.9439 66.8011 77.9443C63.1472 77.8293 59.545 77.0487 56.1713 75.6409C56.3446 77.7318 56.9261 79.7684 57.8827 81.6357C57.9913 81.85 58.0431 82.0885 58.0334 82.3285C58.0236 82.5686 57.9525 82.8021 57.8269 83.0068C57.7012 83.2116 57.5252 83.3807 57.3157 83.4981C57.1061 83.6156 56.8699 83.6773 56.6297 83.6776L56.6255 83.672ZM49.0317 80.8595H54.4852C53.6667 78.6924 52.7611 75.3174 53.9227 73.0309C54.0898 72.7007 54.3803 72.4498 54.7312 72.3324C55.0821 72.215 55.4651 72.2406 55.7972 72.4037C59.1778 73.9856 62.8288 74.9091 66.555 75.1248C66.6778 75.0951 66.8046 75.0851 66.9305 75.0952C67.1639 75.1121 67.3439 75.1262 67.5281 75.1262C68.6615 75.1507 69.7867 74.93 70.8269 74.4793C71.867 74.0286 72.7975 73.3584 73.5546 72.5146C74.3116 71.6709 74.8774 70.6735 75.2132 69.5908C75.5491 68.5081 75.6469 67.3656 75.5002 66.2415C75.4705 66.0015 75.5031 65.7579 75.595 65.5343C75.6869 65.3106 75.8349 65.1144 76.0247 64.9646C76.2137 64.8137 76.4388 64.7147 76.6778 64.6774C76.9168 64.6402 77.1614 64.666 77.3874 64.7523C77.9502 64.9717 78.5482 65.087 79.1522 65.0926C83.5116 65.0926 87.1917 59.1723 87.1917 52.1663C87.2869 48.5833 86.2263 45.0649 84.1669 42.1313C84.0292 41.9527 83.9365 41.7436 83.8966 41.5216C83.8567 41.2996 83.8708 41.0713 83.9377 40.8559C84.5286 38.9384 84.3623 36.8674 83.4729 35.0689C82.5836 33.2703 81.0388 31.8809 79.1564 31.1865C78.8295 31.0597 78.5617 30.8153 78.4056 30.5013C78.2495 30.1873 78.2164 29.8263 78.3127 29.4891C78.4105 29.1742 78.4635 28.8471 78.4702 28.5174C78.4577 27.6409 78.1289 26.7984 77.5444 26.1452C76.9599 25.4919 76.159 25.0719 75.2892 24.9624C74.9319 24.9139 74.6068 24.73 74.3812 24.4487C74.1556 24.1673 74.0467 23.8101 74.077 23.4507C74.0939 23.2299 74.1108 23.0091 74.1108 22.7841C74.0911 20.6699 73.2337 18.6497 71.7265 17.1668C70.2194 15.684 68.1856 14.8594 66.0713 14.874C65.01 14.8723 63.9587 15.0797 62.9775 15.4843C62.764 15.5723 62.532 15.6063 62.3022 15.5834C62.0724 15.5605 61.8517 15.4813 61.6597 15.3529C61.4678 15.2244 61.3104 15.0507 61.2015 14.847C61.0926 14.6433 61.0356 14.4159 61.0355 14.1849C61.022 13.4273 60.7747 12.6924 60.3275 12.0808C59.8802 11.4692 59.2549 11.0107 58.5371 10.7681C57.8193 10.5255 57.0441 10.5106 56.3175 10.7255C55.5909 10.9404 54.9485 11.3746 54.4781 11.9687C54.2535 12.2487 53.9303 12.4323 53.5747 12.4817C53.2191 12.5311 52.8581 12.4426 52.5656 12.2345C49.1087 9.79303 44.8616 8.73748 40.6639 9.27648C36.4662 9.81548 32.6235 11.9098 29.8955 15.1454C29.6949 15.3821 29.422 15.5464 29.1189 15.613C28.8158 15.6796 28.4992 15.6447 28.2178 15.5138C27.036 14.9649 25.7199 14.772 24.4303 14.9588C23.1407 15.1456 21.9334 15.704 20.956 16.5657C20.7647 16.7366 20.5304 16.852 20.2783 16.8994C20.0262 16.9467 19.766 16.9242 19.5258 16.8343C18.6111 16.4895 17.6416 16.3128 16.6641 16.3126C14.6449 16.3024 12.6965 17.0561 11.2098 18.4225C9.72313 19.7889 8.80816 21.667 8.64846 23.6799C8.63506 23.8735 8.58176 24.0621 8.49191 24.2341C8.40206 24.406 8.27761 24.5575 8.12638 24.679C7.97515 24.8005 7.80041 24.8894 7.61316 24.9401C7.42591 24.9909 7.23019 25.0023 7.0383 24.9737C6.85587 24.9396 6.67113 24.9194 6.48565 24.9132C5.52198 24.9087 4.59548 25.2848 3.90764 25.9597C3.21979 26.6346 2.82623 27.5538 2.81252 28.5174C2.81415 29.1468 2.98231 29.7646 3.29994 30.3079C3.61756 30.8513 4.07333 31.3009 4.62096 31.6112C4.83243 31.7352 5.00778 31.9125 5.12962 32.1252C5.25147 32.338 5.31557 32.5789 5.31557 32.8241C5.31557 33.0692 5.25147 33.3102 5.12962 33.5229C5.00778 33.7357 4.83243 33.9129 4.62096 34.037C4.12668 34.313 3.70611 34.7039 3.3948 35.1768C3.08349 35.6496 2.89058 36.1905 2.83237 36.7536C2.77417 37.3168 2.85239 37.8856 3.06041 38.4121C3.26843 38.9387 3.60015 39.4074 4.02752 39.7787C4.21475 39.9456 4.3539 40.1596 4.43055 40.3985C4.5072 40.6374 4.51857 40.8924 4.46346 41.1371C4.33452 41.7009 4.26849 42.2772 4.26659 42.8555C4.29137 44.1713 4.63785 45.4609 5.27576 46.6119C5.91368 47.7629 6.82365 48.7402 7.92622 49.4585C9.02879 50.1769 10.2904 50.6144 11.601 50.733C12.9116 50.8515 14.2313 50.6474 15.4449 50.1385C15.6683 50.0468 15.9115 50.0135 16.1514 50.0418C16.3913 50.0701 16.62 50.159 16.816 50.3002C17.011 50.4426 17.1662 50.6328 17.2664 50.8525C17.3667 51.0722 17.4086 51.314 17.3883 51.5546L17.3742 51.7276C17.3602 51.8766 17.3447 52.0229 17.3447 52.172C17.3447 57.7196 23.5589 62.2323 31.1977 62.2323C32.4462 62.229 33.6913 62.1009 34.9144 61.8498C35.0734 61.8156 35.2374 61.8108 35.3982 61.8357C38.2838 62.2491 45.2897 64.9548 49.0289 80.8595H49.0317Z" fill="#2B3990"/>
<path d="M9.30347 43.2518C9.13612 43.2518 8.97862 43.2434 8.83237 43.2307C8.55606 43.2031 8.3018 43.0675 8.12481 42.8535C7.94781 42.6396 7.86235 42.3644 7.88697 42.0878C7.91159 41.8112 8.04432 41.5554 8.25633 41.3761C8.46835 41.1967 8.74254 41.1082 9.0194 41.1298C10.0086 41.2265 10.999 40.9586 11.8046 40.3765C12.6102 39.7944 13.1755 38.9381 13.3942 37.9686C14.1888 34.6906 10.7913 33.5234 10.4003 33.4011C10.1329 33.3188 9.90914 33.1337 9.7782 32.8865C9.64726 32.6392 9.6199 32.3501 9.70214 32.0827C9.78438 31.8153 9.96948 31.5915 10.2167 31.4606C10.464 31.3296 10.7531 31.3023 11.0205 31.3845C12.9977 31.9878 16.4669 34.2462 15.4432 38.4664C15.1313 39.8511 14.3489 41.0849 13.2294 41.9575C12.1099 42.8301 10.7224 43.2875 9.30347 43.2518Z" fill="#2B3990"/>
<path d="M26.7005 31.3843C25.6505 31.4089 24.6091 31.1904 23.6577 30.7456C22.7062 30.3009 21.8706 29.6421 21.2161 28.8207C17.6485 24.4613 20.2641 19.7588 22.1456 17.8772C22.3443 17.6848 22.6106 17.5781 22.8871 17.5801C23.1637 17.5821 23.4284 17.6927 23.6242 17.8879C23.82 18.0832 23.9313 18.3476 23.9341 18.6241C23.9369 18.9007 23.8309 19.1673 23.6391 19.3664C23.4605 19.5478 19.6102 23.5346 22.8474 27.4833C26.0845 31.4321 31.7222 27.7041 31.9613 27.5438C32.1928 27.3936 32.4739 27.3401 32.7444 27.3948C33.0149 27.4495 33.2531 27.608 33.4081 27.8364C33.563 28.0648 33.6223 28.3447 33.5732 28.6163C33.524 28.8878 33.3704 29.1293 33.1453 29.2889C31.2372 30.5803 29.0032 31.3066 26.7005 31.3843Z" fill="#2B3990"/>
<path d="M29.706 43.4333C29.4467 43.4341 29.1962 43.3389 29.0028 43.1661C27.1679 41.6126 25.8632 39.5254 25.2706 37.1952C24.678 34.8651 24.8269 32.4082 25.6968 30.1668C25.8159 29.919 26.0269 29.7275 26.285 29.6329C26.5431 29.5383 26.828 29.548 27.079 29.6601C27.33 29.7721 27.5275 29.9777 27.6294 30.233C27.7313 30.4883 27.7296 30.7733 27.6247 31.0274C26.9118 32.8556 26.7967 34.8628 27.296 36.7606C27.7953 38.6583 28.8832 40.349 30.4035 41.5897C30.5637 41.7319 30.6769 41.9195 30.7279 42.1276C30.7788 42.3357 30.7653 42.5543 30.6889 42.7545C30.6126 42.9546 30.4771 43.1268 30.3005 43.2481C30.1239 43.3693 29.9146 43.434 29.7003 43.4333H29.706Z" fill="#2B3990"/>
<path d="M36.5234 56.8011C36.2729 56.8018 36.0303 56.7134 35.839 56.5516C35.6478 56.3898 35.5203 56.1652 35.4796 55.918C35.4388 55.6709 35.4873 55.4172 35.6165 55.2026C35.7457 54.9879 35.947 54.8263 36.1845 54.7465C37.4078 54.261 38.492 53.4805 39.3407 52.4746C40.1894 51.4687 40.7761 50.2685 41.0487 48.9809C41.915 44.8733 35.5883 42.1915 35.5236 42.1648C35.2699 42.0547 35.0696 41.8494 34.9658 41.5931C34.862 41.3367 34.863 41.0499 34.9687 40.7943C35.0743 40.5387 35.2762 40.3349 35.5307 40.2267C35.7852 40.1185 36.072 40.1145 36.3294 40.2158C36.657 40.3564 44.345 43.5908 43.1145 49.4154C42.7637 51.0612 42.0082 52.5936 40.9163 53.8741C39.8244 55.1545 38.4306 56.1426 36.8609 56.749C36.7519 56.784 36.638 56.8015 36.5234 56.8011Z" fill="#2B3990"/>
<path d="M42.0689 51.7116C41.8622 51.7116 41.7342 51.7116 41.7004 51.7116C41.4213 51.6981 41.1588 51.5745 40.9706 51.3678C40.7824 51.1612 40.6838 50.8883 40.6964 50.6091C40.6955 50.4685 40.7242 50.3292 40.7806 50.2004C40.837 50.0716 40.9199 49.9561 41.0239 49.8614C41.1279 49.7667 41.2506 49.6949 41.3841 49.6508C41.5176 49.6066 41.659 49.591 41.7989 49.605C41.8453 49.605 47.1075 49.7977 50.4361 46.7672C50.5384 46.6735 50.6582 46.6009 50.7886 46.5535C50.9191 46.5062 51.0576 46.485 51.1962 46.4913C51.3348 46.4976 51.4708 46.5312 51.5964 46.5901C51.7221 46.649 51.8348 46.7322 51.9283 46.8348C52.0217 46.9374 52.094 47.0574 52.1409 47.1879C52.1879 47.3185 52.2086 47.4571 52.202 47.5957C52.1953 47.7343 52.1613 47.8702 52.102 47.9956C52.0427 48.1211 51.9592 48.2336 51.8564 48.3268C49.0875 50.5602 45.626 51.7574 42.0689 51.7116Z" fill="#2B3990"/>
<path d="M68.6361 55.0005C64.8392 55.0005 61.7216 51.101 61.5669 50.907C61.4054 50.6862 61.3359 50.4114 61.373 50.1404C61.4101 49.8694 61.5509 49.6234 61.7658 49.4541C61.9806 49.2848 62.2527 49.2055 62.5249 49.2328C62.797 49.2601 63.0479 49.3919 63.2248 49.6005C63.2586 49.6455 66.6927 53.9191 69.8806 52.6493C71.4063 52.0587 72.7259 51.0349 73.6771 49.7039C74.6283 48.373 75.1696 46.7929 75.2342 45.1582C75.2342 44.8785 75.3453 44.6102 75.5431 44.4124C75.7409 44.2146 76.0092 44.1035 76.2889 44.1035C76.5686 44.1035 76.8369 44.2146 77.0347 44.4124C77.2325 44.6102 77.3436 44.8785 77.3436 45.1582C77.2902 47.2183 76.6263 49.2162 75.4362 50.8985C74.246 52.5809 72.5831 53.872 70.6583 54.6082C70.0156 54.8674 69.3291 55.0006 68.6361 55.0005Z" fill="#2B3990"/>
<path d="M65.1785 63.1541C64.9438 63.1547 64.7155 63.0769 64.5299 62.9332C64.3444 62.7894 64.212 62.5879 64.1539 62.3605C64.0958 62.133 64.1152 61.8927 64.2091 61.6776C64.303 61.4624 64.466 61.2847 64.6722 61.1726C68.7504 58.9564 69.2172 53.6 69.2215 53.5451C69.231 53.4067 69.2681 53.2715 69.3305 53.1474C69.3929 53.0234 69.4794 52.9131 69.5849 52.8229C69.6904 52.7327 69.8129 52.6644 69.9451 52.6221C70.0773 52.5797 70.2166 52.5641 70.3549 52.5762C70.493 52.5869 70.6277 52.6247 70.7513 52.6874C70.8748 52.7502 70.9848 52.8366 71.0749 52.9419C71.165 53.0472 71.2335 53.1692 71.2765 53.3009C71.3194 53.4326 71.336 53.5715 71.3252 53.7097C71.3041 53.9769 70.7627 60.2684 65.6805 63.0261C65.5265 63.11 65.3539 63.154 65.1785 63.1541Z" fill="#2B3990"/>
<path d="M67.8908 46.3462C67.8329 46.3464 67.775 46.3417 67.7178 46.3321C67.4418 46.2866 67.1952 46.1334 67.0323 45.906C66.8693 45.6787 66.8033 45.3959 66.8488 45.1199C67.6785 40.0842 66.7714 37.7259 62.803 34.6054C58.5842 31.2824 53.3066 35.6517 53.0858 35.8401C52.8723 36.021 52.5957 36.1096 52.3168 36.0866C52.0379 36.0635 51.7796 35.9306 51.5987 35.7171C51.4178 35.5035 51.3292 35.2269 51.3522 34.948C51.3753 34.6691 51.5082 34.4108 51.7217 34.2299C54.0561 32.2542 59.6488 29.4417 64.108 32.9474C68.6642 36.532 69.8821 39.6974 68.9314 45.4631C68.8905 45.7096 68.7635 45.9336 68.5729 46.0953C68.3824 46.257 68.1407 46.3459 67.8908 46.3462Z" fill="#2B3990"/>
<path d="M28.9768 22.0604C28.7768 22.0598 28.581 22.0025 28.4123 21.8949C28.2436 21.7874 28.109 21.6342 28.0239 21.4532C27.9389 21.2721 27.9071 21.0706 27.9321 20.8722C27.9572 20.6737 28.0381 20.4864 28.1654 20.3322C30.4849 17.8091 33.4156 15.9264 36.6747 14.8657C39.9338 13.805 43.4112 13.6022 46.7715 14.2768C47.0435 14.3307 47.2834 14.4896 47.4391 14.719C47.5949 14.9484 47.654 15.23 47.6037 15.5027C47.5535 15.7754 47.3978 16.0174 47.1704 16.1761C46.9431 16.3349 46.6623 16.3978 46.389 16.3511C43.3983 15.7707 40.3094 15.9547 37.4088 16.8858C34.5081 17.817 31.8893 19.4653 29.7952 21.6779C29.6956 21.7983 29.5705 21.895 29.429 21.9611C29.2874 22.0273 29.133 22.0612 28.9768 22.0604Z" fill="#2B3990"/>
<path d="M62.0677 26.6266C61.9809 26.6269 61.8944 26.616 61.8104 26.5942C61.6757 26.5607 61.549 26.5009 61.4375 26.4184C61.3261 26.3358 61.2319 26.232 61.1606 26.113C61.0893 25.994 61.0422 25.8621 61.0219 25.7248C61.0016 25.5876 61.0087 25.4477 61.0425 25.3131C61.3828 23.9647 61.1982 22.5374 60.5259 21.32C59.8536 20.1026 58.7439 19.186 57.4215 18.7558C56.9489 18.56 56.4386 18.4721 55.9277 18.4984C55.4169 18.5246 54.9183 18.6645 54.4683 18.9077C52.5643 19.9849 51.5602 22.9858 51.3338 24.0517C51.3069 24.189 51.2529 24.3196 51.175 24.4358C51.0971 24.5521 50.9969 24.6516 50.8802 24.7288C50.7634 24.8059 50.6325 24.859 50.495 24.885C50.3576 24.911 50.2163 24.9095 50.0794 24.8804C49.9426 24.8512 49.8129 24.7952 49.6979 24.7155C49.5829 24.6358 49.4849 24.534 49.4097 24.416C49.3344 24.2981 49.2834 24.1663 49.2596 24.0285C49.2357 23.8906 49.2396 23.7494 49.2708 23.613C49.3116 23.4189 50.3171 18.8317 53.4277 17.0725C54.1376 16.6787 54.9257 16.4467 55.7357 16.3929C56.5458 16.3392 57.3576 16.4651 58.1133 16.7617C59.9503 17.3408 61.4932 18.606 62.4209 20.2939C63.3487 21.9818 63.5899 23.9624 63.0943 25.8236C63.0381 26.0532 62.9063 26.2573 62.7201 26.4029C62.5339 26.5486 62.3041 26.6274 62.0677 26.6266Z" fill="#2B3990"/>
<path d="M46.4597 31.4139C45.7225 31.4151 44.9927 31.2658 44.3152 30.9751C39.6155 28.9726 40.1471 23.3814 40.171 23.1451C40.2035 22.8681 40.3431 22.6148 40.5599 22.4393C40.7766 22.2638 41.0534 22.18 41.3311 22.2057C41.6088 22.2348 41.8636 22.3729 42.0397 22.5895C42.2158 22.8062 42.2988 23.0839 42.2705 23.3617C42.2536 23.5361 41.8852 27.6465 45.1421 29.0345C48.3582 30.3957 52.148 25.9407 52.1846 25.8943C52.3619 25.6778 52.618 25.5406 52.8965 25.513C53.175 25.4853 53.4531 25.5693 53.6696 25.7467C53.8861 25.924 54.0232 26.1801 54.0509 26.4586C54.0786 26.7371 53.9946 27.0152 53.8172 27.2317C53.6527 27.4314 50.3325 31.4139 46.4597 31.4139Z" fill="#2B3990"/>
<path d="M14.3874 53.5133C14.0657 53.5132 13.7538 53.4028 13.5036 53.2006C13.2534 52.9983 13.0802 52.7164 13.0127 52.4019C12.9453 52.0873 12.9877 51.7591 13.1329 51.4721C13.2782 51.185 13.5175 50.9565 13.8109 50.8245C13.8615 50.8006 18.917 48.4845 20.8421 44.1856C20.9138 44.0114 21.0197 43.8534 21.1537 43.7209C21.2876 43.5885 21.4467 43.4842 21.6217 43.4145C21.7967 43.3447 21.9839 43.3108 22.1722 43.3148C22.3605 43.3187 22.5461 43.3605 22.718 43.4376C22.8899 43.5147 23.0445 43.6255 23.1728 43.7635C23.301 43.9015 23.4002 44.0638 23.4644 44.2409C23.5287 44.4179 23.5568 44.6061 23.5469 44.7942C23.5371 44.9823 23.4895 45.1665 23.4071 45.3359C21.032 50.629 15.2016 53.2812 14.9556 53.3909C14.7768 53.4708 14.5833 53.5125 14.3874 53.5133Z" fill="#2B3990"/>
<path d="M35.8282 64.7301C35.6949 64.7306 35.5622 64.7117 35.4344 64.6738C35.2108 64.6092 29.9388 63.0313 28.1613 58.8084C27.6903 57.5583 27.5145 56.2163 27.6477 54.8871C27.7809 53.5579 28.2194 52.2775 28.9291 51.1457C29.105 50.8168 29.4043 50.5711 29.7612 50.4629C30.1182 50.3546 30.5035 50.3926 30.8325 50.5684C31.1614 50.7443 31.4071 51.0436 31.5153 51.4006C31.6236 51.7575 31.5856 52.1429 31.4097 52.4718C30.9095 53.2374 30.5902 54.1068 30.4759 55.0142C30.3616 55.9215 30.4555 56.843 30.7502 57.7087C31.999 60.6927 36.1812 61.9626 36.2233 61.9738C36.5484 62.0687 36.8284 62.2776 37.0118 62.5623C37.1952 62.8469 37.2697 63.1882 37.2216 63.5234C37.1735 63.8586 37.0062 64.1652 36.7502 64.3869C36.4942 64.6086 36.1668 64.7304 35.8282 64.7301Z" fill="#2B3990"/>
<path d="M71.6628 33.8581C71.3847 33.858 71.1129 33.7755 70.8817 33.621C70.6505 33.4665 70.4703 33.2469 70.3639 32.9899C70.2575 32.733 70.2296 32.4503 70.2838 32.1776C70.3381 31.9048 70.472 31.6543 70.6686 31.4576C71.9034 30.3477 73.3573 29.509 74.9363 28.9957C76.5153 28.4825 78.1845 28.306 79.8359 28.4778C80.2022 28.5276 80.5341 28.7197 80.7599 29.0125C80.9856 29.3052 81.087 29.6751 81.0421 30.042C80.9972 30.409 80.8096 30.7435 80.5199 30.9731C80.2302 31.2028 79.8617 31.3092 79.4942 31.2692C78.2667 31.1537 77.0286 31.287 75.8538 31.661C74.679 32.035 73.5918 32.6422 72.657 33.4461C72.3933 33.7098 72.0357 33.858 71.6628 33.8581Z" fill="#2B3990"/>
<path d="M55.1715 75.0717C55.0018 75.0714 54.8336 75.0405 54.675 74.9803C54.4669 74.903 49.5914 72.9806 48.9193 65.8397C48.8844 65.4689 48.9981 65.0994 49.2354 64.8123C49.4726 64.5251 49.8141 64.3439 50.1849 64.3083C50.3689 64.2891 50.5549 64.3068 50.7321 64.3603C50.9092 64.4137 51.0739 64.5019 51.2166 64.6198C51.3593 64.7376 51.4771 64.8826 51.5631 65.0464C51.6492 65.2103 51.7017 65.3896 51.7177 65.5739C52.2268 70.9894 55.6313 72.3366 55.6664 72.3492C55.9749 72.4652 56.2329 72.6859 56.3952 72.9727C56.5576 73.2595 56.6141 73.5942 56.5548 73.9184C56.4955 74.2426 56.3242 74.5357 56.0709 74.7465C55.8175 74.9573 55.4982 75.0724 55.1686 75.0717H55.1715Z" fill="#2B3990"/>
</g>
<defs>
<clipPath id="clip0_866_3677">
<rect width="90" height="90" fill="white"/>
</clipPath>
</defs>
</svg>
