<svg width="73" height="80" viewBox="0 0 73 80" fill="none" xmlns="http://www.w3.org/2000/svg">
<path d="M58.8117 31.2181C53.6977 27.722 49.1592 30.3531 45.8451 32.2746C44.1927 33.2326 42.6314 34.1372 41.8297 33.7059C41.116 33.3229 40.6574 32.3078 40.379 31.5163C39.3938 28.6554 39.2965 24.0529 39.3525 21.0237V4.82077C39.3525 1.87483 36.7552 -0.308364 34.0345 0.361963C32.0618 0.847617 30.6842 2.68119 30.6842 4.82077C30.6862 22.0068 30.6752 22.5954 30.7042 24.5259C23.9085 18.3642 13.4655 18.4724 6.80609 25.5069C-0.0590619 32.7588 -0.0590619 44.5587 6.80609 51.8106C10.1317 55.3236 14.5534 57.2584 19.2566 57.2584C28.2391 57.2584 35.5324 50.215 36.6933 41.1818C36.7108 41.1931 37.1014 41.4454 37.118 41.4561C39.506 42.9989 40.9626 45.0312 41.4471 47.4965C42.0569 50.5996 41.0336 54.0726 39.5249 56.7819C39.2358 57.3089 38.9193 57.8335 38.5737 58.3529C37.3985 60.1123 35.6582 61.0895 33.6805 61.5886C33.5261 61.5886 33.4326 61.6166 33.3205 61.6745C28.3761 62.7657 22.227 61.0708 19.331 61.0057C16.3727 60.9415 13.9634 62.1196 12.1614 64.5076C10.8963 66.1842 9.93129 68.4575 9.21168 71.4573C9.11124 71.8135 7.97137 75.9332 8.06836 78.9221C8.08344 79.3882 8.44554 79.7579 8.8871 79.7579H15.6479C16.0929 79.7579 16.4566 79.3826 16.467 78.9126C16.5705 74.2139 17.9688 72.241 17.9781 72.228C18.0124 72.1826 18.0422 72.134 18.0672 72.0824C18.6615 70.8591 19.4039 70.1358 20.3368 69.8716C21.7418 69.474 23.6616 70.094 26.0441 71.7159C26.4196 71.9715 26.7975 72.2315 27.1784 72.4938C31.692 75.6018 36.7999 79.1194 44.106 79.119C49.2026 79.119 53.6856 77.1924 57.5586 73.529C60.8357 70.4294 63.5768 66.1199 65.4861 61.0673C69.9342 49.3041 68.9582 38.1583 58.8117 31.2181ZM30.5487 50.587C24.3076 57.1793 14.2064 57.1796 7.96498 50.587C1.73866 44.0097 1.73866 33.3078 7.96498 26.7309C14.2055 20.1386 24.3073 20.1377 30.5487 26.7309C36.775 33.3078 36.775 44.0097 30.5487 50.587ZM63.9643 60.4261C62.0542 65.4816 56.3197 77.2547 44.3552 77.3872C37.4037 77.4665 32.6599 74.2028 28.0728 71.0443C27.6894 70.7805 27.3091 70.5187 26.9315 70.2617C24.1051 68.3371 21.8088 67.6626 19.9123 68.2005C18.5444 68.588 17.444 69.6071 16.6405 71.2297C16.3498 71.6598 15.0992 73.7415 14.8616 78.0276H9.71272C9.82905 75.3342 10.7758 71.9741 10.7862 71.9371C10.7897 71.9249 10.793 71.9125 10.7959 71.9002C12.3148 65.555 15.0109 62.6421 19.2967 62.7366C21.9371 62.7958 28.0219 64.4241 33.1616 63.481C33.4719 64.2839 34.0729 65.5803 35.084 66.8313C37.1573 69.3961 40.0637 70.6712 43.6053 70.2333C44.0547 70.1779 44.3763 69.7478 44.3237 69.2732C44.2713 68.7986 43.865 68.4575 43.4149 68.5143C37.92 69.1933 35.5526 64.9769 34.7759 63.0854C36.8039 62.4495 38.6101 61.301 39.9133 59.3499C40.234 58.8678 40.5319 58.3806 40.8083 57.8903C41.8374 57.4095 46.194 55.4761 50.0833 55.2682C50.1318 55.2739 50.1955 55.2924 50.3507 55.2562C52.6874 55.1796 54.8212 55.7601 55.9136 57.7008C56.1457 58.1129 56.6486 58.2458 57.0366 58.0023C57.4254 57.7581 57.5532 57.2271 57.322 56.816C55.9847 54.44 53.6086 53.6027 51.0321 53.5423C51.4437 48.9628 55.0427 47.7575 55.2117 47.7037C55.6442 47.5687 55.8921 47.0893 55.7658 46.6315C55.6391 46.1728 55.1848 45.9085 54.7499 46.0432C54.6983 46.0591 49.7998 47.6431 49.3851 53.6006C46.6048 53.8483 43.7986 54.7888 41.9606 55.5212C43.1552 52.6101 43.5519 49.6915 43.0515 47.145C42.4715 44.1928 40.7627 41.7822 37.9727 39.9798C37.6138 39.7479 37.2066 39.4862 36.8463 39.2463C36.9834 34.6139 35.4964 29.9379 32.3841 26.2643C32.3022 23.7999 32.3246 22.8871 32.3228 4.82112C32.3228 3.49033 33.1798 2.34992 34.4066 2.0479C36.0992 1.63096 37.7142 2.98892 37.7142 4.82112L37.7144 21.0069C37.6513 24.4108 37.7676 29.4733 39.0192 32.5889C39.9463 34.9509 42.8363 40.575 49.8565 42.5187C50.2936 42.6396 50.7418 42.3636 50.8566 41.9009C50.9713 41.4387 50.7095 40.9656 50.2719 40.8445C46.5183 39.8052 44.0808 37.5986 42.548 35.5423C46.324 35.2598 51.5297 28.3018 57.9212 32.6714C68.7812 40.0992 67.2017 51.8643 63.9643 60.4261Z" fill="#2B3990"/>
<path d="M11.4799 17.4507C13.7386 17.4507 15.5761 15.5097 15.5761 13.1238C15.5761 10.7379 13.7386 8.79688 11.4799 8.79688C9.22132 8.79688 7.38379 10.7379 7.38379 13.1238C7.38379 15.5097 9.22116 17.4507 11.4799 17.4507ZM11.4799 10.5276C12.8351 10.5276 13.9376 11.6923 13.9376 13.1238C13.9376 14.5553 12.8351 15.72 11.4799 15.72C10.1248 15.72 9.02225 14.5553 9.02225 13.1238C9.02225 11.6923 10.1248 10.5276 11.4799 10.5276Z" fill="#2B3990"/>
<path d="M63.0911 8.79688C59.929 8.79688 57.3564 11.5144 57.3564 14.8546C57.3564 18.1948 59.929 20.9123 63.0911 20.9123C66.2531 20.9123 68.8257 18.1948 68.8257 14.8546C68.8257 11.5144 66.2531 8.79688 63.0911 8.79688ZM63.0911 19.1815C60.8324 19.1815 58.9949 17.2404 58.9949 14.8546C58.9949 12.4687 60.8324 10.5276 63.0911 10.5276C65.3497 10.5276 67.1872 12.4687 67.1872 14.8546C67.1872 17.2404 65.3497 19.1815 63.0911 19.1815Z" fill="#2B3990"/>
<path d="M52.8509 7.06686C53.5296 7.06686 54.0798 6.48569 54.0798 5.76878C54.0798 5.05187 53.5296 4.4707 52.8509 4.4707C52.1722 4.4707 51.6221 5.05187 51.6221 5.76878C51.6221 6.48569 52.1722 7.06686 52.8509 7.06686Z" fill="#2B3990"/>
<path d="M70.8734 29.5669C71.5521 29.5669 72.1022 28.9857 72.1022 28.2688C72.1022 27.5519 71.5521 26.9707 70.8734 26.9707C70.1947 26.9707 69.6445 27.5519 69.6445 28.2688C69.6445 28.9857 70.1947 29.5669 70.8734 29.5669Z" fill="#2B3990"/>
<path d="M43.8392 25.2407C44.5179 25.2407 45.068 24.6595 45.068 23.9426C45.068 23.2257 44.5179 22.6445 43.8392 22.6445C43.1605 22.6445 42.6104 23.2257 42.6104 23.9426C42.6104 24.6595 43.1605 25.2407 43.8392 25.2407Z" fill="#2B3990"/>
<path d="M20.9007 6.20162C21.5794 6.20162 22.1296 5.62045 22.1296 4.90355C22.1296 4.18664 21.5794 3.60547 20.9007 3.60547C20.222 3.60547 19.6719 4.18664 19.6719 4.90355C19.6719 5.62045 20.222 6.20162 20.9007 6.20162Z" fill="#2B3990"/>
<path d="M3.69662 21.7778C4.37529 21.7778 4.92547 21.1966 4.92547 20.4797C4.92547 19.7628 4.37529 19.1816 3.69662 19.1816C3.01795 19.1816 2.46777 19.7628 2.46777 20.4797C2.46777 21.1966 3.01795 21.7778 3.69662 21.7778Z" fill="#2B3990"/>
<path d="M3.69662 56.393C4.37529 56.393 4.92547 55.8119 4.92547 55.095C4.92547 54.378 4.37529 53.7969 3.69662 53.7969C3.01795 53.7969 2.46777 54.378 2.46777 55.095C2.46777 55.8119 3.01795 56.393 3.69662 56.393Z" fill="#2B3990"/>
<path d="M71.6927 64.1821C72.3714 64.1821 72.9216 63.6009 72.9216 62.884C72.9216 62.1671 72.3714 61.5859 71.6927 61.5859C71.014 61.5859 70.4639 62.1671 70.4639 62.884C70.4639 63.6009 71.014 64.1821 71.6927 64.1821Z" fill="#2B3990"/>
<path d="M62.682 76.2973C63.3606 76.2973 63.9108 75.7162 63.9108 74.9992C63.9108 74.2823 63.3606 73.7012 62.682 73.7012C62.0033 73.7012 61.4531 74.2823 61.4531 74.9992C61.4531 75.7162 62.0033 76.2973 62.682 76.2973Z" fill="#2B3990"/>
<path d="M1.23959 71.9712C1.91826 71.9712 2.46843 71.39 2.46843 70.6731C2.46843 69.9562 1.91826 69.375 1.23959 69.375C0.560915 69.375 0.0107422 69.9562 0.0107422 70.6731C0.0107422 71.39 0.560915 71.9712 1.23959 71.9712Z" fill="#2B3990"/>
<path d="M30.5338 45.8332L24.3891 38.9036L26.8545 36.1279C28.3809 34.3984 29.0621 31.22 26.9506 28.3282C26.9464 28.3223 26.941 28.3182 26.9367 28.3126C26.9323 28.3069 26.9295 28.3003 26.9249 28.2946C25.7501 26.8418 24.3314 25.838 22.6859 25.2902C22.6225 25.2628 22.5571 25.2407 22.4889 25.2307C21.5619 24.9454 20.5664 24.7988 19.5019 24.7988C17.0089 24.7988 14.9648 25.5045 13.424 26.8983C12.9998 27.2814 9.3416 30.7667 11.4885 35.0652C11.7292 35.5476 12.0449 36.0102 12.4273 36.4408L14.6145 38.9032L8.31592 45.9957C7.86207 46.5068 8.14307 47.3487 8.80107 47.4451L11.5437 47.8458L12.1927 50.8589C12.3395 51.5403 13.1517 51.7646 13.5962 51.2507L19.5012 44.4245L25.2525 51.0868C25.4102 51.2696 25.6312 51.3691 25.8579 51.3691C26.2628 51.3691 26.6084 51.0558 26.6682 50.6311L27.1009 47.5595L30.0087 47.2869C30.3208 47.2576 30.5897 47.0428 30.7016 46.7336C30.8131 46.4243 30.7481 46.0748 30.5338 45.8332ZM25.6661 29.4037C27.1864 31.5023 26.7583 33.6986 25.6577 34.9456L23.2607 37.6443L20.6232 34.7284L22.1042 33.0183C23.3257 31.6077 23.9645 29.6327 23.6834 27.6318C24.4123 28.0821 25.0713 28.6716 25.6661 29.4037ZM19.5017 33.4593L17.9116 31.6229C17.7019 31.3808 17.5201 31.1201 17.3665 30.8465C17.8932 30.2758 18.5797 29.9863 19.4145 29.9863C20.2266 29.9863 20.9575 30.3248 21.5152 30.9472C21.3438 31.2665 21.1375 31.5703 20.895 31.8503L19.5017 33.4593ZM17.0581 26.8354C18.4455 26.4536 20.2733 26.4083 21.7852 26.8148C22.0769 27.5729 22.1693 28.3831 22.0742 29.1727C21.3073 28.5806 20.3889 28.2555 19.4147 28.2555C18.4146 28.2555 17.5285 28.5432 16.792 29.0951C16.6976 28.34 16.7817 27.5629 17.0581 26.8354ZM13.4428 48.8621L13.0157 46.8784C12.9402 46.5274 12.6667 46.2624 12.3292 46.2131L10.5944 45.9596L15.738 40.1677L18.3856 43.1484L13.4428 48.8621ZM26.313 45.8959C25.9359 45.9312 25.6309 46.2349 25.5751 46.6304L25.3012 48.5746L20.0992 42.5487L13.6222 35.2568C13.3404 34.9394 13.1102 34.6035 12.9379 34.258C11.3848 31.1487 14.1667 28.5049 14.4921 28.211C14.7035 28.0198 14.9279 27.8448 15.1657 27.6859C14.9373 29.5012 15.4755 31.3737 16.7027 32.791C19.6089 36.147 18.7378 35.1473 18.9096 35.3392L22.6684 39.4946L28.1885 45.7198L26.313 45.8959Z" fill="#2B3990"/>
</svg>
