<svg width="90" height="90" viewBox="0 0 90 90" fill="none" xmlns="http://www.w3.org/2000/svg">
<path d="M45.3705 46.0602H35.2617L16.9297 27.7282L29.6175 15.041L47.9496 33.3731V43.4826L45.3705 46.0602ZM36.4263 43.2477H44.206L45.1371 42.3166V34.5376L29.6175 19.0181L20.9067 27.7282L36.4263 43.2477Z" fill="#2B3990"/>
<path d="M52.0867 51.6009C51.7269 51.6009 51.3671 51.4636 51.0924 51.1889L45.7421 45.84C45.1927 45.2913 45.1927 44.4008 45.7421 43.8514C46.2914 43.3021 47.1813 43.3021 47.7306 43.8514L53.0809 49.2004C53.6302 49.7497 53.6302 50.6396 53.0809 51.1889C52.8063 51.4636 52.4465 51.6009 52.0867 51.6009Z" fill="#2B3990"/>
<path d="M15.7803 28.8691L30.7572 13.8922L32.7456 15.8807L17.7687 30.8576L15.7803 28.8691Z" fill="#2B3990"/>
<path d="M13.6406 24.5938L26.478 11.7564L28.4664 13.7448L15.6291 26.5822L13.6406 24.5938Z" fill="#2B3990"/>
<path d="M7.22266 18.1719L20.06 5.33452L22.0484 7.32296L9.21109 20.1603L7.22266 18.1719Z" fill="#2B3990"/>
<path d="M17.8484 24.3628L9.44043 15.9548L17.8484 7.54688L26.2564 15.9548L17.8484 24.3628ZM13.4175 15.9548L17.8484 20.3858L22.2793 15.9548L17.8484 11.5239L13.4175 15.9548Z" fill="#2B3990"/>
<path d="M25.1016 31.668H45.6637V34.4805H25.1016V31.668Z" fill="#2B3990"/>
<path d="M53.0327 85.079C36.4055 85.079 22.8779 71.5521 22.8779 54.9243C22.8779 48.6524 24.7882 42.6422 28.402 37.5432L30.6968 39.1692C27.4215 43.7903 25.6904 49.2388 25.6904 54.9243C25.6904 70.0002 37.956 82.2665 53.0327 82.2665C68.1086 82.2665 80.3749 70.0002 80.3749 54.9243C80.3749 39.8476 68.1086 27.582 53.0327 27.582C49.1229 27.582 45.369 28.3895 41.874 29.9825L40.7081 27.4227C44.5711 25.6622 48.7178 24.7695 53.0327 24.7695C69.6605 24.7695 83.1874 38.2971 83.1874 54.9243C83.1874 71.5521 69.6605 85.079 53.0327 85.079Z" fill="#2B3990"/>
<path d="M70.6452 45.9301C68.8531 42.4358 66.0941 39.5738 62.665 37.6533L64.0383 35.1992C67.9522 37.391 71.1025 40.6581 73.1474 44.6475L70.6452 45.9301Z" fill="#2B3990"/>
<path d="M48.4825 77.2472C46.4556 77.2472 44.0983 76.4342 41.9347 74.8371C37.8883 71.8461 36.2692 67.4048 38.2502 64.7242C40.2311 62.0421 44.9511 62.2838 48.9989 65.2707C53.046 68.2604 54.6637 72.703 52.6834 75.3837C51.762 76.632 50.2472 77.2472 48.4825 77.2472ZM43.6053 72.5739C46.4405 74.6668 49.5414 74.9044 50.4203 73.7137C51.3005 72.5217 50.2472 69.69 47.3276 67.5339C44.4938 65.441 41.3909 65.2062 40.512 66.3941C39.6337 67.5834 40.7695 70.4796 43.6053 72.5739Z" fill="#2B3990"/>
<path d="M56.4975 60.8501C55.2629 60.8501 53.8072 60.4821 52.4105 60.0536C49.9345 59.2942 48.9526 57.8481 48.564 56.7687C47.6782 54.3064 49.0007 51.6436 49.5527 50.6946C49.6516 50.0753 49.9922 49.4175 50.7324 49.1167C52.2238 48.5056 53.825 49.872 55.7751 52.1064C59.1383 55.9626 60.101 58.164 59.0985 59.7089C58.5546 60.5466 57.6167 60.8501 56.4975 60.8501ZM51.9313 52.2011C51.4767 53.0155 50.7873 54.6511 51.213 55.8225C51.4671 56.5201 52.1276 57.0255 53.2345 57.3647C55.1324 57.947 56.1157 58.05 56.5647 58.0404C56.3615 57.5062 55.7133 56.3141 53.6547 53.9548C52.8637 53.0471 52.3048 52.5129 51.9313 52.2011Z" fill="#2B3990"/>
</svg>
