<svg width="368" height="512" viewBox="0 0 368 512" fill="none" xmlns="http://www.w3.org/2000/svg">
<path d="M119.859 109.68C66.6402 126.794 19.8822 164.282 10.7762 228.666C-4.39379 335.921 45.9072 429.529 147.306 488.997C188.03 512.881 209.346 506.177 226.381 489.01C237.659 477.645 248.294 465.817 258.048 453.457M267.376 441.081C308.897 383.358 330.627 314.202 310.125 227.119M301.219 195.854C296.971 183.578 291.12 168.766 285.201 155.773" stroke="#2B3990" stroke-width="15.0001" stroke-miterlimit="22.9256"/>
<path d="M86.5664 185.514C171.557 163.068 185.475 117.802 267.28 90.8812C316.455 74.6982 338.527 137.201 286.421 158.838C261.082 169.36 221.881 182.559 204.434 201.697C156.374 254.418 198.042 298.6 156.374 344.053" stroke="#2B3990" stroke-width="15.0001" stroke-miterlimit="22.9256"/>
<path d="M68.4278 134.892C60.3318 120.735 57.1488 99.678 57.9958 78.02M59.2708 62.575C61.9358 41.36 68.2888 21.008 77.5018 7.5H117.959C120.091 25.461 125.72 59.696 138.98 74.792" stroke="#2B3990" stroke-width="15.0001" stroke-miterlimit="22.9256"/>
<path d="M180.629 247.62C197.975 257.392 226.151 282.046 232.625 316.473" stroke="#2B3990" stroke-width="15.0001" stroke-miterlimit="22.9256"/>
<path d="M113.505 176.84C103.419 123.829 132.842 65.7842 172.214 46.5342L168.694 28.1642L200.482 22.0732L203.941 40.1252C210.108 40.6342 216.325 42.1932 222.502 44.9372L233.61 30.4492L259.296 50.1422L248.435 64.3082C254.965 71.4152 261.289 80.1972 267.279 90.8802" stroke="#2B3990" stroke-width="15.0001" stroke-miterlimit="22.9256"/>
<path d="M204.435 201.697C242.722 187.293 314.796 190.927 350.017 211.091C370.608 222.879 355.703 248.915 335.112 237.126C311.672 223.707 283.274 221.277 256.868 224.09C228.305 227.132 205.664 235.232 180.633 247.62" stroke="#2B3990" stroke-width="15.0001" stroke-miterlimit="22.9256"/>
<path d="M279.117 283.271H294.117M271.617 253.271H286.617" stroke="#2B3990" stroke-width="15.0001" stroke-miterlimit="22.9256"/>
</svg>
