<svg width="498" height="390" viewBox="0 0 498 390" fill="none" xmlns="http://www.w3.org/2000/svg">
<path d="M65.7179 389.754C63.5468 389.754 61.3756 389.754 59.1397 389.721C43.2612 389.559 28.3873 383.24 17.2723 371.931C6.12499 360.621 0.0328368 345.683 0.130052 329.804C0.324482 293.511 4.40752 239.653 22.8784 189.101C44.687 129.379 81.1427 87.9976 131.241 66.1566C139.731 62.4624 148.48 60.6801 157.262 60.8422C171.877 61.1338 184.288 66.6103 193.167 76.6558C207.036 92.3399 212.156 118.75 208.397 155.238C207.944 159.516 204.152 162.626 199.875 162.173C195.597 161.719 192.487 157.928 192.94 153.65C194.755 136.184 194.366 121.342 191.838 109.515C189.797 99.9551 186.33 92.3723 181.534 86.9606C175.506 80.1556 167.243 76.591 156.971 76.3966C150.425 76.267 143.879 77.628 137.463 80.4148C32.4055 126.203 16.0733 256.407 15.6845 329.901C15.5549 354.043 35.1275 373.907 59.3341 374.167C108.201 374.685 136.815 368.949 152.239 364.024C166.141 359.584 176.9 348.632 181.048 334.73C194.982 288.066 194.107 214.863 194.107 214.151C194.042 209.841 197.477 206.308 201.754 206.276C206.032 206.211 209.596 209.646 209.629 213.924C209.661 217.002 210.569 290.238 195.921 339.202C190.283 358.029 175.733 372.838 156.938 378.833C134.255 386.092 103.599 389.754 65.7179 389.754Z" fill="#2B3990"/>
<path d="M432.284 389.754C394.402 389.754 363.747 386.092 341.063 378.833C322.268 372.838 307.718 357.997 302.08 339.202C287.433 290.238 288.34 217.035 288.373 213.924C288.437 209.679 291.905 206.276 296.15 206.276H296.28C300.589 206.341 303.992 209.873 303.927 214.151C303.927 214.928 303.02 288.099 316.986 334.73C321.134 348.632 331.925 359.585 345.794 364.024C361.187 368.95 389.801 374.718 438.7 374.167C462.906 373.908 482.479 354.043 482.349 329.902C481.961 256.375 465.628 126.203 360.571 80.3826C354.155 77.5958 347.609 76.2347 341.063 76.3644C330.791 76.5588 322.495 80.1234 316.5 86.9284C311.704 92.3401 308.237 99.9228 306.195 109.482C303.668 121.278 303.279 136.152 305.094 153.618C305.547 157.896 302.436 161.719 298.159 162.141C293.882 162.594 290.058 159.483 289.636 155.206C285.877 118.75 290.997 92.3077 304.867 76.6236C313.746 66.578 326.189 61.1016 340.772 60.8099C349.586 60.6479 358.335 62.4302 366.793 66.1244C416.891 87.9654 453.347 129.347 475.155 189.102C493.594 239.653 497.709 293.511 497.904 329.804C498.001 345.683 491.909 360.622 480.762 371.931C469.614 383.208 454.74 389.527 438.894 389.721C436.626 389.754 434.455 389.754 432.284 389.754Z" fill="#2B3990"/>
<path d="M154.15 296.492C150.197 296.492 146.794 293.478 146.405 289.46C146.211 287.418 141.707 238.778 153.47 200.767C154.734 196.652 159.108 194.384 163.191 195.647C167.307 196.911 169.575 201.286 168.311 205.369C157.488 240.366 161.83 287.516 161.863 287.969C162.284 292.247 159.141 296.038 154.863 296.459C154.636 296.492 154.377 296.492 154.15 296.492Z" fill="#2B3990"/>
<path d="M129.426 226.27C88.6602 226.27 59.6901 210.878 58.4263 210.197C54.6349 208.156 53.2415 203.425 55.283 199.666C57.3245 195.874 62.0232 194.481 65.8146 196.522C66.3007 196.781 95.9514 212.336 135.712 210.618C139.99 210.424 143.619 213.762 143.814 218.039C144.008 222.317 140.67 225.946 136.393 226.14C134.027 226.205 131.727 226.27 129.426 226.27Z" fill="#2B3990"/>
<path d="M65.4243 338.846C62.9291 338.846 60.4663 337.647 58.9757 335.411C56.5777 331.846 57.5174 327.018 61.082 324.62C83.4091 309.616 95.723 288.067 102.107 272.642C110.208 253.134 111.342 237.936 110.597 233.983C109.819 229.77 112.606 225.687 116.819 224.909C121.031 224.132 125.114 226.919 125.892 231.131C127.415 239.362 125.114 257.736 116.462 278.572C109.236 295.974 95.2693 320.342 69.7341 337.517C68.4379 338.424 66.9149 338.846 65.4243 338.846Z" fill="#2B3990"/>
<path d="M423.566 279.447C421.395 279.447 419.224 278.539 417.668 276.757C385.134 239.2 340.382 212.466 308.593 196.652C279.752 182.329 256.194 174.195 249 171.83C241.774 174.195 218.021 182.394 189.115 196.782C157.391 212.563 112.769 239.265 80.2993 276.757C77.48 279.998 72.5869 280.354 69.3139 277.535C66.0734 274.716 65.717 269.823 68.5362 266.55C83.7018 249.051 102.497 232.362 124.467 216.905C141.934 204.624 161.442 193.12 182.472 182.685C218.215 164.96 245.597 156.567 246.732 156.21C248.19 155.757 249.778 155.757 251.236 156.21C252.37 156.567 279.752 164.96 315.495 182.718C336.494 193.152 356.002 204.656 373.468 216.937C395.439 232.362 414.266 249.051 429.399 266.582C432.218 269.823 431.862 274.748 428.621 277.567C427.195 278.831 425.381 279.447 423.566 279.447Z" fill="#2B3990"/>
<path d="M343.849 296.492C343.589 296.492 343.363 296.492 343.103 296.46C338.826 296.038 335.683 292.247 336.104 287.97C336.136 287.516 340.511 240.366 329.655 205.369C328.392 201.254 330.692 196.911 334.775 195.647C338.891 194.384 343.233 196.684 344.497 200.767C356.26 238.779 351.756 287.419 351.561 289.46C351.205 293.478 347.802 296.492 343.849 296.492Z" fill="#2B3990"/>
<path d="M368.574 226.27C366.306 226.27 363.973 226.237 361.64 226.108C357.362 225.913 354.025 222.284 354.219 218.006C354.413 213.729 358.043 210.391 362.32 210.586C402.211 212.303 431.926 196.651 432.218 196.489C436.009 194.448 440.708 195.874 442.75 199.665C444.791 203.457 443.365 208.155 439.606 210.197C438.31 210.845 409.308 226.27 368.574 226.27Z" fill="#2B3990"/>
<path d="M432.574 338.846C431.083 338.846 429.56 338.424 428.231 337.517C402.696 320.342 388.73 295.974 381.503 278.572C372.851 257.736 370.55 239.362 372.073 231.131C372.851 226.919 376.902 224.099 381.147 224.909C385.36 225.687 388.146 229.738 387.369 233.983C386.656 237.936 387.757 253.134 395.859 272.642C402.275 288.067 414.589 309.616 436.884 324.62C440.448 327.018 441.388 331.846 438.99 335.411C437.532 337.647 435.069 338.846 432.574 338.846Z" fill="#2B3990"/>
<path d="M249 171.441C244.69 171.441 241.223 167.974 241.223 163.664V8.02233C241.223 3.71246 244.69 0.245117 249 0.245117C253.31 0.245117 256.777 3.71246 256.777 8.02233V163.664C256.777 167.941 253.31 171.441 249 171.441Z" fill="#2B3990"/>
</svg>
