<svg width="60" height="60" viewBox="0 0 60 60" fill="none" xmlns="http://www.w3.org/2000/svg">
<path d="M26.3999 9.00039H29.3999V13.8004H28.7999C28.6691 13.7936 28.5396 13.8297 28.4312 13.9034C28.3229 13.9771 28.2417 14.0842 28.1999 14.2084L26.9999 17.8084C26.9701 17.8986 26.9623 17.9946 26.9769 18.0885C26.9915 18.1824 27.0281 18.2715 27.0839 18.3484C27.142 18.4302 27.2197 18.4961 27.3098 18.5401C27.3999 18.5842 27.4997 18.6049 27.5999 18.6004H32.3999C32.4951 18.6 32.5888 18.5769 32.6733 18.5331C32.7578 18.4892 32.8307 18.4259 32.8859 18.3484C32.9417 18.2715 32.9783 18.1824 32.993 18.0885C33.0076 17.9946 32.9997 17.8986 32.9699 17.8084L31.7699 14.2084C31.7297 14.0892 31.653 13.9857 31.5507 13.9125C31.4484 13.8393 31.3257 13.8001 31.1999 13.8004H30.5999V9.00039H33.5999C34.3956 9.00039 35.1586 8.68432 35.7212 8.12171C36.2838 7.5591 36.5999 6.79604 36.5999 6.00039C36.5999 5.84126 36.5367 5.68865 36.4242 5.57613C36.3116 5.4636 36.159 5.40039 35.9999 5.40039H23.9999C23.8408 5.40039 23.6882 5.4636 23.5756 5.57613C23.4631 5.68865 23.3999 5.84126 23.3999 6.00039C23.3999 6.79604 23.716 7.5591 24.2786 8.12171C24.8412 8.68432 25.6043 9.00039 26.3999 9.00039ZM31.5659 17.4004H28.4339L29.2319 15.0004H30.7679L31.5659 17.4004ZM35.2979 6.60039C35.1738 6.95148 34.9438 7.25544 34.6397 7.47036C34.3356 7.68528 33.9723 7.80059 33.5999 7.80039H26.3999C26.0275 7.80059 25.6642 7.68528 25.3601 7.47036C25.056 7.25544 24.826 6.95148 24.7019 6.60039H35.2979ZM19.1999 37.8004H10.1999V26.4004C10.1999 25.6047 9.88383 24.8417 9.32122 24.2791C8.75861 23.7165 7.99555 23.4004 7.1999 23.4004H5.9999C5.84077 23.4004 5.68816 23.4636 5.57564 23.5761C5.46312 23.6886 5.3999 23.8413 5.3999 24.0004V54.0004C5.3999 54.1595 5.46312 54.3121 5.57564 54.4247C5.68816 54.5372 5.84077 54.6004 5.9999 54.6004H9.5999C9.75903 54.6004 9.91165 54.5372 10.0242 54.4247C10.1367 54.3121 10.1999 54.1595 10.1999 54.0004V42.6004H17.3999V54.0004C17.3999 54.1595 17.4631 54.3121 17.5756 54.4247C17.6882 54.5372 17.8408 54.6004 17.9999 54.6004H21.5999C21.759 54.6004 21.9116 54.5372 22.0242 54.4247C22.1367 54.3121 22.1999 54.1595 22.1999 54.0004V40.8004C22.1999 40.0047 21.8838 39.2417 21.3212 38.6791C20.7586 38.1165 19.9956 37.8004 19.1999 37.8004ZM20.9999 53.4004H18.5999V42.0004C18.5999 41.8413 18.5367 41.6886 18.4242 41.5761C18.3116 41.4636 18.159 41.4004 17.9999 41.4004H9.5999C9.44077 41.4004 9.28816 41.4636 9.17564 41.5761C9.06312 41.6886 8.9999 41.8413 8.9999 42.0004V53.4004H6.5999V24.6004H7.1999C7.67729 24.6004 8.13513 24.79 8.47269 25.1276C8.81026 25.4652 8.9999 25.923 8.9999 26.4004V38.4004C8.9999 38.5595 9.06312 38.7121 9.17564 38.8247C9.28816 38.9372 9.44077 39.0004 9.5999 39.0004H19.1999C19.6773 39.0004 20.1351 39.19 20.4727 39.5276C20.8103 39.8652 20.9999 40.323 20.9999 40.8004V53.4004ZM53.9999 23.4004H52.7999C52.0043 23.4004 51.2412 23.7165 50.6786 24.2791C50.116 24.8417 49.7999 25.6047 49.7999 26.4004V37.8004H40.7999C40.0043 37.8004 39.2412 38.1165 38.6786 38.6791C38.116 39.2417 37.7999 40.0047 37.7999 40.8004V54.0004C37.7999 54.1595 37.8631 54.3121 37.9756 54.4247C38.0882 54.5372 38.2408 54.6004 38.3999 54.6004H41.9999C42.159 54.6004 42.3116 54.5372 42.4242 54.4247C42.5367 54.3121 42.5999 54.1595 42.5999 54.0004V42.6004H49.7999V54.0004C49.7999 54.1595 49.8631 54.3121 49.9756 54.4247C50.0882 54.5372 50.2408 54.6004 50.3999 54.6004H53.9999C54.159 54.6004 54.3116 54.5372 54.4242 54.4247C54.5367 54.3121 54.5999 54.1595 54.5999 54.0004V24.0004C54.5999 23.8413 54.5367 23.6886 54.4242 23.5761C54.3116 23.4636 54.159 23.4004 53.9999 23.4004ZM53.3999 53.4004H50.9999V42.0004C50.9999 41.8413 50.9367 41.6886 50.8242 41.5761C50.7116 41.4636 50.559 41.4004 50.3999 41.4004H41.9999C41.8408 41.4004 41.6882 41.4636 41.5756 41.5761C41.4631 41.6886 41.3999 41.8413 41.3999 42.0004V53.4004H38.9999V40.8004C38.9999 40.323 39.1895 39.8652 39.5271 39.5276C39.8647 39.19 40.3225 39.0004 40.7999 39.0004H50.3999C50.559 39.0004 50.7116 38.9372 50.8242 38.8247C50.9367 38.7121 50.9999 38.5595 50.9999 38.4004V26.4004C50.9999 25.923 51.1895 25.4652 51.5271 25.1276C51.8647 24.79 52.3225 24.6004 52.7999 24.6004H53.3999V53.4004ZM29.9999 19.2004C30.159 19.2004 30.3116 19.2636 30.4242 19.3761C30.5367 19.4886 30.5999 19.6413 30.5999 19.8004V23.4004C30.5999 23.5595 30.5367 23.7121 30.4242 23.8247C30.3116 23.9372 30.159 24.0004 29.9999 24.0004C29.8408 24.0004 29.6882 23.9372 29.5756 23.8247C29.4631 23.7121 29.3999 23.5595 29.3999 23.4004V19.8004C29.3999 19.6413 29.4631 19.4886 29.5756 19.3761C29.6882 19.2636 29.8408 19.2004 29.9999 19.2004ZM33.5999 51.0004H31.7999V33.0004H43.1999C43.9956 33.0004 44.7586 32.6843 45.3212 32.1217C45.8838 31.5591 46.1999 30.796 46.1999 30.0004V28.8004C46.1999 28.6413 46.1367 28.4886 46.0242 28.3761C45.9116 28.2636 45.759 28.2004 45.5999 28.2004H14.3999C14.2408 28.2004 14.0882 28.2636 13.9756 28.3761C13.8631 28.4886 13.7999 28.6413 13.7999 28.8004V30.0004C13.7999 30.796 14.116 31.5591 14.6786 32.1217C15.2412 32.6843 16.0043 33.0004 16.7999 33.0004H28.1999V51.0004H26.3999C25.6043 51.0004 24.8412 51.3165 24.2786 51.8791C23.716 52.4417 23.3999 53.2047 23.3999 54.0004C23.3999 54.1595 23.4631 54.3121 23.5756 54.4247C23.6882 54.5372 23.8408 54.6004 23.9999 54.6004H35.9999C36.159 54.6004 36.3116 54.5372 36.4242 54.4247C36.5367 54.3121 36.5999 54.1595 36.5999 54.0004C36.5999 53.2047 36.2838 52.4417 35.7212 51.8791C35.1586 51.3165 34.3956 51.0004 33.5999 51.0004ZM14.9999 30.0004V29.4004H44.9999V30.0004C44.9999 30.4778 44.8103 30.9356 44.4727 31.2732C44.1351 31.6107 43.6773 31.8004 43.1999 31.8004H16.7999C16.3225 31.8004 15.8647 31.6107 15.5271 31.2732C15.1895 30.9356 14.9999 30.4778 14.9999 30.0004ZM29.3999 33.0004H30.5999V51.0004H29.3999V33.0004ZM24.7019 53.4004C24.826 53.0493 25.056 52.7453 25.3601 52.5304C25.6642 52.3155 26.0275 52.2002 26.3999 52.2004H33.5999C33.9723 52.2002 34.3356 52.3155 34.6397 52.5304C34.9438 52.7453 35.1738 53.0493 35.2979 53.4004H24.7019ZM27.9059 19.2844C28.0427 19.3656 28.1417 19.4978 28.1811 19.6519C28.2205 19.8061 28.197 19.9695 28.1159 20.1064L26.3159 23.1064C26.2628 23.196 26.1873 23.2702 26.0968 23.3217C26.0064 23.3733 25.904 23.4004 25.7999 23.4004C25.6922 23.4004 25.5865 23.3713 25.4939 23.3164C25.3571 23.2352 25.2581 23.103 25.2187 22.9489C25.1793 22.7947 25.2028 22.6313 25.2839 22.4944L27.0839 19.4944C27.1651 19.3576 27.2973 19.2586 27.4514 19.2192C27.6056 19.1798 27.769 19.2033 27.9059 19.2844ZM32.9159 19.4944L34.7159 22.4944C34.797 22.6313 34.8205 22.7947 34.7811 22.9489C34.7417 23.103 34.6427 23.2352 34.5059 23.3164C34.4133 23.3713 34.3076 23.4004 34.1999 23.4004C34.0958 23.4004 33.9934 23.3733 33.903 23.3217C33.8125 23.2702 33.737 23.196 33.6839 23.1064L31.8839 20.1064C31.8227 19.971 31.8139 19.8178 31.8592 19.6763C31.9045 19.5349 32.0007 19.4152 32.1291 19.3406C32.2575 19.2659 32.409 19.2416 32.5544 19.2722C32.6997 19.3028 32.8285 19.3863 32.9159 19.5064V19.4944Z" fill="#2B3990"/>
</svg>
