<svg width="60" height="60" viewBox="0 0 60 60" fill="none" xmlns="http://www.w3.org/2000/svg">
<g clip-path="url(#clip0_1029_2394)">
<path d="M5.625 45.9375C5.37636 45.9375 5.1379 46.0363 4.96209 46.2121C4.78627 46.3879 4.6875 46.6264 4.6875 46.875V50.1375C4.6875 50.3861 4.78627 50.6246 4.96209 50.8004C5.1379 50.9762 5.37636 51.075 5.625 51.075C5.87364 51.075 6.1121 50.9762 6.28791 50.8004C6.46373 50.6246 6.5625 50.3861 6.5625 50.1375V47.8125L13.125 47.8359C13.3761 47.8308 13.6151 47.7271 13.7905 47.5474C13.9658 47.3676 14.0635 47.1261 14.0625 46.875C14.0625 46.6264 13.9637 46.3879 13.7879 46.2121C13.6121 46.0363 13.3736 45.9375 13.125 45.9375H5.625Z" fill="#2B3990"/>
<path d="M12.1877 54.0664V57.1883H6.5627C6.55026 56.9396 6.43957 56.7061 6.25496 56.5391C6.07036 56.3721 5.82696 56.2852 5.57832 56.2977C5.32968 56.3101 5.09616 56.4208 4.92914 56.6054C4.76211 56.79 4.67526 57.0334 4.6877 57.282V58.1258C4.6877 58.3744 4.78647 58.6129 4.96228 58.7887C5.1381 58.9645 5.37656 59.0633 5.6252 59.0633H13.1252C13.3738 59.0633 13.6123 58.9645 13.7881 58.7887C13.9639 58.6129 14.0627 58.3744 14.0627 58.1258V54.0664C14.0627 53.8178 13.9639 53.5793 13.7881 53.4035C13.6123 53.2277 13.3738 53.1289 13.1252 53.1289C12.8766 53.1289 12.6381 53.2277 12.4623 53.4035C12.2865 53.5793 12.1877 53.8178 12.1877 54.0664Z" fill="#2B3990"/>
<path d="M25.3125 53.6992V57.1867H19.6875V54.5992C19.6875 54.3506 19.5887 54.1121 19.4129 53.9363C19.2371 53.7605 18.9986 53.6617 18.75 53.6617C18.5014 53.6617 18.2629 53.7605 18.0871 53.9363C17.9113 54.1121 17.8125 54.3506 17.8125 54.5992V58.1242C17.8125 58.3729 17.9113 58.6113 18.0871 58.7871C18.2629 58.9629 18.5014 59.0617 18.75 59.0617H26.25C26.4986 59.0617 26.7371 58.9629 26.9129 58.7871C27.0887 58.6113 27.1875 58.3729 27.1875 58.1242V53.6992C27.1875 53.4506 27.0887 53.2121 26.9129 53.0363C26.7371 52.8605 26.4986 52.7617 26.25 52.7617C26.0014 52.7617 25.7629 52.8605 25.5871 53.0363C25.4113 53.2121 25.3125 53.4506 25.3125 53.6992Z" fill="#2B3990"/>
<path d="M31.875 41.7375C32.1236 41.7375 32.3621 41.6387 32.5379 41.4629C32.7137 41.2871 32.8125 41.0486 32.8125 40.8V32.8125H38.4375V38.4656C38.4375 38.7143 38.5363 38.9527 38.7121 39.1285C38.8879 39.3044 39.1264 39.4031 39.375 39.4031C39.6236 39.4031 39.8621 39.3044 40.0379 39.1285C40.2137 38.9527 40.3125 38.7143 40.3125 38.4656V31.875C40.3125 31.6264 40.2137 31.3879 40.0379 31.2121C39.8621 31.0363 39.6236 30.9375 39.375 30.9375H31.875C31.6264 30.9375 31.3879 31.0363 31.2121 31.2121C31.0363 31.3879 30.9375 31.6264 30.9375 31.875V40.8C30.9375 41.0486 31.0363 41.2871 31.2121 41.4629C31.3879 41.6387 31.6264 41.7375 31.875 41.7375Z" fill="#2B3990"/>
<path d="M39.375 44.2227C39.1264 44.2227 38.8879 44.3214 38.7121 44.4972C38.5363 44.6731 38.4375 44.9115 38.4375 45.1602V57.1883H32.8125V49.2008C32.8125 48.9521 32.7137 48.7137 32.5379 48.5379C32.3621 48.3621 32.1236 48.2633 31.875 48.2633C31.6264 48.2633 31.3879 48.3621 31.2121 48.5379C31.0363 48.7137 30.9375 48.9521 30.9375 49.2008V58.1258C30.9375 58.3744 31.0363 58.6129 31.2121 58.7887C31.3879 58.9645 31.6264 59.0633 31.875 59.0633H39.375C39.6236 59.0633 39.8621 58.9645 40.0379 58.7887C40.2137 58.6129 40.3125 58.3744 40.3125 58.1258V45.1602C40.3125 44.9115 40.2137 44.6731 40.0379 44.4972C39.8621 44.3214 39.6236 44.2227 39.375 44.2227Z" fill="#2B3990"/>
<path d="M52.5 39.9375C52.2514 39.9375 52.0129 40.0363 51.8371 40.2121C51.6613 40.3879 51.5625 40.6264 51.5625 40.875V57.1875H45.9375V46.2844C45.9375 46.0357 45.8387 45.7973 45.6629 45.6215C45.4871 45.4456 45.2486 45.3469 45 45.3469C44.7514 45.3469 44.5129 45.4456 44.3371 45.6215C44.1613 45.7973 44.0625 46.0357 44.0625 46.2844V58.125C44.0625 58.3736 44.1613 58.6121 44.3371 58.7879C44.5129 58.9637 44.7514 59.0625 45 59.0625H52.5C52.7486 59.0625 52.9871 58.9637 53.1629 58.7879C53.3387 58.6121 53.4375 58.3736 53.4375 58.125V40.875C53.4375 40.6264 53.3387 40.3879 53.1629 40.2121C52.9871 40.0363 52.7486 39.9375 52.5 39.9375Z" fill="#2B3990"/>
<path d="M45 40.2469C45.2486 40.2469 45.4871 40.1481 45.6629 39.9723C45.8387 39.7965 45.9375 39.558 45.9375 39.3094V25.3125H51.5625V31.2375C51.5625 31.4861 51.6613 31.7246 51.8371 31.9004C52.0129 32.0762 52.2514 32.175 52.5 32.175C52.7486 32.175 52.9871 32.0762 53.1629 31.9004C53.3387 31.7246 53.4375 31.4861 53.4375 31.2375V24.375C53.4375 24.1264 53.3387 23.8879 53.1629 23.7121C52.9871 23.5363 52.7486 23.4375 52.5 23.4375H48.75V12.1875H58.125C58.2991 12.1875 58.4698 12.139 58.6179 12.0475C58.766 11.956 58.8857 11.825 58.9635 11.6693C59.0414 11.5135 59.0743 11.3392 59.0587 11.1658C59.0431 10.9924 58.9795 10.8268 58.875 10.6875L56.55 7.58812L58.7878 5.35031C58.9189 5.2192 59.0081 5.05217 59.0443 4.87034C59.0805 4.68851 59.0619 4.50004 58.9909 4.32876C58.92 4.15748 58.7999 4.01108 58.6457 3.90806C58.4916 3.80504 58.3104 3.75004 58.125 3.75H47.8125C47.5639 3.75 47.3254 3.84877 47.1496 4.02459C46.9738 4.2004 46.875 4.43886 46.875 4.6875V23.4375H45C44.7514 23.4375 44.5129 23.5363 44.3371 23.7121C44.1613 23.8879 44.0625 24.1264 44.0625 24.375V39.3094C44.0625 39.558 44.1613 39.7965 44.3371 39.9723C44.5129 40.1481 44.7514 40.2469 45 40.2469ZM48.75 5.625H55.8619L54.6497 6.83719C54.4901 6.99674 54.3935 7.20849 54.3774 7.43357C54.3614 7.65865 54.4271 7.88196 54.5625 8.0625L56.25 10.3125H48.75V5.625Z" fill="#2B3990"/>
<path d="M58.1249 29.0625H55.3124C55.0638 29.0625 54.8253 29.1613 54.6495 29.3371C54.4737 29.5129 54.3749 29.7514 54.3749 30C54.3749 30.2486 54.4737 30.4871 54.6495 30.6629C54.8253 30.8387 55.0638 30.9375 55.3124 30.9375H55.9752L45.6065 42.1031L36.7499 40.3313C36.6157 40.304 36.4772 40.3066 36.3441 40.339C36.2111 40.3715 36.0869 40.4328 35.9802 40.5188L22.3302 51.435L15.3299 48.81C15.1034 48.7252 14.8528 48.7312 14.6306 48.8269L1.50556 54.4519C1.28056 54.5522 1.10408 54.737 1.01426 54.9663C0.924435 55.1957 0.928494 55.4512 1.02556 55.6776C1.12262 55.904 1.30489 56.0831 1.53295 56.1762C1.76101 56.2692 2.01655 56.2688 2.24431 56.175L15.0224 50.6981L22.1699 53.3794C22.3222 53.4365 22.4867 53.4531 22.6473 53.4275C22.8078 53.4018 22.959 53.3349 23.0859 53.2331L36.8071 42.255L45.7499 44.0437C45.9069 44.0759 46.0695 44.0668 46.2219 44.0176C46.3744 43.9683 46.5115 43.8804 46.6199 43.7625L57.1874 32.3869V32.8125C57.1874 33.0611 57.2862 33.2996 57.462 33.4754C57.6378 33.6512 57.8763 33.75 58.1249 33.75C58.3736 33.75 58.612 33.6512 58.7878 33.4754C58.9637 33.2996 59.0624 33.0611 59.0624 32.8125V30C59.0595 29.7523 58.9598 29.5155 58.7846 29.3403C58.6094 29.1651 58.3727 29.0654 58.1249 29.0625Z" fill="#2B3990"/>
<path d="M22.2471 18.1089C22.0703 17.9381 21.8335 17.8436 21.5877 17.8457C21.3419 17.8479 21.1067 17.9465 20.9329 18.1203C20.7591 18.2941 20.6605 18.5292 20.6584 18.7751C20.6562 19.0209 20.7507 19.2577 20.9215 19.4345L21.8374 20.3504C22.0132 20.5263 22.2516 20.6251 22.5002 20.6251H26.2502C26.4989 20.6251 26.7373 20.7239 26.9131 20.8997C27.089 21.0755 27.1877 21.314 27.1877 21.5626C27.1877 21.8113 27.089 22.0497 26.9131 22.2255C26.7373 22.4013 26.4989 22.5001 26.2502 22.5001H22.8293C22.7123 22.5002 22.5961 22.4812 22.4852 22.4439L20.7921 21.8814C20.5559 21.8027 20.2981 21.821 20.0754 21.9324C19.8528 22.0438 19.6835 22.2391 19.6048 22.4753C19.5261 22.7115 19.5444 22.9693 19.6558 23.1919C19.7672 23.4146 19.9625 23.5839 20.1987 23.6626L21.8927 24.2251C22.1951 24.3256 22.5116 24.3769 22.8302 24.377H26.2502C26.9962 24.377 27.7115 24.0807 28.239 23.5532C28.7664 23.0258 29.0627 22.3104 29.0627 21.5645C29.0627 20.8186 28.7664 20.1032 28.239 19.5758C27.7115 19.0483 26.9962 18.752 26.2502 18.752H22.8884L22.2471 18.1089Z" fill="#2B3990"/>
<path d="M3.07981 25.1813C3.42023 25.3706 3.79465 25.4909 4.18165 25.5353C4.56864 25.5798 4.96059 25.5474 5.33506 25.4401C5.70952 25.3328 6.05915 25.1527 6.3639 24.9101C6.66865 24.6675 6.92255 24.3671 7.11106 24.0262L9.09387 20.4375L13.4701 18.6872C13.7011 18.5949 13.886 18.4147 13.9841 18.1862C14.0822 17.9576 14.0855 17.6994 13.9932 17.4684C13.901 17.2375 13.7208 17.0526 13.4922 16.9545C13.2637 16.8564 13.0055 16.8531 12.7745 16.9453L8.08699 18.8203C7.88706 18.9012 7.7214 19.049 7.61824 19.2384L5.47231 23.1197C5.40306 23.2447 5.30984 23.3549 5.19799 23.4438C5.08614 23.5328 4.95785 23.5989 4.82045 23.6382C4.68306 23.6776 4.53925 23.6895 4.39726 23.6732C4.25527 23.6569 4.11787 23.6128 3.99293 23.5434C3.88439 23.4831 3.78893 23.4017 3.7121 23.3041C3.63526 23.2066 3.57858 23.0947 3.54535 22.975C3.51212 22.8553 3.50299 22.7303 3.51851 22.607C3.53403 22.4838 3.57388 22.3649 3.63574 22.2572L6.51949 17.25C6.62116 17.0753 6.76954 16.9325 6.94793 16.8375C11.0954 14.6156 14.5454 13.125 15.5298 13.125C16.2189 13.125 18.7501 14.1797 18.7501 16.0219C18.7501 17.9062 16.7636 22.3969 15.9976 23.9644C15.902 24.1605 15.8778 24.3838 15.9292 24.5958C15.9805 24.8078 16.1042 24.9953 16.2789 25.1259L22.8498 30.0319C23.0066 30.1484 23.1289 30.3052 23.2038 30.4856C23.2788 30.666 23.3035 30.8633 23.2754 31.0566L22.2114 38.4375H20.3364L20.6251 31.9162C20.6353 31.6834 20.5584 31.455 20.4093 31.2758C20.2602 31.0965 20.0497 30.9793 19.8189 30.9469C15.227 30.3047 10.3126 28.6406 10.3126 27.1875C10.3136 25.566 10.5514 23.9534 11.0186 22.4006C11.0918 22.1629 11.0676 21.9059 10.9513 21.686C10.835 21.4662 10.6361 21.3015 10.3984 21.2283C10.1607 21.1551 9.90365 21.1793 9.68379 21.2956C9.46393 21.4119 9.29928 21.6107 9.22606 21.8484C8.70491 23.5803 8.4393 25.3789 8.43762 27.1875C8.43762 30.6178 15.4764 32.1562 18.7136 32.6756L18.4567 38.4966C18.2705 38.5564 18.1079 38.6736 17.9922 38.8314C17.8766 38.9891 17.8137 39.1794 17.8126 39.375V47.5875C17.8126 47.8361 17.9114 48.0746 18.0872 48.2504C18.263 48.4262 18.5015 48.525 18.7501 48.525C18.9988 48.525 19.2372 48.4262 19.413 48.2504C19.5888 48.0746 19.6876 47.8361 19.6876 47.5875V40.3125H25.3126V45.3C25.3126 45.5486 25.4114 45.7871 25.5872 45.9629C25.763 46.1387 26.0015 46.2375 26.2501 46.2375C26.4988 46.2375 26.7372 46.1387 26.913 45.9629C27.0888 45.7871 27.1876 45.5486 27.1876 45.3V39.375C27.1876 39.1264 27.0888 38.8879 26.913 38.7121C26.7372 38.5363 26.4988 38.4375 26.2501 38.4375H24.107L25.1326 31.3237C25.2083 30.7966 25.1405 30.2588 24.9362 29.767C24.7319 29.2752 24.3988 28.8475 23.972 28.5291L18.017 24.0825C18.8082 22.3781 20.6251 18.2241 20.6251 16.0219C20.6251 12.8738 17.0532 11.25 15.5298 11.25C13.6876 11.25 8.81262 13.7119 6.06481 15.18C5.57569 15.4394 5.17004 15.8321 4.89481 16.3125L2.01106 21.3216C1.8252 21.6445 1.70537 22.0012 1.65854 22.3709C1.6117 22.7405 1.63879 23.1158 1.73822 23.4749C1.83766 23.834 2.00747 24.1698 2.23777 24.4627C2.46808 24.7556 2.7543 24.9999 3.07981 25.1813Z" fill="#2B3990"/>
<path d="M14.4102 32.8799C14.2959 32.8342 14.1737 32.8114 14.0506 32.8129C13.9275 32.8144 13.8059 32.8401 13.6927 32.8886C13.5795 32.9371 13.477 33.0074 13.391 33.0955C13.305 33.1836 13.2372 33.2878 13.1915 33.4021L11.4252 37.8196L7.36304 40.5281C7.16002 40.6636 6.9175 40.7274 6.67405 40.7092C6.43061 40.691 6.20025 40.5919 6.01961 40.4277C5.91721 40.3344 5.83439 40.2217 5.77596 40.096C5.71753 39.9704 5.68466 39.8344 5.67925 39.696C5.67384 39.5576 5.69601 39.4194 5.74446 39.2896C5.79291 39.1598 5.86668 39.041 5.96148 38.9399L9.03179 35.6896C9.12768 35.5885 9.19947 35.4671 9.24179 35.3343L10.2665 32.1646C10.3119 32.0458 10.3326 31.919 10.3274 31.792C10.3223 31.6649 10.2913 31.5402 10.2364 31.4255C10.1815 31.3108 10.1039 31.2084 10.0082 31.1247C9.91253 31.0409 9.8008 30.9775 9.67983 30.9383C9.55886 30.8991 9.43118 30.8849 9.30455 30.8965C9.17792 30.9082 9.05499 30.9456 8.94325 31.0063C8.8315 31.0669 8.73327 31.1497 8.65453 31.2496C8.57579 31.3495 8.51819 31.4643 8.48523 31.5871L7.52336 34.5562L4.59836 37.6499C4.3327 37.9321 4.12585 38.2643 3.98987 38.6272C3.8539 38.9901 3.79151 39.3764 3.80634 39.7636C3.82117 40.1509 3.91293 40.5313 4.07627 40.8827C4.23961 41.2342 4.47127 41.5496 4.75773 41.8106C5.24724 42.2571 5.87227 42.5267 6.533 42.5763C7.19372 42.626 7.85202 42.4527 8.40273 42.0843L12.7077 39.2146C12.8655 39.1096 12.9878 38.9593 13.0584 38.7834L14.9334 34.0959C15.0248 33.8652 15.0211 33.6077 14.9231 33.3798C14.825 33.1519 14.6406 32.9721 14.4102 32.8799Z" fill="#2B3990"/>
<path d="M21.1509 11.25C22.3219 11.1585 23.4113 10.6146 24.1881 9.73364C24.9649 8.85268 25.3682 7.70386 25.3125 6.53062C25.3125 2.88094 22.7812 0.9375 20.9541 0.9375C17.5078 0.9375 15.9375 3.28125 15.9375 5.44875C15.9375 8.8125 18.1303 11.25 21.1509 11.25ZM20.9541 2.8125C21.7922 2.8125 23.4375 3.9375 23.4375 6.53062C23.4881 7.2063 23.28 7.87594 22.8555 8.40402C22.431 8.9321 21.8217 9.27918 21.1509 9.375C19.1541 9.375 17.8125 7.79719 17.8125 5.44875C17.8125 4.17469 18.6375 2.8125 20.9541 2.8125Z" fill="#2B3990"/>
</g>
<defs>
<clipPath id="clip0_1029_2394">
<rect width="60" height="60" fill="white"/>
</clipPath>
</defs>
</svg>
