<svg width="60" height="60" viewBox="0 0 60 60" fill="none" xmlns="http://www.w3.org/2000/svg">
<path fill-rule="evenodd" clip-rule="evenodd" d="M6.80833 30.5695C6.55645 26.7755 12.0678 25.978 13.035 29.6302C13.362 30.9872 12.6815 32.89 10.9915 33.1069C10.4862 33.1606 10.0913 33.1037 9.82573 32.6063C9.95785 32.5006 9.87469 32.4989 9.94237 32.4828C10.0415 32.4594 9.96241 32.4042 10.0727 32.3663C11.7563 31.6765 11.7478 28.6493 9.51709 29.0334C7.72213 29.3965 8.05849 31.6612 9.33889 32.1469C9.33889 32.2861 9.68149 32.1532 9.82573 32.4418C9.79429 32.5046 9.75601 32.4767 9.69541 32.5172C9.74797 32.5698 9.68713 32.5756 9.68173 32.6338C9.67849 32.6688 9.91405 32.7325 9.46909 32.8189C8.05693 33.17 6.87289 31.9199 6.80833 30.5695ZM48.6191 27.5934C52.771 25.2226 55.7048 32.0854 51.0672 33.2236C50.7748 33.1757 50.5085 33.3896 50.2786 33.107C50.3107 33.0589 50.3682 33.0553 50.4432 33.0179C50.4364 33.0179 50.4364 33.011 50.4295 33.011C50.4288 33.0103 50.3929 32.9928 50.4295 32.9562C50.4295 32.9357 50.4364 32.915 50.4432 32.9014C50.4151 32.8358 50.2175 32.8703 50.6215 32.675C52.3847 31.6771 52.5005 28.7386 50.1346 28.876C49.0043 29.0606 48.4739 30.5464 49.161 31.4544C49.432 31.9927 50.069 32.4758 50.2787 32.9425C50.2444 32.9699 50.2032 32.9768 50.1758 33.0385C50.1604 33.0714 50.0977 33.022 50.0455 33.1003C49.9838 33.193 49.8947 33.0872 49.6409 33.21C46.7209 33.0186 46.1718 28.9474 48.6191 27.5934ZM45.9514 42.0354C45.9514 42.0354 45.9514 42.0286 45.9514 42.0217V42.0354ZM56.2241 41.7612C56.4347 38.6545 55.4566 34.9532 51.8281 34.554C51.6772 34.5173 50.0999 34.4405 50.6009 34.6637C50.5837 34.7153 50.4746 34.7734 50.5597 34.7734C50.5666 34.7802 50.5734 34.7872 50.5802 34.7872C50.5096 34.7972 50.3353 34.8083 50.2786 34.8488C54.2257 35.8072 54.9768 38.2446 54.6674 42.0356C54.6674 42.0356 54.6606 42.0356 54.6606 42.0288C54.6469 42.022 54.64 42.0151 54.6538 42.0013C54.6538 42.0013 54.6606 42.0013 54.6606 41.9945C51.8807 41.8746 48.7471 41.9825 45.9515 41.974C45.7239 38.066 46.4306 35.9648 50.2787 34.6912C49.2716 33.8527 47.5808 34.4132 46.5893 35.0203C43.9667 32.7989 40.7565 30.5074 37.8665 28.588C37.8508 26.8068 37.9066 24.649 37.5922 22.9304C37.9486 23.1769 38.8979 24.6842 39.43 24.5899C41.5933 24.5903 45.954 24.5735 48.1186 24.5488C48.7106 24.5465 49.0411 23.8378 48.626 23.3968C43.5985 18.0416 35.347 8.8698 30.5904 4.81248L30.7001 4.98396L30.0554 4.34616C35.3052 10.7128 40.8085 16.897 46.3079 23.0468L39.8206 22.992C36.7864 19.6153 33.7787 16.1731 30.6588 12.8702C29.7978 12.1402 29.1202 13.2523 28.581 13.8167C26.7535 15.8327 22.2466 20.791 20.2832 22.9646L13.9742 22.9715C19.4978 16.8768 24.9023 10.5944 30.0553 4.18164C23.4809 9.64416 17.2426 16.9441 11.293 23.2249C10.7467 23.818 11.1644 24.8023 11.9926 24.8023L20.6812 24.7818C21.277 24.8722 21.9748 23.7044 22.3475 23.3828C22.2046 25.0198 22.1764 27.0073 22.231 28.6495C19.6867 30.7583 16.1191 32.5348 13.755 35.3219C12.6856 34.5481 11.1197 33.7972 9.82561 34.3481C10.0136 34.4304 9.97249 34.4602 10.0519 34.5196C10.1273 34.5607 10.2028 34.6087 10.2302 34.6842C13.5322 36.1223 14.418 38.5036 14.1116 41.9532C11.2754 41.91 8.02837 42.3352 5.33389 42.0221C4.96873 38.3082 5.84977 35.6915 9.63361 34.451C9.58561 34.4236 9.52381 34.4442 9.48277 34.403C9.49645 34.3824 9.51025 34.3687 9.51709 34.3482C9.58345 34.3151 9.54613 34.2934 9.51709 34.2934C9.51025 34.2865 9.50341 34.2865 9.48961 34.2797C9.58717 34.2552 9.76069 34.2392 9.82561 34.1837C8.54389 33.7912 7.22221 34.4804 6.14989 35.1642C3.94645 36.0227 2.27317 43.5989 5.38177 43.7434C8.37145 43.838 11.4133 43.8265 14.4887 43.7365C16.5511 43.3193 15.8424 40.8469 15.8946 39.1144C15.7858 37.9295 15.1926 36.5554 14.2693 35.7884C17.2118 34.1794 20.88 31.7621 23.6711 29.8223C24.5612 29.4754 23.7744 22.9987 23.6711 21.9018C24.851 20.5878 26.0364 19.2346 27.2165 17.9244C26.4458 23.2068 27.1971 28.9518 27.1068 34.2866C25.9742 35.831 24.2574 37.9151 23.4791 39.7933C21.5558 38.4367 18.5753 39.7597 18.5347 42.1936C18.4118 43.645 19.6334 45.2173 21.2024 44.8199C21.6448 44.734 21.415 44.6683 21.415 44.6417C21.415 44.6051 21.4742 44.557 21.4424 44.5252C21.4356 44.5252 21.4356 44.5183 21.4288 44.5183L21.5591 44.443C21.5522 44.4292 21.5522 44.4155 21.5454 44.4155C21.3994 44.1648 21.1428 44.3152 21.0379 44.1068C19.9234 43.748 19.5452 41.8139 20.7431 41.2199C22.9291 40.0566 23.9219 43.3213 21.9706 44.2166C21.8647 44.4209 21.779 44.3224 21.7374 44.436C21.7109 44.5082 21.6524 44.4787 21.6482 44.5045C21.6276 44.5663 21.5934 44.58 21.5591 44.6074C23.5663 46.7066 26.2526 42.214 23.9662 40.198C25.402 38.5313 27.6432 36.5227 28.6296 34.52C28.747 28.6607 29.0164 22.5757 28.259 16.7724C28.86 16.1243 29.4546 15.4226 30.0557 14.77L31.9415 16.8067C30.6812 22.3492 31.7214 28.3258 31.5571 33.9575C31.5467 34.4128 31.5667 34.9204 31.969 35.2398C33.3217 36.8246 34.7159 38.6858 36.4126 39.9373C34.1605 41.5986 35.7487 46.1386 38.5453 44.9502C34.5658 40.9543 40.3921 39.221 40.2118 42.8654C40.2186 42.8723 40.2186 42.8861 40.2049 42.8861C39.9535 43.6057 39.5665 44.2711 38.8814 44.6759C38.4775 44.8843 38.6774 44.837 38.71 44.9022L38.6756 44.9776L38.71 45.0256L38.5453 45.1079C38.9018 45.4495 39.0958 45.131 39.334 45.2245C43.7746 44.1781 41.34 37.3145 36.9338 39.567C36.0205 38.0869 34.2113 35.6844 33.1004 34.2455C33.2418 29.0323 33.3761 23.0677 32.8673 17.8147L36.5909 21.8333C35.955 23.2915 36.1061 25.2946 36.0217 26.8805L36.0697 29.1434C36.0359 29.713 36.8369 30.0199 37.2218 30.2749C40.0991 31.9355 42.867 34.3373 46.0133 35.473C44.2378 37.0322 44.0128 39.3818 44.1276 41.5694C43.8665 44.7016 47.4818 43.5697 49.4422 43.7021C50.6293 43.6772 52.2965 43.6391 53.4744 43.6061C54.8756 43.6604 56.2877 43.6026 56.2241 41.7612ZM27.6622 51.9653C27.6506 53.4282 28.0589 55.6954 25.9066 55.7644C23.0263 55.7761 19.9795 55.8607 17.1152 55.7438C14.3257 55.8001 15.5534 49.121 16.9712 47.9399C18.2305 46.8126 19.7923 45.7585 21.5588 46.1843C18.2423 47.6303 16.4821 49.8528 17.0674 54.0362C19.8367 54.3064 22.9643 53.9363 25.8449 53.9539C26.1299 49.7705 25.1795 48.4075 21.5588 46.3489C24.6995 45.423 27.9166 48.8816 27.6622 51.9653ZM34.2181 54.0362C34.2181 54.0362 34.2181 54.0294 34.2181 54.0226V54.0362ZM44.4702 52.9391C45.0359 49.6364 41.8487 45.5621 38.8675 46.6712C38.8591 46.7102 38.7214 46.779 38.8469 46.7878C38.758 46.8005 38.6023 46.8073 38.5452 46.8564C42.4664 47.7676 43.2571 50.2937 42.9341 54.0364H42.9272V53.9952C40.1872 53.8868 36.9865 53.9796 34.2181 53.9747C34.1462 51.7715 34.0999 49.6842 35.8229 48.0772C35.8228 48.0772 36.8377 47.4052 36.8377 47.4052C37.0618 47.2994 37.4405 47.2207 37.5097 47.1514C37.6877 46.9733 38.0086 46.9796 38.1269 46.877C38.2405 46.7785 38.3204 46.84 38.3464 46.7947C38.3944 46.7399 38.4698 46.7192 38.5452 46.6919C36.9928 45.6104 34.7611 46.7717 33.7106 48.084C32.2738 49.7639 32.3152 52.0883 32.4009 54.1598C32.4444 55.25 33.5904 55.9662 34.6363 55.7782C36.8395 55.6993 39.1024 55.6967 41.3087 55.6138C43.6199 55.6406 44.6978 55.6666 44.4702 52.9391Z" fill="#2B3990"/>
</svg>
