<svg width="60" height="60" viewBox="0 0 60 60" fill="none" xmlns="http://www.w3.org/2000/svg">
<path fill-rule="evenodd" clip-rule="evenodd" d="M1.02148 55.1294V28.3474C1.02148 26.1846 2.79101 24.4178 4.95113 24.4178H7.31254V21.6667C7.31254 21.2119 7.68125 20.8432 8.13607 20.8432H12.1288C12.5836 20.8432 12.9523 21.2119 12.9523 21.6667V24.4178H16.1863V8.81564C16.1863 8.59717 16.273 8.38776 16.4275 8.23329L23.4782 1.18258C23.6327 1.02811 23.8421 0.941406 24.0605 0.941406H51.2568C51.7116 0.941406 52.0803 1.31011 52.0803 1.76494V37.4536C55.9554 37.8653 58.9784 41.1483 58.9784 45.1319C58.9784 49.3936 55.5184 52.8536 51.2568 52.8536C47.2733 52.8536 43.9902 49.8306 43.5785 45.9554H39.7343V55.1294C39.7343 57.2894 37.9647 59.0591 35.8047 59.0591H4.95113C2.79101 59.0591 1.02148 57.2894 1.02148 55.1294ZM7.31254 26.0648H4.95113C3.69643 26.0648 2.66854 27.0911 2.66854 28.3474V31.302H38.0872V28.3474C38.0872 27.0911 37.0594 26.0648 35.8047 26.0648H33.4432V28.748C33.4432 29.2028 33.0745 29.5715 32.6197 29.5715H28.627C28.1722 29.5715 27.8035 29.2028 27.8035 28.748V26.0648H23.1988V28.748C23.1988 29.2028 22.8301 29.5715 22.3752 29.5715H18.3804C17.9256 29.5715 17.5569 29.2028 17.5569 28.748V26.0648H12.9523V28.748C12.9523 29.2028 12.5836 29.5715 12.1288 29.5715H8.13607C7.68125 29.5715 7.31254 29.2028 7.31254 28.748V26.0648ZM50.4333 37.4536V2.58846C46.3221 2.58846 28.0905 2.58846 24.8841 2.58846V8.81564C24.8841 9.27046 24.5154 9.63917 24.0605 9.63917H17.8334V21.0511C17.9788 20.9218 18.1704 20.8432 18.3804 20.8432H22.3752C22.8301 20.8432 23.1988 21.2119 23.1988 21.6667V24.4178H27.8035V21.6667C27.8035 21.2119 28.1722 20.8432 28.627 20.8432H32.6197C33.0745 20.8432 33.4432 21.2119 33.4432 21.6667V24.4178H35.8047C37.9647 24.4178 39.7343 26.1846 39.7343 28.3474V44.3083H43.5785C43.9614 40.7039 46.8287 37.8366 50.4333 37.4536ZM23.237 3.75305L18.998 7.99211H23.237V3.75305ZM45.1821 45.1319C45.1821 48.4846 47.9041 51.2066 51.2568 51.2066C54.6095 51.2066 57.3314 48.4846 57.3314 45.1319C57.3314 41.7792 54.6095 39.0573 51.2568 39.0573C47.9041 39.0573 45.1821 41.7792 45.1821 45.1319ZM2.66854 32.9491V55.1294C2.66854 56.3841 3.69643 57.412 4.95113 57.412H35.8047C37.0594 57.412 38.0872 56.3841 38.0872 55.1294V32.9491H2.66854ZM31.5309 10.3742V8.11729C31.5309 7.66247 31.8996 7.29376 32.3544 7.29376H35.9122C36.367 7.29376 36.7357 7.66247 36.7357 8.11729V10.3742H38.9927C39.4475 10.3742 39.8162 10.7429 39.8162 11.1978V14.7555C39.8162 15.2103 39.4475 15.5791 38.9927 15.5791H36.7357V17.836C36.7357 18.2908 36.367 18.6595 35.9122 18.6595H32.3544C31.8996 18.6595 31.5309 18.2908 31.5309 17.836V15.5791H29.274C28.8191 15.5791 28.4504 15.2103 28.4504 14.7555V11.1978C28.4504 10.7429 28.8191 10.3742 29.274 10.3742H31.5309ZM32.3544 12.0213H30.0975V13.932H32.3544C32.8092 13.932 33.178 14.3007 33.178 14.7555V17.0125H35.0887V14.7555C35.0887 14.3007 35.4574 13.932 35.9122 13.932H38.1691V12.0213H35.9122C35.4574 12.0213 35.0887 11.6526 35.0887 11.1978V8.94082H33.178V11.1978C33.178 11.6526 32.8092 12.0213 32.3544 12.0213ZM33.364 40.4856H29.5967C29.1418 40.4856 28.7731 40.1169 28.7731 39.6621V35.8949C28.7731 35.4401 29.1418 35.0714 29.5967 35.0714H33.364C33.8188 35.0714 34.1875 35.4401 34.1875 35.8949V39.6621C34.1875 40.1169 33.8188 40.4856 33.364 40.4856ZM32.5404 38.8386V36.7185H30.4202V38.8386H32.5404ZM25.963 40.4856H22.1958C21.741 40.4856 21.3723 40.1169 21.3723 39.6621V35.8949C21.3723 35.4401 21.741 35.0714 22.1958 35.0714H25.963C26.4178 35.0714 26.7865 35.4401 26.7865 35.8949V39.6621C26.7865 40.1169 26.4178 40.4856 25.963 40.4856ZM25.1395 38.8386V36.7185H23.0194V38.8386H25.1395ZM25.963 55.2896H22.1958C21.741 55.2896 21.3723 54.9209 21.3723 54.4661V50.6989C21.3723 50.2441 21.741 49.8754 22.1958 49.8754H25.963C26.4178 49.8754 26.7865 50.2441 26.7865 50.6989V54.4661C26.7865 54.9209 26.4178 55.2896 25.963 55.2896ZM25.1395 53.6426V51.5225H23.0194V53.6426H25.1395ZM11.159 47.8866H7.39184C6.93701 47.8866 6.56831 47.5179 6.56831 47.063V43.2959C6.56831 42.841 6.93701 42.4723 7.39184 42.4723H11.159C11.6138 42.4723 11.9825 42.841 11.9825 43.2959V47.063C11.9825 47.5179 11.6138 47.8866 11.159 47.8866ZM10.3355 46.2395V44.1194H8.21537V46.2395H10.3355ZM18.56 55.2896H14.7928C14.338 55.2896 13.9692 54.9209 13.9692 54.4661V50.6989C13.9692 50.2441 14.338 49.8754 14.7928 49.8754H18.56C19.0148 49.8754 19.3835 50.2441 19.3835 50.6989V54.4661C19.3835 54.9209 19.0148 55.2896 18.56 55.2896ZM17.7364 53.6426V51.5225H15.6163V53.6426H17.7364ZM18.56 47.8866H14.7928C14.338 47.8866 13.9692 47.5179 13.9692 47.063V43.2959C13.9692 42.841 14.338 42.4723 14.7928 42.4723H18.56C19.0148 42.4723 19.3835 42.841 19.3835 43.2959V47.063C19.3835 47.5179 19.0148 47.8866 18.56 47.8866ZM17.7364 46.2395V44.1194H15.6163V46.2395H17.7364ZM25.963 47.8866H22.1958C21.741 47.8866 21.3723 47.5179 21.3723 47.063V43.2959C21.3723 42.841 21.741 42.4723 22.1958 42.4723H25.963C26.4178 42.4723 26.7865 42.841 26.7865 43.2959V47.063C26.7865 47.5179 26.4178 47.8866 25.963 47.8866ZM25.1395 46.2395V44.1194H23.0194V46.2395H25.1395ZM18.56 40.4856H14.7928C14.338 40.4856 13.9692 40.1169 13.9692 39.6621V35.8949C13.9692 35.4401 14.338 35.0714 14.7928 35.0714H18.56C19.0148 35.0714 19.3835 35.4401 19.3835 35.8949V39.6621C19.3835 40.1169 19.0148 40.4856 18.56 40.4856ZM17.7364 38.8386V36.7185H15.6163V38.8386H17.7364ZM11.159 40.4856H7.39184C6.93701 40.4856 6.56831 40.1169 6.56831 39.6621V35.8949C6.56831 35.4401 6.93701 35.0714 7.39184 35.0714H11.159C11.6138 35.0714 11.9825 35.4401 11.9825 35.8949V39.6621C11.9825 40.1169 11.6138 40.4856 11.159 40.4856ZM10.3355 38.8386V36.7185H8.21537V38.8386H10.3355ZM11.159 55.2896H7.39184C6.93701 55.2896 6.56831 54.9209 6.56831 54.4661V50.6989C6.56831 50.2441 6.93701 49.8754 7.39184 49.8754H11.159C11.6138 49.8754 11.9825 50.2441 11.9825 50.6989V54.4661C11.9825 54.9209 11.6138 55.2896 11.159 55.2896ZM10.3355 53.6426V51.5225H8.21537V53.6426H10.3355ZM33.364 47.8866H29.5967C29.1418 47.8866 28.7731 47.5179 28.7731 47.063V43.2959C28.7731 42.841 29.1418 42.4723 29.5967 42.4723H33.364C33.8188 42.4723 34.1875 42.841 34.1875 43.2959V47.063C34.1875 47.5179 33.8188 47.8866 33.364 47.8866ZM32.5404 46.2395V44.1194H30.4202V46.2395H32.5404ZM33.364 55.2896H29.5967C29.1418 55.2896 28.7731 54.9209 28.7731 54.4661V50.6989C28.7731 50.2441 29.1418 49.8754 29.5967 49.8754H33.364C33.8188 49.8754 34.1875 50.2441 34.1875 50.6989V54.4661C34.1875 54.9209 33.8188 55.2896 33.364 55.2896ZM32.5404 53.6426V51.5225H30.4202V53.6426H32.5404ZM29.4505 22.4902V27.9245H31.7962V22.4902H29.4505ZM19.204 22.4902V27.9245H21.5517V22.4902H19.204ZM46.5735 44.9191C46.2712 44.5796 46.3015 44.0586 46.641 43.7563C46.9805 43.4542 47.5015 43.4845 47.8037 43.8239L49.7935 46.0592L54.8448 42.4342C55.2141 42.1692 55.729 42.2539 55.994 42.6232C56.259 42.9923 56.1743 43.5073 55.8051 43.7723L50.1515 47.8296C49.8091 48.0753 49.3364 48.0229 49.0562 47.7081L46.5735 44.9191ZM11.3052 22.4902H8.9596V27.9245H11.3052V22.4902Z" fill="#2B3990"/>
</svg>
