<svg width="1235" height="830" viewBox="0 0 1235 830" fill="none" xmlns="http://www.w3.org/2000/svg">
<rect y="40" width="1232" height="750" rx="26" fill="url(#paint0_linear_820_2561)"/>
<g opacity="0.2">
<mask id="mask0_820_2561" style="mask-type:luminance" maskUnits="userSpaceOnUse" x="0" y="6" width="1236" height="824">
<path d="M1235.01 6.58789H0.0126953V830.001H1235.01V6.58789Z" fill="white"/>
</mask>
<g mask="url(#mask0_820_2561)">
<g style="mix-blend-mode:screen" opacity="0.28">
<path d="M804.049 184.789L844.326 208.042V254.565L804.049 277.818L763.771 254.565V208.042L804.049 184.789Z" stroke="#81D4FA" stroke-width="2" stroke-miterlimit="10"/>
<path d="M723.491 184.789L763.769 208.042V254.565L723.491 277.818L683.214 254.565V208.042L723.491 184.789Z" stroke="#81D4FA" stroke-width="2" stroke-miterlimit="10"/>
<g style="mix-blend-mode:screen" opacity="0.38">
<path d="M1086 115.014L1126.27 138.283V184.79L1086 208.043L1045.72 184.79V138.283L1086 115.014Z" stroke="#81D4FA" stroke-width="2" stroke-miterlimit="10"/>
</g>
<g style="mix-blend-mode:screen" opacity="0.38">
<path d="M884.595 45.2539L924.888 68.507V115.013L884.595 138.283L844.317 115.013V68.507L884.595 45.2539Z" stroke="#81D4FA" stroke-width="2" stroke-miterlimit="10"/>
</g>
<g style="mix-blend-mode:screen" opacity="0.38">
<path d="M1166.55 -24.5215L1206.83 -1.26829V45.2545L1166.55 68.5077L1126.28 45.2545V-1.26829L1166.55 -24.5215Z" stroke="#81D4FA" stroke-width="2" stroke-miterlimit="10"/>
</g>
<g style="mix-blend-mode:screen" opacity="0.38">
<path d="M683.212 -24.5215L723.489 -1.26829V45.2545L683.212 68.5077L642.935 45.2545V-1.26829L683.212 -24.5215Z" stroke="#81D4FA" stroke-width="2" stroke-miterlimit="10"/>
</g>
<path d="M1086 115.014L1126.27 138.283V184.79L1086 208.043L1045.72 184.79V138.283L1086 115.014Z" stroke="#81D4FA" stroke-width="2" stroke-miterlimit="10"/>
<path d="M844.322 115.014L884.6 138.283V184.79L844.322 208.043L804.045 184.79V138.283L844.322 115.014Z" stroke="#81D4FA" stroke-width="2" stroke-miterlimit="10"/>
<path d="M763.77 115.014L804.047 138.283V184.79L763.77 208.043L723.492 184.79V138.283L763.77 115.014Z" fill="#81D4FA" stroke="#81D4FA" stroke-width="2" stroke-miterlimit="10"/>
<path d="M1045.73 45.2539L1086.01 68.507V115.013L1045.73 138.283L1005.45 115.013V68.507L1045.73 45.2539Z" stroke="#81D4FA" stroke-width="2" stroke-miterlimit="10"/>
<path d="M965.171 45.2539L1005.45 68.507V115.013L965.171 138.283L924.894 115.013V68.507L965.171 45.2539Z" fill="#81D4FA" stroke="#81D4FA" stroke-width="2" stroke-miterlimit="10"/>
<path d="M884.595 45.2539L924.888 68.507V115.013L884.595 138.283L844.317 115.013V68.507L884.595 45.2539Z" stroke="#81D4FA" stroke-width="2" stroke-miterlimit="10"/>
<path d="M642.939 45.2539L683.217 68.507V115.013L642.939 138.283L602.662 115.013V68.507L642.939 45.2539Z" stroke="#81D4FA" stroke-width="2" stroke-miterlimit="10"/>
<path d="M1247.11 -24.5215L1287.38 -1.26829V45.2545L1247.11 68.5077L1206.83 45.2545V-1.26829L1247.11 -24.5215Z" stroke="#81D4FA" stroke-width="2" stroke-miterlimit="10"/>
<path d="M1166.55 -24.5215L1206.83 -1.26829V45.2545L1166.55 68.5077L1126.28 45.2545V-1.26829L1166.55 -24.5215Z" fill="#81D4FA" stroke="#81D4FA" stroke-width="2" stroke-miterlimit="10"/>
<path d="M1086 -24.5215L1126.27 -1.26829V45.2545L1086 68.5077L1045.72 45.2545V-1.26829L1086 -24.5215Z" stroke="#81D4FA" stroke-width="2" stroke-miterlimit="10"/>
<path d="M1005.45 -24.5215L1045.73 -1.26829V45.2545L1005.45 68.5077L965.172 45.2545V-1.26829L1005.45 -24.5215Z" stroke="#81D4FA" stroke-width="2" stroke-miterlimit="10"/>
<path d="M924.89 -24.5215L965.168 -1.26829V45.2545L924.89 68.5077L884.597 45.2545V-1.26829L924.89 -24.5215Z" stroke="#81D4FA" stroke-width="2" stroke-miterlimit="10"/>
<path d="M763.77 -24.5215L804.047 -1.26829V45.2545L763.77 68.5077L723.492 45.2545V-1.26829L763.77 -24.5215Z" stroke="#81D4FA" stroke-width="2" stroke-miterlimit="10"/>
<path d="M683.212 -24.5215L723.489 -1.26829V45.2545L683.212 68.5077L642.935 45.2545V-1.26829L683.212 -24.5215Z" stroke="#81D4FA" stroke-width="2" stroke-miterlimit="10"/>
<path d="M602.66 -24.5215L642.937 -1.26829V45.2545L602.66 68.5077L562.383 45.2545V-1.26829L602.66 -24.5215Z" stroke="#81D4FA" stroke-width="2" stroke-miterlimit="10"/>
</g>
<g style="mix-blend-mode:screen" opacity="0.28">
<g style="mix-blend-mode:screen" opacity="0.38">
<path d="M425.925 789.01L466.202 812.263V858.769L425.925 882.039L385.647 858.769V812.263L425.925 789.01Z" stroke="#81D4FA" stroke-width="2" stroke-miterlimit="10"/>
</g>
<g style="mix-blend-mode:screen" opacity="0.38">
<path d="M23.1474 789.01L63.4247 812.263V858.769L23.1474 882.039L-17.1299 858.769V812.263L23.1474 789.01Z" stroke="#81D4FA" stroke-width="2" stroke-miterlimit="10"/>
</g>
<g style="mix-blend-mode:screen" opacity="0.38">
<path d="M546.772 719.234L587.05 742.488V789.01L546.772 812.264L506.479 789.01V742.488L546.772 719.234Z" stroke="#81D4FA" stroke-width="2" stroke-miterlimit="10"/>
</g>
<g style="mix-blend-mode:screen" opacity="0.38">
<path d="M23.1474 649.459L63.4247 672.729V719.235L23.1474 742.488L-17.1299 719.235V672.729L23.1474 649.459Z" stroke="#81D4FA" stroke-width="2" stroke-miterlimit="10"/>
</g>
<g style="mix-blend-mode:screen" opacity="0.38">
<path d="M466.198 579.699L506.476 602.952V649.459L466.198 672.728L425.921 649.459V602.952L466.198 579.699Z" stroke="#81D4FA" stroke-width="2" stroke-miterlimit="10"/>
</g>
<g style="mix-blend-mode:screen" opacity="0.38">
<path d="M305.088 439.982L345.365 463.236V509.758L305.088 533.012L264.811 509.758V463.236L305.088 439.982Z" stroke="#81D4FA" stroke-width="2" stroke-miterlimit="10"/>
</g>
<path d="M667.604 789.01L707.882 812.263V858.769L667.604 882.039L627.327 858.769V812.263L667.604 789.01Z" stroke="#81D4FA" stroke-width="2" stroke-miterlimit="10"/>
<path d="M587.047 789.01L627.324 812.263V858.769L587.047 882.039L546.77 858.769V812.263L587.047 789.01Z" stroke="#81D4FA" stroke-width="2" stroke-miterlimit="10"/>
<path d="M506.477 789.01L546.77 812.263V858.769L506.477 882.039L466.199 858.769V812.263L506.477 789.01Z" stroke="#81D4FA" stroke-width="2" stroke-miterlimit="10"/>
<path d="M425.925 789.01L466.202 812.263V858.769L425.925 882.039L385.647 858.769V812.263L425.925 789.01Z" stroke="#81D4FA" stroke-width="2" stroke-miterlimit="10"/>
<path d="M345.367 789.01L385.644 812.263V858.769L345.367 882.039L305.09 858.769V812.263L345.367 789.01Z" stroke="#81D4FA" stroke-width="2" stroke-miterlimit="10"/>
<path d="M264.815 789.01L305.093 812.263V858.769L264.815 882.039L224.538 858.769V812.263L264.815 789.01Z" fill="#81D4FA" stroke="#81D4FA" stroke-width="2" stroke-miterlimit="10"/>
<path d="M103.699 789.01L143.977 812.263V858.769L103.699 882.039L63.4219 858.769V812.263L103.699 789.01Z" stroke="#81D4FA" stroke-width="2" stroke-miterlimit="10"/>
<path d="M23.1474 789.01L63.4247 812.263V858.769L23.1474 882.039L-17.1299 858.769V812.263L23.1474 789.01Z" fill="#81D4FA" stroke="#81D4FA" stroke-width="2" stroke-miterlimit="10"/>
<path d="M546.772 719.234L587.05 742.488V789.01L546.772 812.264L506.479 789.01V742.488L546.772 719.234Z" fill="#81D4FA" stroke="#81D4FA" stroke-width="2" stroke-miterlimit="10"/>
<path d="M385.646 719.234L425.924 742.488V789.01L385.646 812.264L345.369 789.01V742.488L385.646 719.234Z" stroke="#81D4FA" stroke-width="2" stroke-miterlimit="10"/>
<path d="M224.536 719.234L264.813 742.488V789.01L224.536 812.264L184.259 789.01V742.488L224.536 719.234Z" stroke="#81D4FA" stroke-width="2" stroke-miterlimit="10"/>
<path d="M143.978 719.234L184.256 742.488V789.01L143.978 812.264L103.701 789.01V742.488L143.978 719.234Z" stroke="#81D4FA" stroke-width="2" stroke-miterlimit="10"/>
<path d="M667.604 649.459L707.882 672.729V719.235L667.604 742.488L627.327 719.235V672.729L667.604 649.459Z" stroke="#81D4FA" stroke-width="2" stroke-miterlimit="10"/>
<path d="M587.047 649.459L627.324 672.729V719.235L587.047 742.488L546.77 719.235V672.729L587.047 649.459Z" stroke="#81D4FA" stroke-width="2" stroke-miterlimit="10"/>
<path d="M506.477 649.459L546.77 672.729V719.235L506.477 742.488L466.199 719.235V672.729L506.477 649.459Z" stroke="#81D4FA" stroke-width="2" stroke-miterlimit="10"/>
<path d="M345.367 649.459L385.644 672.729V719.235L345.367 742.488L305.09 719.235V672.729L345.367 649.459Z" stroke="#81D4FA" stroke-width="2" stroke-miterlimit="10"/>
<path d="M184.257 649.459L224.534 672.729V719.235L184.257 742.488L143.979 719.235V672.729L184.257 649.459Z" stroke="#81D4FA" stroke-width="2" stroke-miterlimit="10"/>
<path d="M23.1474 649.459L63.4247 672.729V719.235L23.1474 742.488L-17.1299 719.235V672.729L23.1474 649.459Z" fill="#81D4FA" stroke="#81D4FA" stroke-width="2" stroke-miterlimit="10"/>
<path d="M707.878 579.699L748.155 602.952V649.459L707.878 672.728L667.601 649.459V602.952L707.878 579.699Z" fill="#81D4FA" stroke="#81D4FA" stroke-width="2" stroke-miterlimit="10"/>
<path d="M627.326 579.699L667.603 602.952V649.459L627.326 672.728L587.049 649.459V602.952L627.326 579.699Z" stroke="#81D4FA" stroke-width="2" stroke-miterlimit="10"/>
<path d="M546.772 579.699L587.05 602.952V649.459L546.772 672.728L506.479 649.459V602.952L546.772 579.699Z" stroke="#81D4FA" stroke-width="2" stroke-miterlimit="10"/>
<path d="M466.198 579.699L506.476 602.952V649.459L466.198 672.728L425.921 649.459V602.952L466.198 579.699Z" stroke="#81D4FA" stroke-width="2" stroke-miterlimit="10"/>
<path d="M385.646 579.699L425.924 602.952V649.459L385.646 672.728L345.369 649.459V602.952L385.646 579.699Z" stroke="#81D4FA" stroke-width="2" stroke-miterlimit="10"/>
<path d="M143.978 579.699L184.256 602.952V649.459L143.978 672.728L103.701 649.459V602.952L143.978 579.699Z" stroke="#81D4FA" stroke-width="2" stroke-miterlimit="10"/>
<path d="M63.4267 579.699L103.704 602.952V649.459L63.4267 672.728L23.1494 649.459V602.952L63.4267 579.699Z" stroke="#81D4FA" stroke-width="2" stroke-miterlimit="10"/>
<path d="M667.604 509.924L707.882 533.177V579.7L667.604 602.953L627.327 579.7V533.177L667.604 509.924Z" stroke="#81D4FA" stroke-width="2" stroke-miterlimit="10"/>
<path d="M425.925 509.924L466.202 533.177V579.7L425.925 602.953L385.647 579.7V533.177L425.925 509.924Z" stroke="#81D4FA" stroke-width="2" stroke-miterlimit="10"/>
<path d="M345.367 509.924L385.644 533.177V579.7L345.367 602.953L305.09 579.7V533.177L345.367 509.924Z" stroke="#81D4FA" stroke-width="2" stroke-miterlimit="10"/>
<path d="M264.815 509.924L305.093 533.177V579.7L264.815 602.953L224.538 579.7V533.177L264.815 509.924Z" stroke="#81D4FA" stroke-width="2" stroke-miterlimit="10"/>
<path d="M305.088 439.982L345.365 463.236V509.758L305.088 533.012L264.811 509.758V463.236L305.088 439.982Z" stroke="#81D4FA" stroke-width="2" stroke-miterlimit="10"/>
</g>
</g>
</g>
<defs>
<linearGradient id="paint0_linear_820_2561" x1="616" y1="40" x2="616" y2="790" gradientUnits="userSpaceOnUse">
<stop stop-color="#2A3D90"/>
<stop offset="1" stop-color="#020A25"/>
</linearGradient>
</defs>
</svg>
