<svg width="512" height="512" viewBox="0 0 512 512" fill="none" xmlns="http://www.w3.org/2000/svg">
<path d="M416.996 235.724C423.539 235.724 428.848 230.414 428.848 223.872V204.814H448.57C461.75 204.814 472.464 194.1 472.464 181.015C472.464 172.293 467.723 164.234 460.612 160.346L262.922 30.8291C256.855 27.5108 249.649 27.6051 243.296 31.303L51.5807 160.062C44.1849 164.423 39.5391 172.293 39.5391 181.015C39.5391 194.1 50.2532 204.814 63.4326 204.814H83.2486V223.872C83.2486 230.414 88.5587 235.724 95.1004 235.724H95.7648V400.038H95.1004C88.5587 400.038 83.2486 405.348 83.2486 411.89V430.948H66.3712C57.2694 430.948 49.7786 438.343 49.7786 447.54V466.977C49.7786 476.08 57.2694 483.57 66.3712 483.57H445.631C454.828 483.57 462.223 476.08 462.223 466.977V447.54C462.223 438.343 454.828 430.948 445.631 430.948H428.848V411.89C428.848 405.348 423.539 400.038 416.996 400.038H416.333V235.724H416.996ZM445.631 445.17C446.959 445.17 448.001 446.213 448.001 447.54V466.977C448.001 468.305 446.959 469.348 445.631 469.348H66.3712C65.1398 469.348 64.0009 468.305 64.0009 466.977V447.54C64.0009 446.213 65.1398 445.17 66.3712 445.17H445.631ZM109.987 400.038V235.724H147.154V400.038H109.987ZM350.058 235.724H350.721V400.038H350.058C343.515 400.038 338.206 405.348 338.206 411.89V430.948H173.892V411.89C173.892 405.348 168.487 400.038 162.04 400.038H161.376V235.724H162.04C168.487 235.724 173.892 230.414 173.892 223.872V204.814H338.206V223.872C338.206 230.414 343.515 235.724 350.058 235.724ZM364.943 400.038V235.724H402.111V400.038H364.943ZM63.4326 190.592C53.649 190.592 49.7786 177.363 59.0703 172.198L250.787 43.3447C252.385 42.5461 254.031 42.2643 255.622 43.06L453.216 172.482C456.346 174.189 458.242 177.413 458.242 181.015C458.242 186.231 453.881 190.592 448.57 190.592C359.857 190.592 154.478 190.592 63.4326 190.592Z" fill="#00ED82"/>
<path d="M250.057 238.341C235.086 259.389 197.082 315.398 197.082 341.558C197.082 374.093 223.479 400.49 256.016 400.49C288.551 400.49 314.947 374.093 314.947 341.558C314.947 315.398 276.944 259.39 261.974 238.341C259.058 234.239 252.973 234.239 250.057 238.341ZM276.386 331.866C280.273 331.866 283.498 335.089 283.498 338.977C283.498 342.959 280.273 346.088 276.386 346.088H263.111V359.363C263.111 363.25 259.982 366.474 256 366.474C252.113 366.474 248.889 363.25 248.889 359.363V346.088H235.711C231.728 346.088 228.599 342.959 228.599 338.977C228.599 335.089 231.728 331.866 235.711 331.866H248.889V318.687C248.889 314.705 252.113 311.576 256 311.576C259.982 311.576 263.111 314.705 263.111 318.687V331.866H276.386Z" fill="#00ED82"/>
<path d="M256.014 96.9927C237.321 96.9927 222.168 112.147 222.168 130.839C222.168 149.533 237.321 164.687 256.014 164.687C274.707 164.687 289.86 149.533 289.86 130.839C289.86 112.147 274.707 96.9927 256.014 96.9927Z" fill="#00ED82"/>
</svg>
