<svg width="24" height="24" viewBox="0 0 24 24" fill="none" xmlns="http://www.w3.org/2000/svg">
<circle cx="12" cy="12" r="11.5" stroke="#FE090A"/>
<path d="M7.99996 17.3333C7.81107 17.3333 7.65285 17.2693 7.5253 17.1413C7.39774 17.0133 7.33374 16.8551 7.33329 16.6667C7.33285 16.4782 7.39685 16.32 7.5253 16.192C7.65374 16.064 7.81196 16 7.99996 16H8.39996L9.71663 11.6167C9.80552 11.3278 9.96952 11.0973 10.2086 10.9253C10.4477 10.7533 10.7115 10.6671 11 10.6667H13C13.2889 10.6667 13.5529 10.7529 13.792 10.9253C14.0311 11.0978 14.1949 11.3282 14.2833 11.6167L15.6 16H16C16.1889 16 16.3473 16.064 16.4753 16.192C16.6033 16.32 16.6671 16.4782 16.6666 16.6667C16.6662 16.8551 16.6022 17.0136 16.4746 17.142C16.3471 17.2704 16.1889 17.3342 16 17.3333H7.99996ZM9.79996 16H14.2L13 12H11L9.79996 16ZM11.3333 8.66667V6.66667C11.3333 6.47778 11.3973 6.31956 11.5253 6.192C11.6533 6.06444 11.8115 6.00044 12 6C12.1884 5.99956 12.3469 6.06356 12.4753 6.192C12.6037 6.32044 12.6675 6.47867 12.6666 6.66667V8.66667C12.6666 8.85556 12.6026 9.014 12.4746 9.142C12.3466 9.27 12.1884 9.33378 12 9.33333C11.8115 9.33289 11.6533 9.26889 11.5253 9.14133C11.3973 9.01378 11.3333 8.85556 11.3333 8.66667ZM14.8333 9.56667L16.25 8.15C16.3722 8.02778 16.5251 7.96378 16.7086 7.958C16.8922 7.95222 17.0504 8.01622 17.1833 8.15C17.3055 8.27222 17.3666 8.42778 17.3666 8.61667C17.3666 8.80556 17.3055 8.96111 17.1833 9.08333L15.7666 10.5167C15.6333 10.65 15.4777 10.7167 15.3 10.7167C15.1222 10.7167 14.9666 10.65 14.8333 10.5167C14.7 10.3833 14.6333 10.2251 14.6333 10.042C14.6333 9.85889 14.7 9.70045 14.8333 9.56667ZM16.6666 12.6667H18.6666C18.8555 12.6667 19.014 12.7307 19.142 12.8587C19.27 12.9867 19.3337 13.1449 19.3333 13.3333C19.3329 13.5218 19.2689 13.6802 19.1413 13.8087C19.0137 13.9371 18.8555 14.0009 18.6666 14H16.6666C16.4777 14 16.3195 13.936 16.192 13.808C16.0644 13.68 16.0004 13.5218 16 13.3333C15.9995 13.1449 16.0635 12.9867 16.192 12.8587C16.3204 12.7307 16.4786 12.6667 16.6666 12.6667ZM8.23329 10.5L6.81663 9.08333C6.69441 8.96111 6.63063 8.80844 6.62529 8.62533C6.61996 8.44222 6.68374 8.28378 6.81663 8.15C6.93885 8.02778 7.09441 7.96667 7.2833 7.96667C7.47218 7.96667 7.62774 8.02778 7.74996 8.15L9.1833 9.56667C9.31663 9.7 9.3833 9.85556 9.3833 10.0333C9.3833 10.2111 9.31663 10.3667 9.1833 10.5C9.04996 10.6333 8.89174 10.7 8.70863 10.7C8.52552 10.7 8.36707 10.6333 8.23329 10.5ZM5.33329 14C5.14441 14 4.98618 13.936 4.85863 13.808C4.73107 13.68 4.66707 13.5218 4.66663 13.3333C4.66618 13.1449 4.73018 12.9867 4.85863 12.8587C4.98707 12.7307 5.14529 12.6667 5.33329 12.6667H7.33329C7.52218 12.6667 7.68063 12.7307 7.80863 12.8587C7.93663 12.9867 8.00041 13.1449 7.99996 13.3333C7.99952 13.5218 7.93552 13.6802 7.80796 13.8087C7.68041 13.9371 7.52218 14.0009 7.33329 14H5.33329Z" fill="#FE090A"/>
</svg>
