<svg width="24" height="24" viewBox="0 0 24 24" fill="none" xmlns="http://www.w3.org/2000/svg">
<g clip-path="url(#clip0_1266_2376)">
<path d="M24 12C24 5.37258 18.6274 0 12 0C5.37258 0 0 5.37258 0 12C0 18.6274 5.37258 24 12 24C18.6274 24 24 18.6274 24 12Z" fill="#F0F7FD"/>
<path d="M16.456 7.45473C16.6672 7.25356 16.9485 7.14234 17.2402 7.14456C17.532 7.14676 17.8114 7.26222 18.0196 7.46655C18.2278 7.67089 18.3486 7.94814 18.3562 8.23978C18.364 8.53143 18.2581 8.81466 18.061 9.02973L12.076 16.5148C11.9731 16.6256 11.8488 16.7146 11.7108 16.7764C11.5727 16.838 11.4236 16.8713 11.2723 16.8742C11.1211 16.8769 10.9709 16.8491 10.8306 16.7926C10.6903 16.736 10.5629 16.6517 10.456 16.5448L6.48697 12.5758C6.37643 12.4728 6.28778 12.3486 6.2263 12.2106C6.1648 12.0726 6.13174 11.9236 6.12908 11.7726C6.12641 11.6215 6.15419 11.4715 6.21079 11.3314C6.26737 11.1913 6.35158 11.064 6.45841 10.9572C6.56524 10.8504 6.69248 10.7662 6.83257 10.7096C6.97265 10.653 7.1227 10.6252 7.27375 10.6279C7.4248 10.6305 7.57378 10.6636 7.71178 10.7251C7.84978 10.7866 7.97398 10.8752 8.07697 10.9858L11.218 14.1253L16.4275 7.48773C16.4368 7.47618 16.4469 7.46515 16.4575 7.45473H16.456Z" fill="#2B3990"/>
</g>
<defs>
<clipPath id="clip0_1266_2376">
<rect width="24" height="24" fill="white"/>
</clipPath>
</defs>
</svg>
