<svg width="60" height="60" viewBox="0 0 60 60" fill="none" xmlns="http://www.w3.org/2000/svg">
<path fill-rule="evenodd" clip-rule="evenodd" d="M53.0194 23.9824C52.2817 20.3588 49.3699 16.5993 45.7722 16.2111L46.374 16.7353L46.8982 17.2271C49.2535 19.5824 50.4441 22.8565 50.1529 26.2083C50.1205 26.603 49.7905 26.9072 49.3894 26.9072H48.0694C47.8817 26.9072 47.707 26.8426 47.5647 26.726L44.3617 23.976C43.9024 23.5813 43.8053 23.5359 43.7017 23.6006C43.7521 24.559 45.9084 27.2455 45.9471 27.3731C46.5165 28.2272 46.9111 29.1654 47.1183 30.1489C48.0145 34.4235 47.328 47.6311 47.2089 53.7991H51.1559C51.1494 53.5727 51.1494 53.3461 51.1494 53.1197C51.1105 46.2155 51.0718 38.3796 52.8383 32.0124C53.4918 29.3013 53.5565 26.603 53.0194 23.9824ZM45.8435 32.1159L40.9969 36.9625L39.0946 33.7337C38.3569 32.6207 37.2439 31.9931 36.2604 32.1224C35.6263 32.2001 35.1798 32.4654 34.9339 32.9054C34.468 33.7466 34.9339 34.7883 35.5228 36.1148C36.1957 37.629 37.0369 39.5119 36.3381 41.0131C36.1633 41.3755 35.911 41.8349 35.6328 42.3201L30.0034 47.9561L24.3675 42.3201C24.0893 41.8349 23.8369 41.3754 23.6687 41.0131C22.9633 39.5119 23.8045 37.629 24.4775 36.1148C25.0663 34.7883 25.5322 33.7466 25.0663 32.9054C24.8205 32.4654 24.3739 32.2002 23.7399 32.1224C22.7563 31.9931 21.6433 32.6207 20.9057 33.7337L19.0098 36.9625L14.1633 32.1159C14.2215 31.4689 14.2927 30.906 14.3832 30.466C14.5515 29.6701 14.8685 28.913 15.3279 28.2206C15.412 28.1041 15.5478 27.9166 15.7031 27.6965C16.9584 25.9883 18.6731 23.6459 17.3725 22.5006C16.2013 21.4717 15.1078 22.41 14.6355 22.8112L11.6525 25.3735H11.3419C11.3032 22.727 12.319 20.1841 14.1891 18.314C14.1955 18.3076 14.202 18.3011 14.2085 18.3011L14.875 17.6735C15.2307 17.3828 15.841 16.8899 16.195 16.6899C21.7662 13.1635 27.2145 17.5117 29.4598 19.7506C29.7519 20.0423 30.2435 20.0466 30.5404 19.7506C32.7922 17.5117 38.2339 13.1635 43.8052 16.6899C43.8181 16.6964 43.8376 16.7094 43.8505 16.7223C44.2582 16.9812 44.6658 17.2853 45.0605 17.6217L45.5458 18.0618C47.5813 19.9469 48.7057 22.5972 48.6581 25.3736H48.354L45.3646 22.8113C44.8986 22.4101 43.7987 21.4718 42.6275 22.5007C41.3269 23.646 43.0416 25.9884 44.2969 27.6966C44.4522 27.9165 44.5882 28.1042 44.6723 28.2207C45.1317 28.9131 45.4488 29.6702 45.6169 30.4661C45.7077 30.906 45.7853 31.4689 45.8435 32.1159ZM43.2811 36.846L41.3788 38.7483C41.0165 39.1106 40.4219 39.0217 40.1753 38.5931L37.807 34.5683C37.3347 33.8694 36.7393 33.6042 36.4611 33.6429C36.3705 33.6559 36.3123 33.6689 36.2799 33.6818C36.2604 33.9989 36.6551 34.8919 36.9269 35.4871C37.684 37.1953 38.7257 39.5312 37.7292 41.6601C37.2118 42.7531 35.8739 44.8333 35.6521 45.7626C35.3567 47.0007 35.4257 48.7223 35.4257 50.1302V53.7991H38.991V50.7255C38.991 49.4573 39.2757 48.3509 39.8904 47.2443L41.8317 43.7567C42.5111 42.249 42.964 40.7155 43.1646 39.1949C43.2682 38.4184 43.3071 37.6355 43.2811 36.846ZM24.348 45.7626C24.1315 44.8472 22.7935 42.7631 22.2774 41.6601C21.2745 39.5313 22.3163 37.1954 23.0733 35.4871C23.3451 34.8918 23.7397 33.9989 23.7203 33.6818C23.6879 33.6689 23.6297 33.6559 23.5391 33.6429C23.2608 33.6042 22.6656 33.8694 22.1932 34.5683L19.8313 38.5931C19.5785 39.0214 18.9843 39.1112 18.6214 38.7483L16.719 36.846C16.6931 37.6353 16.732 38.4184 16.8354 39.1949C17.0361 40.7155 17.4889 42.249 18.1749 43.7567L20.1096 47.2443C20.7244 48.3509 21.009 49.4573 21.009 50.7255V53.7991H24.5743V49.4315C24.5874 48.2021 24.6004 46.8109 24.348 45.7626ZM12.7915 53.7991C12.7656 52.4597 12.7139 50.8679 12.6621 49.2049C12.5035 44.0403 12.1279 33.7459 12.882 30.1489C13.2329 28.4751 14.019 27.4771 14.0532 27.3666C14.0869 27.2572 16.2473 24.5742 16.2985 23.6006C16.2015 23.5359 16.0979 23.5812 15.6385 23.976L12.4356 26.726C12.2933 26.8424 12.1186 26.9072 11.9309 26.9072H10.6109C10.2097 26.9072 9.87974 26.6031 9.84734 26.2083C9.5561 22.8565 10.7467 19.5824 13.1021 17.2271L14.2344 16.2111C10.6303 16.5993 7.71854 20.3588 6.9809 23.9824C6.4439 26.603 6.50858 29.3012 7.1621 32.0124C8.9285 38.3795 8.88974 46.2155 8.85086 53.126V53.799L12.7915 53.7991ZM54.3265 32.3877C54.3265 32.3942 54.3265 32.4072 54.3201 32.4137C52.6054 38.5802 52.6506 46.2997 52.683 53.1132C52.6895 53.6049 52.6895 54.0837 52.6895 54.5625C52.6962 54.9914 52.3488 55.3326 51.9259 55.3326H46.4259C45.9919 55.3326 45.6521 54.9833 45.6558 54.5496C45.6817 53.0613 45.7399 51.1655 45.8046 49.1531C45.9469 44.3841 46.1346 38.3213 45.9664 34.1606L44.7111 35.4159C44.8663 36.7424 44.8599 38.0819 44.6851 39.3954C44.4652 41.0713 43.9669 42.7665 43.2099 44.423C43.2034 44.436 43.1969 44.4554 43.1839 44.4747L41.2299 47.9883C40.7446 48.8683 40.5246 49.716 40.5246 50.7254V54.5625C40.5246 54.9896 40.1817 55.3326 39.7546 55.3326H34.6621C34.2351 55.3326 33.8921 54.9896 33.8921 54.5625V50.1301C33.8921 48.8088 33.8359 47.4276 34.0279 46.0989L31.0837 49.043C30.4723 49.6544 29.5265 49.6535 28.9161 49.043L25.9719 46.0989C26.1706 47.4189 26.1077 48.8101 26.1077 50.1301V54.5625C26.1077 54.9896 25.7647 55.3326 25.3441 55.3326H20.2452C19.8181 55.3326 19.4752 54.9896 19.4752 54.5625V50.7254C19.4752 49.716 19.2552 48.8683 18.7699 47.9883L16.8157 44.4747C16.8028 44.4553 16.7963 44.4359 16.7898 44.423C16.0327 42.7665 15.5345 41.0712 15.3145 39.3954C15.1398 38.0819 15.1333 36.7424 15.2886 35.4159L14.0333 34.1606C13.8651 38.3278 14.0527 44.3843 14.2015 49.1595C14.2597 51.1655 14.3181 53.0613 14.3439 54.5496C14.3476 54.9806 14.0128 55.3326 13.5738 55.3326H8.07434C7.6553 55.3326 7.31078 54.9981 7.31078 54.5625C7.31078 54.0837 7.31726 53.6049 7.31726 53.1132C7.35614 46.2996 7.3949 38.5801 5.68025 32.4137C5.68025 32.4072 5.67377 32.3942 5.67377 32.3877C4.96205 29.45 4.89725 26.5254 5.47961 23.6783C5.93897 21.407 7.13606 19.1359 8.76014 17.46C10.6366 15.5124 12.9467 14.5223 15.2632 14.6582C15.5737 14.6777 15.8585 14.8006 16.072 14.9947C17.9873 13.9853 20.0579 13.623 22.1868 13.9595C24.8139 14.3671 27.5057 15.8101 30.0034 18.1395C32.5011 15.8101 35.1863 14.3672 37.8135 13.9595C39.9423 13.623 42.013 13.9854 43.9282 14.9947C44.1481 14.8006 44.4264 14.6777 44.737 14.6582C47.0535 14.5224 49.3635 15.5124 51.24 17.46C52.8642 19.1359 54.0612 21.4072 54.5206 23.6783C55.1029 26.5254 55.0383 29.4501 54.3265 32.3877ZM22.7886 10.0253C23.0151 10.3895 23.4744 10.5094 23.8433 10.2906C24.2057 10.0706 24.3286 9.60467 24.1086 9.23591L21.8827 5.49584C21.6628 5.13344 21.1903 5.01704 20.8281 5.23052C20.4657 5.45048 20.3428 5.92292 20.5627 6.28523L22.7886 10.0253ZM30.0034 10.5559C30.424 10.5559 30.7669 10.2129 30.7669 9.79235V5.43752C30.7669 5.01044 30.424 4.66748 30.0034 4.66748C29.5763 4.66748 29.2333 5.01044 29.2333 5.43752V9.79235C29.2333 10.2129 29.5763 10.5559 30.0034 10.5559ZM35.8917 9.23579L38.124 5.49572C38.3376 5.13332 38.8099 5.01692 39.1722 5.2304C39.5411 5.45036 39.6575 5.9228 39.4375 6.28511L37.2117 10.0252C36.9936 10.3916 36.523 10.5074 36.157 10.2905C35.7946 10.0705 35.6717 9.60467 35.8917 9.23579Z" fill="#2B3990"/>
</svg>
