<svg width="60" height="60" viewBox="0 0 60 60" fill="none" xmlns="http://www.w3.org/2000/svg">
<g clip-path="url(#clip0_69_693)">
<path d="M47.8125 41.25H45.9375V39.375C45.9375 38.341 45.0965 37.5 44.0625 37.5H42.1875C41.1535 37.5 40.3125 38.341 40.3125 39.375V41.25H38.4375C37.4035 41.25 36.5625 42.091 36.5625 43.125V45C36.5625 46.034 37.4035 46.875 38.4375 46.875H40.3125V48.75C40.3125 49.784 41.1535 50.625 42.1875 50.625H44.0625C45.0965 50.625 45.9375 49.784 45.9375 48.75V46.875H47.8125C48.8465 46.875 49.6875 46.034 49.6875 45V43.125C49.6875 42.091 48.8465 41.25 47.8125 41.25ZM47.8125 45H44.0625V48.75H42.1875V45H38.4375V43.125H42.1875V39.375H44.0625V43.125L47.8125 43.124V45Z" fill="#2B3990"/>
<path d="M49.4578 30.9375C47.4985 30.9375 45.6347 31.5385 44.0625 32.64V26.4197C44.6897 24.6815 46.1447 23.3297 46.9088 22.7119L47.4797 23.0925C48.7388 23.9315 50.204 24.375 51.7153 24.375C54.8569 24.375 57.6385 22.4906 58.8047 19.576L59.279 18.3919L57.4631 17.1815C56.2425 16.3678 54.8213 15.9375 53.3522 15.9375C50.7637 15.9375 48.33 17.3156 46.9978 19.5356L46.1728 20.911C45.8015 21.181 44.9269 21.8644 44.0625 22.8656V13.2947C44.729 11.4497 46.3285 10.0397 47.041 9.48096L48.466 9.95628C49.1756 10.1925 49.9144 10.3125 50.6625 10.3125C53.309 10.3125 55.6894 8.84154 56.8744 6.4725L57.4585 5.30344L55.1625 3.77344C54.2194 3.14438 53.1225 2.8125 51.989 2.8125C49.636 2.8125 47.551 4.22438 46.6762 6.40872L46.1063 7.83468C45.6835 8.14686 44.7881 8.86314 43.9265 9.89904C43.6687 8.49282 43.049 7.18596 42.1172 6.12096C42.091 6.09096 42.0778 6.07782 42.0563 6.05436L41.4488 4.53469C40.574 2.34937 38.489 0.9375 36.136 0.9375C35.0025 0.9375 33.9056 1.26938 32.9625 1.89844L30.6665 3.42844L31.2506 4.59844C32.4356 6.96654 34.816 8.4375 37.4625 8.4375C38.2106 8.4375 38.9494 8.3175 39.659 8.08128L40.9247 7.65936C41.729 8.70846 42.1875 10.0097 42.1875 11.3878V17.4553C42.1115 17.3662 42.0478 17.294 42.0028 17.2444L41.1272 15.7847C39.795 13.5656 37.3612 12.1875 34.7728 12.1875C33.3047 12.1875 31.8825 12.6178 30.6619 13.4325L28.846 14.6428L29.3203 15.826C30.4856 18.7415 33.2681 20.626 36.4097 20.626C37.921 20.626 39.3862 20.1825 40.6453 19.3435L41.07 19.0603C41.37 19.4578 41.7731 20.0597 42.1885 20.8585V32.641C40.6153 31.5385 38.7515 30.9375 36.7922 30.9375C34.6397 30.9375 32.5894 31.6697 30.9375 32.9803V32.8125C30.9375 30.2297 29.4338 27.9722 27.1875 26.9381V12.1875C27.1875 5.98406 22.141 0.9375 15.9375 0.9375C9.73404 0.9375 4.6875 5.98406 4.6875 12.1875V26.9381C2.44125 27.9722 0.9375 30.2297 0.9375 32.8125V35.625H2.8125V32.8125C2.8125 30.5569 4.42781 28.65 6.6525 28.2797L11.7122 27.436C13.0744 27.2081 14.0625 26.0419 14.0625 24.6619V24.1285C14.6635 24.284 15.2888 24.375 15.9375 24.375C16.5862 24.375 17.2115 24.284 17.8125 24.1285V24.6619C17.8125 26.0428 18.8006 27.209 20.1628 27.436L25.2225 28.2797C27.4472 28.65 29.0625 30.5569 29.0625 32.8125V34.965C27.8503 36.6769 27.1875 38.7347 27.1875 40.8422V41.4375C27.1875 42.0065 27.2428 42.5681 27.3244 43.125H24.9544L22.4344 38.086L19.8319 44.1581L15.8672 31.2722L11.1797 49.0847L8.19186 39.375H0.9375V41.25H6.80814L11.3203 55.9162L16.0078 38.1038L19.5431 49.5928L22.5656 42.54L23.7956 45H27.7622C28.5019 47.3203 29.9315 49.4015 31.9135 50.8875L43.125 59.2969L54.3375 50.8875C57.2963 48.6694 59.0625 45.136 59.0625 41.4375V40.8422C59.0625 38.4685 58.2253 36.1556 56.7056 34.3322C54.9075 32.175 52.2665 30.9375 49.4578 30.9375ZM48.6056 20.5003C49.6003 18.8428 51.419 17.8125 53.3522 17.8125C54.449 17.8125 55.5112 18.134 56.4225 18.7425L56.9672 19.1053C56.0381 21.1753 54.0037 22.5 51.7153 22.5C50.5744 22.5 49.469 22.1653 48.5203 21.5325L48.1387 21.2785L48.6056 20.5003ZM48.4181 7.10628C49.005 5.63719 50.4075 4.6875 51.989 4.6875C52.7513 4.6875 53.489 4.91063 54.1219 5.33344L55.0322 5.94C54.1228 7.48872 52.4794 8.4375 50.6625 8.4375C50.116 8.4375 49.5769 8.35032 49.0594 8.17782L48.1144 7.86282L48.4181 7.10628ZM10.3125 16.875V14.8913C10.3125 13.4597 10.9538 12.1256 12.0722 11.2313L13.3715 10.1915C14.3653 11.5425 15.9047 12.4706 17.6962 12.6506L20.7187 12.9525C21.2006 13.0003 21.5625 13.4015 21.5625 13.8853V16.875C21.5625 19.9772 19.0397 22.5 15.9375 22.5C12.8353 22.5 10.3125 19.9772 10.3125 16.875ZM20.4703 25.5862C20.0175 25.5103 19.6875 25.1213 19.6875 24.6619V23.3606C21.9253 22.0612 23.4375 19.6444 23.4375 16.875V13.8844C23.4375 12.434 22.349 11.2303 20.9053 11.086L17.8828 10.784C15.705 10.5656 14.0625 8.75064 14.0625 6.5625H12.1875C12.1875 7.23564 12.2953 7.88436 12.495 8.49096L10.9003 9.76686C9.33564 11.0185 8.4375 12.8869 8.4375 14.8913V16.875C8.4375 19.6435 9.94968 22.0612 12.1875 23.3606V24.6619C12.1875 25.1222 11.8575 25.5112 11.4047 25.5862L6.5625 26.3935V12.1875C6.5625 7.01814 10.7681 2.8125 15.9375 2.8125C21.1069 2.8125 25.3125 7.01814 25.3125 12.1875V26.3935L20.4703 25.5862ZM39.0656 6.30282C38.5481 6.47532 38.009 6.5625 37.4625 6.5625C35.6456 6.5625 34.0022 5.61375 33.0928 4.065L34.0031 3.45844C34.636 3.03562 35.3737 2.8125 36.136 2.8125C37.7185 2.8125 39.12 3.76219 39.7078 5.23125L40.0106 5.98781L39.0656 6.30282ZM39.6047 17.7825C38.655 18.4153 37.5506 18.75 36.4097 18.75C34.1231 18.75 32.0878 17.4253 31.1569 15.3553L31.7015 14.9925C32.6137 14.384 33.676 14.0625 34.7728 14.0625C36.7069 14.0625 38.5247 15.0928 39.5194 16.7494L39.9863 17.5285L39.6047 17.7825ZM57.1875 41.4375C57.1875 44.549 55.7015 47.521 53.2135 49.3875L43.125 56.9531L33.0365 49.3875C30.5485 47.521 29.0625 44.549 29.0625 41.4375V40.8422C29.0625 38.9062 29.746 37.02 30.9853 35.5322C32.4253 33.8044 34.5422 32.8125 36.7922 32.8125C38.8115 32.8125 40.711 33.599 42.1378 35.026L43.125 36.014L44.1112 35.0269C45.539 33.599 47.4385 32.8125 49.4578 32.8125C51.7078 32.8125 53.8247 33.8044 55.2647 35.5322C56.504 37.02 57.1875 38.9062 57.1875 40.8422V41.4375Z" fill="#2B3990"/>
</g>
<defs>
<clipPath id="clip0_69_693">
<rect width="60" height="60" fill="white"/>
</clipPath>
</defs>
</svg>
