<svg width="52" height="52" viewBox="0 0 52 52" fill="none" xmlns="http://www.w3.org/2000/svg">
<path d="M26 39.9797C26.18 39.8597 26.3 39.6797 26.42 39.5597C28.82 37.1597 31.16 34.8197 33.56 32.4197C33.92 32.0597 34.28 31.8797 34.82 31.8797C42.68 31.7597 49.34 37.2797 50.96 44.5997C51.38 46.5797 51.32 48.5597 51.32 50.5397C51.32 51.0197 50.9 51.3197 50.42 51.3197C49.94 51.3197 49.64 50.9597 49.64 50.4797C49.58 49.2797 49.7 48.0797 49.52 46.8797C48.92 41.1797 45.92 37.0997 40.7 34.6997C40.34 34.5197 39.98 34.3997 39.56 34.2197C39.56 34.3997 39.5 34.5797 39.5 34.6997C39.5 37.0397 39.5 39.3197 39.5 41.6597C39.5 41.9597 39.56 42.1397 39.86 42.2597C41.42 42.8597 42.26 44.4197 42.02 45.9797C41.72 47.5997 40.34 48.7997 38.72 48.7997C37.04 48.7997 35.66 47.7197 35.36 46.0397C35.06 44.4797 35.9 42.8597 37.4 42.2597C37.76 42.1397 37.82 41.9597 37.82 41.5997C37.82 39.0197 37.82 36.4397 37.82 33.7397C36.86 33.6797 35.9 33.6197 34.94 33.5597C34.82 33.5597 34.64 33.6797 34.58 33.7997C32.06 36.2597 29.6 38.7797 27.14 41.2997C26.96 41.4797 26.9 41.7797 26.9 41.9597C26.9 44.7197 26.9 47.5397 26.9 50.2997C26.9 50.9597 26.54 51.3197 26 51.2597C25.52 51.2597 25.22 50.8997 25.22 50.2997C25.22 47.5397 25.22 44.8397 25.22 42.0797C25.22 41.7197 25.1 41.4197 24.86 41.1797C22.4 38.7797 20 36.3197 17.54 33.9197C17.36 33.7397 17.06 33.6197 16.76 33.6197C15.92 33.6197 15.08 33.7397 14.24 33.7997C14.24 35.5997 14.24 37.3397 14.24 39.0797C14.48 39.1397 14.78 39.1997 15.02 39.2597C17 39.7997 18.38 41.5997 18.44 43.6997C18.44 45.0797 18.44 46.4597 18.44 47.8397C18.44 48.4997 18.14 48.7997 17.48 48.7997C16.94 48.7997 16.46 48.7997 15.92 48.7997C15.38 48.7997 15.02 48.4397 15.02 47.9597C15.02 47.4797 15.38 47.1197 15.92 47.1197C16.16 47.1197 16.4 47.1197 16.76 47.1197C16.7 45.6797 16.76 44.2997 16.52 42.9197C16.34 41.8397 15.5 41.0597 14.36 40.8797C13.64 40.7597 12.8 40.7597 12.08 40.9397C10.82 41.2397 10.1 42.1997 9.97998 43.4597C9.85998 44.6597 9.97998 45.8597 9.97998 47.1197C10.28 47.1197 10.58 47.1197 10.82 47.1197C11.3 47.1197 11.66 47.4797 11.6 47.9597C11.6 48.3797 11.3 48.7397 10.82 48.7997C10.22 48.7997 9.61998 48.7997 9.01998 48.7997C8.59998 48.7997 8.23998 48.4997 8.23998 48.1397C8.23998 46.3997 8.11998 44.6597 8.29998 42.9197C8.53998 40.8797 9.91998 39.6797 11.96 39.1997C12.08 39.1397 12.26 39.1397 12.38 39.0797C12.38 37.5197 12.38 35.9597 12.38 34.3397C12.14 34.3997 11.96 34.4597 11.78 34.5197C6.55998 36.6197 3.37998 40.3997 2.47998 45.9797C2.23998 47.4197 2.29998 48.9797 2.23998 50.4197C2.23998 51.0197 1.75998 51.4997 1.21998 51.3197C1.09998 51.1997 0.739979 50.8397 0.739979 50.5997C0.499979 46.8797 0.919979 43.2197 2.95998 39.9197C5.71998 35.3597 9.79998 32.6597 15.2 31.9997C15.92 31.9397 16.58 31.9397 17.3 31.8797C17.72 31.8197 18.08 31.9997 18.38 32.2997C20.78 34.6997 23.18 37.0997 25.58 39.4997C25.7 39.6797 25.82 39.8597 26 39.9797ZM40.34 45.4397C40.34 44.5397 39.56 43.7597 38.66 43.7597C37.76 43.7597 36.98 44.5397 36.98 45.4397C36.98 46.3397 37.76 47.1197 38.66 47.1197C39.56 47.1197 40.34 46.3397 40.34 45.4397Z" fill="#2B3990" stroke="#2B3990" stroke-width="0.5" stroke-miterlimit="10"/>
<path d="M38.06 13.5198C40.34 14.4198 40.82 16.6398 40.04 18.1998C39.5 19.3398 38.54 19.9398 37.34 20.1198C37.16 20.1198 36.92 20.2998 36.92 20.4198C36.56 22.6998 35.42 24.5598 33.86 26.1798C33.14 26.8998 32.24 27.5598 31.46 28.2198C31.28 28.3398 31.16 28.6398 31.1 28.8198C31.04 29.7798 31.1 30.7998 31.1 31.7598C31.1 32.3598 30.8 32.7198 30.26 32.7198C29.72 32.7198 29.42 32.3598 29.42 31.6998C29.42 30.9198 29.42 30.1398 29.42 29.2998C27.14 30.4398 24.92 30.4398 22.64 29.2998C22.64 30.1998 22.64 30.9798 22.64 31.7598C22.64 32.3598 22.34 32.7198 21.8 32.7198C21.26 32.7198 20.96 32.3598 20.96 31.7598C20.96 30.7998 20.96 29.8998 20.96 28.9398C20.96 28.5198 20.84 28.3398 20.54 28.0998C18.38 26.5998 16.58 24.7398 15.62 22.2198C15.38 21.5598 15.2 20.8398 15.02 20.1198C13.04 19.8198 11.9 18.7998 11.66 17.1798C11.42 15.6198 12.26 14.2998 13.94 13.4598C13.76 12.5598 13.52 11.7198 13.34 10.8198C12.8 8.4198 13.64 6.3798 15.26 4.6398C17 2.7798 19.16 1.6998 21.62 1.1598C25.7 0.199796 29.72 0.439796 33.5 2.3598C34.52 2.8998 35.48 3.5598 36.32 4.3398C38.42 6.2598 39.2 8.6598 38.42 11.4798C38.36 12.1398 38.18 12.7998 38.06 13.5198ZM16.7 14.7198C16.7 16.1598 16.7 17.5398 16.7 18.9798C16.7 20.2398 17 21.4398 17.6 22.5798C19.1 25.2198 21.32 27.0198 24.08 28.1598C25.4 28.6998 26.72 28.6398 28.04 28.0998C30.26 27.1998 32.06 25.7598 33.56 23.8998C34.46 22.6998 35.12 21.4398 35.24 19.9398C35.36 18.1998 35.3 16.5198 35.3 14.7798C35.3 14.6598 35.18 14.5398 35.06 14.4798C33.62 13.5798 32.42 12.3798 31.34 11.1198C30.92 10.6398 30.5 10.0998 30.02 9.5598C25.94 12.1398 21.5 13.8798 16.7 14.7198ZM36.38 13.2798C36.62 12.1998 36.8 11.2998 37.04 10.4598C37.4 8.8998 36.92 7.57979 35.96 6.3798C35.12 5.2998 34.04 4.5798 32.9 3.9198C31.1 2.9598 29.18 2.5398 27.14 2.4198C23.9 2.2398 20.78 2.7798 18.08 4.6398C16.64 5.6598 15.44 6.8598 15.08 8.6598C14.78 10.2198 15.44 11.6598 15.74 13.2198C17 12.9198 18.14 12.6798 19.28 12.3798C22.94 11.3598 26.48 9.9798 29.6 7.7598C30.26 7.2798 30.62 7.3398 31.16 7.9998C32.3 9.3198 33.38 10.6398 34.58 11.8398C35 12.3798 35.66 12.7398 36.38 13.2798ZM15.02 18.3798C15.02 17.2398 15.02 16.1598 15.02 15.0798C14 15.1998 13.34 15.8598 13.34 16.7598C13.34 17.5998 14 18.2598 15.02 18.3798ZM37.04 18.3798C38.06 18.2598 38.72 17.5998 38.72 16.6998C38.72 15.7998 38 15.1398 37.04 15.0798C37.04 16.1598 37.04 17.2398 37.04 18.3798Z" fill="#2B3990" stroke="#2B3990" stroke-width="0.25" stroke-miterlimit="10"/>
<path d="M25.9999 25.1598C24.9799 25.1598 24.0199 24.8598 23.1199 24.2598C22.6399 23.8998 22.4599 23.4198 22.7599 22.9998C23.0599 22.5798 23.5399 22.5198 24.0199 22.8198C25.3399 23.6598 26.6599 23.6598 27.9799 22.8198C28.5199 22.4598 28.9999 22.5198 29.2999 22.9998C29.5999 23.4198 29.4199 23.8998 28.9399 24.2598C28.0399 24.8598 27.0799 25.1598 25.9999 25.1598Z" fill="#2B3990" stroke="#2B3990" stroke-width="0.25" stroke-miterlimit="10"/>
<path d="M22.64 16.7C22.64 17.66 21.92 18.44 20.96 18.38C20 18.38 19.28 17.66 19.28 16.7C19.28 15.74 20 15.02 20.96 15.02C21.86 15.02 22.64 15.8 22.64 16.7Z" fill="#2B3990" stroke="#2B3990" stroke-width="0.25" stroke-miterlimit="10"/>
<path d="M29.42 16.64C29.42 15.68 30.26 15.02 31.22 15.02C32.12 15.08 32.84 15.86 32.78 16.76C32.78 17.66 32 18.38 31.04 18.38C30.08 18.38 29.36 17.6 29.42 16.64Z" fill="#2B3990" stroke="#2B3990" stroke-width="0.25" stroke-miterlimit="10"/>
</svg>
