<svg width="143" height="42" viewBox="0 0 143 42" fill="none" xmlns="http://www.w3.org/2000/svg">
<path d="M135.771 39.0614C135.82 39.1083 135.885 39.1674 135.961 39.2439C136.046 39.3226 136.135 39.3967 136.227 39.4658C136.365 39.565 136.514 39.6477 136.671 39.7123C136.817 39.7724 136.974 39.8026 137.132 39.8011C137.26 39.8049 137.388 39.7866 137.509 39.7468C137.602 39.7176 137.687 39.6669 137.756 39.5989C137.813 39.5386 137.855 39.4661 137.879 39.3869C137.906 39.3073 137.919 39.2241 137.919 39.1403C137.919 39.0416 137.882 38.9465 137.815 38.874C137.745 38.7915 137.661 38.7207 137.569 38.6644C137.47 38.6031 137.366 38.5503 137.258 38.5066C137.149 38.4647 137.056 38.4277 136.977 38.4006C136.658 38.2812 136.349 38.1352 136.055 37.9642C135.81 37.8242 135.587 37.6489 135.394 37.444C135.224 37.2612 135.09 37.0479 134.999 36.8152C134.908 36.5701 134.863 36.3101 134.866 36.0484C134.863 35.7686 134.919 35.4912 135.031 35.2348C135.137 34.9999 135.292 34.7911 135.488 34.6233C135.705 34.4416 135.956 34.305 136.227 34.2214C136.539 34.1221 136.864 34.0738 137.191 34.0784C137.45 34.0771 137.708 34.1103 137.958 34.177C138.213 34.2476 138.456 34.3539 138.681 34.4926C138.779 34.5567 138.873 34.6233 138.964 34.6923C139.05 34.7544 139.132 34.8211 139.211 34.892C139.27 34.9476 139.324 35.0087 139.371 35.0745C139.405 35.1179 139.425 35.1701 139.43 35.2249C139.43 35.2654 139.42 35.3052 139.401 35.3408C139.377 35.3832 139.349 35.4228 139.317 35.4591L138.644 36.2457C138.626 36.2692 138.603 36.2886 138.577 36.3026C138.551 36.3166 138.523 36.325 138.493 36.327C138.453 36.3271 138.414 36.3132 138.382 36.2876C138.343 36.2586 138.306 36.2265 138.271 36.1914L138.232 36.1544C138.173 36.0977 138.106 36.0435 138.035 35.9843C137.962 35.9269 137.885 35.875 137.805 35.829C137.727 35.783 137.644 35.7442 137.559 35.7131C137.469 35.6818 137.375 35.6659 137.28 35.6663C137.189 35.6661 137.098 35.6752 137.009 35.6934C136.93 35.7089 136.854 35.7373 136.785 35.7772C136.721 35.8144 136.669 35.867 136.632 35.9301C136.59 35.9984 136.57 36.0772 136.572 36.1569C136.569 36.2433 136.59 36.3289 136.634 36.4035C136.682 36.4766 136.745 36.5388 136.819 36.5859C136.915 36.6498 137.018 36.7035 137.125 36.7462C137.246 36.7955 137.389 36.8497 137.549 36.9065C137.86 37.0199 138.146 37.1358 138.407 37.2615C138.653 37.3743 138.882 37.5212 139.087 37.6979C139.276 37.8663 139.428 38.072 139.534 38.302C139.647 38.5717 139.702 38.8626 139.694 39.1551C139.699 39.4856 139.63 39.8131 139.494 40.1142C139.369 40.3974 139.184 40.6498 138.952 40.8539C138.714 41.0599 138.44 41.2189 138.143 41.3224C137.821 41.4358 137.481 41.4925 137.14 41.49C136.801 41.4884 136.466 41.4206 136.153 41.2903C135.826 41.1583 135.52 40.9797 135.244 40.7602C135.137 40.6776 135.037 40.5851 134.948 40.4841C134.866 40.3953 134.802 40.3213 134.755 40.2671L134.743 40.2523C134.69 40.1996 134.654 40.1314 134.642 40.0575C134.625 40.0159 134.619 39.9709 134.623 39.9263C134.627 39.8817 134.642 39.8388 134.667 39.8011L135.428 39.0072C135.469 38.9682 135.521 38.9431 135.576 38.9357C135.606 38.9358 135.636 38.9453 135.66 38.9628C135.699 38.9931 135.736 39.0261 135.771 39.0614Z" fill="#2B3990"/>
<path d="M3.46701 34.4433C3.47051 34.3885 3.49221 34.3365 3.52865 34.2954C3.54688 34.2744 3.56972 34.2579 3.59539 34.2472C3.62106 34.2365 3.64885 34.2319 3.67659 34.2338H5.19788C5.24922 34.2328 5.29908 34.2509 5.33781 34.2846C5.37653 34.3183 5.40135 34.3652 5.40745 34.4162L6.60328 38.7853L7.8065 34.4162C7.81682 34.3645 7.84488 34.3179 7.88584 34.2846C7.92679 34.2513 7.97808 34.2333 8.03087 34.2338H9.53243C9.55898 34.2338 9.58528 34.239 9.60982 34.2491C9.63436 34.2593 9.65665 34.2742 9.67543 34.2929C9.71799 34.3321 9.74437 34.3857 9.7494 34.4433C9.84967 35.5759 9.95405 36.6969 10.0625 37.8064C10.171 38.916 10.2762 40.037 10.3781 41.1695V41.1917C10.3781 41.3175 10.3116 41.3791 10.1834 41.3791H8.95055C8.92217 41.3822 8.89346 41.3789 8.86651 41.3695C8.83957 41.3601 8.81505 41.3448 8.79475 41.3247C8.77444 41.3046 8.75887 41.2803 8.74914 41.2535C8.73941 41.2266 8.73577 41.198 8.7385 41.1695L8.35387 37.4489L7.36762 41.1917C7.35651 41.2347 7.33538 41.2744 7.30598 41.3076C7.29387 41.3262 7.27793 41.342 7.25921 41.3539C7.2405 41.3658 7.21945 41.3736 7.19749 41.3767H6.04112C6.01901 41.3739 5.99773 41.3665 5.97863 41.3551C5.95952 41.3436 5.94302 41.3283 5.93017 41.3101C5.89591 41.2791 5.87328 41.2373 5.86606 41.1917L4.87981 37.4588L4.49764 41.1695C4.50043 41.1982 4.49676 41.2271 4.48689 41.2541C4.47703 41.2812 4.46122 41.3056 4.44063 41.3258C4.42005 41.3459 4.39521 41.3611 4.36795 41.3703C4.34069 41.3796 4.3117 41.3826 4.28313 41.3791H3.05032C2.92458 41.3791 2.86047 41.3101 2.86047 41.1695L3.46701 34.4433Z" fill="#2B3990"/>
<path d="M13.2184 38.5288C13.2143 38.7347 13.2451 38.9398 13.3097 39.1354C13.364 39.2853 13.4478 39.4228 13.5562 39.5397C13.6518 39.6414 13.7701 39.7192 13.9014 39.7666C14.0314 39.8157 14.1693 39.8408 14.3082 39.8405C14.4513 39.8403 14.5929 39.8119 14.7249 39.7567C14.8556 39.7002 14.9725 39.6161 15.0676 39.5101C15.1712 39.3894 15.25 39.2495 15.2994 39.0984C15.3606 38.9166 15.3898 38.7255 15.3857 38.5338V34.4458C15.3849 34.3903 15.4052 34.3365 15.4424 34.2954C15.4603 34.2746 15.4827 34.2582 15.5079 34.2475C15.5332 34.2368 15.5605 34.2321 15.5879 34.2337H16.8725C16.9019 34.2319 16.9313 34.2368 16.9586 34.2479C16.986 34.259 17.0104 34.276 17.0303 34.2978C17.0666 34.3376 17.0868 34.3895 17.087 34.4433V38.5017C17.1 38.9835 17.023 39.4634 16.8601 39.917C16.7294 40.2682 16.5183 40.584 16.2437 40.8391C15.9896 41.0681 15.687 41.2366 15.3586 41.3322C15.0161 41.4339 14.6605 41.4846 14.3033 41.4826C13.9441 41.4842 13.5867 41.4318 13.2431 41.3273C12.9125 41.2264 12.609 41.0519 12.3555 40.8169C12.0867 40.5579 11.8795 40.242 11.7489 39.8923C11.5854 39.4449 11.5084 38.9705 11.5221 38.4943V34.4433C11.5226 34.3908 11.5399 34.3398 11.5714 34.2978C11.5857 34.2778 11.6045 34.2616 11.6264 34.2504C11.6483 34.2392 11.6726 34.2335 11.6971 34.2337H13.0113C13.0629 34.2364 13.1119 34.2574 13.1494 34.2929C13.1726 34.3109 13.1912 34.3341 13.2036 34.3607C13.216 34.3873 13.222 34.4164 13.2209 34.4458L13.2184 38.5288Z" fill="#2B3990"/>
<path d="M18.1966 34.4408C18.1949 34.3856 18.2143 34.3318 18.2508 34.2904C18.2682 34.2697 18.2901 34.2533 18.315 34.2426C18.3398 34.2319 18.3668 34.2271 18.3938 34.2288H19.6957C19.7209 34.2288 19.7459 34.2338 19.7692 34.2435C19.7925 34.2532 19.8136 34.2675 19.8313 34.2855C19.8523 34.3055 19.8691 34.3296 19.8805 34.3563C19.892 34.383 19.8979 34.4118 19.8979 34.4408V39.6753H22.3142C22.3396 39.6753 22.3648 39.6806 22.3881 39.6908C22.4115 39.701 22.4325 39.7159 22.4498 39.7345C22.4692 39.7557 22.4842 39.7806 22.494 39.8077C22.5037 39.8348 22.508 39.8636 22.5065 39.8923V41.1596C22.5065 41.213 22.4892 41.2649 22.4572 41.3076C22.4404 41.3297 22.4188 41.3477 22.394 41.3601C22.3692 41.3725 22.3419 41.379 22.3142 41.3791H18.3914C18.2607 41.3791 18.1966 41.31 18.1966 41.1695V34.4408Z" fill="#2B3990"/>
<path d="M22.5953 34.4434C22.5941 34.4152 22.5987 34.3871 22.6089 34.3608C22.6191 34.3345 22.6346 34.3106 22.6544 34.2905C22.6736 34.2717 22.6963 34.2569 22.7213 34.2472C22.7463 34.2374 22.7731 34.2329 22.7999 34.2338H27.529C27.5805 34.2336 27.6304 34.252 27.6695 34.2856C27.6908 34.3061 27.7079 34.3305 27.7198 34.3576C27.7316 34.3847 27.738 34.4139 27.7385 34.4434V35.6392C27.7384 35.6986 27.7194 35.7565 27.6843 35.8044C27.6672 35.8297 27.644 35.8501 27.6168 35.8639C27.5896 35.8777 27.5594 35.8844 27.529 35.8833H26.0126V41.1548C26.0122 41.2116 25.9921 41.2664 25.9559 41.3102C25.9379 41.3325 25.915 41.3504 25.8889 41.3624C25.8627 41.3744 25.8342 41.3802 25.8055 41.3792H24.5184C24.4919 41.3787 24.4657 41.3727 24.4416 41.3617C24.4174 41.3506 24.3957 41.3348 24.3779 41.3151C24.3561 41.2946 24.3389 41.2697 24.3275 41.2421C24.316 41.2145 24.3105 41.1847 24.3113 41.1548V35.8833H22.7999C22.7727 35.8839 22.7456 35.8788 22.7206 35.8681C22.6955 35.8575 22.6729 35.8417 22.6544 35.8217C22.6329 35.7968 22.6165 35.7678 22.6064 35.7365C22.5962 35.7051 22.5924 35.6721 22.5953 35.6392V34.4434Z" fill="#2B3990"/>
<path d="M28.8185 34.4433C28.8178 34.3902 28.8342 34.3384 28.8653 34.2954C28.8829 34.2743 28.9053 34.2576 28.9306 34.2469C28.9559 34.2362 28.9834 34.2317 29.0108 34.2337H30.2979C30.3499 34.2358 30.3996 34.2558 30.4384 34.2904C30.4621 34.3082 30.4811 34.3313 30.494 34.3579C30.5068 34.3845 30.5132 34.4138 30.5124 34.4433V41.1695C30.5162 41.1984 30.5132 41.2277 30.5037 41.2552C30.4941 41.2827 30.4784 41.3076 30.4575 41.3279C30.4367 41.3483 30.4115 41.3635 30.3837 41.3724C30.356 41.3812 30.3266 41.3835 30.2979 41.3791H29.0059C28.8777 41.3791 28.8136 41.31 28.8136 41.1695L28.8185 34.4433Z" fill="#2B3990"/>
<path d="M32.7634 39.0713C32.8128 39.1181 32.8769 39.1773 32.9533 39.2538C33.0379 39.3325 33.1268 39.4066 33.2196 39.4757C33.3574 39.5749 33.5064 39.6576 33.6634 39.7222C33.8094 39.7832 33.9662 39.8142 34.1245 39.8135C34.2524 39.8173 34.38 39.7989 34.5017 39.7592C34.5944 39.7299 34.6788 39.6793 34.7483 39.6113C34.8051 39.551 34.8473 39.4784 34.8715 39.3992C34.8978 39.3197 34.9111 39.2364 34.911 39.1527C34.9115 39.054 34.8744 38.9588 34.8074 38.8864C34.7369 38.8039 34.6537 38.7331 34.5609 38.6768C34.462 38.6154 34.3581 38.5627 34.2502 38.519C34.1417 38.4771 34.048 38.4401 33.9691 38.413C33.6501 38.2935 33.3416 38.1476 33.047 37.9766C32.8024 37.8365 32.5797 37.6612 32.3862 37.4563C32.2161 37.2736 32.0822 37.0602 31.9917 36.8276C31.9002 36.5824 31.8551 36.3224 31.8586 36.0608C31.8553 35.7809 31.9116 35.5036 32.0238 35.2471C32.1266 35.0121 32.2797 34.8025 32.4725 34.6332C32.69 34.4515 32.9414 34.3148 33.2122 34.2313C33.5237 34.132 33.8493 34.0837 34.1763 34.0883C34.4343 34.0869 34.6914 34.12 34.9406 34.1869C35.196 34.257 35.4401 34.3633 35.6655 34.5025C35.7641 34.5666 35.8578 34.6332 35.949 34.7022C36.0347 34.7643 36.117 34.831 36.1956 34.9019C36.2547 34.9575 36.3084 35.0186 36.3559 35.0844C36.3896 35.1278 36.4102 35.18 36.415 35.2348C36.4148 35.2753 36.4047 35.3151 36.3854 35.3507C36.3619 35.3931 36.3337 35.4327 36.3016 35.469L35.6285 36.2556C35.6107 36.2791 35.588 36.2985 35.5621 36.3125C35.5361 36.3265 35.5075 36.3349 35.4781 36.3369C35.4377 36.337 35.3985 36.3231 35.3671 36.2975C35.3276 36.2685 35.2905 36.2363 35.2562 36.2013L35.2167 36.1643C35.1576 36.1076 35.091 36.0534 35.0195 35.9942C34.947 35.9368 34.8704 35.8849 34.7902 35.8389C34.7117 35.7929 34.6291 35.7541 34.5436 35.723C34.4541 35.6917 34.3599 35.6758 34.265 35.6761C34.1739 35.676 34.083 35.6851 33.9938 35.7033C33.9149 35.7188 33.8392 35.7472 33.7694 35.7871C33.7063 35.8243 33.6537 35.8769 33.6166 35.94C33.5754 36.0083 33.5548 36.0871 33.5574 36.1668C33.5537 36.2532 33.5751 36.3388 33.619 36.4134C33.6671 36.4865 33.7301 36.5487 33.8039 36.5958C33.9 36.6597 34.0025 36.7134 34.1097 36.7561C34.2305 36.8054 34.3735 36.8596 34.5338 36.9164C34.8444 37.0298 35.1304 37.1457 35.3918 37.2714C35.638 37.3842 35.8671 37.5311 36.0723 37.7078C36.2611 37.8757 36.4123 38.0815 36.5161 38.3119C36.6317 38.5811 36.6872 38.8722 36.6788 39.165C36.6836 39.4955 36.6154 39.823 36.4791 40.1241C36.3544 40.4073 36.1693 40.6597 35.9367 40.8638C35.6993 41.0698 35.4248 41.2288 35.128 41.3323C34.8057 41.4457 34.4661 41.5024 34.1245 41.4999C33.7858 41.4985 33.4507 41.4307 33.1382 41.3002C32.8111 41.1682 32.5046 40.9896 32.2284 40.7701C32.1212 40.6868 32.0214 40.5944 31.9301 40.494L31.7402 40.277V40.2622C31.6869 40.2095 31.6516 40.1413 31.6391 40.0674C31.6482 39.9959 31.6844 39.9306 31.7402 39.885L32.5021 39.091C32.5425 39.0521 32.5944 39.027 32.65 39.0195C32.6801 39.0197 32.7094 39.0292 32.7339 39.0466C32.7439 39.0547 32.7537 39.0629 32.7634 39.0713Z" fill="#2B3990"/>
<path d="M37.6157 34.4531C37.6122 34.3959 37.6288 34.3392 37.6626 34.2929C37.6807 34.2725 37.7032 34.2566 37.7284 34.2463C37.7537 34.2361 37.7809 34.2317 37.8081 34.2337H40.6164C40.81 34.2319 41.0026 34.2628 41.186 34.3249C41.3617 34.3822 41.5279 34.4653 41.6791 34.5715C41.8296 34.6821 41.9655 34.8113 42.0834 34.9561C42.2035 35.108 42.3053 35.2735 42.3867 35.4493C42.4709 35.6232 42.5354 35.8059 42.579 35.9942C42.6232 36.1841 42.6455 36.3785 42.6456 36.5736C42.6448 36.8622 42.5965 37.1488 42.5026 37.4217C42.411 37.6901 42.2734 37.9404 42.0958 38.1614C41.921 38.375 41.7056 38.5518 41.4621 38.6817C41.2113 38.8168 40.9308 38.8871 40.646 38.8863H39.3146V41.1769C39.3146 41.3174 39.248 41.384 39.1124 41.384H37.8081C37.7825 41.3858 37.7569 41.3824 37.7327 41.3739C37.7085 41.3654 37.6863 41.3521 37.6675 41.3347C37.6488 41.3131 37.6346 41.2881 37.6257 41.261C37.6169 41.2339 37.6135 41.2053 37.6157 41.1769V34.4531ZM40.9221 36.5612C40.9223 36.4632 40.9064 36.3658 40.8753 36.2728C40.8464 36.1831 40.8012 36.0995 40.7421 36.0262C40.6849 35.9507 40.6127 35.8878 40.5301 35.8413C40.4441 35.7913 40.346 35.7657 40.2466 35.7673H39.3146V37.3749H40.2466C40.3462 37.3767 40.4447 37.3529 40.5326 37.3059C40.6149 37.2611 40.6871 37.1998 40.7446 37.1259C40.802 37.0518 40.8463 36.9684 40.8753 36.8793C40.9092 36.7768 40.9251 36.6692 40.9221 36.5612Z" fill="#2B3990"/>
<path d="M43.5973 34.4532C43.5952 34.3954 43.6136 34.3386 43.6491 34.2929C43.6668 34.2728 43.6889 34.257 43.7137 34.2467C43.7385 34.2364 43.7653 34.232 43.7921 34.2338H48.1489C48.177 34.2319 48.2051 34.2365 48.2312 34.2472C48.2573 34.2579 48.2805 34.2744 48.2993 34.2954C48.3365 34.3431 48.3549 34.4027 48.351 34.4631V35.654C48.3505 35.7099 48.3324 35.7642 48.2993 35.8093C48.2821 35.8336 48.2591 35.8531 48.2324 35.8661C48.2056 35.879 48.1761 35.8849 48.1464 35.8833H45.2986V37.0766H47.4955C47.5452 37.0749 47.5941 37.0906 47.6335 37.121C47.6531 37.139 47.6682 37.1612 47.6776 37.1861C47.6871 37.2109 47.6905 37.2376 47.6878 37.264V38.3045C47.6873 38.3521 47.6708 38.3981 47.6409 38.4352C47.6241 38.4559 47.6026 38.4723 47.5781 38.483C47.5537 38.4937 47.527 38.4985 47.5004 38.4968H45.2986V39.7296H48.2573C48.3905 39.7296 48.4546 39.8036 48.4546 39.9491V41.1597C48.4551 41.1757 48.4523 41.1916 48.4464 41.2064C48.4404 41.2213 48.4315 41.2348 48.4201 41.246C48.4077 41.3347 48.3486 41.3791 48.2401 41.3791H43.802C43.7764 41.3809 43.7508 41.3775 43.7266 41.369C43.7024 41.3605 43.6802 41.3472 43.6614 41.3298C43.6418 41.3088 43.6268 41.2839 43.6175 41.2567C43.6082 41.2295 43.6046 41.2006 43.6072 41.172L43.5973 34.4532Z" fill="#2B3990"/>
<path d="M54.5077 34.7516C54.5551 34.7824 54.5927 34.826 54.6162 34.8773C54.63 34.9058 54.6371 34.937 54.6371 34.9686C54.6371 35.0002 54.63 35.0314 54.6162 35.0598L53.8765 36.2162C53.8666 36.2381 53.8523 36.2577 53.8345 36.2738C53.8167 36.2899 53.7957 36.3022 53.773 36.3099C53.7487 36.3123 53.7242 36.3098 53.7009 36.3026C53.6776 36.2954 53.656 36.2836 53.6374 36.2679C53.4961 36.1506 53.3361 36.0581 53.164 35.9943C52.9879 35.9295 52.8017 35.8969 52.6141 35.8981C52.3843 35.8955 52.1571 35.947 51.9509 36.0485C51.7499 36.1458 51.5718 36.2844 51.4282 36.4553C51.2788 36.6356 51.1628 36.841 51.0854 37.0619C51.0027 37.2997 50.961 37.5498 50.9622 37.8016C50.9606 38.0534 51.0023 38.3036 51.0854 38.5412C51.1623 38.7609 51.2785 38.9647 51.4282 39.1429C51.5674 39.3161 51.7402 39.4595 51.9361 39.5645C52.1429 39.6641 52.3698 39.7147 52.5993 39.7124C52.7887 39.7136 52.9767 39.6802 53.1541 39.6138C53.3295 39.5437 53.4914 39.4436 53.6324 39.3179C53.6693 39.2881 53.7157 39.2723 53.7631 39.2735C53.8087 39.2881 53.8468 39.3199 53.8691 39.3623L54.6088 40.5458C54.6244 40.5724 54.6337 40.6023 54.6358 40.6331C54.638 40.6639 54.633 40.6948 54.6211 40.7233C54.5968 40.7728 54.5593 40.8147 54.5127 40.8441C54.241 41.0438 53.9409 41.2017 53.6226 41.3126C53.2998 41.4239 52.9605 41.4797 52.6191 41.4778C52.316 41.4793 52.0145 41.4361 51.724 41.3496C51.4408 41.2636 51.1711 41.1383 50.9227 40.9773C50.6812 40.8174 50.4616 40.6268 50.2693 40.4102C50.0642 40.1864 49.8878 39.9379 49.7441 39.6705C49.5952 39.393 49.4809 39.0982 49.4039 38.7927C49.1611 37.8365 49.2824 36.8242 49.7441 35.9524C49.8876 35.6848 50.0641 35.4363 50.2693 35.2127C50.6684 34.7698 51.1794 34.4428 51.7487 34.2659C52.039 34.1785 52.3406 34.1345 52.6437 34.1352C52.9791 34.1331 53.3125 34.1872 53.63 34.2955C53.9436 34.4029 54.2395 34.5566 54.5077 34.7516Z" fill="#2B3990"/>
<path d="M55.7355 34.4433C55.7355 34.39 55.7528 34.338 55.7848 34.2954C55.8024 34.2743 55.8248 34.2576 55.8501 34.2469C55.8754 34.2362 55.9029 34.2317 55.9303 34.2337H57.2198C57.2723 34.2369 57.3224 34.2568 57.3628 34.2904C57.3865 34.3082 57.4055 34.3313 57.4184 34.3579C57.4313 34.3845 57.4376 34.4138 57.4368 34.4433V41.1695C57.4368 41.31 57.3653 41.3791 57.2198 41.3791H55.9402C55.8095 41.3791 55.7454 41.31 55.7454 41.1695L55.7355 34.4433Z" fill="#2B3990"/>
<path d="M60.7185 34.4212C60.7226 34.3981 60.7319 34.3761 60.7456 34.3571C60.7634 34.3348 60.7832 34.3141 60.8048 34.2955C60.8282 34.2767 60.8539 34.2609 60.8812 34.2486C60.9048 34.2392 60.9299 34.2342 60.9552 34.2338H62.0795C62.1031 34.233 62.1266 34.2369 62.1487 34.2454C62.1707 34.2539 62.1908 34.2667 62.2077 34.2831C62.2364 34.3106 62.2628 34.3402 62.2866 34.3719L62.3976 34.6456L64.7029 41.1647C64.7168 41.1882 64.7241 41.215 64.7241 41.2423C64.7241 41.2697 64.7168 41.2965 64.7029 41.32C64.681 41.3416 64.6547 41.358 64.6257 41.3683C64.5967 41.3785 64.5659 41.3822 64.5353 41.3792H63.2729C63.245 41.3841 63.2164 41.3834 63.1888 41.3771C63.1612 41.3708 63.1351 41.359 63.1122 41.3424C63.0892 41.3259 63.0697 41.3049 63.055 41.2807C63.0403 41.2565 63.0305 41.2297 63.0263 41.2017C62.9672 41.0389 62.9104 40.8762 62.8537 40.7085L62.6861 40.2154H60.3536C60.2994 40.3781 60.2426 40.5409 60.1859 40.7085C60.1292 40.8762 60.0701 41.034 60.0158 41.2017C60.0049 41.2527 59.9766 41.2984 59.9356 41.3308C59.8946 41.3632 59.8437 41.3803 59.7914 41.3792H58.4945C58.4443 41.381 58.3952 41.3644 58.3565 41.3323C58.3383 41.3132 58.3267 41.2889 58.3232 41.2628C58.3196 41.2367 58.3244 41.2101 58.3367 41.1869L60.7185 34.4212ZM61.5174 36.48C61.4631 36.6452 61.4064 36.8203 61.3497 37.0101C61.293 37.2 61.2363 37.3898 61.1796 37.5821L61.0095 38.1542C60.9527 38.3415 60.896 38.5166 60.8418 38.6793H62.1905L61.5174 36.48Z" fill="#2B3990"/>
<path d="M65.423 34.4408C65.4213 34.3856 65.4407 34.3318 65.4773 34.2904C65.4946 34.2697 65.5166 34.2533 65.5414 34.2426C65.5662 34.2319 65.5933 34.2271 65.6203 34.2288H66.9221C66.9473 34.2288 66.9723 34.2338 66.9956 34.2435C67.0189 34.2532 67.04 34.2675 67.0577 34.2855C67.0788 34.3055 67.0955 34.3296 67.1069 34.3563C67.1184 34.383 67.1243 34.4118 67.1243 34.4408V39.6753H69.5406C69.566 39.6753 69.5912 39.6806 69.6146 39.6908C69.6379 39.701 69.6589 39.7159 69.6762 39.7345C69.6957 39.7557 69.7107 39.7806 69.7204 39.8077C69.7302 39.8348 69.7344 39.8636 69.7329 39.8923V41.1596C69.7329 41.213 69.7156 41.2649 69.6836 41.3076C69.6669 41.3297 69.6453 41.3477 69.6205 41.3601C69.5957 41.3725 69.5683 41.379 69.5406 41.3791H65.6178C65.4871 41.3791 65.423 41.31 65.423 41.1695V34.4408Z" fill="#2B3990"/>
<path d="M70.7733 34.4433C70.7733 34.39 70.7906 34.338 70.8226 34.2954C70.8402 34.2743 70.8626 34.2576 70.8879 34.2469C70.9132 34.2362 70.9407 34.2317 70.9681 34.2337H72.2601C72.3117 34.2374 72.3609 34.2572 72.4006 34.2904C72.4243 34.3082 72.4433 34.3313 72.4562 34.3579C72.4691 34.3845 72.4754 34.4138 72.4746 34.4433V41.1695C72.4784 41.1984 72.4754 41.2277 72.4659 41.2552C72.4564 41.2827 72.4406 41.3076 72.4198 41.3279C72.3989 41.3483 72.3737 41.3635 72.346 41.3724C72.3182 41.3812 72.2888 41.3835 72.2601 41.3791H70.9804C70.8498 41.3791 70.7857 41.31 70.7857 41.1695L70.7733 34.4433Z" fill="#2B3990"/>
<path d="M73.5324 34.4432C73.5312 34.4151 73.5358 34.3869 73.546 34.3606C73.5562 34.3343 73.5717 34.3104 73.5916 34.2904C73.6111 34.2713 73.6342 34.2565 73.6597 34.2467C73.6851 34.237 73.7123 34.2325 73.7395 34.2337H78.4661C78.5177 34.2332 78.5677 34.2517 78.6066 34.2854C78.6504 34.3265 78.6761 34.3832 78.6781 34.4432V35.6391C78.6771 35.6987 78.6573 35.7565 78.6214 35.8043C78.6045 35.8296 78.5813 35.8502 78.5541 35.8641C78.5269 35.8779 78.4966 35.8845 78.4661 35.8832H76.9498V41.1546C76.9506 41.2116 76.9304 41.2669 76.893 41.31C76.8757 41.3325 76.8532 41.3505 76.8275 41.3625C76.8017 41.3745 76.7735 41.3802 76.7451 41.379H75.4556C75.429 41.3785 75.4029 41.3725 75.3787 41.3615C75.3545 41.3505 75.3329 41.3346 75.3151 41.3149C75.2941 41.2939 75.2776 41.2689 75.2666 41.2413C75.2556 41.2138 75.2502 41.1843 75.2509 41.1546V35.8832H73.7395C73.7119 35.884 73.6844 35.8789 73.6589 35.8683C73.6334 35.8576 73.6105 35.8417 73.5916 35.8215C73.57 35.7966 73.5537 35.7676 73.5435 35.7363C73.5334 35.7049 73.5296 35.6719 73.5324 35.6391V34.4432Z" fill="#2B3990"/>
<path d="M82.1325 36.8694L83.1927 34.3866C83.2048 34.3573 83.2196 34.3292 83.2371 34.3027C83.2474 34.2886 83.259 34.2754 83.2716 34.2633C83.2836 34.2558 83.2971 34.2508 83.311 34.2485C83.3258 34.2503 83.3407 34.2503 83.3554 34.2485H85.0468C85.066 34.2481 85.0846 34.2552 85.0986 34.2682C85.1112 34.2825 85.1183 34.3009 85.1184 34.32C85.1119 34.366 85.0902 34.4086 85.0567 34.4408L82.9733 38.4795V41.1547C82.9733 41.3051 82.9067 41.3791 82.7711 41.3791H81.4569C81.4313 41.3802 81.4057 41.3755 81.3822 41.3652C81.3587 41.355 81.3379 41.3395 81.3213 41.3199C81.2864 41.2722 81.2698 41.2136 81.2744 41.1547V38.4425L79.1959 34.4137C79.1622 34.3822 79.142 34.3389 79.1392 34.2929C79.1384 34.2741 79.1445 34.2556 79.1565 34.2411C79.1625 34.2348 79.1698 34.2298 79.1779 34.2264C79.1859 34.223 79.1946 34.2213 79.2033 34.2214H80.8947H80.944C80.9565 34.2237 80.9683 34.2288 80.9786 34.2362C80.9927 34.2475 81.0052 34.2608 81.0156 34.2756C81.0156 34.2929 81.0427 34.32 81.0624 34.3595L82.1325 36.8694Z" fill="#2B3990"/>
<path d="M88.7058 34.4433C88.7085 34.3899 88.7284 34.3389 88.7625 34.2978C88.7775 34.2768 88.7975 34.2598 88.8208 34.2486C88.8441 34.2374 88.8699 34.2323 88.8957 34.2337H90.2123C90.2631 34.2365 90.3113 34.2575 90.3479 34.2929C90.3707 34.3113 90.3889 34.3346 90.4013 34.3611C90.4137 34.3876 90.4199 34.4165 90.4194 34.4458V36.7314H92.6039V34.4458C92.6022 34.3906 92.6216 34.3368 92.6582 34.2954C92.6755 34.2752 92.6971 34.2592 92.7215 34.2486C92.7458 34.2379 92.7722 34.2328 92.7987 34.2337H94.0833C94.1381 34.2319 94.1918 34.2484 94.2362 34.2806C94.2593 34.2989 94.2775 34.3227 94.2891 34.3498C94.3008 34.3769 94.3054 34.4065 94.3028 34.4359V41.1695C94.3047 41.1983 94.3006 41.2272 94.2909 41.2543C94.2811 41.2815 94.2658 41.3063 94.246 41.3273C94.2041 41.3628 94.1505 41.3812 94.0956 41.3791H92.7987C92.7469 41.381 92.6964 41.3624 92.6582 41.3273C92.6387 41.3062 92.6238 41.2813 92.6145 41.2541C92.6051 41.2269 92.6016 41.1981 92.6039 41.1695V38.4351H90.4194V41.1695C90.4211 41.1981 90.4167 41.2267 90.4065 41.2535C90.3963 41.2803 90.3805 41.3046 90.3602 41.3248C90.3158 41.3629 90.2584 41.3823 90.2 41.3791H88.908C88.8824 41.3827 88.8564 41.3804 88.8319 41.3723C88.8073 41.3642 88.785 41.3505 88.7667 41.3324C88.7483 41.3143 88.7343 41.2921 88.7259 41.2677C88.7175 41.2433 88.7148 41.2173 88.7181 41.1917L88.7058 34.4433Z" fill="#2B3990"/>
<path d="M95.4247 37.8138C95.4221 37.165 95.5796 36.5256 95.8833 35.9522C96.0284 35.6858 96.2047 35.4375 96.4084 35.2125C96.6075 34.99 96.8356 34.7951 97.0865 34.6331C97.3354 34.4731 97.605 34.3479 97.8878 34.2608C98.4709 34.0866 99.0923 34.0866 99.6754 34.2608C99.959 34.3479 100.229 34.4731 100.479 34.6331C100.731 34.7934 100.959 34.9866 101.16 35.2076C101.367 35.43 101.543 35.6787 101.685 35.9473C101.832 36.2274 101.946 36.5236 102.025 36.83C102.27 37.7845 102.148 38.796 101.685 39.6654C101.543 39.9339 101.366 40.1826 101.16 40.4051C100.959 40.6255 100.73 40.8186 100.479 40.9796C100.23 41.1406 99.9594 41.2659 99.6754 41.3519C99.0918 41.5228 98.4714 41.5228 97.8878 41.3519C97.6046 41.2659 97.3348 41.1406 97.0865 40.9796C96.8356 40.8186 96.6068 40.6255 96.406 40.4051C95.9871 39.9469 95.6904 39.3907 95.543 38.7877C95.4636 38.4692 95.4239 38.142 95.4247 37.8138ZM97.1235 37.8138C97.1227 38.0655 97.1644 38.3156 97.2467 38.5535C97.3235 38.7744 97.4405 38.9792 97.5919 39.1575C97.7372 39.3267 97.9149 39.4651 98.1146 39.5644C98.3244 39.6602 98.5522 39.7098 98.7828 39.7098C99.0134 39.7098 99.2413 39.6602 99.451 39.5644C99.6527 39.4672 99.8324 39.3295 99.9786 39.16C100.129 38.9816 100.245 38.7767 100.321 38.5559C100.483 38.076 100.483 37.5564 100.321 37.0765C100.245 36.8542 100.129 36.6478 99.9786 36.4675C99.8331 36.2965 99.6534 36.1579 99.451 36.0607C99.2422 35.9616 99.014 35.9102 98.7828 35.9102C98.5517 35.9102 98.3234 35.9616 98.1146 36.0607C97.9145 36.1594 97.7367 36.2978 97.5919 36.4675C97.4405 36.6477 97.3235 36.8541 97.2467 37.0765C97.1628 37.3117 97.1186 37.5592 97.1161 37.8088L97.1235 37.8138Z" fill="#2B3990"/>
<path d="M103.773 39.0713L103.966 39.2537C104.049 39.3337 104.138 39.4078 104.232 39.4757C104.369 39.5759 104.518 39.6587 104.676 39.7222C104.822 39.7836 104.978 39.8146 105.137 39.8134C105.264 39.8171 105.391 39.7987 105.511 39.7592C105.604 39.7299 105.689 39.6792 105.758 39.6113C105.816 39.5517 105.86 39.479 105.884 39.3992C105.908 39.3193 105.921 39.2362 105.921 39.1527C105.921 39.054 105.884 38.9588 105.817 38.8864C105.746 38.8042 105.663 38.7335 105.571 38.6768C105.471 38.6159 105.366 38.5631 105.258 38.519C105.149 38.4771 105.055 38.4401 104.976 38.413C104.658 38.2925 104.349 38.1466 104.054 37.9766C103.81 37.8371 103.588 37.6618 103.396 37.4563C103.225 37.2738 103.09 37.0604 102.999 36.8276C102.91 36.582 102.865 36.3222 102.868 36.0608C102.864 35.7808 102.921 35.5033 103.034 35.2471C103.141 35.0065 103.301 34.7932 103.502 34.6233C103.719 34.4414 103.971 34.3047 104.242 34.2214C104.552 34.1219 104.877 34.0736 105.203 34.0784C105.462 34.077 105.72 34.1102 105.97 34.177C106.225 34.2472 106.468 34.3535 106.693 34.4926C106.791 34.5567 106.887 34.6233 106.976 34.6924C107.062 34.7545 107.144 34.8211 107.223 34.8921C107.282 34.947 107.336 35.0081 107.383 35.0745C107.417 35.1179 107.437 35.1701 107.442 35.2249C107.443 35.2652 107.433 35.305 107.415 35.3408C107.39 35.3832 107.361 35.4228 107.329 35.4592L106.658 36.2457C106.64 36.2688 106.617 36.288 106.591 36.302C106.565 36.316 106.537 36.3245 106.508 36.3271C106.466 36.3275 106.426 36.3135 106.394 36.2876C106.363 36.263 106.326 36.2309 106.283 36.1915L106.244 36.1545C106.185 36.0978 106.121 36.0435 106.049 35.9843C105.976 35.9269 105.898 35.875 105.817 35.829C105.739 35.7822 105.657 35.7434 105.571 35.7131C105.482 35.6819 105.389 35.666 105.295 35.6663C105.203 35.6663 105.111 35.6754 105.021 35.6934C104.942 35.7097 104.867 35.738 104.796 35.7772C104.734 35.8151 104.682 35.8676 104.644 35.9301C104.604 35.9991 104.585 36.0776 104.587 36.1569C104.582 36.2435 104.603 36.3295 104.649 36.4035C104.695 36.4778 104.759 36.5403 104.833 36.5859C104.929 36.6508 105.032 36.7045 105.139 36.7462C105.26 36.7955 105.401 36.8498 105.561 36.9065C105.871 37.0199 106.157 37.1358 106.421 37.2615C106.667 37.3743 106.895 37.5212 107.099 37.6979C107.289 37.8657 107.441 38.0716 107.546 38.302C107.659 38.5718 107.714 38.8626 107.706 39.1551C107.71 39.4853 107.643 39.8125 107.509 40.1142C107.382 40.3964 107.197 40.6485 106.966 40.8539C106.728 41.0605 106.453 41.2195 106.155 41.3224C105.833 41.4355 105.495 41.4922 105.154 41.4901C104.815 41.4884 104.48 41.4205 104.168 41.2903C103.841 41.1583 103.534 40.9797 103.258 40.7602C103.152 40.6763 103.053 40.584 102.962 40.4841C102.881 40.3953 102.817 40.3214 102.772 40.2671L102.757 40.2523C102.704 40.1996 102.669 40.1315 102.656 40.0575C102.665 39.986 102.702 39.9207 102.757 39.8751L103.517 39.0812C103.558 39.0416 103.611 39.0164 103.667 39.0096C103.697 39.0103 103.726 39.0197 103.751 39.0368C103.759 39.0481 103.766 39.0596 103.773 39.0713Z" fill="#2B3990"/>
<path d="M108.626 34.4531C108.623 34.3956 108.64 34.3389 108.675 34.2929C108.692 34.2726 108.714 34.2566 108.739 34.2464C108.764 34.2361 108.791 34.2318 108.818 34.2337H111.626C111.821 34.2321 112.014 34.2629 112.198 34.3249C112.374 34.382 112.54 34.4651 112.691 34.5715C112.842 34.6814 112.978 34.8107 113.096 34.9561C113.336 35.2579 113.505 35.6103 113.589 35.9868C113.699 36.4603 113.672 36.9552 113.512 37.4143C113.423 37.6836 113.285 37.9342 113.106 38.154C112.932 38.3675 112.717 38.5443 112.474 38.6743C112.223 38.8092 111.941 38.8795 111.656 38.8789H110.327V41.1695C110.331 41.1973 110.329 41.2257 110.321 41.2526C110.312 41.2794 110.298 41.3039 110.278 41.324C110.258 41.3441 110.234 41.3594 110.208 41.3685C110.181 41.3777 110.152 41.3804 110.125 41.3766H108.818C108.766 41.3791 108.716 41.3614 108.677 41.3273C108.659 41.3057 108.644 41.2807 108.636 41.2536C108.627 41.2265 108.623 41.1979 108.626 41.1695V34.4531ZM111.934 36.5612C111.933 36.4633 111.917 36.3661 111.888 36.2728C111.857 36.1839 111.812 36.1007 111.754 36.0262C111.696 35.9506 111.623 35.8877 111.54 35.8413C111.454 35.7913 111.356 35.7657 111.256 35.7673H110.327V37.3749H111.256C111.356 37.377 111.455 37.3532 111.542 37.3059C111.625 37.2611 111.698 37.1999 111.757 37.1259C111.813 37.0513 111.858 36.968 111.888 36.8793C111.92 36.7765 111.936 36.6691 111.934 36.5612Z" fill="#2B3990"/>
<path d="M114.622 34.4433C114.621 34.3903 114.638 34.3384 114.669 34.2954C114.686 34.2744 114.709 34.2579 114.734 34.2472C114.759 34.2365 114.787 34.2319 114.814 34.2338H116.101C116.153 34.2358 116.203 34.2558 116.242 34.2905C116.265 34.3082 116.284 34.3313 116.297 34.3579C116.31 34.3845 116.317 34.4138 116.316 34.4433V41.1695C116.32 41.1984 116.317 41.2277 116.307 41.2552C116.297 41.2827 116.282 41.3076 116.261 41.328C116.24 41.3483 116.215 41.3635 116.187 41.3724C116.159 41.3813 116.13 41.3836 116.101 41.3791H114.819C114.691 41.3791 114.627 41.3101 114.627 41.1695L114.622 34.4433Z" fill="#2B3990"/>
<path d="M117.386 34.4432C117.385 34.4151 117.389 34.3869 117.399 34.3606C117.41 34.3343 117.425 34.3104 117.445 34.2904C117.464 34.2713 117.488 34.2565 117.513 34.2467C117.538 34.237 117.566 34.2325 117.593 34.2337H122.319C122.371 34.2335 122.421 34.2518 122.46 34.2854C122.481 34.3059 122.498 34.3304 122.51 34.3574C122.522 34.3845 122.528 34.4137 122.529 34.4432V35.6391C122.529 35.6985 122.51 35.7563 122.475 35.8043C122.458 35.8295 122.434 35.85 122.407 35.8638C122.38 35.8776 122.35 35.8842 122.319 35.8832H120.803V41.1546C120.803 41.2114 120.783 41.2663 120.746 41.31C120.729 41.3325 120.706 41.3505 120.679 41.3625C120.653 41.3745 120.625 41.3802 120.596 41.379H119.306C119.28 41.3785 119.254 41.3725 119.23 41.3615C119.205 41.3505 119.184 41.3346 119.166 41.3149C119.144 41.2943 119.128 41.2693 119.117 41.2417C119.106 41.214 119.101 41.1844 119.102 41.1546V35.8832H117.59C117.563 35.884 117.535 35.8789 117.51 35.8683C117.484 35.8576 117.461 35.8417 117.442 35.8215C117.421 35.7966 117.405 35.7676 117.394 35.7363C117.384 35.7049 117.38 35.6719 117.383 35.6391L117.386 34.4432Z" fill="#2B3990"/>
<path d="M124.6 34.4212C124.604 34.398 124.614 34.3761 124.627 34.3571C124.645 34.3347 124.665 34.3141 124.686 34.2954C124.709 34.2772 124.734 34.2615 124.76 34.2486C124.785 34.2391 124.811 34.2341 124.837 34.2338H125.964C125.987 34.2331 126.011 34.2371 126.033 34.2455C126.055 34.254 126.075 34.2668 126.092 34.2831C126.121 34.3105 126.147 34.3402 126.171 34.3719L126.279 34.6455L128.587 41.1646C128.599 41.1895 128.604 41.217 128.601 41.2443C128.598 41.2717 128.588 41.2978 128.572 41.32C128.551 41.3418 128.525 41.3584 128.497 41.3687C128.468 41.3789 128.437 41.3825 128.407 41.3791H127.145C127.09 41.3837 127.035 41.3698 126.989 41.3397C126.947 41.304 126.916 41.2557 126.903 41.2016C126.844 41.0372 126.787 40.8729 126.733 40.7085L126.565 40.2154H124.238L124.068 40.7085C124.011 40.8712 123.954 41.034 123.9 41.2016C123.889 41.2527 123.861 41.2984 123.82 41.3308C123.779 41.3632 123.728 41.3803 123.676 41.3791H122.379C122.328 41.381 122.279 41.3643 122.241 41.3323C122.222 41.3136 122.21 41.2892 122.206 41.2629C122.203 41.2366 122.208 41.2099 122.221 41.1868L124.6 34.4212ZM125.399 36.48C125.342 36.6452 125.286 36.8202 125.229 37.0101C125.172 37.1999 125.116 37.3898 125.061 37.5821L124.891 38.1541C124.834 38.3415 124.777 38.5166 124.721 38.6793H126.07L125.399 36.48Z" fill="#2B3990"/>
<path d="M129.305 34.4408C129.303 34.3861 129.322 34.3327 129.356 34.2904C129.374 34.2696 129.397 34.2532 129.422 34.2425C129.447 34.2319 129.475 34.2271 129.502 34.2288H130.801C130.853 34.2289 130.903 34.2492 130.939 34.2855C130.98 34.327 131.003 34.3827 131.004 34.4408V39.6753H133.42C133.446 39.6752 133.471 39.6803 133.495 39.6905C133.519 39.7007 133.54 39.7157 133.558 39.7345C133.577 39.7557 133.592 39.7806 133.602 39.8077C133.612 39.8348 133.616 39.8636 133.615 39.8923V41.1596C133.614 41.2133 133.596 41.2652 133.563 41.3076C133.546 41.3299 133.525 41.3479 133.5 41.3603C133.475 41.3728 133.448 41.3792 133.42 41.3791H129.497C129.369 41.3791 129.305 41.31 129.305 41.1695V34.4408Z" fill="#2B3990"/>
<path d="M0.570218 27.9951V23.1107H15.8489C16.5532 23.1107 17.0559 22.9877 17.3691 22.7531C17.6709 22.5184 17.8273 22.116 17.8273 21.5682C17.8273 21.0428 17.6709 20.6741 17.3691 20.4618C17.0562 20.2496 16.5532 20.149 15.8489 20.149H7.47742C4.91779 20.149 3.02896 19.6125 1.82198 18.5282C0.603661 17.4553 3.05176e-05 15.9128 3.05176e-05 13.9123C3.05176e-05 11.8891 0.603661 10.3917 1.82198 9.44144C3.02896 8.48017 4.91807 7.99953 7.47742 7.99953H24.0527V12.8056H9.01994C8.25987 12.8056 7.73446 12.9062 7.42159 13.0851C7.10872 13.2749 6.95228 13.6663 6.95228 14.2699C6.95228 14.8736 7.10872 15.276 7.42159 15.4769C7.73446 15.6668 8.25987 15.7674 9.01994 15.7674H18.0285C19.325 15.7674 20.4093 15.9128 21.2921 16.2033C22.1638 16.4937 22.8681 16.9075 23.4045 17.444C23.9523 17.9804 24.3321 18.651 24.567 19.4334C24.7906 20.2269 24.9023 21.121 24.9023 22.1157C24.9023 23.1218 24.7793 23.9822 24.5446 24.7199C24.2986 25.4575 23.8965 26.0722 23.3263 26.5529C22.7675 27.0446 21.9963 27.4022 21.0461 27.6371C20.0848 27.8831 18.9113 27.9948 17.5031 27.9948H0.570218V27.9951Z" fill="#2B3990"/>
<path d="M37.1523 27.9951C35.5653 27.9951 34.1344 27.8162 32.8492 27.4696C31.5751 27.112 30.4684 26.5531 29.5519 25.8044C28.6354 25.0557 27.9425 24.0944 27.4505 22.9319C26.9699 21.7584 26.7239 20.3723 26.7239 18.7629V7.99953H34.0783V18.7629C34.0783 20.026 34.3912 21.0318 34.9948 21.7808C35.5984 22.5295 36.7496 22.9095 38.4485 22.9095H44.0705C44.6405 22.9095 45.0766 22.9206 45.3781 22.943C45.691 22.9764 46.0152 23.0101 46.3281 23.066V7.99953H53.7272V27.9951H37.1523Z" fill="#2B3990"/>
<path d="M77.099 12.962C76.7748 13.0179 76.4619 13.0516 76.1491 13.0627C75.8362 13.0737 75.4003 13.085 74.8415 13.085H69.0517C67.8668 13.085 66.9169 13.2191 66.1905 13.4985C65.4529 13.7779 64.894 14.1466 64.4916 14.6049C64.0781 15.0631 63.8097 15.5886 63.6533 16.1585C63.5079 16.7397 63.441 17.3433 63.441 17.9804C63.441 18.6064 63.5082 19.2211 63.6533 19.8134C63.8097 20.4057 64.0781 20.9311 64.4916 21.3894C64.894 21.8476 65.4529 22.2163 66.1905 22.4958C66.9172 22.7641 67.8671 22.9092 69.0517 22.9092H73.5449C74.1931 22.9092 74.7409 22.8197 75.1767 22.6298C75.6239 22.451 75.9926 22.1939 76.2721 21.8811C76.5515 21.5682 76.7637 21.2106 76.8981 20.8192C77.0321 20.4168 77.0993 20.0143 77.0993 19.5898V12.962H77.099ZM68.0009 27.995C64.1447 27.995 61.2277 27.1457 59.227 25.4354C57.2375 23.7254 56.2428 21.2329 56.2428 17.9804C56.2428 14.7392 57.2375 12.2691 59.227 10.5589C61.2277 8.84885 64.1447 7.99923 68.0009 7.99923H77.099V0.500008H84.4645V19.0426C84.4645 20.3839 84.2409 21.6022 83.8163 22.7086C83.3805 23.815 82.721 24.7652 81.8269 25.5476C80.9438 26.3411 79.8261 26.9448 78.4961 27.3696C77.1662 27.7831 75.5902 27.9956 73.7906 27.9956H68.0009V27.995Z" fill="#2B3990"/>
<path d="M107.343 27.995V17.2317C107.343 16.5946 107.276 16.0358 107.142 15.5327C107.008 15.0297 106.773 14.5938 106.427 14.2251C106.091 13.8564 105.644 13.577 105.074 13.3758C104.515 13.1859 103.8 13.0853 102.939 13.0853H96.8258C96.2893 13.0853 95.8645 13.0743 95.5516 13.0629C95.2498 13.0519 94.9146 13.0182 94.568 12.9623V27.9953H87.247V0.500008H94.568V7.99978H104.225C105.79 7.99978 107.22 8.17861 108.517 8.54758C109.813 8.91629 110.909 9.47514 111.814 10.2242C112.708 10.9729 113.413 11.9231 113.916 13.0853C114.407 14.2478 114.664 15.6226 114.664 17.232V27.9953H107.343V27.995Z" fill="#2B3990"/>
<path d="M135.722 19.5901H125.249C124.556 19.5901 124.064 19.7466 123.796 20.0708C123.527 20.3836 123.393 20.8195 123.393 21.3673C123.393 21.9485 123.527 22.3844 123.796 22.6862C124.064 22.9991 124.556 23.1445 125.249 23.1445H135.722V19.5901ZM122.79 27.9951C121.65 27.9951 120.7 27.8386 119.917 27.5258C119.135 27.2129 118.498 26.7657 118.017 26.1844C117.525 25.6032 117.19 24.9327 116.989 24.1726C116.777 23.4126 116.676 22.5632 116.676 21.6467C116.676 20.7526 116.777 19.9478 116.989 19.2214C117.19 18.4948 117.525 17.8801 118.017 17.366C118.498 16.8519 119.135 16.4606 119.917 16.2035C120.7 15.9352 121.65 15.8124 122.79 15.8124H135.52C135.308 14.6276 134.883 13.8341 134.246 13.4206C133.609 13.0182 132.581 12.8059 131.15 12.8059H117.492V7.99953H131.798C133.743 7.99953 135.408 8.17835 136.794 8.52494C138.18 8.88259 139.331 9.4525 140.225 10.2463C141.131 11.0287 141.79 12.0682 142.215 13.3424C142.628 14.6165 142.841 16.1814 142.841 18.0144V27.9953H122.79V27.9951Z" fill="#2B3990"/>
</svg>
