<svg width="60" height="60" viewBox="0 0 60 60" fill="none" xmlns="http://www.w3.org/2000/svg">
<path d="M53.5676 9.0879H49.0102V6.45702C49.0102 5.20664 47.993 4.18945 46.7426 4.18945H45.5133C44.2629 4.18945 43.2457 5.20664 43.2457 6.45702V9.0879H28.336V6.45702C28.336 5.20664 27.3187 4.18945 26.0684 4.18945H24.839C23.5887 4.18945 22.5715 5.20664 22.5715 6.45702V9.0879H18.014C15.436 9.0879 13.3394 11.1856 13.3394 13.7625V33.5894H10.9523L4.99101 27.6281C4.85976 27.4969 4.68047 27.4219 4.49414 27.4219H2.46093C2.07305 27.4219 1.75781 27.7371 1.75781 28.125C1.75781 28.5129 2.07305 28.8281 2.46093 28.8281H4.20351L8.96484 33.5894H5.98828C5.60039 33.5894 5.28515 33.9047 5.28515 34.2926V38.3414C5.28515 41.7856 8.0871 44.5875 11.5313 44.5875H15.5027L11.1117 48.9785C10.5129 48.5707 9.78984 48.3328 9.0129 48.3328C6.95154 48.3328 5.27343 50.0098 5.27343 52.0723C5.27343 54.1336 6.9504 55.8117 9.0129 55.8117C10.834 55.8117 12.3551 54.5027 12.6844 52.7754H24.7687C25.0992 54.5015 26.6191 55.8117 28.4402 55.8117H53.5676C56.1457 55.8117 58.2422 53.714 58.2422 51.1371V13.7637C58.2422 11.1856 56.1445 9.0879 53.5676 9.0879ZM44.6496 6.45702C44.6496 5.98125 45.0363 5.5957 45.511 5.5957H46.7402C47.2148 5.5957 47.6015 5.98242 47.6015 6.45702V13.125C47.6015 13.6008 47.2148 13.9863 46.7402 13.9863H45.511C45.0352 13.9863 44.6496 13.5996 44.6496 13.125V6.45702ZM23.9777 6.45702C23.9777 5.98125 24.3644 5.5957 24.839 5.5957H26.0684C26.5441 5.5957 26.9297 5.98242 26.9297 6.45702V13.125C26.9297 13.6008 26.543 13.9863 26.0684 13.9863H24.839C24.3633 13.9863 23.9777 13.5996 23.9777 13.125V6.45702ZM18.0129 10.4941H22.5703V13.125C22.5703 14.3754 23.5875 15.3926 24.8379 15.3926H26.0672C27.3176 15.3926 28.3348 14.3754 28.3348 13.125V10.4941H43.2422V13.125C43.2422 14.3754 44.2594 15.3926 45.5098 15.3926H46.739C47.9894 15.3926 49.0066 14.3754 49.0066 13.125V10.4941H53.564C55.3664 10.4941 56.8324 11.9602 56.8324 13.7625V18.1043H14.7445V13.7625C14.7445 11.9613 16.2106 10.4941 18.0129 10.4941ZM31.6406 34.9957V38.3414C31.6406 41.0098 29.4691 43.1813 26.8008 43.1813H20.5441L12.3586 34.9957H31.6406ZM22.1015 31.357C22.2387 31.4941 22.4191 31.5633 22.5985 31.5633C22.7777 31.5633 22.9582 31.4941 23.0953 31.357L28.4414 26.011C30.2813 28.0394 31.4566 30.6809 31.6207 33.5883H19.8691V21.9691C22.7613 22.0992 25.3981 23.2312 27.4394 25.0242L22.1015 30.3633C21.8262 30.6375 21.8262 31.0828 22.1015 31.357ZM6.69138 38.3426V34.9969H10.3711L18.5566 43.1824H11.5301C8.8617 43.1813 6.69138 41.011 6.69138 38.3426ZM19.9629 44.5875L25.3477 49.9723C25.0664 50.386 24.866 50.8582 24.7687 51.368H12.6844C12.5871 50.8594 12.3867 50.386 12.1055 49.9723L17.4902 44.5875H19.9629ZM9.0117 54.4043C7.725 54.4043 6.67854 53.3578 6.67854 52.0711C6.67854 50.7844 7.725 49.7379 9.0117 49.7379C10.2985 49.7379 11.3449 50.7844 11.3449 52.0711C11.3449 53.3578 10.2985 54.4043 9.0117 54.4043ZM26.1082 52.0711C26.1082 50.7844 27.1547 49.7379 28.4414 49.7379C29.7281 49.7379 30.7746 50.7844 30.7746 52.0711C30.7746 53.3578 29.7281 54.4043 28.4414 54.4043C27.1547 54.4043 26.1082 53.3578 26.1082 52.0711ZM53.5676 54.4043H31.3594C31.8715 53.7644 32.1797 52.9535 32.1797 52.0711C32.1797 50.0098 30.5027 48.3316 28.4402 48.3316C27.6633 48.3316 26.9402 48.5707 26.3414 48.9773L21.9504 44.5863H26.8008C30.2449 44.5863 33.0469 41.7844 33.0469 38.3402V34.2914V34.2879C33.0469 26.7129 26.884 20.55 19.309 20.55H19.166C18.7781 20.55 18.4629 20.8652 18.4629 21.2531V33.5871H14.7445V19.5117H56.836V51.136C56.836 52.9383 55.3699 54.4043 53.5676 54.4043ZM37.5703 23.0156H34.0102C33.1066 23.0156 32.3707 23.7504 32.3707 24.6551V28.2152C32.3707 29.1187 33.1055 29.8547 34.0102 29.8547H37.5703C38.4738 29.8547 39.2098 29.1199 39.2098 28.2152V24.6551C39.2086 23.7504 38.4738 23.0156 37.5703 23.0156ZM37.8023 28.214C37.8023 28.3406 37.6957 28.4473 37.5691 28.4473H34.009C33.8824 28.4473 33.7758 28.3406 33.7758 28.214V24.6539C33.7758 24.5273 33.8824 24.4207 34.009 24.4207H37.5691C37.6957 24.4207 37.8023 24.5273 37.8023 24.6539V28.214ZM49.3981 23.0156H45.8379C44.9344 23.0156 44.1985 23.7504 44.1985 24.6551V28.2152C44.1985 29.1187 44.9332 29.8547 45.8379 29.8547H49.3981C50.3015 29.8547 51.0375 29.1199 51.0375 28.2152V24.6551C51.0375 23.7504 50.3015 23.0156 49.3981 23.0156ZM49.6313 28.214C49.6313 28.3406 49.5246 28.4473 49.3981 28.4473H45.8379C45.7113 28.4473 45.6047 28.3406 45.6047 28.214V24.6539C45.6047 24.5273 45.7113 24.4207 45.8379 24.4207H49.3981C49.5246 24.4207 49.6313 24.5273 49.6313 24.6539V28.214ZM39.2086 34.8059V38.366C39.2086 39.2695 38.4738 40.0055 37.5691 40.0055H34.2996C33.9117 40.0055 33.5965 39.6902 33.5965 39.3023C33.5965 38.9144 33.9117 38.5992 34.2996 38.5992H37.5691C37.6957 38.5992 37.8023 38.4926 37.8023 38.366V34.8059C37.8023 34.6793 37.6957 34.5727 37.5691 34.5727H34.3606C33.9727 34.5727 33.6574 34.2574 33.6574 33.8695C33.6574 33.4816 33.9727 33.1664 34.3606 33.1664H37.5691C38.4738 33.1664 39.2086 33.9023 39.2086 34.8059ZM49.3981 33.1664H45.8379C44.9344 33.1664 44.1985 33.9012 44.1985 34.8059V38.366C44.1985 39.2695 44.9332 40.0055 45.8379 40.0055H49.3981C50.3015 40.0055 51.0375 39.2707 51.0375 38.366V34.8059C51.0375 33.9023 50.3015 33.1664 49.3981 33.1664ZM49.6313 38.366C49.6313 38.4926 49.5246 38.5992 49.3981 38.5992H45.8379C45.7113 38.5992 45.6047 38.4926 45.6047 38.366V34.8059C45.6047 34.6793 45.7113 34.5727 45.8379 34.5727H49.3981C49.5246 34.5727 49.6313 34.6793 49.6313 34.8059V38.366ZM37.5703 43.3184H34.0102C33.1066 43.3184 32.3707 44.0531 32.3707 44.9578V48.518C32.3707 49.4215 33.1055 50.1574 34.0102 50.1574H37.5703C38.4738 50.1574 39.2098 49.4227 39.2098 48.518V44.9578C39.2086 44.0531 38.4738 43.3184 37.5703 43.3184ZM37.8023 48.5168C37.8023 48.6434 37.6957 48.75 37.5691 48.75H34.009C33.8824 48.75 33.7758 48.6434 33.7758 48.5168V44.9566C33.7758 44.8301 33.8824 44.7235 34.009 44.7235H37.5691C37.6957 44.7235 37.8023 44.8301 37.8023 44.9566V48.5168ZM49.3981 43.3184H45.8379C44.9344 43.3184 44.1985 44.0531 44.1985 44.9578V48.518C44.1985 49.4215 44.9332 50.1574 45.8379 50.1574H49.3981C50.3015 50.1574 51.0375 49.4227 51.0375 48.518V44.9578C51.0375 44.0531 50.3015 43.3184 49.3981 43.3184ZM49.6313 48.5168C49.6313 48.6434 49.5246 48.75 49.3981 48.75H45.8379C45.7113 48.75 45.6047 48.6434 45.6047 48.5168V44.9566C45.6047 44.8301 45.7113 44.7235 45.8379 44.7235H49.3981C49.5246 44.7235 49.6313 44.8301 49.6313 44.9566V48.5168Z" fill="#2B3990"/>
</svg>
