<svg width="47" height="50" viewBox="0 0 47 50" fill="none" xmlns="http://www.w3.org/2000/svg">
<g clip-path="url(#clip0_69_634)">
<path fill-rule="evenodd" clip-rule="evenodd" d="M43.5639 24.1289C43.0946 24.2081 42.7778 24.6529 42.857 25.1231C43.044 26.2285 43.1384 27.3406 43.1384 28.4309C43.1384 34.5121 40.4279 40.0011 36.0608 43.656C35.2981 38.7038 31.7821 34.732 27.1133 33.3106C28.9695 32.0724 30.1969 29.9626 30.1969 27.5681C30.1969 23.7615 27.1005 20.666 23.2947 20.666C19.489 20.666 16.3926 23.7615 16.3926 27.5681C16.3926 29.9626 17.62 32.0724 19.4762 33.3106C14.8074 34.732 11.2914 38.7038 10.5287 43.656C6.16159 40.0011 3.45112 34.5121 3.45112 28.4309C3.45112 27.3406 3.54548 26.2285 3.73253 25.1231C3.81173 24.6529 3.49493 24.2081 3.02563 24.1289C2.54538 24.048 2.11063 24.3665 2.03059 24.8366C1.82838 26.0347 1.72559 27.2446 1.72559 28.4309C1.72559 39.0267 9.29333 47.9695 19.7198 49.695C19.767 49.7035 19.815 49.7068 19.8614 49.7068C20.2759 49.7068 20.6416 49.4069 20.7115 48.9856C20.7899 48.5155 20.4714 48.0706 20.0012 47.9931C17.0939 47.5119 14.4342 46.4127 12.1309 44.8535C12.5471 38.9984 17.3591 34.4703 23.2947 34.4703C29.2304 34.4703 34.0424 38.9984 34.4586 44.8535C32.1553 46.4127 29.4956 47.5119 26.5883 47.9931C26.1181 48.0706 25.7996 48.5155 25.878 48.9856C25.9479 49.4069 26.3136 49.7068 26.7281 49.7068C26.7745 49.7068 26.8225 49.7035 26.8697 49.695C37.2962 47.9695 44.8639 39.0267 44.8639 28.4309C44.8639 27.2446 44.7611 26.0347 44.5589 24.8366C44.4789 24.3665 44.039 24.0463 43.5639 24.1289ZM18.1181 27.5681C18.1181 24.7136 20.4402 22.3915 23.2947 22.3915C26.1493 22.3915 28.4713 24.7136 28.4713 27.5681C28.4713 30.4227 26.1493 32.7447 23.2947 32.7447C20.4402 32.7447 18.1181 30.4227 18.1181 27.5681Z" fill="#2B3990"/>
<path fill-rule="evenodd" clip-rule="evenodd" d="M32.7434 6.82462C32.6414 6.51119 32.3718 6.2837 32.0466 6.23652L26.5338 5.4361L24.0685 0.439809C23.7787 -0.146603 22.8115 -0.146603 22.5216 0.439809L20.0563 5.4361L14.5436 6.23652C14.2183 6.2837 13.9487 6.51119 13.8468 6.82462C13.7457 7.13636 13.8299 7.48012 14.065 7.70929L18.0544 11.5968L17.1125 17.0868C17.0569 17.412 17.19 17.7389 17.4554 17.931C17.7225 18.1248 18.0738 18.1535 18.3645 17.9968L23.2951 15.4034L28.2257 17.9968C28.352 18.0642 28.4902 18.0962 28.6275 18.0962C28.8062 18.0962 28.9839 18.0406 29.1348 17.931C29.4002 17.7389 29.5333 17.412 29.4777 17.0868L28.5357 11.5968L32.5252 7.70929C32.7602 7.48012 32.8445 7.13636 32.7434 6.82462ZM27.0065 10.6767C26.8034 10.8756 26.7108 11.1604 26.7588 11.4418L27.4817 15.6562L23.697 13.6661C23.5706 13.6004 23.4333 13.5667 23.2951 13.5667C23.1569 13.5667 23.0196 13.6004 22.8932 13.6661L19.1085 15.6562L19.8314 11.4418C19.8794 11.1604 19.7867 10.8756 19.5837 10.6767L16.5219 7.69412L20.7531 7.07906C21.0345 7.03694 21.2772 6.86169 21.4027 6.60724L23.2951 2.77197L25.1874 6.60724C25.313 6.86169 25.5556 7.03694 25.837 7.07906L30.0683 7.69412L27.0065 10.6767Z" fill="#2B3990"/>
<path fill-rule="evenodd" clip-rule="evenodd" d="M2.64893 20.7066C2.59332 21.0318 2.72644 21.3587 2.99184 21.5508C3.25977 21.7446 3.61195 21.7715 3.90095 21.6165L7.76486 19.5843L11.6288 21.6165C11.7552 21.6839 11.8933 21.7159 12.0307 21.7159C12.2093 21.7159 12.3871 21.6603 12.5379 21.5508C12.8033 21.3587 12.9364 21.0318 12.8808 20.7066L12.1427 16.4045L15.2694 13.3579C15.5045 13.1287 15.5887 12.7849 15.4876 12.4732C15.3857 12.1598 15.1161 11.9323 14.7908 11.8851L10.4703 11.2583L8.53832 7.34215C8.24848 6.75574 7.28124 6.75574 6.9914 7.34215L5.05945 11.2583L0.738875 11.8851C0.413653 11.9323 0.144038 12.1598 0.0420902 12.4732C-0.0590153 12.7849 0.0252395 13.1287 0.260309 13.3579L3.38699 16.4045L2.64893 20.7066ZM2.71717 13.3427L5.75623 12.9012C6.03764 12.8591 6.2803 12.6838 6.40583 12.4294L7.76486 9.67431L9.12389 12.4294C9.24942 12.6838 9.49208 12.8591 9.77349 12.9012L12.8125 13.3427L10.6135 15.4845C10.4105 15.6833 10.3178 15.9681 10.3658 16.2495L10.8848 19.2759L8.16675 17.847C8.04037 17.7812 7.90304 17.7475 7.76486 17.7475C7.62668 17.7475 7.48935 17.7812 7.36297 17.847L4.64492 19.2759L5.16392 16.2495C5.21195 15.9681 5.11927 15.6833 4.91621 15.4845L2.71717 13.3427Z" fill="#2B3990"/>
<path fill-rule="evenodd" clip-rule="evenodd" d="M45.8504 11.8851L41.5298 11.2583L39.5979 7.34215C39.3081 6.75574 38.3408 6.75574 38.051 7.34215L36.119 11.2583L31.7984 11.8851C31.4732 11.9323 31.2036 12.1598 31.1017 12.4732C31.0006 12.7849 31.0848 13.1287 31.3199 13.3579L34.4466 16.4045L33.7085 20.7066C33.6529 21.0318 33.786 21.3587 34.0514 21.5508C34.3185 21.7446 34.6698 21.7715 34.9605 21.6165L38.8244 19.5843L42.6883 21.6165C42.8147 21.6839 42.9529 21.7159 43.0902 21.7159C43.2689 21.7159 43.4466 21.6603 43.5974 21.5508C43.8629 21.3587 43.996 21.0318 43.9404 20.7066L43.2023 16.4045L46.329 13.3579C46.564 13.1287 46.6483 12.7849 46.5472 12.4732C46.4453 12.1598 46.1756 11.9323 45.8504 11.8851ZM41.6731 15.4845C41.47 15.6833 41.3773 15.9681 41.4254 16.2495L41.9444 19.2759L39.2263 17.847C39.0999 17.7812 38.9626 17.7475 38.8244 17.7475C38.6863 17.7475 38.5489 17.7812 38.4225 17.847L35.7045 19.2759L36.2235 16.2495C36.2715 15.9681 36.1788 15.6833 35.9758 15.4845L33.7767 13.3427L36.8158 12.9012C37.0972 12.8591 37.3399 12.6838 37.4654 12.4294L38.8244 9.67431L40.1835 12.4294C40.309 12.6838 40.5516 12.8591 40.8331 12.9012L43.8721 13.3427L41.6731 15.4845Z" fill="#2B3990"/>
<path d="M23.2944 49.9999C23.7709 49.9999 24.1572 49.6137 24.1572 49.1372C24.1572 48.6607 23.7709 48.2744 23.2944 48.2744C22.8179 48.2744 22.4316 48.6607 22.4316 49.1372C22.4316 49.6137 22.8179 49.9999 23.2944 49.9999Z" fill="#2B3990"/>
</g>
<defs>
<clipPath id="clip0_69_634">
<rect width="47" height="50" fill="white"/>
</clipPath>
</defs>
</svg>
