<svg width="512" height="512" viewBox="0 0 512 512" fill="none" xmlns="http://www.w3.org/2000/svg">
<path fill-rule="evenodd" clip-rule="evenodd" d="M179 473.7C176.095 473.7 173.738 471.343 173.738 468.438L173.739 373.999C173.739 371.095 176.095 368.71 179 368.71C181.906 368.71 184.262 371.04 184.262 373.945L184.262 468.438C184.262 471.343 181.905 473.7 179 473.7Z" fill="#2B3990"/>
<path fill-rule="evenodd" clip-rule="evenodd" d="M83.9496 473.691C81.0441 473.691 78.6875 471.334 78.6875 468.429L78.6878 436.173C78.6878 433.259 81.0441 430.911 83.9493 430.911C86.8548 430.911 89.2111 433.259 89.2111 436.173L89.2114 468.429C89.2114 471.334 86.8543 473.691 83.9496 473.691Z" fill="#2B3990"/>
<path fill-rule="evenodd" clip-rule="evenodd" d="M316.714 473.709H41.3279C32.9961 473.709 26.2266 466.931 26.2266 458.608L26.2269 420.552C26.2269 396.408 41.4182 374.556 64.0367 366.18C64.1013 366.161 64.1645 366.134 64.2283 366.116L135.547 342.739V317.133C135.547 314.228 137.903 311.872 140.808 311.872C143.713 311.872 146.07 314.228 146.07 317.133L146.071 346.548C146.071 348.823 144.608 350.842 142.443 351.545L67.5998 376.082C49.1474 382.961 36.7502 400.82 36.7502 420.552L36.7505 458.608C36.7505 461.13 38.8053 463.185 41.3267 463.185H316.714C319.234 463.185 321.281 461.13 321.281 458.608V420.552C321.281 400.811 308.894 382.951 290.432 376.073L215.607 351.518C213.441 350.814 211.979 348.795 211.979 346.521L211.98 317.855C211.98 314.95 214.336 312.593 217.241 312.593C220.147 312.593 222.503 314.95 222.503 317.855L222.504 342.711L293.812 366.106C293.876 366.125 293.939 366.152 293.994 366.171C316.613 374.547 331.804 396.398 331.804 420.552V458.608C331.804 466.931 325.035 473.709 316.714 473.709Z" fill="#2B3990"/>
<path fill-rule="evenodd" clip-rule="evenodd" d="M274.087 473.691C271.182 473.691 268.824 471.334 268.824 468.429L268.825 436.173C268.825 433.259 271.181 430.911 274.086 430.911C276.991 430.911 279.348 433.259 279.348 436.173L279.349 468.429C279.349 471.334 276.991 473.691 274.087 473.691Z" fill="#2B3990"/>
<path fill-rule="evenodd" clip-rule="evenodd" d="M216.654 405.095C214.562 405.095 212.461 404.446 210.634 403.14L175.958 378.256C175.875 378.201 175.793 378.137 175.72 378.083L137.718 350.814C135.361 349.124 134.822 345.836 136.512 343.47C138.211 341.113 141.49 340.574 143.856 342.264L182.06 369.669C182.133 369.733 182.215 369.788 182.297 369.852L216.617 394.489L253.935 356.131C255.953 354.048 259.287 354.003 261.37 356.031C263.454 358.049 263.498 361.384 261.471 363.467L224.054 401.943C222.035 404.026 219.358 405.095 216.654 405.095Z" fill="#2B3990"/>
<path fill-rule="evenodd" clip-rule="evenodd" d="M141.391 405.095C138.687 405.095 136.01 404.017 133.991 401.935L96.5745 363.467C94.5457 361.384 94.5915 358.05 96.6741 356.031C98.7572 354.003 102.091 354.049 104.119 356.131L141.427 394.49L175.939 369.715C176.004 369.669 176.076 369.624 176.149 369.578L214.179 342.255C216.537 340.565 219.824 341.104 221.523 343.461C223.213 345.818 222.674 349.106 220.317 350.806L182.115 378.247C182.042 378.302 181.968 378.348 181.904 378.394L147.42 403.141C145.592 404.447 143.482 405.095 141.391 405.095Z" fill="#2B3990"/>
<path fill-rule="evenodd" clip-rule="evenodd" d="M217.24 337.155C214.335 337.155 211.978 334.808 211.978 331.893C211.978 328.988 214.334 326.641 217.239 326.641L250.218 326.631C259.215 326.631 266.532 319.871 266.532 311.568V191.652C266.532 188.335 266.231 185.403 265.61 182.662C260.741 160.885 241.137 157.633 240.936 157.596C239.821 157.431 238.789 156.902 237.994 156.098C198.448 116.15 157.678 127.304 136.887 137.499C126.199 142.742 116.47 149.977 108.742 158.409C97.6252 170.54 91.5041 186.207 91.5041 202.522V311.549C91.5041 319.853 98.8305 326.622 107.828 326.622H140.807C143.711 326.622 146.068 328.97 146.068 331.884C146.069 334.789 143.711 337.146 140.806 337.146H107.829C93.0212 337.146 80.9805 325.663 80.9805 311.55L80.9808 202.522C80.9808 183.567 88.0875 165.379 100.986 151.302C109.592 141.911 120.398 133.872 132.255 128.053C155.377 116.707 200.522 104.275 244.352 147.575C250.528 149.064 270.369 155.705 275.887 180.361C276.672 183.859 277.056 187.55 277.056 191.652V311.568C277.056 325.672 265.016 337.155 250.217 337.155H217.24Z" fill="#2B3990"/>
<path fill-rule="evenodd" clip-rule="evenodd" d="M116.8 262.103C118.434 296.204 147.163 325.007 179.547 325.007C211.923 325.007 240.634 296.241 242.296 262.157L242.297 220.127C225.936 219.634 215.567 208.389 210.707 201.464C172.359 228.093 131.789 224.21 115.885 221.242L116.8 262.103ZM179.547 335.531C160.739 335.531 142.715 327.739 128.802 313.579C115.173 299.721 107.179 281.588 106.284 262.532C106.276 262.487 106.275 262.441 106.275 262.395L105.216 214.737C105.179 213.066 105.946 211.467 107.271 210.444C108.604 209.42 110.34 209.101 111.948 209.567C112.46 209.713 164.073 224.074 209.017 189.68C210.269 188.721 211.885 188.373 213.42 188.739C214.956 189.104 216.252 190.128 216.937 191.552C217.349 192.366 227.251 211.823 246.919 209.402C248.418 209.211 249.915 209.677 251.048 210.682C252.181 211.677 252.82 213.111 252.82 214.619L252.82 262.286C252.82 262.368 252.82 262.45 252.82 262.532C251.916 281.597 243.922 299.73 230.302 313.588C216.389 327.739 198.366 335.531 179.547 335.531Z" fill="#2B3990"/>
<path fill-rule="evenodd" clip-rule="evenodd" d="M339.485 257.919C324.139 257.919 315.606 281.962 314.071 329.428C328.13 314.255 338.142 306.189 347.981 301.822C360.249 296.378 371.604 297.145 387.316 298.214C395.383 298.753 404.527 299.374 415.946 299.374C418.851 299.374 421.207 301.731 421.207 304.636L421.208 315.662L471.624 278.647L421.208 241.631V252.657C421.208 255.562 418.85 257.919 415.946 257.919H339.485ZM308.563 348.74C307.942 348.74 307.311 348.631 306.708 348.402C304.654 347.625 303.292 345.652 303.301 343.451C303.466 302.215 307.403 247.395 339.485 247.395H410.684V231.235C410.684 229.253 411.798 227.444 413.561 226.54C415.335 225.645 417.462 225.818 419.061 226.997L483.628 274.408C484.979 275.394 485.774 276.975 485.774 278.647C485.775 280.318 484.979 281.899 483.627 282.885L419.061 330.296C417.463 331.475 415.333 331.648 413.561 330.753C411.799 329.849 410.684 328.04 410.684 326.058L410.684 309.852C401.33 309.706 393.574 309.176 386.604 308.71C356.203 306.655 348.035 306.097 312.536 346.931C311.513 348.1 310.052 348.74 308.563 348.74Z" fill="#2B3990"/>
<path fill-rule="evenodd" clip-rule="evenodd" d="M365.294 48.8166C323.701 48.8166 289.856 82.662 289.856 124.254C289.857 165.846 323.701 199.692 365.293 199.692C406.895 199.692 440.731 165.846 440.731 124.254C440.732 82.662 406.895 48.8166 365.294 48.8166ZM365.294 210.215C317.901 210.215 279.332 171.656 279.332 124.254C279.333 76.8522 317.9 38.293 365.293 38.293C412.696 38.293 451.254 76.8522 451.254 124.254C451.255 171.656 412.695 210.215 365.294 210.215Z" fill="#2B3990"/>
<path fill-rule="evenodd" clip-rule="evenodd" d="M357.182 168.614H373.415V137.628C373.415 134.723 375.771 132.366 378.677 132.366L409.663 132.366V116.133H378.677C375.772 116.133 373.415 113.785 373.415 110.872V79.885H357.182V110.871C357.182 113.785 354.825 116.133 351.92 116.133L320.934 116.133V132.366H351.92C354.826 132.366 357.182 134.723 357.182 137.628L357.182 168.614ZM378.677 179.138H351.92C349.015 179.138 346.658 176.79 346.658 173.876L346.659 142.89H315.673C312.767 142.89 310.41 140.542 310.41 137.628L310.411 110.871C310.411 107.966 312.767 105.609 315.672 105.609H346.659V74.6232C346.659 71.7185 349.015 69.3613 351.92 69.3613H378.677C381.582 69.3613 383.938 71.7185 383.938 74.6232V105.609H414.925C417.83 105.609 420.186 107.966 420.186 110.872V137.628C420.186 140.542 417.829 142.89 414.925 142.89L383.938 142.89V173.876C383.938 176.79 381.581 179.138 378.677 179.138Z" fill="#2B3990"/>
</svg>
