<svg width="512" height="512" viewBox="0 0 512 512" fill="none" xmlns="http://www.w3.org/2000/svg">
<path fill-rule="evenodd" clip-rule="evenodd" d="M392.319 291.32C394.669 293.66 394.669 297.46 392.319 299.8L344.589 347.53C343.419 348.7 341.879 349.29 340.349 349.29C338.809 349.29 337.279 348.7 336.109 347.53L308.889 320.32C306.549 317.98 306.549 314.18 308.889 311.83C311.229 309.49 315.029 309.49 317.379 311.83L340.349 334.81L383.839 291.32C386.189 288.98 389.979 288.98 392.319 291.32ZM465.299 325.67C467.559 324.26 468.759 322.1 468.759 319.43C468.759 316.76 467.559 314.6 465.299 313.19L464.909 312.95C449.729 303.48 444.429 283.69 452.829 267.9L453.049 267.49C454.299 265.13 454.259 262.67 452.929 260.36C451.599 258.05 449.479 256.78 446.819 256.69L446.349 256.67C428.479 256.05 413.989 241.57 413.369 223.69L413.349 223.22C413.259 220.55 411.989 218.44 409.679 217.11C407.369 215.78 404.909 215.73 402.549 216.99L402.139 217.21C386.349 225.61 366.559 220.31 357.089 205.14L356.839 204.74C355.429 202.48 353.269 201.28 350.609 201.28C347.939 201.28 345.779 202.48 344.369 204.74L344.119 205.14C334.649 220.31 314.859 225.61 299.069 217.21L298.659 216.99C296.299 215.74 293.839 215.78 291.529 217.12C289.219 218.45 287.949 220.57 287.859 223.23L287.839 223.7C287.219 241.58 272.729 256.06 254.859 256.68L254.389 256.7C251.729 256.79 249.619 258.06 248.279 260.37C246.949 262.68 246.909 265.14 248.159 267.5L248.379 267.91C256.779 283.7 251.479 303.49 236.309 312.97L235.909 313.22C233.649 314.63 232.449 316.78 232.449 319.45C232.449 322.12 233.649 324.27 235.909 325.69L236.299 325.93C251.479 335.4 256.779 355.19 248.379 370.98L248.159 371.39C246.909 373.74 246.949 376.21 248.279 378.52C249.619 380.83 251.729 382.1 254.389 382.19L254.859 382.21C265.169 382.57 274.349 387.55 280.399 395.12C280.819 395.54 281.179 396.01 281.459 396.52C285.259 401.82 287.599 408.25 287.839 415.18L287.859 415.65C287.949 418.31 289.219 420.43 291.529 421.76C293.839 423.1 296.299 423.14 298.659 421.88L299.069 421.66C304.129 418.97 309.619 417.68 315.039 417.68C321.889 417.68 328.639 419.75 334.349 423.61C334.809 423.86 335.239 424.16 335.609 424.51C338.919 426.97 341.829 430.06 344.119 433.74L344.369 434.13C345.779 436.39 347.939 437.59 350.609 437.59C353.269 437.59 355.429 436.39 356.839 434.13L357.089 433.74C359.399 430.04 362.319 426.94 365.649 424.47C365.989 424.16 366.369 423.89 366.789 423.66C377.009 416.71 390.639 415.55 402.139 421.67L402.559 421.89C404.909 423.14 407.369 423.1 409.679 421.76C411.989 420.43 413.259 418.31 413.349 415.65L413.369 415.18C413.609 408.24 415.949 401.82 419.749 396.52C420.029 396.01 420.389 395.54 420.809 395.12C426.859 387.54 436.039 382.56 446.349 382.21L446.819 382.19C449.479 382.1 451.599 380.83 452.929 378.52C454.259 376.21 454.299 373.74 453.049 371.39L452.829 370.97C444.429 355.18 449.729 335.39 464.909 325.92L465.299 325.67ZM422.129 460.82C420.379 460.84 418.729 461.62 417.599 462.95L401.429 482.14L377.519 431.42C383.479 428.93 390.439 429.02 396.499 432.25L396.919 432.47C402.939 435.67 409.779 435.55 415.679 432.14C421.589 428.73 425.109 422.87 425.349 416.05L425.359 415.58C425.379 415.18 425.429 414.8 425.459 414.41L447.219 460.55L422.129 460.82ZM299.779 482.14L283.609 462.95C282.479 461.61 280.829 460.84 279.089 460.82L253.999 460.55L275.749 414.41C275.789 414.8 275.839 415.19 275.849 415.58L275.869 416.05C276.099 422.86 279.619 428.73 285.529 432.14C291.439 435.55 298.279 435.67 304.299 432.47L304.709 432.25C310.769 429.02 317.739 428.93 323.689 431.42L299.779 482.14ZM62.1186 393.39C51.6086 393.39 43.0586 384.84 43.0586 374.33V192.35H81.1786V374.33C81.1786 384.84 72.6286 393.39 62.1186 393.39ZM93.1786 29.1602V374.33C93.1786 381.51 90.7286 388.12 86.6186 393.39H249.069C244.389 392.03 240.449 388.93 237.889 384.51C234.479 378.6 234.359 371.76 237.569 365.74L237.779 365.33C243.239 355.08 239.799 342.24 229.949 336.09L229.559 335.84C223.769 332.22 220.449 326.24 220.449 319.43C220.449 312.61 223.769 306.63 229.549 303.02L229.949 302.77C239.799 296.62 243.239 283.78 237.779 273.53L237.569 273.12C234.359 267.1 234.479 260.26 237.889 254.35C241.299 248.44 247.169 244.92 253.979 244.69L254.439 244.67C266.049 244.27 275.449 234.87 275.849 223.27L275.869 222.8C276.099 215.99 279.619 210.12 285.529 206.71C291.429 203.3 298.269 203.18 304.299 206.38L304.709 206.6C314.949 212.05 327.799 208.61 333.949 198.76L334.189 198.36C336.689 194.35 340.339 191.53 344.609 190.18V29.1602H93.1786ZM471.659 303.02L471.259 302.77C461.419 296.62 457.969 283.78 463.429 273.53L463.649 273.12C466.849 267.1 466.729 260.26 463.319 254.35C459.909 248.45 454.049 244.92 447.229 244.69L446.769 244.67C435.169 244.27 425.759 234.87 425.359 223.27L425.349 222.8C425.109 215.99 421.589 210.12 415.679 206.71C409.779 203.3 402.939 203.18 396.909 206.39L396.509 206.61C386.259 212.06 373.409 208.62 367.269 198.78L367.019 198.38C364.519 194.37 360.869 191.55 356.609 190.2V23.1602C356.609 19.8502 353.919 17.1602 350.609 17.1602H87.1786C83.8686 17.1602 81.1786 19.8502 81.1786 23.1602V180.35H37.0586C33.7486 180.35 31.0586 183.03 31.0586 186.35V374.33C31.0586 391.46 44.9986 405.39 62.1186 405.39H266.739L239.149 463.89C238.279 465.74 238.409 467.9 239.499 469.63C240.579 471.36 242.469 472.42 244.519 472.44L276.209 472.77L296.629 497.01C297.769 498.37 299.459 499.14 301.209 499.14C301.469 499.14 301.729 499.13 301.989 499.09C304.019 498.82 305.769 497.55 306.639 495.7L333.309 439.15C333.519 439.46 333.749 439.75 333.949 440.07L334.189 440.46C337.799 446.25 343.789 449.56 350.609 449.56C357.419 449.56 363.409 446.24 367.019 440.46L367.269 440.06C367.469 439.74 367.689 439.45 367.899 439.14L394.569 495.69C395.439 497.54 397.189 498.81 399.219 499.08C399.479 499.12 399.739 499.13 399.999 499.13C401.749 499.13 403.439 498.36 404.579 497L425.009 472.76L456.689 472.43C458.739 472.41 460.629 471.35 461.719 469.62C462.799 467.89 462.929 465.72 462.059 463.88L432.139 400.43C435.959 396.73 441.099 394.37 446.769 394.17L447.229 394.15C454.049 393.91 459.909 390.39 463.319 384.49C466.729 378.59 466.849 371.75 463.649 365.73L463.429 365.31C457.979 355.06 461.419 342.22 471.259 336.07L471.659 335.82C477.439 332.21 480.759 326.22 480.759 319.41C480.759 312.61 477.449 306.63 471.659 303.02ZM350.609 389.03C388.979 389.03 420.199 357.81 420.199 319.43C420.199 281.05 388.979 249.83 350.609 249.83C312.229 249.83 281.009 281.05 281.009 319.43C281.009 357.8 312.239 389.03 350.609 389.03ZM350.609 237.83C305.609 237.83 269.009 274.43 269.009 319.43C269.009 364.42 305.609 401.02 350.609 401.02C395.599 401.02 432.199 364.42 432.199 319.43C432.199 274.43 395.609 237.83 350.609 237.83ZM129.189 322.37H166.039L148.489 339.84L141.339 332.74C138.989 330.4 135.189 330.42 132.849 332.77C130.519 335.12 130.529 338.92 132.879 341.25L144.259 352.56C145.429 353.72 146.959 354.3 148.489 354.3C150.019 354.3 151.559 353.72 152.729 352.55L168.169 337.17V361.34H129.189V322.37ZM123.189 373.35C119.869 373.35 117.189 370.66 117.189 367.35V316.37C117.189 313.05 119.869 310.37 123.189 310.37H174.169C175.289 310.37 176.339 310.68 177.229 311.22L186.219 302.27C188.559 299.93 192.359 299.94 194.699 302.29C197.039 304.64 197.029 308.44 194.679 310.77L180.169 325.22V367.34C180.169 370.65 177.479 373.34 174.169 373.34H123.189V373.35ZM129.189 246.98H166.039L148.489 264.45L141.339 257.35C138.989 255.01 135.189 255.03 132.849 257.38C130.519 259.73 130.529 263.53 132.879 265.87L144.259 277.18C145.429 278.34 146.959 278.92 148.489 278.92C150.019 278.92 151.559 278.34 152.729 277.17L168.169 261.8V285.97H129.189V246.98ZM123.189 297.96C119.869 297.96 117.189 295.27 117.189 291.96V240.98C117.189 237.66 119.869 234.98 123.189 234.98H174.169C175.289 234.98 176.339 235.29 177.229 235.83L186.219 226.89C188.559 224.55 192.359 224.56 194.699 226.91C197.039 229.26 197.029 233.06 194.679 235.4L180.169 249.85V291.96C180.169 295.28 177.479 297.96 174.169 297.96H123.189ZM218.899 87.0302C231.849 96.5802 246.149 102.35 261.549 104.24C257.429 119.31 249.049 132.82 236.599 144.5C232.019 148.8 227.379 152.7 222.459 156.82C221.279 157.81 220.099 158.81 218.899 159.82C217.709 158.82 216.529 157.82 215.339 156.82C210.429 152.7 205.789 148.8 201.209 144.5C188.759 132.83 180.379 119.31 176.249 104.24C191.649 102.35 205.959 96.5802 218.899 87.0302ZM192.989 153.24C176.869 138.13 166.769 120.2 162.949 99.9402C162.629 98.2302 163.059 96.4702 164.139 95.1002C165.229 93.7402 166.839 92.9102 168.579 92.8302C185.249 92.0902 200.589 86.2802 214.159 75.5402C214.479 75.2902 214.789 75.0402 215.109 74.7802C217.309 72.9902 220.469 72.9802 222.679 74.7802C222.989 75.0302 223.309 75.2902 223.629 75.5402C237.199 86.2802 252.539 92.1002 269.209 92.8302C270.949 92.9002 272.559 93.7302 273.639 95.1002C274.729 96.4602 275.159 98.2302 274.839 99.9402C271.019 120.2 260.919 138.13 244.799 153.24C239.979 157.76 234.989 161.95 230.169 166C228.039 167.79 225.889 169.6 223.729 171.45L222.819 172.23C221.689 173.2 220.289 173.69 218.889 173.69C217.499 173.69 216.099 173.2 214.969 172.23L214.069 171.45C211.899 169.59 209.749 167.79 207.619 165.99C202.799 161.95 197.809 157.77 192.989 153.24ZM218.899 55.8602C238.869 71.0902 265.069 79.8002 288.149 79.0802C287.029 102.79 279.179 125.69 264.769 147.25C255.589 160.98 240.429 173.48 225.769 185.57C223.469 187.46 221.169 189.36 218.889 191.26C216.609 189.36 214.319 187.46 212.019 185.57C197.359 173.49 182.199 160.99 173.019 147.26C158.609 125.7 150.759 102.79 149.639 79.0902C172.739 79.8102 198.919 71.0802 218.899 55.8602ZM204.399 194.83C189.069 182.19 173.219 169.13 163.049 153.92C145.989 128.39 137.399 101.02 137.509 72.5902C137.519 70.8802 138.259 69.2502 139.539 68.1202C140.819 66.9902 142.519 66.4502 144.219 66.6602C166.379 69.2802 194.379 60.3902 213.889 44.5402C214.279 44.2302 214.659 43.9102 215.039 43.5902C217.279 41.7102 220.539 41.7102 222.769 43.5902C223.149 43.9102 223.529 44.2202 223.919 44.5402C243.429 60.3902 271.419 69.2802 293.589 66.6602C295.289 66.4602 296.989 66.9902 298.269 68.1202C299.549 69.2602 300.289 70.8802 300.299 72.5902C300.409 101.02 291.819 128.39 274.749 153.92C264.589 169.12 248.739 182.19 233.409 194.83C230.969 196.85 228.519 198.86 226.099 200.89C224.989 201.82 223.879 202.75 222.789 203.67C221.669 204.62 220.279 205.1 218.899 205.1C217.519 205.1 216.139 204.63 215.019 203.67C213.929 202.74 212.819 201.81 211.709 200.89C209.279 198.86 206.829 196.85 204.399 194.83Z" fill="#2B3990"/>
</svg>
