<svg width="60" height="60" viewBox="0 0 60 60" fill="none" xmlns="http://www.w3.org/2000/svg">
<path d="M35.1563 48.5156C34.6388 48.5156 34.2188 48.0956 34.2188 47.5781V35.5593C34.2188 35.0418 34.6388 34.6218 35.1563 34.6218C35.6737 34.6218 36.0938 35.0418 36.0938 35.5593V47.5781C36.0938 48.0956 35.6737 48.5156 35.1563 48.5156Z" fill="#2B3990"/>
<path d="M48.75 41.8715C48.2325 41.8715 47.8125 41.4515 47.8125 40.934V35.5593C47.8125 35.0418 48.2325 34.6218 48.75 34.6218C49.2675 34.6218 49.6875 35.0418 49.6875 35.5593V40.934C49.6875 41.4515 49.2675 41.8715 48.75 41.8715Z" fill="#2B3990"/>
<path d="M48.75 36.4968C48.2325 36.4968 47.8125 36.0768 47.8125 35.5593C47.8125 32.3831 45.1294 29.7 41.9532 29.7C38.7769 29.7 36.0937 32.3831 36.0937 35.5593C36.0937 36.0768 35.6737 36.4968 35.1563 36.4968C34.6388 36.4968 34.2188 36.0768 34.2188 35.5593C34.2188 31.3668 37.7607 27.825 41.9532 27.825C46.1457 27.825 49.6875 31.3668 49.6875 35.5593C49.6875 36.0768 49.2675 36.4968 48.75 36.4968Z" fill="#2B3990"/>
<path d="M10.3125 10.3125H9.375C8.8575 10.3125 8.4375 9.8925 8.4375 9.375C8.4375 8.8575 8.8575 8.4375 9.375 8.4375H10.3125C10.83 8.4375 11.25 8.8575 11.25 9.375C11.25 9.8925 10.83 10.3125 10.3125 10.3125Z" fill="#2B3990"/>
<path d="M33.75 10.3125H32.8125C32.295 10.3125 31.875 9.8925 31.875 9.375C31.875 8.8575 32.295 8.4375 32.8125 8.4375H33.75C34.2675 8.4375 34.6875 8.8575 34.6875 9.375C34.6875 9.8925 34.2675 10.3125 33.75 10.3125Z" fill="#2B3990"/>
<path d="M12.1875 6.5625H10.3125C9.795 6.5625 9.375 6.1425 9.375 5.625C9.375 5.1075 9.795 4.6875 10.3125 4.6875H12.1875C12.705 4.6875 13.125 5.1075 13.125 5.625C13.125 6.1425 12.705 6.5625 12.1875 6.5625Z" fill="#2B3990"/>
<path d="M12.1875 14.0625H10.3125C9.795 14.0625 9.375 13.6425 9.375 13.125C9.375 12.6075 9.795 12.1875 10.3125 12.1875H12.1875C12.705 12.1875 13.125 12.6075 13.125 13.125C13.125 13.6425 12.705 14.0625 12.1875 14.0625Z" fill="#2B3990"/>
<path d="M32.8125 14.0625H30.9375C30.42 14.0625 30 13.6425 30 13.125C30 12.6075 30.42 12.1875 30.9375 12.1875H32.8125C33.33 12.1875 33.75 12.6075 33.75 13.125C33.75 13.6425 33.33 14.0625 32.8125 14.0625Z" fill="#2B3990"/>
<path d="M32.8125 6.5625H30.9375C30.42 6.5625 30 6.1425 30 5.625C30 5.1075 30.42 4.6875 30.9375 4.6875H32.8125C33.33 4.6875 33.75 5.1075 33.75 5.625C33.75 6.1425 33.33 6.5625 32.8125 6.5625Z" fill="#2B3990"/>
<path d="M5.625 18.0956C5.1075 18.0956 4.6875 17.6756 4.6875 17.1581V13.125C4.6875 12.6075 5.1075 12.1875 5.625 12.1875C6.1425 12.1875 6.5625 12.6075 6.5625 13.125V17.1581C6.5625 17.6756 6.1425 18.0956 5.625 18.0956Z" fill="#2B3990"/>
<path d="M5.625 14.0625C5.1075 14.0625 4.6875 13.6425 4.6875 13.125C4.6875 10.5403 6.79032 8.4375 9.375 8.4375C9.8925 8.4375 10.3125 8.8575 10.3125 9.375C10.3125 9.8925 9.8925 10.3125 9.375 10.3125C7.82436 10.3125 6.5625 11.5744 6.5625 13.125C6.5625 13.6425 6.1425 14.0625 5.625 14.0625Z" fill="#2B3990"/>
<path d="M13.125 13.125C12.6075 13.125 12.1875 12.705 12.1875 12.1875V6.5625C12.1875 6.045 12.6075 5.625 13.125 5.625C13.6425 5.625 14.0625 6.045 14.0625 6.5625V12.1875C14.0625 12.705 13.6425 13.125 13.125 13.125Z" fill="#2B3990"/>
<path d="M12.1875 14.0625C11.67 14.0625 11.25 13.6425 11.25 13.125C11.25 12.6075 11.67 12.1875 12.1875 12.1875H12.1885C12.1885 11.67 12.6075 11.25 13.125 11.25C13.6425 11.25 14.0625 11.67 14.0625 12.1875C14.0625 13.2215 13.2215 14.0625 12.1875 14.0625Z" fill="#2B3990"/>
<path d="M13.125 7.5C12.6075 7.5 12.1875 7.08 12.1875 6.5625C11.67 6.5625 11.25 6.1425 11.25 5.625C11.25 5.1075 11.67 4.6875 12.1875 4.6875C13.2215 4.6875 14.0625 5.52844 14.0625 6.5625C14.0625 7.08 13.6425 7.5 13.125 7.5Z" fill="#2B3990"/>
<path d="M37.5 18.0956C36.9825 18.0956 36.5625 17.6756 36.5625 17.1581V13.125C36.5625 12.6075 36.9825 12.1875 37.5 12.1875C38.0175 12.1875 38.4375 12.6075 38.4375 13.125V17.1581C38.4375 17.6756 38.0175 18.0956 37.5 18.0956Z" fill="#2B3990"/>
<path d="M37.5 14.0625C36.9825 14.0625 36.5625 13.6425 36.5625 13.125C36.5625 11.5744 35.3006 10.3125 33.75 10.3125C33.2325 10.3125 32.8125 9.8925 32.8125 9.375C32.8125 8.8575 33.2325 8.4375 33.75 8.4375C36.3347 8.4375 38.4375 10.5403 38.4375 13.125C38.4375 13.6425 38.0175 14.0625 37.5 14.0625Z" fill="#2B3990"/>
<path d="M30 13.125C29.4825 13.125 29.0625 12.705 29.0625 12.1875V6.5625C29.0625 6.045 29.4825 5.625 30 5.625C30.5175 5.625 30.9375 6.045 30.9375 6.5625V12.1875C30.9375 12.705 30.5175 13.125 30 13.125Z" fill="#2B3990"/>
<path d="M30.9375 14.0625C29.9035 14.0625 29.0625 13.2215 29.0625 12.1875C29.0625 11.67 29.4825 11.25 30 11.25C30.5175 11.25 30.9375 11.67 30.9375 12.1875V12.1885C31.455 12.1885 31.875 12.6075 31.875 13.125C31.875 13.6425 31.455 14.0625 30.9375 14.0625Z" fill="#2B3990"/>
<path d="M30 7.5C29.4825 7.5 29.0625 7.08 29.0625 6.5625C29.0625 5.52844 29.9035 4.6875 30.9375 4.6875C31.455 4.6875 31.875 5.1075 31.875 5.625C31.875 6.1425 31.455 6.5625 30.9375 6.5625C30.9375 7.08 30.5175 7.5 30 7.5Z" fill="#2B3990"/>
<path d="M21.5625 48.5157C21.045 48.5157 20.625 48.0956 20.625 47.5782V36.0601C20.625 35.5426 21.045 35.1226 21.5625 35.1226C22.08 35.1226 22.5 35.5426 22.5 36.0601V47.5782C22.5 48.0956 22.08 48.5157 21.5625 48.5157Z" fill="#2B3990"/>
<path d="M20.0257 34.0453C19.84 34.0453 19.6525 33.99 19.4884 33.8756L9.8781 27.1368C9.45438 26.8396 9.35124 26.2546 9.64842 25.8309C9.94656 25.4071 10.5307 25.304 10.9544 25.6012L20.5647 32.34C20.9884 32.6371 21.0916 33.2221 20.7944 33.6459C20.6116 33.9065 20.3209 34.0453 20.0257 34.0453Z" fill="#2B3990"/>
<path d="M23.099 34.0453C22.8037 34.0453 22.513 33.9065 22.3302 33.6459C22.033 33.2221 22.1352 32.6371 22.5599 32.34L32.1702 25.6012C32.5949 25.304 33.179 25.4071 33.4762 25.8309C33.7733 26.2546 33.6712 26.8396 33.2465 27.1368L23.6362 33.8756C23.4721 33.9909 23.2846 34.0453 23.099 34.0453Z" fill="#2B3990"/>
<path d="M21.5625 36.9355C20.1647 36.9355 18.75 35.9905 18.75 34.1839C18.75 30.5709 24.375 30.5709 24.375 34.1839C24.375 35.9905 22.9603 36.9355 21.5625 36.9355ZM21.5625 33.3084C21.406 33.3084 20.625 33.3505 20.625 34.1849C20.625 35.0184 21.406 35.0614 21.5625 35.0614C21.719 35.0614 22.5 35.0193 22.5 34.1849C22.5 33.3505 21.719 33.3084 21.5625 33.3084Z" fill="#2B3990"/>
<path d="M48.75 49.3105C47.3522 49.3105 45.9375 48.3655 45.9375 46.5589C45.9375 42.9459 51.5625 42.9459 51.5625 46.5589C51.5625 48.3646 50.1478 49.3105 48.75 49.3105ZM48.75 45.6834C48.5935 45.6834 47.8125 45.7255 47.8125 46.5599C47.8125 47.3934 48.5935 47.4364 48.75 47.4364C48.9065 47.4364 49.6875 47.3943 49.6875 46.5599C49.6875 45.7246 48.9065 45.6834 48.75 45.6834Z" fill="#2B3990"/>
<path d="M28.3594 55.3125C24.1669 55.3125 20.625 51.7706 20.625 47.5781C20.625 47.0606 21.045 46.6406 21.5625 46.6406C22.08 46.6406 22.5 47.0606 22.5 47.5781C22.5 50.7543 25.1831 53.4375 28.3594 53.4375C31.5356 53.4375 34.2187 50.7543 34.2187 47.5781C34.2187 47.0606 34.6388 46.6406 35.1563 46.6406C35.6737 46.6406 36.0937 47.0606 36.0937 47.5781C36.0937 51.7706 32.5519 55.3125 28.3594 55.3125Z" fill="#2B3990"/>
<path d="M48.75 53.1216C45.1931 53.1216 42.1875 50.116 42.1875 46.5591C42.1875 43.0022 45.1931 39.9966 48.75 39.9966C52.3069 39.9966 55.3125 43.0022 55.3125 46.5591C55.3125 50.116 52.3069 53.1216 48.75 53.1216ZM48.75 41.8716C46.2094 41.8716 44.0625 44.0185 44.0625 46.5591C44.0625 49.0997 46.2094 51.2466 48.75 51.2466C51.2906 51.2466 53.4375 49.0997 53.4375 46.5591C53.4375 44.0185 51.2906 41.8716 48.75 41.8716Z" fill="#2B3990"/>
<path d="M10.4156 27.3066C10.23 27.3066 10.0425 27.2513 9.87846 27.1369C6.62814 24.8579 4.6875 21.1276 4.6875 17.1582C4.6875 16.6407 5.1075 16.2207 5.625 16.2207C6.1425 16.2207 6.5625 16.6407 6.5625 17.1582C6.5625 20.5172 8.20404 23.6738 10.9547 25.6013C11.3785 25.8985 11.4815 26.4835 11.1844 26.9072C11.0015 27.1679 10.711 27.3066 10.4156 27.3066Z" fill="#2B3990"/>
<path d="M32.7095 27.3066C32.4142 27.3066 32.1236 27.1679 31.9408 26.9072C31.6436 26.4835 31.7458 25.8985 32.1705 25.6013C34.9211 23.6729 36.5627 20.5172 36.5627 17.1582C36.5627 16.6407 36.9827 16.2207 37.5002 16.2207C38.0177 16.2207 38.4377 16.6407 38.4377 17.1582C38.4377 21.1276 36.497 24.8579 33.2468 27.1369C33.0836 27.2513 32.8952 27.3066 32.7095 27.3066Z" fill="#2B3990"/>
</svg>
