<svg width="24" height="24" viewBox="0 0 24 24" fill="none" xmlns="http://www.w3.org/2000/svg">
<circle cx="12" cy="12" r="11.5" stroke="#FE090A"/>
<g clip-path="url(#clip0_820_2028)">
<path fill-rule="evenodd" clip-rule="evenodd" d="M13.4126 17.7207C13.4126 17.2368 13.0203 16.8446 12.5364 16.8446H11.4636C11.2312 16.8446 11.0084 16.9369 10.844 17.1012C10.6797 17.2655 10.5874 17.4883 10.5874 17.7207C10.5874 18.2046 10.9797 18.5969 11.4636 18.5969H12.5364C13.0203 18.5969 13.4126 18.2046 13.4126 17.7207ZM6.8419 15.4615C6.98825 15.4727 7.1653 15.4791 7.34314 15.4687C7.43789 15.9492 7.67326 16.3948 8.0246 16.7462C8.49103 17.2126 9.12363 17.4746 9.78324 17.4746H10.1175C10.1028 17.5553 10.0952 17.6376 10.0952 17.7207C10.0952 17.8047 10.1028 17.887 10.1173 17.9668H9.78324C8.99309 17.9668 8.23529 17.6529 7.67657 17.0942C7.23084 16.6484 6.94091 16.076 6.8419 15.4615ZM6.59154 14.9378C6.20296 14.8722 5.84137 14.6875 5.5591 14.4052C5.20111 14.0472 5 13.5617 5 13.0554V11.8921C5 11.3859 5.20111 10.9003 5.5591 10.5423C5.91708 10.1844 6.40262 9.98321 6.90889 9.98321H7.03596C7.23907 7.41957 9.38397 5.40234 12 5.40234C14.616 5.40234 16.7609 7.41957 16.964 9.98321H17.0911C17.5974 9.98321 18.0829 10.1844 18.4409 10.5423C18.7989 10.9003 19 11.3859 19 11.8921V13.0554C19 13.5617 18.7989 14.0472 18.4409 14.4052C18.0829 14.7632 17.5974 14.9643 17.0911 14.9643H16.5278C16.2942 14.9643 16.1048 14.7749 16.1048 14.5413V10.3821C16.1048 8.11512 14.267 6.27734 12 6.27734C9.73298 6.27734 7.89521 8.11512 7.89521 10.3821V14.5413C7.89521 14.7063 7.80079 14.8492 7.66304 14.919C7.28383 15.0505 6.69575 14.9553 6.59154 14.9378Z" fill="#FF0000"/>
</g>
<defs>
<clipPath id="clip0_820_2028">
<rect width="14" height="14" fill="white" transform="translate(5 5)"/>
</clipPath>
</defs>
</svg>
