<svg width="143" height="42" viewBox="0 0 143 42" fill="none" xmlns="http://www.w3.org/2000/svg">
<path d="M135.771 39.0614C135.82 39.1083 135.884 39.1674 135.961 39.2439C136.045 39.3226 136.134 39.3967 136.227 39.4658C136.365 39.565 136.514 39.6477 136.671 39.7123C136.817 39.7724 136.974 39.8026 137.132 39.8011C137.26 39.8049 137.387 39.7866 137.509 39.7468C137.602 39.7176 137.686 39.6669 137.756 39.5989C137.813 39.5386 137.855 39.4661 137.879 39.3869C137.905 39.3073 137.919 39.2241 137.918 39.1403C137.919 39.0416 137.882 38.9465 137.815 38.874C137.744 38.7915 137.661 38.7207 137.568 38.6644C137.469 38.6031 137.366 38.5503 137.258 38.5066C137.149 38.4647 137.055 38.4277 136.977 38.4006C136.658 38.2812 136.349 38.1352 136.054 37.9642C135.81 37.8242 135.587 37.6489 135.394 37.444C135.224 37.2612 135.09 37.0479 134.999 36.8152C134.908 36.5701 134.863 36.3101 134.866 36.0484C134.863 35.7686 134.919 35.4912 135.031 35.2348C135.136 34.9999 135.292 34.7911 135.487 34.6233C135.705 34.4416 135.956 34.305 136.227 34.2214C136.539 34.1221 136.864 34.0738 137.191 34.0784C137.45 34.0771 137.708 34.1103 137.958 34.177C138.212 34.2476 138.456 34.3539 138.68 34.4926C138.779 34.5567 138.873 34.6233 138.964 34.6923C139.05 34.7544 139.132 34.8211 139.21 34.892C139.27 34.9476 139.323 35.0087 139.371 35.0745C139.404 35.1179 139.425 35.1701 139.43 35.2249C139.43 35.2654 139.42 35.3052 139.4 35.3408C139.377 35.3832 139.349 35.4228 139.316 35.4591L138.643 36.2457C138.626 36.2692 138.603 36.2886 138.577 36.3026C138.551 36.3166 138.522 36.325 138.493 36.327C138.453 36.3271 138.413 36.3132 138.382 36.2876C138.342 36.2586 138.305 36.2265 138.271 36.1914L138.232 36.1544C138.172 36.0977 138.106 36.0435 138.034 35.9843C137.962 35.9269 137.885 35.875 137.805 35.829C137.727 35.783 137.644 35.7442 137.558 35.7131C137.469 35.6818 137.375 35.6659 137.28 35.6663C137.189 35.6661 137.098 35.6752 137.009 35.6934C136.93 35.7089 136.854 35.7373 136.784 35.7772C136.721 35.8144 136.669 35.867 136.631 35.9301C136.59 35.9984 136.57 36.0772 136.572 36.1569C136.569 36.2433 136.59 36.3289 136.634 36.4035C136.682 36.4766 136.745 36.5388 136.819 36.5859C136.915 36.6498 137.017 36.7035 137.125 36.7462C137.245 36.7955 137.388 36.8497 137.549 36.9065C137.859 37.0199 138.145 37.1358 138.407 37.2615C138.653 37.3743 138.882 37.5212 139.087 37.6979C139.276 37.8663 139.428 38.072 139.533 38.302C139.647 38.5717 139.702 38.8626 139.694 39.1551C139.698 39.4856 139.63 39.8131 139.494 40.1142C139.369 40.3974 139.184 40.6498 138.952 40.8539C138.714 41.0599 138.44 41.2189 138.143 41.3224C137.821 41.4358 137.481 41.4925 137.139 41.49C136.801 41.4884 136.466 41.4206 136.153 41.2903C135.826 41.1583 135.519 40.9797 135.243 40.7602C135.136 40.6776 135.037 40.5851 134.947 40.4841C134.866 40.3953 134.802 40.3213 134.755 40.2671L134.743 40.2523C134.689 40.1996 134.654 40.1314 134.642 40.0575C134.625 40.0159 134.619 39.9709 134.623 39.9263C134.627 39.8817 134.642 39.8388 134.666 39.8011L135.428 39.0072C135.469 38.9682 135.52 38.9431 135.576 38.9357C135.606 38.9358 135.635 38.9453 135.66 38.9628C135.699 38.9931 135.736 39.0261 135.771 39.0614Z" fill="white"/>
<path d="M3.46689 34.4433C3.47039 34.3885 3.49208 34.3365 3.52853 34.2954C3.54675 34.2744 3.5696 34.2579 3.59527 34.2472C3.62093 34.2365 3.64873 34.2319 3.67647 34.2338H5.19776C5.24909 34.2328 5.29896 34.2509 5.33768 34.2846C5.37641 34.3183 5.40123 34.3652 5.40733 34.4162L6.60315 38.7853L7.80638 34.4162C7.8167 34.3645 7.84476 34.3179 7.88571 34.2846C7.92667 34.2513 7.97796 34.2333 8.03075 34.2338H9.53231C9.55886 34.2338 9.58516 34.239 9.6097 34.2491C9.63423 34.2593 9.65653 34.2742 9.67531 34.2929C9.71786 34.3321 9.74425 34.3857 9.74928 34.4433C9.84955 35.5759 9.95393 36.6969 10.0624 37.8064C10.1709 38.916 10.2761 40.037 10.378 41.1695V41.1917C10.378 41.3175 10.3114 41.3791 10.1832 41.3791H8.95043C8.92205 41.3822 8.89334 41.3789 8.86639 41.3695C8.83944 41.3601 8.81493 41.3448 8.79462 41.3247C8.77432 41.3046 8.75875 41.2803 8.74902 41.2535C8.73929 41.2266 8.73565 41.198 8.73838 41.1695L8.35374 37.4489L7.3675 41.1917C7.35638 41.2347 7.33526 41.2744 7.30586 41.3076C7.29375 41.3262 7.2778 41.342 7.25909 41.3539C7.24038 41.3658 7.21933 41.3736 7.19737 41.3767H6.04099C6.01889 41.3739 5.99761 41.3665 5.9785 41.3551C5.9594 41.3436 5.9429 41.3283 5.93005 41.3101C5.89579 41.2791 5.87316 41.2373 5.86594 41.1917L4.87969 37.4588L4.49752 41.1695C4.50031 41.1982 4.49664 41.2271 4.48677 41.2541C4.4769 41.2812 4.4611 41.3056 4.44051 41.3258C4.41993 41.3459 4.39508 41.3611 4.36782 41.3703C4.34057 41.3796 4.31158 41.3826 4.28301 41.3791H3.0502C2.92445 41.3791 2.86035 41.3101 2.86035 41.1695L3.46689 34.4433Z" fill="white"/>
<path d="M13.2184 38.5288C13.2142 38.7347 13.2451 38.9398 13.3096 39.1354C13.364 39.2853 13.4478 39.4228 13.5562 39.5397C13.6518 39.6414 13.7701 39.7192 13.9014 39.7666C14.0314 39.8157 14.1692 39.8408 14.3082 39.8405C14.4513 39.8403 14.5929 39.8119 14.7249 39.7567C14.8556 39.7002 14.9725 39.6161 15.0676 39.5101C15.1712 39.3894 15.2499 39.2495 15.2994 39.0984C15.3606 38.9166 15.3898 38.7255 15.3857 38.5338V34.4458C15.3849 34.3903 15.4051 34.3365 15.4424 34.2954C15.4602 34.2746 15.4826 34.2582 15.5079 34.2475C15.5331 34.2368 15.5605 34.2321 15.5879 34.2337H16.8724C16.9019 34.2319 16.9313 34.2368 16.9586 34.2479C16.9859 34.259 17.0104 34.276 17.0302 34.2978C17.0665 34.3376 17.0868 34.3895 17.087 34.4433V38.5017C17.0999 38.9835 17.023 39.4634 16.8601 39.917C16.7293 40.2682 16.5183 40.584 16.2437 40.8391C15.9896 41.0681 15.687 41.2366 15.3586 41.3322C15.0161 41.4339 14.6605 41.4846 14.3033 41.4826C13.9441 41.4842 13.5867 41.4318 13.2431 41.3273C12.9124 41.2264 12.609 41.0519 12.3554 40.8169C12.0867 40.5579 11.8795 40.242 11.7489 39.8923C11.5853 39.4449 11.5084 38.9705 11.5221 38.4943V34.4433C11.5226 34.3908 11.5399 34.3398 11.5714 34.2978C11.5856 34.2778 11.6045 34.2616 11.6264 34.2504C11.6483 34.2392 11.6725 34.2335 11.6971 34.2337H13.0113C13.0629 34.2364 13.1119 34.2574 13.1494 34.2929C13.1726 34.3109 13.1911 34.3341 13.2036 34.3607C13.216 34.3873 13.2219 34.4164 13.2209 34.4458L13.2184 38.5288Z" fill="white"/>
<path d="M18.1964 34.4408C18.1947 34.3856 18.2141 34.3318 18.2506 34.2904C18.268 34.2697 18.29 34.2533 18.3148 34.2426C18.3396 34.2319 18.3666 34.2271 18.3936 34.2288H19.6955C19.7207 34.2288 19.7457 34.2338 19.769 34.2435C19.7923 34.2532 19.8134 34.2675 19.8311 34.2855C19.8521 34.3055 19.8689 34.3296 19.8803 34.3563C19.8918 34.383 19.8977 34.4118 19.8977 34.4408V39.6753H22.314C22.3394 39.6753 22.3646 39.6806 22.3879 39.6908C22.4113 39.701 22.4323 39.7159 22.4496 39.7345C22.469 39.7557 22.4841 39.7806 22.4938 39.8077C22.5035 39.8348 22.5078 39.8636 22.5063 39.8923V41.1596C22.5063 41.213 22.489 41.2649 22.457 41.3076C22.4403 41.3297 22.4187 41.3477 22.3938 41.3601C22.369 41.3725 22.3417 41.379 22.314 41.3791H18.3912C18.2605 41.3791 18.1964 41.31 18.1964 41.1695V34.4408Z" fill="white"/>
<path d="M22.5951 34.4434C22.5939 34.4152 22.5986 34.3871 22.6088 34.3608C22.6189 34.3345 22.6345 34.3106 22.6543 34.2905C22.6734 34.2717 22.6962 34.2569 22.7212 34.2472C22.7462 34.2374 22.773 34.2329 22.7998 34.2338H27.5288C27.5804 34.2336 27.6303 34.252 27.6694 34.2856C27.6907 34.3061 27.7078 34.3305 27.7196 34.3576C27.7315 34.3847 27.7379 34.4139 27.7384 34.4434V35.6392C27.7383 35.6986 27.7193 35.7565 27.6842 35.8044C27.6671 35.8297 27.6439 35.8501 27.6167 35.8639C27.5895 35.8777 27.5593 35.8844 27.5288 35.8833H26.0125V41.1548C26.012 41.2116 25.992 41.2664 25.9558 41.3102C25.9378 41.3325 25.9148 41.3504 25.8887 41.3624C25.8626 41.3744 25.8341 41.3802 25.8054 41.3792H24.5183C24.4918 41.3787 24.4656 41.3727 24.4414 41.3617C24.4173 41.3506 24.3956 41.3348 24.3778 41.3151C24.356 41.2946 24.3388 41.2697 24.3274 41.2421C24.3159 41.2145 24.3104 41.1847 24.3112 41.1548V35.8833H22.7998C22.7726 35.8839 22.7455 35.8788 22.7204 35.8681C22.6954 35.8575 22.6728 35.8417 22.6543 35.8217C22.6328 35.7968 22.6164 35.7678 22.6063 35.7365C22.5961 35.7051 22.5923 35.6721 22.5951 35.6392V34.4434Z" fill="white"/>
<path d="M28.8184 34.4433C28.8177 34.3902 28.8341 34.3384 28.8653 34.2954C28.8828 34.2743 28.9052 34.2576 28.9305 34.2469C28.9558 34.2362 28.9833 34.2317 29.0107 34.2337H30.2978C30.3498 34.2358 30.3995 34.2558 30.4383 34.2904C30.462 34.3082 30.481 34.3313 30.4939 34.3579C30.5068 34.3845 30.5131 34.4138 30.5123 34.4433V41.1695C30.5161 41.1984 30.5131 41.2277 30.5036 41.2552C30.4941 41.2827 30.4783 41.3076 30.4574 41.3279C30.4366 41.3483 30.4114 41.3635 30.3837 41.3724C30.3559 41.3812 30.3265 41.3835 30.2978 41.3791H29.0058C28.8776 41.3791 28.8135 41.31 28.8135 41.1695L28.8184 34.4433Z" fill="white"/>
<path d="M32.7632 39.0713C32.8125 39.1181 32.8767 39.1773 32.9531 39.2538C33.0377 39.3325 33.1266 39.4066 33.2194 39.4757C33.3572 39.5749 33.5061 39.6576 33.6632 39.7222C33.8092 39.7832 33.966 39.8142 34.1243 39.8135C34.2522 39.8173 34.3798 39.7989 34.5015 39.7592C34.5942 39.7299 34.6786 39.6793 34.7481 39.6113C34.8049 39.551 34.8471 39.4784 34.8713 39.3992C34.8976 39.3197 34.9109 39.2364 34.9108 39.1527C34.9112 39.054 34.8742 38.9588 34.8072 38.8864C34.7367 38.8039 34.6535 38.7331 34.5607 38.6768C34.4618 38.6154 34.3579 38.5627 34.25 38.519C34.1415 38.4771 34.0478 38.4401 33.9689 38.413C33.6499 38.2935 33.3414 38.1476 33.0468 37.9766C32.8022 37.8365 32.5795 37.6612 32.386 37.4563C32.2159 37.2736 32.082 37.0602 31.9915 36.8276C31.9 36.5824 31.8549 36.3224 31.8584 36.0608C31.8551 35.7809 31.9114 35.5036 32.0236 35.2471C32.1263 35.0121 32.2795 34.8025 32.4723 34.6332C32.6897 34.4515 32.9412 34.3148 33.212 34.2313C33.5235 34.132 33.8491 34.0837 34.176 34.0883C34.4341 34.0869 34.6911 34.12 34.9404 34.1869C35.1958 34.257 35.4399 34.3633 35.6653 34.5025C35.7639 34.5666 35.8576 34.6332 35.9488 34.7022C36.0345 34.7643 36.1168 34.831 36.1954 34.9019C36.2545 34.9575 36.3082 35.0186 36.3556 35.0844C36.3894 35.1278 36.41 35.18 36.4148 35.2348C36.4146 35.2753 36.4045 35.3151 36.3852 35.3507C36.3616 35.3931 36.3335 35.4327 36.3014 35.469L35.6283 36.2556C35.6104 36.2791 35.5878 36.2985 35.5619 36.3125C35.5359 36.3265 35.5073 36.3349 35.4779 36.3369C35.4375 36.337 35.3982 36.3231 35.3669 36.2975C35.3274 36.2685 35.2903 36.2363 35.256 36.2013L35.2165 36.1643C35.1574 36.1076 35.0908 36.0534 35.0193 35.9942C34.9468 35.9368 34.8701 35.8849 34.79 35.8389C34.7114 35.7929 34.6289 35.7541 34.5434 35.723C34.4539 35.6917 34.3597 35.6758 34.2648 35.6761C34.1737 35.676 34.0828 35.6851 33.9936 35.7033C33.9147 35.7188 33.8389 35.7472 33.7692 35.7871C33.7061 35.8243 33.6535 35.8769 33.6163 35.94C33.5752 36.0083 33.5546 36.0871 33.5572 36.1668C33.5535 36.2532 33.5749 36.3388 33.6188 36.4134C33.6669 36.4865 33.7299 36.5487 33.8037 36.5958C33.8998 36.6597 34.0023 36.7134 34.1095 36.7561C34.2303 36.8054 34.3733 36.8596 34.5335 36.9164C34.8442 37.0298 35.1302 37.1457 35.3916 37.2714C35.6378 37.3842 35.8669 37.5311 36.0721 37.7078C36.2609 37.8757 36.4121 38.0815 36.5159 38.3119C36.6315 38.5811 36.687 38.8722 36.6786 39.165C36.6834 39.4955 36.6152 39.823 36.4789 40.1241C36.3542 40.4073 36.169 40.6597 35.9365 40.8638C35.6991 41.0698 35.4246 41.2288 35.1278 41.3323C34.8054 41.4457 34.4659 41.5024 34.1243 41.4999C33.7856 41.4985 33.4505 41.4307 33.138 41.3002C32.8108 41.1682 32.5044 40.9896 32.2282 40.7701C32.121 40.6868 32.0212 40.5944 31.9299 40.494L31.74 40.277V40.2622C31.6867 40.2095 31.6514 40.1413 31.6389 40.0674C31.648 39.9959 31.6842 39.9306 31.74 39.885L32.5019 39.091C32.5423 39.0521 32.5942 39.027 32.6498 39.0195C32.6799 39.0197 32.7092 39.0292 32.7337 39.0466C32.7437 39.0547 32.7535 39.0629 32.7632 39.0713Z" fill="white"/>
<path d="M37.6157 34.4531C37.6122 34.3959 37.6288 34.3392 37.6625 34.2929C37.6806 34.2725 37.7031 34.2566 37.7284 34.2463C37.7536 34.2361 37.7808 34.2317 37.808 34.2337H40.6163C40.81 34.2319 41.0025 34.2628 41.1859 34.3249C41.3616 34.3822 41.5278 34.4653 41.679 34.5715C41.8296 34.6821 41.9654 34.8113 42.0834 34.9561C42.2035 35.108 42.3053 35.2735 42.3867 35.4493C42.4708 35.6232 42.5353 35.8059 42.579 35.9942C42.6231 36.1841 42.6455 36.3785 42.6455 36.5736C42.6448 36.8622 42.5965 37.1488 42.5025 37.4217C42.411 37.6901 42.2733 37.9404 42.0957 38.1614C41.9209 38.375 41.7055 38.5518 41.462 38.6817C41.2113 38.8168 40.9308 38.8871 40.6459 38.8863H39.3145V41.1769C39.3145 41.3174 39.2479 41.384 39.1123 41.384H37.808C37.7824 41.3858 37.7568 41.3824 37.7326 41.3739C37.7084 41.3654 37.6863 41.3521 37.6675 41.3347C37.6488 41.3131 37.6346 41.2881 37.6257 41.261C37.6168 41.2339 37.6134 41.2053 37.6157 41.1769V34.4531ZM40.9221 36.5612C40.9222 36.4632 40.9064 36.3658 40.8752 36.2728C40.8463 36.1831 40.8012 36.0995 40.7421 36.0262C40.6848 35.9507 40.6126 35.8878 40.53 35.8413C40.444 35.7913 40.346 35.7657 40.2465 35.7673H39.3145V37.3749H40.2465C40.3462 37.3767 40.4446 37.3529 40.5325 37.3059C40.6148 37.2611 40.687 37.1998 40.7446 37.1259C40.802 37.0518 40.8462 36.9684 40.8752 36.8793C40.9091 36.7768 40.925 36.6692 40.9221 36.5612Z" fill="white"/>
<path d="M43.5973 34.4532C43.5952 34.3954 43.6136 34.3386 43.6491 34.2929C43.6668 34.2728 43.6889 34.257 43.7137 34.2467C43.7385 34.2364 43.7653 34.232 43.7921 34.2338H48.1489C48.177 34.2319 48.2051 34.2365 48.2312 34.2472C48.2573 34.2579 48.2805 34.2744 48.2993 34.2954C48.3365 34.3431 48.3549 34.4027 48.351 34.4631V35.654C48.3505 35.7099 48.3324 35.7642 48.2993 35.8093C48.2821 35.8336 48.2591 35.8531 48.2324 35.8661C48.2056 35.879 48.1761 35.8849 48.1464 35.8833H45.2986V37.0766H47.4955C47.5452 37.0749 47.5941 37.0906 47.6335 37.121C47.6531 37.139 47.6682 37.1612 47.6776 37.1861C47.6871 37.2109 47.6905 37.2376 47.6878 37.264V38.3045C47.6873 38.3521 47.6708 38.3981 47.6409 38.4352C47.6241 38.4559 47.6026 38.4723 47.5781 38.483C47.5537 38.4937 47.527 38.4985 47.5004 38.4968H45.2986V39.7296H48.2573C48.3905 39.7296 48.4546 39.8036 48.4546 39.9491V41.1597C48.4551 41.1757 48.4523 41.1916 48.4464 41.2064C48.4404 41.2213 48.4315 41.2348 48.4201 41.246C48.4077 41.3347 48.3486 41.3791 48.2401 41.3791H43.802C43.7764 41.3809 43.7508 41.3775 43.7266 41.369C43.7024 41.3605 43.6802 41.3472 43.6614 41.3298C43.6418 41.3088 43.6268 41.2839 43.6175 41.2567C43.6082 41.2295 43.6046 41.2006 43.6072 41.172L43.5973 34.4532Z" fill="white"/>
<path d="M54.5077 34.7516C54.555 34.7824 54.5926 34.826 54.6161 34.8773C54.6299 34.9058 54.6371 34.937 54.6371 34.9686C54.6371 35.0002 54.6299 35.0314 54.6161 35.0598L53.8765 36.2162C53.8666 36.2381 53.8522 36.2577 53.8344 36.2738C53.8166 36.2899 53.7957 36.3022 53.7729 36.3099C53.7487 36.3123 53.7241 36.3098 53.7009 36.3026C53.6776 36.2954 53.6559 36.2836 53.6373 36.2679C53.4961 36.1506 53.336 36.0581 53.1639 35.9943C52.9879 35.9295 52.8016 35.8969 52.6141 35.8981C52.3842 35.8955 52.157 35.947 51.9508 36.0485C51.7499 36.1458 51.5718 36.2844 51.4281 36.4553C51.2788 36.6356 51.1627 36.841 51.0854 37.0619C51.0026 37.2997 50.9609 37.5498 50.9621 37.8016C50.9605 38.0534 51.0022 38.3036 51.0854 38.5412C51.1623 38.7609 51.2784 38.9647 51.4281 39.1429C51.5674 39.3161 51.7401 39.4595 51.936 39.5645C52.1428 39.6641 52.3698 39.7147 52.5993 39.7124C52.7887 39.7136 52.9767 39.6802 53.154 39.6138C53.3295 39.5437 53.4913 39.4436 53.6324 39.3179C53.6693 39.2881 53.7156 39.2723 53.763 39.2735C53.8087 39.2881 53.8467 39.3199 53.8691 39.3623L54.6087 40.5458C54.6244 40.5724 54.6336 40.6023 54.6358 40.6331C54.6379 40.6639 54.6329 40.6948 54.6211 40.7233C54.5968 40.7728 54.5592 40.8147 54.5126 40.8441C54.2409 41.0438 53.9409 41.2017 53.6225 41.3126C53.2997 41.4239 52.9604 41.4797 52.619 41.4778C52.316 41.4793 52.0144 41.4361 51.724 41.3496C51.4408 41.2636 51.171 41.1383 50.9227 40.9773C50.6812 40.8174 50.4615 40.6268 50.2693 40.4102C50.0642 40.1864 49.8877 39.9379 49.7441 39.6705C49.5951 39.393 49.4808 39.0982 49.4038 38.7927C49.161 37.8365 49.2823 36.8242 49.7441 35.9524C49.8876 35.6848 50.064 35.4363 50.2693 35.2127C50.6683 34.7698 51.1794 34.4428 51.7486 34.2659C52.0389 34.1785 52.3405 34.1345 52.6437 34.1352C52.9791 34.1331 53.3124 34.1872 53.6299 34.2955C53.9436 34.4029 54.2394 34.5566 54.5077 34.7516Z" fill="white"/>
<path d="M55.7354 34.4433C55.7354 34.39 55.7527 34.338 55.7847 34.2954C55.8023 34.2743 55.8246 34.2576 55.8499 34.2469C55.8752 34.2362 55.9027 34.2317 55.9301 34.2337H57.2197C57.2722 34.2369 57.3223 34.2568 57.3627 34.2904C57.3863 34.3082 57.4054 34.3313 57.4182 34.3579C57.4311 34.3845 57.4374 34.4138 57.4366 34.4433V41.1695C57.4366 41.31 57.3651 41.3791 57.2197 41.3791H55.94C55.8093 41.3791 55.7452 41.31 55.7452 41.1695L55.7354 34.4433Z" fill="white"/>
<path d="M60.7183 34.4212C60.7223 34.3981 60.7316 34.3761 60.7454 34.3571C60.7632 34.3348 60.783 34.3141 60.8046 34.2955C60.828 34.2767 60.8536 34.2609 60.881 34.2486C60.9045 34.2392 60.9296 34.2342 60.955 34.2338H62.0793C62.1029 34.233 62.1264 34.2369 62.1484 34.2454C62.1705 34.2539 62.1906 34.2667 62.2075 34.2831C62.2361 34.3106 62.2625 34.3402 62.2864 34.3719L62.3974 34.6456L64.7027 41.1647C64.7166 41.1882 64.7239 41.215 64.7239 41.2423C64.7239 41.2697 64.7166 41.2965 64.7027 41.32C64.6808 41.3416 64.6544 41.358 64.6255 41.3683C64.5965 41.3785 64.5656 41.3822 64.535 41.3792H63.2726C63.2448 41.3841 63.2162 41.3834 63.1886 41.3771C63.161 41.3708 63.1349 41.359 63.1119 41.3424C63.0889 41.3259 63.0695 41.3049 63.0548 41.2807C63.04 41.2565 63.0303 41.2297 63.0261 41.2017C62.9669 41.0389 62.9102 40.8762 62.8535 40.7085L62.6858 40.2154H60.3534C60.2991 40.3781 60.2424 40.5409 60.1857 40.7085C60.129 40.8762 60.0698 41.034 60.0156 41.2017C60.0047 41.2527 59.9763 41.2984 59.9354 41.3308C59.8944 41.3632 59.8434 41.3803 59.7912 41.3792H58.4943C58.4441 41.381 58.3949 41.3644 58.3562 41.3323C58.3381 41.3132 58.3265 41.2889 58.3229 41.2628C58.3194 41.2367 58.3241 41.2101 58.3365 41.1869L60.7183 34.4212ZM61.5171 36.48C61.4629 36.6452 61.4062 36.8203 61.3495 37.0101C61.2928 37.2 61.236 37.3898 61.1793 37.5821L61.0092 38.1542C60.9525 38.3415 60.8958 38.5166 60.8416 38.6793H62.1902L61.5171 36.48Z" fill="white"/>
<path d="M65.423 34.4408C65.4212 34.3856 65.4406 34.3318 65.4772 34.2904C65.4945 34.2697 65.5165 34.2533 65.5413 34.2426C65.5662 34.2319 65.5932 34.2271 65.6202 34.2288H66.922C66.9473 34.2288 66.9723 34.2338 66.9956 34.2435C67.0188 34.2532 67.04 34.2675 67.0577 34.2855C67.0787 34.3055 67.0954 34.3296 67.1069 34.3563C67.1183 34.383 67.1242 34.4118 67.1242 34.4408V39.6753H69.5405C69.566 39.6753 69.5912 39.6806 69.6145 39.6908C69.6378 39.701 69.6588 39.7159 69.6761 39.7345C69.6956 39.7557 69.7106 39.7806 69.7204 39.8077C69.7301 39.8348 69.7343 39.8636 69.7328 39.8923V41.1596C69.7328 41.213 69.7155 41.2649 69.6835 41.3076C69.6668 41.3297 69.6452 41.3477 69.6204 41.3601C69.5956 41.3725 69.5683 41.379 69.5405 41.3791H65.6177C65.4871 41.3791 65.423 41.31 65.423 41.1695V34.4408Z" fill="white"/>
<path d="M70.7732 34.4433C70.7732 34.39 70.7905 34.338 70.8225 34.2954C70.8401 34.2743 70.8625 34.2576 70.8878 34.2469C70.9131 34.2362 70.9406 34.2317 70.968 34.2337H72.26C72.3116 34.2374 72.3608 34.2572 72.4005 34.2904C72.4242 34.3082 72.4432 34.3313 72.4561 34.3579C72.4689 34.3845 72.4753 34.4138 72.4745 34.4433V41.1695C72.4783 41.1984 72.4753 41.2277 72.4658 41.2552C72.4562 41.2827 72.4405 41.3076 72.4196 41.3279C72.3988 41.3483 72.3736 41.3635 72.3458 41.3724C72.3181 41.3812 72.2887 41.3835 72.26 41.3791H70.9803C70.8496 41.3791 70.7855 41.31 70.7855 41.1695L70.7732 34.4433Z" fill="white"/>
<path d="M73.5322 34.4432C73.531 34.4151 73.5356 34.3869 73.5458 34.3606C73.556 34.3343 73.5715 34.3104 73.5913 34.2904C73.6108 34.2713 73.634 34.2565 73.6594 34.2467C73.6849 34.237 73.7121 34.2325 73.7393 34.2337H78.4659C78.5174 34.2332 78.5674 34.2517 78.6064 34.2854C78.6502 34.3265 78.6759 34.3832 78.6779 34.4432V35.6391C78.6768 35.6987 78.657 35.7565 78.6212 35.8043C78.6043 35.8296 78.5811 35.8502 78.5539 35.8641C78.5267 35.8779 78.4963 35.8845 78.4659 35.8832H76.9495V41.1546C76.9504 41.2116 76.9302 41.2669 76.8928 41.31C76.8755 41.3325 76.853 41.3505 76.8272 41.3625C76.8015 41.3745 76.7732 41.3802 76.7449 41.379H75.4554C75.4288 41.3785 75.4026 41.3725 75.3785 41.3615C75.3543 41.3505 75.3326 41.3346 75.3148 41.3149C75.2938 41.2939 75.2774 41.2689 75.2663 41.2413C75.2553 41.2138 75.25 41.1843 75.2507 41.1546V35.8832H73.7393C73.7117 35.884 73.6842 35.8789 73.6587 35.8683C73.6332 35.8576 73.6102 35.8417 73.5913 35.8215C73.5698 35.7966 73.5534 35.7676 73.5433 35.7363C73.5331 35.7049 73.5293 35.6719 73.5322 35.6391V34.4432Z" fill="white"/>
<path d="M82.1325 36.8694L83.1927 34.3866C83.2048 34.3573 83.2196 34.3292 83.2371 34.3027C83.2474 34.2886 83.259 34.2754 83.2716 34.2633C83.2836 34.2558 83.2971 34.2508 83.311 34.2485C83.3258 34.2503 83.3407 34.2503 83.3554 34.2485H85.0468C85.066 34.2481 85.0846 34.2552 85.0986 34.2682C85.1112 34.2825 85.1183 34.3009 85.1184 34.32C85.1119 34.366 85.0902 34.4086 85.0567 34.4408L82.9733 38.4795V41.1547C82.9733 41.3051 82.9067 41.3791 82.7711 41.3791H81.4569C81.4313 41.3802 81.4057 41.3755 81.3822 41.3652C81.3587 41.355 81.3379 41.3395 81.3213 41.3199C81.2864 41.2722 81.2698 41.2136 81.2744 41.1547V38.4425L79.1959 34.4137C79.1622 34.3822 79.142 34.3389 79.1392 34.2929C79.1384 34.2741 79.1445 34.2556 79.1565 34.2411C79.1625 34.2348 79.1698 34.2298 79.1779 34.2264C79.1859 34.223 79.1946 34.2213 79.2033 34.2214H80.8947H80.944C80.9565 34.2237 80.9683 34.2288 80.9786 34.2362C80.9927 34.2475 81.0052 34.2608 81.0156 34.2756C81.0156 34.2929 81.0427 34.32 81.0624 34.3595L82.1325 36.8694Z" fill="white"/>
<path d="M88.7058 34.4433C88.7085 34.3899 88.7284 34.3389 88.7625 34.2978C88.7775 34.2768 88.7975 34.2598 88.8208 34.2486C88.8441 34.2374 88.8699 34.2323 88.8957 34.2337H90.2123C90.2631 34.2365 90.3113 34.2575 90.3479 34.2929C90.3707 34.3113 90.3889 34.3346 90.4013 34.3611C90.4137 34.3876 90.4199 34.4165 90.4194 34.4458V36.7314H92.6039V34.4458C92.6022 34.3906 92.6216 34.3368 92.6582 34.2954C92.6755 34.2752 92.6971 34.2592 92.7215 34.2486C92.7458 34.2379 92.7722 34.2328 92.7987 34.2337H94.0833C94.1381 34.2319 94.1918 34.2484 94.2362 34.2806C94.2593 34.2989 94.2775 34.3227 94.2891 34.3498C94.3008 34.3769 94.3054 34.4065 94.3028 34.4359V41.1695C94.3047 41.1983 94.3006 41.2272 94.2909 41.2543C94.2811 41.2815 94.2658 41.3063 94.246 41.3273C94.2041 41.3628 94.1505 41.3812 94.0956 41.3791H92.7987C92.7469 41.381 92.6964 41.3624 92.6582 41.3273C92.6387 41.3062 92.6238 41.2813 92.6145 41.2541C92.6051 41.2269 92.6016 41.1981 92.6039 41.1695V38.4351H90.4194V41.1695C90.4211 41.1981 90.4167 41.2267 90.4065 41.2535C90.3963 41.2803 90.3805 41.3046 90.3602 41.3248C90.3158 41.3629 90.2584 41.3823 90.2 41.3791H88.908C88.8824 41.3827 88.8564 41.3804 88.8319 41.3723C88.8073 41.3642 88.785 41.3505 88.7667 41.3324C88.7483 41.3143 88.7343 41.2921 88.7259 41.2677C88.7175 41.2433 88.7148 41.2173 88.7181 41.1917L88.7058 34.4433Z" fill="white"/>
<path d="M95.4246 37.8138C95.4221 37.165 95.5796 36.5256 95.8832 35.9522C96.0284 35.6858 96.2047 35.4375 96.4084 35.2125C96.6075 34.99 96.8355 34.7951 97.0864 34.6331C97.3353 34.4731 97.6049 34.3479 97.8877 34.2608C98.4709 34.0866 99.0922 34.0866 99.6753 34.2608C99.9589 34.3479 100.229 34.4731 100.479 34.6331C100.731 34.7934 100.959 34.9866 101.16 35.2076C101.366 35.43 101.543 35.6787 101.685 35.9473C101.832 36.2274 101.946 36.5236 102.025 36.83C102.27 37.7845 102.148 38.796 101.685 39.6654C101.543 39.9339 101.366 40.1826 101.16 40.4051C100.959 40.6255 100.73 40.8186 100.479 40.9796C100.23 41.1406 99.9593 41.2659 99.6753 41.3519C99.0917 41.5228 98.4713 41.5228 97.8877 41.3519C97.6045 41.2659 97.3348 41.1406 97.0864 40.9796C96.8355 40.8186 96.6067 40.6255 96.4059 40.4051C95.9871 39.9469 95.6903 39.3907 95.5429 38.7877C95.4635 38.4692 95.4238 38.142 95.4246 37.8138ZM97.1234 37.8138C97.1226 38.0655 97.1643 38.3156 97.2467 38.5535C97.3234 38.7744 97.4405 38.9792 97.5919 39.1575C97.7371 39.3267 97.9149 39.4651 98.1146 39.5644C98.3243 39.6602 98.5522 39.7098 98.7828 39.7098C99.0133 39.7098 99.2412 39.6602 99.4509 39.5644C99.6527 39.4672 99.8323 39.3295 99.9786 39.16C100.129 38.9816 100.245 38.7767 100.321 38.5559C100.483 38.076 100.483 37.5564 100.321 37.0765C100.245 36.8542 100.129 36.6478 99.9786 36.4675C99.8331 36.2965 99.6533 36.1579 99.4509 36.0607C99.2421 35.9616 99.0139 35.9102 98.7828 35.9102C98.5516 35.9102 98.3234 35.9616 98.1146 36.0607C97.9145 36.1594 97.7366 36.2978 97.5919 36.4675C97.4404 36.6477 97.3234 36.8541 97.2467 37.0765C97.1627 37.3117 97.1186 37.5592 97.116 37.8088L97.1234 37.8138Z" fill="white"/>
<path d="M103.773 39.0713L103.966 39.2537C104.049 39.3337 104.138 39.4078 104.232 39.4757C104.369 39.5759 104.518 39.6587 104.676 39.7222C104.821 39.7836 104.978 39.8146 105.137 39.8134C105.264 39.8171 105.391 39.7987 105.511 39.7592C105.604 39.7299 105.689 39.6792 105.758 39.6113C105.816 39.5517 105.86 39.479 105.884 39.3992C105.908 39.3193 105.921 39.2362 105.921 39.1527C105.921 39.054 105.884 38.9588 105.817 38.8864C105.746 38.8042 105.663 38.7335 105.571 38.6768C105.471 38.6159 105.366 38.5631 105.257 38.519C105.149 38.4771 105.055 38.4401 104.976 38.413C104.658 38.2925 104.349 38.1466 104.054 37.9766C103.81 37.8371 103.588 37.6618 103.396 37.4563C103.225 37.2738 103.09 37.0604 102.999 36.8276C102.909 36.582 102.865 36.3222 102.868 36.0608C102.864 35.7808 102.92 35.5033 103.033 35.2471C103.141 35.0065 103.301 34.7932 103.502 34.6233C103.719 34.4414 103.971 34.3047 104.242 34.2214C104.552 34.1219 104.877 34.0736 105.203 34.0784C105.462 34.077 105.72 34.1102 105.97 34.177C106.225 34.2472 106.468 34.3535 106.692 34.4926C106.791 34.5567 106.887 34.6233 106.976 34.6924C107.062 34.7545 107.144 34.8211 107.223 34.8921C107.282 34.947 107.336 35.0081 107.383 35.0745C107.417 35.1179 107.437 35.1701 107.442 35.2249C107.443 35.2652 107.433 35.305 107.415 35.3408C107.39 35.3832 107.361 35.4228 107.329 35.4592L106.658 36.2457C106.64 36.2688 106.617 36.288 106.591 36.302C106.565 36.316 106.537 36.3245 106.508 36.3271C106.466 36.3275 106.426 36.3135 106.394 36.2876C106.363 36.263 106.326 36.2309 106.283 36.1915L106.244 36.1545C106.185 36.0978 106.12 36.0435 106.049 35.9843C105.976 35.9269 105.898 35.875 105.817 35.829C105.739 35.7822 105.656 35.7434 105.571 35.7131C105.482 35.6819 105.389 35.666 105.294 35.6663C105.203 35.6663 105.111 35.6754 105.021 35.6934C104.942 35.7097 104.866 35.738 104.796 35.7772C104.734 35.8151 104.681 35.8676 104.644 35.9301C104.604 35.9991 104.585 36.0776 104.587 36.1569C104.582 36.2435 104.603 36.3295 104.648 36.4035C104.695 36.4778 104.758 36.5403 104.833 36.5859C104.929 36.6508 105.031 36.7045 105.139 36.7462C105.26 36.7955 105.4 36.8498 105.561 36.9065C105.871 37.0199 106.157 37.1358 106.421 37.2615C106.667 37.3743 106.895 37.5212 107.099 37.6979C107.289 37.8657 107.441 38.0716 107.546 38.302C107.659 38.5718 107.714 38.8626 107.706 39.1551C107.71 39.4853 107.643 39.8125 107.509 40.1142C107.382 40.3964 107.197 40.6485 106.966 40.8539C106.728 41.0605 106.453 41.2195 106.155 41.3224C105.833 41.4355 105.495 41.4922 105.154 41.4901C104.815 41.4884 104.48 41.4205 104.168 41.2903C103.841 41.1583 103.534 40.9797 103.258 40.7602C103.152 40.6763 103.053 40.584 102.962 40.4841C102.881 40.3953 102.817 40.3214 102.772 40.2671L102.757 40.2523C102.704 40.1996 102.669 40.1315 102.656 40.0575C102.665 39.986 102.701 39.9207 102.757 39.8751L103.517 39.0812C103.558 39.0416 103.611 39.0164 103.667 39.0096C103.697 39.0103 103.726 39.0197 103.751 39.0368C103.759 39.0481 103.766 39.0596 103.773 39.0713Z" fill="white"/>
<path d="M108.625 34.4531C108.623 34.3956 108.64 34.3389 108.675 34.2929C108.692 34.2726 108.714 34.2566 108.739 34.2464C108.764 34.2361 108.791 34.2318 108.818 34.2337H111.626C111.821 34.2321 112.014 34.2629 112.198 34.3249C112.374 34.382 112.54 34.4651 112.691 34.5715C112.842 34.6814 112.978 34.8107 113.096 34.9561C113.336 35.2579 113.505 35.6103 113.589 35.9868C113.699 36.4603 113.672 36.9552 113.512 37.4143C113.423 37.6836 113.285 37.9342 113.105 38.154C112.932 38.3675 112.717 38.5443 112.474 38.6743C112.223 38.8092 111.941 38.8795 111.656 38.8789H110.327V41.1695C110.331 41.1973 110.329 41.2257 110.321 41.2526C110.312 41.2794 110.298 41.3039 110.278 41.324C110.258 41.3441 110.234 41.3594 110.207 41.3685C110.181 41.3777 110.152 41.3804 110.125 41.3766H108.818C108.766 41.3791 108.716 41.3614 108.677 41.3273C108.659 41.3057 108.644 41.2807 108.635 41.2536C108.627 41.2265 108.623 41.1979 108.625 41.1695V34.4531ZM111.934 36.5612C111.933 36.4633 111.917 36.3661 111.887 36.2728C111.857 36.1839 111.812 36.1007 111.754 36.0262C111.696 35.9506 111.623 35.8877 111.54 35.8413C111.454 35.7913 111.356 35.7657 111.256 35.7673H110.327V37.3749H111.256C111.356 37.377 111.455 37.3532 111.542 37.3059C111.625 37.2611 111.698 37.1999 111.757 37.1259C111.813 37.0513 111.857 36.968 111.887 36.8793C111.92 36.7765 111.936 36.6691 111.934 36.5612Z" fill="white"/>
<path d="M114.622 34.4433C114.621 34.3903 114.637 34.3384 114.668 34.2954C114.686 34.2744 114.709 34.2579 114.734 34.2472C114.759 34.2365 114.787 34.2319 114.814 34.2338H116.101C116.153 34.2358 116.203 34.2558 116.242 34.2905C116.265 34.3082 116.284 34.3313 116.297 34.3579C116.31 34.3845 116.316 34.4138 116.315 34.4433V41.1695C116.319 41.1984 116.316 41.2277 116.307 41.2552C116.297 41.2827 116.281 41.3076 116.261 41.328C116.24 41.3483 116.215 41.3635 116.187 41.3724C116.159 41.3813 116.13 41.3836 116.101 41.3791H114.819C114.691 41.3791 114.627 41.3101 114.627 41.1695L114.622 34.4433Z" fill="white"/>
<path d="M117.386 34.4432C117.384 34.4151 117.389 34.3869 117.399 34.3606C117.409 34.3343 117.425 34.3104 117.445 34.2904C117.464 34.2713 117.488 34.2565 117.513 34.2467C117.538 34.237 117.566 34.2325 117.593 34.2337H122.319C122.371 34.2335 122.421 34.2518 122.46 34.2854C122.481 34.3059 122.498 34.3304 122.51 34.3574C122.522 34.3845 122.528 34.4137 122.529 34.4432V35.6391C122.529 35.6985 122.51 35.7563 122.475 35.8043C122.458 35.8295 122.434 35.85 122.407 35.8638C122.38 35.8776 122.35 35.8842 122.319 35.8832H120.803V41.1546C120.803 41.2114 120.783 41.2663 120.746 41.31C120.728 41.3325 120.706 41.3505 120.679 41.3625C120.653 41.3745 120.625 41.3802 120.596 41.379H119.306C119.28 41.3785 119.254 41.3725 119.23 41.3615C119.205 41.3505 119.184 41.3346 119.166 41.3149C119.144 41.2943 119.128 41.2693 119.117 41.2417C119.105 41.214 119.1 41.1844 119.102 41.1546V35.8832H117.59C117.563 35.884 117.535 35.8789 117.51 35.8683C117.484 35.8576 117.461 35.8417 117.442 35.8215C117.421 35.7966 117.405 35.7676 117.394 35.7363C117.384 35.7049 117.38 35.6719 117.383 35.6391L117.386 34.4432Z" fill="white"/>
<path d="M124.6 34.4212C124.604 34.398 124.613 34.3761 124.627 34.3571C124.645 34.3347 124.665 34.3141 124.686 34.2954C124.709 34.2772 124.734 34.2615 124.76 34.2486C124.785 34.2391 124.811 34.2341 124.837 34.2338H125.963C125.987 34.2331 126.011 34.2371 126.033 34.2455C126.055 34.254 126.075 34.2668 126.092 34.2831C126.12 34.3105 126.147 34.3402 126.171 34.3719L126.279 34.6455L128.587 41.1646C128.599 41.1895 128.603 41.217 128.601 41.2443C128.598 41.2717 128.588 41.2978 128.572 41.32C128.551 41.3418 128.525 41.3584 128.496 41.3687C128.468 41.3789 128.437 41.3825 128.407 41.3791H127.145C127.09 41.3837 127.035 41.3698 126.989 41.3397C126.946 41.304 126.916 41.2557 126.903 41.2016C126.844 41.0372 126.787 40.8729 126.733 40.7085L126.565 40.2154H124.238L124.067 40.7085C124.011 40.8712 123.954 41.034 123.9 41.2016C123.889 41.2527 123.861 41.2984 123.82 41.3308C123.779 41.3632 123.728 41.3803 123.675 41.3791H122.378C122.328 41.381 122.279 41.3643 122.24 41.3323C122.222 41.3136 122.209 41.2892 122.206 41.2629C122.202 41.2366 122.208 41.2099 122.221 41.1868L124.6 34.4212ZM125.399 36.48C125.342 36.6452 125.285 36.8202 125.229 37.0101C125.172 37.1999 125.115 37.3898 125.061 37.5821L124.891 38.1541C124.833 38.3415 124.777 38.5166 124.721 38.6793H126.07L125.399 36.48Z" fill="white"/>
<path d="M129.305 34.4408C129.303 34.3861 129.321 34.3327 129.356 34.2904C129.374 34.2696 129.397 34.2532 129.422 34.2425C129.447 34.2319 129.474 34.2271 129.502 34.2288H130.801C130.853 34.2289 130.902 34.2492 130.939 34.2855C130.98 34.327 131.003 34.3827 131.003 34.4408V39.6753H133.42C133.445 39.6752 133.471 39.6803 133.495 39.6905C133.519 39.7007 133.54 39.7157 133.558 39.7345C133.577 39.7557 133.592 39.7806 133.602 39.8077C133.612 39.8348 133.616 39.8636 133.614 39.8923V41.1596C133.614 41.2133 133.596 41.2652 133.563 41.3076C133.546 41.3299 133.524 41.3479 133.5 41.3603C133.475 41.3728 133.447 41.3792 133.42 41.3791H129.497C129.369 41.3791 129.305 41.31 129.305 41.1695V34.4408Z" fill="white"/>
<path d="M0.570187 27.9951V23.1107H15.8489C16.5531 23.1107 17.0559 22.9877 17.369 22.7531C17.6708 22.5184 17.8273 22.116 17.8273 21.5682C17.8273 21.0428 17.6708 20.6741 17.369 20.4618C17.0562 20.2496 16.5531 20.149 15.8489 20.149H7.47739C4.91776 20.149 3.02893 19.6125 1.82195 18.5282C0.60363 17.4553 0 15.9128 0 13.9123C0 11.8891 0.60363 10.3917 1.82195 9.44144C3.02893 8.48017 4.91804 7.99953 7.47739 7.99953H24.0526V12.8056H9.01991C8.25984 12.8056 7.73443 12.9062 7.42156 13.0851C7.10869 13.2749 6.95225 13.6663 6.95225 14.2699C6.95225 14.8736 7.10869 15.276 7.42156 15.4769C7.73443 15.6668 8.25984 15.7674 9.01991 15.7674H18.0285C19.325 15.7674 20.4093 15.9128 21.2921 16.2033C22.1638 16.4937 22.868 16.9075 23.4045 17.444C23.9523 17.9804 24.3321 18.651 24.567 19.4334C24.7906 20.2269 24.9022 21.121 24.9022 22.1157C24.9022 23.1218 24.7792 23.9822 24.5446 24.7199C24.2986 25.4575 23.8965 26.0722 23.3263 26.5529C22.7674 27.0446 21.9963 27.4022 21.0461 27.6371C20.0848 27.8831 18.9113 27.9948 17.5031 27.9948H0.570187V27.9951Z" fill="white"/>
<path d="M37.1523 27.9951C35.5652 27.9951 34.1344 27.8162 32.8492 27.4696C31.575 27.112 30.4684 26.5531 29.5519 25.8044C28.6354 25.0557 27.9425 24.0944 27.4505 22.9319C26.9699 21.7584 26.7239 20.3723 26.7239 18.7629V7.99953H34.0783V18.7629C34.0783 20.026 34.3911 21.0318 34.9948 21.7808C35.5984 22.5295 36.7496 22.9095 38.4485 22.9095H44.0705C44.6404 22.9095 45.0766 22.9206 45.3781 22.943C45.691 22.9764 46.0152 23.0101 46.328 23.066V7.99953H53.7272V27.9951H37.1523Z" fill="white"/>
<path d="M77.0989 12.962C76.7747 13.0179 76.4618 13.0516 76.1489 13.0627C75.8361 13.0737 75.4002 13.085 74.8414 13.085H69.0516C67.8667 13.085 66.9168 13.2191 66.1904 13.4985C65.4527 13.7779 64.8939 14.1466 64.4915 14.6049C64.078 15.0631 63.8096 15.5886 63.6532 16.1585C63.5078 16.7397 63.4409 17.3433 63.4409 17.9804C63.4409 18.6064 63.5081 19.2211 63.6532 19.8134C63.8096 20.4057 64.078 20.9311 64.4915 21.3894C64.8939 21.8476 65.4527 22.2163 66.1904 22.4958C66.917 22.7641 67.867 22.9092 69.0516 22.9092H73.5448C74.1929 22.9092 74.7407 22.8197 75.1766 22.6298C75.6238 22.451 75.9925 22.1939 76.2719 21.8811C76.5514 21.5682 76.7636 21.2106 76.8979 20.8192C77.032 20.4168 77.0992 20.0143 77.0992 19.5898V12.962H77.0989ZM68.0008 27.995C64.1446 27.995 61.2276 27.1457 59.2268 25.4354C57.2374 23.7254 56.2427 21.2329 56.2427 17.9804C56.2427 14.7392 57.2374 12.2691 59.2268 10.5589C61.2276 8.84885 64.1446 7.99923 68.0008 7.99923H77.0989V0.500008H84.4643V19.0426C84.4643 20.3839 84.2407 21.6022 83.8162 22.7086C83.3803 23.815 82.7209 24.7652 81.8268 25.5476C80.9437 26.3411 79.826 26.9448 78.496 27.3696C77.166 27.7831 75.5901 27.9956 73.7905 27.9956H68.0008V27.995Z" fill="white"/>
<path d="M107.343 27.995V17.2317C107.343 16.5946 107.276 16.0358 107.142 15.5327C107.008 15.0297 106.773 14.5938 106.427 14.2251C106.091 13.8564 105.644 13.577 105.074 13.3758C104.515 13.1859 103.8 13.0853 102.94 13.0853H96.8258C96.2894 13.0853 95.8646 13.0743 95.5517 13.0629C95.2499 13.0519 94.9146 13.0182 94.568 12.9623V27.9953H87.2471V0.500008H94.568V7.99978H104.225C105.79 7.99978 107.22 8.17861 108.517 8.54758C109.814 8.91629 110.909 9.47514 111.814 10.2242C112.708 10.9729 113.413 11.9231 113.916 13.0853C114.407 14.2478 114.664 15.6226 114.664 17.232V27.9953H107.343V27.995Z" fill="white"/>
<path d="M135.722 19.5901H125.249C124.556 19.5901 124.064 19.7466 123.796 20.0708C123.527 20.3836 123.393 20.8195 123.393 21.3673C123.393 21.9485 123.527 22.3844 123.796 22.6862C124.064 22.9991 124.556 23.1445 125.249 23.1445H135.722V19.5901ZM122.79 27.9951C121.65 27.9951 120.7 27.8386 119.917 27.5258C119.135 27.2129 118.498 26.7657 118.017 26.1844C117.525 25.6032 117.19 24.9327 116.989 24.1726C116.777 23.4126 116.676 22.5632 116.676 21.6467C116.676 20.7526 116.777 19.9478 116.989 19.2214C117.19 18.4948 117.525 17.8801 118.017 17.366C118.498 16.8519 119.135 16.4606 119.917 16.2035C120.7 15.9352 121.65 15.8124 122.79 15.8124H135.52C135.308 14.6276 134.883 13.8341 134.246 13.4206C133.609 13.0182 132.581 12.8059 131.15 12.8059H117.492V7.99953H131.798C133.743 7.99953 135.408 8.17835 136.794 8.52494C138.18 8.88259 139.331 9.4525 140.225 10.2463C141.131 11.0287 141.79 12.0682 142.215 13.3424C142.628 14.6165 142.841 16.1814 142.841 18.0144V27.9953H122.79V27.9951Z" fill="white"/>
</svg>
