<svg width="52" height="52" viewBox="0 0 52 52" fill="none" xmlns="http://www.w3.org/2000/svg">
<path d="M10.7011 41.2026L1.85742 43.5686L10.0437 29.3875L20.1763 37.7409L13.0746 50.0426L10.7011 41.2026ZM41.2957 41.2026L50.1431 43.5723L41.9568 29.3912L31.8243 37.7446L38.926 50.0463L41.2957 41.2026Z" fill="white"/>
<path d="M42.0086 29.4803L50.1428 43.5723L41.2954 41.2026L38.9257 50.0463L31.876 37.83" stroke="#2B3990" stroke-width="2.5" stroke-linecap="round" stroke-linejoin="round"/>
<path d="M44.3971 20.3617C44.3971 25.2438 42.4576 29.926 39.0055 33.3782C35.5533 36.8303 30.8712 38.7697 25.9891 38.7697C21.107 38.7697 16.4248 36.8303 12.9726 33.3782C9.52046 29.926 7.58105 25.2438 7.58105 20.3617C7.58105 15.4796 9.52046 10.7975 12.9726 7.34531C16.4248 3.89314 21.107 1.95374 25.9891 1.95374C30.8712 1.95374 35.5533 3.89314 39.0055 7.34531C42.4576 10.7975 44.3971 15.4796 44.3971 20.3617Z" stroke="#2B3990" stroke-width="2.5" stroke-linecap="round" stroke-linejoin="round"/>
<path d="M26.7433 10.3666L29.2802 15.47C29.3353 15.5997 29.4245 15.712 29.5382 15.795C29.652 15.8781 29.7862 15.9288 29.9265 15.9417L35.5611 16.796C35.7223 16.8166 35.8743 16.8828 35.9992 16.9868C36.1242 17.0908 36.2169 17.2283 36.2664 17.3831C36.3159 17.5379 36.3202 17.7037 36.2789 17.8609C36.2375 18.0181 36.1521 18.1602 36.0328 18.2706L31.869 22.2189C31.806 22.3372 31.773 22.4692 31.773 22.6033C31.773 22.7374 31.806 22.8694 31.869 22.9877L32.6676 28.5889C32.7023 28.7512 32.6889 28.9201 32.6291 29.0749C32.5693 29.2298 32.4657 29.3638 32.331 29.4607C32.1963 29.5577 32.0362 29.6132 31.8704 29.6207C31.7046 29.6281 31.5402 29.5871 31.3973 29.5026L26.383 26.8506C26.2535 26.7921 26.1129 26.7619 25.9708 26.7619C25.8286 26.7619 25.6881 26.7921 25.5585 26.8506L20.5442 29.5026C20.4015 29.5848 20.238 29.624 20.0735 29.6154C19.909 29.6069 19.7505 29.551 19.6171 29.4544C19.4836 29.3579 19.3809 29.2248 19.3214 29.0712C19.2618 28.9177 19.2479 28.7501 19.2813 28.5889L20.2248 22.9877C20.2663 22.8574 20.2745 22.7187 20.2486 22.5843C20.2226 22.45 20.1633 22.3243 20.0762 22.2189L15.9162 18.2409C15.8045 18.1291 15.726 17.9887 15.6893 17.835C15.6527 17.6813 15.6594 17.5205 15.7086 17.3704C15.7579 17.2203 15.8478 17.0868 15.9684 16.9848C16.0889 16.8827 16.2355 16.8161 16.3916 16.7923L22.0262 15.9714C22.1665 15.9585 22.3006 15.9078 22.4144 15.8248C22.5282 15.7417 22.6174 15.6294 22.6725 15.4997L25.2093 10.4C25.2769 10.2551 25.3837 10.1321 25.5176 10.045C25.6516 9.95779 25.8073 9.90993 25.9671 9.90684C26.1269 9.90374 26.2843 9.94553 26.4215 10.0275C26.5588 10.1094 26.6702 10.2282 26.7433 10.3703V10.3666Z" fill="white"/>
<path d="M9.99914 29.4691L1.85742 43.5686L10.7011 41.1989L13.0746 50.0463L20.1317 37.8189M26.7431 10.3666L29.28 15.47C29.3351 15.5997 29.4243 15.712 29.538 15.795C29.6518 15.8781 29.786 15.9288 29.9263 15.9417L35.5609 16.796C35.7221 16.8166 35.8741 16.8828 35.9991 16.9868C36.124 17.0908 36.2167 17.2283 36.2662 17.3831C36.3157 17.5379 36.32 17.7037 36.2787 17.8609C36.2373 18.0181 36.1519 18.1602 36.0326 18.2706L31.8689 22.2189C31.8058 22.3372 31.7728 22.4692 31.7728 22.6033C31.7728 22.7374 31.8058 22.8694 31.8689 22.9877L32.6674 28.5889C32.7021 28.7512 32.6887 28.9201 32.6289 29.0749C32.5691 29.2298 32.4656 29.3638 32.3308 29.4607C32.1961 29.5577 32.036 29.6132 31.8702 29.6207C31.7044 29.6281 31.54 29.5871 31.3971 29.5026L26.3829 26.8506C26.2533 26.7921 26.1127 26.7619 25.9706 26.7619C25.8284 26.7619 25.6879 26.7921 25.5583 26.8506L20.544 29.5026C20.4013 29.5848 20.2378 29.624 20.0733 29.6154C19.9088 29.6069 19.7503 29.551 19.6169 29.4544C19.4834 29.3579 19.3807 29.2248 19.3212 29.0712C19.2616 28.9177 19.2477 28.7501 19.2811 28.5889L20.2246 22.9877C20.2661 22.8574 20.2743 22.7187 20.2484 22.5843C20.2224 22.45 20.1631 22.3243 20.076 22.2189L15.916 18.2409C15.8043 18.1291 15.7258 17.9887 15.6891 17.835C15.6525 17.6813 15.6592 17.5205 15.7084 17.3704C15.7577 17.2203 15.8476 17.0868 15.9682 16.9848C16.0887 16.8827 16.2353 16.8161 16.3914 16.7923L22.026 15.9714C22.1663 15.9585 22.3004 15.9078 22.4142 15.8248C22.528 15.7417 22.6172 15.6294 22.6723 15.4997L25.2091 10.4C25.2767 10.2551 25.3835 10.1321 25.5174 10.045C25.6514 9.95779 25.8071 9.90993 25.9669 9.90684C26.1267 9.90374 26.2841 9.94553 26.4213 10.0275C26.5586 10.1094 26.67 10.2282 26.7431 10.3703V10.3666Z" stroke="#2B3990" stroke-width="2.5" stroke-linecap="round" stroke-linejoin="round"/>
</svg>
