<svg width="26" height="25" viewBox="0 0 26 25" fill="none" xmlns="http://www.w3.org/2000/svg">
<path d="M13.0001 18.524C13.0841 18.468 13.1401 18.384 13.1961 18.328C14.3161 17.208 15.4081 16.116 16.5281 14.996C16.6961 14.828 16.8641 14.744 17.1161 14.744C20.7841 14.688 23.8921 17.264 24.6481 20.68C24.8441 21.604 24.8161 22.528 24.8161 23.452C24.8161 23.676 24.6201 23.816 24.3961 23.816C24.1721 23.816 24.0321 23.648 24.0321 23.424C24.0041 22.864 24.0601 22.304 23.9761 21.744C23.6961 19.084 22.2961 17.18 19.8601 16.06C19.6921 15.976 19.5241 15.92 19.3281 15.836C19.3281 15.92 19.3001 16.004 19.3001 16.06C19.3001 17.152 19.3001 18.216 19.3001 19.308C19.3001 19.448 19.3281 19.532 19.4681 19.588C20.1961 19.868 20.5881 20.596 20.4761 21.324C20.3361 22.08 19.6921 22.64 18.9361 22.64C18.1521 22.64 17.5081 22.136 17.3681 21.352C17.2281 20.624 17.6201 19.868 18.3201 19.588C18.4881 19.532 18.5161 19.448 18.5161 19.28C18.5161 18.076 18.5161 16.872 18.5161 15.612C18.0681 15.584 17.6201 15.556 17.1721 15.528C17.1161 15.528 17.0321 15.584 17.0041 15.64C15.8281 16.788 14.6801 17.964 13.5321 19.14C13.4481 19.224 13.4201 19.364 13.4201 19.448C13.4201 20.736 13.4201 22.052 13.4201 23.34C13.4201 23.648 13.2521 23.816 13.0001 23.788C12.7761 23.788 12.6361 23.62 12.6361 23.34C12.6361 22.052 12.6361 20.792 12.6361 19.504C12.6361 19.336 12.5801 19.196 12.4681 19.084C11.3201 17.964 10.2001 16.816 9.05212 15.696C8.96812 15.612 8.82812 15.556 8.68812 15.556C8.29612 15.556 7.90412 15.612 7.51212 15.64C7.51212 16.48 7.51212 17.292 7.51212 18.104C7.62412 18.132 7.76412 18.16 7.87612 18.188C8.80012 18.44 9.44412 19.28 9.47212 20.26C9.47212 20.904 9.47212 21.548 9.47212 22.192C9.47212 22.5 9.33212 22.64 9.02412 22.64C8.77212 22.64 8.54812 22.64 8.29612 22.64C8.04412 22.64 7.87612 22.472 7.87612 22.248C7.87612 22.024 8.04412 21.856 8.29612 21.856C8.40812 21.856 8.52012 21.856 8.68812 21.856C8.66012 21.184 8.68812 20.54 8.57612 19.896C8.49212 19.392 8.10012 19.028 7.56812 18.944C7.23212 18.888 6.84012 18.888 6.50412 18.972C5.91612 19.112 5.58012 19.56 5.52412 20.148C5.46812 20.708 5.52412 21.268 5.52412 21.856C5.66412 21.856 5.80412 21.856 5.91612 21.856C6.14012 21.856 6.30812 22.024 6.28012 22.248C6.28012 22.444 6.14012 22.612 5.91612 22.64C5.63612 22.64 5.35612 22.64 5.07612 22.64C4.88012 22.64 4.71212 22.5 4.71212 22.332C4.71212 21.52 4.65612 20.708 4.74012 19.896C4.85212 18.944 5.49612 18.384 6.44812 18.16C6.50412 18.132 6.58812 18.132 6.64412 18.104C6.64412 17.376 6.64412 16.648 6.64412 15.892C6.53212 15.92 6.44812 15.948 6.36412 15.976C3.92812 16.956 2.44412 18.72 2.02412 21.324C1.91212 21.996 1.94012 22.724 1.91212 23.396C1.91212 23.676 1.68812 23.9 1.43612 23.816C1.38012 23.76 1.21212 23.592 1.21212 23.48C1.10012 21.744 1.29612 20.036 2.24812 18.496C3.53612 16.368 5.44012 15.108 7.96012 14.8C8.29612 14.772 8.60412 14.772 8.94012 14.744C9.13612 14.716 9.30412 14.8 9.44412 14.94C10.5641 16.06 11.6841 17.18 12.8041 18.3C12.8601 18.384 12.9161 18.468 13.0001 18.524ZM19.6921 21.072C19.6921 20.652 19.3281 20.288 18.9081 20.288C18.4881 20.288 18.1241 20.652 18.1241 21.072C18.1241 21.492 18.4881 21.856 18.9081 21.856C19.3281 21.856 19.6921 21.492 19.6921 21.072Z" fill="#2B3C90" stroke="#2A3D90" stroke-width="0.5" stroke-miterlimit="10"/>
<path d="M18.6281 6.17605C19.6921 6.59605 19.9161 7.63205 19.5521 8.36005C19.3001 8.89205 18.8521 9.17205 18.2921 9.25605C18.2081 9.25605 18.0961 9.34005 18.0961 9.39605C17.9281 10.4601 17.3961 11.3281 16.6681 12.0841C16.3321 12.4201 15.9121 12.7281 15.5481 13.0361C15.4641 13.0921 15.4081 13.2321 15.3801 13.3161C15.3521 13.7641 15.3801 14.2401 15.3801 14.6881C15.3801 14.9681 15.2401 15.1361 14.9881 15.1361C14.7361 15.1361 14.5961 14.9681 14.5961 14.6601C14.5961 14.2961 14.5961 13.9321 14.5961 13.5401C13.5321 14.0721 12.4961 14.0721 11.4321 13.5401C11.4321 13.9601 11.4321 14.3241 11.4321 14.6881C11.4321 14.9681 11.2921 15.1361 11.0401 15.1361C10.7881 15.1361 10.6481 14.9681 10.6481 14.6881C10.6481 14.2401 10.6481 13.8201 10.6481 13.3721C10.6481 13.1761 10.5921 13.0921 10.4521 12.9801C9.44413 12.2801 8.60413 11.4121 8.15613 10.2361C8.04413 9.92805 7.96013 9.59205 7.87613 9.25605C6.95213 9.11605 6.42013 8.64005 6.30813 7.88405C6.19613 7.15605 6.58813 6.54005 7.37213 6.14805C7.28813 5.72805 7.17613 5.33605 7.09213 4.91605C6.84013 3.79605 7.23213 2.84405 7.98813 2.03205C8.80013 1.16405 9.80813 0.660051 10.9561 0.408051C12.8601 -0.0399486 14.7361 0.0720514 16.5001 0.968051C16.9761 1.22005 17.4241 1.52805 17.8161 1.89205C18.7961 2.78805 19.1601 3.90805 18.7961 5.22405C18.7681 5.53205 18.6841 5.84005 18.6281 6.17605ZM8.66013 6.73605C8.66013 7.40805 8.66013 8.05205 8.66013 8.72405C8.66013 9.31205 8.80013 9.87205 9.08013 10.4041C9.78013 11.6361 10.8161 12.4761 12.1041 13.0081C12.7201 13.2601 13.3361 13.2321 13.9521 12.9801C14.9881 12.5601 15.8281 11.8881 16.5281 11.0201C16.9481 10.4601 17.2561 9.87205 17.3121 9.17205C17.3681 8.36005 17.3401 7.57605 17.3401 6.76405C17.3401 6.70805 17.2841 6.65205 17.2281 6.62405C16.5561 6.20405 15.9961 5.64405 15.4921 5.05605C15.2961 4.83205 15.1001 4.58005 14.8761 4.32805C12.9721 5.53205 10.9001 6.34405 8.66013 6.73605ZM17.8441 6.06405C17.9561 5.56005 18.0401 5.14005 18.1521 4.74805C18.3201 4.02005 18.0961 3.40405 17.6481 2.84405C17.2561 2.34005 16.7521 2.00405 16.2201 1.69605C15.3801 1.24805 14.4841 1.05205 13.5321 0.996051C12.0201 0.912051 10.5641 1.16405 9.30413 2.03205C8.63213 2.50805 8.07213 3.06805 7.90413 3.90805C7.76413 4.63605 8.07213 5.30805 8.21213 6.03605C8.80013 5.89605 9.33213 5.78405 9.86413 5.64405C11.5721 5.16805 13.2241 4.52405 14.6801 3.48805C14.9881 3.26405 15.1561 3.29205 15.4081 3.60005C15.9401 4.21605 16.4441 4.83205 17.0041 5.39205C17.2001 5.64405 17.5081 5.81205 17.8441 6.06405ZM7.87613 8.44405C7.87613 7.91205 7.87613 7.40805 7.87613 6.90405C7.40013 6.96005 7.09213 7.26805 7.09213 7.68805C7.09213 8.08005 7.40013 8.38805 7.87613 8.44405ZM18.1521 8.44405C18.6281 8.38805 18.9361 8.08005 18.9361 7.66005C18.9361 7.24005 18.6001 6.93205 18.1521 6.90405C18.1521 7.40805 18.1521 7.91205 18.1521 8.44405Z" fill="#2A3D90" stroke="#2A3D90" stroke-width="0.25" stroke-miterlimit="10"/>
<path d="M13.0001 11.6081C12.5241 11.6081 12.0761 11.4681 11.6561 11.1881C11.4321 11.0201 11.3481 10.7961 11.4881 10.6001C11.6281 10.4041 11.8521 10.3761 12.0761 10.5161C12.6921 10.9081 13.3081 10.9081 13.9241 10.5161C14.1761 10.3481 14.4001 10.3761 14.5401 10.6001C14.6801 10.7961 14.5961 11.0201 14.3721 11.1881C13.9521 11.4681 13.5041 11.6081 13.0001 11.6081Z" fill="#2A3D90" stroke="#2A3D90" stroke-width="0.25" stroke-miterlimit="10"/>
<path d="M11.432 7.6601C11.432 8.1081 11.096 8.4721 10.648 8.4441C10.2 8.4441 9.86401 8.1081 9.86401 7.6601C9.86401 7.2121 10.2 6.8761 10.648 6.8761C11.068 6.8761 11.432 7.2401 11.432 7.6601Z" fill="#2A3D90" stroke="#2A3D90" stroke-width="0.25" stroke-miterlimit="10"/>
<path d="M14.5961 7.6321C14.5961 7.1841 14.9881 6.8761 15.4361 6.8761C15.8561 6.9041 16.1921 7.2681 16.1641 7.6881C16.1641 8.1081 15.8001 8.4441 15.3521 8.4441C14.9041 8.4441 14.5681 8.0801 14.5961 7.6321Z" fill="#2A3D90" stroke="#2A3D90" stroke-width="0.25" stroke-miterlimit="10"/>
</svg>
