<svg width="52" height="52" viewBox="0 0 52 52" fill="none" xmlns="http://www.w3.org/2000/svg">
<path d="M12.2197 47.8929C12.1677 47.7369 12.1677 47.5809 12.1157 47.4249C12.1157 46.5409 12.1157 45.7089 12.1157 44.8249C12.1157 44.6689 12.0117 44.4089 11.9077 44.3049C10.1917 42.3289 8.47567 40.3009 6.75967 38.3769C5.56367 37.0249 4.62767 35.4649 4.36767 33.6449C4.31567 33.2289 4.26367 32.8129 4.26367 32.3969C4.26367 30.1609 4.26367 27.9249 4.26367 25.6889C4.26367 24.2329 5.35567 23.2449 6.75967 23.4009C7.79967 23.5569 8.31967 24.2849 8.57967 25.2209C8.78767 26.0009 8.94367 26.7809 9.09967 27.5609C9.35967 28.7569 9.61967 30.0049 9.87967 31.2009C9.93167 31.4089 10.0357 31.6689 10.1917 31.8249C10.5037 32.1889 10.8157 32.5009 11.1797 32.8649C11.5437 32.0849 12.0117 31.5649 12.8437 31.4089C13.6237 31.2529 14.2997 31.4089 14.8197 31.9289C16.2237 33.2809 17.5757 34.6329 18.9277 36.0369C20.1757 37.3369 20.7997 38.9489 20.7997 40.7689C20.7997 43.0569 20.7997 45.2929 20.7997 47.5809C20.7997 47.6849 20.7477 47.7889 20.7477 47.8929C17.9397 47.8929 15.0797 47.8929 12.2197 47.8929ZM19.6037 46.6449C19.6037 44.5129 19.6557 42.3809 19.6037 40.3009C19.5517 39.0009 19.0317 37.8569 18.1477 36.9209C16.7957 35.5169 15.4437 34.1649 14.0917 32.8129C13.8837 32.6049 13.4677 32.5009 13.1557 32.5529C12.3237 32.7089 12.1157 33.6449 12.6877 34.2689C13.6237 35.2049 14.5597 36.1409 15.4437 37.0769C15.8077 37.4409 15.8597 37.8049 15.5997 38.0649C15.3397 38.3249 14.9757 38.2729 14.6117 37.9089C12.7917 36.0369 10.9197 34.2169 9.09967 32.3449C8.94367 32.1889 8.83967 32.0329 8.83967 31.8249C8.52767 30.3169 8.21567 28.8089 7.85167 27.2489C7.69567 26.5209 7.53967 25.8449 7.33167 25.1169C7.17567 24.5969 6.81167 24.4409 6.34367 24.4929C5.87567 24.5449 5.56367 24.9089 5.51167 25.4289C5.51167 25.5849 5.51167 25.6889 5.51167 25.8449C5.51167 27.8209 5.51167 29.7969 5.51167 31.7729C5.45967 33.9049 6.18767 35.7769 7.59167 37.3369C9.46367 39.4169 11.2837 41.5489 13.1037 43.6809C13.2597 43.8369 13.3117 44.0969 13.3637 44.3049C13.4157 45.0329 13.3637 45.7609 13.3637 46.4889C15.4437 46.6449 17.5237 46.6449 19.6037 46.6449Z" fill="#2B3990"/>
<path d="M31.1996 47.8923C31.1996 47.7363 31.1476 47.5803 31.1476 47.3723C31.1476 45.2923 31.1476 43.1603 31.1476 41.0803C31.1476 38.9483 31.8756 37.1283 33.3836 35.6203C34.5796 34.4763 35.7236 33.3323 36.8676 32.1363C38.0116 30.8363 40.0396 31.0443 40.7676 32.8123C41.1836 32.3963 41.5476 31.9803 41.9116 31.6163C42.0156 31.5123 42.0156 31.4083 42.0676 31.2523C42.4836 29.3803 42.8476 27.4563 43.2636 25.5843C43.3676 25.1683 43.5236 24.7523 43.7316 24.3363C44.1996 23.5563 45.0316 23.2443 45.9156 23.4003C46.7476 23.5563 47.4756 24.2843 47.6316 25.1163C47.6836 25.3243 47.6836 25.5843 47.6836 25.7923C47.6836 27.8723 47.6836 29.9003 47.6836 31.9803C47.6836 34.2683 46.9556 36.2963 45.4476 38.0643C43.6276 40.1443 41.8076 42.2243 40.0396 44.3043C39.9356 44.4603 39.8316 44.6683 39.8316 44.8763C39.8316 45.8643 39.8316 46.9043 39.8316 47.8923C36.9716 47.8923 34.1116 47.8923 31.1996 47.8923ZM38.6876 46.6443C38.6876 45.9163 38.6876 45.1883 38.6876 44.4603C38.6876 44.2523 38.7916 43.9923 38.9476 43.8363C40.7676 41.7043 42.6396 39.5723 44.5116 37.4403C45.9156 35.8803 46.5916 34.0603 46.5916 31.9283C46.5916 29.9003 46.5916 27.9243 46.5916 25.8963C46.5916 25.6883 46.5916 25.4803 46.5396 25.3243C46.4356 24.9083 46.1756 24.7003 45.7596 24.6483C45.3436 24.5963 45.0316 24.7523 44.8236 25.1163C44.7196 25.3243 44.6156 25.5843 44.5636 25.8443C44.1476 27.8723 43.7316 29.8483 43.2636 31.8763C43.2116 32.0843 43.1076 32.3443 42.9516 32.5003C41.9116 33.5403 40.8716 34.5803 39.8316 35.6203C39.0516 36.4523 38.2196 37.2323 37.4396 38.0643C37.2316 38.2723 36.9716 38.4283 36.6596 38.2723C36.2436 38.1163 36.1916 37.5963 36.5556 37.2323C37.4916 36.2963 38.4276 35.3603 39.3636 34.4243C39.8316 33.9043 39.8836 33.3323 39.4156 32.9163C38.9996 32.5003 38.4276 32.5523 37.9076 33.0203C36.6076 34.3203 35.3076 35.6203 34.0596 36.9203C33.1236 37.9083 32.4996 39.1043 32.4476 40.4563C32.3956 42.5363 32.3956 44.6163 32.3956 46.6963C32.3956 46.6963 32.4476 46.7483 32.4476 46.8003C34.4756 46.6443 36.5556 46.6443 38.6876 46.6443Z" fill="#2B3990"/>
<path d="M33.9557 15.3929C33.8517 15.0809 33.6957 14.6649 33.5397 14.2489C32.6037 14.6129 31.8237 15.1849 31.2517 16.0169C29.8997 18.0449 29.6917 20.1769 30.4717 22.4129C30.9397 23.7649 31.5637 25.1169 32.1357 26.4169C32.2397 26.6769 32.4477 26.8329 32.6557 27.0409C34.4757 29.3289 34.3197 32.2929 32.1877 34.3729C31.6157 34.9449 30.8877 35.4129 30.1597 35.8289C28.9637 36.4529 28.3917 37.3369 28.4437 38.6889C28.4437 39.0529 28.4437 39.3649 28.4437 39.7289C28.4437 40.0929 28.2357 40.3009 27.8197 40.3009C26.6757 40.3009 25.5317 40.3009 24.3357 40.3009C23.9197 40.3009 23.7637 40.0409 23.7117 39.6769C23.7117 39.2609 23.7117 38.8969 23.7117 38.4809C23.7117 37.3369 23.1917 36.4529 22.0997 35.9329C21.1637 35.4649 20.2797 34.8929 19.6037 34.1129C17.6797 31.9289 17.6797 28.9649 19.6557 26.8329C19.8117 26.6769 19.9157 26.4689 20.0197 26.2609C20.7997 24.7009 21.5277 23.0889 21.8397 21.3729C22.2557 19.3969 21.8397 17.6289 20.7477 15.9649C20.1757 15.1329 19.4477 14.6129 18.5117 14.2489C18.3557 14.6649 18.1997 15.0289 18.0957 15.4449C18.4597 15.7049 18.8757 15.9649 19.2397 16.2769C20.9037 17.6809 20.9037 19.7089 19.2397 21.1129C17.7317 22.3609 15.9117 22.7769 14.0397 22.6209C12.6877 22.5169 11.6997 21.5809 10.9197 20.5409C7.48767 16.0169 7.69567 10.4009 11.2317 6.13689C13.2597 3.74489 15.8597 3.58889 18.7717 5.04489C19.2397 5.30489 19.6557 5.66889 20.0717 6.03289C21.2677 7.28089 21.2677 9.04888 20.1237 10.3489C19.5517 11.0249 18.8237 11.4409 17.9917 11.8049C18.0957 12.1689 18.2517 12.4809 18.3557 12.8449C18.4077 12.9489 18.5117 13.0009 18.6157 13.0529C21.6317 14.3009 23.2957 16.9529 23.1917 20.2289C23.1397 21.7889 22.6717 23.1929 22.0997 24.5969C22.0477 24.7529 21.9437 24.9609 21.8397 25.1689C24.5957 23.9729 27.2997 23.9209 30.1077 25.1689C29.8477 24.5449 29.6397 23.9729 29.4317 23.3489C28.9117 21.7889 28.5477 20.1769 28.9117 18.5649C29.4317 15.9649 30.7317 13.9369 33.3317 13.0009C33.4877 12.9489 33.5917 12.7929 33.6437 12.6889C33.7997 12.4289 33.9037 12.1169 34.0077 11.8049C33.5917 11.5449 33.1237 11.3369 32.7077 11.0249C31.8237 10.4009 31.1997 9.56889 31.0957 8.42489C30.9917 7.33289 31.4077 6.44889 32.1877 5.77289C33.8517 4.31689 35.8277 3.79689 37.9597 4.21289C39.3117 4.47289 40.2477 5.40889 41.0797 6.44888C44.5637 10.8689 44.3557 16.4849 40.9237 20.8009C39.5197 22.5689 37.6997 22.9329 35.6197 22.4129C34.4237 22.1009 33.3317 21.6329 32.4477 20.6969C31.3037 19.4489 31.3037 17.8369 32.4477 16.5889C32.8637 16.1729 33.4357 15.8609 33.9557 15.3929ZM9.61967 13.4689C9.61967 15.8089 10.4517 17.8889 11.8037 19.7609C12.7917 21.0609 13.9877 21.7369 15.7037 21.3729C16.6397 21.1649 17.5757 20.9049 18.3557 20.2809C19.4997 19.3449 19.4997 18.0969 18.3557 17.2129C17.9397 16.9009 17.4717 16.6409 17.0557 16.4329C16.3797 16.1209 16.2757 15.8089 16.6917 15.2369C17.4717 14.1969 17.4197 13.1049 16.5877 12.0649C16.1197 11.4929 16.2237 11.0769 16.9517 10.8689C17.7317 10.6089 18.5117 10.2449 19.0837 9.62088C19.9157 8.73689 19.9157 7.64489 19.0317 6.76089C18.4077 6.13689 17.6797 5.77289 16.8477 5.56489C14.8717 4.99289 13.2597 5.40889 11.9597 7.02089C10.5037 8.89289 9.67167 11.0249 9.61967 13.4689ZM42.3277 13.4689C42.3277 13.3129 42.3277 13.1049 42.3277 12.9489C42.3277 12.6889 42.2757 12.4809 42.2757 12.2209C41.9637 9.98488 41.0277 8.00889 39.3637 6.39689C38.8437 5.87689 38.2717 5.46089 37.5437 5.35689C35.8797 5.14889 34.2677 5.51289 33.0197 6.65689C31.9797 7.59289 31.9797 8.84088 33.0717 9.82888C33.6437 10.3489 34.3197 10.6609 35.0477 10.8689C35.7237 11.0769 35.8277 11.4929 35.4117 12.0129C34.5277 13.0529 34.5277 14.1449 35.3597 15.2369C35.7237 15.7049 35.6197 16.0689 35.0477 16.3289C34.5797 16.5369 34.0597 16.7969 33.6957 17.1089C32.5517 18.0449 32.5517 19.2929 33.6957 20.2289C34.4237 20.8009 35.3077 21.1129 36.1917 21.3209C37.8037 21.6849 39.1037 21.2689 40.0917 19.9169C41.4957 18.0449 42.3277 15.9129 42.3277 13.4689ZM27.1437 39.1569C27.1437 39.0009 27.1437 38.8449 27.1437 38.6889C27.1437 36.9209 27.9237 35.6209 29.5357 34.8409C30.0557 34.5809 30.5757 34.2689 30.9917 33.9049C33.2277 31.9809 33.2277 29.0169 30.9397 27.1449C29.7437 26.1569 28.3397 25.6369 26.8317 25.4809C24.6477 25.2729 22.6197 25.7409 20.9557 27.2489C19.0317 28.9129 18.8237 31.3569 20.4357 33.2809C21.0597 34.0089 21.8397 34.5289 22.6717 34.9449C23.9717 35.5689 24.6997 36.6609 24.8557 38.1169C24.9077 38.4289 24.9077 38.7929 24.9077 39.1569C25.6357 39.1569 26.3637 39.1569 27.1437 39.1569Z" fill="#2B3990"/>
<path d="M21.6837 10.6601C21.6317 8.37207 23.5557 6.34407 25.8437 6.29207C28.3397 6.24007 30.3157 8.11207 30.3677 10.5561C30.4197 12.8961 28.4957 14.8721 26.2077 14.9241C23.7117 14.9761 21.7357 13.1041 21.6837 10.6601ZM25.9997 7.48807C24.2837 7.48807 22.8797 8.89207 22.8797 10.6081C22.8797 12.3241 24.2837 13.7281 25.9997 13.7281C27.7157 13.7281 29.1197 12.3241 29.1197 10.6081C29.1197 8.89207 27.7157 7.48807 25.9997 7.48807Z" fill="#2B3990"/>
<path d="M25.9997 29.9531C27.5597 29.9531 29.1717 29.9531 30.7317 29.9531C31.4077 29.9531 31.6157 30.1611 31.5637 30.8891C31.4597 31.9291 30.8877 32.7091 30.0557 33.3331C29.6397 33.6451 29.1717 33.9051 28.7557 34.1131C27.8197 34.6331 27.0917 35.3091 26.6237 36.2451C26.4677 36.5051 26.3117 36.7651 25.9997 36.7651C25.6357 36.7651 25.4797 36.5051 25.3757 36.2451C24.8557 35.2571 24.0757 34.5291 23.0877 34.0611C22.3597 33.6971 21.6837 33.2291 21.1637 32.6051C20.7477 32.0851 20.4877 31.5651 20.4357 30.8891C20.3837 30.2131 20.5917 30.0051 21.2157 30.0051C22.8277 29.9531 24.3877 29.9531 25.9997 29.9531ZM21.7357 31.1491C21.9437 31.8251 22.5157 32.3451 23.3997 32.8651C24.0237 33.2291 24.5957 33.5931 25.1677 34.0091C25.4797 34.2691 25.7397 34.6331 26.1037 34.9451C26.8317 33.8531 27.9237 33.2291 29.0157 32.6571C29.4837 32.3971 29.7957 31.9811 30.1597 31.6171C30.2637 31.5131 30.2637 31.3571 30.3677 31.2011C27.4037 31.1491 24.5957 31.1491 21.7357 31.1491Z" fill="#2B3990"/>
<path d="M26.5717 11.181C26.5717 11.545 26.5717 11.857 26.5717 12.169C26.5717 12.533 26.3637 12.741 25.9997 12.793C25.6357 12.793 25.4277 12.585 25.3757 12.169C25.3757 11.857 25.3757 11.545 25.3757 11.181C25.0637 11.181 24.7517 11.181 24.4397 11.181C23.9717 11.181 23.7637 10.921 23.7637 10.609C23.7637 10.245 24.0237 10.037 24.4397 10.037C24.5957 10.037 24.7517 10.037 24.9077 10.037C25.0637 10.037 25.1677 10.037 25.3757 10.037C25.3757 9.67305 25.3757 9.36105 25.3757 9.04905C25.3757 8.63305 25.6357 8.37305 25.9477 8.37305C26.3117 8.37305 26.5717 8.63305 26.5717 9.04905C26.5717 9.36105 26.5717 9.62105 26.5717 10.037C26.8837 10.037 27.1957 10.037 27.5077 10.037C27.9237 10.037 28.1837 10.297 28.1837 10.661C28.1837 11.025 27.9237 11.233 27.5077 11.233C27.2477 11.233 26.9357 11.181 26.5717 11.181Z" fill="#2B3990"/>
</svg>
