<svg width="132" height="134" viewBox="0 0 132 134" fill="none" xmlns="http://www.w3.org/2000/svg">
<g clip-path="url(#clip0_868_2863)">
<path d="M32.6132 95.1381L46.4969 86.5271L43.3879 94.6656L46.9328 103.235L32.6132 95.1381Z" fill="black"/>
<path d="M37.7448 93.8097C37.7162 93.9269 37.8305 94.0877 38.075 94.2655C38.2036 94.3612 38.3584 94.4576 38.5393 94.5548C38.6296 94.6099 38.7329 94.6654 38.8494 94.7213L39.0174 94.8049C39.0822 94.8331 39.1339 94.8608 39.1986 94.889C39.4575 95.0015 39.7426 95.1148 40.0537 95.229C40.1316 95.2575 40.2093 95.286 40.3002 95.3149C40.3779 95.3435 40.4688 95.3724 40.5597 95.4013C40.7283 95.4587 40.9103 95.5034 41.105 95.5616C41.4818 95.6645 41.884 95.7943 42.3262 95.886C42.5474 95.9318 42.7683 95.9908 43.0025 96.037C43.1194 96.0667 43.2366 96.0832 43.3536 96.1129C43.4706 96.1426 43.5878 96.1591 43.7181 96.1761C45.6575 96.5215 48.0309 96.7222 50.6463 96.6017C50.8163 96.5935 50.973 96.5981 51.1432 96.5769L51.6405 96.5389C51.9807 96.5095 52.3078 96.4928 52.6613 96.4506C53.0019 96.4081 53.3555 96.3659 53.6961 96.3234C53.8663 96.3021 54.0497 96.2812 54.22 96.2599C54.3905 96.2255 54.5738 96.2046 54.7444 96.1702C54.9149 96.1358 55.0982 96.1149 55.2688 96.0806C55.4524 96.0466 55.6227 96.0253 55.8066 95.9781C56.1607 95.9097 56.5151 95.8283 56.8823 95.7602C56.9743 95.7366 57.066 95.7262 57.1579 95.7027L57.4071 95.6574C57.591 95.6103 57.7618 95.5628 57.9456 95.5157C58.1295 95.4686 58.3134 95.4214 58.4842 95.374C58.6681 95.3268 58.8523 95.2665 59.0231 95.219C59.207 95.1719 59.4176 95.0993 59.6408 95.0402C59.7591 95.0043 59.8775 94.9684 60.0089 94.9329C60.1402 94.8973 60.2719 94.8486 60.4035 94.8001C60.6799 94.7031 60.9824 94.6069 61.2983 94.4981C61.377 94.4741 61.456 94.4502 61.5482 94.4135C61.6273 94.3765 61.7193 94.3529 61.7984 94.3158C61.9695 94.2551 62.1409 94.1814 62.325 94.1212C63.7735 93.573 65.54 92.8108 67.4957 91.7392C67.985 91.4648 68.487 91.1908 69.0031 90.8777C69.2672 90.741 69.5188 90.5778 69.7835 90.4149C70.0351 90.2516 70.3 90.0756 70.565 89.8995C70.6975 89.8116 70.8299 89.7236 70.9624 89.6355C71.0285 89.5981 71.0949 89.5476 71.1612 89.497C71.2276 89.4465 71.2937 89.409 71.3601 89.3584C71.6253 89.1693 71.8905 88.9803 72.1689 88.7915C72.3013 88.7035 72.4344 88.5892 72.5671 88.4881C72.6998 88.3869 72.8326 88.2859 72.9654 88.1848C73.2311 87.9694 73.5097 87.7675 73.7757 87.5391C74.0417 87.3106 74.3206 87.0956 74.5996 86.8675C74.666 86.817 74.7326 86.7533 74.7993 86.6896C74.866 86.626 74.9323 86.5754 74.999 86.5117C75.1323 86.3844 75.2653 86.2702 75.4116 86.1432C75.5449 86.0158 75.6911 85.902 75.8243 85.7746C75.9576 85.6473 76.0909 85.5199 76.2241 85.3925C76.3575 85.2652 76.4908 85.1378 76.6244 84.9973C76.691 84.9337 76.7576 84.87 76.8246 84.7932L76.9312 84.6913L77.0248 84.5891C77.2917 84.3212 77.5588 84.0403 77.8258 83.7594C77.8928 83.6825 77.9594 83.6189 78.0264 83.5422C78.0934 83.4653 78.1599 83.4016 78.2268 83.3249C78.3604 83.1844 78.4812 83.0305 78.615 82.8769C78.7489 82.7232 78.8825 82.5828 79.0032 82.4288C79.124 82.2749 79.2578 82.1213 79.3786 81.9673C79.4995 81.8134 79.6333 81.6598 79.7543 81.4926C79.8213 81.4159 79.8881 81.3391 79.9421 81.2619C80.0089 81.1851 80.0631 81.0948 80.13 81.018C80.3721 80.6838 80.6271 80.3631 80.8692 80.029C80.9902 79.8619 81.1113 79.6948 81.2326 79.5146C81.3536 79.3476 81.4619 79.167 81.583 78.9999C82.0547 78.3049 82.5011 77.5699 82.935 76.8082C83.3689 76.0464 83.777 75.2709 84.147 74.4417C84.5168 73.6257 84.8609 72.7826 85.1537 71.8987C85.2366 71.678 85.2935 71.4566 85.3634 71.2355C85.4333 71.0144 85.4902 70.793 85.5604 70.5588C85.6173 70.3373 85.6744 70.1027 85.7313 69.8812C85.7598 69.764 85.7881 69.6598 85.8167 69.5425C85.8453 69.4252 85.8739 69.3079 85.8894 69.1903C86.0785 68.2639 86.2287 67.3233 86.3139 66.3676C86.3319 66.1319 86.3632 65.8835 86.3812 65.6478C86.3861 65.4117 86.4043 65.1628 86.4093 64.9267C86.4455 64.4422 86.4295 63.9561 86.4265 63.4704C86.4317 63.2212 86.4105 62.9843 86.4026 62.7347C86.3946 62.4982 86.3736 62.2482 86.3657 61.9986C86.3446 61.7617 86.3237 61.5118 86.2896 61.2614L86.2581 60.893L86.247 60.8008L86.2359 60.7086L86.2136 60.5242C86.1795 60.2738 86.1453 60.0366 86.1114 59.7862L86.089 59.6018C86.0773 59.5358 86.0654 59.483 86.0537 59.417L85.983 59.0475C85.9357 58.8098 85.8887 58.5591 85.8413 58.3215C85.781 58.0834 85.721 57.8323 85.6606 57.5943L85.5765 57.2375C85.5398 57.1184 85.5031 56.9991 85.4664 56.8799C85.3929 56.6415 85.3196 56.4031 85.2461 56.1647C85.2094 56.0455 85.1728 55.9263 85.1229 55.8067L84.9997 55.4488L84.8765 55.0908L84.8148 54.9183C84.7898 54.8651 84.7651 54.7988 84.7401 54.7456C84.6405 54.5064 84.5538 54.2807 84.4542 54.0415C84.4045 53.922 84.3678 53.8028 84.3047 53.6959L84.1421 53.35C84.0292 53.1236 83.9294 52.8976 83.8168 52.658C83.7039 52.4316 83.5911 52.2051 83.4651 51.9783C82.9743 51.0846 82.4175 50.2153 81.7817 49.3829C81.1455 48.5637 80.4302 47.7816 79.6085 47.0881C78.7869 46.3948 77.8849 45.791 76.8886 45.3287C76.8239 45.3006 76.7592 45.2724 76.7075 45.2447L76.5133 45.1602C76.3838 45.104 76.2671 45.0611 76.1376 45.0049C75.8785 44.9054 75.5929 44.8183 75.2939 44.744C74.995 44.6696 74.6563 44.6204 74.3035 44.6232C73.9511 44.6128 73.5713 44.6542 73.1899 44.7744C72.835 44.8821 72.4786 45.0554 72.147 45.2951C71.8285 45.5351 71.5611 45.8292 71.3585 46.1514C71.1557 46.4737 71.0183 46.7977 70.9201 47.123C70.822 47.4482 70.7631 47.7615 70.7304 48.0755C70.6654 48.6905 70.7056 49.2692 70.7852 49.8359C70.8782 50.3899 71.0107 50.9318 71.2086 51.4626C71.2581 51.5953 71.3076 51.728 71.3571 51.8607L71.3943 51.9536L71.4319 52.0335L71.5067 52.2063L71.6693 52.5523L71.8322 52.8852C71.8823 52.9916 71.9451 53.1115 71.9951 53.2181L72.1711 53.5513C72.2839 53.7778 72.4101 53.9914 72.5363 54.2052C73.0409 55.073 73.5981 55.9161 74.2217 56.7087C74.8454 57.5013 75.5223 58.243 76.2661 58.9078C79.2142 61.6322 83.2593 63.1153 87.0971 62.6369C89.0093 62.404 90.7888 61.6423 92.261 60.5828C93.0037 60.0532 93.6566 59.4424 94.2446 58.8033C94.8327 58.1643 95.3567 57.4709 95.8023 56.7751C96.7199 55.3713 97.3911 53.8816 97.8917 52.4262C98.3925 50.9578 98.7365 49.4978 98.9357 48.0862C98.9655 47.9164 98.9822 47.7332 99.012 47.5634C99.0269 47.472 99.0285 47.3933 99.0435 47.3019C99.0454 47.2101 99.0602 47.1317 99.0621 47.0399C99.0787 46.8698 99.0952 46.6997 99.1119 46.5295C99.1285 46.3594 99.1451 46.1893 99.1486 46.0187C99.1688 45.6781 99.1887 45.3505 99.2085 45.0229C99.2154 44.695 99.2222 44.3671 99.229 44.0391C99.2428 42.7534 99.1767 41.5308 99.0697 40.3989C99.0362 40.1223 99.0031 39.8326 98.9696 39.556C98.9362 39.2795 98.8895 39.0156 98.8557 38.752C98.8323 38.6201 98.8221 38.4886 98.7987 38.3566C98.7753 38.2247 98.7517 38.1059 98.7283 37.974C98.6812 37.7232 98.6342 37.4725 98.5869 37.2348C98.3849 36.2708 98.181 35.3986 97.9359 34.6172C97.8747 34.4185 97.8264 34.2332 97.7649 34.0478C97.7035 33.8622 97.6417 33.6898 97.593 33.5177C97.5313 33.3453 97.4823 33.1864 97.4203 33.0271C97.3714 32.8681 97.3094 32.7088 97.2471 32.5626C97.1979 32.4168 97.1356 32.2706 97.0861 32.1379C97.0366 32.0052 96.9871 31.8725 96.9243 31.7526C96.8247 31.5134 96.725 31.2875 96.6377 31.088C96.5504 30.8886 96.4625 30.7154 96.3872 30.5687C96.3119 30.4222 96.2491 30.3023 96.186 30.1954C96.0722 30.0083 96.0089 29.9146 95.9697 29.9135C95.9434 29.9258 95.9539 30.0442 96.0018 30.2557C96.0257 30.3614 96.0622 30.4936 96.1111 30.6526C96.16 30.8115 96.2218 30.984 96.2696 31.1953C96.3308 31.394 96.3912 31.632 96.4643 31.8835C96.5008 32.0158 96.5372 32.1481 96.5737 32.2804C96.6101 32.4128 96.6462 32.5582 96.6952 32.7171C96.7313 32.8625 96.7803 33.0215 96.8162 33.18C96.8521 33.3386 96.9008 33.5106 96.9364 33.6823C96.972 33.8539 97.0207 34.026 97.0691 34.2112C97.1044 34.3959 97.1528 34.5811 97.1879 34.7789C97.3546 35.5582 97.5063 36.4289 97.6433 37.3779C97.6776 37.6151 97.6987 37.852 97.7327 38.1023C97.7433 38.2208 97.7667 38.3528 97.7773 38.4711C97.7876 38.6027 97.7982 38.7212 97.8085 38.8527C97.8292 39.1158 97.8632 39.3662 97.8835 39.6424C97.9042 39.9055 97.9115 40.1813 97.9319 40.4576C97.9873 41.5617 97.9888 42.743 97.924 43.9748C97.9044 44.2892 97.885 44.5905 97.8652 44.918C97.8325 45.2321 97.7995 45.5592 97.7668 45.8733C97.6882 46.5141 97.609 47.1812 97.4778 47.8336C97.2413 49.1523 96.8732 50.5196 96.349 51.8562C95.8374 53.2063 95.1695 54.5385 94.3078 55.7733C93.4459 57.0082 92.3902 58.1453 91.1179 59.0137C90.482 59.4414 89.7951 59.802 89.071 60.0696C88.8865 60.143 88.7027 60.1901 88.5185 60.2504C88.4263 60.287 88.3344 60.3105 88.2425 60.3341C88.1505 60.3577 88.0586 60.3813 87.9536 60.4044C87.7566 60.4512 87.5731 60.4852 87.3763 60.5188C87.18 60.5393 86.9833 60.5729 86.7869 60.5934C85.216 60.7444 83.562 60.4991 82.0198 59.9029C81.2422 59.6045 80.4923 59.2282 79.7832 58.7744C79.0741 58.3205 78.4059 57.7892 77.7782 57.1933C76.5357 56.002 75.4683 54.5664 74.6127 52.9927C74.5123 52.7929 74.3986 52.6058 74.2985 52.3929C74.1982 52.1931 74.0978 51.9933 74.0105 51.7939L73.8731 51.488L73.7359 51.1821L73.6739 51.0228L73.6363 50.9429L73.6115 50.8766C73.5743 50.7836 73.5371 50.6907 73.5129 50.5981C73.3899 50.227 73.2937 49.8304 73.2494 49.4486C73.192 49.0662 73.1868 48.6854 73.2331 48.3455C73.2794 48.0056 73.3766 47.7328 73.4845 47.5654C73.5384 47.4882 73.592 47.4242 73.6581 47.3867C73.8003 47.4565 73.8795 47.4194 73.9715 47.3959C74.0503 47.3719 74.155 47.3619 74.2725 47.3653C74.3901 47.3688 74.5462 47.3995 74.7023 47.4304C74.8582 47.4742 75.0399 47.5321 75.2213 47.6031L75.506 47.7295L75.6486 47.7861C75.7006 47.8008 75.7392 47.8282 75.7908 47.856C77.265 48.5815 78.56 49.7612 79.5891 51.1563C80.1102 51.854 80.5649 52.6023 80.9797 53.3888C81.0801 53.5886 81.1803 53.7884 81.281 53.9752C81.3683 54.1746 81.4553 54.3871 81.5557 54.5869L81.693 54.8927C81.743 54.9992 81.78 55.1053 81.8173 55.1982C81.8913 55.4104 81.9785 55.6098 82.0525 55.822C82.0775 55.8752 82.0895 55.9281 82.1145 55.9813L82.1373 56.1395L82.2353 56.4574L82.3332 56.7752C82.3702 56.8813 82.4071 56.9873 82.4311 57.093C82.492 57.3048 82.5529 57.5166 82.6138 57.7284C82.6377 57.8341 82.6746 57.9401 82.6986 58.0458L82.7705 58.363C82.8183 58.5743 82.8661 58.7857 82.9137 59.0102C82.9616 59.2217 82.9961 59.4458 83.0309 59.6568L83.1029 59.9607C83.1149 60.0136 83.1268 60.0665 83.1258 60.119L83.1486 60.2771C83.1831 60.5013 83.2179 60.7123 83.2397 60.9229L83.2625 61.0811L83.2739 61.1601L83.2854 61.2392L83.3176 61.5683C83.3394 61.779 83.3479 62.0023 83.3696 62.2129C83.3783 62.4232 83.3867 62.6466 83.3954 62.8568C83.404 63.067 83.4125 63.2905 83.4081 63.5003C83.3991 63.9332 83.4034 64.3533 83.3686 64.7723C83.3511 64.9817 83.3467 65.1916 83.3293 65.4011C83.3119 65.6106 83.2814 65.8197 83.264 66.0292C83.1812 66.8668 83.0204 67.6889 82.847 68.4844C82.8318 68.589 82.8038 68.6801 82.7755 68.7843C82.7472 68.8884 82.7191 68.9795 82.7039 69.084C82.6476 69.2792 82.6043 69.4748 82.548 69.6701C82.4917 69.8653 82.4223 70.0601 82.366 70.2554C82.3097 70.4506 82.2534 70.6459 82.1712 70.8272C81.8939 71.5934 81.5911 72.3327 81.2497 73.0446C80.9081 73.7696 80.528 74.4541 80.1349 75.1383C79.7421 75.8093 79.3234 76.4663 78.8791 77.0965C78.7714 77.2509 78.6637 77.4052 78.5426 77.5723C78.4349 77.7266 78.3141 77.8806 78.2064 78.0349C77.9781 78.3302 77.7499 78.6253 77.5217 78.9205C77.4678 78.9977 77.414 79.0749 77.3473 79.1385C77.2935 79.2157 77.2268 79.2794 77.1729 79.3566C77.0524 79.4974 76.9319 79.6383 76.8244 79.7795C76.7039 79.9204 76.5834 80.0612 76.476 80.2024C76.3558 80.3302 76.2352 80.4711 76.1149 80.5988C75.9947 80.7265 75.8743 80.8674 75.754 80.9951C75.7004 81.0592 75.6337 81.1229 75.5799 81.2001C75.5263 81.2641 75.4596 81.3277 75.393 81.3914C75.1394 81.6465 74.8993 81.8889 74.6588 82.1444L74.5655 82.2335L74.4722 82.3227C74.4056 82.3863 74.3522 82.4373 74.2856 82.5009C74.1656 82.6156 74.0323 82.7429 73.9124 82.8575C73.7924 82.9721 73.6594 83.0864 73.5394 83.201C73.4064 83.3152 73.2867 83.4167 73.1537 83.531C73.0337 83.6456 72.9009 83.7467 72.781 83.8613C72.7146 83.9119 72.6611 83.9759 72.5947 84.0264C72.5283 84.077 72.4747 84.1411 72.4083 84.1917C72.1559 84.3942 71.9034 84.5969 71.651 84.7994C71.3986 85.0021 71.1464 85.1916 70.8943 85.3811C70.7748 85.4695 70.6421 85.5706 70.5227 85.659C70.4032 85.7474 70.2704 85.8485 70.1514 85.9238C69.8995 86.1002 69.6478 86.2635 69.409 86.4402C69.3429 86.4777 69.2896 86.5286 69.2235 86.5661C69.1574 86.6035 69.1041 86.6544 69.0379 86.6919C68.9189 86.7671 68.7864 86.8551 68.6672 86.9304C68.4289 87.081 68.1773 87.2442 67.939 87.3948C67.701 87.5321 67.4627 87.6827 67.2247 87.8201C66.7615 88.1084 66.2862 88.3439 65.8369 88.5933C64.0271 89.5509 62.4062 90.2255 61.0763 90.7247C60.9052 90.7854 60.7471 90.8463 60.5891 90.9074C60.5102 90.9313 60.4311 90.9683 60.3522 90.9923C60.2733 91.0162 60.1944 91.0402 60.1286 91.0645C59.8262 91.1607 59.5628 91.258 59.2998 91.3422C59.1684 91.3777 59.0498 91.4268 58.9314 91.4627C58.8132 91.4985 58.7079 91.5349 58.6029 91.5581C58.3926 91.6176 58.1954 91.6774 58.0376 91.7253C57.8668 91.7728 57.709 91.8207 57.5382 91.8681C57.3674 91.9156 57.2099 91.9505 57.0391 91.998C56.8683 92.0455 56.7108 92.0802 56.5399 92.1278L56.2905 92.1861C56.2117 92.21 56.1199 92.2205 56.0411 92.2445C55.7128 92.3267 55.3847 92.3958 55.0566 92.465C54.8992 92.4997 54.7287 92.5342 54.5711 92.569C54.4137 92.6038 54.2431 92.6381 54.0859 92.6598C53.9284 92.6946 53.7709 92.7293 53.6136 92.751C53.4562 92.7857 53.299 92.8074 53.1418 92.829C52.827 92.8855 52.5125 92.9288 52.1979 92.9852C51.8834 93.0286 51.5821 93.0722 51.2676 93.1156L50.809 93.1809C50.6518 93.2025 50.5079 93.2114 50.3637 93.2335C47.967 93.5178 45.7837 93.5984 43.9419 93.5839C43.8245 93.5805 43.7066 93.5901 43.6022 93.5871C43.4846 93.5836 43.3802 93.5805 43.2627 93.5772C43.0538 93.5711 42.8319 93.5645 42.6227 93.5715C42.2046 93.5725 41.8132 93.5479 41.4346 93.5368C41.2518 93.5315 41.069 93.5261 40.8993 93.5212C40.8079 93.5185 40.7296 93.5162 40.6512 93.514C40.5729 93.5117 40.4945 93.5094 40.4031 93.5067C40.0898 93.4975 39.7894 93.4888 39.5281 93.4943C39.4628 93.4924 39.3976 93.4904 39.332 93.5016C39.2667 93.4997 39.2145 93.4982 39.1492 93.4963C39.0317 93.4929 38.9139 93.5025 38.8094 93.4995C38.6003 93.5066 38.4169 93.5274 38.2728 93.5495C37.9581 93.6059 37.7734 93.6924 37.7448 93.8097Z" fill="black"/>
<path d="M48.1769 96.6228C48.9864 96.6464 49.8095 96.6442 50.6465 96.6031C50.6987 96.6047 50.7643 96.5934 50.8164 96.5949C50.9209 96.598 51.0387 96.5883 51.1434 96.5782L51.6406 96.5403C51.7323 96.5298 51.837 96.5197 51.9284 96.5224C52.164 96.503 52.4126 96.4841 52.6481 96.4647C52.9887 96.4222 53.3293 96.3796 53.6698 96.3371C53.7353 96.3259 53.8006 96.3278 53.8662 96.3166C53.984 96.3069 54.102 96.2841 54.2068 96.274C54.3773 96.2396 54.5606 96.2187 54.7312 96.1844C54.8754 96.1623 55.0195 96.1403 55.1637 96.1183L55.2553 96.1078C55.2948 96.0958 55.3209 96.0966 55.3603 96.0846C55.5045 96.0626 55.6487 96.0405 55.7931 96.0055L56.2262 95.9131C56.4361 95.8667 56.6591 95.8207 56.8692 95.7743C56.8956 95.7621 56.9348 95.7631 56.9611 95.7508C57.0137 95.7392 57.0792 95.728 57.1447 95.7168L57.4072 95.6588C57.5781 95.6113 57.7486 95.5769 57.9325 95.5298L57.9586 95.5306C58.1425 95.4834 58.3263 95.4364 58.4972 95.3888C58.6155 95.3529 58.7338 95.3169 58.8521 95.2811C58.9176 95.2698 58.9704 95.2452 59.0363 95.2208L59.654 95.0421C59.7329 95.0181 59.8118 94.9942 59.9037 94.9706L60.022 94.9347C60.1009 94.9107 60.1931 94.874 60.2721 94.8501C60.3245 94.8385 60.3643 94.8134 60.4167 94.8018C60.5748 94.7409 60.7457 94.6933 60.9298 94.6331L61.3245 94.5002C61.3508 94.4879 61.3773 94.4755 61.4164 94.4766C61.4689 94.4651 61.5216 94.4404 61.5744 94.4157C61.6536 94.3786 61.7455 94.355 61.8247 94.318C61.9958 94.2574 62.1671 94.1836 62.3513 94.1234C63.181 93.8063 63.9583 93.4879 64.7496 93.1304C65.6862 92.6984 66.6233 92.2401 67.5217 91.7545C67.6143 91.7048 67.7067 91.6549 67.7996 91.592C68.1962 91.3674 68.6057 91.1431 69.016 90.8926L69.2804 90.7428C69.4523 90.6428 69.6245 90.5297 69.7964 90.4298C70.0083 90.2915 70.2202 90.1534 70.4321 90.0153L70.5779 89.9145C70.644 89.877 70.7104 89.8265 70.7765 89.7891C70.8426 89.7516 70.909 89.7011 70.9751 89.6636C71.0411 89.6262 71.1075 89.5756 71.1739 89.5251C71.2403 89.4745 71.3064 89.4371 71.3727 89.3865L71.6119 89.1965C71.7974 89.0708 71.9832 88.9318 72.1687 88.806C72.2748 88.7304 72.3809 88.6547 72.4873 88.5659C72.5139 88.5405 72.5403 88.5281 72.5669 88.5027C72.62 88.4648 72.6864 88.4142 72.7394 88.3764C72.8192 88.3131 72.8988 88.2499 72.9785 88.1865C73.0449 88.136 73.1112 88.0854 73.178 88.0218C73.3771 87.8701 73.5894 87.7057 73.7889 87.5409C73.9482 87.4143 74.108 87.2746 74.2673 87.148L74.6128 86.8694C74.6792 86.8188 74.7456 86.7683 74.8125 86.6915C74.8791 86.6277 74.9455 86.5772 75.0122 86.5135C75.0655 86.4626 75.1318 86.412 75.1852 86.3611C75.2652 86.2847 75.3449 86.2213 75.4248 86.1449L75.8375 85.7764C75.9308 85.6873 76.0244 85.585 76.1307 85.4962L76.2374 85.3943L76.6375 84.9992C76.7041 84.9355 76.7708 84.8718 76.8377 84.795L76.9443 84.6931L77.038 84.5909L77.1716 84.4504C77.3853 84.2204 77.6122 83.9908 77.8393 83.748C77.866 83.7226 77.8927 83.6971 77.9063 83.6712C77.9463 83.633 77.9996 83.5821 78.0398 83.5308L78.0932 83.4799C78.1465 83.4289 78.1867 83.3775 78.2404 83.3135L78.3467 83.2248C78.4406 83.1094 78.5472 83.0075 78.641 82.8921C78.7749 82.7385 78.9084 82.5981 79.0292 82.4441L79.0828 82.38C79.19 82.2519 79.2974 82.1107 79.4177 81.9829L79.5785 81.7908C79.6587 81.7013 79.7262 81.5982 79.8064 81.5087L79.9941 81.278C80.0343 81.2266 80.0746 81.1753 80.1149 81.124C80.1416 81.0985 80.1552 81.0727 80.1821 81.0341C80.3162 80.8673 80.4376 80.6872 80.5717 80.5204C80.6924 80.3665 80.8135 80.1994 80.9212 80.045L81.2847 79.5307C81.3521 79.4277 81.4193 79.3377 81.4867 79.2347C81.5407 79.1575 81.5812 79.0931 81.635 79.0159C82.1204 78.2952 82.5799 77.5605 82.9868 76.8373C83.4082 76.0491 83.8169 75.2473 84.1728 74.4701C84.556 73.6283 84.8874 72.7717 85.1794 71.9271C85.2485 71.7453 85.3048 71.5501 85.3611 71.3549C85.375 71.316 85.3756 71.2897 85.3894 71.2508C85.4593 71.0297 85.5159 70.8213 85.5859 70.6003L85.5864 70.5741C85.6283 70.444 85.6708 70.2877 85.6998 70.1442C85.7146 70.0658 85.7423 69.988 85.757 69.9096L85.7994 69.7534C85.8139 69.6881 85.8283 69.6229 85.8425 69.5709C85.8561 69.5451 85.8569 69.5057 85.8705 69.4799C85.8851 69.4016 85.9132 69.3104 85.9279 69.2322C86.1473 68.1098 86.2827 67.2476 86.3525 66.4096C86.3541 66.3309 86.3687 66.2525 86.3704 66.1739C86.3867 66.0168 86.4033 65.8467 86.4066 65.6893L86.4481 64.9555C86.4685 64.6017 86.463 64.2341 86.4701 63.893C86.4729 63.7618 86.4625 63.6303 86.465 63.5123C86.4686 63.3418 86.4593 63.1577 86.4499 62.9868C86.4509 62.9344 86.4393 62.8684 86.4407 62.8028C86.6631 62.7831 86.8987 62.7637 87.1212 62.744C88.0511 62.6267 88.9836 62.3915 89.8665 62.0236C90.7229 61.6811 91.5291 61.2322 92.285 60.6899C92.643 60.4379 92.9888 60.1461 93.3348 59.8412C93.6542 59.5618 93.9613 59.2427 94.2687 58.9104C94.8302 58.2969 95.3538 57.6166 95.8264 56.8822C96.2584 56.2124 96.6654 55.4892 97.0209 54.7253C97.3487 54.0393 97.6518 53.2868 97.916 52.5203C98.4025 51.117 98.7464 49.657 98.96 48.1802C98.9761 48.0363 99.005 47.9058 99.0211 47.762C99.0219 47.7226 99.0357 47.6837 99.0366 47.6443L99.038 47.5787C99.0524 47.5135 99.0537 47.4479 99.0681 47.3828C99.0701 47.2909 99.0847 47.2126 99.0866 47.1208C99.1027 46.9769 99.1191 46.8198 99.1221 46.6756L99.1235 46.61C99.1243 46.5706 99.1251 46.5312 99.1389 46.4923C99.1547 46.3615 99.1575 46.2304 99.1733 46.0996C99.1754 45.9946 99.1909 45.8769 99.1931 45.772C99.2108 45.5494 99.2155 45.3264 99.2332 45.1038L99.2536 44.12C99.2655 42.926 99.2125 41.7038 99.0943 40.4798C99.0608 40.2032 99.0277 39.9135 98.9943 39.6368C98.972 39.4525 98.9494 39.2812 98.9138 39.1095C98.9027 39.0173 98.8916 38.9252 98.8804 38.833L98.8232 38.4375L98.8238 38.4113C98.8002 38.2925 98.7765 38.1737 98.766 38.0552L98.7311 37.8442C98.6958 37.6594 98.6601 37.4878 98.6376 37.3165C98.4119 36.2337 98.2072 35.4008 97.9867 34.6988C97.9497 34.5927 97.9257 34.487 97.8888 34.3809L97.8156 34.1294C97.7789 34.0102 97.7294 33.8775 97.6925 33.7714C97.6804 33.7185 97.6555 33.6653 97.6307 33.599L97.458 33.1083C97.421 33.0022 97.384 32.8961 97.3471 32.7901C97.322 32.7368 97.3098 32.6972 97.2848 32.6438C97.2478 32.5377 97.2105 32.4448 97.1733 32.3518L97.1238 32.2191C97.0743 32.0864 97.0248 31.9537 96.962 31.8338C96.8625 31.5947 96.7626 31.3686 96.6753 31.1692C96.6008 30.9833 96.5127 30.8232 96.4371 30.6897L96.4249 30.6501C96.3496 30.5034 96.2867 30.3835 96.2237 30.2766C96.123 30.09 96.0466 29.9958 96.0204 29.9951C95.9941 30.0075 96.0047 30.1259 96.0526 30.3373C96.0764 30.4429 96.1129 30.5752 96.1618 30.7343C96.1738 30.787 96.1988 30.8403 96.2105 30.9062C96.2474 31.0123 96.2839 31.1446 96.3203 31.277C96.3815 31.4756 96.4419 31.7137 96.5151 31.9651C96.5518 32.0844 96.5882 32.2167 96.6244 32.3621C96.6608 32.4944 96.697 32.6398 96.7459 32.7988C96.7578 32.8516 96.7699 32.9045 96.7946 32.9708C96.8188 33.0634 96.8428 33.1691 96.88 33.2621L96.9284 33.4472C96.9523 33.5529 96.9763 33.6586 97.0001 33.7644C97.0118 33.8303 97.0366 33.8967 97.0483 33.9626C97.0722 34.0683 97.1092 34.1744 97.1329 34.2932L97.2517 34.861C97.4072 35.5481 97.5472 36.3528 97.707 37.4599C97.7413 37.6972 97.7625 37.934 97.7964 38.1844C97.8071 38.3029 97.818 38.4082 97.8416 38.527L97.8408 38.5664L97.872 38.9478C97.9093 39.0409 97.9074 39.1327 97.9185 39.2248C97.9283 39.3826 97.9508 39.5539 97.9604 39.7248C97.981 39.9879 97.9883 40.2637 98.0088 40.54C98.0622 41.7359 98.0638 42.9171 98.0008 44.0572L97.942 45.0004C97.9248 45.1968 97.9076 45.3932 97.8775 45.5892C97.8619 45.7068 97.8461 45.8377 97.8437 45.9557C97.7654 46.5834 97.6861 47.2504 97.5547 47.9159C97.3038 49.2999 96.9228 50.6537 96.4255 51.9517C96.1627 52.6528 95.8612 53.3264 95.5348 53.9469C95.1808 54.6322 94.8016 55.2773 94.3843 55.8688C93.4417 57.2194 92.374 58.3038 91.1945 59.1093C90.5452 59.5497 89.8586 59.8971 89.1475 60.1651C89.029 60.2141 88.8975 60.2497 88.7659 60.2983C88.7134 60.3099 88.6476 60.3342 88.5948 60.359C88.5159 60.3829 88.437 60.4068 88.3585 60.4176C88.3454 60.4172 88.332 60.43 88.3059 60.4292L88.1876 60.4651C88.1351 60.4767 88.0826 60.4884 88.0298 60.513C87.9118 60.5359 87.7937 60.5587 87.6887 60.5818C87.6102 60.5927 87.5313 60.6166 87.4526 60.6274L87.3871 60.6386C87.2168 60.66 87.0466 60.6812 86.8632 60.7021C86.6669 60.7226 86.4576 60.7296 86.2484 60.7367L86.2256 60.5784L86.2028 60.4203C86.1805 60.2359 86.1454 60.038 86.1232 59.8535L86.1009 59.6692C86.0886 59.6295 86.0894 59.5901 86.0772 59.5503C86.0777 59.5241 86.0649 59.5106 86.0655 59.4844L85.9948 59.1148C85.9834 59.0358 85.9592 58.9432 85.9478 58.8641C85.9119 58.7056 85.8891 58.5474 85.8532 58.3889L85.6723 57.6617L85.5887 57.2917C85.5641 57.2123 85.5396 57.1328 85.5152 57.0534C85.5029 57.0136 85.4907 56.9738 85.4785 56.9342L85.393 56.6429C85.3569 56.4975 85.3074 56.3648 85.2713 56.2193C85.2471 56.1268 85.2098 56.0338 85.1853 55.9543C85.1729 55.9277 85.1604 55.9011 85.1481 55.8614L85.0249 55.5034L84.84 54.973C84.8278 54.9333 84.8155 54.8936 84.7902 54.8534C84.7775 54.84 84.778 54.8137 84.7655 54.7871C84.6659 54.5479 84.5792 54.3222 84.4797 54.0831C84.4674 54.0434 84.4421 54.0033 84.4299 53.9635C84.4055 53.8841 84.3677 53.8173 84.3301 53.7375L84.1675 53.3915C84.0921 53.2449 84.0301 53.0856 83.9551 52.9259L83.8422 52.6995C83.8044 52.6327 83.7666 52.566 83.7418 52.4997C83.6668 52.34 83.5786 52.1799 83.4905 52.0198C83.2387 51.5662 82.9738 51.1122 82.708 50.6976C82.4299 50.2564 82.1253 49.8274 81.8071 49.4244C81.4764 48.9948 81.132 48.591 80.7868 48.2265C80.4162 47.8351 80.0321 47.4563 79.6339 47.1296C78.7737 46.4089 77.8584 45.8178 76.914 45.3702C76.8493 45.3421 76.7846 45.3139 76.7329 45.2862L76.5387 45.2018C76.4998 45.1874 76.4609 45.1732 76.4351 45.1593C76.3445 45.1173 76.2537 45.0884 76.1631 45.0463C75.8389 44.9318 75.5794 44.8456 75.3193 44.7855C74.9943 44.7103 74.6815 44.675 74.3942 44.6666C74.3812 44.6662 74.3551 44.6654 74.342 44.6651C73.9634 44.654 73.5834 44.7085 73.2284 44.8163C72.847 44.9363 72.4907 45.1097 72.1855 45.337C71.8804 45.5643 71.5998 45.8579 71.3969 46.1933C71.2081 46.4765 71.0573 46.8134 70.9455 47.1645C70.8609 47.4638 70.7891 47.7767 70.7559 48.117C70.705 48.68 70.719 49.2578 70.8107 49.8774C70.9034 50.4445 71.0361 50.9733 71.234 51.5041C71.2961 51.6635 71.3458 51.783 71.3825 51.9022L71.4197 51.9951L71.5321 52.2479L71.6817 52.5934L71.8446 52.9263C71.8699 52.9665 71.8821 53.0062 71.9074 53.0463C71.9452 53.113 71.9827 53.1928 72.0203 53.2727L72.1963 53.606C72.2713 53.7657 72.3597 53.9126 72.4481 54.0596C72.4859 54.1263 72.5236 54.193 72.5614 54.2597C73.0657 55.1407 73.6361 55.9843 74.2469 56.7633C74.8833 57.5695 75.5733 58.3115 76.2913 58.9625C76.7654 59.4095 77.2794 59.8182 77.8205 60.1884C77.2925 59.8186 76.7787 59.3967 76.2913 58.9625C75.5733 58.3115 74.8833 57.5695 74.2469 56.7633C73.6361 55.9843 73.0657 55.1407 72.5614 54.2597C72.5236 54.193 72.4859 54.1263 72.4481 54.0596C72.3597 53.9126 72.2716 53.7525 72.1963 53.606L72.0203 53.2727C71.9825 53.206 71.9449 53.1261 71.9074 53.0463C71.8821 53.0062 71.8699 52.9665 71.8446 52.9263L71.6817 52.5934L71.4197 51.9951L71.3825 51.9022C71.3325 51.7958 71.283 51.6631 71.234 51.5041C71.0491 50.9738 70.9034 50.4445 70.8107 49.8774C70.719 49.2578 70.6789 48.6792 70.7428 48.1166C70.776 47.7764 70.8349 47.4632 70.9325 47.1641C71.0443 46.813 71.1948 46.4893 71.3708 46.1925C71.5868 45.8577 71.8542 45.5636 72.1594 45.3362C72.4646 45.1089 72.8079 44.9352 73.2023 44.8155C73.5573 44.7077 73.9373 44.6532 74.3159 44.6643C74.6293 44.6734 74.9682 44.7096 75.3193 44.7855C75.5794 44.8456 75.8519 44.9323 76.1631 45.0463C76.2537 45.0884 76.3445 45.1173 76.4351 45.1593C76.4609 45.1732 76.4998 45.1874 76.5387 45.2018L76.7329 45.2862C76.7976 45.3143 76.8493 45.3421 76.9009 45.3698C77.8587 45.8047 78.7868 46.4093 79.6339 47.1296C80.0321 47.4563 80.4162 47.8351 80.7868 48.2265C81.132 48.591 81.4764 48.9948 81.8071 49.4244C82.1122 49.8271 82.4168 50.256 82.708 50.6976C82.9738 51.1122 83.2387 51.5662 83.4905 52.0198C83.5786 52.1799 83.6537 52.3396 83.7418 52.4997C83.7666 52.566 83.8044 52.6327 83.8422 52.6995L83.9551 52.9259C84.0304 53.0725 84.0794 53.2314 84.1547 53.3779L84.3174 53.724C84.3548 53.8038 84.3796 53.8702 84.4172 53.95C84.4293 53.9897 84.4546 54.0299 84.4669 54.0696C84.5667 54.2956 84.6532 54.5344 84.7527 54.7735C84.7655 54.7871 84.7649 54.8133 84.7774 54.8399C84.7897 54.8796 84.815 54.9198 84.8272 54.9596L84.889 55.132L85.0121 55.4899L85.1481 55.8614C85.1604 55.9011 85.1729 55.9277 85.1853 55.9543C85.2095 56.047 85.2471 56.1268 85.2713 56.2193C85.3074 56.3648 85.3569 56.4975 85.393 56.6429L85.4785 56.9342C85.4907 56.9738 85.5029 57.0136 85.5152 57.0534C85.5396 57.1328 85.5641 57.2123 85.5887 57.2917L85.6727 57.6486L85.8535 58.3757C85.8893 58.5343 85.925 58.7059 85.9478 58.8641C85.9592 58.9432 85.9834 59.0358 85.9948 59.1148L86.0655 59.4844C86.0649 59.5106 86.0777 59.5241 86.0772 59.5503C86.0894 59.5901 86.0889 59.6163 86.1011 59.6561L86.1235 59.8405C86.1457 60.0248 86.1805 60.2359 86.2028 60.4203L86.2256 60.5784L86.2484 60.7367C85.2418 60.7728 84.1867 60.6239 83.1604 60.3445L83.1487 60.2785L83.1259 60.1203C83.1267 60.081 83.1142 60.0544 83.1019 60.0146C83.1023 60.0015 83.0898 59.975 83.09 59.9618L83.0313 59.645C83.0198 59.566 83.0085 59.4869 82.984 59.4075C82.9607 59.2755 82.9375 59.1305 82.9141 58.9986L82.9016 58.972C82.8537 58.7605 82.8056 58.5622 82.7575 58.364L82.6858 58.0469C82.6741 57.9809 82.6493 57.9146 82.6246 57.8482C82.6123 57.8085 82.6 57.7688 82.5878 57.729L82.5392 57.557C82.4901 57.398 82.4543 57.2394 82.4051 57.0937C82.3806 57.0142 82.3561 56.9348 82.3316 56.8553C82.3191 56.8287 82.3197 56.8025 82.3072 56.7758L82.2093 56.458L82.0495 55.9808C82.0372 55.9411 82.0247 55.9145 82.0124 55.8748C81.9996 55.8612 82.0002 55.835 81.9875 55.8215L81.7522 55.1978C81.74 55.158 81.7277 55.1183 81.7152 55.0917C81.6905 55.0253 81.6657 54.959 81.6409 54.8927L81.5036 54.5867C81.4164 54.3873 81.3293 54.1748 81.2289 53.975C81.1911 53.9082 81.1664 53.8419 81.1289 53.7621C81.066 53.6421 81.0035 53.509 80.9409 53.376C80.5134 52.576 80.059 51.8145 79.5504 51.1434C79.0168 50.4191 78.442 49.7854 77.8263 49.2425C77.1719 48.6721 76.4764 48.1924 75.7652 47.8435C75.7266 47.8161 75.6746 47.8014 75.6229 47.7737L75.4804 47.717L75.1956 47.5906C74.9884 47.5058 74.8197 47.4483 74.6766 47.4179C74.5077 47.3736 74.3643 47.3563 74.2469 47.3528C74.2338 47.3525 74.2207 47.3521 74.2207 47.3521C74.1294 47.3494 74.0376 47.3599 73.9458 47.3834C73.8538 47.4069 73.7746 47.444 73.7083 47.4946C73.6419 47.5452 73.5886 47.5961 73.5347 47.6733C73.4137 47.8403 73.3163 48.1262 73.2834 48.4535C73.2373 48.7802 73.2425 49.161 73.2996 49.5564C73.3566 49.9518 73.4398 50.348 73.563 50.706C73.5875 50.7854 73.6245 50.8915 73.6617 50.9844L73.6865 51.0508L73.7863 51.2768L73.9494 51.5966L74.0868 51.9025C74.1743 52.0888 74.2616 52.2882 74.3626 52.4618L74.3879 52.5019C74.4504 52.635 74.526 52.7684 74.6017 52.9019C74.6395 52.9686 74.6773 53.0353 74.7022 53.0886C75.13 53.8755 75.6106 54.6376 76.132 55.3223C76.6658 56.0334 77.2531 56.6937 77.8681 57.2761C78.5083 57.8986 79.1896 58.4303 79.8731 58.8572C80.5822 59.311 81.3321 59.6873 82.1097 59.9856C82.4598 60.114 82.8232 60.2296 83.1738 60.3318L83.2398 60.9243L83.2741 61.1616L83.3048 61.5693L83.3566 62.2139C83.3669 62.3455 83.3646 62.4635 83.3749 62.5951C83.373 62.6869 83.3843 62.766 83.3824 62.8578C83.3811 62.9234 83.3928 62.9893 83.3914 63.0549C83.4015 63.1996 83.3982 63.357 83.3952 63.5013C83.3925 63.6324 83.39 63.7505 83.3875 63.8686C83.3813 64.1702 83.388 64.4723 83.3557 64.7732L83.3164 65.4022C83.3006 65.5329 83.2849 65.6637 83.269 65.7945C83.2544 65.8728 83.2527 65.9514 83.238 66.0298C83.1408 66.9325 82.9656 67.8199 82.8211 68.4851C82.8064 68.5634 82.792 68.6286 82.7645 68.6934C82.7509 68.7193 82.7503 68.7455 82.7365 68.7845C82.7084 68.8756 82.6935 68.967 82.6654 69.058L82.6649 69.0842C82.6502 69.1626 82.6227 69.2274 82.608 69.3057C82.5792 69.4361 82.5375 69.5531 82.5087 69.6835C82.4524 69.8787 82.3831 70.0735 82.3267 70.2687C82.3128 70.3077 82.2992 70.3336 82.2984 70.3729C82.256 70.5292 82.2005 70.685 82.145 70.8409C81.8813 71.5814 81.5651 72.3333 81.2235 73.0583C80.8954 73.7574 80.515 74.4552 80.1086 75.152C79.7294 75.7971 79.3108 76.4543 78.8529 77.1102L78.5163 77.5861C78.4086 77.7404 78.3012 77.8817 78.1934 78.036L78.1801 78.0487C78.0188 78.2671 77.8578 78.4724 77.6967 78.6777L77.4954 78.9343C77.4688 78.9598 77.4552 78.9856 77.4416 79.0115C77.4013 79.0628 77.3744 79.1014 77.3341 79.1527L77.2672 79.2295C77.2272 79.2677 77.1869 79.319 77.16 79.3576L76.8115 79.7806C76.7443 79.8705 76.6641 79.9601 76.5968 80.0499L76.463 80.2035C76.3695 80.3057 76.2759 80.408 76.1823 80.5103L76.0887 80.6125C75.9685 80.7403 75.848 80.8811 75.7277 81.0088C75.6744 81.0598 75.6342 81.1112 75.5808 81.1621L75.5409 81.2002C75.5008 81.2385 75.4609 81.2767 75.4207 81.328C75.394 81.3535 75.3804 81.3793 75.3539 81.3917C75.1005 81.6468 74.86 81.9022 74.6198 82.1446L74.5265 82.2337L74.4332 82.3228C74.3665 82.3866 74.3132 82.4375 74.2466 82.5012C74.1533 82.5903 74.0599 82.6795 73.9536 82.7682L73.7403 82.972C73.6604 83.0484 73.5804 83.1248 73.4873 83.2008L73.3277 83.3406C73.2479 83.4039 73.1813 83.4675 73.1016 83.5308C72.9816 83.6454 72.8489 83.7466 72.7289 83.8612L72.5426 84.0263C72.4759 84.09 72.4095 84.1406 72.3565 84.1784C72.2104 84.2923 72.0641 84.4192 71.918 84.5331L71.5992 84.7863C71.4131 84.9383 71.2273 85.0773 71.0415 85.2162C70.9752 85.2668 70.9088 85.3173 70.8424 85.3679C70.7497 85.4308 70.67 85.4941 70.577 85.5702L70.4709 85.6458C70.4442 85.6713 70.4179 85.6836 70.3912 85.7091C70.2981 85.7851 70.1923 85.8476 70.0992 85.9237L70.0329 85.9743C69.8074 86.1382 69.5822 86.2892 69.357 86.4401C69.3172 86.4652 69.2905 86.4906 69.2508 86.5157L69.1714 86.5659C69.105 86.6165 69.052 86.6543 68.9859 86.6918C68.8667 86.7671 68.7343 86.855 68.6151 86.9303L68.5754 86.9554C68.3371 87.1059 68.1119 87.2568 67.8869 87.3946L67.6225 87.5444C67.4639 87.6316 67.3184 87.7193 67.1599 87.8065C66.7894 88.0319 66.4194 88.2311 66.0628 88.4175C65.9703 88.4673 65.8648 88.5168 65.772 88.5796C64.2397 89.3879 62.6835 90.0906 61.0115 90.7111L60.5243 90.8937C60.4454 90.9176 60.3662 90.9548 60.3004 90.9791C60.2476 91.0038 60.2081 91.0158 60.1557 91.0274C60.1293 91.0398 60.1032 91.039 60.0768 91.0513C59.7743 91.1474 59.511 91.2448 59.248 91.329C59.1955 91.3405 59.1557 91.3656 59.1163 91.3776C59.0374 91.4015 58.9586 91.4255 58.8927 91.4498C58.8138 91.4738 58.748 91.4981 58.6825 91.5093L58.5641 91.5452L58.38 91.6055C58.2356 91.6406 58.117 91.6896 57.9989 91.7124C57.9331 91.7368 57.8806 91.7484 57.8147 91.7727C57.7095 91.8089 57.6045 91.8321 57.4992 91.8685C57.4203 91.8924 57.3414 91.9164 57.2498 91.9268C57.1708 91.9507 57.079 91.9743 57.0001 91.9982C56.8423 92.0461 56.6718 92.0806 56.5139 92.1284L56.2645 92.1867C56.2121 92.1983 56.1595 92.2099 56.1071 92.2215C56.0806 92.2339 56.0415 92.2327 56.0151 92.2451L55.8837 92.2806C55.608 92.3513 55.3193 92.4085 55.0435 92.4791C54.9252 92.515 54.7941 92.5375 54.676 92.5603C54.6365 92.5722 54.5974 92.5712 54.558 92.583C54.4005 92.6179 54.2299 92.6523 54.0724 92.687C53.9805 92.7106 53.8888 92.7211 53.7968 92.7446L53.5868 92.791C53.4819 92.8142 53.3902 92.8246 53.2852 92.8478C53.2327 92.8593 53.1672 92.8706 53.1147 92.8822L52.6819 92.9613C52.5114 92.9958 52.341 93.017 52.1705 93.0515C51.9872 93.0723 51.8036 93.1063 51.6333 93.1277C51.5021 93.15 51.3714 93.1593 51.2403 93.1817L50.7816 93.2471C50.69 93.2575 50.5853 93.2676 50.4936 93.278C50.4413 93.2765 50.3889 93.2881 50.3234 93.2993C49.2103 93.4242 48.0586 93.5219 46.9077 93.5801C45.9139 93.6298 44.9074 93.6529 43.9016 93.6497C43.8624 93.6486 43.8102 93.647 43.7709 93.6459C43.7056 93.644 43.6405 93.6421 43.5751 93.6402C43.4707 93.6371 43.3401 93.6334 43.2357 93.6303C43.0397 93.6245 42.857 93.6192 42.6609 93.6266L42.5956 93.6246C42.3342 93.6302 42.0864 93.6098 41.8514 93.603C41.6947 93.5983 41.5642 93.5946 41.4205 93.5903C41.2378 93.585 41.055 93.5796 40.8853 93.5747C40.8069 93.5724 40.7285 93.5701 40.6503 93.5679L40.6242 93.5671C40.5458 93.5648 40.4675 93.5625 40.3761 93.5598C40.0627 93.5506 39.7624 93.5418 39.5011 93.5474L39.3049 93.5548L39.1222 93.5494C39.0047 93.546 38.8868 93.5557 38.7824 93.5526C38.5732 93.5597 38.3899 93.5805 38.2457 93.6026C37.9443 93.6462 37.7727 93.7331 37.7438 93.8635C37.7153 93.9808 37.8295 94.1416 38.074 94.3194C38.2027 94.415 38.3575 94.5115 38.5383 94.6086C38.6286 94.6638 38.732 94.7193 38.8484 94.7752L39.0165 94.8588C39.0681 94.8866 39.1332 94.9015 39.1848 94.9293L39.1979 94.9297C39.4568 95.0423 39.7422 95.1425 40.053 95.2697L40.1178 95.2979C40.1828 95.3129 40.2345 95.3407 40.2992 95.3688C40.377 95.3973 40.4678 95.4263 40.5587 95.4552C40.7404 95.513 40.9223 95.5577 41.1041 95.6155C41.169 95.6305 41.2469 95.659 41.3118 95.674C41.6366 95.7623 41.9611 95.8636 42.3123 95.9395C42.5334 95.9853 42.7543 96.0443 42.9885 96.0905L43.1057 96.1071C43.1837 96.1225 43.2618 96.1379 43.3399 96.1533C43.4179 96.1687 43.496 96.1841 43.5741 96.1995C43.6133 96.2007 43.6521 96.2149 43.6913 96.2161C44.7064 96.4032 45.7882 96.5267 46.8969 96.6116C47.3283 96.5979 47.746 96.6102 48.1769 96.6228ZM86.4407 62.8028C86.4393 62.8684 86.4509 62.9344 86.4499 62.9868C86.4593 63.1577 86.4688 63.3287 86.465 63.5123C86.4623 63.6435 86.4596 63.7746 86.4701 63.893C86.4758 64.2476 86.4815 64.6021 86.4481 64.9555L86.42 65.6765C86.4036 65.8336 86.387 66.0037 86.3837 66.1611C86.3821 66.2399 86.3674 66.3181 86.3658 66.3968C86.296 67.2348 86.1605 68.0971 85.9412 69.2194C85.9262 69.3108 85.9115 69.3891 85.8838 69.4671C85.8702 69.4929 85.8694 69.5323 85.8557 69.5582C85.8413 69.6233 85.8272 69.6755 85.8127 69.7407L85.7703 69.8969C85.7557 69.9752 85.7279 70.0532 85.7132 70.1314C85.684 70.275 85.6285 70.4309 85.5864 70.5741L85.5859 70.6003C85.5159 70.8213 85.4724 71.03 85.4025 71.2511C85.3886 71.2901 85.375 71.316 85.3611 71.3549C85.305 71.537 85.2618 71.7326 85.1927 71.9144C84.9005 72.7721 84.5691 73.6286 84.186 74.4574C83.8299 75.2476 83.4216 76.0363 82.9741 76.8239C82.5671 77.5469 82.1207 78.282 81.635 79.0159C81.5812 79.0931 81.5407 79.1575 81.4867 79.2347C81.4193 79.3377 81.3518 79.4407 81.2847 79.5307L80.9081 80.0446C80.7874 80.1986 80.6794 80.3661 80.5717 80.5204C80.4376 80.6872 80.3162 80.8673 80.1821 81.0341C80.1552 81.0727 80.1416 81.0985 80.1149 81.124C80.0746 81.1753 80.0213 81.2262 79.9811 81.2776L79.8064 81.5087C79.7262 81.5982 79.659 81.6881 79.5785 81.7908L79.4046 81.9825C79.2972 82.1238 79.2031 82.2523 79.0828 82.38L79.0292 82.4441C78.8954 82.5977 78.7618 82.7381 78.641 82.8921C78.5472 83.0075 78.4406 83.1094 78.3467 83.2248L78.2398 83.3398C78.1864 83.3907 78.1462 83.4421 78.0926 83.5061L78.0393 83.5571C77.999 83.6084 77.9591 83.6465 77.9057 83.6975C77.8791 83.7229 77.8524 83.7484 77.8389 83.7743C77.612 84.0039 77.3984 84.2207 77.1716 84.4504L77.038 84.5909L76.9441 84.7063L76.8377 84.795C76.7711 84.8587 76.7041 84.9355 76.6375 84.9992L76.2374 85.3943L76.1307 85.4962C76.0375 85.5854 75.9308 85.6873 75.8375 85.7764L75.4248 86.1449C75.3449 86.2213 75.2652 86.2847 75.1852 86.3611C75.1318 86.412 75.0655 86.4626 75.0122 86.5135C74.9455 86.5772 74.8791 86.6277 74.8125 86.6915C74.7328 86.7547 74.6662 86.8184 74.6128 86.8694L74.2673 87.148C74.108 87.2746 73.9482 87.4143 73.7889 87.5409C73.5894 87.7057 73.3771 87.8701 73.178 88.0218C73.1116 88.0723 73.0452 88.1229 72.9788 88.1734C72.8991 88.2367 72.8197 88.2869 72.7399 88.3502C72.6869 88.388 72.6205 88.4386 72.5675 88.4764C72.5408 88.5019 72.5145 88.5143 72.4878 88.5397C72.3817 88.6154 72.2753 88.7041 72.1692 88.7797C71.9837 88.9056 71.7979 89.0445 71.6124 89.1704L71.3605 89.3467C71.2941 89.3973 71.2281 89.4347 71.1617 89.4853C71.0953 89.5358 71.029 89.5864 70.9628 89.6239C70.8967 89.6613 70.8303 89.7119 70.7639 89.7624C70.6979 89.7999 70.6315 89.8504 70.5654 89.8879L70.4196 89.9887C70.2077 90.1268 69.9958 90.265 69.7839 90.4032C69.612 90.5031 69.4398 90.6162 69.2679 90.7162L69.0032 90.879C68.593 91.1296 68.1834 91.3539 67.7868 91.5785C67.6943 91.6283 67.6018 91.6782 67.5092 91.7279C66.6105 92.2267 65.6734 92.6849 64.7371 93.1038C63.9589 93.4616 63.1684 93.7797 62.3388 94.0968C62.1544 94.1701 61.9833 94.2308 61.8122 94.2914C61.733 94.3284 61.6411 94.352 61.5619 94.3891C61.5092 94.4137 61.4567 94.4254 61.4039 94.45C61.3775 94.4624 61.3511 94.4748 61.312 94.4736L60.9173 94.6065C60.7331 94.6666 60.5751 94.7277 60.4042 94.7752C60.3518 94.7868 60.312 94.8119 60.2596 94.8235C60.1673 94.8602 60.0884 94.8841 60.0095 94.9081L59.8912 94.944C59.7993 94.9675 59.7204 94.9915 59.6415 95.0154L59.0238 95.1942C58.9582 95.2054 58.8924 95.2298 58.8396 95.2545C58.7213 95.2903 58.603 95.3263 58.4849 95.3491C58.301 95.3962 58.1171 95.4434 57.9463 95.4908L57.9202 95.4901C57.7494 95.5376 57.5788 95.572 57.3949 95.6192L57.1191 95.6898C57.0667 95.7014 57.0012 95.7126 56.9356 95.7237C56.9095 95.723 56.87 95.735 56.8436 95.7474C56.6336 95.7937 56.4106 95.8397 56.2006 95.886L55.7676 95.9784C55.6231 96.0136 55.4789 96.0357 55.3348 96.0576C55.2956 96.0565 55.2692 96.0688 55.2298 96.0808L55.1382 96.0913C54.9939 96.1133 54.8498 96.1353 54.7053 96.1705C54.5348 96.2049 54.3514 96.2257 54.1809 96.2602C54.0628 96.2829 53.945 96.2926 53.8403 96.3027C53.7879 96.3143 53.7225 96.3124 53.657 96.3236C53.3165 96.3662 52.9629 96.4083 52.6223 96.4509C52.3737 96.4699 52.1382 96.4892 51.9026 96.5086C51.8109 96.5191 51.7061 96.5291 51.6148 96.5264L51.1176 96.5644C51.0254 96.6011 50.9078 96.5976 50.8031 96.6077C50.7509 96.6061 50.6856 96.6043 50.6331 96.6158C49.3778 96.671 48.137 96.661 46.9108 96.5726C45.8018 96.5009 44.7203 96.3643 43.7049 96.1902C43.6657 96.1891 43.6268 96.1748 43.5876 96.1736C43.5096 96.1583 43.4316 96.1428 43.3535 96.1274C43.2755 96.112 43.1974 96.0966 43.1193 96.0812L43.0021 96.0647C42.781 96.0188 42.5601 95.9598 42.3259 95.9136C41.9747 95.8377 41.6369 95.7492 41.3254 95.6482C41.2474 95.6328 41.1826 95.6047 41.1176 95.5896C40.936 95.5318 40.754 95.4871 40.5723 95.4292C40.4814 95.4003 40.3906 95.3715 40.3128 95.343C40.2481 95.3149 40.1962 95.3001 40.1314 95.272L40.0666 95.2439C39.7555 95.1298 39.4574 95.016 39.2115 94.9039L39.1987 94.8903C39.134 94.8622 39.0821 94.8476 39.0303 94.8198L38.8623 94.7362C38.7458 94.6803 38.6425 94.6248 38.5522 94.5697C38.3585 94.4589 38.2038 94.3626 38.0879 94.2804C37.8434 94.1027 37.7292 93.9418 37.7577 93.8246C37.7863 93.7072 37.9579 93.6204 38.2596 93.5635C38.4037 93.5415 38.5872 93.5207 38.7963 93.5136C38.9009 93.5036 39.0055 93.5066 39.136 93.5105L39.3188 93.5158L39.5019 93.508C39.7107 93.5141 39.9461 93.5079 40.1941 93.5151C40.2594 93.517 40.3246 93.519 40.39 93.5209C40.4682 93.5231 40.5466 93.5254 40.6381 93.5281L40.6642 93.5289C40.7425 93.5312 40.8208 93.5334 40.8991 93.5358C41.0689 93.5407 41.2516 93.5461 41.4344 93.5513C41.5781 93.5556 41.7217 93.5598 41.8653 93.564C42.1003 93.5708 42.3484 93.5781 42.6095 93.5858L42.6748 93.5877C42.8706 93.5934 43.0534 93.5987 43.2495 93.5913C43.354 93.5944 43.4714 93.5978 43.576 93.6008C43.6413 93.6027 43.7196 93.6051 43.7849 93.6069C43.824 93.6081 43.8762 93.6096 43.9154 93.6108C44.9213 93.6139 45.9277 93.5908 46.9216 93.5411C48.0725 93.4829 49.2242 93.3853 50.3372 93.2604C50.3897 93.2487 50.4419 93.2503 50.5075 93.2391C50.5991 93.2286 50.7039 93.2185 50.7955 93.2081L51.2541 93.1428C51.3852 93.1203 51.5161 93.1111 51.6472 93.0886C51.8175 93.0673 52.0011 93.0334 52.1844 93.0125C52.355 92.9781 52.5252 92.9568 52.6958 92.9225L53.1286 92.8432C53.181 92.8316 53.2466 92.8204 53.2991 92.8088C53.4038 92.7988 53.4958 92.7752 53.6007 92.7519L53.8107 92.7056C53.9027 92.6821 53.9943 92.6716 54.0863 92.6481C54.2437 92.6133 54.4144 92.5789 54.5716 92.5572C54.611 92.5452 54.6501 92.5464 54.6896 92.5345C54.8077 92.5117 54.9388 92.4892 55.0571 92.4533C55.3329 92.3827 55.6216 92.3255 55.8973 92.2548L56.0288 92.2192C56.0551 92.2069 56.0943 92.208 56.1206 92.1956C56.1732 92.184 56.2257 92.1725 56.2781 92.1609L56.5279 92.0895C56.6857 92.0416 56.8431 92.0068 57.0009 91.9588C57.0798 91.9349 57.1848 91.9117 57.2637 91.8878C57.3425 91.8638 57.4211 91.8531 57.5131 91.8295C57.6181 91.8063 57.7233 91.77 57.8286 91.7337C57.8942 91.7224 57.9469 91.6978 58.0125 91.6866C58.1308 91.6507 58.2623 91.6151 58.3938 91.5665L58.5777 91.5194L58.6961 91.4835C58.7619 91.4591 58.8405 91.4483 58.9063 91.424C58.9852 91.4001 59.0511 91.3757 59.13 91.3518C59.1694 91.3398 59.2219 91.3282 59.2616 91.3031C59.5116 91.2185 59.7877 91.1347 60.0904 91.0254C60.1168 91.013 60.1429 91.0138 60.1693 91.0015C60.2217 90.9899 60.2615 90.9649 60.314 90.9533C60.3928 90.9293 60.459 90.8918 60.5379 90.8679L61.0376 90.7118C62.7227 90.0918 64.2788 89.3891 65.7981 88.5804C65.8906 88.5306 65.9961 88.4812 66.0887 88.4314C66.4455 88.2319 66.8151 88.0458 67.1856 87.8204C67.3312 87.7328 67.4897 87.6455 67.6483 87.5583L67.9128 87.4085C68.1378 87.2707 68.363 87.1198 68.6012 86.9692L68.641 86.9441C68.7601 86.8689 68.8925 86.7809 69.0117 86.7056C69.0647 86.6678 69.1309 86.6303 69.1973 86.5798L69.2766 86.5296C69.3164 86.5045 69.343 86.4791 69.3828 86.454C69.608 86.3031 69.8335 86.139 70.0587 85.9881L70.1251 85.9376C70.2309 85.875 70.3239 85.799 70.417 85.7229C70.4434 85.7106 70.47 85.6851 70.4967 85.6596L70.6028 85.584C70.6955 85.5211 70.7752 85.4578 70.8683 85.3817C70.9347 85.3312 71.001 85.2806 71.0674 85.2301C71.2532 85.0911 71.439 84.9522 71.6251 84.8001L71.9439 84.547C72.0899 84.4331 72.236 84.3192 72.3823 84.1923C72.4354 84.1544 72.5018 84.1039 72.5687 84.0271L72.755 83.8619C72.8747 83.7604 73.0077 83.6462 73.1277 83.5316C73.1943 83.4679 73.274 83.4046 73.3538 83.3414L73.5001 83.2144C73.5801 83.138 73.6601 83.0615 73.7531 82.9855L73.9661 82.7948C74.0594 82.7057 74.1527 82.6165 74.259 82.5278C74.3258 82.4642 74.379 82.4132 74.4456 82.3496L74.5392 82.2472L74.6326 82.1581C74.8728 81.9157 75.1263 81.6606 75.3668 81.4051C75.3934 81.3797 75.4071 81.3538 75.4334 81.3415C75.4734 81.3033 75.5134 81.2651 75.5537 81.2138L75.5937 81.1756C75.6469 81.1246 75.6872 81.0733 75.7405 81.0224C75.8608 80.8946 75.9813 80.7538 76.1015 80.626L76.1951 80.5238C76.2887 80.4215 76.3823 80.3193 76.4758 80.217L76.6097 80.0634C76.6769 79.9735 76.7571 79.884 76.8243 79.794L77.1728 79.3711C77.2127 79.3329 77.253 79.2817 77.28 79.2431L77.3341 79.1527C77.3744 79.1014 77.4274 79.0635 77.4546 79.0119C77.4682 78.986 77.4949 78.9606 77.5215 78.935L77.7228 78.6784C77.8839 78.4732 78.0452 78.2547 78.2063 78.0494L78.2195 78.0367C78.327 77.8955 78.4347 77.7412 78.5425 77.5868L78.8787 77.1241C79.3235 76.4677 79.7553 75.811 80.1345 75.1658C80.5409 74.469 80.9213 73.7713 81.2493 73.0722C81.591 72.3472 81.9071 71.5952 82.1708 70.8548C82.2263 70.6989 82.2818 70.543 82.3243 70.3868C82.3381 70.3479 82.3517 70.3219 82.3526 70.2826C82.4089 70.0874 82.4782 69.8926 82.5346 69.6974C82.5765 69.5673 82.6051 69.45 82.6339 69.3196C82.6485 69.2413 82.6761 69.1765 82.6908 69.0981L82.6913 69.0719C82.7193 68.9808 82.7343 68.8894 82.7624 68.7984C82.7629 68.7722 82.7764 68.7463 82.7901 68.7204C82.8045 68.6552 82.8323 68.5773 82.8469 68.4989C82.9914 67.8338 83.1667 66.9465 83.2639 66.0437C83.2785 65.9654 83.2801 65.8867 83.2949 65.8084C83.3107 65.6775 83.3264 65.5468 83.3422 65.416L83.3815 64.7872C83.4008 64.4859 83.4071 64.1842 83.4134 63.8825C83.4158 63.7644 83.4186 63.6332 83.421 63.5153C83.424 63.3709 83.4273 63.2135 83.4173 63.0688C83.4186 63.0033 83.4069 62.9373 83.4083 62.8717C83.4102 62.7799 83.3988 62.7008 83.4007 62.609C83.6871 62.6567 83.9735 62.7044 84.2602 62.7391C84.9638 62.8253 85.7081 62.847 86.4407 62.8028ZM86.4407 62.8028C86.0742 62.8315 85.6956 62.8204 85.33 62.8097C84.6772 62.7906 84.0255 62.7191 83.3749 62.5951C83.3646 62.4635 83.3669 62.3455 83.3566 62.2139L83.3048 61.5693L83.2741 61.1616L83.2398 60.9243L83.1604 60.3445C84.0047 60.5791 84.8512 60.7089 85.6737 60.7329C85.8695 60.7386 86.0654 60.7444 86.2615 60.737L86.2724 60.8423L86.2835 60.9345L86.3151 61.303C86.3371 61.5005 86.3591 61.698 86.3683 61.8819L86.3784 62.0266L86.4415 62.7635C86.4412 62.7766 86.4407 62.8028 86.4407 62.8028ZM96.0204 29.9951C96.0466 29.9958 96.136 30.0904 96.2367 30.277C96.287 30.3704 96.3626 30.5038 96.4382 30.6373L96.4505 30.677C96.5261 30.8105 96.6011 30.9702 96.6887 31.1565C96.776 31.3559 96.876 31.5688 96.9753 31.821C97.0378 31.9542 97.0873 32.0869 97.1371 32.2065L97.1866 32.3392C97.2239 32.4321 97.2608 32.5382 97.2981 32.6312C97.3101 32.684 97.3354 32.7241 97.3604 32.7773C97.3976 32.8703 97.4346 32.9764 97.4716 33.0825L97.6307 33.599C97.6426 33.6518 97.6677 33.7051 97.6925 33.7714C97.7294 33.8775 97.7789 34.0102 97.8156 34.1294L97.8888 34.3809C97.9257 34.487 97.9497 34.5927 97.9867 34.6988C98.1941 35.4004 98.3988 36.2333 98.6376 37.3165C98.6732 37.4882 98.6955 37.6725 98.7311 37.8442L98.766 38.0552C98.7896 38.174 98.8132 38.2929 98.8238 38.4113L98.8232 38.4375L98.8804 38.833C98.8916 38.9252 98.9027 39.0173 98.9138 39.1095C98.9363 39.2808 98.9718 39.4656 98.9943 39.6368C99.0277 39.9135 99.0612 40.1901 99.0943 40.4798C99.2125 41.7038 99.2655 42.926 99.2536 44.12L99.2332 45.1038C99.2285 45.3268 99.2108 45.5494 99.1931 45.772C99.1909 45.8769 99.1754 45.9946 99.1733 46.0996C99.1705 46.2307 99.1547 46.3615 99.1389 46.4923C99.1381 46.5317 99.1373 46.571 99.1235 46.61L99.1221 46.6756C99.106 46.8194 99.0897 46.9765 99.0866 47.1208C99.0847 47.2126 99.0701 47.2909 99.0681 47.3828C99.0537 47.4479 99.0524 47.5135 99.038 47.5787L99.0366 47.6443C99.0357 47.6837 99.0219 47.7226 99.0211 47.762C99.0053 47.8928 98.9892 48.0367 98.96 48.1802C98.7464 49.657 98.4025 51.117 97.916 52.5203C97.6518 53.2868 97.3491 54.0261 97.0209 54.7253C96.6657 55.4762 96.2584 56.2124 95.8264 56.8822C95.3538 57.6166 94.8168 58.3096 94.2687 58.9104C93.9613 59.2427 93.6542 59.5618 93.3348 59.8412C92.9888 60.1461 92.643 60.4379 92.285 60.6899C90.7332 61.8127 88.9417 62.5215 87.1212 62.744C86.8984 62.7768 86.6628 62.7962 86.4407 62.8028C86.4409 62.7897 86.4412 62.7766 86.4415 62.7635L86.4042 62.0405L86.3942 61.8958C86.3721 61.6984 86.3502 61.5008 86.3409 61.3168L86.2983 60.8562L86.2874 60.7508C86.4966 60.7439 86.6926 60.7365 86.9021 60.7163C87.0723 60.6951 87.2426 60.6738 87.426 60.6528L87.4916 60.6417C87.5702 60.6309 87.649 60.6069 87.7277 60.5961C87.8457 60.5733 87.9507 60.5501 88.0688 60.5273C88.1212 60.5157 88.1738 60.5041 88.2266 60.4794L88.319 60.4296C88.332 60.43 88.3324 60.4168 88.3585 60.4176C88.4374 60.3937 88.529 60.3833 88.6082 60.3462C88.661 60.3215 88.7265 60.3103 88.7793 60.2855C88.8975 60.2497 89.0292 60.201 89.1609 60.1523C89.8719 59.8844 90.5585 59.537 91.2078 59.0966C92.387 58.3042 93.455 57.2066 94.3976 55.8561C94.8149 55.2646 95.1941 54.6194 95.5481 53.9341C95.8748 53.3006 96.1762 52.6269 96.4391 51.9258C96.9364 50.6279 97.3174 49.2741 97.568 47.9032C97.6863 47.2373 97.7786 46.5707 97.857 45.9429C97.8726 45.8253 97.8753 45.6941 97.8907 45.5765C97.908 45.3801 97.9251 45.1837 97.9553 44.9877L98.0141 44.0445C98.0771 42.9044 98.0755 41.7231 98.022 40.5272C98.0017 40.251 97.9944 39.9752 97.9736 39.712C97.9642 39.5412 97.9417 39.3699 97.9318 39.2121C97.9207 39.1199 97.9098 39.0145 97.9117 38.9228L97.8805 38.5412L97.8814 38.5019C97.8707 38.3834 97.8598 38.2781 97.8362 38.1593C97.8022 37.909 97.7811 37.6721 97.7468 37.4348C97.5866 36.3408 97.4336 35.5357 97.2914 34.8359L97.1726 34.2681C97.1489 34.1493 97.125 34.0436 97.088 33.9375C97.0763 33.8715 97.0516 33.8051 97.0399 33.7392C97.016 33.6336 96.9921 33.5278 96.9681 33.4221L96.9197 33.237C96.8958 33.1313 96.8716 33.0386 96.8343 32.9457C96.8223 32.8929 96.7976 32.8265 96.7856 32.7736C96.7495 32.6283 96.7002 32.4824 96.6641 32.337C96.6279 32.1916 96.5915 32.0592 96.5548 31.9401C96.4816 31.6885 96.4079 31.4632 96.3601 31.2519C96.3236 31.1196 96.2872 30.9873 96.2503 30.8811C96.2255 30.8148 96.2135 30.762 96.2016 30.7091C96.1526 30.5502 96.1162 30.4179 96.0922 30.3122C96.0177 30.1263 95.9811 30.0071 96.0204 29.9951ZM74.2469 47.3528C74.2599 47.3532 74.2727 47.3668 74.2727 47.3668C74.3902 47.3702 74.5333 47.4006 74.7025 47.4318C74.8455 47.4622 75.0141 47.5196 75.2214 47.6044L75.5062 47.7309L75.6487 47.7876C75.7007 47.8022 75.7393 47.8296 75.791 47.8574C76.5023 48.2063 77.198 48.6728 77.8522 49.2563C78.4679 49.7994 79.0554 50.4465 79.5762 51.1573C80.0717 51.8281 80.5392 52.5898 80.9668 53.3898C81.0293 53.5229 81.0921 53.6428 81.1547 53.7759C81.1925 53.8426 81.2172 53.909 81.255 53.9757C81.3423 54.1752 81.4294 54.3878 81.5297 54.5875L81.6671 54.8934C81.6918 54.9598 81.7166 55.0261 81.7413 55.0925C81.7536 55.1322 81.7657 55.1719 81.7783 55.1986L82.0136 55.8223C82.0263 55.8358 82.0257 55.862 82.0386 55.8755C82.051 55.9021 82.0633 55.9419 82.0758 55.9684L82.1376 56.1409L82.2354 56.4587L82.3464 56.7769C82.3589 56.8035 82.3583 56.8298 82.3709 56.8564C82.3953 56.9359 82.4198 57.0154 82.4442 57.0949C82.4932 57.2538 82.5291 57.4123 82.5783 57.5581L82.6273 57.7171C82.6395 57.7568 82.6517 57.7965 82.664 57.8362C82.6887 57.9026 82.7004 57.9686 82.7251 58.0349L82.7969 58.3521C82.8451 58.5503 82.8929 58.7617 82.941 58.96L82.9535 58.9866C82.9769 59.1185 83.0001 59.2635 83.0235 59.3955C83.0348 59.4745 83.0463 59.5536 83.0707 59.6331L83.1031 59.9622C83.1025 59.9884 83.1023 60.0015 83.1019 60.0146C83.1142 60.0544 83.1267 60.081 83.139 60.1207L83.1733 60.358C82.8226 60.2559 82.4592 60.1402 82.1092 60.0119C81.3315 59.7135 80.5816 59.3372 79.8725 58.8834C79.1894 58.4434 78.508 57.9116 77.8675 57.3023C77.2525 56.72 76.6654 56.0597 76.1315 55.3484C75.6104 54.6507 75.1295 53.9017 74.7017 53.1148C74.6639 53.0481 74.6261 52.9814 74.6011 52.9281C74.5255 52.7947 74.4629 52.6616 74.3873 52.5282L74.362 52.488C74.2745 52.3017 74.1738 52.115 74.0862 51.9287L73.9489 51.6229L73.712 51.0778L73.6873 51.0114C73.65 50.9185 73.6128 50.8255 73.5886 50.7329C73.4656 50.3618 73.3691 49.9784 73.3251 49.5834C73.268 49.188 73.2629 48.8072 73.3089 48.4805C73.3416 48.1664 73.4392 47.8674 73.5603 47.7003C73.6141 47.6231 73.6675 47.5722 73.7339 47.5216C73.8005 47.4579 73.8796 47.4209 73.9716 47.3973C74.0635 47.3738 74.1424 47.3498 74.2469 47.3528Z" fill="black"/>
</g>
<defs>
<clipPath id="clip0_868_2863">
<rect width="95" height="99" fill="white" transform="translate(0 47.0361) rotate(-29.6774)"/>
</clipPath>
</defs>
</svg>
