<svg width="1283" height="246" viewBox="0 0 1283 246" fill="none" xmlns="http://www.w3.org/2000/svg">
<g clip-path="url(#clip0_868_2779)">
<path d="M2462.99 22.4276C2361.98 22.4276 2315.65 79.237 2315.65 79.237C2315.65 79.237 2282.29 47.1672 2230.4 70.9905C2146.08 108.558 2189.63 193.772 2189.63 193.772C2189.63 193.772 2178.51 195.605 2172.02 202.019C2166.46 208.433 2167.39 219.428 2167.39 219.428C2167.39 219.428 2158.12 214.846 2146.08 217.595C2134.03 220.344 2131.25 230.423 2131.25 230.423C2131.25 230.423 2134.96 199.27 2117.35 184.609C2081.21 153.456 2040.44 182.777 2040.44 182.777C2040.44 182.777 2034.88 176.363 2032.1 174.53C2028.4 172.698 2020.98 172.698 2020.98 172.698C2020.98 172.698 1980.21 139.711 1914.42 148.874C1848.63 158.037 1818.05 221.26 1818.05 221.26C1818.05 221.26 1813.42 191.023 1781.91 176.363C1737.43 154.372 1713.34 176.363 1713.34 176.363C1713.34 176.363 1735.58 138.795 1695.74 117.721C1655.89 96.6463 1638.28 128.716 1638.28 128.716C1638.28 128.716 1629.94 124.135 1618.82 124.135C1607.71 124.135 1597.51 134.214 1597.51 134.214C1597.51 134.214 1598.44 127.8 1587.32 124.135C1576.2 120.47 1568.79 124.135 1568.79 124.135C1568.79 124.135 1602.15 61.8277 1536.35 42.5858C1480.76 26.0928 1463.15 66.4091 1458.52 79.237C1457.59 76.4882 1454.81 72.8231 1450.18 69.1579C1440.91 62.744 1438.13 64.5765 1438.13 64.5765C1438.13 64.5765 1447.4 27.9253 1422.38 16.93C1397.36 5.9346 1383.46 27.009 1383.46 27.009C1383.46 27.009 1354.74 17.8462 1330.64 39.837C1306.55 61.8277 1311.18 90.2324 1311.18 90.2324C1311.18 90.2324 1302.84 90.2324 1291.72 96.6463C1280.6 103.06 1278.75 112.223 1278.75 112.223C1278.75 112.223 1263 101.228 1238.91 101.228C1214.81 101.228 1197.21 112.223 1197.21 112.223C1197.21 112.223 1190.72 98.4789 1171.26 90.2324C1151.8 81.9859 1134.2 90.2324 1134.2 90.2324C1134.2 90.2324 1158.29 36.1718 1090.65 7.76716C1023 -20.6375 973.89 38.0044 973.89 38.0044C973.89 38.0044 965.55 38.0044 956.284 39.837C947.944 41.6695 942.384 48.0835 942.384 48.0835C942.384 48.0835 921.072 17.8462 879.373 26.0928C837.675 34.3393 826.555 78.3207 826.555 78.3207C826.555 78.3207 800.609 32.5067 712.58 42.5858C624.55 52.6649 609.723 97.5626 609.723 97.5626C609.723 97.5626 598.604 84.7347 572.658 91.1487C565.245 92.9812 560.612 95.7301 555.979 99.3952C547.639 80.1533 530.96 54.4974 498.528 59.0788C468.875 62.744 461.462 79.237 461.462 79.237C461.462 79.237 456.829 72.8231 450.343 72.8231H437.37C437.37 72.8231 432.737 64.5765 421.617 59.9951C410.498 55.4137 399.378 59.9951 399.378 59.9951C399.378 59.9951 377.139 48.9998 355.826 59.9951C334.514 70.9905 327.101 97.5626 327.101 97.5626C327.101 97.5626 311.348 84.7347 293.742 91.1487C276.136 97.5626 276.136 116.805 276.136 116.805C276.136 116.805 271.503 112.223 260.383 114.972C249.264 116.805 247.411 121.386 247.411 121.386C247.411 121.386 240.924 100.311 221.465 95.7301C202.006 91.1487 181.62 97.5626 181.62 97.5626C181.62 97.5626 165.867 51.7486 78.7637 42.5858C43.5517 38.9207 17.606 44.4184 0 51.7486V246H2627V92.0649C2618.66 93.8975 2612.17 95.7301 2612.17 95.7301C2612.17 95.7301 2563.99 22.4276 2462.99 22.4276Z" fill="#F0F7FD"/>
</g>
<defs>
<clipPath id="clip0_868_2779">
<rect width="1283" height="246" fill="white"/>
</clipPath>
</defs>
</svg>
