<svg width="58" height="58" viewBox="0 0 58 58" fill="none" xmlns="http://www.w3.org/2000/svg">
<path d="M14.9375 56.1864V48.6152L8.25875 43.3802C7.56688 42.8289 6.62187 41.7208 6.27875 40.9071L1.8125 30.5233V21.4877C1.8125 20.3552 5.75375 18.6583 6.88437 23.1827C7.25937 24.6902 7.33812 25.9839 7.41312 27.1239" stroke="#2B3990" stroke-width="3" stroke-miterlimit="10" stroke-linecap="round" stroke-linejoin="round"/>
<path d="M18.8398 36.6562C23.0192 37.7081 26.1842 41.4638 26.1842 45.9431V56.1863" stroke="#2B3990" stroke-width="3" stroke-miterlimit="10" stroke-linecap="round" stroke-linejoin="round"/>
<path d="M15.4287 40.0928L7.20312 31.8803C7.76937 31.314 10.6006 28.4847 14.5944 32.4803L18.8225 36.699" stroke="#2B3990" stroke-width="3" stroke-miterlimit="10" stroke-linecap="round" stroke-linejoin="round"/>
<path d="M43.0625 56.1865V48.6153L49.7431 43.3803C50.435 42.829 51.38 41.7209 51.7231 40.9071L56.1894 30.5253V21.4896C56.1894 20.3571 52.2481 18.6603 51.1175 23.1846C50.7425 24.6921 50.6637 25.9859 50.5887 27.1259" stroke="#2B3990" stroke-width="3" stroke-miterlimit="10" stroke-linecap="round" stroke-linejoin="round"/>
<path d="M39.1569 36.6562C34.9775 37.7081 31.8125 41.4638 31.8125 45.9431V56.1863" stroke="#2B3990" stroke-width="3" stroke-miterlimit="10" stroke-linecap="round" stroke-linejoin="round"/>
<path d="M42.5734 40.0928L50.7991 31.8803C50.2328 31.314 47.4016 28.4847 43.4078 32.4803L39.1797 36.699" stroke="#2B3990" stroke-width="3" stroke-miterlimit="10" stroke-linecap="round" stroke-linejoin="round"/>
<path d="M42.5734 40.0928L50.7991 31.8803C50.2328 31.314 47.4016 28.4847 43.4078 32.4803L39.1797 36.699" stroke="#2B3990" stroke-width="3" stroke-miterlimit="10" stroke-linecap="round" stroke-linejoin="round"/>
<path d="M29.7032 15.0611C29.27 14.3054 29.0863 13.3998 29.2382 12.4754C29.435 11.2867 28.6344 10.1654 27.4457 9.96669C26.2569 9.76794 25.1357 10.5723 24.9369 11.7592C24.1888 16.2648 27.245 20.5417 31.7525 21.2898C32.3582 21.3911 32.96 21.4229 33.5488 21.3929" stroke="#2B3990" stroke-width="3" stroke-miterlimit="10" stroke-linecap="round" stroke-linejoin="round"/>
<path d="M31.2605 16.5604C29.8205 15.7861 28.9562 14.1754 29.2393 12.4729C29.513 10.8154 30.7937 9.58732 32.3518 9.27795C32.3593 9.21982 32.3518 9.1617 32.363 9.10357C33.1524 4.35232 37.643 1.14045 42.3962 1.92982C47.1493 2.7192 50.6368 7.2642 50.0855 12.0473C49.3243 18.6698 41.693 21.5948 40.7049 22.3036C39.1337 23.4267 36.6962 35.9573 25.0843 33.8142C20.6143 32.9892 16.5024 28.3373 20.2768 18.5086C19.0412 22.2117 17.7099 22.5379 16.7818 22.7629C15.3624 23.1061 12.3043 21.9867 12.6755 19.7854C13.0918 17.3236 16.0524 18.0229 16.0524 18.0229C17.0612 14.6198 19.4462 12.8048 22.388 13.5586C26.048 14.4979 26.4905 19.2248 25.643 22.4779" stroke="#2B3990" stroke-width="3" stroke-miterlimit="10" stroke-linecap="round" stroke-linejoin="round"/>
</svg>
