<svg width="60" height="60" viewBox="0 0 60 60" fill="none" xmlns="http://www.w3.org/2000/svg">
<path d="M4.16677 33.7497C4.7838 33.7507 5.38725 33.5685 5.90063 33.2262C6.41401 32.8839 6.81421 32.3969 7.05052 31.8269L9.37458 26.2497V36.4844L7.72927 55.449C7.65441 56.3132 7.92026 57.1724 8.47009 57.8433C9.01993 58.5141 9.81019 58.9435 10.6722 59.0398C11.5342 59.1361 12.3998 58.8916 13.0841 58.3586C13.7684 57.8256 14.2172 57.0462 14.3349 56.1869L16.7555 38.4372H16.9936L19.4143 56.1869C19.5319 57.0462 19.9808 57.8256 20.6651 58.3586C21.3494 58.8916 22.2149 59.1361 23.0769 59.0398C23.939 58.9435 24.7292 58.5141 25.2791 57.8433C25.8289 57.1724 26.0948 56.3132 26.0199 55.449L24.3746 36.5622V26.2497L26.6986 31.8269C27.0118 32.5939 27.6169 33.2052 28.3807 33.5261C29.1445 33.8471 30.0046 33.8514 30.7716 33.5383C31.5387 33.2251 32.1499 32.6201 32.4709 31.8562C32.7918 31.0924 32.7962 30.2324 32.483 29.4653L27.5968 17.2497C27.1132 16.0293 26.2732 14.983 25.1862 14.2472C24.0992 13.5114 22.8157 13.1202 21.503 13.1247H20.2374C21.471 12.3886 22.429 11.268 22.9643 9.93494C23.4997 8.60189 23.5829 7.13 23.2011 5.74512C22.8193 4.36025 21.9936 3.13891 20.8508 2.26852C19.708 1.39812 18.3111 0.926758 16.8746 0.926758C15.438 0.926758 14.0412 1.39812 12.8984 2.26852C11.7555 3.13891 10.9299 4.36025 10.5481 5.74512C10.1663 7.13 10.2495 8.60189 10.7848 9.93494C11.3202 11.268 12.2782 12.3886 13.5118 13.1247H12.2452C10.9326 13.1204 9.64921 13.5117 8.56225 14.2475C7.47529 14.9833 6.63519 16.0295 6.15145 17.2497L1.26614 29.4653C1.07668 29.9393 1.00624 30.4526 1.06099 30.9601C1.11574 31.4676 1.294 31.954 1.58019 32.3768C1.86639 32.7995 2.25179 33.1456 2.70269 33.385C3.1536 33.6243 3.65628 33.7495 4.16677 33.7497ZM12.1871 7.49967C12.1871 6.57257 12.462 5.66629 12.9771 4.89544C13.4921 4.12458 14.2242 3.52377 15.0807 3.16899C15.9373 2.8142 16.8798 2.72137 17.7891 2.90224C18.6984 3.08311 19.5336 3.52955 20.1891 4.18511C20.8447 4.84067 21.2911 5.6759 21.472 6.58519C21.6529 7.49447 21.5601 8.43697 21.2053 9.2935C20.8505 10.15 20.2497 10.8821 19.4788 11.3972C18.708 11.9123 17.8017 12.1872 16.8746 12.1872C15.6318 12.1857 14.4404 11.6913 13.5617 10.8126C12.6829 9.93384 12.1886 8.74242 12.1871 7.49967ZM3.00708 30.1619L7.89333 17.9462C8.23866 17.0747 8.83857 16.3274 9.61484 15.8018C10.3911 15.2762 11.3077 14.9967 12.2452 14.9997H21.504C22.4414 14.9967 23.358 15.2762 24.1343 15.8018C24.9106 16.3274 25.5105 17.0747 25.8558 17.9462L30.7421 30.1619C30.8179 30.3514 30.8462 30.5566 30.8243 30.7595C30.8025 30.9625 30.7312 31.157 30.6168 31.326C30.5023 31.4951 30.3482 31.6335 30.1679 31.7291C29.9876 31.8248 29.7865 31.8747 29.5824 31.8747C29.3357 31.875 29.0945 31.8021 28.8892 31.6653C28.6839 31.5284 28.5239 31.3338 28.4293 31.1059L24.3043 21.2012C24.2216 21 24.0716 20.8338 23.8798 20.731C23.688 20.6283 23.4665 20.5955 23.2532 20.6381C23.0399 20.6808 22.848 20.7963 22.7106 20.9649C22.5731 21.1335 22.4985 21.3446 22.4996 21.5622V36.6428L24.1486 55.6112C24.1662 55.8111 24.142 56.0125 24.0776 56.2026C24.0133 56.3927 23.9101 56.5673 23.7748 56.7155C23.6394 56.8636 23.4747 56.982 23.2912 57.0632C23.1077 57.1444 22.9093 57.1866 22.7086 57.1872C22.3584 57.1861 22.0203 57.0587 21.7563 56.8285C21.4923 56.5983 21.3202 56.2806 21.2715 55.9337L18.7402 37.3712C18.7092 37.1471 18.5982 36.9417 18.4276 36.793C18.257 36.6443 18.0384 36.5623 17.8121 36.5622H15.9371C15.7103 36.5621 15.4913 36.6443 15.3204 36.7934C15.1496 36.9425 15.0386 37.1484 15.008 37.3731L12.4768 55.9356C12.4277 56.282 12.2555 56.5991 11.9917 56.8289C11.728 57.0587 11.3903 57.1859 11.0405 57.1872C10.8395 57.1872 10.6407 57.1453 10.4568 57.0644C10.2728 56.9834 10.1077 56.8651 9.9719 56.7169C9.83613 56.5687 9.73266 56.3938 9.66808 56.2035C9.6035 56.0132 9.57921 55.8115 9.59677 55.6112L11.2496 36.5622V21.5622C11.2496 21.3454 11.1746 21.1354 11.0372 20.9678C10.8998 20.8001 10.7086 20.6853 10.4961 20.6427C10.2836 20.6002 10.0629 20.6326 9.87161 20.7344C9.68029 20.8362 9.53016 21.0012 9.44676 21.2012L5.31989 31.1059C5.22529 31.3338 5.06524 31.5284 4.85997 31.6653C4.65471 31.8021 4.41346 31.875 4.16677 31.8747C3.96264 31.8747 3.76161 31.8248 3.58128 31.7291C3.40094 31.6335 3.24681 31.4951 3.13236 31.326C3.01792 31.157 2.94666 30.9625 2.92482 30.7595C2.90298 30.5566 2.93122 30.3514 3.00708 30.1619Z" fill="#2B3990"/>
<path d="M51.5614 44.0624C50.4811 44.0628 49.4139 44.2996 48.4348 44.7561C48.1327 43.9311 47.6039 43.2081 46.9092 42.6701C46.2146 42.1321 45.3823 41.8011 44.5079 41.7149C43.6336 41.6287 42.7526 41.791 41.9663 42.183C41.1801 42.5751 40.5203 43.181 40.0629 43.9311L35.1683 51.927C34.5206 52.9876 34.32 54.2618 34.6105 55.4701C34.901 56.6784 35.6589 57.7221 36.7179 58.3724C37.451 58.8234 38.2947 59.0625 39.1554 59.0633C39.5274 59.0632 39.8981 59.0192 40.2598 58.932C40.859 58.7896 41.4239 58.5297 41.922 58.1675C42.42 57.8053 42.8413 57.3479 43.1614 56.8217L44.6361 54.4133C45.1536 55.6686 46.0025 56.7597 47.0919 57.5701C48.1814 58.3804 49.4706 58.8796 50.8217 59.0142C52.1728 59.1488 53.5351 58.9138 54.7631 58.3343C55.991 57.7549 57.0385 56.8527 57.7935 55.7241C58.5486 54.5956 58.9828 53.2832 59.0499 51.927C59.117 50.5709 58.8144 49.222 58.1744 48.0244C57.5344 46.8269 56.5812 45.8257 55.4164 45.1279C54.2516 44.4301 52.9192 44.0618 51.5614 44.0624ZM41.5639 55.843C41.3744 56.1648 41.1227 56.4457 40.8236 56.6692C40.5244 56.8927 40.1837 57.0544 39.8213 57.1448C39.459 57.2353 39.0823 57.2526 38.7132 57.1959C38.344 57.1392 37.9899 57.0096 37.6714 56.8145C37.353 56.6195 37.0765 56.363 36.8582 56.06C36.6399 55.757 36.4842 55.4135 36.4 55.0497C36.3159 54.6858 36.3051 54.3088 36.3682 53.9408C36.4313 53.5727 36.5671 53.2208 36.7676 52.9058L38.7251 49.708L43.5223 52.6442L41.5639 55.843ZM44.5011 51.0458L39.7048 48.1086L41.6623 44.9061C41.8544 44.5895 42.1071 44.3139 42.4059 44.0952C42.7047 43.8765 43.0438 43.7189 43.4037 43.6316C43.7636 43.5442 44.1372 43.5288 44.503 43.5862C44.8689 43.6436 45.2198 43.7727 45.5356 43.9661C45.8514 44.1595 46.126 44.4133 46.3435 44.7131C46.5609 45.0128 46.7171 45.3526 46.8029 45.7128C46.8888 46.073 46.9026 46.4467 46.8437 46.8123C46.7847 47.1779 46.6542 47.5283 46.4595 47.8433L44.5011 51.0458ZM45.9917 52.2027L48.0589 48.8277C48.4424 48.1923 48.6675 47.4739 48.7151 46.7333C49.5733 46.2129 50.5577 45.9376 51.5614 45.9374C51.8503 45.9394 52.1387 45.9638 52.4239 46.0105L48.9195 56.5236C48.1165 56.0962 47.4301 55.4792 46.9199 54.7262C46.4096 53.9731 46.091 53.1069 45.9917 52.2027ZM51.5614 57.1874C51.2725 57.1852 50.9841 57.1611 50.6989 57.1152L54.2042 46.5992C55.3107 47.1894 56.1882 48.1325 56.6974 49.2785C57.2066 50.4245 57.3182 51.7078 57.0145 52.9246C56.7108 54.1413 56.0092 55.2217 55.0212 55.994C54.0332 56.7663 52.8154 57.1864 51.5614 57.1874Z" fill="#2B3990"/>
<path d="M50.0212 37.8237L51.2288 39.2581C54.6384 36.3884 58.125 32.5991 58.125 26.2503C58.125 19.8519 54.7275 16.1253 50.8416 12.9219C50.4047 13.2669 49.9678 13.6072 49.5366 13.9409L49.3256 14.105C51.0626 15.4349 52.6078 16.998 53.9175 18.7503H44.0897C43.5825 19.3338 43.1282 19.9613 42.7322 20.6253H55.0313C55.7303 22.0952 56.1351 23.6876 56.2228 25.3128H41.2884C41.2659 25.6184 41.25 25.9278 41.25 26.2503C41.25 26.5728 41.2631 26.8831 41.2837 27.1878H56.2181C56.126 28.8136 55.7178 30.4058 55.0162 31.8753H42.7162C43.1137 32.5397 43.5699 33.1672 44.0794 33.7503H53.9231C52.8053 35.2721 51.4936 36.6415 50.0212 37.8237Z" fill="#2B3990"/>
<path d="M44.7844 10.5159C45.2213 10.1709 45.6581 9.83063 46.0894 9.49687L46.3003 9.33281C44.5641 8.00362 43.0203 6.44033 41.7131 4.6875H51.5363C52.0435 4.10401 52.4978 3.47653 52.8937 2.8125H40.6219C40.3247 2.20922 40.0789 1.58201 39.8869 0.9375H37.9453C38.9831 5.14875 41.7291 7.99875 44.7844 10.5159Z" fill="#2B3990"/>
<path d="M44.3962 39.2578L45.6038 37.8234C42.3684 35.1009 39.375 31.8159 39.375 26.25C39.375 19.4438 43.7522 16.0519 48.3872 12.4603C52.3275 9.40594 56.3719 6.26062 57.6816 0.9375H55.7344C54.4528 5.37469 50.9306 8.11594 47.2378 10.9772C42.4509 14.6878 37.5 18.525 37.5 26.25C37.5 32.5987 40.9866 36.3881 44.3962 39.2578Z" fill="#2B3990"/>
</svg>
