<svg width="60" height="60" viewBox="0 0 60 60" fill="none" xmlns="http://www.w3.org/2000/svg">
<path d="M35.621 20.5077L33.0455 20.1336C32.9166 20.1148 32.8053 20.034 32.7476 19.9168L31.5959 17.5833C31.2936 16.9707 30.681 16.5898 29.9978 16.5898C29.3149 16.5898 28.7023 16.9707 28.3999 17.5833L27.2483 19.9168C27.1906 20.034 27.0789 20.1148 26.95 20.1336L24.3748 20.5077C23.6984 20.6062 23.1473 21.0708 22.9361 21.7209C22.7251 22.3707 22.898 23.0706 23.3872 23.5473L25.2508 25.364C25.344 25.4548 25.3867 25.586 25.3648 25.7144L24.9247 28.2793C24.809 28.9528 25.0806 29.6205 25.6334 30.0222C25.9457 30.2489 26.3114 30.3644 26.679 30.3644C26.9623 30.3644 27.2471 30.2961 27.5102 30.1578L29.8138 28.947C29.8136 28.947 29.8138 28.9468 29.8138 28.947C29.9289 28.8866 30.0669 28.886 30.1821 28.947L32.4857 30.1575C33.0906 30.476 33.8099 30.4235 34.3621 30.0222C34.915 29.6205 35.1868 28.9528 35.0711 28.2793L34.6311 25.7144C34.6091 25.586 34.6516 25.4548 34.745 25.364L36.6086 23.5473C37.0979 23.0703 37.2707 22.3704 37.0595 21.7206C36.8486 21.0708 36.2972 20.6062 35.621 20.5077ZM35.6412 22.5547L33.7777 24.3714C33.3575 24.781 33.1659 25.3707 33.2653 25.9487L33.7053 28.5137C33.7428 28.7325 33.6074 28.8573 33.5477 28.901C33.4879 28.9446 33.3271 29.0346 33.1308 28.9309L30.8275 27.7203C30.308 27.447 29.6884 27.4467 29.169 27.72L26.8651 28.9312C26.6682 29.0337 26.5076 28.9446 26.4482 28.901C26.3881 28.8573 26.2531 28.7325 26.2906 28.5137L26.7309 25.9481C26.8296 25.3701 26.638 24.7807 26.2182 24.3714L24.3543 22.5547C24.1955 22.3997 24.2313 22.2192 24.2541 22.1489C24.277 22.0786 24.354 21.9113 24.574 21.8794L27.1492 21.5053C27.7296 21.4209 28.2315 21.0564 28.491 20.5303L29.6427 18.1968C29.7411 17.9976 29.9239 17.9759 29.9978 17.9759C30.0719 17.9759 30.2547 17.9976 30.3531 18.1968L31.5045 20.5297C31.7638 21.0562 32.2654 21.4206 32.8463 21.5053L35.4218 21.8794C35.6415 21.9113 35.7186 22.0783 35.7414 22.1489C35.7643 22.2192 35.8003 22.3997 35.6412 22.5547Z" fill="#2B3990"/>
<path d="M29.8138 28.947L27.5102 30.1578C27.2471 30.2961 26.9623 30.3644 26.679 30.3644C26.3114 30.3644 25.9457 30.2489 25.6334 30.0222C25.0806 29.6205 24.809 28.9528 24.9247 28.2793L25.3648 25.7144C25.3867 25.586 25.344 25.4548 25.2508 25.364L23.3872 23.5473C22.898 23.0706 22.7251 22.3707 22.9361 21.7209C23.1473 21.0708 23.6984 20.6062 24.3748 20.5077L26.95 20.1336C27.0789 20.1148 27.1906 20.034 27.2483 19.9168L28.3999 17.5833C28.7023 16.9707 29.3149 16.5898 29.9978 16.5898C30.681 16.5898 31.2936 16.9707 31.5959 17.5833L32.7476 19.9168C32.8053 20.034 32.9166 20.1148 33.0455 20.1336L35.621 20.5077C36.2972 20.6062 36.8486 21.0708 37.0595 21.7206C37.2707 22.3704 37.0979 23.0703 36.6086 23.5473L34.745 25.364C34.6516 25.4548 34.6091 25.586 34.6311 25.7144L35.0711 28.2793C35.1868 28.9528 34.915 29.6205 34.3621 30.0222C33.8099 30.4235 33.0906 30.476 32.4857 30.1575L30.1821 28.947C30.0669 28.886 29.9289 28.8866 29.8138 28.947ZM29.8138 28.947C29.8138 28.9468 29.8136 28.947 29.8138 28.947ZM35.6412 22.5547L33.7777 24.3714C33.3575 24.781 33.1659 25.3707 33.2653 25.9487L33.7053 28.5137C33.7428 28.7325 33.6074 28.8573 33.5477 28.901C33.4879 28.9446 33.3271 29.0346 33.1308 28.9309L30.8275 27.7203C30.308 27.447 29.6884 27.4467 29.169 27.72L26.8651 28.9312C26.6682 29.0337 26.5076 28.9446 26.4482 28.901C26.3881 28.8573 26.2531 28.7325 26.2906 28.5137L26.7309 25.9481C26.8296 25.3701 26.638 24.7807 26.2182 24.3714L24.3543 22.5547C24.1955 22.3997 24.2313 22.2192 24.2541 22.1489C24.277 22.0786 24.354 21.9113 24.574 21.8794L27.1492 21.5053C27.7296 21.4209 28.2315 21.0564 28.491 20.5303L29.6427 18.1968C29.7411 17.9976 29.9239 17.9759 29.9978 17.9759C30.0719 17.9759 30.2547 17.9976 30.3531 18.1968L31.5045 20.5297C31.7638 21.0562 32.2654 21.4206 32.8463 21.5053L35.4218 21.8794C35.6415 21.9113 35.7186 22.0783 35.7414 22.1489C35.7643 22.2192 35.8003 22.3997 35.6412 22.5547Z" stroke="#2B3990" stroke-width="1.3"/>
<path d="M29.9986 11.1895C23.2231 11.1895 17.7109 16.7017 17.7109 23.4774C17.7109 30.2529 23.2231 35.7651 29.9986 35.7651C36.7744 35.7651 42.2866 30.2529 42.2866 23.4774C42.2866 16.7017 36.7744 11.1895 29.9986 11.1895ZM29.9986 34.3794C23.9872 34.3794 19.0967 29.4889 19.0967 23.4774C19.0967 17.466 23.9872 12.5752 29.9986 12.5752C36.0101 12.5752 40.9009 17.466 40.9009 23.4774C40.9009 29.4889 36.0101 34.3794 29.9986 34.3794Z" fill="#2B3990" stroke="#2B3990" stroke-width="1.3"/>
<path d="M46.1293 23.3585L47.0108 22.5332C47.8865 21.7132 48.2469 20.5261 47.9744 19.3578C47.7022 18.1894 46.8544 17.2841 45.7065 16.9358L44.5502 16.5848C44.4245 16.5464 44.3223 16.4609 44.2628 16.3437C44.203 16.2262 44.1939 16.0932 44.2373 15.969L44.6343 14.8285C45.0286 13.6955 44.7957 12.4768 44.0117 11.5689C43.2277 10.661 42.0561 10.2511 40.8781 10.4785L39.6925 10.7046C39.5641 10.7286 39.4329 10.7011 39.3254 10.6246C39.2182 10.5488 39.1484 10.4351 39.1288 10.305L38.9501 9.11058C38.7731 7.92406 38.0009 6.95316 36.8849 6.51342C35.7687 6.07338 34.5421 6.25707 33.6028 7.00384L32.6574 7.7556C32.5546 7.83763 32.4277 7.87367 32.2956 7.8555C32.1652 7.83793 32.0507 7.76996 31.973 7.66361L31.2599 6.6889C30.5515 5.72093 29.4157 5.21908 28.2239 5.34945C27.0312 5.47894 26.0302 6.21166 25.5462 7.30912L25.0587 8.4139C25.0057 8.53461 24.9081 8.62572 24.7845 8.67084C24.6614 8.71537 24.5281 8.70892 24.4098 8.65062L23.3252 8.11918C22.2476 7.59125 21.0104 7.67504 20.0146 8.34418C19.0188 9.01302 18.4727 10.1269 18.5539 11.324L18.6359 12.5292C18.645 12.6605 18.6011 12.7865 18.5126 12.8837C18.4241 12.981 18.3028 13.0367 18.1713 13.0405L16.964 13.0739C15.7648 13.1067 14.7078 13.7565 14.1368 14.8115C13.5658 15.8664 13.6001 17.1063 14.2282 18.1285L14.8604 19.1568C14.9293 19.2687 14.9489 19.4005 14.9158 19.528C14.8827 19.6554 14.8013 19.7609 14.6867 19.8253L13.6332 20.4157C12.587 21.0022 11.953 22.0686 11.9378 23.268C11.9225 24.4674 12.5293 25.5496 13.5605 26.1625L14.5985 26.7795C14.7116 26.8469 14.7904 26.9544 14.8203 27.0825C14.8502 27.2108 14.827 27.342 14.7553 27.4522L14.0967 28.4647C13.4428 29.4704 13.3768 30.7094 13.9209 31.7785C14.4649 32.8478 15.505 33.524 16.7026 33.5875L17.9091 33.6517C18.0403 33.6587 18.1601 33.7173 18.246 33.8166C18.3318 33.9162 18.3725 34.0434 18.3602 34.1746L18.248 35.3764C18.2168 35.7099 18.2395 36.0369 18.3029 36.3521L12.616 49.779C12.5223 50.0002 12.5498 50.2542 12.689 50.4502C12.8281 50.6459 13.0569 50.759 13.2986 50.7406L18.5762 50.4001L22.0039 54.4276C22.1366 54.5834 22.3303 54.6713 22.5315 54.6713C22.5664 54.6713 22.6016 54.6687 22.6367 54.6634C22.8743 54.6271 23.0759 54.4701 23.1696 54.2486L28.5231 41.6081C29.4273 41.525 30.2572 41.0776 30.8316 40.3331L30.8995 40.2452L36.8305 54.2486C36.9242 54.4701 37.1258 54.6271 37.3634 54.6634C37.3985 54.6687 37.4337 54.6713 37.4685 54.6713C37.6698 54.6713 37.8635 54.5834 37.9962 54.4276L41.4236 50.4001L46.7012 50.7406C46.9467 50.7596 47.172 50.6459 47.3108 50.4502C47.45 50.2542 47.4775 50.0002 47.3838 49.779L41.8893 36.8058C41.8892 36.8058 41.8895 36.8057 41.8893 36.8058C42.5758 36.6726 43.2102 36.323 43.7041 35.7798C44.5109 34.8921 44.7746 33.6798 44.4093 32.537L44.0416 31.3876C44.0015 31.2622 44.014 31.1295 44.0765 31.0141C44.1391 30.8984 44.2434 30.8155 44.3703 30.7803L45.534 30.4592C46.6903 30.1402 47.561 29.2566 47.8631 28.0955C48.1648 26.9345 47.8349 25.7386 46.9804 24.8966L46.1205 24.0496C46.0265 23.9571 45.9758 23.8337 45.9775 23.7022C45.9793 23.5706 46.0335 23.4485 46.1293 23.3585C46.1295 23.3585 46.1293 23.3587 46.1293 23.3585ZM27.0944 41.4282L22.3314 52.6742L19.4061 49.237C19.274 49.0818 19.0809 48.9933 18.8785 48.9933C18.8636 48.9933 18.8489 48.9936 18.834 48.9948L14.3302 49.2854L19.1318 37.9484C19.1318 37.9484 19.1318 37.9484 19.1318 37.9484C19.2832 38.1089 19.4465 38.2605 19.6323 38.3922C20.6108 39.086 21.846 39.202 22.9361 38.7013L24.0333 38.1977C24.1525 38.1426 24.2858 38.1391 24.4083 38.1871C24.5307 38.2355 24.626 38.3289 24.6758 38.4505L25.1349 39.5676C25.5019 40.4607 26.2129 41.1194 27.0951 41.4284L27.0944 41.4282ZM45.6696 49.2854L41.1658 48.9948C40.9478 48.9778 40.7354 49.0704 40.5936 49.237L37.6686 52.6742L31.9616 39.1998C31.9395 39.199 31.9187 39.1914 31.8963 39.1935C32.0269 39.1812 32.1547 39.2181 32.2557 39.3028L33.1815 40.0786C34.1009 40.8488 35.3217 41.0632 36.4496 40.6525C37.5766 40.2411 38.3735 39.2905 38.5809 38.1089L38.7901 36.9189C38.8127 36.7894 38.8856 36.6775 38.9949 36.6039C39.1036 36.531 39.2351 36.5061 39.3632 36.5336L40.3609 36.7506L45.6696 49.2854ZM45.1821 22.3469C44.808 22.697 44.5985 23.1719 44.5918 23.6843C44.585 24.1964 44.7825 24.6769 45.1475 25.0367L46.0077 25.8839C46.5055 26.3744 46.6973 27.0707 46.5216 27.7466C46.3458 28.4228 45.839 28.9375 45.1654 29.1233L44.0017 29.4444C43.5078 29.5806 43.1015 29.9037 42.8577 30.3543C42.614 30.8049 42.5653 31.3217 42.7215 31.8098L43.0891 32.9591C43.3018 33.6247 43.1483 34.3305 42.6784 34.8476C42.2091 35.3647 41.5226 35.5853 40.838 35.4362L39.6579 35.1795C39.1569 35.0703 38.6472 35.1681 38.2221 35.4535C37.7967 35.7391 37.5137 36.1744 37.4249 36.6792L37.2157 37.8693C37.095 38.5572 36.6309 39.1109 35.9747 39.3502C35.3184 39.5899 34.6071 39.4651 34.0716 39.0162L33.1458 38.2405C32.7532 37.9115 32.2555 37.7623 31.7469 37.8157C31.2377 37.871 30.7848 38.1247 30.4716 38.5305L29.7342 39.4865C29.3079 40.0396 28.6396 40.3144 27.9471 40.2212C27.2545 40.1284 26.6823 39.6869 26.4169 39.0409L25.9578 37.9235C25.7627 37.4497 25.393 37.0853 24.9163 36.8978C24.6939 36.8102 24.4628 36.7665 24.2319 36.7665C23.9674 36.7665 23.7037 36.824 23.455 36.9379L22.3578 37.4415C21.7244 37.7339 21.0043 37.6662 20.4342 37.2617C19.8641 36.8577 19.5629 36.2011 19.6279 35.5053L19.7401 34.3038C19.7879 33.7935 19.6297 33.299 19.2948 32.9111C18.9599 32.5232 18.4938 32.2947 17.9826 32.2677L16.7762 32.2036C16.0786 32.1666 15.473 31.7729 15.156 31.15C14.8393 30.5275 14.8777 29.8062 15.2586 29.2205L15.9172 28.208C16.1964 27.7786 16.2863 27.267 16.17 26.7681C16.0537 26.2692 15.7473 25.8499 15.3066 25.5883L14.2686 24.9713C13.6681 24.6142 13.3147 23.984 13.3235 23.2856C13.3326 22.5871 13.7017 21.9661 14.3108 21.6245L15.3643 21.0341C15.8111 20.7836 16.1284 20.3726 16.2573 19.8766C16.3862 19.3809 16.3095 18.8673 16.0411 18.4308L15.4089 17.4025C15.0432 16.8075 15.0233 16.0853 15.3558 15.4709C15.6884 14.8566 16.3036 14.4784 17.002 14.459L18.2097 14.4256C18.7218 14.4116 19.1937 14.1948 19.5383 13.8157C19.8828 13.4366 20.0533 12.9464 20.0187 12.4352L19.9367 11.2299C19.8892 10.5329 20.2074 9.88402 20.7872 9.49466C21.367 9.10531 22.088 9.0558 22.7152 9.36371L23.7995 9.89486C24.2592 10.1204 24.7774 10.1477 25.2588 9.97308C25.7401 9.79759 26.1195 9.44281 26.3266 8.97377L26.8141 7.86869C27.096 7.22943 27.679 6.80287 28.3736 6.72728C29.0688 6.6555 29.7289 6.94379 30.1414 7.50746L30.8545 8.48216C31.1571 8.89554 31.6036 9.16097 32.1113 9.22923C32.6196 9.29808 33.12 9.15922 33.5202 8.84017L34.4653 8.08841C35.0126 7.65394 35.7268 7.54759 36.3769 7.80306C37.0267 8.05912 37.4762 8.62425 37.5796 9.31537L37.7583 10.5101C37.8339 11.0166 38.1057 11.459 38.5235 11.7552C38.9416 12.0517 39.4493 12.163 39.952 12.0658L41.138 11.8396C41.8229 11.7089 42.5064 11.9462 42.9626 12.4747C43.4193 13.0036 43.555 13.7131 43.3253 14.3729L42.9283 15.5131C42.7599 15.9971 42.795 16.5154 43.0273 16.9721C43.2597 17.4286 43.6575 17.7619 44.1476 17.9108L45.304 18.2618C45.9725 18.4648 46.4662 18.9918 46.6247 19.6724C46.7832 20.3527 46.5734 21.0441 46.0634 21.5216L45.1821 22.3469Z" fill="#2B3990"/>
<path d="M46.1293 23.3585L47.0108 22.5332C47.8865 21.7132 48.2469 20.5261 47.9744 19.3578C47.7022 18.1894 46.8544 17.2841 45.7065 16.9358L44.5502 16.5848C44.4245 16.5464 44.3223 16.4609 44.2628 16.3437C44.203 16.2262 44.1939 16.0932 44.2373 15.969L44.6343 14.8285C45.0286 13.6955 44.7957 12.4768 44.0117 11.5689C43.2277 10.661 42.0561 10.2511 40.8781 10.4785L39.6925 10.7046C39.5641 10.7286 39.4329 10.7011 39.3254 10.6246C39.2182 10.5488 39.1484 10.4351 39.1288 10.305L38.9501 9.11058C38.7731 7.92406 38.0009 6.95316 36.8849 6.51342C35.7687 6.07338 34.5421 6.25707 33.6028 7.00384L32.6574 7.7556C32.5546 7.83763 32.4277 7.87367 32.2956 7.85551C32.1652 7.83793 32.0507 7.76996 31.973 7.66361L31.2599 6.6889C30.5515 5.72093 29.4157 5.21908 28.2239 5.34945C27.0312 5.47894 26.0302 6.21166 25.5462 7.30912L25.0587 8.4139C25.0057 8.53461 24.9081 8.62572 24.7845 8.67084C24.6614 8.71537 24.5281 8.70892 24.4098 8.65062L23.3252 8.11918C22.2476 7.59125 21.0104 7.67504 20.0146 8.34418C19.0188 9.01302 18.4727 10.1269 18.5539 11.324L18.6359 12.5292C18.645 12.6605 18.6011 12.7865 18.5126 12.8837C18.4241 12.981 18.3028 13.0367 18.1713 13.0405L16.964 13.0739C15.7648 13.1067 14.7078 13.7565 14.1368 14.8115C13.5658 15.8664 13.6001 17.1063 14.2282 18.1285L14.8604 19.1568C14.9293 19.2687 14.9489 19.4005 14.9158 19.528C14.8827 19.6554 14.8013 19.7609 14.6867 19.8253L13.6332 20.4157C12.587 21.0022 11.953 22.0686 11.9378 23.268C11.9225 24.4674 12.5293 25.5496 13.5605 26.1625L14.5985 26.7795C14.7116 26.8469 14.7904 26.9544 14.8203 27.0825C14.8502 27.2108 14.827 27.342 14.7553 27.4522L14.0967 28.4647C13.4428 29.4704 13.3768 30.7094 13.9209 31.7785C14.4649 32.8478 15.505 33.524 16.7026 33.5875L17.9091 33.6517C18.0403 33.6587 18.1601 33.7173 18.246 33.8166C18.3318 33.9162 18.3725 34.0434 18.3602 34.1746L18.248 35.3764C18.2168 35.7099 18.2395 36.0369 18.3029 36.3521L12.616 49.779C12.5223 50.0002 12.5498 50.2542 12.689 50.4502C12.8281 50.6459 13.0569 50.759 13.2986 50.7406L18.5762 50.4001L22.0039 54.4276C22.1366 54.5834 22.3303 54.6713 22.5315 54.6713C22.5664 54.6713 22.6016 54.6687 22.6367 54.6634C22.8743 54.6271 23.0759 54.4701 23.1696 54.2486L28.5231 41.6081C29.4273 41.525 30.2572 41.0776 30.8316 40.3331L30.8995 40.2452L36.8305 54.2486C36.9242 54.4701 37.1258 54.6271 37.3634 54.6634C37.3985 54.6687 37.4337 54.6713 37.4685 54.6713C37.6698 54.6713 37.8635 54.5834 37.9962 54.4276L41.4236 50.4001L46.7012 50.7406C46.9467 50.7596 47.172 50.6459 47.3108 50.4502C47.45 50.2542 47.4775 50.0002 47.3838 49.779L41.8893 36.8058M46.1293 23.3585C46.0335 23.4485 45.9793 23.5706 45.9775 23.7022C45.9758 23.8337 46.0265 23.9571 46.1205 24.0496L46.9804 24.8966C47.8349 25.7386 48.1648 26.9345 47.8631 28.0955C47.561 29.2566 46.6903 30.1402 45.534 30.4592L44.3703 30.7803C44.2434 30.8155 44.1391 30.8984 44.0765 31.0141C44.0141 31.1295 44.0015 31.2622 44.0416 31.3876L44.4093 32.537C44.7746 33.6798 44.5109 34.8921 43.7041 35.7798C43.2102 36.323 42.5758 36.6726 41.8893 36.8058M46.1293 23.3585C46.1295 23.3585 46.1293 23.3587 46.1293 23.3585ZM41.8893 36.8058C41.8892 36.8058 41.8895 36.8057 41.8893 36.8058ZM19.1318 37.9484L14.3302 49.2854L18.834 48.9948C18.8489 48.9936 18.8636 48.9933 18.8785 48.9933C19.0809 48.9933 19.274 49.0818 19.4061 49.237L22.3314 52.6742L27.0944 41.4282L27.0951 41.4284C26.2129 41.1194 25.5019 40.4607 25.1349 39.5676L24.6758 38.4505C24.626 38.3289 24.5307 38.2355 24.4083 38.1871C24.2858 38.1391 24.1525 38.1426 24.0333 38.1977L22.9361 38.7013C21.846 39.202 20.6108 39.086 19.6323 38.3922C19.4465 38.2605 19.2832 38.1089 19.1318 37.9484ZM19.1318 37.9484C19.1318 37.9484 19.1318 37.9484 19.1318 37.9484ZM45.6696 49.2854L41.1658 48.9948C40.9478 48.9778 40.7354 49.0703 40.5936 49.237L37.6686 52.6742L31.9616 39.1998C31.9395 39.199 31.9187 39.1914 31.8963 39.1935C32.0269 39.1812 32.1547 39.2181 32.2557 39.3028L33.1815 40.0786C34.1009 40.8488 35.3217 41.0632 36.4496 40.6525C37.5766 40.2411 38.3735 39.2905 38.5809 38.1089L38.7901 36.9189C38.8127 36.7894 38.8856 36.6775 38.9949 36.6039C39.1036 36.531 39.2351 36.5061 39.3632 36.5336L40.3609 36.7506L45.6696 49.2854ZM45.1821 22.3469C44.808 22.697 44.5985 23.1719 44.5918 23.6843C44.585 24.1964 44.7825 24.6769 45.1475 25.0367L46.0077 25.8839C46.5055 26.3744 46.6974 27.0707 46.5216 27.7466C46.3458 28.4228 45.839 28.9375 45.1654 29.1233L44.0017 29.4444C43.5078 29.5806 43.1015 29.9037 42.8577 30.3543C42.614 30.8049 42.5653 31.3217 42.7215 31.8098L43.0891 32.9591C43.3018 33.6247 43.1483 34.3305 42.6784 34.8476C42.2091 35.3647 41.5226 35.5853 40.838 35.4362L39.6579 35.1795C39.1569 35.0703 38.6472 35.1681 38.2221 35.4535C37.7967 35.7391 37.5137 36.1745 37.4249 36.6792L37.2157 37.8693C37.095 38.5572 36.6309 39.1109 35.9747 39.3502C35.3184 39.5899 34.6071 39.4651 34.0716 39.0162L33.1458 38.2405C32.7532 37.9115 32.2555 37.7623 31.7469 37.8157C31.2377 37.871 30.7848 38.1247 30.4716 38.5305L29.7342 39.4865C29.3079 40.0396 28.6396 40.3144 27.9471 40.2212C27.2545 40.1284 26.6823 39.6869 26.4169 39.0409L25.9578 37.9235C25.7627 37.4497 25.393 37.0853 24.9163 36.8978C24.6939 36.8102 24.4628 36.7665 24.2319 36.7665C23.9674 36.7665 23.7037 36.824 23.455 36.9379L22.3578 37.4415C21.7244 37.7339 21.0043 37.6662 20.4342 37.2617C19.8641 36.8577 19.5629 36.2011 19.6279 35.5053L19.7401 34.3038C19.7879 33.7935 19.6297 33.299 19.2948 32.9111C18.9599 32.5232 18.4938 32.2947 17.9826 32.2677L16.7762 32.2036C16.0786 32.1666 15.473 31.7729 15.156 31.15C14.8393 30.5275 14.8777 29.8062 15.2586 29.2205L15.9172 28.208C16.1964 27.7786 16.2863 27.267 16.17 26.7681C16.0537 26.2692 15.7473 25.8499 15.3066 25.5883L14.2686 24.9713C13.6681 24.6142 13.3147 23.984 13.3235 23.2856C13.3326 22.5871 13.7017 21.9661 14.3108 21.6244L15.3643 21.0341C15.8111 20.7836 16.1284 20.3726 16.2573 19.8766C16.3862 19.3809 16.3095 18.8673 16.0411 18.4308L15.4089 17.4025C15.0432 16.8075 15.0233 16.0853 15.3558 15.4709C15.6884 14.8566 16.3036 14.4784 17.002 14.459L18.2097 14.4256C18.7218 14.4116 19.1937 14.1948 19.5383 13.8157C19.8828 13.4366 20.0533 12.9464 20.0187 12.4352L19.9367 11.2299C19.8892 10.5329 20.2074 9.88402 20.7872 9.49466C21.367 9.10531 22.088 9.0558 22.7152 9.36371L23.7995 9.89486C24.2592 10.1204 24.7774 10.1477 25.2588 9.97308C25.7401 9.79759 26.1195 9.44281 26.3266 8.97377L26.8141 7.86869C27.096 7.22943 27.679 6.80287 28.3736 6.72728C29.0688 6.6555 29.7289 6.94379 30.1414 7.50746L30.8545 8.48216C31.1571 8.89554 31.6036 9.16097 32.1113 9.22924C32.6196 9.29808 33.12 9.15922 33.5202 8.84017L34.4653 8.08841C35.0126 7.65394 35.7268 7.54759 36.3769 7.80306C37.0267 8.05912 37.4762 8.62425 37.5796 9.31537L37.7583 10.5101C37.8339 11.0166 38.1057 11.459 38.5235 11.7552C38.9416 12.0517 39.4493 12.163 39.952 12.0658L41.138 11.8396C41.8229 11.7089 42.5064 11.9462 42.9626 12.4747C43.4193 13.0036 43.555 13.7131 43.3253 14.3729L42.9283 15.5131C42.7599 15.9971 42.795 16.5154 43.0273 16.9721C43.2597 17.4286 43.6575 17.7619 44.1476 17.9108L45.304 18.2618C45.9725 18.4648 46.4662 18.9918 46.6247 19.6724C46.7832 20.3527 46.5734 21.0441 46.0634 21.5216L45.1821 22.3469Z" stroke="#2B3990" stroke-width="1.3"/>
</svg>
