<svg width="36" height="36" viewBox="0 0 36 36" fill="none" xmlns="http://www.w3.org/2000/svg">
<path d="M27.1084 20.16C27.0724 18.216 26.6044 16.416 25.6684 14.724C25.5604 14.544 25.4884 14.292 25.4884 14.076C25.4884 13.752 25.7404 13.464 26.1004 13.392C26.4604 13.32 26.7844 13.428 26.9644 13.788C27.3964 14.688 27.8644 15.588 28.1164 16.56C30.2044 23.796 25.8124 31.14 18.4324 32.652C11.5204 34.092 4.93244 29.664 3.42044 22.932C1.83644 15.948 6.37244 9 13.3564 7.632C16.4164 7.02 19.3684 7.488 22.1044 9C22.4284 9.18 22.6804 9.432 22.6444 9.828C22.6084 10.44 21.9964 10.656 21.4204 10.404C20.5204 10.008 19.6204 9.54 18.6844 9.288C12.3844 7.596 5.90444 11.808 4.86044 18.18C3.85244 24.264 7.70444 29.916 13.7164 31.104C20.1244 32.364 25.8844 27.972 26.8924 22.032C27.0004 21.42 27.0364 20.772 27.1084 20.16Z" fill="#2B3990" stroke="#2B3990" stroke-width="0.1846" stroke-miterlimit="10"/>
<path d="M24.3721 20.124C24.3721 24.264 21.4201 27.756 17.3521 28.512C12.7081 29.376 8.06414 26.028 7.45214 21.384C6.84014 16.74 9.79214 12.6 14.4001 11.736C15.9121 11.448 17.4241 11.592 18.9001 12.132C19.4041 12.312 19.6201 12.708 19.4401 13.14C19.2961 13.572 18.8641 13.752 18.3241 13.572C15.7681 12.708 13.3921 13.068 11.3401 14.832C9.18014 16.704 8.42414 19.116 9.14414 21.852C9.86414 24.588 11.7001 26.316 14.4721 26.892C18.3961 27.72 22.1401 25.056 22.7161 21.132C22.8961 19.944 22.7521 18.792 22.3561 17.64C22.1761 17.136 22.3201 16.704 22.7521 16.56C23.1841 16.38 23.6161 16.596 23.7961 17.1C24.1921 18.072 24.3721 19.08 24.3721 20.124Z" fill="#2B3990" stroke="#2B3990" stroke-width="0.1846" stroke-miterlimit="10"/>
<path d="M28.5124 10.692C28.1884 10.62 27.6844 10.548 27.1804 10.44C26.8924 10.368 26.6764 10.404 26.4604 10.656C23.1844 13.932 19.8724 17.208 16.5964 20.52C16.3444 20.772 16.0924 20.988 15.6604 20.88C15.1204 20.736 14.9044 20.124 15.2284 19.656C15.3004 19.548 15.4084 19.476 15.5164 19.368C18.7924 16.092 22.0684 12.816 25.3804 9.54C25.5964 9.324 25.6684 9.144 25.5964 8.856C25.4884 8.496 25.4524 8.136 25.3804 7.74C25.2364 6.948 25.4164 6.264 25.9564 5.688C26.6764 4.932 27.4324 4.176 28.2244 3.42C28.9084 2.772 29.9524 3.096 30.1684 4.032C30.2764 4.428 30.3484 4.824 30.3844 5.22C30.4204 5.472 30.5284 5.616 30.7804 5.652C31.1764 5.724 31.5364 5.796 31.9324 5.868C32.4004 5.976 32.7244 6.228 32.8684 6.66C33.0124 7.128 32.9044 7.524 32.5444 7.848C31.8244 8.568 31.1044 9.324 30.3484 10.044C29.8804 10.476 29.3404 10.692 28.5124 10.692ZM30.8524 7.308C30.3484 7.128 29.7004 7.056 29.3404 6.696C28.9804 6.336 28.8724 5.688 28.6564 5.112C28.4404 5.364 28.1524 5.652 27.9004 5.904C26.6764 7.164 26.7484 6.732 27.1084 8.532C27.1084 8.568 27.1084 8.604 27.1084 8.604C27.1804 8.712 27.2884 8.856 27.3964 8.856C27.7564 8.964 28.1164 9 28.4404 9.072C28.7284 9.108 29.0164 9.108 29.2684 8.892C29.8084 8.388 30.3484 7.848 30.8524 7.308Z" fill="#2B3990"/>
<path d="M15.9129 24.48C13.8969 24.444 12.0609 22.896 11.7009 20.916C11.3409 18.864 12.4569 16.848 14.4009 16.128C14.9409 15.912 15.3729 16.092 15.5529 16.524C15.7329 16.956 15.4809 17.352 14.9409 17.568C13.7889 18.036 13.1409 19.008 13.1769 20.268C13.2129 21.348 13.9689 22.356 15.0489 22.68C16.4169 23.112 17.8569 22.428 18.3969 21.06C18.5409 20.736 18.6849 20.484 19.0809 20.412C19.6929 20.34 20.1249 20.88 19.9089 21.492C19.5129 22.68 18.7209 23.544 17.5689 24.012C17.0289 24.228 16.4529 24.336 15.9129 24.48Z" fill="#2B3990" stroke="#2B3990" stroke-width="0.1846" stroke-miterlimit="10"/>
</svg>
