<svg width="31" height="33" viewBox="0 0 31 33" fill="none" xmlns="http://www.w3.org/2000/svg">
<path d="M4.73117 31.012C4.73117 29.32 4.73117 27.7 4.73117 26.008C3.90317 26.008 3.11117 26.008 2.31917 26.008C1.34717 26.008 1.02317 25.684 0.987172 24.712C0.987172 24.244 0.987172 23.776 0.987172 23.308C0.987172 22.372 1.31117 22.012 2.28317 22.012C7.07117 22.012 11.8592 22.012 16.6112 22.012C19.3832 22.012 22.1912 22.012 24.9632 22.012C25.1072 22.012 25.2872 22.012 25.4672 22.012C25.4672 17.764 25.4672 13.516 25.4672 9.26799C23.8832 9.26799 22.3712 9.26799 20.7512 9.26799C20.7512 9.51999 20.7512 9.73599 20.7512 9.98799C20.7512 10.456 20.7512 10.888 20.7512 11.356C20.7512 12.364 20.1392 12.976 19.1312 13.012C18.4112 13.012 17.6912 13.012 16.9712 13.012C16.8272 13.012 16.6832 13.012 16.5032 13.012C16.5032 13.48 16.5032 13.912 16.5032 14.308C16.5032 15.424 15.9272 16 14.8112 16C13.5872 16 12.3632 16 11.1392 16C10.1312 16 9.51917 15.388 9.51917 14.38C9.51917 13.948 9.51917 13.516 9.51917 13.012C8.87117 13.012 8.22317 13.012 7.61117 13.012C7.35917 13.012 7.10717 13.012 6.85517 13.012C5.84717 12.976 5.27117 12.4 5.23517 11.392C5.23517 10.276 5.23517 9.12399 5.23517 8.00799C5.23517 6.24399 5.23517 4.51599 5.23517 2.75199C5.23517 1.56399 5.81117 0.987991 6.99917 0.987991C10.9952 0.987991 15.0272 0.987991 19.0232 0.987991C20.1752 0.987991 20.7512 1.56399 20.7512 2.71599C20.7512 3.36399 20.7512 4.04799 20.7512 4.73199C22.3352 4.73199 23.9192 4.73199 25.5032 4.73199C25.5032 4.55199 25.5032 4.40799 25.5032 4.26399C25.5032 3.21999 25.5032 2.13999 25.5032 1.09599C25.5032 0.411991 25.8992 0.0159912 26.5832 0.0159912C27.6632 0.0159912 28.7432 0.0159912 29.8232 0.0159912C30.5792 0.0159912 30.9752 0.411991 30.9752 1.16799C30.9752 4.01199 30.9752 6.81999 30.9752 9.66399C30.9752 16.864 30.9752 24.064 30.9752 31.264C30.9752 31.948 30.8312 32.092 30.1472 32.092C20.6792 32.092 11.2472 32.092 1.77917 32.092C1.20317 32.092 0.951172 31.948 0.951172 31.588C0.951172 31.228 1.20317 31.084 1.74317 31.084C2.75117 31.012 3.72317 31.012 4.73117 31.012ZM29.9672 31.012C29.9672 21.004 29.9672 10.996 29.9672 1.02399C28.8152 1.02399 27.6632 1.02399 26.5112 1.02399C26.5112 11.032 26.5112 21.004 26.5112 31.012C27.6992 31.012 28.8152 31.012 29.9672 31.012ZM5.77517 26.008C5.77517 27.7 5.77517 29.32 5.77517 30.976C10.5992 30.976 15.4232 30.976 20.2112 30.976C20.2112 29.32 20.2112 27.664 20.2112 26.008C15.3872 26.008 10.5992 26.008 5.77517 26.008ZM13.0112 1.99599C10.9952 1.99599 8.97917 1.99599 6.96317 1.99599C6.38717 1.99599 6.24317 2.13999 6.24317 2.75199C6.24317 5.59599 6.24317 8.43999 6.24317 11.284C6.24317 11.86 6.38717 12.04 6.96317 12.04C10.9592 12.04 14.9912 12.04 18.9872 12.04C19.5632 12.04 19.7432 11.896 19.7432 11.32C19.7432 8.47599 19.7432 5.59599 19.7432 2.75199C19.7432 2.17599 19.5992 2.03199 19.0232 2.03199C17.0432 1.99599 15.0272 1.99599 13.0112 1.99599ZM25.4672 25C25.4672 24.316 25.4672 23.704 25.4672 23.056C17.6192 23.056 9.80717 23.056 1.99517 23.056C1.99517 23.74 1.99517 24.352 1.99517 25C9.84317 25 17.6552 25 25.4672 25ZM21.2912 26.044C21.2912 27.7 21.2912 29.356 21.2912 31.012C22.6952 31.012 24.0992 31.012 25.5032 31.012C25.5032 29.356 25.5032 27.7 25.5032 26.044C24.0632 26.044 22.6592 26.044 21.2912 26.044ZM25.5032 5.77599C23.9192 5.77599 22.3712 5.77599 20.7872 5.77599C20.7872 6.60399 20.7872 7.39599 20.7872 8.22399C22.3712 8.22399 23.9192 8.22399 25.5032 8.22399C25.5032 7.39599 25.5032 6.60399 25.5032 5.77599ZM10.5272 13.012C10.5272 13.552 10.5272 14.056 10.5272 14.56C10.5272 14.812 10.7432 14.992 10.9952 14.992C12.3272 14.992 13.6592 14.992 15.0272 14.992C15.1712 14.992 15.4592 14.776 15.4952 14.632C15.5672 14.128 15.5312 13.588 15.5312 13.048C13.8032 13.012 12.1832 13.012 10.5272 13.012Z" fill="#2B3990"/>
<path d="M13.048 20.5C11.788 20.464 10.78 20.068 9.95202 19.312C9.62802 19.024 9.59202 18.736 9.80802 18.52C10.024 18.304 10.312 18.304 10.6 18.592C12.076 19.852 13.912 19.888 15.388 18.592C15.712 18.304 16 18.304 16.216 18.52C16.432 18.736 16.36 19.06 16.072 19.312C15.172 20.14 14.092 20.5 13.048 20.5Z" fill="#2B3990"/>
<path d="M12.9761 18.268C12.4001 18.232 11.8961 18.052 11.4641 17.656C11.2481 17.44 11.1761 17.188 11.3921 16.936C11.6081 16.684 11.8601 16.72 12.1121 16.9C12.8321 17.404 13.1561 17.404 13.9121 16.9C14.1641 16.72 14.4161 16.72 14.5961 16.936C14.8121 17.188 14.7761 17.44 14.5601 17.656C14.1281 18.052 13.5881 18.232 12.9761 18.268Z" fill="#2B3990"/>
<path d="M13.0107 4.47998C14.4147 4.47998 15.8547 4.47998 17.2587 4.47998C17.8347 4.47998 17.9787 4.62398 17.9787 5.19998C17.9787 6.89198 17.9787 8.58398 17.9787 10.276C17.9787 10.816 17.8347 10.96 17.2947 10.96C14.4147 10.96 11.5707 10.96 8.6907 10.96C8.1507 10.96 7.9707 10.816 7.9707 10.276C7.9707 8.58398 7.9707 6.85598 7.9707 5.16398C7.9707 4.58798 8.1147 4.47998 8.6547 4.47998C10.1307 4.47998 11.5707 4.47998 13.0107 4.47998ZM9.0147 5.52398C9.0147 7.03598 9.0147 8.51198 9.0147 9.98798C11.6787 9.98798 14.3067 9.98798 16.9707 9.98798C16.9707 8.47598 16.9707 7.03598 16.9707 5.52398C14.3067 5.52398 11.6787 5.52398 9.0147 5.52398Z" fill="#2B3990"/>
<path d="M16.8632 3.72401C16.6832 3.72401 16.4672 3.72401 16.2872 3.72401C15.9992 3.72401 15.7832 3.54401 15.7832 3.25601C15.7832 2.96801 15.9272 2.78801 16.2152 2.75201C16.6832 2.71601 17.1152 2.71601 17.5832 2.75201C17.8712 2.75201 18.0152 2.96801 18.0152 3.25601C18.0152 3.54401 17.8352 3.72401 17.5472 3.72401C17.2952 3.72401 17.0792 3.72401 16.8632 3.72401Z" fill="#2B3990"/>
<path d="M9.48381 3.25599C9.48381 3.65199 9.12381 3.97599 8.72781 3.97599C8.29581 3.97599 8.00781 3.65199 8.00781 3.21999C8.00781 2.82399 8.36781 2.46399 8.76381 2.49999C9.15981 2.49999 9.51981 2.85999 9.48381 3.25599Z" fill="#2B3990"/>
</svg>
