<svg width="27" height="32" viewBox="0 0 27 32" fill="none" xmlns="http://www.w3.org/2000/svg">
<path d="M9.03204 14.344C9.03204 13.984 9.03204 13.624 9.03204 13.264C8.99604 12.292 9.39204 11.536 10.148 10.924C10.976 10.276 11.768 9.59199 12.596 8.94399C12.884 8.69199 13.028 8.43999 13.028 8.07999C12.992 7.86399 13.028 7.61199 13.028 7.32399C12.884 7.32399 12.74 7.32399 12.596 7.32399C11.804 7.28799 11.264 6.78399 11.264 5.99199C11.264 4.65999 11.264 3.29199 11.264 1.95999C11.264 1.16799 11.804 0.627991 12.596 0.627991C16.196 0.627991 19.832 0.627991 23.432 0.627991C24.188 0.627991 24.764 1.13199 24.764 1.88799C24.8 3.29199 24.8 4.65999 24.764 6.06399C24.764 6.78399 24.224 7.28799 23.504 7.32399C23.36 7.32399 23.216 7.32399 23.036 7.32399C23.036 7.71999 23 8.07999 23.036 8.40399C23.072 8.58399 23.216 8.76399 23.36 8.87199C24.188 9.59199 25.052 10.276 25.916 10.96C26.636 11.536 26.96 12.256 26.96 13.192C26.96 18.34 26.96 23.524 26.96 28.672C26.96 30.256 25.844 31.408 24.224 31.408C20.084 31.408 15.908 31.444 11.768 31.372C10.724 31.372 9.68004 31.48 8.63604 31.336C5.28804 30.868 2.87604 29.14 1.61604 26.044C-0.399961 21.112 2.48004 15.748 7.66404 14.524C8.13204 14.452 8.56404 14.416 9.03204 14.344ZM17.06 22.876C17.024 18.7 13.64 15.352 9.50004 15.388C5.36004 15.424 2.01204 18.808 2.04804 22.948C2.08404 27.124 5.46804 30.436 9.64404 30.4C13.712 30.364 17.096 26.944 17.06 22.876ZM25.952 15.064C22.28 15.064 18.644 15.064 14.936 15.064C14.936 15.676 14.864 16.216 15.44 16.756C17.348 18.52 18.176 20.752 18.068 23.344C18.032 23.884 17.96 24.424 17.888 24.964C20.588 24.964 23.252 24.964 25.952 24.964C25.952 21.652 25.952 18.376 25.952 15.064ZM14.036 7.32399C14.036 7.61199 14.036 7.86399 14.036 8.11599C14.072 8.76399 13.82 9.26799 13.316 9.66399C12.452 10.348 11.624 11.068 10.76 11.752C10.436 12.004 10.184 12.328 10.148 12.724C10.112 13.264 10.148 13.768 10.148 14.344C11.48 14.416 12.74 14.812 13.964 15.496C13.964 15.208 13.964 14.992 13.964 14.74C13.964 14.128 14.108 13.984 14.756 13.984C18.392 13.984 22.028 13.984 25.628 13.984C25.736 13.984 25.88 13.984 26.024 13.984C26.024 13.768 26.024 13.588 26.024 13.444C26.096 12.652 25.772 12.04 25.124 11.572C24.296 10.96 23.54 10.276 22.748 9.62799C22.28 9.26799 22.064 8.76399 22.064 8.18799C22.064 7.89999 22.064 7.61199 22.064 7.32399C19.328 7.32399 16.7 7.32399 14.036 7.32399ZM17.996 6.27999C19.76 6.27999 21.524 6.27999 23.288 6.27999C23.684 6.27999 23.756 6.20799 23.756 5.81199C23.756 4.58799 23.756 3.32799 23.756 2.10399C23.756 1.67199 23.72 1.63599 23.288 1.63599C19.796 1.63599 16.268 1.63599 12.776 1.63599C12.344 1.63599 12.308 1.67199 12.308 2.10399C12.308 3.32799 12.308 4.55199 12.308 5.81199C12.308 6.27999 12.344 6.31599 12.812 6.31599C14.504 6.27999 16.268 6.27999 17.996 6.27999ZM13.712 30.364C13.784 30.364 13.82 30.364 13.856 30.364C17.348 30.364 20.84 30.364 24.332 30.364C25.232 30.364 25.916 29.68 25.952 28.744C25.952 28.024 25.952 27.304 25.952 26.584C25.952 26.368 25.952 26.188 25.952 26.008C25.88 26.008 25.844 25.972 25.808 25.972C23.108 25.972 20.408 25.972 17.672 25.972C17.456 25.972 17.42 26.08 17.348 26.224C16.772 27.52 15.944 28.636 14.828 29.5C14.504 29.824 14.108 30.076 13.712 30.364Z" fill="#2B3990"/>
<path d="M7.30401 25.108C6.58401 25.108 5.90001 25.108 5.21601 25.108C4.49601 25.108 4.20801 24.82 4.20801 24.1C4.20801 23.272 4.20801 22.444 4.20801 21.58C4.20801 20.896 4.49601 20.608 5.18001 20.608C5.86401 20.608 6.58401 20.608 7.30401 20.608C7.30401 20.284 7.30401 19.996 7.30401 19.708C7.30401 19.24 7.30401 18.772 7.30401 18.304C7.30401 17.872 7.62801 17.512 8.06001 17.512C9.03201 17.512 10.004 17.512 10.976 17.512C11.444 17.512 11.768 17.872 11.768 18.376C11.768 18.988 11.768 19.6 11.768 20.212C11.768 20.32 11.768 20.428 11.768 20.608C12.452 20.608 13.136 20.608 13.784 20.608C14.576 20.608 14.864 20.896 14.864 21.688C14.864 22.48 14.864 23.308 14.864 24.1C14.864 24.784 14.576 25.108 13.892 25.108C13.208 25.108 12.524 25.108 11.804 25.108C11.804 25.252 11.804 25.36 11.804 25.468C11.804 26.08 11.804 26.692 11.804 27.304C11.804 27.916 11.48 28.204 10.868 28.204C9.96801 28.204 9.10401 28.204 8.20401 28.204C7.59201 28.204 7.30401 27.88 7.30401 27.304C7.30401 26.584 7.30401 25.864 7.30401 25.108ZM8.34801 18.592C8.34801 19.276 8.34801 19.96 8.34801 20.608C8.34801 21.364 8.06001 21.652 7.30401 21.652C6.62001 21.652 5.97201 21.652 5.28801 21.652C5.28801 22.48 5.28801 23.272 5.28801 24.1C6.00801 24.1 6.69201 24.1 7.41201 24.1C8.06001 24.1 8.38401 24.424 8.38401 25.072C8.38401 25.612 8.38401 26.152 8.38401 26.692C8.38401 26.872 8.38401 27.016 8.38401 27.196C9.21201 27.196 10.004 27.196 10.832 27.196C10.832 26.44 10.832 25.72 10.832 25C10.832 24.46 11.156 24.136 11.696 24.136C11.948 24.136 12.236 24.136 12.488 24.136C12.956 24.136 13.424 24.136 13.892 24.136C13.892 23.308 13.892 22.516 13.892 21.688C13.748 21.688 13.64 21.688 13.532 21.688C12.884 21.688 12.272 21.688 11.624 21.688C11.156 21.688 10.832 21.364 10.832 20.896C10.832 20.752 10.832 20.572 10.832 20.428C10.832 19.816 10.832 19.24 10.832 18.628C9.96801 18.592 9.17601 18.592 8.34801 18.592Z" fill="#2B3990"/>
</svg>
