<svg width="27" height="32" viewBox="0 0 27 32" fill="none" xmlns="http://www.w3.org/2000/svg">
<path d="M21.2056 8.18799C21.5296 7.86399 21.8176 7.50399 22.1416 7.21599C23.4376 5.95599 25.4536 6.31599 26.1736 7.86399C26.6056 8.79999 26.4256 9.84399 25.7056 10.6C24.9856 11.356 24.2296 12.076 23.4736 12.832C20.0176 16.36 16.4896 19.852 12.9976 23.38C12.4576 23.92 12.3856 23.92 11.8096 23.416C11.1616 24.064 10.4776 24.712 9.82962 25.36C9.75762 25.432 9.75762 25.54 9.75762 25.612C9.72162 26.08 9.72162 26.548 9.64962 27.016C9.61362 27.196 9.54162 27.412 9.39762 27.556C8.42562 28.564 7.41762 29.572 6.40962 30.544C5.25762 31.66 3.85362 31.948 2.30562 31.804C1.62162 31.732 0.973624 31.552 0.397624 31.156C-0.034376 30.832 -0.0703759 30.58 0.325624 30.184C3.27762 27.232 6.22962 24.28 9.18162 21.328C9.25362 21.256 9.39762 21.184 9.46962 21.112C8.92962 20.392 8.92962 20.392 9.54162 19.78C10.7296 18.592 11.9536 17.368 13.1416 16.18C13.2136 16.108 13.3216 16.036 13.3936 15.928C10.5856 15.82 8.35362 14.74 6.73362 12.472C5.58162 10.888 5.18562 9.08799 5.36562 7.10799C5.72562 3.36399 8.92962 0.303989 12.7096 0.123989C14.9776 0.0159891 16.9936 0.735989 18.6496 2.31999C20.3056 3.90399 21.0616 5.84799 21.0616 8.11599C21.1696 8.18799 21.2056 8.18799 21.2056 8.18799ZM20.2336 8.00799C20.1976 7.71999 20.1976 7.39599 20.1616 7.10799C19.6576 3.29199 16.2376 0.663989 12.3856 1.09599C8.60562 1.52799 5.76162 5.16399 6.33762 8.94399C6.91362 12.796 10.3336 15.424 14.1856 14.92C14.3656 14.884 14.5816 14.812 14.6896 14.668C16.4176 12.976 18.1456 11.248 19.8376 9.51999C20.0176 9.33999 20.1256 9.12399 20.1616 8.87199C20.1976 8.58399 20.2336 8.29599 20.2336 8.00799ZM14.1136 20.968C14.1496 20.932 14.2216 20.86 14.2576 20.824C17.8216 17.26 21.3856 13.696 24.9136 10.168C24.9856 10.096 25.0936 9.98799 25.1656 9.91599C25.6696 9.26799 25.5976 8.33199 24.9856 7.75599C24.3376 7.17999 23.4016 7.21599 22.7536 7.89999C19.1896 11.464 15.6256 15.028 12.0256 18.628C11.9536 18.7 11.9176 18.736 11.8816 18.808C12.6376 19.492 13.3576 20.212 14.1136 20.968ZM10.1536 21.796C7.20162 24.748 4.24962 27.7 1.29762 30.652C2.34162 31.192 4.68162 31.12 5.83362 29.896C6.69762 29.032 7.56162 28.168 8.42562 27.304C8.71362 27.052 8.82162 26.764 8.82162 26.368C8.82162 25.036 8.85763 25.036 9.79362 24.1C9.82963 24.064 9.90162 23.992 9.93762 23.956C10.3336 23.56 10.7296 23.164 11.1256 22.768C10.7656 22.408 10.4416 22.084 10.1536 21.796ZM10.2616 20.464C10.9816 21.184 11.7016 21.904 12.3856 22.588C12.7096 22.264 13.0696 21.904 13.3576 21.616C12.6736 20.932 11.9536 20.212 11.2336 19.492C10.9096 19.816 10.5496 20.14 10.2616 20.464Z" fill="#2B3990"/>
<path d="M11.1613 10.096C10.4413 10.096 9.79334 10.096 9.14534 10.096C8.67734 10.096 8.56934 9.95198 8.56934 9.48398C8.56934 8.47598 8.56934 7.50398 8.56934 6.49598C8.56934 6.02798 8.71334 5.88398 9.18134 5.88398C9.82934 5.88398 10.4773 5.88398 11.1613 5.88398C11.1613 5.52398 11.1613 5.19998 11.1613 4.83998C11.1613 4.47998 11.1613 4.15598 11.1613 3.79598C11.1613 3.39998 11.3053 3.25598 11.7013 3.25598C12.7453 3.25598 13.7533 3.25598 14.7973 3.25598C15.1933 3.25598 15.3733 3.39998 15.3733 3.83198C15.3733 4.47998 15.3733 5.16398 15.3733 5.88398C15.4813 5.88398 15.5893 5.88398 15.6973 5.88398C16.2733 5.88398 16.8853 5.88398 17.4613 5.88398C17.7853 5.88398 17.9653 6.02798 17.9653 6.35198C17.9653 7.43198 17.9653 8.47598 17.9653 9.55598C17.9653 9.87998 17.7853 10.024 17.4613 10.024C16.7773 10.024 16.0933 10.024 15.3733 10.024C15.3733 10.6 15.3733 11.176 15.3733 11.716C15.3733 11.86 15.3733 12.004 15.3733 12.148C15.3373 12.472 15.1933 12.616 14.8693 12.616C13.8253 12.616 12.7453 12.616 11.7013 12.616C11.3413 12.616 11.1973 12.436 11.1973 12.076C11.1973 11.536 11.1973 10.96 11.1973 10.42C11.1613 10.384 11.1613 10.276 11.1613 10.096ZM9.46934 9.19598C10.1533 9.19598 10.8013 9.19598 11.4853 9.19598C11.8813 9.19598 12.0613 9.33998 12.0613 9.73598C12.0613 10.096 12.0613 10.456 12.0613 10.78C12.0613 11.104 12.0613 11.428 12.0613 11.752C12.8893 11.752 13.6813 11.752 14.4733 11.752C14.4733 11.104 14.4733 10.456 14.4733 9.84398C14.4733 9.30398 14.5813 9.15998 15.1573 9.15998C15.7693 9.15998 16.4173 9.15998 17.0653 9.15998C17.0653 8.36798 17.0653 7.57598 17.0653 6.78398C16.3813 6.78398 15.7333 6.78398 15.0493 6.78398C14.6173 6.78398 14.4733 6.63998 14.4733 6.20798C14.4733 5.63198 14.4733 5.05598 14.4733 4.47998C14.4733 4.26398 14.4373 4.15598 14.1853 4.19198C13.5733 4.19198 12.9613 4.19198 12.3133 4.19198C12.0973 4.19198 12.0253 4.26398 12.0613 4.47998C12.0613 5.01998 12.0613 5.59598 12.0613 6.13598C12.0613 6.67598 11.9533 6.78398 11.4133 6.78398C10.7653 6.78398 10.1533 6.78398 9.46934 6.78398C9.46934 7.61198 9.46934 8.40398 9.46934 9.19598Z" fill="#2B3990"/>
</svg>
