<svg width="33" height="32" viewBox="0 0 33 32" fill="none" xmlns="http://www.w3.org/2000/svg">
<path d="M6.02418 25.0576C6.02418 24.8812 6.02418 24.7444 6.02418 24.6112C6.02418 20.698 6.02418 16.7884 6.02418 12.8752C6.02418 12.7492 6.02059 12.6196 6.03499 12.4936C6.06379 12.2632 6.20419 12.1336 6.43459 12.112C6.51739 12.1048 6.60378 12.1084 6.69018 12.1084C13.343 12.1084 19.9994 12.1084 26.6522 12.1084C27.1994 12.1084 27.3218 12.2308 27.3218 12.7852C27.3218 16.7272 27.3218 20.6728 27.3218 24.6148C27.3218 24.7516 27.3218 24.8848 27.3218 25.0576C27.4658 25.0576 27.581 25.0576 27.6926 25.0576C29.0318 25.0576 30.371 25.0612 31.7102 25.0576C31.991 25.0576 32.1926 25.1548 32.243 25.4464C32.297 25.7416 32.0846 25.9504 31.7426 25.9504C30.7418 25.954 29.7446 25.9504 28.7438 25.9504C28.2866 25.9504 27.833 25.9504 27.347 25.9504C27.347 27.5848 27.347 29.2048 27.347 30.8608C27.4586 30.8608 27.5702 30.8608 27.6854 30.8608C29.003 30.8608 30.3206 30.8608 31.6382 30.8608C32.0486 30.8608 32.243 31.0012 32.2466 31.3C32.2502 31.5988 32.0522 31.75 31.649 31.75C21.5402 31.75 11.4314 31.75 1.32258 31.7536C1.05258 31.7536 0.829385 31.6996 0.753785 31.4116C0.696185 31.192 0.782585 31.0048 0.991385 30.9112C1.09218 30.868 1.21818 30.8644 1.32978 30.8644C2.76618 30.8608 4.19898 30.8608 5.63538 30.8608C5.75058 30.8608 5.86578 30.8608 5.99538 30.8608C5.99538 29.2192 5.99538 27.6064 5.99538 25.9648C5.87298 25.9612 5.76138 25.9504 5.64979 25.9504C4.19538 25.9504 2.73738 25.9504 1.28298 25.9504C0.940985 25.9504 0.760985 25.81 0.742985 25.5436C0.721385 25.2484 0.922985 25.0612 1.27938 25.0612C2.64018 25.0576 4.00098 25.0612 5.36178 25.0612C5.57058 25.0576 5.76858 25.0576 6.02418 25.0576ZM6.93498 25.0576C7.19418 25.0576 7.42818 25.0396 7.65498 25.0612C7.89618 25.0828 8.02938 25 8.15178 24.7804C8.85738 23.5096 9.58458 22.2496 10.2974 20.986C10.4198 20.77 10.5566 20.5828 10.8338 20.6224C11.111 20.662 11.201 20.878 11.2514 21.1192C11.597 22.7464 11.9426 24.3736 12.2882 26.0008C12.389 26.4688 12.4934 26.9368 12.5942 27.4012C12.8678 26.8072 13.0802 26.2204 13.2926 25.6336C13.4978 25.0684 13.5158 25.054 14.1134 25.054C14.801 25.054 15.4886 25.054 16.1834 25.054C16.1834 21.0184 16.1834 17.0188 16.1834 13.0228C13.0838 13.0228 10.0094 13.0228 6.93138 13.0228C6.93498 17.0332 6.93498 21.0184 6.93498 25.0576ZM17.1518 13.0084C17.1518 17.0368 17.1518 21.0364 17.1518 25.0576C17.771 25.0576 18.365 25.0468 18.9554 25.0612C19.175 25.0684 19.2938 24.9964 19.4018 24.802C20.1218 23.5132 20.8562 22.2352 21.5798 20.95C21.6986 20.7412 21.8426 20.5756 22.1018 20.6188C22.3574 20.662 22.451 20.8492 22.5014 21.0904C22.811 22.5628 23.1278 24.0352 23.4446 25.504C23.5814 26.134 23.7182 26.764 23.8514 27.394C24.125 26.818 24.3302 26.242 24.5354 25.666C24.7514 25.0612 24.7658 25.0504 25.3994 25.0504C25.7234 25.0504 26.051 25.0504 26.3714 25.0504C26.3714 21.0076 26.3714 17.008 26.3714 13.0012C23.2934 13.0084 20.2334 13.0084 17.1518 13.0084ZM6.94218 30.832C10.0454 30.832 13.1198 30.832 16.187 30.832C16.187 29.1976 16.187 27.5884 16.187 25.9468C15.5822 25.9468 14.999 25.9576 14.4194 25.9396C14.1962 25.9324 14.1062 26.0116 14.0378 26.2132C13.6922 27.214 13.3286 28.2076 12.9722 29.2084C12.8858 29.4496 12.7454 29.6368 12.4718 29.6116C12.2018 29.59 12.0902 29.3956 12.0362 29.14C11.6798 27.4408 11.3162 25.7416 10.9526 24.0424C10.8374 23.4988 10.715 22.9552 10.5818 22.3468C10.4882 22.498 10.4306 22.5844 10.3802 22.6708C9.82938 23.6392 9.27498 24.604 8.73498 25.5796C8.58738 25.8424 8.40378 25.9648 8.09778 25.9504C7.71978 25.9324 7.34178 25.9468 6.94578 25.9468C6.94218 27.5956 6.94218 29.2084 6.94218 30.832ZM26.3894 25.9504C26.1446 25.9504 25.9322 25.9684 25.7234 25.9468C25.4786 25.9216 25.3742 26.0188 25.295 26.2492C24.9602 27.2212 24.6074 28.186 24.2618 29.1544C24.1718 29.41 24.053 29.6404 23.7398 29.6188C23.4266 29.5972 23.3402 29.3488 23.2862 29.086C22.919 27.3544 22.5518 25.6228 22.181 23.8912C22.0766 23.3944 21.965 22.9012 21.839 22.3324C21.2126 23.434 20.6222 24.4492 20.0606 25.486C19.877 25.8244 19.6574 25.9792 19.2578 25.9612C18.5594 25.9324 17.861 25.954 17.1518 25.954C17.1518 27.6064 17.1518 29.2228 17.1518 30.8464C20.2406 30.8464 23.3078 30.8464 26.3894 30.8464C26.3894 29.212 26.3894 27.6028 26.3894 25.9504Z" fill="#2B3990"/>
<path d="M16.4818 9.94478C15.7798 9.94478 15.0778 9.94838 14.3794 9.94478C13.9654 9.94118 13.8214 9.80078 13.8214 9.39398C13.8178 8.40398 13.8106 7.41758 13.825 6.42758C13.8466 5.00918 15.0526 3.84278 16.4854 3.83198C17.9254 3.82118 19.153 4.99838 19.1746 6.43118C19.189 7.41758 19.1818 8.40758 19.1782 9.39758C19.1782 9.80078 19.0306 9.94478 18.6166 9.94478C17.9074 9.94838 17.1946 9.94478 16.4818 9.94478ZM16.9462 7.69838C17.407 7.69838 17.8318 7.69838 18.2854 7.69838C18.2854 7.25918 18.3034 6.83438 18.2818 6.41318C18.235 5.58158 17.5618 4.85798 16.7734 4.76438C15.8626 4.65998 15.0274 5.12798 14.8222 5.97398C14.689 6.52478 14.7178 7.11878 14.6746 7.69118C15.1822 7.69118 15.6106 7.69118 16.0534 7.69118C16.0534 7.30598 16.0498 6.94598 16.0534 6.58598C16.057 6.23318 16.2082 6.04958 16.4926 6.04958C16.7806 6.04598 16.939 6.22958 16.9426 6.57878C16.9498 6.94958 16.9462 7.31678 16.9462 7.69838ZM14.7322 8.65238C14.7322 8.80358 14.7322 8.91518 14.7322 9.03038C15.9238 9.03038 17.0938 9.03038 18.2638 9.03038C18.2638 8.88998 18.2638 8.77118 18.2638 8.65238C17.0758 8.65238 15.913 8.65238 14.7322 8.65238Z" fill="#2B3990"/>
<path d="M12.0872 1.9996C12.2456 2.0896 12.368 2.1364 12.4544 2.2192C12.8432 2.5936 13.2248 2.9752 13.5992 3.364C13.8044 3.5764 13.8044 3.8284 13.6244 4.012C13.4408 4.1992 13.1672 4.1956 12.9476 3.9832C12.5696 3.616 12.1844 3.2488 11.8352 2.8528C11.7308 2.734 11.6768 2.5 11.72 2.3488C11.756 2.212 11.954 2.1184 12.0872 1.9996Z" fill="#2B3990"/>
<path d="M19.6546 4.18481C19.543 4.09481 19.3666 4.01921 19.3162 3.89321C19.2622 3.76361 19.273 3.52961 19.3594 3.43241C19.7554 2.99321 20.1802 2.5756 20.6086 2.1688C20.7958 1.9924 21.0226 2.014 21.2062 2.194C21.3898 2.3776 21.4078 2.60441 21.2314 2.79161C20.8246 3.22001 20.3998 3.634 19.975 4.048C19.9102 4.1092 19.8022 4.12361 19.6546 4.18481Z" fill="#2B3990"/>
<path d="M16.0579 1.5064C16.0579 1.24 16.0507 0.973597 16.0579 0.710797C16.0651 0.419196 16.2487 0.235596 16.5115 0.249996C16.7887 0.264396 16.9399 0.426396 16.9435 0.699996C16.9507 1.2508 16.9507 1.8052 16.9435 2.3596C16.9399 2.6476 16.7491 2.842 16.4899 2.824C16.2199 2.8024 16.0615 2.6512 16.0579 2.3704C16.0543 2.0788 16.0579 1.7944 16.0579 1.5064Z" fill="#2B3990"/>
<path d="M11.1434 7.3384C10.8662 7.3384 10.5926 7.3456 10.3154 7.3384C10.0418 7.3312 9.87623 7.1944 9.85823 6.91C9.84383 6.6472 10.0238 6.4492 10.3118 6.442C10.8626 6.4312 11.417 6.4312 11.9678 6.442C12.2558 6.4492 12.4358 6.6436 12.425 6.9064C12.4106 7.1908 12.245 7.3204 11.9714 7.3384C11.9498 7.3384 11.9282 7.342 11.9066 7.342C11.651 7.342 11.399 7.342 11.1434 7.3384Z" fill="#2B3990"/>
<path d="M21.8384 7.3384C21.572 7.3384 21.3055 7.3492 21.0427 7.3348C20.7367 7.3204 20.5712 7.1548 20.5784 6.8848C20.5856 6.6004 20.7584 6.4492 21.0212 6.442C21.5828 6.4276 22.1479 6.424 22.7095 6.442C22.9759 6.4492 23.1451 6.6148 23.1415 6.8956C23.1379 7.1764 22.9723 7.324 22.6988 7.3348C22.4143 7.3456 22.1264 7.3384 21.8384 7.3384Z" fill="#2B3990"/>
<path d="M11.5615 19.2508C10.6147 19.2508 9.67149 19.2508 8.72469 19.2508C8.26749 19.2508 8.12349 19.1176 8.11989 18.6748C8.11629 17.4112 8.11629 16.1476 8.11989 14.884C8.11989 14.4664 8.26389 14.326 8.67789 14.326C10.6003 14.3224 12.5227 14.3224 14.4451 14.326C14.8663 14.326 15.0211 14.4844 15.0247 14.902C15.0283 16.1548 15.0283 17.4076 15.0247 18.6604C15.0247 19.096 14.8663 19.2508 14.4271 19.2508C13.4731 19.2508 12.5191 19.2508 11.5615 19.2508ZM9.04509 18.3364C10.7515 18.3364 12.4219 18.3364 14.0923 18.3364C14.0923 17.2924 14.0923 16.27 14.0923 15.2512C12.3967 15.2512 10.7227 15.2512 9.04509 15.2512C9.04509 16.288 9.04509 17.3032 9.04509 18.3364Z" fill="#2B3990"/>
<path d="M21.767 19.2508C20.8202 19.2508 19.877 19.2508 18.9302 19.2508C18.4622 19.2508 18.311 19.1104 18.3074 18.6532C18.3038 17.4112 18.3038 16.1692 18.3074 14.9272C18.3074 14.4664 18.4586 14.326 18.9266 14.326C20.8166 14.3224 22.7066 14.3224 24.5966 14.326C25.0754 14.326 25.2194 14.4736 25.2194 14.956C25.223 16.1764 25.223 17.3968 25.2194 18.6208C25.2194 19.1176 25.0754 19.2544 24.5678 19.2544C23.639 19.2508 22.703 19.2508 21.767 19.2508ZM19.2434 18.34C20.9462 18.34 22.6094 18.34 24.2834 18.34C24.2834 17.2996 24.2834 16.2772 24.2834 15.2476C22.5914 15.2476 20.921 15.2476 19.2434 15.2476C19.2434 16.288 19.2434 17.3068 19.2434 18.34Z" fill="#2B3990"/>
</svg>
