<svg width="32" height="30" viewBox="0 0 32 30" fill="none" xmlns="http://www.w3.org/2000/svg">
<path d="M9.44688 13.272C9.73488 13.452 9.98688 13.596 10.2749 13.776C10.3469 13.812 10.4909 13.812 10.5629 13.74C10.9949 13.452 11.4989 13.2 11.8589 12.84C12.3269 12.408 12.7589 11.868 13.1909 11.364C13.8029 10.608 14.0909 9.74401 14.0909 8.80801C14.0909 6.79201 14.0909 4.74001 14.0549 2.72401C14.0549 2.11201 13.9829 1.53601 13.9469 0.924012C13.9469 0.528012 14.0909 0.348012 14.4869 0.348012C15.3149 0.312012 16.1789 0.312012 17.0069 0.312012C17.3669 0.312012 17.5469 0.492012 17.5109 0.852012C17.4749 1.68001 17.4029 2.47201 17.4029 3.30001C17.3669 4.48801 17.4029 5.67601 17.6549 6.86401C17.8349 7.72801 18.3029 8.34001 19.0949 8.77201C20.0309 9.24001 21.0389 9.52801 22.0829 9.67201C22.1549 9.67201 22.2629 9.67201 22.2989 9.60001C22.5149 9.34801 22.7309 9.06001 22.9469 8.77201C22.9829 8.80801 23.0189 8.84401 23.0549 8.84401C22.9109 8.70001 22.7669 8.59201 22.6589 8.44801C21.6869 7.44001 21.4709 6.46801 22.2629 5.02801C22.9829 3.73201 24.4589 3.12001 26.0429 3.37201C28.4549 3.80401 29.9669 5.31601 30.8309 7.47601C31.5869 9.31201 31.6949 11.256 31.5869 13.236C31.4789 14.784 31.2269 16.296 30.3989 17.664C30.0389 18.24 30.0029 18.672 30.2189 19.32C31.8029 24.036 28.5989 29.004 23.6669 29.508C21.6149 29.724 19.7789 29.184 18.1229 27.996C18.0509 27.96 18.0149 27.924 17.9429 27.852C17.9429 27.852 17.9069 27.852 17.8709 27.852C17.9069 28.212 17.9069 28.572 17.9429 28.932C17.9789 29.364 17.7989 29.544 17.3669 29.544C16.4309 29.544 15.4949 29.544 14.5229 29.544C14.0909 29.544 13.9109 29.364 13.9829 28.932C14.2709 25.728 14.0909 22.524 13.9469 19.356C13.8749 18.024 13.8029 16.656 13.7309 15.252C13.6229 15.324 13.5149 15.396 13.4429 15.432C12.7229 15.936 11.9669 16.332 11.0669 16.476C10.9589 16.476 10.8509 16.584 10.8149 16.656C10.5989 16.98 10.4189 17.34 10.2029 17.736C10.2389 17.772 10.3109 17.844 10.4189 17.916C11.8949 19.14 12.3269 20.832 11.6069 22.596C10.6709 24.9 8.18688 25.98 5.70288 25.152C3.54288 24.432 2.13888 22.92 1.45488 20.796C0.554876 17.952 0.554876 15 1.59888 12.048C2.28288 10.14 3.57888 8.70001 5.59488 8.05201C6.85488 7.65601 8.07888 7.65601 9.19488 8.44801C9.98688 9.02401 10.4549 9.81601 10.5989 10.788C10.7069 11.4 10.5629 11.94 10.1669 12.408C9.95088 12.732 9.69888 12.984 9.44688 13.272ZM14.9909 1.28401C14.9909 1.75201 14.9909 2.18401 14.9909 2.65201C14.9909 4.74001 15.0269 6.82801 15.0269 8.88001C15.0269 9.88801 14.7749 10.86 14.1269 11.652C13.6229 12.3 13.1189 12.912 12.5429 13.488C12.0029 14.028 11.3549 14.496 10.5989 14.676C10.3829 14.712 10.0949 14.748 9.95088 14.64C9.51888 14.28 9.01488 14.136 8.51088 13.992C7.97088 13.848 7.89888 13.416 8.29488 13.056C8.69088 12.696 9.05088 12.3 9.41088 11.94C9.69888 11.652 9.73488 11.256 9.66288 10.86C9.48288 9.88801 8.90688 9.20401 7.97088 8.88001C7.25088 8.62801 6.53088 8.73601 5.81088 8.95201C4.08288 9.52801 3.00288 10.752 2.42688 12.408C1.49088 15.108 1.52688 17.808 2.35488 20.508C2.82288 21.984 3.68688 23.172 5.05488 23.928C6.09888 24.504 7.25088 24.828 8.47488 24.468C10.2389 23.964 11.4269 22.056 11.0309 20.328C10.7789 19.356 10.0949 18.708 9.23088 18.24C9.01488 18.132 8.87088 18.024 8.87088 17.772C8.87088 17.52 9.05088 17.412 9.26688 17.304C9.66288 17.124 10.0229 16.836 10.0589 16.368C10.0949 15.864 10.1669 15.756 10.6709 15.72C11.4629 15.648 12.2189 15.36 12.8669 14.892C13.1909 14.676 13.5149 14.424 13.8029 14.172C13.9829 14.028 14.1989 13.884 14.4149 14.028C14.5589 14.136 14.6669 14.388 14.6669 14.568C14.7749 16.188 14.8829 17.844 14.9549 19.464C15.0989 22.416 15.2429 25.332 15.0629 28.284C15.0629 28.428 15.0629 28.572 15.0629 28.716C15.4229 28.716 15.7469 28.716 16.1069 28.716C16.4309 28.716 16.7549 28.716 17.1149 28.716C17.0789 28.14 17.0789 27.6 17.0429 27.06C17.0429 26.952 16.9709 26.844 16.8989 26.736C14.5949 23.856 14.5589 19.932 16.8269 16.98C16.9349 16.872 16.9709 16.692 17.0069 16.548C17.0429 15.864 17.0429 15.18 17.1149 14.496C17.2229 13.344 17.4029 12.228 17.5469 11.076C17.6189 10.644 17.9069 10.536 18.2669 10.716C19.4909 11.328 20.8229 11.58 22.1909 11.436C22.5149 11.4 22.6589 11.544 22.7309 11.868C22.8029 12.336 23.0549 12.696 23.4869 12.912C23.8469 13.092 23.8829 13.524 23.5229 13.74C23.4149 13.812 23.3069 13.848 23.2349 13.92C25.9349 14.136 28.0589 15.324 29.6069 17.592C29.8229 17.16 30.0029 16.8 30.1469 16.44C30.8309 14.748 30.9389 12.984 30.8309 11.148C30.7589 9.85201 30.5429 8.59201 29.9669 7.40401C29.1749 5.74801 27.9509 4.59601 26.0429 4.27201C24.6029 4.02001 23.4149 4.70401 22.9829 5.96401C22.7669 6.57601 22.8389 7.15201 23.3069 7.65601C23.6309 7.98001 23.9549 8.26801 24.3149 8.59201C24.7109 8.95201 24.6389 9.27601 24.1349 9.49201C23.7029 9.67201 23.3429 9.88801 23.0909 10.284C22.9469 10.536 22.7309 10.608 22.4789 10.572C21.2549 10.464 20.1029 10.176 19.0229 9.67201C17.8349 9.09601 17.1149 8.19601 16.8629 6.90001C16.6109 5.49601 16.6109 4.05601 16.6469 2.61601C16.6829 2.14801 16.6829 1.71601 16.7189 1.24801C16.0709 1.28401 15.5309 1.28401 14.9909 1.28401ZM29.8229 21.84C29.8229 18.06 26.7629 14.928 23.0189 14.928C19.1309 14.928 16.0349 17.988 16.0349 21.84C15.9989 25.584 19.1309 28.716 22.8389 28.716C26.6909 28.752 29.7869 25.692 29.8229 21.84ZM17.8709 15.756C17.9429 15.792 17.9429 15.792 17.9789 15.792C18.0509 15.756 18.0869 15.72 18.1589 15.648C18.9869 15 19.9229 14.496 20.9309 14.28C21.6149 14.136 21.9389 13.668 22.4069 13.344C22.2269 13.056 22.0829 12.84 21.9749 12.588C21.9029 12.408 21.7949 12.372 21.6149 12.372C21.0029 12.336 20.3549 12.3 19.7429 12.192C19.2749 12.12 18.8069 11.904 18.2669 11.76C18.1229 13.128 17.9789 14.46 17.8709 15.756Z" fill="#2B3990"/>
<path d="M21.3632 20.472C21.3632 19.752 21.3632 19.104 21.3632 18.456C21.3632 18.06 21.5072 17.88 21.9392 17.88C22.5512 17.88 23.1632 17.88 23.7752 17.88C24.1712 17.88 24.3512 18.024 24.3512 18.456C24.3512 19.104 24.3512 19.788 24.3512 20.472C24.4952 20.472 24.6392 20.472 24.7832 20.472C25.3232 20.472 25.8632 20.472 26.4032 20.472C26.7632 20.472 26.9432 20.652 26.9432 20.976C26.9432 21.624 26.9432 22.272 26.9432 22.92C26.9432 23.28 26.7632 23.46 26.4032 23.46C25.7192 23.46 25.0712 23.46 24.3512 23.46C24.3512 24.144 24.3512 24.792 24.3512 25.404C24.3512 25.98 24.2432 26.124 23.6672 26.124C23.0912 26.124 22.5152 26.124 21.9392 26.124C21.5432 26.124 21.3632 25.98 21.3632 25.548C21.3632 24.864 21.3632 24.18 21.3632 23.46C21.2192 23.46 21.0752 23.46 20.9312 23.46C20.3552 23.46 19.8152 23.46 19.2392 23.46C18.8792 23.46 18.6992 23.28 18.6992 22.956C18.6992 22.308 18.6992 21.66 18.6992 21.012C18.6992 20.652 18.8792 20.508 19.2392 20.472C19.9232 20.472 20.6072 20.472 21.3632 20.472ZM26.0072 22.56C26.0072 22.128 26.0072 21.768 26.0072 21.372C25.8992 21.372 25.7912 21.372 25.6832 21.372C25.1072 21.372 24.5312 21.372 23.9552 21.372C23.5952 21.372 23.4512 21.192 23.4512 20.868C23.4512 20.544 23.4512 20.184 23.4512 19.86C23.4512 19.5 23.4512 19.14 23.4512 18.816C23.0552 18.816 22.6592 18.816 22.2632 18.816C22.2632 19.284 22.2632 19.716 22.2632 20.148C22.2632 21.444 22.2992 21.408 21.0392 21.408C20.5712 21.408 20.1032 21.408 19.6352 21.408C19.6352 21.84 19.6352 22.2 19.6352 22.596C20.3192 22.596 20.9672 22.596 21.6152 22.596C22.1552 22.596 22.2992 22.74 22.2992 23.28C22.2992 23.928 22.2992 24.612 22.2992 25.26C22.6952 25.26 23.0912 25.26 23.4872 25.26C23.4872 24.756 23.4872 24.252 23.4872 23.748C23.4512 22.632 23.4872 22.596 24.6032 22.632C25.0352 22.56 25.5032 22.56 26.0072 22.56Z" fill="#2B3990"/>
</svg>
