<svg width="32" height="34" viewBox="0 0 32 34" fill="none" xmlns="http://www.w3.org/2000/svg">
<path d="M30.5233 16.2872C30.2281 22.112 27.5317 26.5364 22.1605 29.258C22.0597 29.3084 21.9553 29.3588 21.8473 29.3768C21.5989 29.42 21.3973 29.33 21.3073 29.0852C21.2209 28.8512 21.2785 28.6388 21.4945 28.4948C21.5773 28.4372 21.6745 28.4012 21.7645 28.358C26.2753 26.0684 28.8853 22.4216 29.4325 17.3888C30.0373 11.834 26.9377 6.416 21.8689 3.968C21.7789 3.9248 21.6853 3.8852 21.5953 3.8384C21.3001 3.6836 21.1921 3.3992 21.3217 3.1436C21.4441 2.8988 21.7177 2.816 22.0201 2.9528C22.3369 3.0968 22.6501 3.248 22.9525 3.4208C27.1573 5.8328 29.6305 9.44 30.3577 14.2316C30.4549 14.8616 30.4621 15.5024 30.5233 16.2872Z" fill="#2B3990" stroke="#2B3990" stroke-miterlimit="10"/>
<path d="M10.3018 2.81961C10.4278 2.95641 10.615 3.07521 10.6798 3.24441C10.7734 3.48921 10.6438 3.69441 10.4026 3.82041C9.90584 4.07961 9.39464 4.31721 8.92304 4.61601C5.25104 6.94881 3.08384 10.2716 2.56544 14.588C1.87424 20.3372 4.95224 25.8272 10.1686 28.3256C10.669 28.5668 10.8166 28.8044 10.6546 29.1248C10.5034 29.4236 10.219 29.4668 9.74384 29.2256C5.20064 26.9288 2.42864 23.2856 1.64384 18.2564C0.653838 11.9168 4.03424 5.70681 9.80864 3.00681C9.94544 2.94921 10.0822 2.90601 10.3018 2.81961Z" fill="#2B3990" stroke="#2B3990" stroke-miterlimit="10"/>
<path d="M13.2002 28.1744C13.2002 26.702 13.1966 25.2296 13.2038 23.7608C13.2038 23.5304 13.139 23.3936 12.9338 23.2784C12.5126 23.0444 12.1022 22.7888 11.699 22.5224C10.6262 21.8096 10.2626 20.4308 10.8314 19.2788C11.4002 18.134 12.7826 17.5436 13.967 18.0008C14.3378 18.1448 14.6546 18.44 14.9678 18.7028C15.2234 18.9188 15.4178 19.2068 15.6734 19.4192C15.8282 19.5452 16.0514 19.6064 16.2494 19.6604C16.5338 19.736 16.6778 19.9052 16.667 20.186C16.6598 20.456 16.4294 20.636 16.1306 20.6288C15.7058 20.6216 15.3386 20.456 15.029 20.1824C14.7626 19.9448 14.4998 19.6928 14.2802 19.4084C13.8554 18.8648 13.319 18.7424 12.689 18.9116C12.0806 19.0772 11.6954 19.4876 11.5802 20.0996C11.4542 20.7512 11.6666 21.3092 12.2246 21.6872C12.725 22.0256 13.2506 22.3352 13.7762 22.634C14.0642 22.796 14.183 23.012 14.183 23.3432C14.1758 26.4212 14.183 29.4992 14.1722 32.5772C14.1722 32.7644 14.1074 32.9912 13.9886 33.1208C13.8986 33.2216 13.6286 33.2684 13.5134 33.2036C13.3658 33.1244 13.2146 32.912 13.2038 32.75C13.1678 32.1812 13.1894 31.6052 13.1894 31.0328C13.2002 30.0824 13.2002 29.1284 13.2002 28.1744Z" fill="#2B3990" stroke="#2B3990" stroke-miterlimit="10"/>
<path d="M18.8912 4.9796C18.8912 6.1604 18.8984 7.3376 18.8876 8.5184C18.884 8.7488 18.9524 8.8856 19.1576 9.0008C19.5608 9.224 19.9496 9.4688 20.3384 9.7172C21.2996 10.3328 21.728 11.474 21.4184 12.5648C21.116 13.6448 20.1368 14.3648 18.9956 14.4152C18.1316 14.4548 17.4188 14.1992 16.832 13.5476C16.4252 13.0976 15.9752 12.698 15.3164 12.6224C15.0644 12.5936 14.9312 12.3488 14.978 12.0824C15.0248 11.816 15.2192 11.6288 15.4748 11.6828C15.8636 11.762 16.2668 11.8736 16.598 12.0752C16.9868 12.3092 17.3288 12.6332 17.6456 12.9644C18.1856 13.5296 18.8336 13.5188 19.4852 13.3208C20.0936 13.1372 20.4464 12.6728 20.5148 12.032C20.5868 11.348 20.2916 10.8404 19.7084 10.4876C19.2188 10.1924 18.7328 9.89 18.2396 9.5984C18.0128 9.4652 17.9084 9.2852 17.9084 9.0224C17.912 6.4628 17.9084 3.8996 17.912 1.34C17.912 0.947602 18.092 0.746002 18.4016 0.746002C18.7112 0.746002 18.8912 0.951202 18.8912 1.3436C18.8912 2.5532 18.8876 3.7664 18.8912 4.9796Z" fill="#2B3990" stroke="#2B3990" stroke-miterlimit="10"/>
<path d="M18.1032 27.9296C18.1032 26.414 18.1103 24.8984 18.096 23.3828C18.0924 23.0264 18.2076 22.7888 18.5172 22.6124C18.8088 22.4468 19.0824 22.2488 19.3596 22.058C20.2956 21.4028 20.5476 20.2292 19.9536 19.3004C19.3596 18.368 18.1572 18.0908 17.178 18.674C16.9296 18.8216 16.692 18.9224 16.44 18.6992C16.1916 18.4796 16.242 18.1088 16.5408 17.9C17.8692 16.9748 19.7196 17.2916 20.6772 18.6056C21.6384 19.9196 21.372 21.7736 20.076 22.7528C19.8456 22.9292 19.6044 23.0984 19.3524 23.2424C19.14 23.3648 19.0752 23.5196 19.0752 23.7608C19.0824 26.6588 19.0787 29.5532 19.0787 32.4512C19.0787 32.5844 19.0824 32.7212 19.0608 32.8544C19.0212 33.1136 18.8448 33.254 18.6 33.2612C18.3372 33.2648 18.1535 33.1208 18.1139 32.8472C18.0959 32.7248 18.096 32.6024 18.096 32.4764C18.1032 30.9608 18.1032 29.4452 18.1032 27.9296Z" fill="#2B3990" stroke="#2B3990" stroke-miterlimit="10"/>
<path d="M13.9876 5.1848C13.9876 6.4304 13.9804 7.6796 13.9912 8.9252C13.9948 9.2384 13.8868 9.458 13.6168 9.6236C13.2748 9.836 12.9328 10.0556 12.6124 10.2968C11.7448 10.9484 11.554 12.14 12.1624 13.0292C12.7564 13.9004 13.93 14.1632 14.848 13.6304C14.9164 13.5908 14.9812 13.5476 15.0496 13.5116C15.316 13.382 15.5896 13.4468 15.73 13.6736C15.874 13.9076 15.8128 14.174 15.5644 14.3504C14.7796 14.9048 13.9084 15.0416 12.9976 14.7752C11.8312 14.4296 11.0896 13.6304 10.8772 12.4352C10.6684 11.2616 11.0572 10.268 12.0004 9.512C12.0796 9.4508 12.1552 9.3752 12.2452 9.3356C12.886 9.0728 13.03 8.6048 13.012 7.928C12.9616 5.7824 12.994 3.6368 12.994 1.4912C12.994 1.3796 12.958 1.2356 13.0084 1.16C13.12 1.0016 13.2568 0.814403 13.426 0.753203C13.642 0.674003 13.8472 0.814403 13.9264 1.0412C13.9732 1.1744 13.9804 1.3256 13.9804 1.4696C13.9912 2.7116 13.9876 3.95 13.9876 5.1848Z" fill="#2B3990" stroke="#2B3990" stroke-miterlimit="10"/>
<path d="M10.4313 13.8428C10.5753 13.976 10.7877 14.0804 10.8309 14.2352C10.8777 14.39 10.7841 14.606 10.7049 14.7716C10.6653 14.8544 10.5213 14.8904 10.4277 14.948C9.63928 15.4412 9.63928 16.4456 10.4241 16.9424C10.4817 16.9784 10.5429 17.0072 10.6005 17.0396C10.8885 17.2088 10.9821 17.4608 10.8525 17.7128C10.7157 17.9792 10.4421 18.0584 10.1325 17.9036C9.38008 17.5328 8.91928 16.9316 8.85448 16.0964C8.79328 15.2828 9.14608 14.6384 9.81208 14.1704C9.98128 14.0552 10.1793 13.976 10.4313 13.8428Z" fill="#2B3990" stroke="#2B3990" stroke-miterlimit="10"/>
<path d="M23.4203 16.1108C23.3483 17.0612 22.8911 17.702 22.0667 18.0836C21.7319 18.2384 21.4403 18.1628 21.3143 17.8964C21.1883 17.6264 21.3107 17.3564 21.6383 17.1908C22.2827 16.8668 22.5815 16.3448 22.3583 15.7868C22.2503 15.5168 22.0127 15.272 21.7823 15.0776C21.4763 14.822 21.3647 14.5808 21.5375 14.3144C21.7067 14.0588 21.9767 14.0264 22.3079 14.2244C23.0243 14.6672 23.3879 15.3116 23.4203 16.1108Z" fill="#2B3990" stroke="#2B3990" stroke-miterlimit="10"/>
</svg>
