<svg width="32" height="32" viewBox="0 0 32 32" fill="none" xmlns="http://www.w3.org/2000/svg">
<path d="M6.46015 31.156C6.42415 31.048 6.42415 30.94 6.38815 30.832C6.38815 30.22 6.38815 29.644 6.38815 29.032C6.38815 28.924 6.31615 28.744 6.24415 28.672C5.05615 27.304 3.86815 25.9 2.68015 24.568C1.85215 23.632 1.20415 22.552 1.02415 21.292C0.988148 21.004 0.952148 20.716 0.952148 20.428C0.952148 18.88 0.952148 17.332 0.952148 15.784C0.952148 14.776 1.70815 14.092 2.68015 14.2C3.40015 14.308 3.76015 14.812 3.94015 15.46C4.08415 16 4.19215 16.54 4.30015 17.08C4.48015 17.908 4.66015 18.772 4.84015 19.6C4.87615 19.744 4.94815 19.924 5.05615 20.032C5.27215 20.284 5.48815 20.5 5.74015 20.752C5.99215 20.212 6.31615 19.852 6.89215 19.744C7.43215 19.636 7.90015 19.744 8.26015 20.104C9.23215 21.04 10.1681 21.976 11.1041 22.948C11.9681 23.848 12.4001 24.964 12.4001 26.224C12.4001 27.808 12.4001 29.356 12.4001 30.94C12.4001 31.012 12.3641 31.084 12.3641 31.156C10.4201 31.156 8.44015 31.156 6.46015 31.156ZM11.5721 30.292C11.5721 28.816 11.6081 27.34 11.5721 25.9C11.5361 25 11.1761 24.208 10.5641 23.56C9.62815 22.588 8.69215 21.652 7.75615 20.716C7.61215 20.572 7.32415 20.5 7.10815 20.536C6.53215 20.644 6.38815 21.292 6.78415 21.724C7.43215 22.372 8.08015 23.02 8.69215 23.668C8.94415 23.92 8.98015 24.172 8.80015 24.352C8.62015 24.532 8.36815 24.496 8.11615 24.244C6.85615 22.948 5.56015 21.688 4.30015 20.392C4.19215 20.284 4.12015 20.176 4.12015 20.032C3.90415 18.988 3.68815 17.944 3.43615 16.864C3.32815 16.36 3.22015 15.892 3.07615 15.388C2.96815 15.028 2.71615 14.92 2.39215 14.956C2.06815 14.992 1.85215 15.244 1.81615 15.604C1.81615 15.712 1.81615 15.784 1.81615 15.892C1.81615 17.26 1.81615 18.628 1.81615 19.996C1.78015 21.472 2.28415 22.768 3.25615 23.848C4.55215 25.288 5.81215 26.764 7.07215 28.24C7.18015 28.348 7.21615 28.528 7.25215 28.672C7.28815 29.176 7.25215 29.68 7.25215 30.184C8.69215 30.292 10.1321 30.292 11.5721 30.292Z" fill="#2B3990"/>
<path d="M19.5995 31.156C19.5995 31.048 19.5635 30.94 19.5635 30.796C19.5635 29.356 19.5635 27.88 19.5635 26.44C19.5635 24.964 20.0675 23.704 21.1115 22.66C21.9395 21.868 22.7315 21.076 23.5235 20.248C24.3155 19.348 25.7195 19.492 26.2235 20.716C26.5115 20.428 26.7635 20.14 27.0155 19.888C27.0875 19.816 27.0875 19.744 27.1235 19.636C27.4115 18.34 27.6635 17.008 27.9515 15.712C28.0235 15.424 28.1315 15.136 28.2755 14.848C28.5995 14.308 29.1755 14.092 29.7875 14.2C30.3635 14.308 30.8675 14.812 30.9755 15.388C31.0115 15.532 31.0115 15.712 31.0115 15.856C31.0115 17.296 31.0115 18.7 31.0115 20.14C31.0115 21.724 30.5075 23.128 29.4635 24.352C28.2035 25.792 26.9435 27.232 25.7195 28.672C25.6475 28.78 25.5755 28.924 25.5755 29.068C25.5755 29.752 25.5755 30.472 25.5755 31.156C23.5955 31.156 21.6155 31.156 19.5995 31.156ZM24.7835 30.292C24.7835 29.788 24.7835 29.284 24.7835 28.78C24.7835 28.636 24.8555 28.456 24.9635 28.348C26.2235 26.872 27.5195 25.396 28.8155 23.92C29.7875 22.84 30.2555 21.58 30.2555 20.104C30.2555 18.7 30.2555 17.332 30.2555 15.928C30.2555 15.784 30.2555 15.64 30.2195 15.532C30.1475 15.244 29.9675 15.1 29.6795 15.064C29.3915 15.028 29.1755 15.136 29.0315 15.388C28.9595 15.532 28.8875 15.712 28.8515 15.892C28.5635 17.296 28.2755 18.664 27.9515 20.068C27.9155 20.212 27.8435 20.392 27.7355 20.5C27.0155 21.22 26.2955 21.94 25.5755 22.66C25.0355 23.236 24.4595 23.776 23.9195 24.352C23.7755 24.496 23.5955 24.604 23.3795 24.496C23.0915 24.388 23.0555 24.028 23.3075 23.776C23.9555 23.128 24.6035 22.48 25.2515 21.832C25.5755 21.472 25.6115 21.076 25.2875 20.788C24.9995 20.5 24.6035 20.536 24.2435 20.86C23.3435 21.76 22.4435 22.66 21.5795 23.56C20.9315 24.244 20.4995 25.072 20.4635 26.008C20.4275 27.448 20.4275 28.888 20.4275 30.328C20.4275 30.328 20.4635 30.364 20.4635 30.4C21.8675 30.292 23.3075 30.292 24.7835 30.292Z" fill="#2B3990"/>
<path d="M21.508 8.65601C21.436 8.44001 21.328 8.15201 21.22 7.86401C20.572 8.11601 20.032 8.51201 19.636 9.08801C18.7 10.492 18.556 11.968 19.096 13.516C19.42 14.452 19.852 15.388 20.248 16.288C20.32 16.468 20.464 16.576 20.608 16.72C21.868 18.304 21.76 20.356 20.284 21.796C19.888 22.192 19.384 22.516 18.88 22.804C18.052 23.236 17.656 23.848 17.692 24.784C17.692 25.036 17.692 25.252 17.692 25.504C17.692 25.756 17.548 25.9 17.26 25.9C16.468 25.9 15.676 25.9 14.848 25.9C14.56 25.9 14.452 25.72 14.416 25.468C14.416 25.18 14.416 24.928 14.416 24.64C14.416 23.848 14.056 23.236 13.3 22.876C12.652 22.552 12.04 22.156 11.572 21.616C10.24 20.104 10.24 18.052 11.608 16.576C11.716 16.468 11.788 16.324 11.86 16.18C12.4 15.1 12.904 13.984 13.12 12.796C13.408 11.428 13.12 10.204 12.364 9.05201C11.968 8.47601 11.464 8.11601 10.816 7.86401C10.708 8.15201 10.6 8.40401 10.528 8.69201C10.78 8.87201 11.068 9.05201 11.32 9.26801C12.472 10.24 12.472 11.644 11.32 12.616C10.276 13.48 9.01596 13.768 7.71996 13.66C6.78396 13.588 6.09996 12.94 5.55996 12.22C3.18396 9.08801 3.32796 5.20001 5.77596 2.24801C7.17996 0.592007 8.97996 0.484007 10.996 1.49201C11.32 1.67201 11.608 1.92401 11.896 2.17601C12.724 3.04001 12.724 4.26401 11.932 5.16401C11.536 5.63201 11.032 5.92001 10.456 6.17201C10.528 6.42401 10.636 6.64001 10.708 6.89201C10.744 6.96401 10.816 7.00001 10.888 7.03601C12.976 7.90001 14.128 9.73601 14.056 12.004C14.02 13.084 13.696 14.056 13.3 15.028C13.264 15.136 13.192 15.28 13.12 15.424C15.028 14.596 16.9 14.56 18.844 15.424C18.664 14.992 18.52 14.596 18.376 14.164C18.016 13.084 17.764 11.968 18.016 10.852C18.376 9.05201 19.276 7.64801 21.076 7.00001C21.184 6.96401 21.256 6.85601 21.292 6.78401C21.4 6.60401 21.472 6.38801 21.544 6.17201C21.256 5.99201 20.932 5.84801 20.644 5.63201C20.032 5.20001 19.6 4.62401 19.528 3.83201C19.456 3.07601 19.744 2.46401 20.284 1.99601C21.436 0.988007 22.804 0.628007 24.28 0.916007C25.216 1.09601 25.864 1.74401 26.44 2.46401C28.852 5.52401 28.708 9.41201 26.332 12.4C25.36 13.624 24.1 13.876 22.66 13.516C21.832 13.3 21.076 12.976 20.464 12.328C19.672 11.464 19.672 10.348 20.464 9.48401C20.752 9.19601 21.148 8.98001 21.508 8.65601ZM4.65996 7.32401C4.65996 8.94401 5.23596 10.384 6.17196 11.68C6.85596 12.58 7.68396 13.048 8.87196 12.796C9.51996 12.652 10.168 12.472 10.708 12.04C11.5 11.392 11.5 10.528 10.708 9.91601C10.42 9.70001 10.096 9.52001 9.80796 9.37601C9.33996 9.16001 9.26796 8.94401 9.55596 8.54801C10.096 7.82801 10.06 7.07201 9.48396 6.35201C9.15996 5.95601 9.23196 5.66801 9.73596 5.52401C10.276 5.34401 10.816 5.09201 11.212 4.66001C11.788 4.04801 11.788 3.29201 11.176 2.68001C10.744 2.24801 10.24 1.99601 9.66396 1.85201C8.29596 1.45601 7.17996 1.74401 6.27996 2.86001C5.27196 4.15601 4.69596 5.63201 4.65996 7.32401ZM27.304 7.32401C27.304 7.21601 27.304 7.07201 27.304 6.96401C27.304 6.78401 27.268 6.64001 27.268 6.46001C27.052 4.91201 26.404 3.54401 25.252 2.42801C24.892 2.06801 24.496 1.78001 23.992 1.70801C22.84 1.56401 21.724 1.81601 20.86 2.60801C20.14 3.25601 20.14 4.12001 20.896 4.80401C21.292 5.16401 21.76 5.38001 22.264 5.52401C22.732 5.66801 22.804 5.95601 22.516 6.31601C21.904 7.03601 21.904 7.79201 22.48 8.54801C22.732 8.87201 22.66 9.12401 22.264 9.30401C21.94 9.44801 21.58 9.62801 21.328 9.84401C20.536 10.492 20.536 11.356 21.328 12.004C21.832 12.4 22.444 12.616 23.056 12.76C24.172 13.012 25.072 12.724 25.756 11.788C26.728 10.492 27.304 9.01601 27.304 7.32401ZM16.792 25.108C16.792 25 16.792 24.892 16.792 24.784C16.792 23.56 17.332 22.66 18.448 22.12C18.808 21.94 19.168 21.724 19.456 21.472C21.004 20.14 21.004 18.088 19.42 16.792C18.592 16.108 17.62 15.748 16.576 15.64C15.064 15.496 13.66 15.82 12.508 16.864C11.176 18.016 11.032 19.708 12.148 21.04C12.58 21.544 13.12 21.904 13.696 22.192C14.596 22.624 15.1 23.38 15.208 24.388C15.244 24.604 15.244 24.856 15.244 25.108C15.748 25.108 16.252 25.108 16.792 25.108Z" fill="#2B3990"/>
<path d="M13.0124 5.38002C12.9764 3.79602 14.3084 2.39202 15.8924 2.35602C17.6204 2.32002 18.9884 3.61602 19.0244 5.30802C19.0604 6.92802 17.7284 8.29602 16.1444 8.33202C14.4164 8.36802 13.0484 7.07202 13.0124 5.38002ZM16.0004 3.18402C14.8124 3.18402 13.8404 4.15602 13.8404 5.34402C13.8404 6.53202 14.8124 7.50402 16.0004 7.50402C17.1884 7.50402 18.1604 6.53202 18.1604 5.34402C18.1604 4.15602 17.1884 3.18402 16.0004 3.18402Z" fill="#2B3990"/>
<path d="M15.9999 18.736C17.0799 18.736 18.1959 18.736 19.2759 18.736C19.7439 18.736 19.8879 18.88 19.8519 19.384C19.7799 20.104 19.3839 20.644 18.8079 21.076C18.5199 21.292 18.1959 21.472 17.9079 21.616C17.2599 21.976 16.7559 22.444 16.4319 23.092C16.3239 23.272 16.2159 23.452 15.9999 23.452C15.7479 23.452 15.6399 23.272 15.5679 23.092C15.2079 22.408 14.6679 21.904 13.9839 21.58C13.4799 21.328 13.0119 21.004 12.6519 20.572C12.3639 20.212 12.1839 19.852 12.1479 19.384C12.1119 18.916 12.2559 18.772 12.6879 18.772C13.8039 18.736 14.8839 18.736 15.9999 18.736ZM13.0479 19.564C13.1919 20.032 13.5879 20.392 14.1999 20.752C14.6319 21.004 15.0279 21.256 15.4239 21.544C15.6399 21.724 15.8199 21.976 16.0719 22.192C16.5759 21.436 17.3319 21.004 18.0879 20.608C18.4119 20.428 18.6279 20.14 18.8799 19.888C18.9519 19.816 18.9519 19.708 19.0239 19.6C16.9719 19.564 15.0279 19.564 13.0479 19.564Z" fill="#2B3990"/>
<path d="M16.3961 5.74002C16.3961 5.99202 16.3961 6.20802 16.3961 6.42402C16.3961 6.67602 16.2521 6.82002 16.0001 6.85602C15.7481 6.85602 15.6041 6.71202 15.5681 6.42402C15.5681 6.20802 15.5681 5.99202 15.5681 5.74002C15.3521 5.74002 15.1361 5.74002 14.9201 5.74002C14.5961 5.74002 14.4521 5.56002 14.4521 5.34402C14.4521 5.09202 14.6321 4.94802 14.9201 4.94802C15.0281 4.94802 15.1361 4.94802 15.2441 4.94802C15.3521 4.94802 15.4241 4.94802 15.5681 4.94802C15.5681 4.69602 15.5681 4.48002 15.5681 4.26402C15.5681 3.97602 15.7481 3.79602 15.9641 3.79602C16.2161 3.79602 16.3961 3.97602 16.3961 4.26402C16.3961 4.48002 16.3961 4.66002 16.3961 4.94802C16.6121 4.94802 16.8281 4.94802 17.0441 4.94802C17.3321 4.94802 17.5121 5.12802 17.5121 5.38002C17.5121 5.63202 17.3321 5.77602 17.0441 5.77602C16.8641 5.77602 16.6481 5.74002 16.3961 5.74002Z" fill="#2B3990"/>
</svg>
