<svg width="27" height="30" viewBox="0 0 27 30" fill="none" xmlns="http://www.w3.org/2000/svg">
<path d="M23.3279 3.19201C19.4399 0.132008 16.1279 -0.407992 10.1159 0.960008C8.49591 1.32001 6.62391 1.89601 5.29191 3.33601C4.42791 4.27201 3.74391 5.35201 3.31191 6.54001C3.13191 7.08001 2.98791 7.62001 2.87991 8.16001L2.84391 8.34001C2.73591 8.73601 2.59191 9.13201 2.41191 9.49201C2.15991 9.92401 2.01591 10.464 2.01591 10.968C2.12391 11.4 2.37591 11.796 2.73591 12.048C2.98791 12.264 3.13191 12.408 3.13191 12.552C3.09591 12.624 3.09591 12.696 3.02391 12.768C2.95191 12.912 2.87991 13.056 2.84391 13.2C2.77191 13.776 2.51991 14.352 2.15991 14.784C0.611908 16.44 0.179909 17.016 0.215909 17.628C0.287909 18.024 0.575909 18.384 0.935909 18.6C1.11591 18.708 1.25991 18.816 1.43991 18.888C1.65591 18.996 2.01591 19.176 2.01591 19.32C2.05191 19.5 2.01591 19.644 1.94391 19.824C1.87191 19.968 1.79991 20.112 1.72791 20.22C1.54791 20.544 1.25991 21.084 1.69191 21.444C1.79991 21.552 1.97991 21.696 2.15991 21.804C2.05191 22.02 1.97991 22.272 2.01591 22.524C2.05191 22.704 2.15991 22.884 2.30391 22.992C2.41191 23.064 2.51991 23.136 2.66391 23.208C2.95191 23.388 3.05991 23.46 3.09591 23.604C3.13191 23.784 3.13191 23.964 3.05991 24.144C2.87991 24.72 2.91591 25.332 3.13191 25.908C3.38391 26.844 4.31991 27.42 5.25591 27.204C6.65991 26.88 8.02791 26.448 9.39591 25.98C10.0799 26.376 10.7279 27.384 11.1959 28.716C11.4119 29.328 11.9519 29.724 12.5999 29.724H22.4999C23.0039 29.724 23.4719 29.472 23.7599 29.04C24.0119 28.608 24.0479 28.068 23.8319 27.6C23.2199 26.232 22.8239 24.792 22.7159 23.28C22.5359 21.804 22.7519 20.328 23.3639 18.96C23.7239 18.24 24.1559 17.52 24.6599 16.908C25.6319 15.612 26.7479 14.1 26.7839 11.58C26.8199 10.176 26.6399 8.77201 26.2799 7.40401C25.7759 5.71201 24.7319 4.23601 23.3279 3.19201ZM23.8679 16.332C23.3279 17.016 22.8239 17.772 22.4639 18.6C21.8159 20.112 21.5639 21.768 21.7439 23.424C21.8879 25.044 22.3199 26.592 22.9679 28.068C23.0399 28.212 23.0399 28.392 22.9319 28.536C22.8599 28.68 22.6799 28.752 22.4999 28.752H12.6359C12.4199 28.752 12.2399 28.608 12.1679 28.428C11.8439 27.384 11.3039 26.412 10.5479 25.62L10.9079 25.476C11.2679 25.332 11.5559 25.26 11.6999 25.224C13.7879 24.576 14.8679 23.604 14.8319 22.38C14.8319 22.236 14.7959 22.128 14.6879 22.02C14.5799 21.912 14.4719 21.876 14.3279 21.876C14.1839 21.876 14.0759 21.948 13.9679 22.02C13.8599 22.128 13.8239 22.236 13.8239 22.38C13.8239 22.884 13.4279 23.64 11.3759 24.252C11.2319 24.288 10.9439 24.396 10.5839 24.54C10.2239 24.648 9.79191 24.828 9.32391 24.972C7.95591 25.476 6.55191 25.908 5.11191 26.232C4.64391 26.304 4.21191 26.016 4.10391 25.584C3.95991 25.188 3.92391 24.792 4.06791 24.396C4.17591 24.072 4.17591 23.712 4.10391 23.388C3.95991 22.92 3.63591 22.56 3.20391 22.38C3.16791 22.344 3.13191 22.344 3.09591 22.308C3.13191 22.2 3.20391 22.092 3.27591 22.02C3.34791 21.912 3.38391 21.768 3.38391 21.66C3.38391 21.516 3.31191 21.408 3.20391 21.336C3.09591 21.264 2.80791 21.048 2.59191 20.868C2.62791 20.832 2.62791 20.76 2.66391 20.724C2.73591 20.58 2.80791 20.436 2.91591 20.256C3.05991 19.896 3.13191 19.536 3.05991 19.14C2.95191 18.528 2.37591 18.24 1.94391 18.024C1.79991 17.952 1.69191 17.88 1.58391 17.808C1.47591 17.736 1.36791 17.628 1.25991 17.556C1.25991 17.268 2.33991 16.116 2.91591 15.468C3.41991 14.892 3.74391 14.136 3.85191 13.38C3.88791 13.308 3.88791 13.272 3.92391 13.2C4.03191 12.984 4.10391 12.768 4.13991 12.516C4.10391 12.012 3.81591 11.58 3.41991 11.292C3.23991 11.112 3.02391 10.932 3.02391 10.788C3.09591 10.464 3.20391 10.14 3.34791 9.85201C3.56391 9.42001 3.70791 8.98801 3.85191 8.52001L3.88791 8.34001C3.99591 7.83601 4.13991 7.33201 4.28391 6.86401C4.67991 5.78401 5.25591 4.81201 6.04791 3.98401C7.19991 2.76001 8.78391 2.25601 10.3679 1.89601C16.7759 0.420008 19.5839 1.42801 22.7519 3.94801C24.0119 4.88401 24.9119 6.18001 25.3439 7.65601C25.7039 8.91601 25.8479 10.248 25.8119 11.544C25.7399 13.776 24.8399 15.036 23.8679 16.332Z" fill="#2B3990"/>
<path d="M19.9442 8.52C20.6642 9.276 21.8162 9.384 22.6442 8.772C23.4722 8.16 23.7242 7.008 23.2202 6.108C22.7162 5.208 21.6362 4.812 20.6642 5.208C19.6922 5.604 19.1882 6.648 19.4402 7.62C18.8282 8.16 18.3242 8.772 18.0002 9.492C17.6762 9.24 17.3522 9.06 16.9922 8.916C16.5602 8.124 16.6682 7.044 16.8482 6.144C16.8842 6.144 16.9202 6.144 16.9562 6.144C17.9282 6.144 18.7922 5.424 18.9362 4.452C19.0802 3.48 18.4682 2.544 17.5322 2.256C16.5962 1.968 15.5882 2.436 15.1562 3.336C14.7602 4.236 15.0842 5.316 15.9122 5.82C15.6962 6.684 15.6602 7.584 15.8042 8.448C15.3722 8.304 14.9402 8.196 14.4362 8.088C13.9682 7.98 13.5362 7.908 13.1402 7.836C12.7442 7.476 12.4202 7.008 12.2402 6.504C13.1762 6.144 13.6802 5.172 13.4642 4.2C13.2482 3.228 12.3122 2.58 11.3402 2.688C10.3682 2.796 9.61216 3.624 9.57616 4.596C9.54016 5.604 10.2962 6.432 11.2682 6.576C11.3762 6.936 11.5202 7.26 11.7002 7.548C10.7282 7.404 9.82816 7.296 9.07216 7.224C8.89216 6.252 8.02816 5.532 7.05616 5.568C6.08416 5.604 5.25616 6.396 5.18416 7.368C5.11216 8.34 5.76016 9.24 6.73216 9.456C7.70416 9.672 8.67616 9.096 9.00016 8.16C10.0442 8.268 11.4482 8.412 12.8522 8.664H12.9242C12.4202 9.06 11.9882 9.528 11.6282 10.032C11.4482 9.96 11.2682 9.96 11.0882 9.96C10.1522 9.96 9.32416 10.608 9.14416 11.544C8.96416 12.48 9.43216 13.38 10.2962 13.74C11.1602 14.1 12.1682 13.812 12.7082 13.02C13.2482 12.228 13.1402 11.184 12.4922 10.536C12.8882 9.96 13.4282 9.492 14.0402 9.132C14.1482 9.06 14.2922 9.024 14.4002 8.952C15.0842 9.096 15.7682 9.312 16.4522 9.564C16.4522 9.564 16.4882 9.564 16.4882 9.6C16.9202 9.744 17.2802 9.996 17.6042 10.284C17.6762 10.356 17.7122 10.428 17.7482 10.5C17.9642 10.896 17.9282 11.436 17.6042 12.264C17.4242 12.732 17.1722 13.2 16.9202 13.704C16.0562 15.432 15.0842 17.412 16.6682 18.672C18.5042 20.148 18.5762 25.26 18.4682 27.096C18.4682 27.24 18.5042 27.348 18.5762 27.456C18.6482 27.564 18.7922 27.6 18.9002 27.636H18.9362C19.1882 27.636 19.4042 27.42 19.4402 27.168C19.4762 26.88 19.9082 20.004 17.2802 17.916C16.3802 17.196 16.9202 15.972 17.8202 14.172C18.0362 13.74 18.2522 13.272 18.4322 12.84C18.9362 12.732 19.4402 12.876 19.8002 13.236C19.2242 14.064 19.3322 15.18 20.0522 15.864C20.7722 16.548 21.9242 16.584 22.6802 15.936C23.4362 15.288 23.6162 14.172 23.0762 13.308C22.5362 12.444 21.4562 12.156 20.5202 12.588C20.0522 12.12 19.4042 11.832 18.7562 11.796C18.9002 11.292 18.8642 10.716 18.6842 10.212C18.9362 9.672 19.3682 9.024 19.9442 8.52ZM21.3482 6.144C21.8882 6.144 22.3202 6.576 22.3202 7.116C22.3202 7.656 21.8882 8.088 21.3482 8.088C20.8082 8.088 20.3762 7.656 20.3762 7.116C20.3402 6.612 20.8082 6.144 21.3482 6.144ZM16.9202 3.192C17.4602 3.192 17.8922 3.624 17.8922 4.164C17.8922 4.704 17.4602 5.136 16.9202 5.136C16.3802 5.136 15.9482 4.704 15.9482 4.164C15.9482 3.66 16.3802 3.192 16.9202 3.192ZM10.5122 4.668C10.5122 4.128 10.9442 3.696 11.4842 3.696C12.0242 3.696 12.4562 4.128 12.4562 4.668C12.4562 5.208 12.0242 5.64 11.4842 5.64C10.9442 5.64 10.5122 5.244 10.5122 4.668ZM7.09216 8.628C6.55216 8.628 6.12016 8.196 6.12016 7.656C6.12016 7.116 6.55216 6.684 7.09216 6.684C7.63216 6.684 8.06416 7.116 8.06416 7.656C8.06416 8.16 7.63216 8.628 7.09216 8.628ZM11.0162 13.02C10.4762 13.02 10.0442 12.588 10.0442 12.048C10.0442 11.508 10.4762 11.076 11.0162 11.076C11.5562 11.076 11.9882 11.508 11.9882 12.048C11.9882 12.588 11.5562 13.02 11.0162 13.02ZM22.3202 14.496C22.3202 15.036 21.8882 15.468 21.3482 15.468C20.8082 15.468 20.3762 15.036 20.3762 14.496C20.3762 13.956 20.8082 13.524 21.3482 13.524C21.8882 13.524 22.3202 13.956 22.3202 14.496Z" fill="#2B3990"/>
</svg>
