<svg width="32" height="32" viewBox="0 0 32 32" fill="none" xmlns="http://www.w3.org/2000/svg">
<path d="M11.2484 4.696C11.7524 3.868 12.2204 3.076 12.7244 2.32C13.1204 1.708 13.6604 1.24 14.3084 0.88C15.6044 0.124 16.8644 0.268 18.0884 1.132C19.0964 1.888 19.7444 2.896 20.3204 4.012C20.4284 4.228 20.5364 4.48 20.6444 4.696C21.3644 4.516 22.0844 4.3 22.8044 4.12C23.6324 3.94 24.4604 3.904 25.2884 4.084C26.8364 4.408 27.8084 5.488 27.9884 7.036C28.1684 8.44 27.8084 9.736 27.3764 11.032C27.3404 11.104 27.3044 11.176 27.3044 11.284C27.9524 11.644 28.6364 11.968 29.2124 12.4C29.8244 12.832 30.4004 13.336 30.8684 13.912C31.9124 15.208 31.8764 16.756 30.8684 18.052C30.1124 19.024 29.1404 19.708 28.0604 20.248C27.8084 20.392 27.5564 20.5 27.3764 20.608C27.5924 21.472 27.8084 22.3 27.9884 23.164C28.1324 23.92 28.1324 24.676 27.9524 25.396C27.5924 26.836 26.4764 27.772 25.0004 27.952C23.6324 28.096 22.3004 27.772 21.0404 27.34C20.9324 27.304 20.8604 27.268 20.7524 27.232C20.6444 27.448 20.5364 27.664 20.4284 27.844C19.9964 28.708 19.4564 29.536 18.7724 30.256C17.0804 31.984 15.0284 31.984 13.3364 30.256C12.5444 29.464 12.0044 28.528 11.5364 27.52C11.5004 27.412 11.4284 27.34 11.3924 27.232C10.6724 27.412 9.98841 27.628 9.26841 27.808C8.33241 28.024 7.43241 28.06 6.49641 27.808C5.09241 27.412 4.22841 26.368 4.04841 24.928C3.86841 23.524 4.19241 22.192 4.66041 20.896C4.69641 20.824 4.73241 20.752 4.73241 20.644C4.73241 20.644 4.73241 20.608 4.73241 20.68C3.94041 20.176 3.11241 19.744 2.39241 19.204C1.85241 18.772 1.34841 18.268 0.988407 17.692C0.160407 16.468 0.304407 15.064 1.20441 13.84C1.96041 12.832 2.96841 12.184 4.08441 11.608C4.30041 11.5 4.55241 11.392 4.73241 11.284C4.51641 10.42 4.30041 9.592 4.12041 8.764C3.97641 8.008 3.97641 7.252 4.15641 6.496C4.48041 5.056 5.59641 4.12 7.07241 3.94C8.47641 3.76 9.77241 4.084 11.0684 4.552C11.1044 4.66 11.2124 4.696 11.2484 4.696ZM10.2764 16C10.2764 16.72 10.2764 17.44 10.2764 18.16C10.2764 18.268 10.3484 18.448 10.4204 18.52C11.4284 19.528 12.4364 20.572 13.4804 21.58C13.5884 21.688 13.7324 21.724 13.8764 21.724C15.2804 21.724 16.7204 21.724 18.1244 21.724C18.2684 21.724 18.4484 21.652 18.5564 21.544C19.5644 20.536 20.5724 19.528 21.5804 18.52C21.6524 18.448 21.7244 18.268 21.7244 18.16C21.7244 16.72 21.7244 15.28 21.7244 13.84C21.7244 13.732 21.6524 13.552 21.5804 13.48C20.5724 12.472 19.5644 11.428 18.5204 10.42C18.4484 10.348 18.2684 10.276 18.1604 10.276C16.7204 10.276 15.2804 10.276 13.8404 10.276C13.7324 10.276 13.5524 10.348 13.4804 10.42C12.4724 11.428 11.4284 12.436 10.4204 13.48C10.3484 13.552 10.2764 13.732 10.2764 13.84C10.2764 14.56 10.2764 15.28 10.2764 16ZM27.0164 19.78C27.9884 19.456 29.3204 18.556 29.9684 17.764C30.9044 16.648 30.9764 15.46 30.0764 14.344C29.2484 13.3 28.1324 12.688 27.0164 12.184C26.2604 13.444 25.5404 14.632 24.7844 15.856C24.7484 15.928 24.7844 16.036 24.8204 16.108C25.5404 17.368 26.2604 18.556 27.0164 19.78ZM12.1844 5.056C12.8324 5.38 13.4084 5.704 14.0204 6.028C14.5964 6.388 15.2084 6.748 15.7484 7.108C15.9644 7.252 16.0724 7.216 16.2884 7.108C17.1164 6.568 17.9804 6.064 18.8084 5.596C19.1324 5.416 19.4924 5.272 19.8164 5.092C19.4924 4.084 18.4844 2.572 17.6924 1.96C16.5404 1.06 15.3524 1.096 14.2364 2.068C13.2644 2.86 12.6884 3.904 12.1844 5.056ZM4.98441 12.22C4.01241 12.544 2.68041 13.444 2.03241 14.236C1.09641 15.352 1.02441 16.54 1.92441 17.692C2.75241 18.7 3.86841 19.312 4.98441 19.816C5.74041 18.556 6.46041 17.368 7.21641 16.144C7.25241 16.072 7.21641 15.964 7.18041 15.892C6.46041 14.668 5.74041 13.444 4.98441 12.22ZM19.8164 26.98C18.7724 26.368 17.7284 25.828 16.7564 25.18C16.1804 24.784 15.8204 24.784 15.2444 25.18C14.3084 25.828 13.2284 26.368 12.2204 26.944C12.4364 27.844 13.5524 29.464 14.3804 30.076C15.5324 30.94 16.7204 30.904 17.8004 29.932C18.7364 29.14 19.3124 28.096 19.8164 26.98ZM21.1124 26.476C22.1924 26.872 23.3444 27.196 24.5684 27.124C25.9724 27.052 26.8364 26.368 27.0884 25.108C27.3764 23.668 26.9444 22.336 26.4764 21.04C26.4044 21.04 26.4044 21.04 26.3684 21.04C25.0364 21.4 23.7044 21.76 22.3724 22.12C22.2644 22.156 22.1564 22.264 22.1564 22.372C21.7964 23.74 21.4364 25.072 21.1124 26.476ZM10.8884 26.476C10.5284 25.072 10.2044 23.704 9.84441 22.336C9.80841 22.228 9.66441 22.12 9.55641 22.12C8.69241 21.904 7.79241 21.688 6.89241 21.472C6.42441 21.364 5.99241 21.184 5.52441 21.04C5.09241 22.156 4.80441 23.272 4.84041 24.46C4.87641 26.044 5.70441 26.98 7.25241 27.16C8.54841 27.268 9.77241 26.908 10.8884 26.476ZM26.4764 10.888C26.8724 9.844 27.1964 8.692 27.1244 7.504C27.0524 6.1 26.3684 5.2 25.1084 4.948C23.6684 4.66 22.3364 5.056 21.0764 5.524C21.4364 6.928 21.7604 8.296 22.1204 9.664C22.1564 9.736 22.2644 9.844 22.3364 9.844C23.7044 10.204 25.0724 10.564 26.4764 10.888ZM10.8884 5.524C9.84441 5.128 8.69241 4.804 7.50441 4.876C6.10041 4.948 5.12841 5.668 4.94841 6.964C4.87641 7.504 4.87641 8.08 4.94841 8.62C5.02041 9.448 5.27241 10.24 5.56041 10.924C6.96441 10.564 8.33241 10.24 9.66441 9.88C9.73641 9.844 9.84441 9.736 9.88041 9.664C10.2044 8.296 10.5644 6.928 10.8884 5.524ZM11.8604 26.152C13.0124 25.504 14.1284 24.856 15.2804 24.208C14.6324 23.668 14.0204 23.164 13.4084 22.696C13.3004 22.624 13.1924 22.588 13.0484 22.588C12.6884 22.552 12.3284 22.516 11.9684 22.48C11.5724 22.444 11.2124 22.408 10.7444 22.336C11.0324 23.38 11.2844 24.352 11.5724 25.324C11.6084 25.54 11.7164 25.792 11.8604 26.152ZM22.3364 10.744C22.4084 11.608 22.4804 12.364 22.5884 13.156C22.5884 13.228 22.6244 13.336 22.6964 13.372C23.2004 13.984 23.6684 14.596 24.2444 15.244C24.8924 14.092 25.5404 13.012 26.2244 11.788C24.8564 11.428 23.5964 11.104 22.3364 10.744ZM24.2084 16.756C23.6684 17.44 23.1644 18.016 22.6964 18.592C22.6604 18.664 22.5884 18.736 22.5884 18.808C22.5164 19.6 22.4444 20.392 22.3364 21.256C23.5964 20.896 24.8204 20.572 26.1884 20.212C25.5044 19.024 24.8564 17.908 24.2084 16.756ZM10.7444 9.664C11.6084 9.592 12.3644 9.484 13.1564 9.412C13.2284 9.412 13.3004 9.376 13.3724 9.34C13.9844 8.836 14.5964 8.332 15.2804 7.792C14.1284 7.144 13.0124 6.496 11.8244 5.812C11.4284 7.144 11.1044 8.404 10.7444 9.664ZM7.79241 15.244C8.22441 14.704 8.54841 14.236 8.94441 13.804C9.26841 13.444 9.44841 13.084 9.44841 12.616C9.48441 12.004 9.55641 11.392 9.62841 10.744C8.33241 11.104 7.10841 11.428 5.77641 11.788C6.53241 13.012 7.14441 14.128 7.79241 15.244ZM7.79241 16.756C7.14441 17.908 6.49641 18.988 5.81241 20.212C7.14441 20.572 8.36841 20.932 9.66441 21.256C9.59241 20.392 9.52041 19.636 9.41241 18.844C9.41241 18.772 9.34041 18.664 9.30441 18.592C8.83641 18.016 8.33241 17.44 7.79241 16.756ZM16.7564 7.792C17.4404 8.332 18.0164 8.836 18.6284 9.304C18.7004 9.376 18.8084 9.412 18.9164 9.412C19.5284 9.484 20.1044 9.556 20.7164 9.592C20.8964 9.592 21.0404 9.628 21.2204 9.628C20.9684 8.332 20.6444 7.108 20.1764 5.812C18.9884 6.532 17.9084 7.144 16.7564 7.792ZM16.7564 24.208C17.9084 24.856 19.0244 25.504 20.2124 26.188C20.5724 24.856 20.8964 23.632 21.2564 22.336C20.3924 22.408 19.6004 22.48 18.8084 22.588C18.7364 22.588 18.6644 22.66 18.5924 22.696C18.0164 23.2 17.4044 23.668 16.7564 24.208ZM12.0404 10.42C11.6084 10.492 11.1764 10.528 10.7444 10.6C10.6724 10.6 10.6004 10.672 10.6004 10.744C10.5284 11.176 10.4924 11.608 10.4204 12.04C10.9604 11.5 11.5004 10.996 12.0404 10.42ZM21.5804 12.076C21.5084 11.608 21.4724 11.212 21.4004 10.816C21.4004 10.744 21.3284 10.636 21.2924 10.636C20.8604 10.564 20.3924 10.492 19.9604 10.456C20.5004 10.996 21.0044 11.5 21.5804 12.076ZM10.4204 19.924C10.4924 20.392 10.5284 20.788 10.6004 21.22C10.6004 21.292 10.6724 21.364 10.7444 21.364C11.1764 21.436 11.6084 21.472 12.0764 21.544C11.5004 21.04 10.9964 20.5 10.4204 19.924ZM21.5804 20.032C21.0764 20.536 20.5724 21.076 20.0684 21.544C20.3924 21.508 20.8244 21.436 21.2204 21.364C21.2924 21.364 21.4004 21.256 21.4004 21.184C21.4724 20.824 21.5084 20.392 21.5804 20.032ZM16.0004 23.632C16.3964 23.308 16.7924 23.02 17.1884 22.696C16.3604 22.696 15.6044 22.696 14.7764 22.696C15.2444 23.02 15.6044 23.344 16.0004 23.632ZM14.8124 9.304C15.6404 9.304 16.3964 9.304 17.2244 9.304C16.7924 8.98 16.3964 8.692 16.0004 8.368C15.6044 8.692 15.2444 8.98 14.8124 9.304ZM8.36841 16C8.65641 16.396 8.94441 16.756 9.30441 17.224C9.30441 16.396 9.30441 15.64 9.30441 14.812C8.98041 15.244 8.69241 15.604 8.36841 16ZM22.6964 14.812C22.6964 15.64 22.6964 16.396 22.6964 17.188C23.0204 16.756 23.3084 16.36 23.5964 16C23.3084 15.604 23.0564 15.244 22.6964 14.812Z" fill="#2B3990"/>
<path d="M17.3315 17.404C17.3315 17.764 17.3315 18.16 17.3315 18.556C17.3315 19.204 16.9715 19.564 16.3235 19.564C16.0715 19.564 15.8195 19.564 15.5675 19.564C14.9915 19.564 14.6315 19.204 14.6315 18.628C14.6315 18.232 14.6315 17.8 14.6315 17.368C14.2355 17.368 13.8755 17.368 13.5155 17.368C12.7595 17.368 12.4355 17.044 12.4355 16.288C12.4355 16.072 12.4355 15.82 12.4355 15.604C12.4355 15.028 12.7955 14.704 13.3715 14.668C13.8035 14.668 14.1995 14.668 14.6675 14.668C14.6675 14.236 14.6675 13.876 14.6675 13.48C14.6675 12.796 14.9915 12.436 15.6755 12.436C15.9275 12.436 16.1435 12.436 16.3955 12.436C16.9715 12.436 17.3315 12.796 17.3315 13.372C17.3315 13.768 17.3315 14.2 17.3315 14.632C17.7275 14.632 18.0875 14.632 18.4475 14.632C19.2035 14.632 19.5275 14.956 19.5275 15.712C19.5275 15.928 19.5275 16.18 19.5275 16.396C19.4915 16.972 19.1675 17.296 18.5915 17.332C18.1955 17.332 17.7635 17.332 17.3675 17.332C17.4035 17.368 17.4035 17.368 17.3315 17.404ZM16.4315 13.372C16.1075 13.372 15.8195 13.372 15.5315 13.372C15.5315 13.804 15.5315 14.2 15.5315 14.596C15.5315 15.208 15.1715 15.568 14.5595 15.568C14.1635 15.568 13.7675 15.568 13.3355 15.568C13.3355 15.892 13.3355 16.18 13.3355 16.468C13.7315 16.468 14.0555 16.468 14.4155 16.468C15.2435 16.468 15.5315 16.792 15.5315 17.584C15.5315 17.944 15.5315 18.304 15.5315 18.664C15.8555 18.664 16.1075 18.664 16.4315 18.664C16.4315 18.268 16.4315 17.872 16.4315 17.476C16.4315 16.792 16.7555 16.432 17.4395 16.432C17.8355 16.432 18.2315 16.432 18.6275 16.432C18.6275 16.108 18.6275 15.82 18.6275 15.532C18.2675 15.532 17.9075 15.532 17.5475 15.532C16.7195 15.532 16.4315 15.244 16.4315 14.38C16.4315 14.056 16.4315 13.732 16.4315 13.372Z" fill="#2B3990"/>
</svg>
