<svg width="29" height="32" viewBox="0 0 29 32" fill="none" xmlns="http://www.w3.org/2000/svg">
<path d="M28.3955 10.636C28.3955 12.256 28.3595 13.876 28.3955 15.496C28.4675 18.124 27.7835 20.572 26.4155 22.804C23.6795 27.232 19.8275 30.256 14.8955 31.876C14.6435 31.948 14.3555 31.948 14.1395 31.876C11.3675 31.048 8.95552 29.608 6.75952 27.736C4.81552 26.044 3.15952 24.1 2.00752 21.76C1.10752 19.924 0.603516 18.016 0.603516 16C0.603516 12.184 0.603516 8.332 0.603516 4.516C0.603516 4.012 0.675516 3.904 1.21552 3.832C4.52752 3.508 7.44352 2.212 10.1435 0.340004C10.3235 0.232004 10.5395 0.160004 10.7555 0.160004C13.2035 0.160004 15.6875 0.160004 18.1355 0.160004C18.4235 0.160004 18.6755 0.232004 18.8915 0.412004C20.7995 1.744 22.8515 2.824 25.1555 3.364C26.0195 3.58 26.9555 3.688 27.8195 3.868C28.2515 3.94 28.3595 4.048 28.3595 4.48C28.3955 6.496 28.3955 8.548 28.3955 10.636ZM1.53952 4.696C1.53952 4.84 1.53952 4.912 1.53952 5.02C1.53952 8.656 1.53952 12.292 1.53952 15.928C1.53952 17.872 2.00752 19.672 2.87152 21.4C4.13152 23.884 5.93152 25.9 8.09152 27.628C9.96352 29.104 11.9795 30.256 14.2475 30.976C14.4275 31.012 14.6435 31.012 14.8235 30.976C18.9995 29.572 22.3475 27.052 24.9395 23.488C26.7035 21.04 27.6035 18.34 27.5315 15.28C27.4595 11.896 27.5315 8.512 27.5315 5.092C27.5315 4.984 27.5315 4.84 27.5315 4.696C27.0995 4.624 26.7035 4.588 26.3435 4.516C23.4995 4.012 20.9795 2.824 18.6035 1.204C18.4595 1.096 18.2435 1.024 18.0635 1.024C15.7595 1.024 13.4555 1.024 11.1515 1.024C10.8995 1.024 10.6835 1.096 10.4675 1.24C7.73152 3.04 4.81552 4.3 1.53952 4.696Z" fill="#2B3990"/>
<path d="M16.5511 18.988C16.5511 19.6 16.5511 20.176 16.5511 20.788C16.5511 21.76 15.9031 22.408 14.9311 22.48C14.6431 22.48 14.3551 22.48 14.0671 22.48C13.0951 22.444 12.4471 21.76 12.4471 20.788C12.4471 19.6 12.4471 18.376 12.4471 17.188C12.4471 17.008 12.3751 16.864 12.2671 16.72C11.6911 15.928 11.0791 15.172 10.5751 14.344C10.1071 13.48 9.74706 12.544 9.35106 11.68C9.31506 11.608 9.20706 11.5 9.13506 11.464C8.01906 11.068 6.86706 10.672 5.75106 10.276C5.46306 10.168 5.21106 10.24 4.99506 10.42C4.59906 10.816 4.45506 11.284 4.56306 11.824C4.63506 12.364 4.95906 12.724 5.49906 12.868C5.64306 12.904 5.78706 12.904 5.93106 12.868C6.86706 12.544 7.73106 12.688 8.41506 13.372C9.09906 14.02 9.31506 14.848 9.02706 15.748C8.73906 16.684 8.05506 17.188 7.08306 17.368C5.71506 17.584 4.41906 16.396 4.49106 14.992C4.49106 14.776 4.41906 14.668 4.23906 14.596C2.15106 13.408 1.89906 10.384 3.77106 8.87202C4.38306 8.40402 5.06706 8.22402 5.82306 8.29602C7.26306 8.44002 8.73906 8.58402 10.1791 8.72802C10.3951 8.76402 10.6471 8.72802 10.8631 8.65602C11.5471 8.47602 12.2311 8.26002 12.8791 8.04402C13.9591 7.68402 15.0031 7.68402 16.0471 8.04402C16.3711 8.15202 16.6951 8.22402 16.9831 8.33202C17.9911 8.76402 18.9991 8.76402 20.0431 8.62002C20.9431 8.51202 21.8791 8.44002 22.7791 8.33202C24.6871 8.08002 25.9471 9.48402 26.2711 10.888C26.5951 12.328 26.0191 13.768 24.7591 14.524C24.5791 14.632 24.5431 14.74 24.5431 14.956C24.6151 16.216 23.7151 17.26 22.4551 17.404C21.3391 17.548 20.1871 16.72 19.9711 15.604C19.7191 14.38 20.4031 13.192 21.5911 12.868C22.0951 12.724 22.5631 12.76 23.0311 12.904C23.2111 12.94 23.4271 12.94 23.5711 12.868C24.5071 12.472 24.6511 11.068 23.8231 10.492C23.6431 10.348 23.3191 10.276 23.1031 10.348C21.9871 10.708 20.9071 11.104 19.7911 11.464C19.6111 11.536 19.5391 11.644 19.4671 11.824C18.8191 13.66 17.9191 15.388 16.5511 16.828C16.4791 16.9 16.4431 17.044 16.4071 17.152C16.5151 17.764 16.5511 18.376 16.5511 18.988ZM13.3471 18.736C13.3471 19.42 13.3471 20.104 13.3471 20.788C13.3471 21.292 13.6351 21.58 14.1391 21.58C14.3191 21.58 14.5351 21.58 14.7151 21.58C15.3631 21.58 15.6151 21.328 15.6151 20.644C15.6151 19.348 15.6151 18.052 15.6151 16.756C15.6151 16.468 15.6871 16.288 15.9751 16.144C16.1191 16.072 16.2631 15.928 16.3711 15.784C17.3431 14.596 18.0631 13.228 18.6031 11.824C18.6751 11.68 18.6391 11.5 18.6751 11.356C18.7111 11.212 18.7831 11.032 18.8911 10.924C18.9631 10.816 19.1071 10.78 19.2511 10.708C20.5111 10.24 21.7711 9.80802 23.0311 9.37602C23.2471 9.30402 23.4631 9.34002 23.6791 9.37602C24.6151 9.55602 25.2631 10.492 25.2991 11.536C25.3351 12.544 24.6151 13.48 23.6431 13.768C23.3911 13.84 23.1391 13.84 22.8511 13.732C22.2391 13.444 21.5191 13.66 21.1591 14.2C20.7631 14.74 20.7991 15.46 21.2311 15.964C21.6631 16.468 22.3831 16.612 22.9591 16.324C23.5711 16.036 23.8591 15.388 23.7151 14.704C23.5711 14.164 23.6071 14.092 24.1111 13.876C25.2631 13.372 25.8391 12.112 25.4791 10.888C25.1191 9.62802 24.1471 9.05202 22.8151 9.19602C21.4471 9.34002 20.0791 9.48402 18.7111 9.59202C18.4591 9.62802 18.2071 9.55602 17.9911 9.48402C17.2711 9.26802 16.5511 9.05202 15.8311 8.80002C15.0031 8.51202 14.2111 8.51202 13.3831 8.80002C12.6991 9.01602 11.9791 9.26802 11.2591 9.44802C10.8991 9.55602 10.5031 9.59202 10.1431 9.55602C8.70306 9.44802 7.26306 9.26802 5.78706 9.12402C5.21106 9.05202 4.70706 9.23202 4.31106 9.59202C3.12306 10.708 3.08706 13.084 5.06706 13.876C5.53506 14.056 5.60706 14.128 5.49906 14.668C5.35506 15.352 5.67906 16 6.25506 16.288C6.83106 16.576 7.55106 16.432 7.98306 15.928C8.41506 15.424 8.41506 14.668 8.01906 14.164C7.62306 13.624 6.93906 13.48 6.29106 13.732C6.07506 13.804 5.78706 13.876 5.53506 13.804C4.63506 13.624 4.02306 13.084 3.77106 12.184C3.51906 11.248 3.77106 10.42 4.49106 9.77202C4.88706 9.37602 5.42706 9.23202 5.96706 9.41202C7.29906 9.84402 8.59506 10.312 9.89106 10.816C10.2151 10.924 10.4311 11.14 10.3231 11.536C10.2871 11.644 10.3591 11.752 10.3951 11.86C10.9711 13.3 11.6911 14.704 12.6991 15.928C12.8071 16.036 12.9151 16.18 13.0591 16.216C13.3111 16.324 13.4191 16.504 13.4191 16.756C13.3471 17.368 13.3471 18.052 13.3471 18.736Z" fill="#2B3990"/>
</svg>
