<svg width="33" height="32" viewBox="0 0 33 32" fill="none" xmlns="http://www.w3.org/2000/svg">
<path d="M30.4319 27.628C29.4239 27.304 28.4519 27.016 27.4439 26.692C26.7959 26.476 26.1479 26.296 25.5719 26.116C25.4999 26.08 25.4279 26.116 25.3919 26.188C25.2479 26.44 25.1759 26.728 25.1039 27.016C25.0679 27.088 25.1399 27.196 25.2119 27.196C27.9119 27.988 29.8559 28.6 30.2879 28.744C30.3599 28.78 30.5039 28.816 30.6479 28.96C30.8639 29.14 30.9719 29.428 30.9719 29.716C30.9719 29.896 30.9719 30.112 30.9719 30.292C30.9719 30.364 30.8999 30.472 30.7919 30.472H2.17192C2.06392 30.472 1.99192 30.4 1.99192 30.292C1.99192 30.256 1.99192 30.184 1.99192 30.148C1.99192 29.428 2.45992 28.78 3.14392 28.564C4.97992 27.988 6.85192 27.412 8.68792 26.836C9.33592 26.62 9.87592 26.26 10.3079 25.72C10.5599 25.396 10.5239 25.072 10.2359 24.856C9.98392 24.64 9.65992 24.712 9.40792 25C9.08392 25.396 8.72392 25.612 8.21992 25.756C6.31192 26.332 4.40392 26.908 2.49592 27.52C1.59592 27.808 0.983922 28.42 0.839922 29.356C0.767922 29.788 0.803922 30.256 0.803922 30.724C0.803922 31.444 0.947922 31.552 1.63192 31.552C11.4959 31.552 21.3599 31.552 31.2239 31.552C31.6559 31.552 32.0159 31.192 32.0159 30.76C32.0159 30.436 32.0159 30.148 32.0159 29.824C32.1239 28.78 31.5479 27.988 30.4319 27.628Z" fill="#2B3990" stroke="#2B3990" stroke-width="0.5984" stroke-miterlimit="10"/>
<path d="M25.1758 24.532C25.2478 24.064 25.3558 23.272 25.8598 22.768C26.2918 22.336 26.9038 22.12 27.6238 22.12C28.8118 22.12 29.9998 22.12 31.2238 22.12C31.6558 22.12 31.8718 21.94 31.9078 21.58C31.9078 21.22 31.6918 21.004 31.2238 21.004C29.9638 21.004 28.7038 21.004 27.4078 21.004C25.8598 21.004 24.4918 22.12 24.1678 23.596C24.1318 23.704 24.0958 24.496 24.0598 25.108C24.0598 25.288 24.0238 25.432 24.0238 25.54C23.9878 25.756 23.9518 25.972 23.8438 26.26C23.7718 26.476 23.6998 26.656 23.6278 26.8C22.9798 28.168 21.4318 28.996 19.7758 28.708C18.4798 28.492 17.2918 27.376 17.1118 26.44C17.1838 26.44 17.2198 26.404 17.2918 26.404C20.7118 26.008 23.3398 23.164 23.3398 19.708C23.3398 18.844 23.1598 17.944 23.0158 17.08C22.6198 14.236 20.3518 11.716 17.0758 11.32C14.1238 10.96 11.3878 12.508 10.0918 15.136C9.69584 15.964 9.51584 16.828 9.37184 17.692C9.22784 18.664 9.04784 19.636 9.22784 20.644C9.80384 23.884 12.2518 26.152 15.5638 26.44C15.8158 26.476 15.8878 26.548 15.9598 26.764C16.9318 29.392 19.8838 30.616 22.4038 29.464C22.5118 29.428 23.0158 29.212 23.5198 28.744C24.4198 27.916 24.7078 26.872 24.7798 26.548C24.8518 26.224 24.9238 25.9 24.9598 25.648C25.1398 25.072 25.1398 24.856 25.1758 24.532ZM16.2838 23.2C15.9238 23.2 15.8878 23.128 15.7438 22.408C16.1038 22.408 16.4638 22.408 16.8958 22.408C16.6078 22.66 16.8238 23.164 16.2838 23.2ZM14.6998 21.22C14.8798 20.464 15.0598 19.744 15.2038 18.988C15.8878 18.988 16.5358 18.988 17.2558 18.988C17.4358 19.708 17.6158 20.464 17.7958 21.22C16.7518 21.22 15.7798 21.22 14.6998 21.22ZM16.8238 25.36C16.8238 24.964 16.8238 24.676 16.8238 24.352C17.2918 24.352 17.4358 24.028 17.5798 23.632C17.6878 23.308 17.8318 22.948 17.9398 22.624C18.0118 22.444 18.0838 22.372 18.2998 22.372C18.9838 22.372 19.1998 22.12 19.0198 21.436C18.8038 20.464 18.5518 19.492 18.3358 18.484C18.1918 17.908 18.0478 17.8 17.4718 17.8C16.6438 17.8 15.8158 17.8 14.9878 17.8C14.4478 17.8 14.3038 17.908 14.1958 18.412C13.9438 19.42 13.7278 20.464 13.4758 21.472C13.3318 22.048 13.5478 22.336 14.1598 22.336C14.4118 22.336 14.5198 22.408 14.5918 22.624C14.6998 22.984 14.8798 23.344 14.9878 23.704C15.0958 24.064 15.2758 24.316 15.7078 24.28C15.7078 24.604 15.7078 24.928 15.7078 25.288C15.3118 25.216 14.9158 25.18 14.5558 25.072C11.7478 24.316 9.94784 21.508 10.4158 18.628C10.5238 17.908 10.5958 17.188 10.7758 16.504C11.4598 13.912 13.9438 12.148 16.6438 12.328C19.3438 12.58 21.5398 14.632 21.8998 17.26C22.0078 18.16 22.1878 19.096 22.1518 19.996C22.0798 22.444 20.2798 24.568 17.9038 25.144C17.5798 25.252 17.2198 25.288 16.8238 25.36Z" fill="#2B3990"/>
<path d="M24.6354 11.392C24.6354 12.076 24.6354 12.796 24.6354 13.48C24.6354 13.588 24.6354 13.696 24.6354 13.84C24.5994 14.164 24.3834 14.38 24.0594 14.38C23.7354 14.38 23.5194 14.164 23.5194 13.84C23.5194 13.156 23.5194 12.472 23.5194 11.788C23.5194 11.644 23.5194 11.5 23.5194 11.356C21.2514 11.032 19.7034 9.664 18.4794 7.864C17.7954 8.296 17.1474 8.728 16.4634 9.088C14.7714 9.952 12.9354 10.42 11.0994 10.852C10.5234 10.996 9.94744 11.104 9.37144 11.212C9.15544 11.248 9.08344 11.356 9.08344 11.572C9.08344 12.184 9.08344 12.796 9.08344 13.408C9.08344 13.84 8.86744 14.056 8.50744 14.056C8.18344 14.056 7.96744 13.804 7.96744 13.408C7.96744 12.76 7.96744 12.148 7.96744 11.5V11.464C7.21144 11.464 6.49144 12.328 6.56344 13.156C6.63544 14.056 7.28344 14.74 8.21944 14.776C8.65144 14.812 8.93944 15.028 8.90344 15.388C8.86744 15.748 8.61544 15.928 8.18344 15.892C6.95944 15.82 5.95144 15.064 5.59144 13.948C5.23144 12.832 5.59144 11.608 6.52744 10.852C6.70744 10.708 6.74344 10.564 6.77944 10.348C6.95944 7.468 7.82344 4.876 9.98344 2.86C14.6994 -1.676 22.6554 0.159998 25.0314 6.352C25.5354 7.648 25.7874 8.98 25.8594 10.384C25.8594 10.528 25.9674 10.672 26.0754 10.78C26.9754 11.536 27.3714 12.508 27.0834 13.624C26.8314 14.776 26.0754 15.496 24.9594 15.748C24.7794 15.784 24.5634 15.82 24.3834 15.82C24.0234 15.82 23.7354 15.604 23.7354 15.28C23.6994 14.956 23.9874 14.704 24.3474 14.668C25.0314 14.632 25.5354 14.344 25.8594 13.768C26.4354 12.724 25.6794 11.464 24.6354 11.392ZM7.82344 10.204C8.11144 10.204 8.36344 10.204 8.61544 10.168C10.1994 9.808 11.7474 9.484 13.2954 9.052C15.0954 8.548 16.8234 7.864 18.1554 6.46C18.2634 6.352 18.5874 6.28 18.7314 6.352C18.8754 6.388 19.0194 6.604 19.1274 6.748C19.7034 7.72 20.3874 8.584 21.3234 9.268C22.3314 10.024 23.4474 10.312 24.7074 10.204C24.5274 5.56 21.3594 1.528 16.3194 1.492C11.3514 1.456 8.00344 5.38 7.82344 10.204Z" fill="#2B3990" stroke="#2B3990" stroke-width="0.5984" stroke-miterlimit="10"/>
<path d="M16.284 13.66C18.588 13.768 20.532 15.424 20.856 17.728C20.892 17.98 20.964 18.268 21 18.52C21.072 18.952 20.892 19.24 20.532 19.276C20.208 19.312 19.956 19.096 19.884 18.7C19.812 18.268 19.74 17.836 19.632 17.44C19.2 15.82 17.688 14.776 16.068 14.884C14.34 14.992 13.008 16.216 12.792 17.944C12.756 18.232 12.72 18.556 12.648 18.844C12.576 19.132 12.324 19.348 12.036 19.312C11.748 19.276 11.532 19.024 11.532 18.736C11.496 16.72 12.72 14.812 14.556 14.092C15.096 13.876 15.708 13.804 16.284 13.66Z" fill="#2B3990"/>
<path d="M15.9244 16.396C15.9244 16.72 15.4204 17.26 15.0604 17.26C14.7364 17.26 14.4844 17.008 14.4844 16.684C14.4844 16.36 15.0244 15.82 15.3484 15.82C15.6724 15.856 15.9244 16.108 15.9244 16.396Z" fill="#2B3990"/>
<path d="M17.5076 17.296C17.1836 17.296 16.6436 16.792 16.6436 16.432C16.6436 16.108 16.8956 15.856 17.2196 15.856C17.5436 15.856 18.0836 16.396 18.0836 16.72C18.0476 17.008 17.7956 17.26 17.5076 17.296Z" fill="#2B3990"/>
</svg>
