<svg width="34" height="28" viewBox="0 0 34 28" fill="none" xmlns="http://www.w3.org/2000/svg">
<path d="M28.9884 27.896C27.1164 27.824 25.3164 27.752 23.5884 27.32C22.9044 27.14 22.2564 26.888 21.6084 26.6C20.5644 26.096 20.0964 25.16 19.9524 24.08C19.5924 21.416 19.4124 18.716 19.4844 16.016C19.4844 15.908 19.5204 15.836 19.5204 15.728C19.6284 15.404 19.9164 15.224 20.2404 15.296C20.5284 15.332 20.7084 15.548 20.7084 15.908C20.7084 16.556 20.6724 17.24 20.7084 17.888C20.7804 19.4 20.8884 20.948 20.9964 22.46C21.0324 23 21.0684 23.504 21.1764 24.044C21.2484 24.368 21.3564 24.692 21.5364 24.98C21.6804 25.196 21.8964 25.412 22.1124 25.52C23.3364 26.096 24.6324 26.42 25.9644 26.528C27.2604 26.6 28.5564 26.672 29.8884 26.744C29.9244 26.744 29.9964 26.744 30.0324 26.744C31.2924 26.744 31.7964 26.276 31.8324 25.016C31.8684 24.008 31.9044 23.036 31.8684 22.028C31.7244 18.68 31.4004 15.368 30.3204 12.2C29.2764 9.17601 27.5484 6.58401 25.0644 4.53201C24.4164 3.99201 23.6604 3.56001 22.7964 3.41601C21.9684 3.27201 21.6804 3.45201 21.4644 4.28001C21.2484 5.18001 21.2484 6.08001 21.2844 6.98001C21.3204 7.77201 21.3564 8.56401 21.3924 9.32001C21.3924 9.50001 21.3204 9.71601 21.2484 9.89601C21.1404 10.184 20.8164 10.328 20.5284 10.292C20.2404 10.22 19.9884 9.96801 20.0604 9.64401C20.3124 8.49201 19.9524 7.37601 19.9884 6.26001C20.0244 5.50401 20.0964 4.78401 20.1684 4.02801C20.1684 3.88401 20.2404 3.74001 20.2764 3.63201C20.8164 2.12001 21.5724 1.83201 22.9764 2.04801C24.2364 2.22801 25.2444 2.94801 26.1804 3.74001C29.2404 6.44001 31.1844 9.78801 32.0844 13.748C32.7324 16.52 33.0924 19.292 33.1284 22.136C33.1284 23.072 33.0564 24.008 33.0204 24.944C33.0204 25.196 32.9844 25.412 32.9484 25.664C32.6604 27.104 31.7244 27.896 30.2484 27.932C29.8524 27.932 29.3484 27.896 28.9884 27.896Z" fill="#2B3990"/>
<path d="M13.1482 17.744C13.1482 17.168 13.1482 16.556 13.1482 15.98C13.1482 15.512 13.4002 15.26 13.7602 15.26C14.1562 15.26 14.4082 15.512 14.4082 15.98C14.4082 17.348 14.4082 18.716 14.3362 20.084C14.2642 21.38 14.1202 22.676 13.9762 23.972C13.8682 24.728 13.5802 25.448 13.0402 26.024C12.6802 26.42 12.2122 26.672 11.6722 26.816C10.9882 26.996 10.3402 27.284 9.65621 27.428C7.56821 27.824 5.44421 27.932 3.35621 27.86C1.80821 27.788 0.80021 26.744 0.76421 25.124C0.69221 22.316 0.76421 19.544 1.23221 16.772C1.55621 14.72 1.95221 12.668 2.78021 10.724C4.04021 7.736 5.84021 5.252 8.39621 3.272C9.29621 2.588 10.2682 2.048 11.4562 2.012C12.5722 1.976 13.2202 2.372 13.6522 3.416C14.0122 4.28 14.0842 5.216 14.0482 6.152C14.0122 6.836 13.9402 7.556 13.9042 8.24C13.9042 8.636 13.9402 9.068 13.9762 9.464C14.0482 9.896 13.9042 10.184 13.5082 10.292C13.1122 10.4 12.8602 10.184 12.7162 9.788C12.5002 9.068 12.6082 8.312 12.6802 7.592C12.7522 6.548 12.8242 5.468 12.6082 4.424C12.3922 3.416 12.1042 3.236 11.0962 3.416C10.0882 3.632 9.26021 4.208 8.50421 4.892C5.66021 7.448 3.82421 10.616 3.03221 14.324C2.63621 16.124 2.42021 17.924 2.24021 19.76C2.09621 21.164 2.13221 22.604 2.09621 24.044C2.09621 24.44 2.06021 24.836 2.09621 25.196C2.20421 26.204 2.63621 26.672 3.68021 26.636C4.94021 26.636 6.20021 26.564 7.46021 26.456C8.43221 26.384 9.40421 26.204 10.3402 25.988C10.8442 25.88 11.3482 25.664 11.8162 25.448C12.4282 25.16 12.6442 24.548 12.7162 23.936C12.8242 23.144 12.8962 22.388 12.9682 21.596C13.0762 20.336 13.1482 19.076 13.2562 17.78C13.1842 17.744 13.1842 17.744 13.1482 17.744Z" fill="#2B3990"/>
<path d="M17.324 5.53999C17.324 7.12399 17.324 8.74399 17.324 10.328C17.324 10.58 17.396 10.688 17.612 10.76C18.368 11.084 19.124 11.408 19.844 11.768C20.744 12.2 21.5 12.884 22.076 13.676C22.256 13.928 22.436 14.144 22.616 14.36C23.66 15.944 25.208 16.592 27.044 16.628C27.26 16.628 27.512 16.628 27.728 16.628C28.088 16.628 28.34 16.88 28.34 17.204C28.376 17.564 28.124 17.888 27.728 17.888C25.352 17.96 23.228 17.384 21.716 15.332C21.608 15.188 21.5 15.044 21.392 14.9C20.348 13.172 18.62 12.416 16.82 11.804C16.712 11.768 16.568 11.768 16.496 11.84C15.56 12.272 14.624 12.668 13.724 13.136C13.112 13.46 12.68 14 12.284 14.54C11.996 14.9 11.708 15.296 11.42 15.656C10.34 17.06 8.86398 17.708 7.13598 17.852C6.70398 17.888 6.23598 17.888 5.80398 17.888C5.37198 17.888 5.08398 17.636 5.08398 17.24C5.08398 16.88 5.37198 16.664 5.80398 16.628C6.52398 16.592 7.20798 16.556 7.92798 16.412C8.89998 16.232 9.69198 15.728 10.34 14.936C10.592 14.648 10.844 14.36 11.06 14.036C11.996 12.632 13.328 11.768 14.84 11.12C15.128 11.012 15.416 10.832 15.74 10.76C16.064 10.688 16.136 10.508 16.136 10.184C16.136 7.12399 16.136 4.06399 16.136 1.03999C16.136 0.895993 16.136 0.715992 16.172 0.571992C16.244 0.247992 16.604 0.0319923 16.928 0.103992C17.252 0.175992 17.396 0.391992 17.396 0.751992C17.324 2.33599 17.324 3.91999 17.324 5.53999Z" fill="#2B3990"/>
</svg>
