<svg width="34" height="28" viewBox="0 0 34 28" fill="none" xmlns="http://www.w3.org/2000/svg">
<path d="M31.3639 1.688C31.5079 1.688 31.6519 1.688 31.7958 1.688C32.1199 1.688 32.4799 1.688 32.8399 1.688C33.3079 1.724 33.5958 1.58 33.7759 1.22V0.895999C33.6319 0.535999 33.3799 0.391998 32.8759 0.391998H32.8399C31.4359 0.391998 29.9958 0.391998 28.5918 0.391998C28.0518 0.391998 27.5118 0.391998 26.9718 0.391998H26.0359C25.2799 0.391998 24.5239 0.391998 23.7679 0.391998C23.3719 0.391998 23.0479 0.643998 23.0479 1.004C23.0479 1.184 23.0839 1.364 23.2279 1.508C23.3359 1.652 23.5158 1.724 23.6958 1.724C24.0918 1.724 24.5239 1.724 24.9199 1.724C25.0999 1.724 25.2799 1.724 25.4599 1.724H25.7839V6.368H25.4599C25.2799 6.368 25.0999 6.368 24.9199 6.368C24.7399 6.368 24.5599 6.368 24.3799 6.368C24.1639 6.368 23.9118 6.368 23.6958 6.368C23.3718 6.368 23.1199 6.62 23.0839 6.944C23.0479 7.268 23.2278 7.556 23.5518 7.664C23.6238 7.7 23.7318 7.7 23.8758 7.7C23.9478 7.7 24.0198 7.7 24.0558 7.736L24.3439 7.772V8.456C24.3439 9.32 24.3439 10.184 24.3439 11.048C24.3439 13.244 24.3439 15.476 24.3439 17.708C24.3439 18.644 24.5958 19.472 25.1358 20.264C25.7118 21.128 26.4679 21.92 27.4399 22.784C27.6919 23 27.7999 23.216 27.7999 23.54V23.684C27.7999 24.728 27.7639 25.844 27.7999 26.924C27.7999 27.104 27.9078 27.356 28.0518 27.5C28.2678 27.752 28.5559 27.68 28.6999 27.608C28.9879 27.5 29.1318 27.284 29.1318 26.96V26.78C29.1318 25.736 29.1318 24.656 29.1318 23.576C29.1318 23.216 29.2398 22.964 29.4918 22.748C30.6078 21.776 31.3639 20.912 31.9399 20.012C32.3719 19.328 32.5518 18.644 32.5518 17.888C32.5518 15.584 32.5518 13.28 32.5518 11.012C32.5518 10.148 32.5518 9.32 32.5518 8.456V7.664L32.9118 7.7C33.3798 7.736 33.6679 7.592 33.8479 7.196V6.8C33.6679 6.44 33.3799 6.296 32.9479 6.332C32.6239 6.368 32.2639 6.368 31.9399 6.332C31.7959 6.332 31.6518 6.332 31.4718 6.332H31.0399V1.688H31.3639ZM27.1158 1.724H29.7079V6.332H27.1158V1.724ZM31.1479 7.664V10.94H30.4639C30.2119 10.94 29.9238 10.94 29.6718 10.94C29.2038 10.94 28.9159 11.192 28.9159 11.588C28.9159 11.768 28.9879 11.912 29.0958 12.02C29.2399 12.164 29.4559 12.236 29.7079 12.236C29.9599 12.236 30.2119 12.236 30.4999 12.236H31.1839V15.512H30.4639C30.1759 15.512 29.9238 15.512 29.6718 15.512C29.4198 15.512 29.2399 15.584 29.0958 15.728C28.9518 15.836 28.8799 15.98 28.8799 16.16C28.8799 16.556 29.1679 16.808 29.5999 16.808C29.8519 16.808 30.1398 16.808 30.3918 16.808C30.5358 16.808 30.6439 16.808 30.7879 16.808H31.1118L31.1479 17.24C31.1839 17.888 31.2199 18.572 30.7879 19.22C30.1399 20.228 29.3118 21.02 28.5918 21.668L28.3759 21.884L28.1599 21.668C28.1239 21.632 28.0878 21.596 28.0518 21.56C27.9798 21.488 27.8719 21.416 27.7639 21.308C27.6559 21.164 27.5119 21.02 27.4039 20.876C26.9719 20.372 26.5038 19.832 26.0718 19.328C25.7478 18.932 25.6039 18.464 25.6039 17.888C25.6039 15.476 25.6039 12.992 25.6039 10.616V7.628H31.1479V7.664Z" fill="#2B3990"/>
<path d="M19.376 14.072C19.052 14 18.944 13.784 18.872 13.604C17.504 10.292 15.02 8.41999 11.492 8.02399C11.384 8.02399 11.168 7.98799 11.06 7.84399L10.88 7.62799C10.52 7.19599 10.124 6.72799 9.79997 6.25999C9.51197 5.86399 9.51197 5.35999 9.76397 4.89199C10.016 4.45999 10.448 4.24399 10.952 4.27999C11.6 4.31599 12.032 4.81999 12.104 5.50399C12.14 5.93599 12.464 6.25999 12.86 6.22399C13.256 6.18799 13.544 5.86399 13.544 5.43199C13.544 4.63999 13.184 3.91999 12.536 3.41599C12.032 3.01999 11.456 2.80399 10.844 2.80399C10.664 2.80399 10.484 2.83999 10.34 2.83999C9.40397 3.01999 8.64797 3.66799 8.32397 4.56799C7.99997 5.46799 8.14397 6.47599 8.75597 7.26799C8.82797 7.37599 8.89997 7.48399 9.00797 7.59199L9.40397 8.05999L8.93597 8.20399C8.89997 8.20399 8.86397 8.23999 8.86397 8.23999C5.94797 9.03199 3.89597 10.832 2.77997 13.676C2.70797 13.892 2.45597 14.036 2.31197 14.072C1.15997 14.324 0.295967 15.368 0.259967 16.52C0.223967 17.744 1.01597 18.788 2.20397 19.076C2.52797 19.148 2.74397 19.328 2.85197 19.688C4.11197 23 7.27997 25.16 10.736 25.16C11.06 25.16 11.348 25.16 11.672 25.124C15.092 24.728 17.504 22.892 18.872 19.616C18.98 19.364 19.124 19.184 19.448 19.112C20.636 18.86 21.464 17.816 21.464 16.592C21.428 15.368 20.564 14.324 19.376 14.072ZM18.872 17.708C18.152 17.78 17.864 17.996 17.648 18.68C16.712 21.668 13.976 23.72 10.844 23.72C7.71197 23.72 4.97597 21.704 4.03997 18.716C3.78797 17.96 3.57197 17.78 2.77997 17.708C2.13197 17.636 1.66397 17.168 1.69997 16.52C1.73597 15.944 2.20397 15.476 2.81597 15.44C3.53597 15.404 3.82397 15.188 4.03997 14.504C4.97597 11.48 7.74797 9.46399 10.88 9.46399C14.012 9.46399 16.748 11.48 17.72 14.504C17.936 15.188 18.224 15.404 18.944 15.44C19.592 15.476 20.06 15.98 20.06 16.556C19.988 17.204 19.52 17.672 18.872 17.708Z" fill="#2B3990"/>
</svg>
