<svg width="33" height="32" viewBox="0 0 33 32" fill="none" xmlns="http://www.w3.org/2000/svg">
<path d="M31.3683 23.488C31.3683 22.696 31.0803 22.156 30.4323 21.76C30.2883 21.652 30.1083 21.472 30.1083 21.256C30.1083 20.752 30.1083 20.284 30.1083 19.744V18.988L30.5043 18.952C30.5403 18.952 30.6123 18.952 30.6483 18.952C31.0803 18.952 31.3683 18.7 31.3323 18.34C31.3323 17.98 31.0443 17.764 30.6123 17.764H24.6723C24.2403 17.764 23.9883 17.98 23.9883 18.34C23.9883 18.7 24.2403 18.916 24.6723 18.952H25.2483V19.816C25.2483 20.248 25.2483 20.68 25.2483 21.112C25.2483 21.4 25.1403 21.616 24.8883 21.796C24.3123 22.156 24.0243 22.66 24.0243 23.308C24.0243 25.216 24.0243 27.268 24.0243 29.608C24.0243 30.184 24.2763 30.688 24.7443 31.012C24.9243 31.12 25.1043 31.228 25.3203 31.3C25.3923 31.336 25.4643 31.372 25.5723 31.408H29.8563C29.8923 31.408 29.8923 31.408 29.9283 31.372C31.0083 31.048 31.4403 30.472 31.4403 29.32C31.4403 28.708 31.4403 28.132 31.4403 27.52C31.3683 26.188 31.3683 24.82 31.3683 23.488ZM26.4003 18.952H28.9203V21.472H26.4003V18.952ZM30.1803 28.276C30.1803 28.672 30.1803 29.068 30.1803 29.464C30.1803 29.68 30.1083 29.896 30.0003 30.004C29.9283 30.076 29.7483 30.184 29.4963 30.184H27.8043C27.1563 30.184 26.5083 30.184 25.8603 30.184C25.4283 30.184 25.1763 29.896 25.1763 29.5C25.1763 28.852 25.1763 28.168 25.1763 27.484V26.368H30.2163V28.276H30.1803ZM30.1803 24.424V25.216H25.1403V24.46C25.1403 24.1 25.1403 23.74 25.1403 23.416C25.1403 22.984 25.4283 22.696 25.8603 22.696C27.0843 22.696 28.2723 22.696 29.4963 22.696C29.9283 22.696 30.1803 22.984 30.2163 23.38C30.2163 23.704 30.1803 24.064 30.1803 24.424Z" fill="#2B3990"/>
<path d="M32.0881 0.87999C32.0161 0.66399 31.9081 0.51999 31.6921 0.44799C31.4401 0.37599 31.2601 0.44799 31.0441 0.66399L29.6761 2.03199C28.7761 2.93199 27.8401 3.86799 26.9401 4.76799C26.8321 4.87599 26.5801 5.12799 26.1481 4.98399C25.1401 4.62399 24.2761 4.80399 23.4841 5.55999C23.3401 5.70399 23.1961 5.84799 23.0521 5.99199C22.9801 6.06399 22.9081 6.13599 22.8721 6.20799L22.6921 6.38799L22.4401 6.24399C22.3681 6.20799 22.2961 6.17199 22.2601 6.13599C22.1521 6.06399 22.0441 5.99199 21.9721 5.95599C20.9641 5.45199 19.8841 5.66799 19.0201 6.53199C16.4281 9.08799 13.8361 11.68 11.2441 14.272L6.85211 18.664C6.78011 18.736 6.74411 18.772 6.67211 18.844L6.31211 19.168L5.95211 18.772C5.88011 18.7 5.80811 18.628 5.73611 18.52C5.62811 18.412 5.52011 18.304 5.41211 18.196C5.19611 18.016 4.94411 17.98 4.72811 18.124C4.54811 18.232 4.40411 18.448 4.47611 18.7C4.51211 18.844 4.58411 18.988 4.69211 19.096C5.26811 19.672 5.84411 20.248 6.42011 20.824C6.60011 21.004 6.81611 21.22 6.99611 21.4L7.24811 21.652L3.68411 25.252L3.43211 25C3.28811 24.856 3.14411 24.712 3.00011 24.568C2.67611 24.244 2.31611 23.884 1.95611 23.524C1.81211 23.38 1.59611 23.308 1.41611 23.308C1.27211 23.308 1.12811 23.416 1.02011 23.56C0.984109 23.596 0.948109 23.668 0.912109 23.74V24.028C0.948109 24.064 0.984109 24.136 1.02011 24.172C1.16411 24.352 1.27211 24.496 1.41611 24.64C3.75611 26.98 5.88011 29.104 7.89611 31.12C8.00411 31.228 8.14811 31.3 8.29211 31.408C8.32811 31.444 8.40011 31.48 8.43611 31.516H8.65211C8.86811 31.372 9.08411 31.192 9.08411 31.012C9.12011 30.796 8.90411 30.508 8.68811 30.292C8.40011 30.004 8.07611 29.68 7.78811 29.392L7.14011 28.744L10.8121 25.072L11.0641 25.396C11.1001 25.432 11.1001 25.468 11.1361 25.468C11.1721 25.504 11.2081 25.576 11.2441 25.612C11.8921 26.26 12.5761 26.944 13.3321 27.7C13.6201 27.988 13.9801 28.024 14.2321 27.772C14.3401 27.664 14.4121 27.52 14.4121 27.376C14.4121 27.196 14.3401 27.016 14.1601 26.836C14.0521 26.728 13.9081 26.584 13.7641 26.476C13.6921 26.404 13.6561 26.368 13.5841 26.296L13.3321 26.044L13.6561 25.72C13.6921 25.648 13.7641 25.612 13.8001 25.576C16.7521 22.624 19.6681 19.708 22.6201 16.756L23.4841 15.892C24.3481 15.028 25.1761 14.2 26.0401 13.336C26.7241 12.652 26.9761 11.932 26.7961 11.068C26.7601 10.816 26.6161 10.528 26.5081 10.24C26.4361 10.096 26.3641 9.95199 26.3281 9.77199L26.2201 9.69999L26.4001 9.55599C26.4721 9.48399 26.5441 9.44799 26.6161 9.37599C26.7601 9.23199 26.9401 9.08799 27.0841 8.90799C27.7321 8.18799 27.9121 7.35999 27.6241 6.45999C27.4801 5.99199 27.6601 5.70399 27.8761 5.48799C28.7041 4.65999 29.5321 3.83199 30.3601 3.00399C30.8641 2.49999 31.3681 1.99599 31.8721 1.49199C32.0521 1.27599 32.1241 1.09599 32.0881 0.87999ZM6.31211 27.88L4.62011 26.188L8.11211 22.696L9.80411 24.388L6.31211 27.88ZM12.4681 25.252L7.21211 19.996L10.3441 16.864L10.8841 17.404C11.1001 17.62 11.3521 17.872 11.5681 18.124C11.8561 18.412 12.2161 18.448 12.4681 18.196C12.5761 18.088 12.6481 17.944 12.6481 17.8C12.6481 17.62 12.5761 17.44 12.3961 17.296C12.1801 17.044 11.9281 16.828 11.7121 16.612C11.6041 16.504 11.4961 16.432 11.4241 16.324L11.1721 16.072L12.9361 14.308L18.1921 19.564L12.4681 25.252ZM25.2841 12.544C23.7721 14.056 22.2241 15.604 20.7121 17.116L19.4161 18.412C19.3801 18.448 19.2721 18.52 19.1281 18.52C19.0921 18.52 19.0561 18.52 19.0201 18.484L18.9481 18.448L13.8361 13.372L15.6001 11.608L16.1401 12.148C16.3561 12.364 16.6081 12.616 16.8241 12.868C17.1121 13.156 17.4721 13.192 17.7241 12.94C17.8321 12.832 17.9041 12.688 17.9041 12.544C17.9041 12.364 17.8321 12.184 17.6881 12.04C17.4721 11.824 17.2201 11.572 17.0041 11.356C16.8961 11.248 16.7881 11.176 16.7161 11.068L16.4641 10.816L18.3001 8.97999L18.7321 9.44799C18.8761 9.62799 19.0561 9.77199 19.2361 9.95199C19.6321 10.348 19.8841 10.456 20.0281 10.456C20.1001 10.456 20.2081 10.42 20.3521 10.276C20.5681 10.132 20.8201 9.87999 20.1001 9.15999C19.9201 8.97999 19.7401 8.79999 19.5601 8.65599L19.0201 8.11599L19.2721 7.86399C19.3441 7.79199 19.4521 7.68399 19.5241 7.61199C19.7041 7.43199 19.8841 7.25199 20.0641 7.10799C20.6041 6.67599 21.2881 6.71199 21.8281 7.25199C22.4761 7.89999 23.1241 8.54799 23.7721 9.19599L24.4921 9.91599C24.5641 9.98799 24.6361 10.06 24.7081 10.132C24.8881 10.312 25.1041 10.492 25.2841 10.708C25.7881 11.284 25.8241 12.004 25.2841 12.544ZM26.2561 8.04399C26.1121 8.22399 25.9321 8.36799 25.7521 8.54799C25.6801 8.61999 25.6081 8.69199 25.5361 8.76399L25.2841 9.01599L23.4841 7.17999L23.7361 6.92799C23.8081 6.85599 23.8801 6.78399 23.9521 6.71199C24.1321 6.53199 24.3481 6.31599 24.5641 6.17199C25.0681 5.81199 25.7881 5.88399 26.2201 6.38799C26.6521 6.85599 26.6521 7.57599 26.2561 8.04399Z" fill="#2B3990"/>
</svg>
