<svg width="30" height="30" viewBox="0 0 30 30" fill="none" xmlns="http://www.w3.org/2000/svg">
<path d="M29.4364 14.424V15.108C29.2564 15.972 28.6804 16.584 27.9964 17.232C27.7444 17.484 27.5284 17.7 27.3484 17.916C27.2404 18.06 27.1324 18.204 27.0964 18.384C27.0604 18.6 27.0244 18.816 26.9884 19.032C26.8444 19.86 26.7004 20.724 26.5924 21.588C26.4484 22.668 26.1964 23.928 25.5124 25.044C25.4044 25.188 25.3684 25.404 25.3684 25.656C25.3324 27.168 24.6844 28.248 23.4604 28.968C23.2444 29.112 22.9924 29.184 22.7044 29.292C22.5964 29.328 22.4884 29.364 22.3804 29.4H18.8884H18.8524C18.7804 29.4 18.7084 29.364 18.6364 29.364C16.6564 29.148 14.8204 28.68 13.1284 27.96C12.5884 27.708 12.0484 27.456 11.4724 27.168C11.2204 27.06 10.9684 26.916 10.6804 26.808L10.3924 26.664L10.1044 27.528C9.96038 27.96 9.81638 28.428 9.67238 28.896C9.60038 29.148 9.49238 29.328 9.31238 29.4H8.77238C8.48438 29.148 8.41238 28.86 8.59238 28.392C8.73638 27.996 8.88038 27.6 8.98838 27.24C9.09638 26.952 9.16838 26.664 9.27638 26.376C9.42038 26.016 9.24038 25.8 9.06038 25.656C8.26838 25.008 7.54838 24.396 6.86438 23.784C6.64838 23.568 6.57638 23.352 6.68438 23.1C6.75638 22.92 6.90038 22.812 7.08038 22.776C7.26038 22.74 7.47638 22.776 7.62038 22.92C7.83638 23.1 8.01638 23.28 8.23238 23.46C8.52038 23.748 8.84438 24.036 9.16838 24.288C11.3644 26.088 13.9204 27.276 16.8004 27.888C18.2764 28.212 19.8244 28.32 21.5884 28.284C23.1004 28.248 24.1444 27.168 24.1804 25.62C24.1804 25.116 24.2884 24.756 24.5044 24.396C25.0804 23.46 25.2964 22.38 25.4404 21.48C25.5844 20.364 25.8004 19.212 26.0524 17.808C26.0884 17.628 26.1964 17.412 26.3404 17.268C26.6644 16.908 26.9884 16.584 27.3124 16.26C27.4564 16.116 27.6364 15.936 27.7804 15.792C28.3564 15.216 28.4284 14.604 27.9964 13.92L27.6004 13.308C26.5564 11.616 25.4404 9.85202 24.3604 8.16002C24.1804 7.83602 24.1444 7.58402 24.2164 7.26002C24.7924 5.49602 25.0804 3.58802 25.0444 1.39202C25.0444 1.24802 25.0444 1.14002 25.0804 1.03202C25.1524 0.780017 25.3684 0.636017 25.6204 0.636017C25.8724 0.636017 26.1244 0.816017 26.1604 1.06802C26.1964 1.14002 26.1964 1.24802 26.1964 1.35602C26.1964 3.51602 25.9804 5.42402 25.4404 7.15202C25.3684 7.44002 25.4044 7.69202 25.5484 7.94402C26.1244 8.84402 26.7004 9.78002 27.2764 10.68C27.6724 11.292 28.0684 11.94 28.4644 12.552L28.5724 12.732C28.9684 13.308 29.2924 13.812 29.4364 14.424Z" fill="#2B3990"/>
<path d="M17.3395 1.46401C17.3035 1.50001 17.2675 1.57201 17.2315 1.60801C16.7995 2.04001 16.4035 2.43601 15.9715 2.86801C14.9995 3.84001 13.9915 4.84801 12.9475 5.82001C11.5435 7.15201 9.77953 7.90801 7.72753 8.12401C7.40353 8.16001 7.11553 8.16001 6.79153 8.19601C6.68353 8.19601 6.53953 8.19601 6.43153 8.23201C5.31553 8.16001 4.48753 8.34001 3.76753 8.77201C2.29153 9.67201 1.57153 11.004 1.71553 12.66C1.85953 14.244 2.75953 15.36 4.45153 16.044C5.06353 16.296 5.71153 16.296 6.17953 16.296C6.39553 16.296 6.61153 16.296 6.82753 16.332C7.07953 16.404 7.22353 16.62 7.22353 16.944C7.18753 17.196 7.00753 17.412 6.75553 17.448C4.48753 17.628 2.75953 16.908 1.57153 15.252C0.0595343 13.2 0.311534 10.32 2.18353 8.55601C3.22753 7.54801 4.48753 7.08001 5.96353 7.08001H5.99953C6.86353 7.08001 8.05153 7.04401 9.16753 6.68401C10.4635 6.28801 11.5795 5.56801 12.6235 4.52401C13.3075 3.84001 13.9915 3.15601 14.6395 2.50801C15.1795 1.96801 15.7195 1.42801 16.2595 0.888007C16.4755 0.672007 16.6195 0.600007 16.8355 0.636007C17.0515 0.672007 17.1955 0.780007 17.3035 0.960007C17.4475 1.10401 17.4475 1.32001 17.3395 1.46401Z" fill="#2B3990"/>
<path d="M19.2112 9.45601C19.2112 9.78001 19.0312 9.99601 18.7432 10.068C18.6352 10.068 18.5272 10.104 18.4192 10.104C17.7712 10.104 17.1232 10.104 16.4392 10.104H15.3232L15.2872 10.32C15.2872 10.428 15.2872 10.536 15.2512 10.608C15.2512 10.788 15.2512 10.932 15.1792 11.04C15.1072 11.184 14.9632 11.292 14.8192 11.364C14.6392 11.4 14.4592 11.364 14.3512 11.22C13.9192 10.824 13.4512 10.392 12.9472 9.81601C12.7672 9.60001 12.7672 9.31201 12.9832 9.09601C13.4152 8.66401 13.8832 8.19601 14.3512 7.72801C14.4592 7.62001 14.6032 7.58401 14.7112 7.58401C14.8192 7.58401 14.9272 7.62002 15.0352 7.69202C15.2512 7.83602 15.3232 8.08802 15.2512 8.37602L15.1072 8.91601H15.7912C16.0792 8.91601 16.3312 8.91601 16.6192 8.91601C17.2672 8.91601 17.9152 8.91601 18.5992 8.91601C18.9592 8.91601 19.1752 9.13201 19.2112 9.45601Z" fill="#2B3990"/>
<path d="M16.7632 24.288C16.5832 24.612 16.2592 24.684 15.8992 24.468C15.3952 24.18 14.8552 23.892 14.3512 23.568C14.0992 23.424 13.8112 23.244 13.5232 23.1C13.4512 23.064 13.3792 23.028 13.3072 22.992L12.8752 22.776L12.7312 23.316C12.6592 23.532 12.4432 23.712 12.2272 23.748C12.0112 23.748 11.7592 23.676 11.6872 23.424C11.4712 22.776 11.2912 22.092 11.1472 21.408C11.1112 21.192 11.2912 20.94 11.5432 20.868C12.1192 20.688 12.7312 20.544 13.4512 20.364C13.6672 20.328 13.9192 20.436 14.0272 20.652C14.1352 20.868 14.0992 21.156 13.9552 21.336C13.9192 21.372 13.8832 21.408 13.8472 21.408C13.8112 21.444 13.8112 21.444 13.7752 21.48L13.4872 21.732L16.0072 23.172C16.1512 23.28 16.3312 23.352 16.4752 23.46C16.7992 23.712 16.9432 24 16.7632 24.288Z" fill="#2B3990"/>
<path d="M14.8563 17.124C14.7483 17.34 14.5323 17.484 14.3163 17.448C14.1363 17.412 13.9563 17.304 13.8483 17.196C13.3803 16.764 12.9123 16.296 12.4803 15.828C12.3003 15.648 12.1203 15.468 11.9403 15.288C11.8683 15.216 11.8323 15.18 11.7963 15.144L11.6163 14.964L11.4363 15.108C11.3643 15.18 11.2923 15.252 11.2203 15.288C11.1123 15.396 10.9683 15.504 10.8603 15.54C10.7163 15.612 10.5363 15.576 10.3923 15.504C10.2483 15.396 10.1403 15.252 10.1403 15.072C10.1043 14.496 10.1043 13.848 10.1403 13.128C10.1403 12.804 10.3923 12.624 10.7163 12.624C11.2203 12.624 11.7963 12.624 12.5163 12.624C12.8043 12.624 13.0563 12.804 13.1283 13.056C13.2003 13.344 13.0563 13.596 12.7683 13.74C12.7323 13.74 12.7323 13.776 12.6963 13.776L12.3363 13.992L12.6603 14.316C12.6963 14.352 12.7683 14.424 12.8043 14.46C13.0203 14.676 13.2363 14.892 13.4523 15.108C13.8843 15.54 14.3523 16.008 14.7843 16.44C14.8923 16.656 14.9643 16.872 14.8563 17.124Z" fill="#2B3990"/>
<path d="M6.32394 14.208C6.28794 14.46 6.03594 14.676 5.74794 14.676C4.45194 14.64 3.33594 13.56 3.33594 12.264C3.33594 10.932 4.41594 9.85202 5.74794 9.85202C5.92794 9.85202 6.07194 9.92402 6.17994 10.032C6.28794 10.14 6.35994 10.284 6.35994 10.428C6.35994 10.716 6.17994 10.932 5.92794 10.968C5.85594 10.968 5.78394 11.004 5.71194 11.004H5.67594C5.02794 11.076 4.55994 11.616 4.52394 12.228C4.52394 12.84 4.99194 13.416 5.63994 13.488C5.67594 13.488 5.74794 13.488 5.78394 13.488C5.85594 13.488 5.92794 13.488 5.96394 13.524C6.21594 13.632 6.39594 13.92 6.32394 14.208Z" fill="#2B3990"/>
</svg>
