<svg width="28" height="34" viewBox="0 0 28 34" fill="none" xmlns="http://www.w3.org/2000/svg">
<path d="M9.49917 2.204C10.2912 1.736 11.1552 1.664 12.0552 1.952C12.9552 2.204 13.3872 2.852 13.3872 3.752C13.3872 4.184 13.3872 4.652 13.3872 5.084C13.4232 5.12 13.4592 5.12 13.4952 5.156C13.5312 5.084 13.6032 4.976 13.6392 4.94C15.1872 3.248 17.1312 2.42 19.4352 2.384C20.1552 2.384 20.8752 2.384 21.5952 2.384C22.6752 2.384 23.4672 2.96 23.8272 3.968C23.9712 4.364 24.0072 4.832 24.0432 5.264C24.0792 5.66 23.8272 5.876 23.5032 5.912C23.1432 5.912 22.9272 5.696 22.8912 5.3C22.8552 4.976 22.8192 4.652 22.7112 4.328C22.5672 3.932 22.2792 3.608 21.8472 3.608C20.5152 3.608 19.1832 3.464 17.8872 3.752C16.3032 4.112 15.0432 5.012 14.0712 6.272C12.9552 7.712 12.2712 9.404 11.5512 11.096C10.9392 12.572 10.3272 14.012 9.67917 15.452C9.21117 16.28 8.63517 17.072 7.87917 17.72C6.61917 18.8 5.14317 18.944 3.59517 18.584C3.09117 18.476 2.58717 18.26 2.08317 18.116C2.01117 18.08 1.90317 18.08 1.79517 18.008C1.97517 19.16 2.37117 20.168 2.91117 21.176C4.27917 23.804 6.18717 25.964 8.31117 27.98C9.71517 29.312 11.2272 30.536 12.8832 31.544C13.1352 31.688 13.3872 31.796 13.6752 31.94C14.4312 32.372 15.1872 32.264 15.8352 31.724C16.4832 31.148 17.1672 30.536 17.6712 29.816C20.0832 26.36 21.5952 22.508 22.1352 18.332C22.4232 16.1 21.8832 14.12 20.5152 12.32C20.2272 11.96 20.2272 11.636 20.5152 11.384C20.8032 11.132 21.1272 11.204 21.4152 11.6C22.7832 13.436 23.5392 15.488 23.3232 17.828C22.8552 22.508 21.2352 26.792 18.5352 30.644C17.9232 31.544 17.1672 32.3 16.2672 32.876C15.3672 33.452 14.4312 33.56 13.4232 33.128C11.8752 32.408 10.5072 31.436 9.21117 30.356C6.54717 28.16 4.20717 25.676 2.44317 22.688C1.57917 21.248 0.859169 19.736 0.643169 18.044C0.319169 15.308 1.00317 12.752 2.55117 10.484C3.34317 9.296 4.35117 8.288 5.53917 7.496C5.75517 7.352 5.79117 7.208 5.75517 6.992C5.57517 6.128 5.25117 5.3 4.71117 4.58C4.02717 3.68 4.17117 2.78 4.74717 1.988C5.17917 1.412 5.71917 0.979999 6.43917 0.763999C7.15917 0.511999 7.80717 0.583999 8.38317 1.088C8.74317 1.412 9.06717 1.808 9.49917 2.204ZM5.03517 17.648C6.25917 17.648 7.19517 17.072 7.80717 16.1C8.41917 15.128 8.88717 14.084 9.42717 13.076C9.46317 13.004 9.46317 12.86 9.46317 12.752C9.10317 11.492 8.67117 10.268 7.87917 9.224C7.59117 8.864 7.19517 8.612 6.83517 8.36C6.72717 8.288 6.47517 8.324 6.33117 8.396C5.93517 8.648 5.53917 8.972 5.17917 9.296C3.05517 11.204 1.93917 13.58 1.75917 16.424C1.75917 16.532 1.83117 16.748 1.90317 16.784C2.87517 17.216 3.88317 17.612 5.03517 17.648ZM10.1832 11.132C10.2552 11.024 10.2552 10.952 10.2912 10.916C10.9032 9.62 11.5152 8.288 12.1272 6.992C12.1632 6.956 12.1992 6.92 12.1992 6.848C12.1992 6.128 12.1992 5.372 12.1992 4.616C11.4072 4.904 10.6512 4.976 9.85917 4.76C9.85917 5.372 9.85917 5.912 9.85917 6.452C9.85917 6.704 9.78717 6.956 9.49917 7.028C9.31917 7.064 9.03117 7.028 8.88717 6.92C8.74317 6.812 8.70717 6.56 8.67117 6.38C8.63517 5.48 8.63517 4.544 8.59917 3.644C8.56317 3.32 8.41917 2.996 8.31117 2.672C8.27517 2.672 8.23917 2.672 8.20317 2.708C7.84317 3.752 7.12317 4.4 6.15117 4.652C6.40317 5.444 6.61917 6.236 6.87117 6.992C6.90717 7.1 7.01517 7.208 7.08717 7.208C7.69917 7.424 8.20317 7.748 8.56317 8.252C8.99517 8.864 9.35517 9.512 9.75117 10.124C9.89517 10.412 10.0032 10.736 10.1832 11.132ZM7.23117 1.808C6.36717 1.7 5.25117 2.708 5.43117 3.5C6.40317 3.5 7.08717 2.888 7.23117 1.808ZM9.93117 3.5C10.6512 3.824 11.4792 3.716 12.0552 3.32C11.4792 2.744 10.2912 2.852 9.93117 3.5Z" fill="#2B3990"/>
<path d="M18.4263 18.872C18.3183 19.412 18.2103 19.952 18.1023 20.528C18.0303 20.96 17.7783 21.176 17.4183 21.104C17.0583 21.032 16.8783 20.744 16.9503 20.312C17.0583 19.664 17.2023 19.016 17.3463 18.368C17.4183 18.008 17.3463 17.828 17.0223 17.72C16.6983 17.576 16.3743 17.396 16.0143 17.216C15.9423 17.324 15.8703 17.432 15.7983 17.54C15.2943 18.44 14.7903 19.34 14.2503 20.24C14.0703 20.528 14.0343 20.852 13.9983 21.176C13.8543 22.256 14.1783 23.048 15.0423 23.696C15.6543 24.164 16.1583 24.776 16.6983 25.316C17.0223 25.64 17.0583 25.928 16.7703 26.216C16.5183 26.504 16.1943 26.468 15.8343 26.144C15.2583 25.568 14.6823 24.992 14.1063 24.416C14.1063 24.416 14.0703 24.416 14.0343 24.38C14.0343 24.488 13.9983 24.596 13.9983 24.704C13.9983 25.64 13.9983 26.54 13.9983 27.476C13.9983 28.016 13.5303 28.304 13.0983 28.088C12.8463 27.944 12.8103 27.728 12.8103 27.476C12.8103 25.676 12.8103 23.876 12.8103 22.112C12.8103 21.968 12.8103 21.86 12.8103 21.608C12.4503 21.824 12.1623 22.04 11.8383 22.184C11.1543 22.472 10.7943 22.94 10.7223 23.696C10.6863 24.056 10.5783 24.38 10.4703 24.74C10.3623 25.172 10.0743 25.352 9.71425 25.244C9.35425 25.136 9.21025 24.848 9.31825 24.416C9.42625 23.912 9.57025 23.408 9.71425 22.904C9.78625 22.688 9.71425 22.58 9.53425 22.4C8.92225 21.896 8.31025 21.716 7.59025 22.112C7.41025 22.22 7.23025 22.256 7.05025 22.292C6.76225 22.364 6.47425 22.184 6.40225 21.896C6.33025 21.608 6.36625 21.32 6.69025 21.212C7.30225 20.996 7.95025 20.78 8.59825 20.564C8.74225 20.528 8.95825 20.6 9.10225 20.708C9.49825 20.96 9.85825 21.212 10.2543 21.464C10.3623 21.536 10.5783 21.536 10.6503 21.464C11.3703 21.068 12.0543 20.636 12.7383 20.204C12.8463 20.132 12.9543 20.024 13.0263 19.88C13.6743 18.764 14.3223 17.612 14.9703 16.496C15.0423 16.352 15.1143 16.172 15.1143 15.992C15.1143 15.02 15.1143 14.048 15.1143 13.112C15.1143 12.608 15.3303 12.356 15.6903 12.356C16.0863 12.356 16.2663 12.608 16.2663 13.112C16.2663 13.976 16.2663 14.804 16.2663 15.668C16.2663 15.956 16.3383 16.136 16.6263 16.244C18.0663 16.748 19.1463 17.792 20.1543 18.872C20.3343 19.088 20.4423 19.268 20.3343 19.556C20.1543 19.952 19.7223 20.06 19.3983 19.736C19.0743 19.448 18.7863 19.088 18.4983 18.8C18.4983 18.836 18.4623 18.836 18.4263 18.872Z" fill="#2B3990"/>
<path d="M23.7915 10.196C24.0795 9.51199 24.5475 9.04399 25.3755 8.82799C25.2315 8.75599 25.1235 8.68399 25.0515 8.64799C23.8275 7.74799 22.5675 7.06399 20.9835 7.13599C19.8675 7.17199 18.8955 7.60399 18.0675 8.25199C17.1675 8.93599 16.3035 9.72799 15.4035 10.448C15.0435 10.736 14.6475 10.952 14.2155 11.132C13.7835 11.312 13.4235 11.096 13.3515 10.736C13.2795 10.376 13.4955 10.16 13.9275 10.016C14.2515 9.87199 14.5755 9.61999 14.8635 9.40399C15.7275 8.71999 16.5195 7.99999 17.3835 7.35199C17.8515 6.99199 18.4275 6.70399 18.9675 6.41599C20.0835 5.87599 21.2355 5.76799 22.4235 6.09199C24.1875 6.55999 25.6995 7.45999 26.9955 8.75599C27.3555 9.11599 27.4995 9.51199 27.4995 10.016C27.4635 11.06 27.0675 11.924 26.1675 12.5C25.3395 13.004 24.2595 12.968 23.6475 11.924C22.6035 10.124 20.2275 10.196 19.2195 11.996C19.0035 12.356 18.7515 12.464 18.3915 12.32C18.0675 12.176 17.9955 11.852 18.1755 11.492C19.0035 9.61999 21.7035 8.86399 23.4675 10.052C23.5755 10.052 23.6475 10.124 23.7915 10.196ZM26.2755 9.94399C25.3035 9.79999 24.6915 10.376 24.7635 11.312C24.7635 11.42 24.9435 11.6 25.0515 11.6C25.2675 11.6 25.4835 11.528 25.6635 11.384C26.0955 11.024 26.2755 10.52 26.2755 9.94399Z" fill="#2B3990"/>
</svg>
