<svg width="31" height="32" viewBox="0 0 31 32" fill="none" xmlns="http://www.w3.org/2000/svg">
<path d="M23.2409 22.804C23.0249 23.2 22.8089 23.56 22.6289 23.956C22.4849 24.244 22.2689 24.352 21.9809 24.352C21.4409 24.352 20.9009 24.352 20.3249 24.352C19.9649 24.352 19.7129 24.136 19.7129 23.848C19.7129 23.524 19.9649 23.308 20.3249 23.308C20.7209 23.308 21.0809 23.272 21.4769 23.308C21.7289 23.308 21.8369 23.236 21.9449 23.02C22.4489 22.084 22.9529 21.148 23.4569 20.212C23.6009 19.96 23.7809 19.78 24.1049 19.852C24.3929 19.924 24.5009 20.176 24.5009 20.464C24.4649 21.328 24.3929 22.156 24.3569 23.02C24.3569 23.128 24.3569 23.2 24.3929 23.308C24.4289 23.272 24.4649 23.2 24.4649 23.164C24.6089 22.588 25.0049 22.444 25.5449 22.48C26.3729 22.516 26.3729 22.48 26.6969 21.724C26.8769 21.292 27.0569 20.824 27.2729 20.392C27.4169 20.032 27.6329 19.924 27.9209 19.996C28.2089 20.068 28.3529 20.32 28.3169 20.68C28.1729 21.904 28.0289 23.164 27.8849 24.46C27.9929 24.388 28.0649 24.352 28.1009 24.28C28.3889 23.812 28.8209 23.668 29.3609 23.74C29.5409 23.776 29.7569 23.74 29.9369 23.74C30.2609 23.74 30.4409 23.956 30.4769 24.244C30.4769 24.532 30.2609 24.748 29.9729 24.784C29.9369 24.784 29.9009 24.784 29.8649 24.784C29.2529 24.676 28.8569 24.928 28.4969 25.396C28.2449 25.72 27.9569 26.008 27.6689 26.296C27.4889 26.512 27.2729 26.656 26.9849 26.512C26.6969 26.404 26.6609 26.152 26.6969 25.864C26.7689 25.072 26.8769 24.28 26.9489 23.488C26.4809 23.488 26.0489 23.488 25.6169 23.488C25.5089 23.488 25.4009 23.632 25.3649 23.704C24.9689 24.532 24.5729 25.396 24.1769 26.224C23.9969 26.62 23.7809 26.728 23.4929 26.656C23.2049 26.584 23.0609 26.368 23.0969 25.972C23.1689 24.892 23.2049 23.812 23.2769 22.768C23.2769 22.804 23.2769 22.804 23.2409 22.804Z" fill="#2B3990"/>
<path d="M8.87659 4.408C8.94859 3.544 9.02059 2.716 9.05659 1.888C9.12859 0.771999 9.74059 0.195999 10.8566 0.195999C11.4686 0.195999 12.0806 0.195999 12.6926 0.195999C13.7006 0.195999 14.4206 0.987999 14.2766 1.996C14.0966 3.256 13.8806 4.48 13.7006 5.74C13.7006 5.848 13.6646 5.956 13.6646 6.136C14.1686 6.028 14.6366 5.92 15.0686 5.812C15.1766 5.776 15.2846 5.668 15.3206 5.56C16.1126 4.12 16.9046 2.716 17.6606 1.24C18.0206 0.519999 18.5966 0.195999 19.3886 0.231999C20.0006 0.267999 20.6126 0.231999 21.1886 0.231999C22.3406 0.195999 23.0606 1.24 22.6646 2.32C22.3766 3.112 22.0886 3.868 21.8006 4.624C21.7646 4.732 21.7286 4.84 21.6926 4.948C22.0166 4.948 22.3406 4.948 22.6286 4.984C23.4926 5.092 24.1766 5.776 24.3206 6.64C24.4286 7.252 24.5006 7.828 24.5726 8.44C24.7166 9.664 23.9606 10.564 22.6646 10.636C21.5486 10.708 20.4326 10.888 19.3886 11.248C18.5606 11.5 17.7686 11.86 17.0846 12.4C18.3086 14.092 19.5326 15.748 20.7926 17.44C24.5006 15.496 28.0646 17.296 29.5406 19.384C31.3046 21.868 31.3046 25.144 29.4326 27.556C27.6686 29.86 24.2126 31.048 20.9006 29.392C20.8646 29.464 20.7926 29.5 20.7206 29.572C19.1006 31.552 17.0846 32.236 14.6006 31.552C12.5846 30.976 10.7486 30.004 8.94859 28.924C7.04059 27.772 5.31259 26.368 3.94459 24.532C1.78459 21.58 1.24459 18.376 2.36059 14.92C2.43259 14.704 2.39659 14.596 2.25259 14.452C1.85659 14.02 1.46059 13.588 1.10059 13.156C-0.123411 11.788 -0.231411 10.06 0.776589 8.512C0.992589 8.188 1.17259 7.9 1.38859 7.576C1.60459 7.288 1.60459 7 1.42459 6.676C1.20859 6.352 1.02859 6.028 0.848589 5.668C0.236589 4.48 0.632589 3.076 1.74859 2.356C2.86459 1.672 4.30459 1.924 5.13259 3.004C5.31259 3.22 5.45659 3.472 5.60059 3.688C5.99659 4.264 6.57259 4.552 7.25659 4.516C7.83259 4.516 8.33659 4.48 8.87659 4.408ZM19.9286 18.052C18.7406 16.396 17.5166 14.776 16.2566 13.048C15.9326 13.588 15.6806 13.984 15.4646 14.416C14.7086 15.892 13.9166 17.296 12.8726 18.556C12.5126 19.024 12.0806 19.42 11.6486 19.852C11.3606 20.104 11.0366 20.104 10.8206 19.852C10.6046 19.6 10.6766 19.348 10.9286 19.06C11.0726 18.916 11.2166 18.808 11.3246 18.664C12.6566 17.26 13.6646 15.64 14.4926 13.912C15.1766 12.472 16.2566 11.464 17.6966 10.78C19.2446 10.024 20.9006 9.7 22.5926 9.592C23.3486 9.52 23.6366 9.16 23.5286 8.404C23.4566 7.9 23.3846 7.396 23.3126 6.892C23.2046 6.28 22.8806 5.992 22.2686 5.992C21.3686 6.028 20.5046 6.064 19.6046 6.136C16.7966 6.388 14.0606 7.036 11.3246 7.828C8.12059 8.764 5.67259 10.636 4.12459 13.624C3.15259 15.496 2.72059 17.476 3.00859 19.564C3.29659 21.508 4.19659 23.2 5.49259 24.676C7.07659 26.512 9.05659 27.844 11.2166 28.924C12.4766 29.572 13.7366 30.22 15.1046 30.544C17.0846 31.048 18.9566 30.364 20.0006 28.78C16.5086 26.26 16.3646 20.932 19.9286 18.052ZM29.7926 23.38C29.7926 20.212 27.2366 17.656 24.1046 17.656C20.9366 17.656 18.3446 20.248 18.3446 23.38C18.3446 26.548 20.9006 29.104 24.1046 29.104C27.2366 29.104 29.7926 26.548 29.7926 23.38ZM8.76859 5.488C8.44459 5.524 8.15659 5.524 7.83259 5.56C6.46459 5.74 5.38459 5.308 4.66459 4.12C4.59259 3.976 4.48459 3.832 4.37659 3.724C3.87259 3.04 3.04459 2.86 2.36059 3.292C1.67659 3.724 1.46059 4.552 1.85659 5.272C2.03659 5.596 2.21659 5.92 2.39659 6.244C2.75659 6.892 2.72059 7.504 2.32459 8.116C2.07259 8.512 1.78459 8.872 1.56859 9.268C1.02859 10.132 0.992589 11.068 1.53259 11.932C1.89259 12.544 2.43259 13.048 2.90059 13.588C2.97259 13.48 2.97259 13.444 3.00859 13.408C4.23259 10.996 5.96059 9.052 8.40859 7.792C8.48059 7.756 8.58859 7.612 8.58859 7.504C8.66059 6.892 8.73259 6.208 8.76859 5.488ZM9.70459 7.216C10.6406 6.928 11.5046 6.676 12.3686 6.424C12.4406 6.388 12.5126 6.28 12.5486 6.172C12.7646 4.768 13.0166 3.328 13.1966 1.924C13.2686 1.456 13.0886 1.24 12.6206 1.24C12.0446 1.24 11.4326 1.24 10.8566 1.24C10.3166 1.24 10.1726 1.384 10.1366 1.924C10.0646 2.968 9.99259 3.976 9.88459 5.02C9.81259 5.74 9.77659 6.496 9.70459 7.216ZM16.5806 5.452C17.8766 5.308 19.1726 5.164 20.4326 5.02C20.5046 5.02 20.5766 4.912 20.6126 4.84C20.9726 3.904 21.3326 2.932 21.6926 1.996C21.8366 1.6 21.6206 1.276 21.1526 1.276C20.5046 1.276 19.8566 1.24 19.2086 1.276C19.0286 1.276 18.7766 1.42 18.6686 1.564C17.9846 2.824 17.2646 4.12 16.5806 5.452Z" fill="#2B3990"/>
</svg>
