<svg width="34" height="30" viewBox="0 0 34 30" fill="none" xmlns="http://www.w3.org/2000/svg">
<path d="M27.98 9.636C27.98 9.816 27.908 9.996 27.8 10.104C27.656 10.248 27.404 10.356 27.116 10.356H25.568V11.22C25.568 11.472 25.568 11.724 25.568 11.976C25.568 12.264 25.496 12.48 25.316 12.624C25.208 12.732 25.028 12.804 24.848 12.804C24.416 12.804 24.164 12.48 24.164 11.976C24.164 11.724 24.164 11.508 24.164 11.256V10.392H22.616C22.328 10.392 22.076 10.32 21.932 10.14C21.824 10.032 21.752 9.852 21.752 9.672C21.752 9.24 22.076 8.988 22.616 8.988H24.2V8.484C24.2 8.34 24.2 8.232 24.2 8.088C24.2 7.836 24.2 7.584 24.2 7.332C24.2 6.9 24.488 6.612 24.92 6.612C25.316 6.612 25.604 6.936 25.64 7.332C25.64 7.584 25.64 7.836 25.64 8.088C25.64 8.232 25.64 8.34 25.64 8.484V8.988H27.188C27.548 8.952 27.98 9.132 27.98 9.636Z" fill="#2B3990"/>
<path d="M32.9112 8.7C32.4072 5.352 30.2112 2.508 27.1152 1.068C24.0192 -0.336004 20.4192 -0.120004 17.5752 1.716C17.0712 2.04 16.7112 1.86 16.4232 1.716C11.7793 -1.2 5.73125 0.0599961 2.70725 4.596C0.907249 7.26 0.511249 10.284 1.44725 13.812C1.73525 14.856 2.20325 15.792 2.70725 16.764C2.77925 16.944 2.88725 17.088 2.95925 17.268C4.18325 19.68 5.44325 22.128 6.63125 24.468C7.27925 25.728 7.89125 26.988 8.53925 28.248C9.07925 29.292 9.90725 29.832 11.0592 29.832C12.2112 29.832 13.0752 29.292 13.6152 28.248C14.2272 27.06 14.8392 25.872 15.4152 24.648C15.7032 24.072 16.0272 23.46 16.3152 22.884C16.3512 22.812 16.3872 22.74 16.4592 22.632L16.9992 21.624L17.4312 22.452C17.7192 23.028 18.0432 23.64 18.3312 24.216C19.0152 25.584 19.6992 26.916 20.3832 28.248C20.9233 29.292 21.7512 29.796 22.9032 29.796C24.0553 29.796 24.8832 29.256 25.4232 28.248C25.8552 27.384 26.2872 26.52 26.7552 25.656C27.1872 24.792 27.6192 23.892 28.0872 23.028C28.7712 21.66 29.4912 20.328 30.1752 18.96C30.6432 18.024 31.1112 17.124 31.5792 16.188C32.8392 13.776 33.3072 11.256 32.9112 8.7ZM30.3552 15.684C29.9232 16.548 29.4552 17.412 29.0232 18.276C28.3752 19.5 27.7272 20.76 27.1152 21.984C26.0712 24 25.1712 25.836 24.3072 27.528C23.9832 28.176 22.9032 28.428 22.9032 28.428C22.8672 28.428 22.7952 28.428 22.7592 28.428C22.6872 28.428 22.6152 28.428 22.5792 28.392C22.5432 28.392 22.5072 28.392 22.4712 28.356C22.2912 28.32 22.1472 28.212 22.0033 28.104C21.9312 28.068 21.8952 27.996 21.8592 27.96C21.7152 27.816 21.6072 27.636 21.5352 27.456C21.0312 26.448 20.5273 25.404 20.0232 24.432C19.6272 23.64 19.1952 22.812 18.7992 21.984C18.4032 21.192 17.8272 20.796 17.0352 20.796C16.2432 20.796 15.6672 21.192 15.3072 21.984C14.8752 22.848 14.4432 23.676 14.0112 24.54C13.5072 25.512 13.0032 26.52 12.5352 27.492C12.2472 28.104 11.7792 28.428 11.1672 28.428C11.1672 28.428 10.0872 28.176 9.76325 27.564L9.36725 26.736C7.71125 23.424 5.98325 19.968 4.21925 16.62C4.14725 16.476 4.07525 16.368 4.00325 16.224C3.46325 15.288 2.95925 14.28 2.70725 13.2C1.95125 10.068 2.38325 7.44 4.03925 5.136C6.52325 1.716 11.2392 0.563996 15.0552 2.508C15.1272 2.544 15.1992 2.58 15.2712 2.616L15.7752 2.904L15.4872 3.336C15.3432 3.552 15.1632 3.804 15.0192 4.02C14.6592 4.524 14.2992 5.064 13.9392 5.604C13.5072 6.252 12.8952 6.684 12.1032 7.008C11.7792 7.116 11.6352 7.404 11.6352 7.692C11.6352 7.944 11.8152 8.232 12.1392 8.304C12.2832 8.34 12.4992 8.304 12.6432 8.268C13.7952 7.836 14.6952 7.08 15.3792 5.928C16.4592 4.128 18.0072 2.832 19.9872 2.112C22.3992 1.212 25.0632 1.464 27.3312 2.76C29.5992 4.056 31.1112 6.288 31.5432 8.808C31.9032 11.112 31.5072 13.416 30.3552 15.684Z" fill="#2B3990"/>
</svg>
