<svg width="36" height="36" viewBox="0 0 36 36" fill="none" xmlns="http://www.w3.org/2000/svg">
<g clip-path="url(#clip0_327_1374)">
<mask id="mask0_327_1374" style="mask-type:luminance" maskUnits="userSpaceOnUse" x="0" y="0" width="36" height="36">
<path d="M36 0H0V36H36V0Z" fill="white"/>
</mask>
<g mask="url(#mask0_327_1374)">
<path d="M2.25 29.9998C1.00948 29.9998 0 31.0092 0 32.2498C0 33.4901 1.00948 34.4998 2.25 34.4998C3.49051 34.4998 4.5 33.4901 4.5 32.2498C4.5 31.0092 3.49051 29.9998 2.25 29.9998ZM2.25 32.9998C1.836 32.9998 1.49998 32.6638 1.49998 32.2498C1.49998 31.8358 1.836 31.4995 2.25 31.4995C2.664 31.4995 3.00002 31.8358 3.00002 32.2498C3.00002 32.6638 2.664 32.9998 2.25 32.9998Z" fill="#2B3990"/>
<path d="M18 32.9998C20.481 32.9998 22.5 30.9806 22.5 28.4998C22.5 27.2683 21.9825 26.0878 21.072 25.2312C16.551 13.4788 22.365 1.19826 22.425 1.07521C22.5945 0.724215 22.4685 0.302691 22.1325 0.103214C21.798 -0.0917629 21.366 -0.00330979 21.1395 0.313236C20.8275 0.749736 13.5 11.2077 13.5 28.4998C13.5 30.9806 15.519 32.9998 18 32.9998ZM18.366 9.34475C17.5485 14.0217 17.403 19.9993 19.7385 25.9466C19.7835 26.0592 19.854 26.1598 19.947 26.2392C20.616 26.8152 21 27.6401 21 28.4998C21 30.1543 19.6545 31.4998 17.9999 31.4998C16.3454 31.4998 14.9999 30.1543 14.9999 28.4998C15 20.5483 16.6365 14.0217 18.366 9.34475Z" fill="#2B3990"/>
<path d="M33.75 28.4998C34.164 28.4998 34.5 28.1638 34.5 27.7498C34.5 27.3358 34.164 26.9998 33.75 26.9998H24.6749C24.462 26.9998 24.258 27.0898 24.1154 27.2486C23.973 27.4075 23.904 27.6206 23.928 27.8321L23.9595 28.0706C23.979 28.2115 24 28.3526 24 28.4995C24 31.8086 21.309 34.4995 18 34.4995C14.691 34.4995 12 31.8086 12 28.4995C12 28.3572 12.021 28.2206 12.039 28.0841L12.0691 27.8486C12.0766 27.7901 12.0721 27.7152 12.0646 27.6566C12.0181 27.2818 11.6986 26.9998 11.3206 26.9998H0.750024C0.336024 26.9998 0 27.3358 0 27.7498C0 28.1638 0.336024 28.4998 0.750024 28.4998H10.5C10.5 32.6352 13.8646 35.9998 18.0001 35.9998C22.1356 35.9998 25.5 32.6352 25.5 28.4998H33.75Z" fill="#2B3990"/>
<path d="M33.75 31.4998C32.5094 31.4998 31.5 32.5092 31.5 33.7498C31.5 34.9901 32.5094 35.9998 33.75 35.9998C34.9906 35.9998 36 34.9901 36 33.7498C36 32.5092 34.9906 31.4998 33.75 31.4998ZM33.75 34.4998C33.336 34.4998 33 34.1638 33 33.7498C33 33.3358 33.336 32.9995 33.75 32.9995C34.164 32.9995 34.5 33.3358 34.5 33.7498C34.5 34.1638 34.164 34.4998 33.75 34.4998Z" fill="#2B3990"/>
<path d="M8.25 31.4998C7.00949 31.4998 6 32.5092 6 33.7498C6 34.9901 7.00949 35.9998 8.25 35.9998C9.49051 35.9998 10.5 34.9901 10.5 33.7498C10.5 32.5092 9.49051 31.4998 8.25 31.4998ZM8.25 34.4998C7.836 34.4998 7.49998 34.1638 7.49998 33.7498C7.49998 33.3358 7.836 32.9995 8.25 32.9995C8.664 32.9995 9.00002 33.3358 9.00002 33.7498C9.00002 34.1638 8.664 34.4998 8.25 34.4998Z" fill="#2B3990"/>
<path d="M27.75 29.9998C26.5094 29.9998 25.5 31.0092 25.5 32.2498C25.5 33.4901 26.5094 34.4998 27.75 34.4998C28.9906 34.4998 30 33.4901 30 32.2498C30 31.0092 28.9906 29.9998 27.75 29.9998ZM27.75 32.9998C27.336 32.9998 27 32.6638 27 32.2498C27 31.8358 27.336 31.4995 27.75 31.4995C28.164 31.4995 28.5 31.8358 28.5 32.2498C28.5 32.6638 28.164 32.9998 27.75 32.9998Z" fill="#2B3990"/>
</g>
</g>
<defs>
<clipPath id="clip0_327_1374">
<rect width="36" height="36" fill="white"/>
</clipPath>
</defs>
</svg>
