<svg width="37" height="36" viewBox="0 0 37 36" fill="none" xmlns="http://www.w3.org/2000/svg">
<path d="M8.43154 13.4613C8.40342 13.0711 8.44561 12.7687 8.44561 12.5086C8.41748 5.30859 14.5417 3.49452 19.8784 3.30468C27.0117 3.05155 31.5045 8.23008 31.5045 14.3051C31.5045 16.8891 30.5625 19.2656 28.9874 21.143C26.9589 23.5617 27.1452 25.3934 28.3932 28.589" stroke="#2B3990" stroke-width="1.5" stroke-miterlimit="10"/>
<path d="M7.62974 21.9656C7.66137 21.7969 7.69301 21.6352 7.71763 21.5016C7.73169 21.4242 7.69653 21.3469 7.62974 21.3082C7.53129 21.252 7.42584 21.2098 7.31685 21.1816L6.16723 20.8793C6.03715 20.8477 5.9141 20.7844 5.81215 20.7C5.7102 20.6156 5.62934 20.5066 5.57309 20.3836C5.42894 20.0637 5.4852 19.6875 5.71723 19.4238L8.54381 15.4723C8.56841 15.4477 8.57894 15.1664 8.57894 14.8641" stroke="#2B3990" stroke-width="1.5" stroke-miterlimit="10"/>
<path d="M7.56244 23.1258C7.58354 23.2523 7.62573 23.3508 7.70309 23.3895C7.93862 23.5125 8.40972 23.6531 8.72964 23.741C8.82105 23.7656 8.82456 23.8957 8.73316 23.9238L7.78744 24.2227C7.78744 24.2227 7.04918 24.4793 7.62223 25.3053C7.95621 25.7906 7.60464 26.3215 7.47105 26.9825C7.31285 27.7699 7.42536 29.0215 9.25699 29.1902C11.0921 29.3553 13.9187 28.0898 14.9207 31.3382C15.1527 32.087 15.3425 32.6988 15.4972 33.1946" stroke="#2B3990" stroke-width="1.5" stroke-miterlimit="10"/>
<path d="M20.8274 15.3773C20.757 15.1804 20.7148 14.9695 20.7148 14.748C20.7148 13.7003 21.4039 12.716 22.9191 12.7968C23.9985 12.8531 24.8247 13.63 24.895 14.7902C24.9862 18.0562 22.3461 19.5996 21.6887 19.5996C21.0313 19.5996 20.7043 19.0933 20.8449 18.4253" stroke="#2B3990" stroke-width="1.5" stroke-miterlimit="10"/>
<path d="M22.0369 16.0278C22.0369 16.0278 22.4237 15.9153 22.6522 16.3477C22.7858 16.6043 22.6452 16.9137 22.4553 17.0543C22.2655 17.195 22.0053 17.2336 21.8963 17.2336C21.8963 17.2336 21.6854 17.2512 21.7311 17.1036" stroke="#2B3990" stroke-width="1.5" stroke-miterlimit="10"/>
<path d="M8.66309 19.6769C9.26073 18.8261 9.75996 17.8277 10.7373 17.346C11.7041 16.8714 13.4654 16.0875 14.39 16.7871C15.3146 17.4867 15.5713 18.2355 16.415 18.5449C17.2588 18.8543 18.4646 18.5554 18.4822 21.396C18.4998 23.7621 20.6549 28.3464 21.8256 31.1028" stroke="#2B3990" stroke-width="1.5" stroke-miterlimit="10"/>
<path d="M9.99219 21.3398C10.5441 21.0621 11.3773 20.7914 12.65 20.5945C15.5715 20.141 16.257 21.9129 16.4187 22.4051C16.4187 22.4086 16.7738 22.4156 16.7738 22.4191" stroke="#2B3990" stroke-width="1.5" stroke-miterlimit="10"/>
<path d="M10.8428 23.9168C11.8307 23.3121 13.6904 22.8692 15.0404 23.6461C16.7842 24.648 18.3592 30.3646 18.8197 32.1751" stroke="#2B3990" stroke-width="1.5" stroke-miterlimit="10"/>
</svg>
