<svg width="34" height="28" viewBox="0 0 34 28" fill="none" xmlns="http://www.w3.org/2000/svg">
<path d="M20.888 12.92C20.996 12.92 21.104 12.92 21.248 12.92C21.248 12.488 21.248 12.092 21.248 11.66C21.248 11.408 21.248 11.156 21.248 10.904C21.248 10.184 21.644 9.752 22.328 9.68C22.508 9.644 22.616 9.572 22.616 9.392C22.616 8.78 22.616 8.204 22.616 7.592C21.932 7.376 21.464 6.944 21.284 6.224C21.212 5.972 21.248 5.684 21.248 5.432C21.248 4.928 21.248 4.424 21.248 3.92C21.248 3.272 21.608 2.876 22.292 2.876C22.4 2.876 22.472 2.876 22.616 2.876C22.616 2.66 22.616 2.48 22.652 2.3C22.724 1.544 23.336 0.895996 24.092 0.895996C27.044 0.895996 29.996 0.895996 32.984 0.895996C33.308 0.895996 33.524 1.112 33.524 1.4C33.524 1.688 33.308 1.868 33.02 1.868C32.552 1.868 32.084 1.868 31.616 1.868C31.616 1.976 31.58 2.084 31.58 2.156C31.58 2.948 31.58 3.74 31.58 4.532C31.58 4.712 31.652 4.82 31.832 4.892C32.408 5.18 32.696 5.648 32.732 6.26C32.732 9.824 32.732 13.388 32.732 16.916C32.732 17.528 32.336 17.888 31.724 17.888C31.328 17.888 30.932 17.888 30.5 17.888C30.5 18.392 30.5 18.86 30.5 19.328C30.5 20.048 30.14 20.408 29.42 20.444C28.844 20.444 28.304 20.444 27.692 20.444C27.728 20.552 27.728 20.66 27.764 20.732C28.088 21.632 28.412 22.532 28.736 23.432C28.808 23.612 28.844 23.684 29.06 23.684C29.996 23.72 30.824 24.44 30.896 25.376C31.004 26.348 30.392 27.212 29.492 27.464C28.556 27.716 27.62 27.248 27.224 26.348C27.116 26.312 27.08 26.24 27.08 26.132C21.536 26.132 15.992 26.132 10.412 26.132C10.16 26.852 9.72803 27.32 9.00803 27.5C8.25203 27.68 7.60403 27.464 7.10003 26.888C6.59603 26.312 6.48803 25.628 6.81203 24.908C7.13603 24.188 7.67603 23.792 8.46803 23.756C8.68403 23.756 8.79203 23.684 8.86403 23.468C9.18803 22.496 9.54803 21.524 9.90803 20.552C9.80003 20.552 9.69203 20.516 9.58403 20.516C8.97203 20.516 8.39603 20.516 7.78403 20.516C7.20803 20.516 6.81203 20.12 6.81203 19.544C6.81203 19.04 6.81203 18.536 6.81203 17.996C6.48803 17.996 6.16403 17.996 5.84003 17.996C5.22803 17.996 4.83203 17.6 4.83203 16.988C4.83203 14.612 4.83203 12.272 4.83203 9.896C4.83203 9.248 5.22803 8.888 5.87603 8.888C6.16403 8.888 6.45203 8.888 6.70403 8.888C7.38803 8.888 7.78403 9.284 7.78403 9.932C7.78403 10.832 7.78403 11.696 7.78403 12.596C7.78403 12.704 7.78403 12.812 7.78403 12.92C7.96403 12.92 8.14403 12.92 8.36003 12.92C8.36003 12.776 8.36003 12.668 8.36003 12.524C8.36003 11.84 8.75603 11.444 9.40403 11.444C10.016 11.444 10.592 11.444 11.204 11.444C13.976 11.444 16.784 11.444 19.556 11.444C20.564 11.444 20.888 11.732 20.888 12.74C20.888 12.812 20.888 12.848 20.888 12.92ZM18.728 25.16C21.428 25.16 24.092 25.16 26.792 25.16C27.008 25.16 27.08 25.124 27.188 24.908C27.296 24.656 27.512 24.404 27.692 24.188C27.8 24.08 27.836 23.972 27.764 23.828C27.368 22.784 27.008 21.74 26.648 20.696C26.576 20.516 26.504 20.48 26.324 20.48C21.284 20.48 16.208 20.48 11.168 20.48C10.988 20.48 10.916 20.516 10.844 20.696C10.484 21.74 10.088 22.82 9.69203 23.864C9.65603 23.936 9.72803 24.08 9.76403 24.152C9.94403 24.404 10.16 24.62 10.304 24.908C10.412 25.088 10.484 25.16 10.664 25.16C13.364 25.16 16.028 25.16 18.728 25.16ZM29.456 10.184C29.456 10.112 29.456 10.004 29.456 9.896C29.456 8.744 29.456 7.592 29.456 6.44C29.456 5.72 29.744 5.216 30.392 4.892C30.464 4.856 30.536 4.712 30.536 4.604C30.536 3.848 30.536 3.092 30.536 2.336C30.536 2.192 30.536 2.084 30.536 1.94C30.392 1.94 30.284 1.94 30.176 1.94C28.232 1.94 26.324 1.94 24.38 1.94C23.66 1.94 23.444 2.192 23.588 2.948C23.66 2.948 23.732 2.948 23.804 2.948C24.596 2.876 24.956 3.488 24.956 4.1C24.92 4.676 24.956 5.252 24.956 5.828C24.956 6.656 24.524 7.268 23.768 7.55599C23.588 7.628 23.552 7.7 23.588 7.88C23.588 8.42 23.588 8.996 23.588 9.536C23.588 10.076 23.228 10.508 22.724 10.652C22.22 10.796 22.22 10.796 22.22 11.336C22.22 11.408 22.22 11.48 22.22 11.588C22.22 12.056 22.22 12.488 22.22 12.956C22.472 12.956 22.688 12.956 22.94 12.956C22.94 12.884 22.94 12.848 22.976 12.812C23.192 11.444 24.272 10.256 25.604 10.112C26.828 9.932 28.124 9.896 29.456 10.184ZM7.78403 16.988C15.02 16.988 22.22 16.988 29.42 16.988C29.42 15.944 29.42 14.936 29.42 13.928C26.576 13.928 23.732 13.928 20.888 13.928C20.888 14.252 20.888 14.54 20.888 14.828C20.888 15.548 20.492 15.944 19.772 15.944C16.316 15.944 12.86 15.944 9.44003 15.944C8.72003 15.944 8.32403 15.584 8.32403 14.828C8.32403 14.54 8.32403 14.216 8.32403 13.892C8.10803 13.892 7.96403 13.892 7.78403 13.892C7.78403 14.936 7.78403 15.98 7.78403 16.988ZM29.42 17.996C22.184 17.996 14.984 17.996 7.78403 17.996C7.78403 18.536 7.78403 19.004 7.78403 19.508C15.02 19.508 22.22 19.508 29.42 19.508C29.42 19.004 29.42 18.5 29.42 17.996ZM19.88 14.972C19.88 14.108 19.88 13.316 19.88 12.488C16.352 12.488 12.824 12.488 9.33203 12.488C9.33203 13.316 9.33203 14.144 9.33203 14.972C12.86 14.972 16.352 14.972 19.88 14.972ZM31.688 17.024C31.688 16.34 31.688 15.692 31.688 15.044C31.688 12.2 31.688 9.32 31.688 6.476C31.688 5.936 31.292 5.612 30.824 5.792C30.536 5.9 30.428 6.08 30.428 6.476C30.428 9.896 30.428 13.316 30.428 16.736C30.428 16.844 30.428 16.916 30.428 17.024C30.86 17.024 31.256 17.024 31.688 17.024ZM29.456 12.92C29.456 12.56 29.456 12.236 29.456 11.948C29.456 11.372 29.096 10.976 28.484 10.976C27.692 10.976 26.936 10.94 26.144 10.976C24.956 11.012 24.056 11.84 23.912 12.92C25.748 12.92 27.584 12.92 29.456 12.92ZM6.77603 9.824C6.41603 9.824 6.12803 9.824 5.80403 9.824C5.80403 12.236 5.80403 14.612 5.80403 16.988C6.12803 16.988 6.45203 16.988 6.77603 16.988C6.77603 14.612 6.77603 12.236 6.77603 9.824ZM22.22 3.884C22.22 4.604 22.22 5.288 22.22 5.972C22.22 6.404 22.652 6.692 23.12 6.692C23.588 6.692 23.948 6.404 23.984 5.936C24.02 5.576 23.984 5.216 23.984 4.856C23.984 4.532 23.984 4.208 23.984 3.884C23.372 3.884 22.832 3.884 22.22 3.884ZM28.952 26.6C29.456 26.6 29.888 26.168 29.888 25.664C29.888 25.16 29.456 24.728 28.916 24.728C28.412 24.728 27.98 25.16 27.98 25.664C27.98 26.132 28.412 26.6 28.952 26.6ZM9.47603 25.664C9.47603 25.16 9.04403 24.728 8.54003 24.728C8.03603 24.728 7.60403 25.16 7.60403 25.7C7.60403 26.204 8.03603 26.636 8.54003 26.636C9.04403 26.636 9.47603 26.168 9.47603 25.664Z" fill="#2B3990" stroke="#2B3990" stroke-width="0.1621" stroke-miterlimit="10"/>
<path d="M13.4005 2.73199C13.4005 2.29999 13.4005 1.93999 13.4005 1.57999C13.4005 0.895989 13.8685 0.463989 14.5525 0.463989C15.0925 0.463989 15.6685 0.463989 16.2085 0.463989C16.8565 0.463989 17.2885 0.931989 17.2885 1.54399C17.2885 1.90399 17.2885 2.29999 17.2885 2.73199C17.6845 2.73199 18.0445 2.73199 18.4045 2.73199C19.1245 2.73199 19.5565 3.16399 19.5565 3.88399C19.5565 4.42399 19.5565 4.96399 19.5565 5.50399C19.5565 6.22399 19.0885 6.61999 18.4045 6.61999C18.0445 6.61999 17.6845 6.61999 17.2525 6.61999C17.2525 7.05199 17.2525 7.44799 17.2525 7.84399C17.2525 8.45599 16.8205 8.88799 16.2085 8.88799C15.6325 8.88799 15.0565 8.88799 14.4805 8.88799C13.7965 8.88799 13.3645 8.41999 13.3645 7.77199C13.3645 7.41199 13.3645 7.05199 13.3645 6.61999C12.9685 6.61999 12.6085 6.61999 12.2125 6.61999C11.5285 6.61999 11.0605 6.18799 11.0605 5.46799C11.0605 4.92799 11.0605 4.38799 11.0605 3.84799C11.0605 3.16399 11.5285 2.73199 12.1765 2.73199C12.6085 2.69599 12.9685 2.73199 13.4005 2.73199ZM12.1765 5.53999C12.5365 5.53999 12.8965 5.57599 13.2925 5.57599C14.0485 5.61199 14.4445 6.00799 14.4445 6.76399C14.4445 7.05199 14.4445 7.33999 14.4445 7.62799C14.4445 7.69999 14.5525 7.84399 14.5885 7.84399C15.1285 7.84399 15.6325 7.84399 16.2445 7.84399C16.2445 7.44799 16.2445 7.08799 16.2445 6.72799C16.2445 6.00799 16.6765 5.61199 17.3965 5.57599C17.7565 5.57599 18.1165 5.57599 18.5125 5.57599C18.5125 4.96399 18.5125 4.38799 18.5125 3.77599C18.1165 3.77599 17.7205 3.77599 17.3605 3.77599C16.6765 3.73999 16.2445 3.30799 16.2445 2.62399C16.2445 2.26399 16.2445 1.90399 16.2445 1.50799C15.6325 1.50799 15.0565 1.50799 14.4445 1.50799C14.4445 1.86799 14.4445 2.22799 14.4445 2.58799C14.4085 3.37999 14.0125 3.77599 13.2205 3.77599C12.8965 3.77599 12.5725 3.77599 12.1765 3.77599C12.1765 4.38799 12.1765 4.92799 12.1765 5.53999Z" fill="#2B3990"/>
<path d="M5.84052 2.40799H11.0965C11.4565 2.40799 11.7085 2.11999 11.7085 1.79599C11.7085 1.43599 11.4205 1.18399 11.0965 1.18399H5.84052C5.48052 1.18399 5.22852 1.47199 5.22852 1.79599C5.22852 2.11999 5.48052 2.40799 5.84052 2.40799Z" fill="#2B3990"/>
<path d="M3.96773 5.10798H9.40373C9.69173 5.10798 9.94373 4.85598 9.94373 4.56798C9.94373 4.27998 9.69173 4.02798 9.40373 4.02798H3.96773C3.67973 4.02798 3.42773 4.27998 3.42773 4.56798C3.42773 4.85598 3.67973 5.10798 3.96773 5.10798Z" fill="#2B3990"/>
<path d="M5.08297 7.7H10.519C10.807 7.7 11.059 7.448 11.059 7.16C11.059 6.872 10.807 6.62 10.519 6.62H5.08297C4.79497 6.62 4.54297 6.872 4.54297 7.16C4.54297 7.448 4.79497 7.7 5.08297 7.7Z" fill="#2B3990"/>
<path d="M2.24002 3.30798H5.12002C5.30002 3.30798 5.44402 3.16398 5.44402 2.98398V2.91198C5.44402 2.73198 5.30002 2.58798 5.12002 2.58798H2.24002C2.06002 2.58798 1.91602 2.73198 1.91602 2.91198V2.98398C1.91602 3.16398 2.06002 3.30798 2.24002 3.30798Z" fill="#2B3990"/>
<path d="M0.835719 6.224H3.71572C3.89572 6.224 4.03972 6.08 4.03972 5.9V5.828C4.03972 5.648 3.89572 5.504 3.71572 5.504H0.835719C0.655719 5.504 0.511719 5.648 0.511719 5.828V5.9C0.511719 6.08 0.655719 6.224 0.835719 6.224Z" fill="#2B3990"/>
</svg>
