<svg width="31" height="32" viewBox="0 0 31 32" fill="none" xmlns="http://www.w3.org/2000/svg">
<path d="M28.8569 9.55601C27.9929 7.86401 26.9849 6.60401 25.7249 5.66801C23.8529 4.26401 21.8009 4.15601 19.8569 5.38001C19.5689 5.56001 19.2809 5.77601 18.9929 6.02801C18.8489 6.13601 18.7049 6.24401 18.5609 6.35201L18.3449 6.53201L18.2729 6.28001C18.2729 6.24401 18.2369 6.20801 18.2369 6.17201C18.2009 6.10001 18.1649 6.02801 18.1649 5.92001C17.8049 4.62401 17.7329 3.22001 17.8769 1.45601C17.9129 1.20401 17.8769 1.02401 17.7689 0.880012C17.6609 0.772012 17.4809 0.700012 17.2289 0.700012C16.1129 0.700012 14.9969 0.700012 13.9169 0.700012C13.5209 0.700012 13.3769 0.808012 13.2689 1.20401C12.7289 3.29201 12.8009 5.12801 13.4489 6.82001C13.9889 8.18801 14.6369 9.48401 15.2489 10.6C16.2209 12.4 16.6169 14.128 16.4369 15.856V16.072C16.3289 17.188 16.2209 18.34 15.8249 19.456C15.2129 21.112 14.2049 21.832 12.4769 21.796C11.6849 21.796 10.8929 21.688 10.1369 21.58L9.81286 21.544C9.63286 21.508 9.48886 21.508 9.30886 21.472C8.22886 21.328 7.07686 21.148 5.96086 21.292C4.44886 21.436 3.26086 22.048 2.32486 23.128C1.42486 24.208 0.812859 25.54 0.380859 27.448C0.380859 27.52 0.380859 27.628 0.452859 27.772C0.704859 28.528 1.24486 29.032 2.10886 29.356C2.79286 29.644 3.58486 29.752 4.52086 29.716C5.02486 29.716 5.16886 29.536 5.20486 29.068C5.20486 28.96 5.20486 28.852 5.20486 28.708C5.20486 28.528 5.20486 28.348 5.24086 28.168C5.31286 27.412 5.74486 26.836 6.42886 26.512C7.00486 26.224 7.43686 26.548 7.83286 26.8C7.86886 26.836 7.94086 26.872 7.97686 26.908C8.04886 26.944 8.08486 26.98 8.15686 27.016L8.87686 27.628C9.20086 27.88 9.52486 28.168 9.81286 28.42C11.3969 29.752 12.8369 30.544 14.3129 30.94C14.6729 31.048 15.0689 31.12 15.4649 31.156C15.6449 31.192 15.8249 31.228 16.0049 31.228H17.4809C17.5889 31.228 17.6969 31.192 17.7689 31.192C17.9849 31.156 18.2369 31.12 18.4529 31.084C20.7929 30.688 22.9529 29.716 24.9329 28.168C28.6409 25.288 30.5129 21.796 30.6209 17.548C30.6929 14.704 30.0809 12.04 28.8569 9.55601ZM29.5409 17.764C29.3609 21.724 27.5249 24.928 23.8889 27.628C22.2689 28.816 20.4689 29.644 18.5969 30.004C17.9489 30.148 17.3009 30.184 16.6889 30.184C14.7089 30.184 12.8729 29.536 11.2169 28.204C10.7849 27.88 10.3889 27.52 9.95686 27.16C9.59686 26.872 9.23686 26.548 8.87686 26.26C8.55286 26.008 8.22886 25.792 7.90486 25.612C6.96886 25.108 6.06886 25.216 5.24086 25.936C4.59286 26.512 4.23286 27.268 4.12486 28.168C4.12486 28.204 4.12486 28.24 4.08886 28.312L4.05286 28.6H3.87286C3.04486 28.528 2.25286 28.42 1.67686 27.772C1.56886 27.628 1.46086 27.376 1.49686 27.196C1.82086 25.828 2.28886 24.82 2.90086 23.956C3.83686 22.732 5.13286 22.156 6.75286 22.264C7.72486 22.336 8.66086 22.444 9.59686 22.552C9.92086 22.588 10.2089 22.624 10.5329 22.66C11.6129 22.768 12.5489 22.876 13.5209 22.696C14.8169 22.48 15.7169 21.796 16.3649 20.608C16.8329 19.744 17.1209 18.736 17.2289 17.692C17.3369 16.684 17.4449 15.496 17.4449 14.308C17.4449 13.192 17.1209 12.04 16.4369 10.672C16.2209 10.276 16.0409 9.88001 15.8249 9.48401C15.4649 8.76401 15.0689 8.04401 14.7089 7.28801C13.9169 5.59601 13.7009 3.79601 14.0969 1.96001C14.0969 1.92401 14.0969 1.92401 14.1329 1.88801L14.2049 1.70801H14.7809C15.2849 1.70801 15.7529 1.70801 16.2209 1.70801C16.2929 1.70801 16.3289 1.70801 16.4009 1.70801H16.6889V1.99601C16.6889 2.06801 16.6889 2.14001 16.6889 2.21201C16.6529 3.61601 16.6889 5.12801 17.2649 6.60401C17.4089 6.92801 17.5889 7.28801 17.8049 7.61201C17.8769 7.72001 18.0209 7.86401 18.2009 7.90001C18.3809 7.90001 18.5609 7.82801 18.7049 7.64801C18.7769 7.57601 18.8489 7.50401 18.9209 7.43201C19.3169 7.03601 19.7129 6.64001 20.1449 6.28001C21.5849 5.23601 23.2049 5.16401 24.7169 6.17201C25.7969 6.89201 26.7329 7.90001 27.5249 9.34001C29.0369 11.968 29.6849 14.776 29.5409 17.764Z" fill="#2B3990"/>
<path d="M13.8809 11.284C13.8809 10.888 13.6649 10.672 13.2689 10.672C12.6569 10.672 12.0809 10.672 11.4689 10.672H10.1729V10.096C10.1729 9.84401 10.1729 9.59201 10.1729 9.34001C10.1729 8.76401 10.1729 8.15201 10.1729 7.54001C10.1729 7.10801 9.99294 6.92801 9.59694 6.92801C8.30094 6.92801 7.04094 6.92801 5.78094 6.92801C5.45694 6.92801 5.27694 7.10801 5.24094 7.46801C5.24094 7.57601 5.24094 7.64801 5.24094 7.75601V10.708H3.90894C3.29694 10.708 2.72094 10.708 2.10894 10.708C1.64094 10.708 1.46094 10.888 1.46094 11.356C1.46094 12.58 1.46094 13.804 1.46094 14.992C1.46094 15.46 1.64094 15.64 2.10894 15.64C2.61294 15.64 3.08094 15.64 3.58494 15.64H4.66494C4.73694 15.64 4.80894 15.64 4.88094 15.64H5.16894V16.684C5.16894 17.332 5.16894 17.98 5.16894 18.628C5.16894 19.132 5.34894 19.312 5.85294 19.312C7.04094 19.312 8.19294 19.312 9.38094 19.312C9.88494 19.312 10.0649 19.132 10.0649 18.592C10.0649 18.124 10.0649 17.656 10.0649 17.152C10.0649 16.828 10.0649 16.468 10.0649 16.144C10.0649 16.072 10.0649 16 10.0649 15.928C10.0649 15.892 10.0649 15.856 10.0649 15.82V15.64H11.1089C11.7929 15.64 12.4409 15.64 13.1249 15.64C13.5209 15.64 13.7369 15.424 13.7369 15.028C13.8809 13.732 13.8809 12.508 13.8809 11.284ZM12.8009 14.524H9.84894C9.30894 14.524 9.12894 14.704 9.12894 15.244C9.12894 15.82 9.12894 16.396 9.12894 16.936V18.196H6.32094V16.828C6.32094 16.648 6.32094 16.504 6.32094 16.324C6.32094 15.964 6.32094 15.568 6.32094 15.172C6.32094 14.74 6.10494 14.56 5.67294 14.56C5.06094 14.56 4.48494 14.56 3.87294 14.56H2.57694V11.752H3.83694C4.44894 11.752 5.02494 11.752 5.60094 11.752C6.10494 11.752 6.28494 11.572 6.28494 11.068C6.28494 10.42 6.28494 9.77201 6.28494 9.08801V8.04401H9.09294V10.96C9.09294 11.572 9.23694 11.716 9.84894 11.716H12.8009V14.524Z" fill="#2B3990"/>
</svg>
