<svg width="46" height="46" viewBox="0 0 46 46" fill="none" xmlns="http://www.w3.org/2000/svg">
<path d="M23.0002 35.1159C23.1562 35.0119 23.2602 34.8559 23.3642 34.7519C25.4442 32.6719 27.4722 30.6439 29.5522 28.5639C29.8642 28.2519 30.1762 28.0959 30.6442 28.0959C37.4562 27.9919 43.2282 32.7759 44.6322 39.1199C44.9962 40.8359 44.9442 42.5519 44.9442 44.2679C44.9442 44.6839 44.5802 44.9439 44.1642 44.9439C43.7482 44.9439 43.4882 44.6319 43.4882 44.2159C43.4362 43.1759 43.5402 42.1359 43.3842 41.0959C42.8642 36.1559 40.2642 32.6199 35.7402 30.5399C35.4282 30.3839 35.1162 30.2799 34.7522 30.1239C34.7522 30.2799 34.7002 30.4359 34.7002 30.5399C34.7002 32.5679 34.7002 34.5439 34.7002 36.5719C34.7002 36.8319 34.7522 36.9879 35.0122 37.0919C36.3642 37.6119 37.0922 38.9639 36.8842 40.3159C36.6242 41.7199 35.4282 42.7599 34.0242 42.7599C32.5682 42.7599 31.3722 41.8239 31.1122 40.3679C30.8522 39.0159 31.5802 37.6119 32.8802 37.0919C33.1922 36.9879 33.2442 36.8319 33.2442 36.5199C33.2442 34.2839 33.2442 32.0479 33.2442 29.7079C32.4122 29.6559 31.5802 29.6039 30.7482 29.5519C30.6442 29.5519 30.4882 29.6559 30.4362 29.7599C28.2522 31.8919 26.1202 34.0759 23.9882 36.2599C23.8322 36.4159 23.7802 36.6759 23.7802 36.8319C23.7802 39.2239 23.7802 41.6679 23.7802 44.0599C23.7802 44.6319 23.4682 44.9439 23.0002 44.8919C22.5842 44.8919 22.3242 44.5799 22.3242 44.0599C22.3242 41.6679 22.3242 39.3279 22.3242 36.9359C22.3242 36.6239 22.2202 36.3639 22.0122 36.1559C19.8802 34.0759 17.8002 31.9439 15.6682 29.8639C15.5122 29.7079 15.2522 29.6039 14.9922 29.6039C14.2642 29.6039 13.5362 29.7079 12.8082 29.7599C12.8082 31.3199 12.8082 32.8279 12.8082 34.3359C13.0162 34.3879 13.2762 34.4399 13.4842 34.4919C15.2002 34.9599 16.3962 36.5199 16.4482 38.3399C16.4482 39.5359 16.4482 40.7319 16.4482 41.9279C16.4482 42.4999 16.1882 42.7599 15.6162 42.7599C15.1482 42.7599 14.7322 42.7599 14.2642 42.7599C13.7962 42.7599 13.4842 42.4479 13.4842 42.0319C13.4842 41.6159 13.7962 41.3039 14.2642 41.3039C14.4722 41.3039 14.6802 41.3039 14.9922 41.3039C14.9402 40.0559 14.9922 38.8599 14.7842 37.6639C14.6282 36.7279 13.9002 36.0519 12.9122 35.8959C12.2882 35.7919 11.5602 35.7919 10.9362 35.9479C9.84418 36.2079 9.22018 37.0399 9.11618 38.1319C9.01218 39.1719 9.11618 40.2119 9.11618 41.3039C9.37618 41.3039 9.63618 41.3039 9.84418 41.3039C10.2602 41.3039 10.5722 41.6159 10.5202 42.0319C10.5202 42.3959 10.2602 42.7079 9.84418 42.7599C9.32418 42.7599 8.80418 42.7599 8.28418 42.7599C7.92018 42.7599 7.60818 42.4999 7.60818 42.1879C7.60818 40.6799 7.50418 39.1719 7.66018 37.6639C7.86818 35.8959 9.06418 34.8559 10.8322 34.4399C10.9362 34.3879 11.0922 34.3879 11.1962 34.3359C11.1962 32.9839 11.1962 31.6319 11.1962 30.2279C10.9882 30.2799 10.8322 30.3319 10.6762 30.3839C6.15218 32.2039 3.39618 35.4799 2.61618 40.3159C2.40818 41.5639 2.46018 42.9159 2.40818 44.1639C2.40818 44.6839 1.99218 45.0999 1.52418 44.9439C1.42018 44.8399 1.10818 44.5279 1.10818 44.3199C0.900181 41.0959 1.26418 37.9239 3.03218 35.0639C5.42418 31.1119 8.96018 28.7719 13.6402 28.1999C14.2642 28.1479 14.8362 28.1479 15.4602 28.0959C15.8242 28.0439 16.1362 28.1999 16.3962 28.4599C18.4762 30.5399 20.5562 32.6199 22.6362 34.6999C22.7402 34.8559 22.8442 35.0119 23.0002 35.1159ZM35.4282 39.8479C35.4282 39.0679 34.7522 38.3919 33.9722 38.3919C33.1922 38.3919 32.5162 39.0679 32.5162 39.8479C32.5162 40.6279 33.1922 41.3039 33.9722 41.3039C34.7522 41.3039 35.4282 40.6279 35.4282 39.8479Z" fill="#2B3990" stroke="#2B3990" stroke-width="0.5" stroke-miterlimit="10"/>
<path d="M33.4521 12.1834C35.4281 12.9634 35.8441 14.8874 35.1681 16.2394C34.7001 17.2274 33.8681 17.7474 32.8281 17.9034C32.6721 17.9034 32.4641 18.0594 32.4641 18.1634C32.1521 20.1394 31.1641 21.7514 29.8121 23.1554C29.1881 23.7794 28.4081 24.3514 27.7321 24.9234C27.5761 25.0274 27.4721 25.2874 27.4201 25.4434C27.3681 26.2754 27.4201 27.1594 27.4201 27.9914C27.4201 28.5114 27.1601 28.8234 26.6921 28.8234C26.2241 28.8234 25.9641 28.5114 25.9641 27.9394C25.9641 27.2634 25.9641 26.5874 25.9641 25.8594C23.9881 26.8474 22.0641 26.8474 20.0881 25.8594C20.0881 26.6394 20.0881 27.3154 20.0881 27.9914C20.0881 28.5114 19.8281 28.8234 19.3601 28.8234C18.8921 28.8234 18.6321 28.5114 18.6321 27.9914C18.6321 27.1594 18.6321 26.3794 18.6321 25.5474C18.6321 25.1834 18.5281 25.0274 18.2681 24.8194C16.3961 23.5194 14.8361 21.9074 14.0041 19.7234C13.7961 19.1514 13.6401 18.5274 13.4841 17.9034C11.7681 17.6434 10.7801 16.7594 10.5721 15.3554C10.3641 14.0034 11.0921 12.8594 12.5481 12.1314C12.3921 11.3514 12.1841 10.6234 12.0281 9.84343C11.5601 7.76343 12.2881 5.99543 13.6921 4.48743C15.2001 2.87543 17.0721 1.93943 19.2041 1.47143C22.7401 0.639433 26.2241 0.847433 29.5001 2.51143C30.3841 2.97943 31.2161 3.55143 31.9441 4.22743C33.7641 5.89143 34.4401 7.97143 33.7641 10.4154C33.7121 10.9874 33.5561 11.5594 33.4521 12.1834ZM14.9401 13.2234C14.9401 14.4714 14.9401 15.6674 14.9401 16.9154C14.9401 18.0074 15.2001 19.0474 15.7201 20.0354C17.0201 22.3234 18.9441 23.8834 21.3361 24.8714C22.4801 25.3394 23.6241 25.2874 24.7681 24.8194C26.6921 24.0394 28.2521 22.7914 29.5521 21.1794C30.3321 20.1394 30.9041 19.0474 31.0081 17.7474C31.1121 16.2394 31.0601 14.7834 31.0601 13.2754C31.0601 13.1714 30.9561 13.0674 30.8521 13.0154C29.6041 12.2354 28.5641 11.1954 27.6281 10.1034C27.2641 9.68743 26.9001 9.21943 26.4841 8.75143C22.9481 10.9874 19.1001 12.4954 14.9401 13.2234ZM31.9961 11.9754C32.2041 11.0394 32.3601 10.2594 32.5681 9.53143C32.8801 8.17943 32.4641 7.03543 31.6321 5.99543C30.9041 5.05943 29.9681 4.43543 28.9801 3.86343C27.4201 3.03143 25.7561 2.66743 23.9881 2.56343C21.1801 2.40743 18.4761 2.87543 16.1361 4.48743C14.8881 5.37143 13.8481 6.41143 13.5361 7.97143C13.2761 9.32343 13.8481 10.5714 14.1081 11.9234C15.2001 11.6634 16.1881 11.4554 17.1761 11.1954C20.3481 10.3114 23.4161 9.11543 26.1201 7.19143C26.6921 6.77543 27.0041 6.82743 27.4721 7.39943C28.4601 8.54343 29.3961 9.68743 30.4361 10.7274C30.8001 11.1954 31.3721 11.5074 31.9961 11.9754ZM13.4841 16.3954C13.4841 15.4074 13.4841 14.4714 13.4841 13.5354C12.6001 13.6394 12.0281 14.2114 12.0281 14.9914C12.0281 15.7194 12.6001 16.2914 13.4841 16.3954ZM32.5681 16.3954C33.4521 16.2914 34.0241 15.7194 34.0241 14.9394C34.0241 14.1594 33.4001 13.5874 32.5681 13.5354C32.5681 14.4714 32.5681 15.4074 32.5681 16.3954Z" fill="#2B3990" stroke="#2B3990" stroke-width="0.25" stroke-miterlimit="10"/>
<path d="M23.0005 22.2715C22.1165 22.2715 21.2845 22.0115 20.5045 21.4915C20.0885 21.1795 19.9325 20.7635 20.1925 20.3995C20.4525 20.0355 20.8685 19.9835 21.2845 20.2435C22.4285 20.9715 23.5725 20.9715 24.7165 20.2435C25.1845 19.9315 25.6005 19.9835 25.8605 20.3995C26.1205 20.7635 25.9645 21.1795 25.5485 21.4915C24.7685 22.0115 23.9365 22.2715 23.0005 22.2715Z" fill="#2B3990" stroke="#2B3990" stroke-width="0.25" stroke-miterlimit="10"/>
<path d="M20.0878 14.9404C20.0878 15.7724 19.4638 16.4484 18.6318 16.3964C17.7998 16.3964 17.1758 15.7724 17.1758 14.9404C17.1758 14.1084 17.7998 13.4844 18.6318 13.4844C19.4118 13.4844 20.0878 14.1604 20.0878 14.9404Z" fill="#2B3990" stroke="#2B3990" stroke-width="0.25" stroke-miterlimit="10"/>
<path d="M25.964 14.8884C25.964 14.0564 26.692 13.4844 27.524 13.4844C28.304 13.5364 28.928 14.2124 28.876 14.9924C28.876 15.7724 28.2 16.3964 27.368 16.3964C26.536 16.3964 25.912 15.7204 25.964 14.8884Z" fill="#2B3990" stroke="#2B3990" stroke-width="0.25" stroke-miterlimit="10"/>
</svg>
