<svg width="24" height="24" viewBox="0 0 24 24" fill="none" xmlns="http://www.w3.org/2000/svg">
<path d="M16 6.25C16 6.38261 16.0527 6.50979 16.1464 6.60356C16.2402 6.69733 16.3674 6.75 16.5 6.75C16.6326 6.75 16.7598 6.69733 16.8536 6.60356C16.9473 6.50979 17 6.38261 17 6.25V5.5C17 5.36739 16.9473 5.24022 16.8536 5.14645C16.7598 5.05268 16.6326 5 16.5 5C16.3674 5 16.2402 5.05268 16.1464 5.14645C16.0527 5.24022 16 5.36739 16 5.5V6.25ZM8 12V13.5H9V12H10.5V11H9V9.50001H8V11H6.5V12H8Z" fill="#EA4335"/>
<path fill-rule="evenodd" clip-rule="evenodd" d="M2 8.5C2 8.10218 2.15804 7.72065 2.43934 7.43934C2.72064 7.15804 3.10218 7 3.5 7H13.5C13.8978 7 14.2794 7.15804 14.5607 7.43934C14.842 7.72065 15 8.10218 15 8.5V9.50001H15.5V9.00001H16V8.5C16 8.3674 16.0527 8.24022 16.1464 8.14645C16.2402 8.05268 16.3674 8 16.5 8C16.6326 8 16.7598 8.05268 16.8536 8.14645C16.9473 8.24022 17 8.3674 17 8.5V9.00001H17.5V9.50001H17.859C18.2361 9.50004 18.5994 9.64214 18.8765 9.89801L21.5175 12.3355C21.6697 12.476 21.7911 12.6465 21.8742 12.8363C21.9572 13.026 22.0001 13.2309 22 13.438V17.5H19.437C19.3258 17.9291 19.0752 18.3092 18.7246 18.5805C18.374 18.8518 17.9433 18.999 17.5 18.999C17.0567 18.999 16.626 18.8518 16.2754 18.5805C15.9248 18.3092 15.6742 17.9291 15.563 17.5H7.937C7.82578 17.9291 7.57521 18.3092 7.22463 18.5805C6.87405 18.8518 6.4433 18.999 6 18.999C5.5567 18.999 5.12595 18.8518 4.77537 18.5805C4.42479 18.3092 4.17422 17.9291 4.063 17.5H2V8.5ZM15.563 16.5C15.6742 16.0709 15.9248 15.6909 16.2754 15.4196C16.626 15.1483 17.0567 15.001 17.5 15.001C17.9433 15.001 18.374 15.1483 18.7246 15.4196C19.0752 15.6909 19.3258 16.0709 19.437 16.5H21V14H15V16.5H15.563ZM15 13H20.763L18.198 10.6325C18.1057 10.5473 17.9846 10.5 17.859 10.5H15V13ZM13.5 8C13.6326 8 13.7598 8.05268 13.8536 8.14645C13.9473 8.24022 14 8.3674 14 8.5V16.5H7.937C7.82578 16.0709 7.57521 15.6909 7.22463 15.4196C6.87405 15.1483 6.4433 15.001 6 15.001C5.5567 15.001 5.12595 15.1483 4.77537 15.4196C4.42479 15.6909 4.17422 16.0709 4.063 16.5H3V8.5C3 8.3674 3.05268 8.24022 3.14645 8.14645C3.24021 8.05268 3.36739 8 3.5 8H13.5ZM6 18C6.26522 18 6.51957 17.8947 6.70711 17.7071C6.89464 17.5196 7 17.2652 7 17C7 16.7348 6.89464 16.4805 6.70711 16.2929C6.51957 16.1054 6.26522 16 6 16C5.73478 16 5.48043 16.1054 5.29289 16.2929C5.10536 16.4805 5 16.7348 5 17C5 17.2652 5.10536 17.5196 5.29289 17.7071C5.48043 17.8947 5.73478 18 6 18ZM18.5 17C18.5 17.2652 18.3946 17.5196 18.2071 17.7071C18.0196 17.8947 17.7652 18 17.5 18C17.2348 18 16.9804 17.8947 16.7929 17.7071C16.6054 17.5196 16.5 17.2652 16.5 17C16.5 16.7348 16.6054 16.4805 16.7929 16.2929C16.9804 16.1054 17.2348 16 17.5 16C17.7652 16 18.0196 16.1054 18.2071 16.2929C18.3946 16.4805 18.5 16.7348 18.5 17Z" fill="#EA4335"/>
<path d="M18.2507 8.50005C18.2507 8.36744 18.3034 8.24026 18.3972 8.14649C18.4909 8.05273 18.6181 8.00005 18.7507 8.00005H19.5007C19.6333 8.00005 19.7605 8.05273 19.8543 8.14649C19.948 8.24026 20.0007 8.36744 20.0007 8.50005C20.0007 8.63266 19.948 8.75984 19.8543 8.8536C19.7605 8.94737 19.6333 9.00005 19.5007 9.00005H18.7507C18.6181 9.00005 18.4909 8.94737 18.3972 8.8536C18.3034 8.75984 18.2507 8.63266 18.2507 8.50005ZM17.9152 6.37954C17.8664 6.42358 17.8267 6.47683 17.7984 6.53622C17.7702 6.59562 17.754 6.66001 17.7506 6.7257C17.7473 6.79138 17.757 6.85708 17.7791 6.91902C17.8012 6.98096 17.8353 7.03793 17.8795 7.08667C17.9237 7.13541 17.977 7.17495 18.0365 7.20304C18.096 7.23112 18.1604 7.2472 18.2261 7.25035C18.2918 7.25349 18.3574 7.24365 18.4193 7.22137C18.4812 7.1991 18.5381 7.16484 18.5867 7.12055L19.0437 6.70654C19.1416 6.61739 19.2001 6.49307 19.2064 6.36084C19.2128 6.22861 19.1664 6.09926 19.0775 6.00116C18.9886 5.90307 18.8644 5.84423 18.7322 5.83755C18.6 5.83087 18.4705 5.8769 18.3722 5.96554L17.9152 6.37954Z" fill="#EA4335"/>
</svg>
