<svg width="16" height="16" viewBox="0 0 16 16" fill="none" xmlns="http://www.w3.org/2000/svg">
<g clip-path="url(#clip0_366_4262)">
<path d="M15.4303 4.47674C15.395 3.6758 15.2654 3.12515 15.0799 2.64802C14.8885 2.14155 14.594 1.6881 14.2082 1.31116C13.8313 0.928341 13.3748 0.630877 12.8742 0.44246C12.3943 0.256919 11.8466 0.127397 11.0456 0.0920835C10.2387 0.0537791 9.98254 0.0449219 7.93596 0.0449219C5.88937 0.0449219 5.63321 0.0537791 4.82927 0.0890928C4.02833 0.124407 3.47769 0.254044 3.00067 0.43947C2.49408 0.630877 2.04064 0.92535 1.66369 1.31116C1.28088 1.6881 0.98353 2.14454 0.794999 2.64514C0.609458 3.12516 0.479936 3.67281 0.444623 4.47375C0.406318 5.28067 0.397461 5.53684 0.397461 7.58343C0.397461 9.63002 0.406318 9.88619 0.441632 10.6901C0.476946 11.4911 0.606582 12.0417 0.792123 12.5188C0.98353 13.0253 1.28088 13.4788 1.66369 13.8557C2.04064 14.2385 2.49707 14.536 2.99768 14.7244C3.47769 14.9099 4.02534 15.0395 4.8264 15.0748C5.63021 15.1102 5.8865 15.1189 7.93308 15.1189C9.97967 15.1189 10.2358 15.1102 11.0398 15.0748C11.8407 15.0395 12.3913 14.9099 12.8684 14.7244C13.8814 14.3327 14.6824 13.5318 15.074 12.5188C15.2595 12.0388 15.3891 11.4911 15.4244 10.6901C15.4597 9.88619 15.4686 9.63002 15.4686 7.58343C15.4686 5.53684 15.4656 5.28067 15.4303 4.47674ZM14.0728 10.6312C14.0404 11.3674 13.9167 11.7649 13.8137 12.03C13.5604 12.6867 13.0392 13.2079 12.3825 13.4612C12.1175 13.5642 11.7171 13.6879 10.9837 13.7202C10.1887 13.7556 9.95022 13.7644 7.93895 13.7644C5.92768 13.7644 5.68623 13.7556 4.89403 13.7202C4.15785 13.6879 3.76031 13.5642 3.49529 13.4612C3.16849 13.3404 2.87103 13.149 2.62959 12.8987C2.37928 12.6542 2.18788 12.3598 2.0671 12.033C1.96403 11.7679 1.84038 11.3674 1.80805 10.6342C1.77262 9.83914 1.76388 9.60057 1.76388 7.5893C1.76388 5.57802 1.77262 5.33658 1.80805 4.54449C1.84038 3.80831 1.96403 3.41077 2.0671 3.14575C2.18788 2.81883 2.37928 2.52149 2.63258 2.27993C2.8769 2.02962 3.17137 1.83822 3.49828 1.71755C3.7633 1.61449 4.16383 1.49083 4.89702 1.45839C5.6921 1.42308 5.93067 1.41422 7.94182 1.41422C9.95609 1.41422 10.1945 1.42308 10.9867 1.45839C11.7229 1.49083 12.1205 1.61449 12.3855 1.71755C12.7123 1.83822 13.0097 2.02962 13.2512 2.27993C13.5015 2.52436 13.6929 2.81883 13.8137 3.14575C13.9167 3.41077 14.0404 3.81119 14.0728 4.54449C14.1081 5.33957 14.117 5.57802 14.117 7.5893C14.117 9.60057 14.1081 9.83615 14.0728 10.6312Z" fill="black"/>
<path d="M7.9358 3.71094C5.79799 3.71094 4.06348 5.44534 4.06348 7.58326C4.06348 9.72118 5.79799 11.4556 7.9358 11.4556C10.0737 11.4556 11.8081 9.72118 11.8081 7.58326C11.8081 5.44534 10.0737 3.71094 7.9358 3.71094ZM7.9358 10.0951C6.5489 10.0951 5.42392 8.97027 5.42392 7.58326C5.42392 6.19624 6.5489 5.07138 7.9358 5.07138C9.32281 5.07138 10.4477 6.19624 10.4477 7.58326C10.4477 8.97027 9.32281 10.0951 7.9358 10.0951Z" fill="black"/>
<path d="M12.8658 3.55831C12.8658 4.05753 12.461 4.46232 11.9616 4.46232C11.4624 4.46232 11.0576 4.05753 11.0576 3.55831C11.0576 3.05897 11.4624 2.6543 11.9616 2.6543C12.461 2.6543 12.8658 3.05897 12.8658 3.55831Z" fill="black"/>
</g>
<defs>
<clipPath id="clip0_366_4262">
<rect width="15.0741" height="15.0741" fill="white" transform="translate(0.371094 0.0449219)"/>
</clipPath>
</defs>
</svg>
