<svg width="16" height="16" viewBox="0 0 16 16" fill="none" xmlns="http://www.w3.org/2000/svg">
<g clip-path="url(#clip0_366_4260)">
<path d="M7.74512 2.31055C7.78211 2.31055 12.4671 2.31234 13.6426 2.63379C14.2882 2.80768 14.7979 3.31713 14.9717 3.96289C15.2945 5.14257 15.2822 7.60059 15.2822 7.60059C15.2822 7.61631 15.2811 10.0508 14.9717 11.2266C14.7977 11.872 14.2882 12.3809 13.6426 12.5547C12.4656 12.8643 7.77075 12.8652 7.74512 12.8652C7.74512 12.8652 3.0386 12.8648 1.84668 12.542C1.20119 12.368 0.692438 11.8593 0.518555 11.2139C0.208155 10.0467 0.208008 7.58789 0.208008 7.58789C0.208016 7.56267 0.209875 5.1364 0.518555 3.96289C0.692313 3.3173 1.21353 2.79491 1.84668 2.62109C3.02629 2.31058 7.74512 2.31055 7.74512 2.31055ZM6.24316 9.84863L10.166 7.58887L6.24316 5.3291V9.84863Z" fill="black"/>
</g>
<defs>
<clipPath id="clip0_366_4260">
<rect width="15.0741" height="15.0741" fill="white" transform="translate(0.208008 0.0449219)"/>
</clipPath>
</defs>
</svg>
