<svg width="24" height="24" viewBox="0 0 24 24" fill="none" xmlns="http://www.w3.org/2000/svg">
<rect width="24" height="24" rx="12" fill="white"/>
<path d="M16.456 7.45498C16.6672 7.25381 16.9485 7.14259 17.2402 7.14481C17.532 7.14701 17.8114 7.26247 18.0196 7.4668C18.2278 7.67114 18.3486 7.94839 18.3562 8.24003C18.364 8.53168 18.2581 8.81491 18.061 9.02998L12.076 16.515C11.9731 16.6258 11.8488 16.7148 11.7108 16.7766C11.5727 16.8382 11.4236 16.8715 11.2723 16.8744C11.1211 16.8771 10.9709 16.8493 10.8306 16.7928C10.6903 16.7362 10.5629 16.6519 10.456 16.545L6.48697 12.576C6.37643 12.473 6.28778 12.3488 6.2263 12.2108C6.1648 12.0728 6.13174 11.9238 6.12908 11.7728C6.12641 11.6217 6.15419 11.4717 6.21079 11.3316C6.26737 11.1915 6.35158 11.0642 6.45841 10.9574C6.56524 10.8506 6.69248 10.7664 6.83257 10.7098C6.97265 10.6532 7.1227 10.6254 7.27375 10.6281C7.4248 10.6307 7.57378 10.6638 7.71178 10.7253C7.84978 10.7868 7.97398 10.8754 8.07697 10.986L11.218 14.1255L16.4275 7.48798C16.4368 7.47643 16.4469 7.4654 16.4575 7.45498H16.456Z" fill="#2B3990"/>
</svg>
