<svg width="36" height="36" viewBox="0 0 36 36" fill="none" xmlns="http://www.w3.org/2000/svg">
<rect width="36" height="36" rx="5" fill="#EEF8FF"/>
<path d="M10 16.496V21C10 21.7956 10.3161 22.5587 10.8787 23.1213C11.4413 23.6839 12.2044 24 13 24H23C23.7956 24 24.5587 23.6839 25.1213 23.1213C25.6839 22.5587 26 21.7956 26 21V16.496L18.41 19.912C18.2811 19.97 18.1413 19.9999 18 19.9999C17.8587 19.9999 17.7189 19.97 17.59 19.912L10 16.496ZM10.074 14.336L18 17.904L25.926 14.336C25.7754 13.6726 25.4038 13.08 24.8721 12.6555C24.3405 12.2311 23.6803 11.9999 23 12H13C12.3197 11.9999 11.6595 12.2311 11.1279 12.6555C10.5962 13.08 10.2246 13.6726 10.074 14.336Z" fill="#2B3990"/>
</svg>
