<svg width="36" height="36" viewBox="0 0 36 36" fill="none" xmlns="http://www.w3.org/2000/svg">
<rect width="36" height="36" rx="5" fill="#EEF8FF"/>
<path d="M27.3302 25.0349C27.2045 25.598 26.8932 26.1023 26.4462 26.4669C25.9578 26.9623 25.3758 27.3556 24.7341 27.6241C24.0924 27.8926 23.4038 28.0309 22.7082 28.0309H22.3832C20.9232 27.9517 19.4936 27.5821 18.1782 26.9439H18.1682C17.8632 26.8019 17.5482 26.6599 17.2432 26.4869C15.7076 25.6259 14.2991 24.5557 13.0582 23.3069C11.4477 21.7943 10.1262 20.001 9.15815 18.0149C8.6437 16.9265 8.30033 15.7651 8.14016 14.5719C7.90462 13.3229 8.0463 12.0321 8.54715 10.8639C8.86335 10.3369 9.24953 9.8552 9.69515 9.43194C9.89567 9.20519 10.1408 9.02226 10.4153 8.89458C10.6897 8.76691 10.9876 8.69724 11.2902 8.68994C11.6193 8.72631 11.9379 8.82769 12.2275 8.9882C12.5171 9.14871 12.7719 9.36514 12.9772 9.62494C13.4342 10.1219 13.9922 10.6399 14.4502 11.1179L15.0802 11.7379C15.4502 12.0659 15.6792 12.5239 15.7202 13.0179C15.7202 13.4709 15.5532 13.9079 15.2522 14.2469C15.0572 14.484 14.8503 14.711 14.6322 14.9269L14.4292 15.1399C14.3112 15.2499 14.2212 15.3859 14.1652 15.5369C14.1152 15.6856 14.0952 15.8379 14.1052 15.9939C14.2662 16.4249 14.5192 16.8169 14.8452 17.1419C15.3542 17.8319 15.8622 18.4319 16.3802 19.0819C17.3171 20.1697 18.4291 21.0934 19.6702 21.8149C19.7972 21.9079 19.9432 21.9699 20.0982 21.9969C20.2322 22.0069 20.3682 21.9869 20.4942 21.9369C20.8492 21.7279 21.1642 21.4599 21.4282 21.1439C21.7832 20.7092 22.2929 20.4289 22.8502 20.3619C23.3864 20.3693 23.898 20.5886 24.2732 20.9719C24.4762 21.1439 24.6992 21.3779 24.9132 21.6019L25.2172 21.9159L25.5322 22.2209L26.0712 22.7689C26.3925 23.0543 26.6938 23.3593 26.9752 23.6839C27.2572 24.0739 27.3842 24.5569 27.3302 25.0349ZM23.6842 18.0759C23.4827 18.0739 23.2901 17.9929 23.1476 17.8505C23.0052 17.708 22.9242 17.5154 22.9222 17.3139C22.9232 16.7387 22.8107 16.1689 22.591 15.6373C22.3714 15.1057 22.049 14.6226 21.6422 14.2159C21.2355 13.8091 20.7524 13.4867 20.2208 13.267C19.6891 13.0474 19.1194 12.9349 18.5442 12.9359C18.3421 12.9359 18.1482 12.8557 18.0053 12.7128C17.8624 12.5699 17.7822 12.376 17.7822 12.1739C17.7822 11.9718 17.8624 11.778 18.0053 11.6351C18.1482 11.4922 18.3421 11.4119 18.5442 11.4119C19.3195 11.4108 20.0876 11.5626 20.8042 11.8588C21.5208 12.155 22.1719 12.5897 22.7201 13.138C23.2684 13.6862 23.7031 14.3373 23.9993 15.0539C24.2955 15.7705 24.4473 16.5385 24.4462 17.3139C24.4464 17.4141 24.4269 17.5133 24.3887 17.6059C24.3505 17.6984 24.2944 17.7825 24.2236 17.8533C24.1527 17.9242 24.0686 17.9803 23.9761 18.0185C23.8835 18.0567 23.7843 18.0762 23.6842 18.0759Z" fill="#2B3990"/>
<path d="M27.2088 17.72C27.0075 17.7179 26.815 17.6371 26.6726 17.4949C26.5302 17.3526 26.4491 17.1603 26.4468 16.959C26.4483 15.9789 26.2567 15.0081 25.8826 14.1022C25.5086 13.1963 24.9597 12.373 24.2671 11.6794C23.5746 10.9859 22.7521 10.4357 21.8468 10.0603C20.9414 9.685 19.9709 9.49187 18.9908 9.49201C18.8884 9.49571 18.7864 9.47876 18.6908 9.44216C18.5952 9.40557 18.5079 9.35007 18.4342 9.27899C18.3605 9.20791 18.3019 9.12271 18.2618 9.02847C18.2218 8.93424 18.2012 8.8329 18.2012 8.73051C18.2012 8.62812 18.2218 8.52677 18.2618 8.43254C18.3019 8.3383 18.3605 8.2531 18.4342 8.18202C18.5079 8.11094 18.5952 8.05545 18.6908 8.01885C18.7864 7.98225 18.8884 7.9653 18.9908 7.96901C20.1709 7.96901 21.3394 8.20161 22.4296 8.65352C23.5197 9.10544 24.5101 9.76779 25.3441 10.6027C26.1781 11.4377 26.8394 12.4288 27.2901 13.5194C27.7408 14.6101 27.9721 15.7789 27.9708 16.959C27.971 17.0591 27.9515 17.1584 27.9133 17.2509C27.8751 17.3435 27.819 17.4276 27.7482 17.4984C27.6774 17.5692 27.5933 17.6253 27.5007 17.6635C27.4081 17.7017 27.3089 17.7203 27.2088 17.72Z" fill="#2B3990"/>
</svg>
