<svg width="24" height="24" viewBox="0 0 24 24" fill="none" xmlns="http://www.w3.org/2000/svg">
<circle cx="12" cy="12" r="11.5" stroke="#FE090A"/>
<path d="M15.8036 7.6875C15.8036 7.78696 15.844 7.88234 15.9158 7.95266C15.9877 8.02299 16.0851 8.0625 16.1867 8.0625C16.2883 8.0625 16.3857 8.02299 16.4576 7.95266C16.5294 7.88234 16.5697 7.78696 16.5697 7.6875V7.125C16.5697 7.02554 16.5294 6.93016 16.4576 6.85984C16.3857 6.78951 16.2883 6.75 16.1867 6.75C16.0851 6.75 15.9877 6.78951 15.9158 6.85984C15.844 6.93016 15.8036 7.02554 15.8036 7.125V7.6875ZM9.67457 12V13.125H10.4407V12H11.5899V11.25H10.4407V10.125H9.67457V11.25H8.52539V12H9.67457Z" fill="#EA4335"/>
<path fill-rule="evenodd" clip-rule="evenodd" d="M5.07812 9.375C5.07812 9.07662 5.1992 8.79049 5.41472 8.5795C5.63023 8.36852 5.92253 8.25 6.22732 8.25H13.8886C14.1934 8.25 14.4857 8.36852 14.7012 8.5795C14.9167 8.79049 15.0378 9.07662 15.0378 9.375V10.125H15.4209V9.75H15.8039V9.375C15.8039 9.27552 15.8443 9.18018 15.9161 9.10986C15.988 9.03948 16.0854 9 16.187 9C16.2886 9 16.3861 9.03948 16.4579 9.10986C16.5297 9.18018 16.57 9.27552 16.57 9.375V9.75H16.9531V10.125H17.2282C17.5171 10.125 17.7954 10.2316 18.0077 10.4235L20.0311 12.2516C20.1476 12.357 20.2407 12.4849 20.3043 12.6272C20.3679 12.7695 20.4008 12.9232 20.4007 13.0785V16.125H18.4371C18.3519 16.4468 18.1599 16.7319 17.8913 16.9354C17.6228 17.1388 17.2927 17.2492 16.9531 17.2492C16.6135 17.2492 16.2835 17.1388 16.0149 16.9354C15.7463 16.7319 15.5543 16.4468 15.4692 16.125H9.62665C9.54146 16.4468 9.34944 16.7319 9.08087 16.9354C8.81228 17.1388 8.48227 17.2492 8.14264 17.2492C7.80302 17.2492 7.47301 17.1388 7.20442 16.9354C6.93583 16.7319 6.74386 16.4468 6.65866 16.125H5.07812V9.375ZM15.4692 15.375C15.5543 15.0532 15.7463 14.7681 16.0149 14.5646C16.2835 14.3612 16.6135 14.2508 16.9531 14.2508C17.2927 14.2508 17.6228 14.3612 17.8913 14.5646C18.1599 14.7681 18.3519 15.0532 18.4371 15.375H19.6346V13.5H15.0378V15.375H15.4692ZM15.0378 12.75H19.453L17.4879 10.9744C17.4171 10.9105 17.3244 10.875 17.2282 10.875H15.0378V12.75ZM13.8886 9C13.9902 9 14.0877 9.03948 14.1595 9.10986C14.2313 9.18018 14.2717 9.27552 14.2717 9.375V15.375H9.62665C9.54146 15.0532 9.34944 14.7681 9.08087 14.5646C8.81228 14.3612 8.48227 14.2508 8.14264 14.2508C7.80302 14.2508 7.47301 14.3612 7.20442 14.5646C6.93583 14.7681 6.74386 15.0532 6.65866 15.375H5.84425V9.375C5.84425 9.27552 5.88461 9.18018 5.95645 9.10986C6.02829 9.03948 6.12572 9 6.22732 9H13.8886ZM8.14264 16.5C8.34584 16.5 8.5407 16.421 8.68438 16.2803C8.82806 16.1397 8.90877 15.9489 8.90877 15.75C8.90877 15.5511 8.82806 15.3603 8.68438 15.2197C8.5407 15.079 8.34584 15 8.14264 15C7.93945 15 7.74459 15.079 7.60091 15.2197C7.45723 15.3603 7.37651 15.5511 7.37651 15.75C7.37651 15.9489 7.45723 16.1397 7.60091 16.2803C7.74459 16.421 7.93945 16.5 8.14264 16.5ZM17.7192 15.75C17.7192 15.9489 17.6385 16.1397 17.4949 16.2803C17.3512 16.421 17.1563 16.5 16.9531 16.5C16.7499 16.5 16.5551 16.421 16.4114 16.2803C16.2677 16.1397 16.187 15.9489 16.187 15.75C16.187 15.5511 16.2677 15.3603 16.4114 15.2197C16.5551 15.079 16.7499 15 16.9531 15C17.1563 15 17.3512 15.079 17.4949 15.2197C17.6385 15.3603 17.7192 15.5511 17.7192 15.75Z" fill="#EA4335"/>
<path d="M17.5272 9.3743C17.5272 9.27482 17.5675 9.17948 17.6394 9.1091C17.7112 9.03878 17.8087 8.9993 17.9102 8.9993H18.4848C18.5864 8.9993 18.6839 9.03878 18.7557 9.1091C18.8276 9.17948 18.8679 9.27482 18.8679 9.3743C18.8679 9.47378 18.8276 9.56912 18.7557 9.63944C18.6839 9.70976 18.5864 9.7493 18.4848 9.7493H17.9102C17.8087 9.7493 17.7112 9.70976 17.6394 9.63944C17.5675 9.56912 17.5272 9.47378 17.5272 9.3743ZM17.2702 7.78393C17.2327 7.81695 17.2023 7.85689 17.1807 7.90144C17.159 7.94599 17.1466 7.99427 17.144 8.04354C17.1415 8.0928 17.1489 8.14207 17.1659 8.18853C17.1828 8.23499 17.2089 8.27771 17.2428 8.31427C17.2766 8.35082 17.3175 8.38048 17.3631 8.40154C17.4086 8.42261 17.458 8.43466 17.5083 8.43703C17.5587 8.43938 17.609 8.432 17.6564 8.41529C17.7038 8.39859 17.7474 8.37289 17.7846 8.33968L18.1347 8.02918C18.2097 7.96231 18.2546 7.86907 18.2594 7.7699C18.2642 7.67072 18.2287 7.57371 18.1606 7.50014C18.0925 7.42657 17.9974 7.38244 17.8961 7.37743C17.7948 7.37242 17.6956 7.40695 17.6203 7.47343L17.2702 7.78393Z" fill="#EA4335"/>
</svg>
