<svg width="31" height="30" viewBox="0 0 31 30" fill="none" xmlns="http://www.w3.org/2000/svg">
<circle cx="15.7734" cy="15" r="14.5" stroke="#FE090A"/>
<path d="M10.8643 21.9091C10.6325 21.9091 10.4383 21.8305 10.2818 21.6735C10.1253 21.5164 10.0467 21.3222 10.0462 21.0909C10.0456 20.8596 10.1242 20.6655 10.2818 20.5084C10.4394 20.3513 10.6336 20.2727 10.8643 20.2727H11.3553L12.9712 14.8932C13.0803 14.5386 13.2815 14.2558 13.575 14.0447C13.8684 13.8336 14.1922 13.7278 14.5462 13.7273H17.0007C17.3553 13.7273 17.6793 13.8331 17.9727 14.0447C18.2662 14.2564 18.4672 14.5392 18.5757 14.8932L20.1916 20.2727H20.6825C20.9143 20.2727 21.1088 20.3513 21.2659 20.5084C21.423 20.6655 21.5013 20.8596 21.5007 21.0909C21.5002 21.3222 21.4216 21.5166 21.2651 21.6743C21.1085 21.8319 20.9143 21.9102 20.6825 21.9091H10.8643ZM13.0734 20.2727H18.4734L17.0007 15.3636H14.5462L13.0734 20.2727ZM14.9553 11.2727V8.81818C14.9553 8.58637 15.0338 8.39218 15.1909 8.23564C15.348 8.07909 15.5422 8.00055 15.7734 8C16.0047 7.99946 16.1992 8.078 16.3568 8.23564C16.5144 8.39328 16.5927 8.58746 16.5916 8.81818V11.2727C16.5916 11.5045 16.5131 11.699 16.356 11.8561C16.1989 12.0132 16.0047 12.0915 15.7734 12.0909C15.5422 12.0904 15.348 12.0118 15.1909 11.8553C15.0338 11.6987 14.9553 11.5045 14.9553 11.2727ZM19.2507 12.3773L20.9893 10.6386C21.1393 10.4886 21.327 10.4101 21.5523 10.403C21.7775 10.3959 21.9717 10.4745 22.1348 10.6386C22.2848 10.7886 22.3598 10.9795 22.3598 11.2114C22.3598 11.4432 22.2848 11.6341 22.1348 11.7841L20.3962 13.5432C20.2325 13.7068 20.0416 13.7886 19.8234 13.7886C19.6053 13.7886 19.4143 13.7068 19.2507 13.5432C19.0871 13.3795 19.0053 13.1854 19.0053 12.9606C19.0053 12.7359 19.0871 12.5415 19.2507 12.3773ZM21.5007 16.1818H23.9553C24.1871 16.1818 24.3815 16.2604 24.5386 16.4175C24.6957 16.5745 24.774 16.7687 24.7734 17C24.7729 17.2313 24.6943 17.4257 24.5378 17.5834C24.3813 17.741 24.1871 17.8193 23.9553 17.8182H21.5007C21.2689 17.8182 21.0747 17.7396 20.9182 17.5825C20.7616 17.4255 20.6831 17.2313 20.6825 17C20.682 16.7687 20.7605 16.5745 20.9182 16.4175C21.0758 16.2604 21.27 16.1818 21.5007 16.1818ZM11.1507 13.5227L9.41208 11.7841C9.26208 11.6341 9.1838 11.4467 9.17726 11.222C9.17071 10.9973 9.24898 10.8028 9.41208 10.6386C9.56208 10.4886 9.75298 10.4136 9.9848 10.4136C10.2166 10.4136 10.4075 10.4886 10.5575 10.6386L12.3166 12.3773C12.4803 12.5409 12.5621 12.7318 12.5621 12.95C12.5621 13.1682 12.4803 13.3591 12.3166 13.5227C12.153 13.6864 11.9588 13.7682 11.7341 13.7682C11.5093 13.7682 11.3149 13.6864 11.1507 13.5227ZM7.59162 17.8182C7.3598 17.8182 7.16562 17.7396 7.00908 17.5825C6.85253 17.4255 6.77399 17.2313 6.77344 17C6.77289 16.7687 6.85144 16.5745 7.00908 16.4175C7.16671 16.2604 7.36089 16.1818 7.59162 16.1818H10.0462C10.278 16.1818 10.4724 16.2604 10.6295 16.4175C10.7866 16.5745 10.8649 16.7687 10.8643 17C10.8638 17.2313 10.7853 17.4257 10.6287 17.5834C10.4722 17.741 10.278 17.8193 10.0462 17.8182H7.59162Z" fill="#FE090A"/>
</svg>
