<svg width="36" height="36" viewBox="0 0 36 36" fill="none" xmlns="http://www.w3.org/2000/svg">
<path d="M15.8253 14.7797C16.172 15.1299 16.6424 15.3299 17.1352 15.3365C17.6279 15.3431 18.1035 15.1559 18.4595 14.8152L22.977 10.5345C23.3405 10.19 23.5523 9.71515 23.5658 9.21445C23.5792 8.71375 23.3932 8.22821 23.0487 7.86464C22.7041 7.50108 22.2293 7.28928 21.7286 7.27583C21.2279 7.26238 20.7423 7.44838 20.3788 7.79292L17.1961 10.809L16.2961 9.90905C15.942 9.55489 15.4616 9.35592 14.9608 9.35592C14.4599 9.35592 13.9796 9.55489 13.6254 9.90905C13.2712 10.2632 13.0723 10.7436 13.0723 11.2444C13.0723 11.4924 13.1211 11.738 13.216 11.9671C13.3109 12.1962 13.45 12.4044 13.6254 12.5798L15.8253 14.7797ZM14.4191 10.7033C14.5646 10.5647 14.7578 10.4874 14.9588 10.4874C15.1598 10.4874 15.353 10.5647 15.4985 10.7033L16.7866 11.992C16.8903 12.0957 17.0303 12.1548 17.1768 12.1568C17.3234 12.1588 17.4649 12.1035 17.5713 12.0027L21.15 8.60967C21.2969 8.47041 21.4932 8.39523 21.6955 8.40066C21.8979 8.40609 22.0899 8.4917 22.2291 8.63864C22.3684 8.78559 22.4436 8.98184 22.4381 9.18422C22.4327 9.3866 22.3471 9.57854 22.2001 9.7178L17.6833 13.9984C17.5395 14.1365 17.3471 14.2125 17.1477 14.2098C16.9483 14.2072 16.758 14.1262 16.6179 13.9844L14.4168 11.7833C14.2742 11.6395 14.1945 11.4451 14.1952 11.2426C14.1958 11.0401 14.2767 10.8462 14.4202 10.7033H14.4191Z" fill="#2B3990"/>
<path d="M1.68664 34.875H5.71695C5.81569 34.875 5.91269 34.849 5.9982 34.7996L8.7207 33.2246L8.76739 33.3056C8.93197 33.5886 9.20195 33.7948 9.51821 33.8791C9.83448 33.9635 10.1713 33.9191 10.4549 33.7556L12.6391 32.4945C12.922 32.3299 13.1282 32.06 13.2126 31.7437C13.2969 31.4274 13.2525 31.0906 13.0891 30.807L13.0424 30.726L14.2731 30.015L20.7419 30.2231C21.1107 30.2241 21.4761 30.1521 21.817 30.0112C22.1579 29.8704 22.4675 29.6635 22.7281 29.4025L28.6782 23.4782C28.8716 23.2825 29.0222 23.0487 29.1204 22.7917C29.2185 22.5346 29.2621 22.26 29.2483 21.9852C29.2346 21.7104 29.1638 21.4415 29.0405 21.1955C28.9171 20.9496 28.7439 20.732 28.532 20.5566C28.1375 20.2529 27.6452 20.1046 27.1487 20.1399C26.6521 20.1751 26.1858 20.3915 25.8381 20.7478L22.9227 23.6627C22.7437 23.4275 22.5121 23.2375 22.2463 23.1081C21.9806 22.9786 21.6882 22.9133 21.3927 22.9174H18.4548L16.8348 21.9454C16.0878 21.4954 13.4862 20.1268 11.374 21.3036L8.54239 22.9382L8.49514 22.8566C8.33056 22.5737 8.06058 22.3675 7.74432 22.2832C7.42805 22.1988 7.09125 22.2432 6.80764 22.4066L4.62402 23.6666C4.34176 23.8319 4.13615 24.1018 4.05188 24.4178C3.96761 24.7338 4.0115 25.0703 4.17402 25.3541L4.2207 25.4351L1.4082 27.0608C1.32261 27.1102 1.25155 27.1813 1.20218 27.2669C1.1528 27.3525 1.12686 27.4496 1.12695 27.5485V34.3125C1.12695 34.4612 1.18583 34.6039 1.29071 34.7093C1.39559 34.8147 1.53794 34.8743 1.68664 34.875ZM11.9286 22.2818C13.183 21.5831 14.9864 22.1485 16.2554 22.9101L18.0093 23.9625C18.0969 24.0148 18.197 24.0424 18.299 24.0424H21.3899C21.6116 24.0498 21.8222 24.141 21.9793 24.2976C22.1364 24.4541 22.2283 24.6645 22.2365 24.8861C22.2365 25.1099 22.1476 25.3245 21.9893 25.4828C21.8311 25.641 21.6165 25.7299 21.3927 25.7299H18.299C18.1498 25.7299 18.0067 25.7892 17.9012 25.8946C17.7957 26.0001 17.7365 26.1432 17.7365 26.2924C17.7365 26.4416 17.7957 26.5847 17.9012 26.6901C18.0067 26.7956 18.1498 26.8549 18.299 26.8549H21.3927C21.6564 26.8551 21.9175 26.8021 22.1603 26.6991C22.403 26.5961 22.6226 26.4452 22.8057 26.2554C22.9889 26.0656 23.1319 25.8409 23.2262 25.5946C23.3205 25.3483 23.3642 25.0856 23.3547 24.822L26.6335 21.5438C26.7831 21.3832 26.9861 21.2829 27.2045 21.2615C27.4228 21.2402 27.6415 21.2994 27.8193 21.4279C27.9107 21.5029 27.9854 21.5961 28.0387 21.7017C28.092 21.8072 28.1227 21.9227 28.1288 22.0408C28.1348 22.1589 28.1162 22.2769 28.0741 22.3874C28.0319 22.4978 27.9672 22.5983 27.884 22.6823L21.9366 28.6121C21.626 28.925 21.2042 29.1024 20.7633 29.1055L14.1505 28.8923C14.0457 28.888 13.9418 28.9139 13.8513 28.9671L12.4799 29.7563L9.10489 23.9108L11.9286 22.2818ZM5.18877 24.6375L7.37183 23.377C7.39765 23.3657 7.42656 23.3635 7.45377 23.3709C7.48098 23.3782 7.50485 23.3947 7.52145 23.4175L12.1154 31.3763C12.1265 31.402 12.1286 31.4308 12.1213 31.4579C12.1139 31.485 12.0975 31.5088 12.0749 31.5253L9.89183 32.7865C9.86645 32.8002 9.83677 32.8036 9.80893 32.7961C9.78108 32.7885 9.75719 32.7706 9.7422 32.746L5.14827 24.7894C5.13627 24.7633 5.13375 24.7339 5.14115 24.7062C5.14854 24.6784 5.16538 24.6542 5.18877 24.6375ZM2.24914 27.8708L4.7832 26.4083L8.1582 32.2538L5.56789 33.75H2.24914V27.8708Z" fill="#2B3990"/>
<path d="M8.24194 15.7663C8.31977 15.8887 8.4419 15.9763 8.58281 16.0108C8.72373 16.0454 8.87253 16.0241 8.99814 15.9515C9.12374 15.8789 9.21644 15.7606 9.25686 15.6212C9.29729 15.4819 9.28231 15.3323 9.21506 15.2038C8.46387 13.9023 7.91908 12.4923 7.60012 11.0238C7.5679 10.8781 7.47912 10.7512 7.35333 10.671C7.22753 10.5908 7.07502 10.5638 6.92934 10.596C6.78366 10.6283 6.65675 10.717 6.57653 10.8428C6.4963 10.9686 6.46934 11.1211 6.50156 11.2668C6.8461 12.8474 7.43317 14.3652 8.24194 15.7663Z" fill="#2B3990"/>
<path d="M6.75 9.5625C7.06066 9.5625 7.3125 9.31066 7.3125 9C7.3125 8.68934 7.06066 8.4375 6.75 8.4375C6.43934 8.4375 6.1875 8.68934 6.1875 9C6.1875 9.31066 6.43934 9.5625 6.75 9.5625Z" fill="#2B3990"/>
<path d="M29.34 8.44032C29.2665 8.43293 29.1923 8.44009 29.1215 8.4614C29.0508 8.4827 28.9849 8.51772 28.9278 8.56447C28.8706 8.61122 28.8231 8.66878 28.7882 8.73386C28.7532 8.79893 28.7314 8.87026 28.7241 8.94376C28.5917 10.4585 28.2399 11.9459 27.6795 13.3594C27.6237 13.4978 27.6252 13.6526 27.6835 13.7899C27.7419 13.9272 27.8525 14.0357 27.9908 14.0915C28.1292 14.1473 28.2841 14.1458 28.4214 14.0874C28.5587 14.029 28.6671 13.9185 28.7229 13.7801C29.3234 12.2677 29.7008 10.6761 29.8434 9.05513C29.858 8.90688 29.8132 8.75888 29.7188 8.64362C29.6245 8.52836 29.4882 8.45524 29.34 8.44032Z" fill="#2B3990"/>
<path d="M27.2695 16.0459C27.5802 16.0459 27.832 15.7941 27.832 15.4834C27.832 15.1727 27.5802 14.9209 27.2695 14.9209C26.9589 14.9209 26.707 15.1727 26.707 15.4834C26.707 15.7941 26.9589 16.0459 27.2695 16.0459Z" fill="#2B3990"/>
<path d="M27.6001 4.90387C27.5913 4.74025 27.5464 4.5806 27.4687 4.43635C27.391 4.2921 27.2823 4.16682 27.1505 4.06947C27.0187 3.97212 26.867 3.90512 26.7063 3.87326C26.5456 3.8414 26.3798 3.84547 26.2208 3.88518C22.8785 4.69012 19.9079 2.43393 18.7874 1.42705C18.5717 1.23344 18.292 1.12634 18.0021 1.12634C17.7123 1.12634 17.4326 1.23344 17.2169 1.42705C16.0874 2.43168 13.096 4.69011 9.78008 3.88687C9.6213 3.85014 9.45645 3.84823 9.29686 3.88126C9.13727 3.91429 8.98672 3.98149 8.85556 4.07822C8.72441 4.17496 8.61575 4.29895 8.53706 4.44167C8.45837 4.58438 8.41151 4.74244 8.3997 4.90499C8.05039 9.88312 8.61739 16.9391 17.5319 20.7174C17.6799 20.7798 17.839 20.8119 17.9996 20.8119C18.1603 20.8119 18.3193 20.7798 18.4673 20.7174C27.3824 16.9391 27.9494 9.88255 27.6001 4.90387ZM18.028 19.6819C18.0099 19.6885 17.9899 19.6885 17.9718 19.6819C9.81158 16.2231 9.16864 10.0125 9.5157 4.98037C13.3531 5.9068 16.7011 3.39018 17.9633 2.26349C17.9728 2.25451 17.9854 2.24951 17.9985 2.24951C18.0116 2.24951 18.0241 2.25451 18.0336 2.26349C19.2891 3.38849 22.6236 5.90793 26.4711 4.96011C26.8373 9.99899 26.195 16.2174 18.028 19.6819Z" fill="#2B3990"/>
</svg>
