<svg width="36" height="36" viewBox="0 0 36 36" fill="none" xmlns="http://www.w3.org/2000/svg">
<g clip-path="url(#clip0_527_1325)">
<path d="M12.2018 32.5341L6.34766 23.5513L2.10777 26.3144L7.96195 35.2973L12.2018 32.5341Z" fill="#2B3990"/>
<path d="M22.9366 16.422C26.2359 16.422 28.9104 13.7474 28.9104 10.4482C28.9104 7.14903 26.2359 4.47449 22.9366 4.47449C19.6374 4.47449 16.9629 7.14903 16.9629 10.4482C16.9629 13.7474 19.6374 16.422 22.9366 16.422Z" stroke="#2B3990" stroke-width="1.5" stroke-miterlimit="10" stroke-linecap="round" stroke-linejoin="round"/>
<path d="M18.6667 26.8956L21.7441 27.2974C23.0069 27.4622 24.2871 27.1707 25.354 26.4754L30.9367 22.8372C31.8208 22.2609 33.0046 22.5106 33.5808 23.3947C34.157 24.2788 33.9074 25.4627 33.0233 26.0389L27.3014 29.7679C24.4518 31.6249 20.9538 32.2009 17.6592 31.3555C15.6104 30.8298 13.4709 30.7989 11.416 31.2592" stroke="#2B3990" stroke-width="1.5" stroke-miterlimit="10" stroke-linecap="round" stroke-linejoin="round"/>
<path d="M7.17578 24.8182C7.66635 23.5394 8.90308 22.2707 9.84794 21.6549C12.5333 19.9049 16.0031 20.3162 18.211 22.4575L22.4114 23.3727C23.4243 23.5935 24.0987 24.5539 23.9625 25.5815C23.818 26.6709 22.834 27.4396 21.7444 27.2974" stroke="#2B3990" stroke-width="1.5" stroke-miterlimit="10" stroke-linecap="round" stroke-linejoin="round"/>
<path d="M12.2038 32.5341L6.34961 23.5513L2.10972 26.3144L7.96391 35.2973L12.2038 32.5341Z" stroke="#2B3990" stroke-width="1.5" stroke-miterlimit="10" stroke-linecap="round" stroke-linejoin="round"/>
<path d="M21.4062 10.1845L22.6026 11.3809L24.4678 9.51562" stroke="#2B3990" stroke-width="1.5" stroke-miterlimit="10" stroke-linecap="round" stroke-linejoin="round"/>
<path d="M22.9361 0.860197C24.634 0.423978 26.4345 0.910611 27.6887 2.14474C29.3753 2.62328 30.6934 3.95289 31.1678 5.65424C32.3912 6.91938 32.8737 8.73562 32.4412 10.4483C32.8737 12.161 32.3912 13.9773 31.1678 15.2423C30.6934 16.9437 29.3753 18.2733 27.6887 18.7518C26.4345 19.986 24.6341 20.4727 22.9361 20.0364C21.2383 20.4726 19.4377 19.986 18.1836 18.7518C16.497 18.2733 15.1789 16.9437 14.7045 15.2423C13.4811 13.9772 12.9986 12.161 13.4311 10.4483C12.9986 8.73562 13.4811 6.91931 14.7045 5.65424C15.1789 3.95289 16.497 2.62328 18.1836 2.14474C19.4377 0.910611 21.2383 0.423908 22.9361 0.860197Z" stroke="#2B3990" stroke-width="1.5" stroke-miterlimit="10" stroke-linecap="round" stroke-linejoin="round"/>
</g>
<defs>
<clipPath id="clip0_527_1325">
<rect width="36" height="36" fill="white"/>
</clipPath>
</defs>
</svg>
