<svg width="36" height="36" viewBox="0 0 36 36" fill="none" xmlns="http://www.w3.org/2000/svg">
<g clip-path="url(#clip0_527_1346)">
<path d="M2.40039 34.8C2.40039 35.1182 2.52682 35.4234 2.75186 35.6485C2.97691 35.8735 3.28213 36 3.60039 36H32.4004C32.7187 36 33.0239 35.8735 33.2489 35.6485C33.474 35.4234 33.6004 35.1182 33.6004 34.8V33C33.5991 31.8235 33.2524 30.6732 32.6034 29.692C31.9544 28.7107 31.0316 27.9415 29.9494 27.48C30.5191 27.0956 30.9858 26.5773 31.3085 25.9706C31.6312 25.3638 31.8001 24.6872 31.8004 24V23.4C31.8004 22.286 31.3579 21.2178 30.5702 20.4301C29.7826 19.6424 28.7143 19.2 27.6004 19.2C26.4865 19.2 25.4182 19.6424 24.6305 20.4301C23.8429 21.2178 23.4004 22.286 23.4004 23.4V24C23.4007 24.6872 23.5697 25.3639 23.8926 25.9707C24.2154 26.5774 24.6822 27.0957 25.252 27.48C24.2771 27.8961 23.4308 28.5646 22.8004 29.4168C22.1678 28.567 21.3224 27.899 20.3494 27.48C20.9191 27.0956 21.3858 26.5773 21.7085 25.9706C22.0312 25.3638 22.2001 24.6872 22.2004 24V23.4C22.2004 22.286 21.7579 21.2178 20.9702 20.4301C20.1826 19.6424 19.1143 19.2 18.0004 19.2C16.8865 19.2 15.8182 19.6424 15.0305 20.4301C14.2429 21.2178 13.8004 22.286 13.8004 23.4V24C13.8007 24.6872 13.9696 25.3638 14.2923 25.9706C14.615 26.5773 15.0817 27.0956 15.6514 27.48C14.6784 27.899 13.833 28.567 13.2004 29.4168C12.5699 28.5646 11.7237 27.8961 10.7488 27.48C11.3186 27.0957 11.7854 26.5774 12.1082 25.9707C12.431 25.3639 12.6 24.6872 12.6004 24V23.4C12.6004 22.286 12.1579 21.2178 11.3702 20.4301C10.5826 19.6424 9.5143 19.2 8.40039 19.2C7.28648 19.2 6.2182 19.6424 5.43054 20.4301C4.64289 21.2178 4.20039 22.286 4.20039 23.4V24C4.20067 24.6872 4.36958 25.3638 4.6923 25.9706C5.01502 26.5773 5.4817 27.0956 6.05139 27.48C4.96924 27.9415 4.04641 28.7107 3.39738 29.692C2.74835 30.6732 2.40169 31.8235 2.40039 33V34.8ZM24.6004 24V23.4C24.6004 22.6043 24.9165 21.8412 25.4791 21.2786C26.0417 20.716 26.8047 20.4 27.6004 20.4C28.396 20.4 29.1591 20.716 29.7217 21.2786C30.2843 21.8412 30.6004 22.6043 30.6004 23.4V24C30.6004 24.7956 30.2843 25.5587 29.7217 26.1213C29.1591 26.6839 28.396 27 27.6004 27C26.8047 27 26.0417 26.6839 25.4791 26.1213C24.9165 25.5587 24.6004 24.7956 24.6004 24ZM27.6004 28.2C28.873 28.2014 30.0931 28.7076 30.9929 29.6074C31.8928 30.5073 32.399 31.7274 32.4004 33V34.8H24.0004V33C24.0002 32.1613 23.8227 31.3322 23.4796 30.567C23.8997 29.8467 24.5013 29.2491 25.2243 28.8338C25.9473 28.4185 26.7666 28.2 27.6004 28.2ZM15.0004 24V23.4C15.0004 22.6043 15.3165 21.8412 15.8791 21.2786C16.4417 20.716 17.2047 20.4 18.0004 20.4C18.796 20.4 19.5591 20.716 20.1217 21.2786C20.6843 21.8412 21.0004 22.6043 21.0004 23.4V24C21.0004 24.7956 20.6843 25.5587 20.1217 26.1213C19.5591 26.6839 18.796 27 18.0004 27C17.2047 27 16.4417 26.6839 15.8791 26.1213C15.3165 25.5587 15.0004 24.7956 15.0004 24ZM18.0004 28.2C19.273 28.2014 20.4931 28.7076 21.3929 29.6074C22.2928 30.5073 22.799 31.7274 22.8004 33V34.8H13.2004V33C13.2018 31.7274 13.708 30.5073 14.6079 29.6074C15.5077 28.7076 16.7278 28.2014 18.0004 28.2ZM5.40039 24V23.4C5.40039 22.6043 5.71646 21.8412 6.27907 21.2786C6.84168 20.716 7.60474 20.4 8.40039 20.4C9.19604 20.4 9.9591 20.716 10.5217 21.2786C11.0843 21.8412 11.4004 22.6043 11.4004 23.4V24C11.4004 24.7956 11.0843 25.5587 10.5217 26.1213C9.9591 26.6839 9.19604 27 8.40039 27C7.60474 27 6.84168 26.6839 6.27907 26.1213C5.71646 25.5587 5.40039 24.7956 5.40039 24ZM3.60039 33C3.59798 31.9475 3.94234 30.9235 4.58023 30.0863C5.21813 29.2492 6.11403 28.6455 7.12943 28.3685C8.14483 28.0916 9.22319 28.1569 10.1978 28.5542C11.1724 28.9516 11.9889 29.659 12.5212 30.567C12.1781 31.3322 12.0006 32.1613 12.0004 33V34.8H3.60039V33Z" fill="#2B3990"/>
<path d="M26.5201 10.3002C26.8285 9.93781 26.9982 9.47761 26.9987 9.00175C26.9993 8.52588 26.8307 8.0653 26.5231 7.7022C26.5186 7.69619 26.5136 7.69057 26.5081 7.6854C26.3933 7.54469 26.3309 7.36843 26.3317 7.1868C26.3318 7.10184 26.3452 7.01743 26.3713 6.9366C26.4357 6.73713 26.4685 6.52881 26.4685 6.3192C26.4699 5.95031 26.3684 5.58835 26.1754 5.27398C25.9824 4.95961 25.7055 4.70529 25.3759 4.5396C25.2545 4.47801 25.151 4.38621 25.0753 4.27304C24.9997 4.15987 24.9544 4.02913 24.9439 3.8934C24.9056 3.41915 24.6994 2.97411 24.3625 2.63817C24.0255 2.30223 23.5799 2.09738 23.1055 2.0604C22.9702 2.04917 22.8399 2.00332 22.7274 1.92725C22.6149 1.85117 22.5238 1.74743 22.4629 1.626C22.2483 1.20036 21.8879 0.866003 21.4473 0.683847C21.0068 0.50169 20.5155 0.483857 20.0629 0.633597C19.9331 0.676098 19.7945 0.684289 19.6605 0.657374C19.5266 0.63046 19.4019 0.569355 19.2985 0.479997C18.9384 0.167447 18.4776 -0.00463867 18.0007 -0.00463867C17.5239 -0.00463867 17.0631 0.167447 16.7029 0.479997L16.6855 0.495597C16.5816 0.578048 16.459 0.633656 16.3285 0.657514C16.198 0.681372 16.0637 0.672746 15.9373 0.632397C15.4842 0.489449 14.9953 0.510761 14.5563 0.692589C14.1174 0.874416 13.7566 1.20512 13.5373 1.6266C13.4756 1.74801 13.3838 1.85158 13.2707 1.92742C13.1576 2.00326 13.0269 2.04884 12.8911 2.0598C12.4169 2.09854 11.9721 2.30512 11.6366 2.64241C11.301 2.97971 11.0968 3.42561 11.0605 3.9C11.05 4.03325 11.0053 4.16155 10.9309 4.2726C10.8543 4.38726 10.749 4.47992 10.6255 4.5414C10.2969 4.70686 10.0208 4.96063 9.82838 5.27423C9.63592 5.58783 9.53465 5.94885 9.53593 6.3168C9.53626 6.52844 9.56946 6.73874 9.63433 6.9402C9.67495 7.06611 9.68361 7.20015 9.65952 7.33024C9.63543 7.46033 9.57935 7.58238 9.49633 7.6854L9.48073 7.7028C9.16818 8.06293 8.99609 8.52375 8.99609 9.0006C8.99609 9.47744 9.16818 9.93827 9.48073 10.2984C9.48561 10.3045 9.49082 10.3103 9.49633 10.3158C9.61105 10.4563 9.67322 10.6324 9.67213 10.8138C9.67203 10.8987 9.65887 10.9831 9.63313 11.064C9.56872 11.2635 9.53592 11.4718 9.53593 11.6814C9.53457 12.0502 9.63603 12.4121 9.82892 12.7264C10.0218 13.0408 10.2985 13.2952 10.6279 13.461C10.7493 13.5226 10.8527 13.6143 10.9285 13.7273C11.0042 13.8404 11.0497 13.971 11.0605 14.1066C11.0987 14.5811 11.305 15.0264 11.6422 15.3625C11.9794 15.6985 12.4255 15.9031 12.9001 15.9396C13.0357 15.9506 13.1662 15.9964 13.2788 16.0726C13.3915 16.1489 13.4826 16.2529 13.5433 16.3746C13.7589 16.7994 14.1195 17.1329 14.5597 17.3148C15 17.4967 15.4908 17.515 15.9433 17.3664C16.0693 17.3255 16.2034 17.3166 16.3336 17.3406C16.4639 17.3646 16.586 17.4207 16.6891 17.5038L16.7065 17.5194C17.0676 17.8326 17.5297 18.0046 18.0076 18.0037C18.4856 18.0028 18.9471 17.8291 19.3069 17.5146C19.411 17.4276 19.5354 17.3684 19.6686 17.3426C19.8018 17.3168 19.9393 17.3252 20.0683 17.367C20.5209 17.5101 21.0094 17.4888 21.4479 17.3069C21.8863 17.1251 22.2464 16.7942 22.4647 16.3728C22.5264 16.2514 22.6182 16.1478 22.7314 16.072C22.8445 15.9961 22.9752 15.9506 23.1109 15.9396C23.5849 15.9006 24.0296 15.6941 24.365 15.3569C24.7005 15.0198 24.9049 14.5742 24.9415 14.1C24.9526 13.9649 24.9983 13.8349 25.0743 13.7227C25.1503 13.6104 25.254 13.5197 25.3753 13.4592C25.7043 13.2939 25.9806 13.0401 26.1733 12.7263C26.366 12.4126 26.4674 12.0514 26.4661 11.6832C26.4658 11.4716 26.4326 11.2613 26.3677 11.0598C26.3258 10.931 26.3175 10.7935 26.3436 10.6606C26.3698 10.5276 26.4295 10.4036 26.5171 10.3002H26.5201ZM25.6105 9.5202C25.3892 9.77939 25.2379 10.0909 25.1709 10.425C25.1039 10.7592 25.1235 11.1049 25.2277 11.4294C25.2545 11.5124 25.2683 11.599 25.2685 11.6862C25.2694 11.8312 25.2301 11.9735 25.1548 12.0975C25.0796 12.2214 24.9715 12.322 24.8425 12.3882C24.5344 12.5418 24.2715 12.7728 24.0796 13.0586C23.8876 13.3444 23.7732 13.6751 23.7475 14.0184C23.7322 14.207 23.65 14.3838 23.5158 14.5172C23.3816 14.6505 23.2042 14.7315 23.0155 14.7456C22.6742 14.7731 22.3457 14.8877 22.0613 15.0785C21.7769 15.2693 21.5462 15.5298 21.3913 15.8352C21.3046 16.0045 21.16 16.137 20.9839 16.2088C20.8077 16.2806 20.6117 16.2868 20.4313 16.2264C20.1061 16.1228 19.7599 16.1038 19.4253 16.1712C19.0907 16.2386 18.7789 16.3902 18.5191 16.6116C18.378 16.7339 18.1981 16.8022 18.0113 16.8044C17.8246 16.8066 17.6431 16.7425 17.4991 16.6236L17.4829 16.6092C17.2239 16.3877 16.9124 16.2362 16.5782 16.1691C16.244 16.102 15.8982 16.1215 15.5737 16.2258C15.394 16.287 15.1983 16.2818 15.0222 16.211C14.846 16.1402 14.7011 16.0085 14.6137 15.84C14.4599 15.532 14.2287 15.2692 13.9429 15.0774C13.657 14.8856 13.3262 14.7712 12.9829 14.7456C12.7946 14.7304 12.6179 14.6484 12.4846 14.5144C12.3514 14.3804 12.2704 14.2032 12.2563 14.0148C12.2293 13.6735 12.1149 13.3449 11.9242 13.0606C11.7335 12.7762 11.4728 12.5457 11.1673 12.3912C11.0367 12.325 10.927 12.2237 10.8507 12.0986C10.7744 11.9735 10.7344 11.8297 10.7353 11.6832C10.7359 11.5974 10.7494 11.5123 10.7755 11.4306C10.8388 11.2317 10.8712 11.0243 10.8715 10.8156C10.8724 10.34 10.702 9.87992 10.3915 9.5196C10.3867 9.5148 10.3831 9.5094 10.3783 9.5046C10.2617 9.36333 10.1979 9.18587 10.1979 9.0027C10.1979 8.81952 10.2617 8.64206 10.3783 8.5008L10.3927 8.4846C10.6142 8.22552 10.7657 7.91407 10.8329 7.57989C10.9 7.2457 10.8804 6.8999 10.7761 6.5754C10.7493 6.49242 10.7356 6.40579 10.7353 6.3186C10.7345 6.17371 10.7738 6.03141 10.8488 5.90749C10.9239 5.78358 11.0319 5.68289 11.1607 5.6166C11.469 5.46302 11.7321 5.23196 11.9242 4.94606C12.1162 4.66017 12.2307 4.32926 12.2563 3.9858C12.2715 3.79745 12.3535 3.62074 12.4875 3.48752C12.6215 3.35429 12.7987 3.27332 12.9871 3.2592C13.3284 3.23179 13.6569 3.11728 13.9413 2.92661C14.2257 2.73595 14.4564 2.4755 14.6113 2.1702C14.6984 2.00117 14.8429 1.8688 15.019 1.79696C15.195 1.72512 15.3909 1.71854 15.5713 1.7784C15.8963 1.88165 16.2421 1.90064 16.5764 1.83357C16.9106 1.76651 17.2224 1.61559 17.4823 1.395L17.4973 1.3818C17.6415 1.26298 17.8231 1.19916 18.0099 1.20169C18.1966 1.20422 18.3765 1.27293 18.5173 1.3956C18.7763 1.61679 19.0876 1.76812 19.4215 1.83522C19.7554 1.90232 20.101 1.88297 20.4253 1.779C20.605 1.71739 20.8009 1.72247 20.9771 1.7933C21.1534 1.86413 21.2982 1.99599 21.3853 2.1648C21.5394 2.4726 21.7706 2.73521 22.0564 2.92702C22.3422 3.11883 22.6729 3.23327 23.0161 3.2592C23.2045 3.27451 23.3812 3.35651 23.5145 3.49047C23.6478 3.62444 23.729 3.80156 23.7433 3.99C23.771 4.33111 23.8859 4.6594 24.0769 4.94338C24.2679 5.22736 24.5286 5.45752 24.8341 5.6118C24.9648 5.67786 25.0745 5.77907 25.1508 5.90403C25.2271 6.029 25.267 6.17277 25.2661 6.3192C25.2657 6.40412 25.2523 6.48848 25.2265 6.5694C25.1624 6.76893 25.1296 6.97721 25.1293 7.1868C25.1286 7.66222 25.299 8.12203 25.6093 8.4822L25.6231 8.4978C25.7399 8.64292 25.8023 8.82427 25.7995 9.0105C25.7968 9.19674 25.7291 9.37617 25.6081 9.5178L25.6105 9.5202Z" fill="#2B3990"/>
<path d="M18 3C16.8133 3 15.6533 3.35189 14.6666 4.01118C13.6799 4.67047 12.9109 5.60754 12.4567 6.7039C12.0026 7.80026 11.8838 9.00666 12.1153 10.1705C12.3468 11.3344 12.9182 12.4035 13.7574 13.2426C14.5965 14.0818 15.6656 14.6532 16.8295 14.8847C17.9933 15.1162 19.1997 14.9974 20.2961 14.5433C21.3925 14.0892 22.3295 13.3201 22.9888 12.3334C23.6481 11.3467 24 10.1867 24 9C23.9983 7.40924 23.3656 5.88413 22.2407 4.75929C21.1159 3.63445 19.5908 3.00175 18 3ZM18 13.8C17.0507 13.8 16.1226 13.5185 15.3333 12.9911C14.5439 12.4636 13.9287 11.714 13.5654 10.8369C13.2021 9.9598 13.107 8.99468 13.2922 8.06357C13.4774 7.13246 13.9346 6.27718 14.6059 5.60589C15.2772 4.9346 16.1325 4.47744 17.0636 4.29223C17.9947 4.10702 18.9598 4.20208 19.8369 4.56538C20.714 4.92868 21.4636 5.54391 21.9911 6.33326C22.5185 7.12262 22.8 8.05065 22.8 9C22.7986 10.2726 22.2924 11.4927 21.3925 12.3925C20.4927 13.2924 19.2726 13.7986 18 13.8Z" fill="#2B3990"/>
<path d="M19.3322 6.82505L16.8722 9.90185L16.6262 9.65585C16.513 9.54656 16.3615 9.48608 16.2042 9.48745C16.0468 9.48882 15.8964 9.55192 15.7851 9.66316C15.6739 9.77441 15.6108 9.92489 15.6094 10.0822C15.608 10.2395 15.6685 10.3911 15.7778 10.5043L16.4978 11.2243C16.61 11.3365 16.7621 11.3997 16.9208 11.4001H16.9544C17.0386 11.3954 17.1208 11.3731 17.1957 11.3345C17.2707 11.2959 17.3367 11.242 17.3894 11.1763L20.2694 7.57625C20.3689 7.45197 20.4149 7.29327 20.3973 7.13507C20.3798 6.97686 20.3001 6.83211 20.1758 6.73265C20.0515 6.6332 19.8928 6.58718 19.7346 6.60474C19.5764 6.62229 19.4317 6.70197 19.3322 6.82625V6.82505Z" fill="#2B3990"/>
</g>
<defs>
<clipPath id="clip0_527_1346">
<rect width="36" height="36" fill="white"/>
</clipPath>
</defs>
</svg>
