<svg width="36" height="36" viewBox="0 0 36 36" fill="none" xmlns="http://www.w3.org/2000/svg">
<path d="M18.9727 26.1283C20.3189 26.1283 21.4143 25.033 21.4143 23.6867C21.4143 22.3403 20.319 21.2451 18.9727 21.2451C17.6264 21.2451 16.531 22.3403 16.531 23.6867C16.531 25.033 17.6264 26.1283 18.9727 26.1283ZM18.9727 22.3693C19.6991 22.3693 20.2901 22.9603 20.2901 23.6867C20.2901 24.4131 19.6991 25.004 18.9727 25.004C18.2463 25.004 17.6553 24.4131 17.6553 23.6867C17.6553 22.9603 18.2462 22.3693 18.9727 22.3693ZM21.8727 4.517C21.8727 4.82743 21.621 5.07908 21.3106 5.07908H19.4869C19.1765 5.07908 18.9248 4.82743 18.9248 4.517C18.9248 4.20657 19.1765 3.95492 19.4869 3.95492H21.3106C21.621 3.95492 21.8727 4.20657 21.8727 4.517ZM32.6952 30.1085H28.6751V27.8424C28.6751 25.728 26.9548 24.0076 24.8403 24.0076H23.3831C23.3831 24.003 23.3834 23.9983 23.3834 23.9937V13.9483C23.3834 13.8882 23.3812 13.8286 23.3789 13.769L27.0458 9.21107C29.0985 9.03683 30.7162 7.31157 30.7162 5.2145C30.7162 3.00332 28.9162 1.20437 26.704 1.20437C25.9976 1.20437 25.3337 1.38866 24.7567 1.71062L17.223 1.70865H17.2228C17.0738 1.70865 16.9309 1.76792 16.8255 1.87325C16.72 1.97865 16.6608 2.12167 16.6608 2.27073V2.42612H10.6904C9.98472 1.27468 8.7153 0.504761 7.26926 0.504761C5.05807 0.504761 3.25912 2.30469 3.25912 4.51693C3.25912 4.82413 3.29498 5.12303 3.36072 5.4106L1.67758 8.32478C1.4959 8.6409 1.44984 8.99373 1.54427 9.34424L1.9409 10.8251C1.97944 10.969 2.07358 11.0917 2.20261 11.1663L2.637 11.4172L1.51685 13.3564C1.3616 13.6251 1.45364 13.969 1.72244 14.1242C1.81097 14.1754 1.90765 14.1997 2.00299 14.1997C2.19726 14.1997 2.38612 14.0988 2.49026 13.9186L3.61047 11.9793L4.04261 12.2289C4.12882 12.2787 4.22571 12.3042 4.32351 12.3042C4.37217 12.3042 4.42111 12.2978 4.46892 12.2851L5.94907 11.8886C6.30309 11.7942 6.58631 11.5771 6.76758 11.2616L8.44706 8.35044C9.44072 8.04458 10.2703 7.36192 10.7699 6.47028H16.6609V6.62575C16.6609 6.93617 16.9125 7.18782 17.223 7.18782H20.7225L18.8283 9.54118C17.6961 9.57697 16.6416 10.03 15.8457 10.8283C15.018 11.6583 14.5622 12.7663 14.5622 13.9484V23.9937C14.5622 23.9983 14.5626 24.003 14.5626 24.0076H12.8382C10.7238 24.0076 9.00344 25.728 9.00344 27.8424V30.1085H4.9834C3.99536 30.1085 3.19155 30.9124 3.19155 31.9003V34.8182C3.19155 35.1287 3.4432 35.3803 3.75363 35.3803H33.925C34.2354 35.3803 34.4871 35.1287 34.4871 34.8182V31.9003C34.4871 30.9123 33.6832 30.1085 32.6952 30.1085ZM20.1454 9.69707L22.3268 6.98701C22.3298 6.9835 22.3327 6.97977 22.3355 6.97618L22.8535 6.33275C23.2459 7.68317 24.3293 8.74215 25.6943 9.09765L23.0809 12.346C22.578 11.0612 21.4898 10.0684 20.1454 9.69707ZM29.592 5.2145C29.592 6.78535 28.3312 8.06631 26.7685 8.10083C26.76 8.10083 26.7514 8.10111 26.7429 8.10146C26.7299 8.1016 26.7171 8.10245 26.704 8.10245C25.1126 8.10245 23.818 6.80694 23.818 5.2145C23.818 3.62207 25.1126 2.32853 26.704 2.32853C28.2954 2.32853 29.592 3.62312 29.592 5.2145ZM5.79318 10.7007C5.76063 10.7574 5.72435 10.7849 5.65882 10.8024L4.40269 11.1388L2.96641 10.3094L2.62983 9.05258C2.6126 8.98867 2.61865 8.94317 2.65155 8.88594L3.9112 6.70506C4.59035 7.74378 5.73722 8.45007 7.05079 8.52095L5.79318 10.7007ZM7.26911 7.40298C5.67773 7.40298 4.38314 6.10839 4.38314 4.517C4.38314 2.92562 5.67773 1.62899 7.26911 1.62899C8.8605 1.62899 10.1552 2.92457 10.1552 4.517C10.1552 6.10944 8.8605 7.40298 7.26911 7.40298ZM11.1926 5.34606C11.2492 5.07845 11.2793 4.80121 11.2793 4.517C11.2793 4.18372 11.2378 3.86014 11.1609 3.55035H16.6606V5.34606H11.1926ZM17.7848 6.0636V2.83295L23.4788 2.83442C23.0833 3.36887 22.8182 4.00478 22.7284 4.6951L21.627 6.06353H17.7847L17.7848 6.0636ZM15.686 13.9484C15.686 12.1054 17.1297 10.6618 18.9726 10.6618C20.6767 10.6618 22.0816 11.9654 22.2434 13.6277C22.2439 13.636 22.2443 13.6441 22.2452 13.6523C22.254 13.7499 22.2592 13.8485 22.2592 13.9484V23.9936C22.2592 24.162 22.2463 24.3273 22.2218 24.4889C22.2214 24.4919 22.2209 24.4948 22.2204 24.4978C21.9772 26.0716 20.6134 27.2803 18.9726 27.2803C17.3318 27.2803 15.9697 26.0729 15.7252 24.5004C15.7246 24.4957 15.7237 24.491 15.723 24.4862C15.6987 24.3255 15.686 24.1611 15.686 23.9937V13.9484ZM10.1272 27.8424C10.1272 26.3478 11.3432 25.1318 12.8378 25.1318H14.7115C15.2147 27.014 16.934 28.4045 18.9726 28.4045C21.0113 28.4045 22.7305 27.014 23.2337 25.1318H24.8403C26.3349 25.1318 27.5509 26.3478 27.5509 27.8424V30.1085H10.1272V27.8424H10.1272ZM33.3629 34.2562H4.31536V31.9004C4.31536 31.5323 4.61489 31.2327 4.98304 31.2327H32.6952C33.0634 31.2327 33.3629 31.5323 33.3629 31.9004V34.2562H33.3629ZM18.9726 16.984C20.3188 16.984 21.4142 15.8887 21.4142 14.5424C21.4142 13.196 20.3189 12.1008 18.9726 12.1008C17.6264 12.1008 16.531 13.1961 16.531 14.5424C16.531 15.8886 17.6263 16.984 18.9726 16.984ZM18.9726 13.225C19.699 13.225 20.29 13.816 20.29 14.5424C20.29 15.2688 19.699 15.8598 18.9726 15.8598C18.2462 15.8598 17.6552 15.2688 17.6552 14.5424C17.6552 13.8159 18.2462 13.225 18.9726 13.225Z" fill="#2B3990"/>
</svg>
