<svg width="683" height="683" viewBox="0 0 683 683" fill="none" xmlns="http://www.w3.org/2000/svg">
<g clip-path="url(#clip0_1197_2376)">
<mask id="mask0_1197_2376" style="mask-type:luminance" maskUnits="userSpaceOnUse" x="0" y="0" width="683" height="683">
<path d="M0 0.000366211H682.667V682.667H0V0.000366211Z" fill="white"/>
</mask>
<g mask="url(#mask0_1197_2376)">
<path d="M432.438 266.862L407.246 315.996H432.438V266.862ZM431.871 341.772H390.666C387.494 341.772 384.888 341.545 382.886 341.129C380.847 340.676 378.846 339.126 376.88 336.405C375.182 333.721 374.312 331.038 374.312 328.317C374.312 326.352 375.672 323.062 378.354 318.377L418.992 246.793C423.032 239.461 429.491 235.757 438.292 235.757C445.279 235.757 450.83 238.025 454.947 242.56C459.064 247.133 461.103 253.142 461.103 260.626V315.617H464.238C467.902 315.617 471.074 316.941 473.718 319.586C476.323 322.232 477.644 325.332 477.644 328.884C477.644 332.322 476.323 335.385 473.604 338.068C470.922 340.525 467.599 341.772 463.671 341.772H461.103V357.57C461.103 361.501 459.706 364.902 456.872 367.812C454.078 370.685 450.64 372.121 446.6 372.121C442.672 372.121 439.236 370.685 436.29 367.812C433.344 364.902 431.871 361.501 431.871 357.57V341.772ZM316.755 343.585H350.218C353.804 343.585 357.054 344.87 359.962 347.478C362.68 350.162 364.04 353.224 364.04 356.664C364.04 360.216 362.718 363.466 360.15 366.414C357.582 368.984 354.41 370.269 350.595 370.269H286.427C282.122 370.269 278.61 369.06 275.854 366.604C273.095 364.146 271.736 360.972 271.736 357.041C271.736 354.206 273.548 350.578 277.25 346.156L300.023 319.662C311.052 306.812 318.228 298.157 321.551 293.734C326.952 286.252 329.632 280.128 329.632 275.329C329.632 271.889 328.387 268.902 325.856 266.409C323.364 263.876 320.267 262.629 316.567 262.629C309.354 262.629 304.216 266.749 301.156 274.95L298.551 281.753C296.096 288.14 292.055 291.353 286.427 291.353C277.363 291.353 272.831 286.364 272.831 276.424C272.831 265.389 277.288 255.75 286.239 247.549C295.188 239.309 305.802 235.228 318.039 235.228C330.314 235.228 340.472 238.932 348.479 246.34C356.523 253.785 360.527 262.932 360.527 273.854C360.527 283.681 356.864 293.848 349.499 304.392L337.906 319.133C334.242 323.781 327.179 331.945 316.755 343.585Z" fill="#2B3990"/>
<path d="M192.311 116.438C223.772 89.7543 261.955 70.0249 304.935 60.1996C364.796 46.5929 424.505 54.3022 476.097 78.3782M593.629 185.528C606.887 208.28 616.971 233.413 623.165 260.474C655.759 403.68 566.172 546.28 423.033 578.897C421.145 579.35 419.22 579.728 417.331 580.144" stroke="#2B3990" stroke-width="26.636" stroke-miterlimit="10" stroke-linecap="round" stroke-linejoin="round"/>
<path d="M204.85 186.359C232.948 152.683 271.887 127.625 317.888 117.119C361.322 107.216 404.679 111.751 442.975 127.549M503.1 473.676C477.607 496.768 445.996 513.813 410.079 521.977C396.596 525.077 383.112 526.74 369.819 527.117M550.839 229.18C557.487 243.013 562.736 257.829 566.286 273.439C575.2 312.632 572.404 351.787 560.167 387.163" stroke="#2B3990" stroke-width="26.636" stroke-miterlimit="10" stroke-linecap="round" stroke-linejoin="round"/>
<path d="M530.936 13.333H570.705C583.32 13.333 593.631 23.6504 593.631 36.2744V78.3784H635.704C648.317 78.3784 658.667 88.7344 658.667 101.357V141.156C658.667 153.778 648.317 164.097 635.704 164.097H593.631V206.238C593.631 218.861 583.32 229.18 570.705 229.18H530.936C518.321 229.18 507.973 218.861 507.973 206.238V164.097H465.901C453.287 164.097 442.975 153.778 442.975 141.156V101.357C442.975 88.7344 453.287 78.3784 465.901 78.3784H507.973V36.2744C507.973 23.6504 518.321 13.333 530.936 13.333Z" stroke="#2B3990" stroke-width="26.636" stroke-miterlimit="10" stroke-linecap="round" stroke-linejoin="round"/>
<path d="M192.235 405.796C223.885 466.646 273.775 518.916 307.653 503.949C320.193 498.356 336.167 489.588 362.153 518.614L434.742 599.57C460.198 627.954 399.921 660.685 356.374 667.073C220.221 686.99 129.617 571.716 75.4954 462.866C22.9234 353.261 -12.2379 210.888 87.1287 115.644C118.929 85.1825 181.774 57.7424 188.497 95.2731L207.721 202.308C214.595 240.67 197.901 247.889 185.777 254.352C153.146 271.889 163.721 343.397 192.235 405.796Z" stroke="#2B3990" stroke-width="26.636" stroke-miterlimit="10" stroke-linecap="round" stroke-linejoin="round"/>
<path d="M535.846 435.919L535.959 435.692" stroke="#2B3990" stroke-width="26.636" stroke-miterlimit="10" stroke-linecap="round" stroke-linejoin="round"/>
</g>
</g>
<defs>
<clipPath id="clip0_1197_2376">
<rect width="682.667" height="682.667" fill="white"/>
</clipPath>
</defs>
</svg>
