<svg width="60" height="61" viewBox="0 0 60 61" fill="none" xmlns="http://www.w3.org/2000/svg">
<path d="M29.2798 33.1399V46.9399C29.2798 47.2999 28.9798 47.6599 28.5598 47.6599H10.9798C10.6198 47.6599 10.2598 47.3599 10.2598 46.9399C10.2598 46.5799 10.5598 46.2199 10.9798 46.2199H27.8398V33.8599H10.9798C10.6198 33.8599 10.2598 33.5599 10.2598 33.1399C10.2598 32.7199 10.5598 32.4199 10.9798 32.4199H28.5598C28.9198 32.4799 29.2798 32.7799 29.2798 33.1399ZM17.4598 45.4399C15.7798 45.4399 14.3398 44.0599 14.3398 42.3199C14.3398 41.4799 14.6398 40.6999 15.2398 40.1599L17.5198 37.8799L19.7998 35.5999C20.9998 34.3999 22.9798 34.3999 24.1798 35.5999C25.3798 36.7999 25.3798 38.7799 24.1798 39.9799L19.6198 44.5399C19.0798 45.1399 18.2998 45.4399 17.4598 45.4399ZM19.0798 38.3599L21.4798 40.7599L23.2798 38.9599C23.9398 38.2999 23.9398 37.2199 23.2798 36.5599C22.6198 35.8999 21.5398 35.8999 20.8798 36.5599L19.0798 38.3599ZM18.6598 43.5199L20.4598 41.7199L18.0598 39.3199L16.2598 41.1199C15.5998 41.7799 15.5998 42.8599 16.2598 43.5199C16.9198 44.1799 17.9998 44.1799 18.6598 43.5199Z" fill="#2B3990"/>
<path d="M52.8605 29.4199C53.2205 29.4199 53.5805 29.1199 53.5805 28.6999V23.9599C53.5805 23.5999 53.2805 23.2399 52.8605 23.2399H52.1405V15.3799C52.1405 15.0199 51.8405 14.6599 51.4205 14.6599H37.8005C37.4405 14.6599 37.0805 14.9599 37.0805 15.3799C37.0805 15.7399 37.3805 16.0999 37.8005 16.0999H50.7005V23.2999H9.30047V16.0999H22.2005C22.5605 16.0999 22.9205 15.7999 22.9205 15.3799C22.9205 15.0199 22.6205 14.6599 22.2005 14.6599H8.64047C8.28047 14.6599 7.92047 14.9599 7.92047 15.3799V23.2399H7.20047C6.84047 23.2399 6.48047 23.5399 6.48047 23.9599V28.6999C6.48047 29.0599 6.78047 29.4199 7.20047 29.4199H10.3205V51.3199H9.00047C7.62047 51.3199 6.54047 52.3999 6.54047 53.7799V55.5799C6.54047 55.9399 6.84047 56.2999 7.26047 56.2999H52.9205C53.2805 56.2999 53.6405 55.9999 53.6405 55.5799V53.7799C53.6405 52.3999 52.5605 51.3199 51.1805 51.3199H49.8605V29.4199H52.8605ZM7.86047 24.6799H52.1405V28.0399H7.86047V24.6799ZM52.1405 53.8399V54.9199H7.86047V53.8399C7.86047 53.2399 8.34047 52.7599 8.94047 52.7599H51.0605C51.6605 52.7599 52.1405 53.2399 52.1405 53.8399ZM44.8805 37.0999V51.3799H40.1405V37.0999H44.8805ZM38.7005 51.3199H33.9605V37.0999H38.7005V51.3199ZM48.3005 51.3199H46.3205V36.3799C46.3205 36.0199 46.0205 35.6599 45.6005 35.6599H33.2405C32.8805 35.6599 32.5205 35.9599 32.5205 36.3799V51.3199H11.7005V29.4199H48.3005V51.3199ZM40.7405 45.1399V43.3399C40.7405 42.9799 41.0405 42.6199 41.4605 42.6199C41.8205 42.6199 42.1805 42.9199 42.1805 43.3399V45.1399C42.1805 45.4999 41.8805 45.8599 41.4605 45.8599C41.0405 45.7999 40.7405 45.4999 40.7405 45.1399ZM36.7205 45.1399V43.3399C36.7205 42.9799 37.0205 42.6199 37.4405 42.6199C37.8605 42.6199 38.1605 42.9199 38.1605 43.3399V45.1399C38.1605 45.4999 37.8605 45.8599 37.4405 45.8599C37.0205 45.8599 36.7205 45.4999 36.7205 45.1399Z" fill="#2B3990" stroke="#2B3990" stroke-width="0.3427" stroke-miterlimit="10"/>
<path d="M30.0002 4.69995C25.2002 4.69995 21.2402 8.59995 21.2402 13.46C21.2402 18.32 25.2002 22.16 30.0002 22.16C34.8002 22.16 38.7602 18.26 38.7602 13.4C38.7602 8.59995 34.8002 4.69995 30.0002 4.69995ZM30.0002 20.78C25.9802 20.78 22.6802 17.48 22.6802 13.46C22.6802 9.43995 25.9802 6.13995 30.0002 6.13995C34.0202 6.13995 37.3202 9.43995 37.3202 13.46C37.3202 17.48 34.0202 20.78 30.0002 20.78ZM34.2002 11.06H32.4002V9.25995C32.4002 8.89995 32.1002 8.53995 31.6802 8.53995H28.3202C27.9602 8.53995 27.6002 8.83995 27.6002 9.25995V11.06H25.8002C25.4402 11.06 25.0802 11.36 25.0802 11.78V15.14C25.0802 15.5 25.3802 15.86 25.8002 15.86H27.6002V17.66C27.6002 18.02 27.9002 18.38 28.3202 18.38H31.6802C32.0402 18.38 32.4002 18.08 32.4002 17.66V15.86H34.2002C34.5602 15.86 34.9202 15.56 34.9202 15.14V11.78C34.9202 11.36 34.5602 11.06 34.2002 11.06ZM33.4802 14.42H31.6802C31.3202 14.42 30.9602 14.72 30.9602 15.14V16.94H29.0402V15.14C29.0402 14.78 28.7402 14.42 28.3202 14.42H26.5202V12.5H28.3202C28.6802 12.5 29.0402 12.2 29.0402 11.78V9.97995H30.9602V11.78C30.9602 12.14 31.2602 12.5 31.6802 12.5H33.4802V14.42Z" fill="#2B3990"/>
</svg>
