<svg width="52" height="50" viewBox="0 0 52 50" fill="none" xmlns="http://www.w3.org/2000/svg">
<path d="M49.2198 49.1201H30.9798C29.7198 49.1201 28.7598 48.0401 28.7598 46.6601V37.5401C28.7598 35.2601 30.6198 33.3401 32.9598 33.3401H36.7398V34.6001H32.9598C31.3398 34.6001 30.0198 35.9201 30.0198 37.5401V46.7201C30.0198 47.3801 30.4998 47.9201 31.0398 47.9201H49.2798C49.8198 47.9201 50.2998 47.3801 50.2998 46.7201V37.5401C50.2998 35.9201 48.9798 34.6001 47.3598 34.6001H43.0398V33.3401H47.3598C49.6398 33.3401 51.5598 35.2001 51.5598 37.5401V46.7201C51.4398 48.0401 50.4798 49.1201 49.2198 49.1201Z" fill="#2B3990" stroke="#2B3990" stroke-width="0.3789" stroke-miterlimit="10"/>
<path d="M21.0205 49.1201H2.78055C1.52055 49.1201 0.560547 48.0401 0.560547 46.6601V37.5401C0.560547 35.2601 2.42055 33.3401 4.76055 33.3401H9.08055V34.6001H4.76055C3.14055 34.6001 1.82055 35.9201 1.82055 37.5401V46.7201C1.82055 47.3801 2.30055 47.9201 2.84055 47.9201H21.0805C21.6205 47.9201 22.1005 47.3801 22.1005 46.7201V37.5401C22.1005 35.9201 20.7805 34.6001 19.1605 34.6001H15.3805V33.3401H19.1605C21.4405 33.3401 23.3605 35.2001 23.3605 37.5401V46.7201C23.3005 48.0401 22.2805 49.1201 21.0205 49.1201Z" fill="#2B3990" stroke="#2B3990" stroke-width="0.3789" stroke-miterlimit="10"/>
<path d="M19.5201 18.5801C19.3401 18.5801 19.1601 18.5201 19.0401 18.3401L15.8601 14.2601H8.66008C7.22008 14.2601 6.08008 13.3601 6.08008 12.2201V2.86007C6.08008 1.72007 7.22008 0.820068 8.66008 0.820068H26.0601C27.5001 0.820068 28.6401 1.72007 28.6401 2.86007V3.58007H27.3801V2.86007C27.3801 2.50007 26.7801 2.08007 26.0601 2.08007H8.66008C7.88008 2.08007 7.34008 2.50007 7.34008 2.86007V12.2201C7.34008 12.5801 7.94008 13.0001 8.66008 13.0001H16.1001C16.2801 13.0001 16.4601 13.0601 16.5801 13.2401L18.9201 16.2401L19.0401 13.6001C19.0401 13.2401 19.3401 13.0001 19.6401 13.0001H23.9001V14.2601H20.2401L20.1201 17.9801C20.1201 18.2201 19.9401 18.4601 19.7001 18.5201C19.6401 18.5801 19.5801 18.5801 19.5201 18.5801Z" fill="#2B3990"/>
<path d="M25.8813 4.17998C25.1013 4.17998 24.5613 4.59998 24.5613 4.95998V14.32C24.5613 14.68 25.1613 15.1 25.8813 15.1H30.3213C30.6813 15.1 30.9213 15.34 30.9213 15.7L31.0413 18.34L33.3813 15.34C33.5013 15.22 33.6813 15.1 33.8613 15.1H43.2813C44.0613 15.1 44.6013 14.68 44.6013 14.32V5.01998C44.6013 4.65998 44.0013 4.23998 43.2813 4.23998H25.8813V4.17998ZM30.5013 20.68C30.4413 20.68 30.3813 20.68 30.3213 20.68C30.0813 20.62 29.9013 20.38 29.9013 20.14L29.7813 16.42H25.9413C24.5013 16.42 23.3613 15.52 23.3613 14.38V5.01998C23.3613 3.87998 24.5013 2.97998 25.9413 2.97998H43.3413C44.7813 2.97998 45.9213 3.87998 45.9213 5.01998V14.38C45.9213 15.52 44.7813 16.42 43.3413 16.42H34.1613L30.9813 20.5C30.8613 20.62 30.6813 20.68 30.5013 20.68Z" fill="#2B3990"/>
<path d="M40.1016 41.86C38.2416 41.86 36.3816 41.08 34.9416 39.58C33.5616 38.14 32.6016 36.22 32.1816 34.06C32.1816 33.88 32.1816 33.7 32.3016 33.58C32.4216 33.46 32.6016 33.34 32.7816 33.34H36.6216V34.6H33.5616C34.4616 38.14 37.1016 40.6 40.1016 40.6C43.1016 40.6 45.7416 38.08 46.6416 34.54H43.0416V33.28H47.4216C47.6016 33.28 47.7816 33.34 47.9016 33.52C48.0216 33.64 48.0816 33.82 48.0216 34C47.6616 36.16 46.7016 38.14 45.2616 39.52C43.8216 41.02 41.9616 41.86 40.1016 41.86Z" fill="#2B3990" stroke="#2B3990" stroke-width="0.3789" stroke-miterlimit="10"/>
<path d="M39.9205 37.9602C38.3005 37.9602 36.8005 36.8802 36.3205 35.2002L35.4805 32.0802L36.6805 31.7802L37.5205 34.9002C37.8805 36.2202 39.2005 37.0002 40.5205 36.6402C41.8405 36.2802 42.6205 34.9602 42.2605 33.6402L41.4205 30.4602L42.6205 30.1602L43.4605 33.3402C44.0005 35.3202 42.8005 37.3602 40.8205 37.9002C40.5805 37.9602 40.2205 37.9602 39.9205 37.9602Z" fill="#2B3990" stroke="#2B3990" stroke-width="0.3789" stroke-miterlimit="10"/>
<path d="M6.50234 49.1201C6.14234 49.1201 5.90234 48.8201 5.90234 48.5201V44.4401C5.90234 44.0801 6.20234 43.8401 6.50234 43.8401C6.86234 43.8401 7.10234 44.1401 7.10234 44.4401V48.5201C7.10234 48.8801 6.86234 49.1201 6.50234 49.1201ZM17.3023 49.1201C16.9423 49.1201 16.7023 48.8201 16.7023 48.5201V44.4401C16.7023 44.0801 17.0023 43.8401 17.3023 43.8401C17.6623 43.8401 17.9023 44.1401 17.9023 44.4401V48.5201C17.9623 48.8801 17.6623 49.1201 17.3023 49.1201Z" fill="#2B3990" stroke="#2B3990" stroke-width="0.3789" stroke-miterlimit="10"/>
<path d="M11.9014 44.1401C11.7214 44.1401 11.4814 44.0201 11.3614 43.8401L4.94141 34.3001L5.96141 33.5801L11.9014 42.4001L17.8414 33.5801L18.8614 34.3001L12.4414 43.8401C12.3214 44.0201 12.1414 44.1401 11.9014 44.1401Z" fill="#2B3990" stroke="#2B3990" stroke-width="0.3789" stroke-miterlimit="10"/>
<path d="M12.0804 37.9601C11.7804 37.9601 11.4204 37.9001 11.1204 37.8401C9.14044 37.3001 8.00044 35.2601 8.48044 33.2801L9.32044 30.1001L10.5204 30.4001L9.68044 33.5801C9.32044 34.9001 10.1004 36.2201 11.4204 36.5801C12.7404 36.9401 14.0604 36.1601 14.4204 34.8401L15.2604 31.7201L16.4604 32.0201L15.6204 35.1401C15.2004 36.8801 13.7004 37.9601 12.0804 37.9601Z" fill="#2B3990" stroke="#2B3990" stroke-width="0.3789" stroke-miterlimit="10"/>
<path d="M39.3818 8.08013H28.9418C28.5818 8.08013 28.3418 7.78013 28.3418 7.48013C28.3418 7.12013 28.6418 6.88013 28.9418 6.88013H39.4418C39.8018 6.88013 40.0418 7.18013 40.0418 7.48013C40.0418 7.78013 39.7418 8.08013 39.3818 8.08013ZM39.3818 12.5201H28.9418C28.5818 12.5201 28.3418 12.2201 28.3418 11.9201C28.3418 11.5601 28.6418 11.3201 28.9418 11.3201H39.4418C39.8018 11.3201 40.0418 11.6201 40.0418 11.9201C40.0418 12.2201 39.7418 12.5201 39.3818 12.5201Z" fill="#2B3990" stroke="#2B3990" stroke-width="0.3789" stroke-miterlimit="10"/>
<path d="M11.1213 8.20024H10.4613C10.1013 8.20024 9.86133 7.90024 9.86133 7.60024C9.86133 7.24024 10.1613 7.00024 10.4613 7.00024H11.1213C11.4813 7.00024 11.7213 7.30024 11.7213 7.60024C11.7213 7.90024 11.4813 8.20024 11.1213 8.20024ZM19.7013 8.20024H19.0413C18.6813 8.20024 18.4413 7.90024 18.4413 7.60024C18.4413 7.24024 18.7413 7.00024 19.0413 7.00024H19.7013C20.0613 7.00024 20.3013 7.30024 20.3013 7.60024C20.3013 7.90024 20.0013 8.20024 19.7013 8.20024ZM15.3813 8.20024H14.7213C14.3613 8.20024 14.1213 7.90024 14.1213 7.60024C14.1213 7.24024 14.4213 7.00024 14.7213 7.00024H15.3813C15.7413 7.00024 15.9813 7.30024 15.9813 7.60024C16.0413 7.90024 15.7413 8.20024 15.3813 8.20024Z" fill="#2B3990" stroke="#2B3990" stroke-width="0.3789" stroke-miterlimit="10"/>
<path d="M34.7016 49.1201C34.3416 49.1201 34.1016 48.8201 34.1016 48.5201V44.4401C34.1016 44.0801 34.4016 43.8401 34.7016 43.8401C35.0616 43.8401 35.3016 44.1401 35.3016 44.4401V48.5201C35.3016 48.8801 35.0016 49.1201 34.7016 49.1201ZM45.5016 49.1201C45.1416 49.1201 44.9016 48.8201 44.9016 48.5201V44.4401C44.9016 44.0801 45.2016 43.8401 45.5016 43.8401C45.8616 43.8401 46.1016 44.1401 46.1016 44.4401V48.5201C46.1016 48.8801 45.8616 49.1201 45.5016 49.1201Z" fill="#2B3990" stroke="#2B3990" stroke-width="0.3789" stroke-miterlimit="10"/>
<path d="M37.4622 19.5402C36.8622 19.5402 36.3222 19.6002 35.7222 19.8402C33.4422 20.5602 31.5222 22.7202 32.3622 25.8402C33.0222 28.3602 34.3422 30.2802 36.0222 31.1802C37.1022 31.7802 38.3022 31.9002 39.3822 31.5402C41.6622 30.8202 43.3422 27.9402 42.0822 23.2002C41.7222 21.7602 40.8822 20.6802 39.8022 20.0802C39.0822 19.7202 38.3022 19.5402 37.4622 19.5402ZM38.1822 33.0402C37.2822 33.0402 36.3222 32.8002 35.4222 32.3202C33.4422 31.2402 31.9422 29.0802 31.1622 26.2002C30.0822 22.3002 32.6022 19.5402 35.3022 18.7002C37.0422 18.1602 38.8422 18.2802 40.3422 19.1202C41.7822 19.9002 42.8022 21.2202 43.2822 23.0202C44.7822 28.5402 42.6222 31.9602 39.8022 32.8602C39.2622 32.9202 38.7222 33.0402 38.1822 33.0402Z" fill="#2B3990" stroke="#2B3990" stroke-width="0.3789" stroke-miterlimit="10"/>
<path d="M9.92128 23.2602C8.60128 28.0002 10.3413 30.8802 12.5613 31.6002C13.6413 31.9602 14.8413 31.8402 15.9213 31.2402C17.6013 30.3402 18.9213 28.4202 19.5813 25.9002C20.4213 22.7202 18.5013 20.6202 16.2213 19.9002C14.8413 19.4202 13.3413 19.5402 12.1413 20.2002C11.0613 20.7402 10.2813 21.8202 9.92128 23.2602ZM13.8213 33.0402C13.2813 33.0402 12.7413 32.9802 12.2013 32.8002C9.38128 31.9002 7.22128 28.4802 8.72128 22.9602C9.20128 21.2202 10.2213 19.8402 11.6613 19.0602C13.1613 18.2802 14.9613 18.1002 16.7013 18.6402C19.4613 19.5402 21.9213 22.2402 20.8413 26.1402C20.0613 29.0202 18.5613 31.1802 16.5813 32.2602C15.6813 32.8002 14.7213 33.0402 13.8213 33.0402Z" fill="#2B3990" stroke="#2B3990" stroke-width="0.3789" stroke-miterlimit="10"/>
</svg>
