<svg width="61" height="60" viewBox="0 0 61 60" fill="none" xmlns="http://www.w3.org/2000/svg">
<path d="M28.6994 54.36C22.0994 54.36 15.4994 51.36 11.2394 45.66C7.75941 40.98 6.31941 35.28 7.15941 29.52C7.99941 23.76 10.9994 18.72 15.6794 15.24C24.1994 8.87997 36.0194 9.53997 43.6994 16.92C43.9994 17.22 43.9994 17.7 43.6994 17.94C43.3994 18.24 42.9194 18.24 42.6794 17.94C35.4794 11.1 24.4994 10.44 16.5794 16.38C12.2594 19.62 9.43941 24.36 8.65941 29.7C7.87941 35.04 9.25941 40.38 12.4994 44.7C19.2194 53.64 31.8794 55.5 40.8794 48.78C48.7394 42.9 51.2594 32.34 46.8794 23.58C46.6994 23.22 46.8194 22.8 47.2394 22.56C47.5994 22.38 48.0194 22.5 48.2594 22.92C52.8194 32.4 50.0594 43.8 41.6594 50.04C37.7594 52.98 33.1994 54.36 28.6994 54.36Z" fill="#2B3990" stroke="#2B3990" stroke-width="0.5044" stroke-miterlimit="10"/>
<path d="M22.2198 42.8399C21.5598 42.8399 20.8998 42.5399 20.4798 41.9999L18.2598 39.1799C17.8998 38.6999 17.7198 38.0999 17.8398 37.5599C17.8998 36.9599 18.1998 36.4199 18.6798 36.0599L24.2598 31.7399C24.5598 31.4999 25.0398 31.5599 25.2798 31.8599C25.5198 32.1599 25.4598 32.6399 25.1598 32.8799L19.5198 37.1999C19.3398 37.3199 19.2798 37.4999 19.2198 37.6799C19.2198 37.8599 19.2798 38.0399 19.3998 38.2199L21.6198 41.0399C21.8598 41.3399 22.3398 41.3999 22.6398 41.1599L27.5598 37.3199C27.8598 37.0799 28.3398 37.1399 28.5798 37.4399C28.8198 37.7399 28.7598 38.2199 28.4598 38.4599L23.5398 42.2999C23.1798 42.7199 22.6998 42.8399 22.2198 42.8399Z" fill="#2B3990"/>
<path d="M44.5993 25.9199C44.5393 25.9199 44.5393 25.9199 44.4793 25.9199C44.2993 25.9199 44.1193 25.7999 43.9993 25.6199L40.0993 20.3399C39.8593 20.0399 39.9193 19.5599 40.2193 19.3199L44.7193 15.8399C45.6793 15.0599 47.0593 15.2399 47.8393 16.2599L50.0593 19.0799C50.4193 19.5599 50.5993 20.1599 50.4793 20.6999C50.4193 21.2999 50.1193 21.8399 49.6393 22.1999L45.0193 25.7999C44.8993 25.8599 44.7193 25.9199 44.5993 25.9199ZM41.7193 20.0399L44.7793 24.1199L48.7993 20.9999C48.9793 20.8799 49.0393 20.6999 49.0993 20.5199C49.0993 20.3399 49.0393 20.1599 48.9193 19.9799L46.6993 17.1599C46.4593 16.8599 45.9793 16.7999 45.6793 17.0399L41.7193 20.0399Z" fill="#2B3990"/>
<path d="M22.2187 42.8399C22.0987 42.8399 22.0387 42.8399 21.9187 42.8399C21.3187 42.7799 20.8387 42.4799 20.4787 41.9999L18.2587 39.1199C17.5387 38.1599 17.7187 36.7799 18.6187 36.0599L24.2587 31.7399C24.5587 31.4999 25.0387 31.5599 25.2787 31.8599C25.5187 32.1599 25.4587 32.6399 25.1587 32.8799L19.5187 37.1999C19.2187 37.4399 19.1587 37.9199 19.3987 38.2199L21.6187 41.0999C21.7387 41.2799 21.9187 41.3399 22.0987 41.3399C22.2787 41.3399 22.4587 41.3399 22.6387 41.2199L28.1587 36.9599C28.4587 36.7199 28.9387 36.7799 29.1787 37.0799C29.4187 37.3799 29.3587 37.8599 29.0587 38.0999L23.5387 42.3599C23.1787 42.7199 22.6987 42.8399 22.2187 42.8399Z" fill="#2B3990"/>
<path d="M35.5999 47.5799C35.3599 47.5799 35.1199 47.4599 34.9999 47.2799L16.3999 22.4399C16.1599 22.1399 16.2199 21.6599 16.5799 21.4199C16.9399 21.1799 17.3599 21.2399 17.5999 21.5999L36.1999 46.4399C36.4399 46.7399 36.3799 47.2199 36.0199 47.4599C35.8999 47.5199 35.7199 47.5799 35.5999 47.5799Z" fill="#2B3990"/>
<path d="M40.3987 43.98C40.1587 43.98 39.9187 43.86 39.7987 43.68L21.1987 18.84C20.9587 18.54 21.0187 18.06 21.3787 17.82C21.7387 17.58 22.1587 17.64 22.3987 18L40.9987 42.84C41.2387 43.14 41.1787 43.62 40.8187 43.86C40.6987 43.92 40.5187 43.98 40.3987 43.98Z" fill="#2B3990"/>
<path d="M52.6398 16.9198C52.3998 16.9198 52.2198 16.8598 52.0398 16.6798C51.7998 16.3798 51.7998 15.8998 52.0998 15.6598C52.2198 15.5998 53.0598 14.7598 52.2198 13.2598C50.7798 10.7398 52.2198 8.93985 52.2798 8.81985C52.5198 8.51985 52.9998 8.45985 53.2998 8.69985C53.5998 8.93985 53.6598 9.41985 53.4198 9.71985C53.3598 9.77985 52.5798 10.9198 53.4798 12.4798C54.6798 14.5798 53.7198 16.1398 53.0598 16.7398C52.9398 16.8598 52.7598 16.9198 52.6398 16.9198Z" fill="#2B3990"/>
<path d="M48.4992 14.04C48.2592 14.04 48.0792 13.98 47.8992 13.8C47.6592 13.5 47.6592 13.02 47.9592 12.78C48.0792 12.72 48.9192 11.88 48.0792 10.38C46.6392 7.85997 48.0792 6.05997 48.1392 5.93997C48.3792 5.63997 48.8592 5.57997 49.1592 5.81997C49.4592 6.05997 49.5192 6.53997 49.2792 6.83997C49.2192 6.89997 48.4392 8.03997 49.3392 9.59997C50.5392 11.7 49.5792 13.26 48.9192 13.86C48.7992 13.98 48.6792 14.04 48.4992 14.04Z" fill="#2B3990"/>
<path d="M28.6391 49.1999C23.5391 49.1999 18.5591 46.8599 15.3791 42.5399C10.6391 36.1799 11.0591 27.3599 16.3991 21.4799C17.0591 20.6999 17.8391 20.0399 18.6791 19.3799C19.5191 18.7199 20.4191 18.1799 21.3791 17.6999C27.3791 14.7599 34.7591 15.8399 39.7391 20.3399C40.0391 20.6399 40.0391 21.0599 39.7991 21.3599C39.4991 21.6599 39.0791 21.6599 38.7791 21.4199C34.2791 17.3399 27.5591 16.3199 22.0991 19.0199C21.1991 19.4399 20.4191 19.9199 19.6391 20.5199C18.8591 21.1199 18.1391 21.7199 17.5391 22.4399C12.6791 27.7799 12.2591 35.8199 16.5791 41.6399C20.8991 47.4599 28.7591 49.3199 35.2391 46.1999C36.0791 45.7799 36.9191 45.2999 37.6391 44.6999C38.4191 44.0999 39.1391 43.4399 39.7991 42.7799C43.6991 38.5199 44.7791 32.2799 42.5591 26.9399C42.3791 26.5799 42.5591 26.1599 42.9791 25.9799C43.3391 25.7999 43.7591 25.9799 43.9391 26.3999C46.3391 32.2799 45.1391 39.1199 40.8791 43.7999C40.1591 44.5799 39.3791 45.2999 38.5391 45.9599C37.6991 46.6199 36.7991 47.1599 35.8391 47.5799C33.5591 48.6599 31.0991 49.1999 28.6391 49.1999Z" fill="#2B3990" stroke="#2B3990" stroke-width="0.5044" stroke-miterlimit="10"/>
<path d="M33.5599 34.4399C33.3199 34.4399 33.1399 34.3199 32.9599 34.1399C32.7199 33.8399 32.7799 33.3599 33.0799 33.1199L48.7399 20.9999C48.9199 20.8799 48.9799 20.6999 49.0399 20.5199C49.0399 20.3399 48.9799 20.1599 48.8599 19.9799L46.6399 17.1599C46.3999 16.8599 45.9199 16.7999 45.6199 17.0399L30.2599 28.8599C29.9599 29.0999 29.4799 29.0399 29.2399 28.7399C28.9999 28.4399 29.0599 27.9599 29.3599 27.7199L44.7199 15.8399C45.6799 15.0599 47.0599 15.2399 47.8399 16.2599L50.0599 19.0799C50.4199 19.5599 50.5999 20.1599 50.4799 20.6999C50.4199 21.2999 50.1199 21.8399 49.6399 22.1999L33.9799 34.3199C33.8599 34.3799 33.6799 34.4399 33.5599 34.4399Z" fill="#2B3990"/>
</svg>
