<svg width="49" height="52" viewBox="0 0 49 52" fill="none" xmlns="http://www.w3.org/2000/svg">
<path d="M36.5002 46.16C35.4202 46.16 34.4602 45.74 33.7402 44.96L33.3202 44.6C32.5402 43.82 31.5802 43.4 30.5002 43.4C29.4202 43.4 28.4602 43.82 27.6802 44.6L27.2602 45.02C26.5402 45.8 25.5802 46.22 24.5002 46.22C23.4202 46.22 22.4602 45.8 21.7402 45.02L21.3202 44.6C20.5402 43.82 19.5802 43.4 18.5002 43.4C17.4202 43.4 16.4602 43.82 15.6802 44.6L15.3202 45.02C14.5402 45.8 13.6402 46.22 12.5602 46.22C11.4802 46.22 10.5202 45.8 9.80016 45.02L9.32016 44.6C8.54016 43.82 7.58016 43.4 6.50016 43.4C6.26016 43.4 6.08016 43.4 5.90016 43.46L5.66016 42.08C5.90016 42.02 6.20016 42.02 6.50016 42.02C8.00016 42.02 9.26016 42.56 10.3402 43.64L10.7602 44.06C11.2402 44.6 11.8402 44.84 12.5602 44.84C13.2802 44.84 13.8802 44.6 14.3602 44.06L14.7202 43.64C15.7402 42.56 17.0602 42.02 18.5602 42.02C20.0602 42.02 21.3202 42.56 22.3402 43.64L22.7602 44.06C23.2402 44.6 23.8402 44.84 24.5602 44.84C25.2802 44.84 25.8802 44.6 26.3602 44.06L26.7802 43.64C27.8002 42.56 29.1202 42.02 30.5602 42.02C32.0602 42.02 33.3202 42.56 34.3402 43.64L34.7602 44.06C35.2402 44.6 35.8402 44.84 36.5602 44.84C37.2802 44.84 37.8802 44.6 38.3602 44.06L38.7802 43.64C39.8002 42.56 41.1202 42.02 42.5602 42.02C42.8602 42.02 43.1002 42.02 43.4002 42.08L43.1002 43.46C42.9202 43.46 42.6802 43.4 42.5002 43.4C41.4202 43.4 40.4602 43.82 39.6802 44.6L39.2602 45.02C38.5402 45.8 37.5802 46.16 36.5002 46.16Z" fill="#2B3990"/>
<path d="M14.4196 31.4C14.4196 31.04 14.1196 30.74 13.7596 30.74C13.3996 30.74 13.0996 31.04 13.0996 31.4V40.1C13.0996 40.46 13.3996 40.76 13.7596 40.76H35.2996C35.6596 40.76 35.9596 40.46 35.9596 40.1V31.4C35.9596 31.04 35.6596 30.74 35.2996 30.74C34.9396 30.74 34.6396 31.04 34.6396 31.4V39.44H14.4196V31.4Z" fill="#2B3990" stroke="#2B3990" stroke-width="0.1476" stroke-miterlimit="10"/>
<path d="M40.58 23.1199C40.88 23.3599 41.24 23.3599 41.54 23.1199L48.32 16.3999C48.56 16.1599 48.62 15.7399 48.32 15.4399L42.02 8.71993L42.62 7.69993L42.8 7.39993C43.7 5.83993 43.16 3.79993 41.54 2.95993L38.72 1.33993C38 0.919926 37.1 0.799926 36.26 1.03993C35.42 1.27993 34.7 1.81993 34.28 2.59993L33.98 3.07993L31.22 1.87993C31.1 1.81993 30.92 1.81993 30.74 1.87993C28.64 2.47993 26.6 2.77993 24.5 2.77993C22.4 2.77993 20.36 2.47993 18.26 1.87993C18.08 1.81993 17.96 1.81993 17.78 1.87993L15.02 3.07993L14.9 2.83993L14.72 2.53993C14.3 1.75993 13.58 1.21993 12.74 0.979926C11.9 0.799926 11 0.919926 10.28 1.33993L7.46 2.95993C6.68 3.37993 6.14 4.09993 5.9 4.93993C5.66 5.77993 5.78 6.67993 6.2 7.39993L6.98 8.71993L0.68 15.4399C0.44 15.7399 0.44 16.1599 0.68 16.3999L7.52 23.1199C7.76 23.3599 8.18 23.3599 8.48 23.1199L13.1 19.0999V28.2799H3.86C3.68 28.2799 3.5 28.3399 3.32 28.5199C3.2 28.6999 3.14 28.8799 3.14 29.0599L5.84 47.8399C6.14 49.7599 7.52 51.0799 9.2 51.0799H39.8C41.48 51.0799 42.86 49.7599 43.16 47.8399L45.86 29.0599C45.86 28.8799 45.8 28.6399 45.68 28.5199C45.56 28.3399 45.38 28.2799 45.14 28.2799H35.96V19.0999L40.58 23.1199ZM35.3 3.49993L35.48 3.19993C35.72 2.77993 36.14 2.41993 36.62 2.29993C37.1 2.17993 37.64 2.23993 38.06 2.47993L40.88 4.09993C41.78 4.63993 42.14 5.77992 41.6 6.67992L39.2 10.8799C39.08 11.0599 38.9 11.1199 38.72 10.9999C38.54 10.8799 38.48 10.6999 38.6 10.5199L39.8 8.35993C39.98 8.05993 39.86 7.63993 39.56 7.39993C39.2 7.21993 38.84 7.33993 38.6 7.63993L37.28 9.97993L36.68 11.0599C36.56 11.2399 36.38 11.2999 36.2 11.1799C36.02 11.0599 35.96 10.8799 36.08 10.6999L38.06 7.21993C38.24 6.91993 38.12 6.49993 37.82 6.25993C37.52 6.07993 37.1 6.19993 36.86 6.49993L34.88 9.97993L34.1 11.4199C33.98 11.5999 33.8 11.6599 33.62 11.5399C33.44 11.4199 33.38 11.2399 33.5 11.0599L34.22 9.79992L36.2 6.31993C36.38 6.01993 36.26 5.59993 35.96 5.35993C35.66 5.17993 35.24 5.29993 35 5.59993L33.02 9.07992C32.9 9.25992 32.72 9.31993 32.54 9.19993C32.36 9.07993 32.3 8.89993 32.42 8.71993L35.3 3.49993ZM29.42 3.55993C28.22 5.05993 26.42 5.95993 24.5 5.95993C22.58 5.95993 20.72 5.05993 19.58 3.55993C21.2 3.91993 22.88 4.09993 24.5 4.09993C26.18 4.09993 27.8 3.91993 29.42 3.55993ZM8.12 4.09993L10.94 2.47993C11.36 2.23993 11.9 2.17993 12.38 2.29993C12.86 2.41993 13.28 2.77993 13.52 3.19993L16.64 8.71993C16.76 8.89993 16.7 9.13993 16.52 9.19993C16.34 9.31993 16.1 9.25992 16.04 9.07992L14.06 5.59993C13.88 5.29993 13.46 5.17993 13.1 5.35993C12.8 5.53993 12.68 5.95993 12.86 6.31993L14.84 9.79992L14.96 9.97993L15.56 11.0599C15.68 11.2399 15.62 11.4799 15.44 11.5399C15.26 11.6599 15.02 11.5999 14.96 11.4199L14.24 10.1599L12.26 6.67992C12.08 6.37993 11.66 6.25993 11.3 6.43993C11 6.61993 10.88 7.03993 11.06 7.39993L13.04 10.8799C13.16 11.0599 13.1 11.2999 12.92 11.3599C12.74 11.4799 12.5 11.4199 12.44 11.2399L11.84 10.1599L10.52 7.81993C10.34 7.51993 9.92 7.39992 9.56 7.57993C9.26 7.75992 9.14 8.17992 9.32 8.53993L10.52 10.6999C10.58 10.8199 10.58 10.9399 10.58 10.9999C10.58 11.0599 10.52 11.1799 10.4 11.2399C10.28 11.2999 10.16 11.2999 10.1 11.2999C10.04 11.2999 9.92 11.2399 9.86 11.1199L8.48 8.71993L7.64 7.21993L7.46 6.91993C6.86 5.77993 7.16 4.63993 8.12 4.09993ZM24.68 28.2799C24.32 28.2799 24.02 28.5799 24.02 28.9399C24.02 29.2999 24.32 29.5999 24.68 29.5999H44.36L41.78 47.5999C41.66 48.6199 40.94 49.6999 39.8 49.6999H9.2C8 49.6999 7.34 48.6799 7.22 47.5999L4.64 29.5999H19.82C20.18 29.5999 20.48 29.2999 20.48 28.9399C20.48 28.5799 20.18 28.2799 19.82 28.2799H14.42V17.6599V17.5999V17.5399C14.42 17.2999 14.24 17.0599 14 16.9399C13.76 16.8199 13.46 16.8799 13.28 17.0599L8 21.6799L2.12 15.8599L7.64 9.97993L8.54 11.5999C8.78 12.0199 9.14 12.3199 9.62 12.4399C10.04 12.5599 10.52 12.4999 10.94 12.2599C11.06 12.1999 11.18 12.1399 11.24 12.0199C11.78 12.7399 12.74 12.9199 13.52 12.4999C13.64 12.4399 13.76 12.3799 13.82 12.2599C14.18 12.6799 14.66 12.9199 15.2 12.9199C15.5 12.9199 15.8 12.8599 16.04 12.6799C16.82 12.2599 17.12 11.2999 16.82 10.5199C16.94 10.4599 17.06 10.4599 17.18 10.3399C18.02 9.85993 18.32 8.77992 17.84 7.93993L15.68 4.15993L17.78 3.25993C19.1 5.71993 21.74 7.27992 24.5 7.27992C27.32 7.27992 29.9 5.71993 31.22 3.25993L33.32 4.15993L31.16 7.93993C30.68 8.77992 30.98 9.85993 31.82 10.3399C31.94 10.3999 32.06 10.4599 32.18 10.5199C31.88 11.2999 32.18 12.2599 32.96 12.6799C33.26 12.8599 33.5 12.9199 33.8 12.9199C34.34 12.9199 34.82 12.6799 35.18 12.2599C35.3 12.3199 35.36 12.4399 35.48 12.4999C36.26 12.9199 37.22 12.7399 37.76 12.0199C37.88 12.0799 37.94 12.1999 38.06 12.2599C38.9 12.7399 39.98 12.4399 40.46 11.5999L41.36 9.97993L46.88 15.8599L41 21.6799L35.72 17.0599C35.54 16.8799 35.24 16.8199 35 16.9399C34.76 17.0599 34.58 17.2399 34.58 17.4799V17.5399V17.5999V28.1599L24.68 28.2799Z" fill="#2B3990" stroke="#2B3990" stroke-width="0.1476" stroke-miterlimit="10"/>
<path d="M29.3599 23.0599C27.7399 23.0599 26.4199 21.7399 26.4199 20.1199C26.4199 18.4999 27.7399 17.1799 29.3599 17.1799C30.9799 17.1799 32.2999 18.4999 32.2999 20.1199C32.2999 21.7399 30.9799 23.0599 29.3599 23.0599ZM29.3599 18.6199C28.5199 18.6199 27.7999 19.3399 27.7999 20.1799C27.7999 21.0199 28.5199 21.7399 29.3599 21.7399C30.1999 21.7399 30.9199 21.0199 30.9199 20.1799C30.9199 19.2799 30.1999 18.6199 29.3599 18.6199Z" fill="#2B3990"/>
<path d="M39.3796 39.1398C38.1196 39.1398 37.0996 38.1198 37.0996 36.8598C37.0996 35.5998 38.1196 34.5798 39.3796 34.5798C40.6396 34.5798 41.6596 35.5998 41.6596 36.8598C41.7196 38.1198 40.6996 39.1398 39.3796 39.1398ZM39.3796 35.8998C38.8396 35.8998 38.4196 36.3198 38.4196 36.8598C38.4196 37.3998 38.8396 37.8198 39.3796 37.8198C39.9196 37.8198 40.3396 37.3998 40.3396 36.8598C40.3396 36.3198 39.9196 35.8998 39.3796 35.8998Z" fill="#2B3990"/>
<path d="M22.2802 32.0598C20.5402 32.0598 19.1602 30.6798 19.1602 28.9398C19.1602 27.1998 20.5402 25.8198 22.2802 25.8198C24.0202 25.8198 25.4002 27.1998 25.4002 28.9398C25.4002 30.6798 23.9602 32.0598 22.2802 32.0598ZM22.2802 27.1998C21.3202 27.1998 20.5402 27.9798 20.5402 28.9398C20.5402 29.8998 21.3202 30.6798 22.2802 30.6798C23.2402 30.6798 24.0202 29.8998 24.0202 28.9398C24.0202 27.9798 23.2402 27.1998 22.2802 27.1998Z" fill="#2B3990"/>
<path d="M9.26047 40.9999C8.00047 40.9999 6.98047 39.9799 6.98047 38.7199C6.98047 37.4599 8.00047 36.4399 9.26047 36.4399C10.5205 36.4399 11.5405 37.4599 11.5405 38.7199C11.5405 39.9799 10.5205 40.9999 9.26047 40.9999ZM9.26047 37.7599C8.72047 37.7599 8.30047 38.1799 8.30047 38.7199C8.30047 39.2599 8.72047 39.6799 9.26047 39.6799C9.80047 39.6799 10.2205 39.2599 10.2205 38.7199C10.1605 38.1799 9.74047 37.7599 9.26047 37.7599Z" fill="#2B3990"/>
</svg>
