<svg width="60" height="60" viewBox="0 0 60 60" fill="none" xmlns="http://www.w3.org/2000/svg">
<mask id="mask0_532_1372" style="mask-type:luminance" maskUnits="userSpaceOnUse" x="0" y="0" width="60" height="60">
<path d="M59.6917 0.241699H0.513672V59.4198H59.6917V0.241699Z" fill="white"/>
</mask>
<g mask="url(#mask0_532_1372)">
<path d="M24.5959 22.2788C25.6855 22.6125 26.7994 22.7777 27.9076 22.7777C29.7251 22.7777 31.5269 22.333 33.1778 21.4563C38.6626 18.544 40.755 11.7118 37.8419 6.22647C36.4307 3.56935 34.0694 1.62098 31.1926 0.740244C28.3161 -0.140724 25.2685 0.151583 22.6108 1.56273C17.1268 4.47644 15.0344 11.3085 17.9467 16.7925C19.3578 19.4498 21.7192 21.398 24.5959 22.2788ZM23.4243 3.09384C25.6729 1.89988 28.2514 1.65311 30.6851 2.39804C33.119 3.14308 35.1168 4.79151 36.3106 7.03971C38.7754 11.6809 37.0052 17.4613 32.3647 19.9253C30.116 21.1194 27.5376 21.3664 25.1037 20.6213C22.6698 19.8761 20.672 18.2277 19.4781 15.9795C17.014 11.3396 18.7842 5.5591 23.4243 3.09384Z" fill="#2B3990"/>
<path d="M23.3163 14.3243H25.0836V16.0881C25.0836 17.1875 25.9765 18.0818 27.0742 18.0818H28.7157C29.8151 18.0818 30.7096 17.1875 30.7096 16.0881V14.3243H32.4736C33.5732 14.3243 34.4677 13.4299 34.4677 12.3305V10.6891C34.4677 9.5897 33.5732 8.69529 32.4736 8.69529H30.7096V6.93154C30.7096 5.83212 29.8151 4.93774 28.7157 4.93774H27.0742C25.9765 4.93774 25.0836 5.83212 25.0836 6.93154V8.69529H23.3163C22.2169 8.69529 21.3223 9.5897 21.3223 10.6891V12.3305C21.3223 13.4299 22.2169 14.3243 23.3163 14.3243ZM23.0561 10.6891C23.0561 10.5481 23.1753 10.429 23.3163 10.429H25.9506C26.4293 10.429 26.8174 10.0409 26.8174 9.56208V6.93142C26.8174 6.79041 26.9351 6.67125 27.0742 6.67125H28.7157C28.8568 6.67125 28.9759 6.79041 28.9759 6.93142V9.56208C28.9759 10.0409 29.3641 10.429 29.8428 10.429H32.4736C32.6147 10.429 32.7339 10.5481 32.7339 10.6891V12.3305C32.7339 12.4715 32.6147 12.5907 32.4736 12.5907H29.8428C29.3641 12.5907 28.9759 12.9787 28.9759 13.4576V16.0882C28.9759 16.2292 28.8568 16.3483 28.7157 16.3483H27.0742C26.935 16.3483 26.8174 16.2292 26.8174 16.0882V13.4576C26.8174 12.9788 26.4293 12.5907 25.9506 12.5907H23.3163C23.1753 12.5907 23.0561 12.4715 23.0561 12.3305V10.6891Z" fill="#2B3990"/>
<path d="M56.3203 51.0334V43.8944H58.6446C59.1235 43.8944 59.5116 43.5063 59.5116 43.0275V25.6577C59.5116 23.8232 58.0173 22.3306 56.1808 22.3306C54.6459 22.3306 53.3511 23.3755 52.9687 24.7909H45.1559C44.677 24.7909 44.2891 25.1789 44.2891 25.6577C44.2891 26.1367 44.6772 26.5246 45.1559 26.5246H52.8533V42.1608H29.415V30.0477C29.415 28.105 30.9956 26.5245 32.9384 26.5245H41.1521C41.631 26.5245 42.019 26.1365 42.019 25.6576C42.019 25.1788 41.6309 24.7908 41.1521 24.7908H32.9384C30.0396 24.7908 27.6812 27.1489 27.6812 30.0477V30.2815H17.3237C17.2906 28.9249 16.4655 27.6464 15.155 27.1041C15.131 27.0942 15.1066 27.0854 15.0819 27.0777L7.1719 24.6076V20.1441C7.1719 18.3078 5.67765 16.8137 3.84117 16.8137C2.0063 16.8136 0.513672 18.3076 0.513672 20.1441V28.2557C0.513672 28.7344 0.901797 29.1226 1.38054 29.1226C1.85928 29.1226 2.2474 28.7346 2.2474 28.2557V20.1441C2.2474 19.2635 2.96228 18.5472 3.84105 18.5472C4.72156 18.5472 5.43793 19.2635 5.43793 20.1441V38.1035C5.43793 38.5823 5.82606 38.9704 6.3048 38.9704H27.6809V42.1606H2.24752V32.259C2.24752 31.7803 1.85939 31.3922 1.38065 31.3922C0.901912 31.3922 0.513787 31.7802 0.513787 32.259V43.0275C0.513787 43.5062 0.901912 43.8944 1.38065 43.8944H4.5928V51.0334C2.67021 51.4345 1.2215 53.1422 1.2215 55.182C1.2215 57.5187 3.12282 59.4199 5.45978 59.4199C7.79674 59.4199 9.69809 57.5187 9.69809 55.182C9.69809 53.1422 8.24924 51.4347 6.32676 51.0334V48.2844H54.5865V51.0334C52.6639 51.4345 51.215 53.1422 51.215 55.182C51.215 57.5187 53.1164 59.4199 55.4534 59.4199C57.7903 59.4199 59.6917 57.5185 59.6917 55.1818C59.6917 53.1421 58.2429 51.4345 56.3203 51.0334ZM56.1807 24.0642C57.0613 24.0642 57.7776 24.779 57.7776 25.6577V42.1607H54.5872V25.6577C54.5872 24.779 55.302 24.0642 56.1807 24.0642ZM14.5241 28.7199C15.159 28.9974 15.5616 29.6186 15.5907 30.2816H7.1719V26.4237L14.5241 28.7199ZM7.1719 37.2368V32.0153H16.3371H27.6812V37.2368H7.1719ZM7.9641 55.1818C7.9641 56.5627 6.84064 57.6861 5.45966 57.6861C4.07869 57.6861 2.95523 56.5627 2.95523 55.1818C2.95523 53.8008 4.07869 52.6775 5.45966 52.6775C6.84064 52.6775 7.9641 53.801 7.9641 55.1818ZM6.32653 46.5507V43.8944H54.5865V46.5507H6.32653ZM55.4534 57.6861C54.0725 57.6861 52.949 56.5628 52.949 55.182C52.949 53.801 54.0725 52.6776 55.4534 52.6776C56.8344 52.6776 57.9579 53.801 57.9579 55.182C57.9579 56.5627 56.8344 57.6861 55.4534 57.6861Z" fill="#2B3990"/>
</g>
</svg>
