<svg width="54" height="32" viewBox="0 0 54 32" fill="none" xmlns="http://www.w3.org/2000/svg">
<path d="M39.3601 25.84H34.8601C34.4401 25.84 34.0801 25.48 34.0801 25.06C34.0801 24.64 34.4401 24.28 34.8601 24.28H39.3601C39.7801 24.28 40.1401 24.64 40.1401 25.06C40.1401 25.48 39.8401 25.84 39.3601 25.84Z" fill="#2B3990" stroke="#2B3990" stroke-width="0.8087" stroke-miterlimit="10"/>
<path d="M50.8201 25.8401H48.0001C47.5801 25.8401 47.2201 25.4801 47.2201 25.0601C47.2201 24.6401 47.5801 24.2801 48.0001 24.2801H50.8201C51.1201 24.2801 51.3601 24.0401 51.3601 23.7401V17.4401C51.3601 17.3801 51.3001 17.2601 51.2401 17.2001C51.1801 17.1401 51.1201 17.1401 51.0601 17.1401L45.9601 15.8801C45.7801 15.8201 45.6001 15.7001 45.5401 15.5801L41.6401 10.2401C41.4601 10.0001 41.2201 9.88007 40.9201 9.88007H34.8601C34.4401 9.88007 34.0801 9.52007 34.0801 9.10007C34.0801 8.68007 34.4401 8.32007 34.8601 8.32007H40.9201C41.7001 8.32007 42.4801 8.68007 42.9001 9.34007L46.6201 14.4401L51.4801 15.6401C51.7801 15.7001 52.1401 15.8801 52.3201 16.1201C52.6801 16.4801 52.9201 16.9601 52.9201 17.5001V23.7401C52.9201 24.8801 52.0201 25.8401 50.8201 25.8401Z" fill="#2B3990" stroke="#2B3990" stroke-width="0.8087" stroke-miterlimit="10"/>
<path d="M34.8595 25.84H16.7995C16.3795 25.84 16.0195 25.48 16.0195 25.06C16.0195 24.64 16.3795 24.28 16.7995 24.28H34.0795V3.16C34.0795 2.86 33.8395 2.56 33.4795 2.56H3.17953C2.87953 2.56 2.57953 2.8 2.57953 3.16V23.62C2.57953 23.92 2.81953 24.22 3.17953 24.22H8.21953C8.63953 24.22 8.99953 24.58 8.99953 25C8.99953 25.42 8.63953 25.78 8.21953 25.78H3.17953C1.97953 25.78 1.01953 24.82 1.01953 23.62V3.16C1.01953 1.96 1.97953 1 3.17953 1H33.4795C34.6795 1 35.6395 1.96 35.6395 3.16V25C35.6395 25.48 35.2795 25.84 34.8595 25.84Z" fill="#2B3990" stroke="#2B3990" stroke-width="0.8087" stroke-miterlimit="10"/>
<path d="M43.6795 30.9401C40.8595 30.9401 38.5195 28.6001 38.5195 25.7801C38.5195 22.9601 40.8595 20.6201 43.6795 20.6201C46.4995 20.6201 48.8395 22.9601 48.8395 25.7801C48.8395 28.6601 46.4995 30.9401 43.6795 30.9401ZM43.6795 22.2401C41.6995 22.2401 40.0795 23.8601 40.0795 25.8401C40.0795 27.8201 41.6995 29.4401 43.6795 29.4401C45.6595 29.4401 47.2795 27.8201 47.2795 25.8401C47.2795 23.8601 45.6595 22.2401 43.6795 22.2401Z" fill="#2B3990" stroke="#2B3990" stroke-width="0.8087" stroke-miterlimit="10"/>
<path d="M12.5389 30.9401C9.71891 30.9401 7.37891 28.6001 7.37891 25.7801C7.37891 22.9601 9.71891 20.6201 12.5389 20.6201C15.3589 20.6201 17.6989 22.9601 17.6989 25.7801C17.6989 28.6601 15.3589 30.9401 12.5389 30.9401ZM12.5389 22.2401C10.5589 22.2401 8.93891 23.8601 8.93891 25.8401C8.93891 27.8201 10.5589 29.4401 12.5389 29.4401C14.5189 29.4401 16.1389 27.8201 16.1389 25.8401C16.1389 23.8601 14.5189 22.2401 12.5389 22.2401Z" fill="#2B3990" stroke="#2B3990" stroke-width="0.8087" stroke-miterlimit="10"/>
<path d="M52.1401 19.4799H1.86008C1.44008 19.4799 1.08008 19.1199 1.08008 18.6999C1.08008 18.2799 1.44008 17.9199 1.86008 17.9199H52.2001C52.6201 17.9199 52.9801 18.2799 52.9801 18.6999C52.9801 19.1199 52.6201 19.4799 52.1401 19.4799Z" fill="#2B3990" stroke="#2B3990" stroke-width="0.8087" stroke-miterlimit="10"/>
<path d="M46.1993 15.9401H39.7193C38.0993 15.9401 36.7793 14.6201 36.7793 13.0001V9.10007C36.7793 8.68007 37.1393 8.32007 37.5593 8.32007C37.9793 8.32007 38.3393 8.68007 38.3393 9.10007V13.0001C38.3393 13.7801 38.9393 14.3801 39.7193 14.3801H46.1993C46.6193 14.3801 46.9793 14.7401 46.9793 15.1601C46.9793 15.5801 46.6193 15.9401 46.1993 15.9401Z" fill="#2B3990" stroke="#2B3990" stroke-width="0.8087" stroke-miterlimit="10"/>
</svg>
