<svg width="53" height="50" viewBox="0 0 53 50" fill="none" xmlns="http://www.w3.org/2000/svg">
<path d="M19.4807 32.2002C20.9807 32.2002 22.2407 30.9402 22.2407 29.4402C22.2407 27.9402 20.9807 26.6802 19.4807 26.6802C17.9807 26.6802 16.7207 27.9402 16.7207 29.4402C16.7207 30.9402 17.9207 32.2002 19.4807 32.2002ZM19.4807 27.8802C20.3207 27.8802 20.9807 28.5402 20.9807 29.3802C20.9807 30.2202 20.3207 30.8802 19.4807 30.8802C18.6407 30.8802 17.9807 30.2202 17.9807 29.3802C17.9207 28.6002 18.6407 27.8802 19.4807 27.8802Z" fill="#2B3990"/>
<path d="M33.5198 32.2002C35.0198 32.2002 36.2798 30.9402 36.2798 29.4402C36.2798 27.9402 35.0198 26.6802 33.5198 26.6802C32.0198 26.6802 30.7598 27.9402 30.7598 29.4402C30.7598 30.9402 32.0198 32.2002 33.5198 32.2002ZM33.5198 27.8802C34.3598 27.8802 35.0198 28.5402 35.0198 29.3802C35.0198 30.2202 34.3598 30.8802 33.5198 30.8802C32.6798 30.8802 32.0198 30.2202 32.0198 29.3802C32.0198 28.6002 32.6798 27.8802 33.5198 27.8802Z" fill="#2B3990"/>
<path d="M29.3206 17.7401L24.9406 14.9801C24.1606 14.5001 23.1406 15.1001 23.1406 16.0001V21.5801C23.1406 22.2401 23.6806 22.7801 24.3406 22.7801C24.5806 22.7801 24.7606 22.7201 24.9406 22.6001L29.2606 19.8401C29.8006 19.4801 29.9806 18.7601 29.6206 18.1601C29.5606 17.9201 29.4406 17.8001 29.3206 17.7401ZM24.3406 21.4601V16.0001L28.6006 18.7601L24.3406 21.4601Z" fill="#2B3990"/>
<path d="M12.4612 34.6601C13.9612 34.6601 15.2212 33.4001 15.2212 31.9001C15.2212 30.4001 13.9612 29.1401 12.4612 29.1401C10.9612 29.1401 9.70117 30.3401 9.70117 31.9001C9.70117 33.4001 10.9012 34.6601 12.4612 34.6601ZM12.4612 30.3401C13.3012 30.3401 13.9612 31.0001 13.9612 31.8401C13.9612 32.6801 13.3012 33.4001 12.4612 33.4001C11.6212 33.4001 10.9612 32.7401 10.9612 31.9001C10.9012 31.0601 11.5612 30.3401 12.4612 30.3401Z" fill="#2B3990"/>
<path d="M40.5412 34.6601C42.0412 34.6601 43.3012 33.4001 43.3012 31.9001C43.3012 30.4001 42.0412 29.1401 40.5412 29.1401C39.0412 29.1401 37.7812 30.4001 37.7812 31.9001C37.8412 33.4001 39.0412 34.6601 40.5412 34.6601ZM40.5412 30.3401C41.3812 30.3401 42.0412 31.0001 42.0412 31.8401C42.0412 32.6801 41.4412 33.4001 40.5412 33.4001C39.7012 33.4001 39.0412 32.7401 39.0412 31.9001C39.0412 31.0601 39.7012 30.3401 40.5412 30.3401Z" fill="#2B3990"/>
<path d="M23.7402 31.9001C23.7402 33.4001 25.0002 34.6601 26.5002 34.6601C28.0002 34.6601 29.2602 33.4001 29.2602 31.9001C29.2602 30.4001 28.0002 29.1401 26.5002 29.1401C25.0002 29.1401 23.7402 30.3401 23.7402 31.9001ZM28.0002 31.9001C28.0002 32.7401 27.3402 33.4001 26.5002 33.4001C25.6602 33.4001 25.0002 32.7401 25.0002 31.9001C25.0002 31.0601 25.6602 30.4001 26.5002 30.4001C27.3402 30.3401 28.0002 31.0601 28.0002 31.9001Z" fill="#2B3990"/>
<path d="M29.3203 34.6601C29.6203 34.7201 29.9203 34.7801 30.1603 34.8401C30.4603 34.6601 30.8203 34.6001 31.1803 34.6001H35.8003C36.1603 34.6001 36.5203 34.6601 36.8203 34.8401C37.1203 34.7201 37.3603 34.6601 37.6603 34.6601C37.3603 34.3601 37.1203 34.0001 36.8803 33.5801C36.5203 33.4601 36.1603 33.4001 35.7403 33.4001H31.1203C30.7603 33.4001 30.3403 33.4601 29.9803 33.5801C29.9203 34.0001 29.6203 34.3601 29.3203 34.6601Z" fill="#2B3990" stroke="#2B3990" stroke-width="0.1747" stroke-miterlimit="10"/>
<path d="M15.2812 34.6601C15.5813 34.7201 15.8813 34.7801 16.1213 34.8401C16.4213 34.6601 16.7813 34.6001 17.1413 34.6001H21.7613C22.1212 34.6001 22.4813 34.6601 22.7813 34.8401C23.0813 34.7201 23.3213 34.6601 23.6213 34.6601C23.3213 34.3601 23.0813 34.0001 22.8413 33.5801C22.4813 33.4601 22.1213 33.4001 21.7013 33.4001H17.0813C16.7213 33.4001 16.3013 33.4601 15.9413 33.5801C15.8213 34.0001 15.5813 34.3601 15.2812 34.6601Z" fill="#2B3990" stroke="#2B3990" stroke-width="0.1747" stroke-miterlimit="10"/>
<path d="M44.2609 6.52002H8.74086C7.72086 6.52002 6.88086 7.36002 6.88086 8.38002V28.9C6.88086 29.86 7.66086 30.7 8.62086 30.7C8.74086 30.28 8.98086 29.86 9.28086 29.5H8.74086C8.38086 29.5 8.14086 29.2 8.14086 28.9V8.32002C8.14086 7.96002 8.44086 7.72002 8.74086 7.72002H44.2009C44.5609 7.72002 44.8009 8.02002 44.8009 8.32002V28.84C44.8009 29.2 44.5009 29.44 44.2009 29.44H43.6609C43.9609 29.8 44.1409 30.22 44.3209 30.64C45.2809 30.58 46.0609 29.8 46.0609 28.84V8.32002C46.0609 7.30002 45.2809 6.52002 44.2609 6.52002Z" fill="#2B3990" stroke="#2B3990" stroke-width="0.1747" stroke-miterlimit="10"/>
<path d="M36.9403 46.8401H34.4203C34.0603 46.8401 33.8203 47.1401 33.8803 47.5001C33.8803 47.8001 34.1203 48.0401 34.4203 48.0401H36.9403C37.3003 48.0401 37.5403 47.7401 37.4803 47.3801C37.4803 47.1401 37.2403 46.9001 36.9403 46.8401Z" fill="#2B3990"/>
<path d="M18.5809 46.8401H16.0609C15.7009 46.8401 15.4609 47.1401 15.5209 47.5001C15.5209 47.8001 15.7609 48.0401 16.0609 48.0401H18.5809C18.9409 48.0401 19.1809 47.7401 19.1209 47.3801C19.1209 47.1401 18.8809 46.9001 18.5809 46.8401Z" fill="#2B3990"/>
<path d="M32.6213 46.8401H20.3812C20.0212 46.8401 19.7812 47.1401 19.7812 47.4401C19.7812 47.8001 20.0812 48.0401 20.3812 48.0401H25.2413V48.6401H22.8413C22.4813 48.6401 22.2413 48.9401 22.2413 49.2401C22.2413 49.6001 22.5413 49.8401 22.8413 49.8401H30.4612C30.8212 49.8401 31.0612 49.5401 31.0612 49.2401C31.0612 48.8801 30.7612 48.6401 30.4612 48.6401H27.7013V48.0401H32.5612C32.9212 48.0401 33.1612 47.7401 33.1612 47.4401C33.2212 47.1401 32.9812 46.8401 32.6213 46.8401Z" fill="#2B3990"/>
<path d="M1.42031 45.6402C1.75168 45.6402 2.02031 45.3716 2.02031 45.0402C2.02031 44.7088 1.75168 44.4402 1.42031 44.4402C1.08894 44.4402 0.820312 44.7088 0.820312 45.0402C0.820312 45.3716 1.08894 45.6402 1.42031 45.6402Z" fill="#2B3990" stroke="#2B3990" stroke-width="0.1747" stroke-miterlimit="10"/>
<path d="M4.17969 44.4402H3.27969C2.91969 44.4402 2.67969 44.7402 2.67969 45.0402C2.67969 45.4002 2.97969 45.6402 3.27969 45.6402H4.17969C4.53969 45.6402 4.77969 45.3402 4.77969 45.0402C4.77969 44.6802 4.53969 44.4402 4.17969 44.4402Z" fill="#2B3990" stroke="#2B3990" stroke-width="0.1747" stroke-miterlimit="10"/>
<path d="M49.7207 44.4402H48.8207C48.4607 44.4402 48.2207 44.7402 48.2207 45.0402C48.2207 45.4002 48.5207 45.6402 48.8207 45.6402H49.7207C50.0807 45.6402 50.3207 45.3402 50.3207 45.0402C50.3807 44.6802 50.0807 44.4402 49.7207 44.4402Z" fill="#2B3990" stroke="#2B3990" stroke-width="0.1747" stroke-miterlimit="10"/>
<path d="M51.5805 45.6402C51.9118 45.6402 52.1805 45.3716 52.1805 45.0402C52.1805 44.7088 51.9118 44.4402 51.5805 44.4402C51.2491 44.4402 50.9805 44.7088 50.9805 45.0402C50.9805 45.3716 51.2491 45.6402 51.5805 45.6402Z" fill="#2B3990" stroke="#2B3990" stroke-width="0.1747" stroke-miterlimit="10"/>
<path d="M46.9003 44.4401H46.0603V39.3401C46.0603 37.4201 44.6203 35.8601 42.8803 35.8601H38.2603C36.5203 35.8601 35.0803 37.4201 35.0803 39.3401V44.4401H32.0203V39.3401C32.0203 37.4201 30.5803 35.8601 28.8403 35.8601H24.2203C22.4803 35.8601 21.0403 37.4201 21.0403 39.3401V44.4401H17.9803V39.3401C17.9803 37.4201 16.5403 35.8601 14.8003 35.8601H10.1803C8.44028 35.8601 7.00028 37.4201 7.00028 39.3401V44.4401H6.10028C5.74028 44.3801 5.44028 44.6201 5.38028 44.9801C5.32028 45.3401 5.56028 45.6401 5.92028 45.7001C5.98028 45.7001 6.04028 45.7001 6.10028 45.7001H46.9003C47.2603 45.7601 47.5603 45.5201 47.6203 45.1601C47.6803 44.8001 47.4403 44.5001 47.0803 44.4401C47.0203 44.4401 46.9603 44.4401 46.9003 44.4401ZM15.4603 44.4401V43.2401C15.4603 42.8801 15.1603 42.6401 14.8603 42.6401C14.5003 42.6401 14.2603 42.9401 14.2603 43.2401V44.4401H10.6003V43.2401C10.6003 42.8801 10.3003 42.6401 10.0003 42.6401C9.64028 42.6401 9.40028 42.9401 9.40028 43.2401V44.4401H8.20028V39.3401C8.20028 38.0801 9.10028 37.0601 10.1803 37.0601H14.8003C15.8803 37.0601 16.7803 38.0801 16.7803 39.3401V44.4401H15.4603ZM29.5603 44.4401V43.2401C29.5603 42.8801 29.2603 42.6401 28.9603 42.6401C28.6603 42.6401 28.3603 42.9401 28.3603 43.2401V44.4401H24.7003V43.2401C24.7003 42.8801 24.4003 42.6401 24.1003 42.6401C23.8003 42.6401 23.5003 42.9401 23.5003 43.2401V44.4401H22.3003V39.3401C22.3003 38.0801 23.2003 37.0601 24.2803 37.0601H28.9003C29.9803 37.0601 30.8803 38.0801 30.8803 39.3401V44.4401H29.5603ZM43.6003 44.4401V43.2401C43.6003 42.8801 43.3003 42.6401 43.0003 42.6401C42.6403 42.6401 42.4003 42.9401 42.4003 43.2401V44.4401H38.7403V43.2401C38.7403 42.8801 38.4403 42.6401 38.1403 42.6401C37.7803 42.6401 37.5403 42.9401 37.5403 43.2401V44.4401H36.3403V39.3401C36.3403 38.0801 37.2403 37.0601 38.3203 37.0601H42.9403C44.0203 37.0601 44.9203 38.0801 44.9203 39.3401V44.4401H43.6003Z" fill="#2B3990" stroke="#2B3990" stroke-width="0.1747" stroke-miterlimit="10"/>
<path d="M3.28072 14.5002C3.76072 14.5002 4.18072 14.0802 4.18072 13.6002C4.18072 13.1202 3.76072 12.7002 3.28072 12.7002C2.80072 12.7002 2.38072 13.1202 2.38072 13.6002C2.32072 14.0802 2.74072 14.5002 3.28072 14.5002ZM3.28072 13.1202C3.52072 13.1202 3.76072 13.3002 3.76072 13.6002C3.76072 13.9002 3.58072 14.0802 3.28072 14.0802C3.04072 14.0802 2.80072 13.9002 2.80072 13.6002C2.80072 13.3602 2.98072 13.1202 3.28072 13.1202Z" fill="#2B3990" stroke="#2B3990" stroke-width="0.1747" stroke-miterlimit="10"/>
<path d="M49.2406 20.26C48.8806 20.26 48.6406 20.56 48.6406 20.86C48.6406 21.16 48.9406 21.46 49.2406 21.46C49.6006 21.46 49.8406 21.16 49.8406 20.86C49.8406 20.56 49.5406 20.26 49.2406 20.26ZM49.2406 21.16C49.0606 21.16 48.9406 21.04 48.9406 20.86C48.9406 20.68 49.0606 20.56 49.2406 20.56C49.4206 20.56 49.5406 20.68 49.5406 20.86C49.5406 21.04 49.4206 21.16 49.2406 21.16Z" fill="#2B3990" stroke="#2B3990" stroke-width="0.1747" stroke-miterlimit="10"/>
<path d="M2.61953 0.100098C2.25953 0.100098 2.01953 0.400098 2.01953 0.700098C2.01953 1.0601 2.31953 1.3001 2.61953 1.3001C2.91953 1.3001 3.21953 1.0001 3.21953 0.700098C3.27953 0.340098 2.97953 0.100098 2.61953 0.100098ZM2.61953 1.0001C2.49953 1.0001 2.31953 0.880098 2.31953 0.700098C2.31953 0.520098 2.49953 0.400098 2.61953 0.400098C2.79953 0.400098 2.91953 0.520098 2.91953 0.700098C2.97953 0.880098 2.79953 1.0001 2.61953 1.0001Z" fill="#2B3990" stroke="#2B3990" stroke-width="0.1747" stroke-miterlimit="10"/>
<path d="M34.4809 3.88013C34.1209 3.88013 33.8809 4.18013 33.8809 4.48013C33.8809 4.78013 34.1809 5.08013 34.4809 5.08013C34.7809 5.08013 35.0809 4.78013 35.0809 4.48013C35.0809 4.18013 34.7809 3.88013 34.4809 3.88013ZM34.4809 4.78013C34.3009 4.78013 34.1809 4.66013 34.1809 4.48013C34.1809 4.30013 34.3009 4.18013 34.4809 4.18013C34.6609 4.18013 34.7809 4.30013 34.7809 4.48013C34.7809 4.66013 34.6009 4.78013 34.4809 4.78013Z" fill="#2B3990" stroke="#2B3990" stroke-width="0.1747" stroke-miterlimit="10"/>
<path d="M13.6609 4.48013C13.6609 4.12013 13.3609 3.88013 13.0609 3.88013C12.7609 3.88013 12.4609 4.18013 12.4609 4.48013C12.4609 4.84013 12.7609 5.08013 13.0609 5.08013C13.3609 5.14013 13.6609 4.84013 13.6609 4.48013ZM12.7609 4.48013C12.7609 4.30013 12.8809 4.18013 13.0609 4.18013C13.2409 4.18013 13.3609 4.30013 13.3609 4.48013C13.3609 4.66013 13.2409 4.78013 13.0609 4.78013C12.8809 4.78013 12.7609 4.66013 12.7609 4.48013Z" fill="#2B3990" stroke="#2B3990" stroke-width="0.1747" stroke-miterlimit="10"/>
<path d="M24.46 1.2402L24.94 0.640205L24.64 0.460205L24.34 1.1202L24.04 0.460205L23.74 0.640205L24.22 1.2402L23.5 1.1202V1.4202L24.22 1.3002L23.74 1.9002L24.04 2.08021L24.34 1.4202L24.64 2.08021L24.94 1.9002L24.46 1.3002L25.18 1.36021V1.06021L24.46 1.2402Z" fill="#2B3990"/>
<path d="M50.86 5.1401L50.62 5.5001L50.8 5.6201L50.98 5.2601L51.16 5.6201L51.34 5.5001L51.1 5.1401L51.52 5.2001V5.0201L51.1 5.0801L51.34 4.7201L51.16 4.6001L50.98 4.9601L50.8 4.6001L50.62 4.7201L50.86 5.0801L50.5 5.0201V5.2001L50.86 5.1401Z" fill="#2B3990"/>
<path d="M48.2796 13.72V13.42L47.5596 13.54L47.9796 12.94L47.6796 12.76L47.4996 13.42L47.1996 12.76L46.8996 12.94L47.3196 13.54L46.5996 13.48V13.78L47.3196 13.72L46.8996 14.32L47.1396 14.5L47.4396 13.84L47.7396 14.5L48.0396 14.32L47.5596 13.78L48.2796 13.72Z" fill="#2B3990"/>
<path d="M43.4201 0.940029L43.8401 0.400029L43.6001 0.280029L43.3001 0.820029L43.0601 0.280029L42.8201 0.400029L43.1801 0.880029L42.5801 0.820029V1.12003L43.1801 1.06003L42.8201 1.54003L43.0601 1.66003L43.3001 1.06003L43.5401 1.60003L43.7801 1.48003L43.4201 1.00003L44.0201 1.06003V0.880029L43.4201 0.940029Z" fill="#2B3990"/>
</svg>
