<svg width="44" height="42" viewBox="0 0 44 42" fill="none" xmlns="http://www.w3.org/2000/svg">
<path d="M42.8519 8.05202C42.6439 7.16802 42.2279 6.49202 41.6039 6.02402C41.5519 5.97202 41.4999 5.97202 41.4479 5.92002C41.0319 5.66002 40.5119 5.45202 39.8879 5.40002C38.9519 5.29602 38.0159 5.34802 37.0799 5.34802H36.5079V5.29602H36.2999V4.20402C36.2999 3.11202 35.8839 2.22802 35.2079 1.60402C35.1559 1.55202 35.1039 1.50002 35.0519 1.44802C34.5319 1.08402 33.8559 0.876016 33.1279 0.824016C32.3999 0.772016 31.7239 0.928016 31.1519 1.29202C31.0999 1.34402 31.0479 1.34402 30.9959 1.39602C30.3199 1.86402 29.8519 2.64402 29.6959 3.52802C29.6439 3.84002 29.6439 4.20402 29.6439 4.56802C29.6439 4.72402 29.6439 4.93202 29.6439 5.08802V5.24402H29.4879V5.29602H25.5359V5.24402H25.3799V4.67202C25.3799 4.41202 25.3799 4.15202 25.3799 3.89202C25.3799 2.90402 24.9639 1.91602 24.2359 1.29202C24.1319 1.18802 24.0279 1.13602 23.9239 1.03202C23.9239 1.03202 23.8719 1.03202 23.8719 0.980016C23.1959 0.616016 22.3119 0.408016 21.2719 0.616016C20.8559 0.668016 20.4919 0.824016 20.1799 1.03202C20.1279 1.08402 20.0759 1.08402 20.0239 1.13602C19.2439 1.70802 18.7239 2.64402 18.7239 3.73602C18.7239 4.04802 18.7239 4.30802 18.7239 4.62002V5.24402H18.5159V5.29602H14.5119V5.24402H14.3039V5.08802C14.3039 4.88002 14.3039 4.72402 14.3039 4.51602C14.3039 4.15202 14.3559 3.78802 14.3039 3.47602C14.1479 2.43602 13.5759 1.60402 12.7439 1.13602C12.6919 1.08402 12.6399 1.08402 12.5359 1.03202C12.0159 0.824016 11.4439 0.720016 10.8199 0.720016C10.1439 0.720016 9.57195 0.928016 9.05195 1.24002C8.99995 1.29202 8.94795 1.29202 8.89595 1.34402C8.21995 1.81202 7.80395 2.59202 7.64795 3.52802C7.59595 3.84002 7.59595 4.20402 7.64795 4.56802C7.64795 4.72402 7.64795 4.93202 7.64795 5.08802V5.24402H7.49195V5.29602C6.50395 5.29602 5.61995 5.29602 4.73595 5.29602C4.00795 5.29602 3.38395 5.45202 2.86395 5.76402C2.81195 5.81602 2.75995 5.81602 2.70795 5.86802C2.49995 5.97202 2.34395 6.12802 2.18795 6.28402C1.45995 6.96002 1.09595 7.94802 1.09595 8.93602C1.14795 13.304 1.14795 17.776 1.09595 22.092C1.09595 23.808 1.09595 25.524 1.09595 27.24V29.788C1.09595 31.972 1.09595 34.156 1.09595 36.288C1.09595 38.004 2.55195 39.512 4.16395 39.564C5.87995 39.616 7.69995 39.616 9.41595 39.616C9.98795 39.616 10.5079 39.616 11.0799 39.616C11.3919 39.616 11.6519 39.408 11.7039 39.044C11.7559 38.784 11.7039 38.576 11.5999 38.472C11.5479 38.42 11.5479 38.42 11.4959 38.368C11.3399 38.264 11.1319 38.212 10.9239 38.212C8.89595 38.212 6.86795 38.212 4.83995 38.212C4.31995 38.212 3.85195 38.108 3.53995 37.9C2.91595 37.536 2.60395 36.86 2.60395 35.924V14.344H41.4999V14.656C41.4999 14.76 41.4999 14.812 41.4999 14.916V16.996C41.4999 23.288 41.4999 29.632 41.4999 35.924C41.4999 36.86 41.1879 37.484 40.5639 37.848C40.1999 38.056 39.7839 38.16 39.2119 38.16C37.9119 38.16 36.6639 38.16 35.3639 38.16C35.1559 38.16 34.9999 38.212 34.8439 38.264C34.6359 38.368 34.5319 38.576 34.5319 38.836C34.5319 39.044 34.5839 39.2 34.7399 39.356C34.8959 39.512 35.1039 39.564 35.4159 39.564H35.9359C37.1319 39.564 38.3279 39.564 39.5759 39.564C41.1359 39.564 42.4359 38.524 42.8519 37.016C42.8519 36.912 42.9039 36.86 42.9559 36.756L43.0079 36.652V8.15602C42.9039 8.10402 42.9039 8.10402 42.8519 8.05202ZM31.2039 5.03602C31.2039 4.88002 31.2039 4.72402 31.2039 4.56802C31.2039 4.20402 31.2039 3.84002 31.3079 3.47602C31.5159 2.64402 32.3999 2.12402 33.3879 2.22802C34.2719 2.33202 34.8959 3.06002 34.9479 3.94402V5.24402H34.7399V5.29602H31.3599V5.24402H31.1519L31.2039 5.03602ZM20.1799 3.47602C20.2839 2.64402 21.0119 2.02002 21.9999 2.02002C22.9879 2.02002 23.7159 2.64402 23.8199 3.52802C23.8719 3.89202 23.8199 4.25602 23.8199 4.62002C23.8199 4.77602 23.8199 4.93202 23.8199 5.08802V5.29602H23.6639V5.34802H20.3359V5.29602H20.1799V5.08802C20.1799 4.93202 20.1799 4.77602 20.1799 4.56802C20.1799 4.20402 20.1279 3.84002 20.1799 3.47602ZM9.10395 3.68402C9.15595 2.80002 9.93595 2.17602 10.9759 2.17602C11.9639 2.17602 12.7439 2.85202 12.7959 3.73602C12.7959 4.04802 12.7959 4.36002 12.7959 4.67202C12.7959 4.82802 12.7959 4.93202 12.7959 5.08802V5.24402H12.6399V5.29602H9.31195V5.24402H9.15595V5.08802C9.15595 4.93202 9.15595 4.77602 9.15595 4.67202C9.10395 4.30802 9.10395 3.99602 9.10395 3.68402ZM41.4479 11.328C41.4479 11.744 41.4479 12.16 41.4479 12.576V12.732H41.2399V12.784H2.75995V12.732H2.60395V11.12C2.60395 10.392 2.60395 9.66402 2.60395 8.88402C2.60395 7.48002 3.38395 6.70002 4.78795 6.70002H12.7439L12.7959 6.80402C13.0039 7.42802 12.9519 8.00002 12.6399 8.46802C12.4839 8.67602 12.3279 8.83202 12.1199 8.98802L12.0679 9.04002C11.8599 9.19602 11.5479 9.30002 11.2359 9.30002C11.0279 9.30002 10.8719 9.35202 10.7679 9.45602C10.5599 9.61202 10.5079 9.82002 10.5079 10.08C10.5079 10.548 10.8719 10.756 11.3919 10.756C13.0559 10.704 14.4079 9.35202 14.4599 7.68802C14.4599 7.53202 14.4599 7.32402 14.4599 7.16802V6.70002H23.9239V6.85602C24.0279 7.53202 23.9239 8.05202 23.6119 8.46802C23.5079 8.57202 23.4039 8.72802 23.2479 8.78002L23.1959 8.83202C22.9359 8.98802 22.6239 9.14402 22.2079 9.14402C22.0519 9.14402 21.8959 9.19602 21.7919 9.30002C21.6359 9.45602 21.5319 9.66402 21.5319 9.92402C21.5319 10.34 21.8439 10.6 22.3119 10.6H22.3639C24.0279 10.6 25.4319 9.19602 25.4839 7.48002C25.4839 7.37602 25.4839 7.22002 25.4839 7.11602V6.70002H34.9479L34.9999 6.85602C35.1559 7.53202 35.1039 8.15602 34.7919 8.57202C34.6879 8.78002 34.4799 8.88402 34.3239 9.04002C34.0639 9.24802 33.6999 9.35202 33.2839 9.40402C33.1279 9.40402 33.0239 9.45602 32.8679 9.56002C32.7119 9.71602 32.6079 9.92402 32.6079 10.132C32.6079 10.548 32.9199 10.86 33.3879 10.86C35.0519 10.912 36.5079 9.45602 36.5599 7.74002C36.5599 7.58402 36.5599 7.37602 36.5599 7.22002V6.80402L36.7679 6.75202C36.8199 6.75202 36.8719 6.70002 36.9239 6.70002H37.7039C38.3799 6.70002 39.1079 6.70002 39.8359 6.70002C40.7719 6.75202 41.5519 7.42802 41.6039 8.31202C41.4479 9.35202 41.4479 10.34 41.4479 11.328Z" fill="#2B3C90" stroke="#2A3D90" stroke-width="0.5" stroke-miterlimit="10"/>
<path d="M35 34.624C34.896 34.78 34.688 34.884 34.48 34.884C34.012 34.936 33.7 34.624 33.648 34.104C33.544 33.22 33.44 32.336 33.336 31.452C33.18 30.204 32.868 28.956 32.348 27.76C32.088 27.136 31.828 26.564 31.568 25.94L31.256 25.264C30.996 24.692 30.528 24.38 29.8 24.38H29.54L29.696 24.796C29.748 24.9 29.8 25.004 29.8 25.108C29.956 25.628 29.8 26.044 29.436 26.2C29.02 26.356 28.656 26.148 28.396 25.68C28.344 25.524 28.292 25.42 28.188 25.264L28.24 25.212C28.032 24.692 27.824 24.484 27.564 24.38C27.304 24.276 26.992 24.38 26.472 24.692L26.316 24.796L26.472 25.212C26.524 25.42 26.628 25.576 26.68 25.784C26.836 26.252 26.732 26.616 26.316 26.772C25.9 26.928 25.536 26.824 25.38 26.408C25.328 26.304 25.276 26.2 25.224 26.044C25.172 25.992 25.172 25.888 25.12 25.784C24.912 25.316 24.704 25.108 24.444 25.056C24.184 24.952 23.82 25.056 23.404 25.368L23.248 25.472L23.456 25.94C23.56 26.2 23.664 26.46 23.82 26.72C23.976 27.084 24.028 27.552 23.456 27.76C23.04 27.968 22.676 27.812 22.468 27.292C21.792 25.732 21.064 24.172 20.388 22.612L19.192 19.96C19.036 19.596 18.776 19.18 18.152 19.388C17.892 19.492 17.736 19.596 17.632 19.804C17.528 20.012 17.58 20.324 17.684 20.636C18.308 21.988 18.88 23.392 19.504 24.744L20.908 27.916C21.48 29.216 22.052 30.568 22.676 31.868C22.884 32.336 22.78 32.752 22.364 32.96C22.052 33.116 21.792 33.064 21.428 32.804L20.752 32.232C19.972 31.556 19.244 30.88 18.464 30.152C17.788 29.528 17.06 29.372 16.02 29.632L15.76 29.58L15.968 29.892C16.02 29.944 16.072 30.048 16.124 30.1C16.384 30.412 16.644 30.724 16.904 31.036C17.424 31.66 17.892 32.284 18.36 32.856C19.088 33.74 20.024 34.416 20.908 35.092C21.168 35.248 21.428 35.456 21.636 35.612C22.936 36.6 24.288 37.536 25.588 38.524C26.264 38.992 26.94 39.512 27.564 39.98C27.928 40.24 28.084 40.552 27.98 40.864C27.928 41.124 27.72 41.28 27.512 41.384C27.252 41.488 26.992 41.436 26.732 41.228C25.848 40.604 24.964 39.928 24.132 39.304L23.092 38.524C22.676 38.212 22.26 37.9 21.844 37.588C20.908 36.86 19.92 36.132 18.932 35.456C18.048 34.832 17.372 34 16.748 33.22C16.592 33.012 16.436 32.804 16.28 32.648C15.864 32.128 15.448 31.66 15.084 31.14L14.616 30.516C14.252 30.048 14.096 29.58 14.2 29.164C14.304 28.748 14.668 28.436 15.188 28.228C15.76 28.02 16.332 27.916 16.904 27.916C17.736 27.916 18.568 28.176 19.348 28.696L19.868 29.008L18.776 26.46C17.996 24.64 17.216 22.872 16.436 21.104C15.968 20.012 16.176 18.92 17.06 18.244C18.1 17.412 19.348 17.568 20.18 18.608C20.856 19.44 21.22 20.376 21.636 21.364L21.688 21.468C21.896 22.04 22.156 22.612 22.364 23.132L22.624 23.808H22.78C22.988 23.756 23.248 23.756 23.456 23.704C23.924 23.6 24.34 23.548 24.704 23.548C25.172 23.6 25.588 23.496 26.056 23.288C26.888 22.924 27.564 22.716 28.24 23.028C28.656 23.184 28.968 23.236 29.384 23.08C30.632 22.716 32.036 23.34 32.608 24.432L32.816 24.848C33.648 26.512 34.48 28.228 34.792 30.1C35 31.348 35.156 32.596 35.312 33.844L35.364 34.104C35.208 34.312 35.156 34.468 35 34.624Z" fill="#2A3D90"/>
<path d="M11.6 31.816C11.6 32.232 11.6 32.7 11.6 33.116C11.6 33.636 11.288 33.948 10.82 33.948C10.3 34 9.83198 34 9.36398 33.948C8.73998 33.896 8.58398 33.48 8.58398 33.116V31.816C8.58398 31.296 8.84398 30.984 9.36398 30.932C9.62398 30.932 9.83198 30.932 10.092 30.932C10.352 30.932 10.56 30.932 10.82 30.932C11.444 30.984 11.6 31.452 11.6 31.816Z" fill="#2A3D90"/>
<path d="M11.6 26.616C11.6 27.032 11.288 27.344 10.872 27.344C10.716 27.344 10.508 27.344 10.352 27.344H9.88399C9.72799 27.344 9.57199 27.344 9.36399 27.344C8.94799 27.344 8.63599 27.032 8.63599 26.616C8.63599 26.148 8.63599 25.68 8.63599 25.108C8.63599 24.848 8.73999 24.64 8.89599 24.484C8.99999 24.432 9.15599 24.38 9.31199 24.38C9.83199 24.38 10.352 24.38 10.872 24.38C11.028 24.38 11.184 24.432 11.34 24.536C11.496 24.64 11.6 24.848 11.6 25.108C11.6 25.524 11.6 26.044 11.6 26.616Z" fill="#2A3D90"/>
<path d="M30.372 20.012C30.372 20.428 30.008 20.688 29.54 20.688C29.124 20.688 28.708 20.688 28.24 20.688C27.668 20.688 27.356 20.376 27.356 19.804C27.356 19.648 27.356 19.492 27.356 19.336V18.92C27.356 18.764 27.356 18.556 27.356 18.4C27.356 18.192 27.46 17.984 27.616 17.88C27.72 17.828 27.876 17.776 28.032 17.776C28.604 17.724 29.176 17.724 29.696 17.776C29.852 17.776 29.956 17.828 30.06 17.88C30.216 17.984 30.32 18.192 30.372 18.4C30.424 18.972 30.424 19.492 30.372 20.012Z" fill="#2A3D90"/>
<path d="M37.912 18.504C37.912 18.66 37.912 18.868 37.912 19.024V19.44C37.912 19.596 37.912 19.752 37.912 19.908C37.912 20.48 37.6 20.74 37.08 20.792C36.664 20.792 36.248 20.792 35.78 20.792C35.208 20.792 34.896 20.48 34.896 19.908C34.896 19.44 34.896 19.024 34.896 18.556C34.896 18.296 35 18.036 35.208 17.932C35.312 17.88 35.468 17.828 35.676 17.828C36.196 17.828 36.716 17.828 37.184 17.828C37.392 17.828 37.548 17.88 37.704 17.984C37.86 18.036 37.912 18.296 37.912 18.504Z" fill="#2A3D90"/>
<path d="M11.6 19.96C11.6 20.376 11.288 20.688 10.82 20.688C10.352 20.688 9.83198 20.688 9.36398 20.688C8.89598 20.688 8.58398 20.376 8.58398 19.856V18.92C8.58398 18.764 8.58398 18.556 8.58398 18.4C8.58398 18.192 8.68798 17.984 8.89598 17.828C8.89598 17.828 8.89598 17.828 8.94798 17.828C9.05198 17.776 9.15598 17.776 9.25998 17.776C9.83198 17.724 10.404 17.724 10.924 17.776C11.08 17.776 11.184 17.828 11.288 17.88C11.444 17.984 11.548 18.192 11.6 18.452C11.6 18.972 11.6 19.492 11.6 19.96Z" fill="#2A3D90"/>
</svg>
