<svg width="52" height="52" viewBox="0 0 52 52" fill="none" xmlns="http://www.w3.org/2000/svg">
<path d="M10.7008 41.2026L1.85712 43.5686L10.0434 29.3875L20.176 37.7409L13.0743 50.0426L10.7008 41.2026ZM41.2954 41.2026L50.1428 43.5723L41.9565 29.3912L31.824 37.7446L38.9257 50.0463L41.2954 41.2026Z" fill="white"/>
<path d="M42.0086 29.4803L50.1428 43.5723L41.2954 41.2026L38.9257 50.0463L31.876 37.8301" stroke="#2B3990" stroke-width="2.5" stroke-linecap="round" stroke-linejoin="round"/>
<path d="M44.3968 20.3617C44.3968 25.2438 42.4574 29.926 39.0052 33.3782C35.5531 36.8303 30.8709 38.7697 25.9888 38.7697C21.1067 38.7697 16.4246 36.8303 12.9724 33.3782C9.52022 29.926 7.58081 25.2438 7.58081 20.3617C7.58081 15.4796 9.52022 10.7975 12.9724 7.34531C16.4246 3.89314 21.1067 1.95374 25.9888 1.95374C30.8709 1.95374 35.5531 3.89314 39.0052 7.34531C42.4574 10.7975 44.3968 15.4796 44.3968 20.3617Z" stroke="#2B3990" stroke-width="2.5" stroke-linecap="round" stroke-linejoin="round"/>
<path d="M26.7428 10.3666L29.2797 15.4701C29.3348 15.5997 29.424 15.712 29.5378 15.7951C29.6515 15.8782 29.7857 15.9288 29.926 15.9418L35.5606 16.7961C35.7218 16.8167 35.8738 16.8829 35.9988 16.9869C36.1237 17.0909 36.2164 17.2283 36.2659 17.3832C36.3154 17.538 36.3198 17.7037 36.2784 17.8609C36.237 18.0181 36.1516 18.1603 36.0323 18.2706L31.8686 22.2189C31.8055 22.3372 31.7725 22.4693 31.7725 22.6033C31.7725 22.7374 31.8055 22.8695 31.8686 22.9878L32.6671 28.5889C32.7018 28.7512 32.6884 28.9201 32.6286 29.075C32.5688 29.2298 32.4653 29.3639 32.3305 29.4608C32.1958 29.5577 32.0357 29.6133 31.8699 29.6207C31.7041 29.6281 31.5397 29.5871 31.3968 29.5026L26.3826 26.8506C26.253 26.7922 26.1124 26.762 25.9703 26.762C25.8281 26.762 25.6876 26.7922 25.558 26.8506L20.5437 29.5026C20.401 29.5848 20.2375 29.624 20.073 29.6155C19.9085 29.6069 19.75 29.551 19.6166 29.4545C19.4831 29.3579 19.3804 29.2248 19.3209 29.0713C19.2613 28.9177 19.2474 28.7502 19.2808 28.5889L20.2243 22.9878C20.2659 22.8574 20.274 22.7187 20.2481 22.5844C20.2221 22.4501 20.1629 22.3244 20.0757 22.2189L15.9157 18.2409C15.804 18.1292 15.7255 17.9887 15.6888 17.8351C15.6522 17.6814 15.6589 17.5206 15.7081 17.3705C15.7574 17.2204 15.8473 17.0869 15.9679 16.9848C16.0885 16.8828 16.235 16.8161 16.3911 16.7923L22.0257 15.9715C22.166 15.9586 22.3001 15.9079 22.4139 15.8248C22.5277 15.7418 22.6169 15.6294 22.672 15.4998L25.2088 10.4001C25.2764 10.2552 25.3832 10.1322 25.5171 10.045C25.6511 9.95785 25.8068 9.90999 25.9666 9.9069C26.1264 9.9038 26.2838 9.94559 26.421 10.0275C26.5583 10.1094 26.6698 10.2282 26.7428 10.3703V10.3666Z" fill="white"/>
<path d="M9.99883 29.4692L1.85712 43.5686L10.7008 41.1989L13.0743 50.0463L20.1314 37.8189M26.7428 10.3666L29.2797 15.4701C29.3348 15.5997 29.4239 15.712 29.5377 15.7951C29.6515 15.8782 29.7857 15.9288 29.926 15.9418L35.5605 16.7961C35.7218 16.8167 35.8738 16.8829 35.9987 16.9869C36.1237 17.0909 36.2164 17.2283 36.2659 17.3832C36.3154 17.538 36.3197 17.7037 36.2784 17.8609C36.237 18.0181 36.1516 18.1603 36.0323 18.2706L31.8685 22.2189C31.8055 22.3372 31.7725 22.4693 31.7725 22.6033C31.7725 22.7374 31.8055 22.8695 31.8685 22.9878L32.6671 28.5889C32.7018 28.7512 32.6884 28.9201 32.6286 29.075C32.5688 29.2298 32.4652 29.3639 32.3305 29.4608C32.1958 29.5577 32.0357 29.6133 31.8699 29.6207C31.7041 29.6281 31.5397 29.5871 31.3968 29.5026L26.3825 26.8506C26.253 26.7922 26.1124 26.762 25.9703 26.762C25.8281 26.762 25.6876 26.7922 25.558 26.8506L20.5437 29.5026C20.401 29.5848 20.2375 29.624 20.073 29.6155C19.9085 29.6069 19.75 29.551 19.6166 29.4545C19.4831 29.3579 19.3804 29.2248 19.3209 29.0713C19.2613 28.9177 19.2474 28.7502 19.2808 28.5889L20.2243 22.9878C20.2658 22.8574 20.274 22.7187 20.2481 22.5844C20.2221 22.4501 20.1628 22.3244 20.0757 22.2189L15.9157 18.2409C15.804 18.1292 15.7255 17.9887 15.6888 17.8351C15.6522 17.6814 15.6589 17.5206 15.7081 17.3705C15.7574 17.2204 15.8473 17.0869 15.9679 16.9848C16.0884 16.8828 16.2349 16.8161 16.3911 16.7923L22.0257 15.9715C22.166 15.9586 22.3001 15.9079 22.4139 15.8248C22.5277 15.7418 22.6169 15.6294 22.672 15.4998L25.2088 10.4001C25.2764 10.2552 25.3832 10.1322 25.5171 10.045C25.6511 9.95785 25.8068 9.90999 25.9666 9.9069C26.1264 9.9038 26.2838 9.94559 26.421 10.0275C26.5583 10.1094 26.6697 10.2282 26.7428 10.3703V10.3666Z" stroke="#2B3990" stroke-width="2.5" stroke-linecap="round" stroke-linejoin="round"/>
</svg>
