<svg width="43" height="44" viewBox="0 0 43 44" fill="none" xmlns="http://www.w3.org/2000/svg">
<path d="M34.5105 39.4719C26.0865 39.4719 17.6625 39.4719 9.2905 39.4719C9.2385 39.9399 9.2905 40.4599 9.1865 40.8759C8.8745 42.0199 8.1465 42.7479 6.9505 42.9559C5.8065 43.1639 4.7145 42.6959 4.0905 41.7079C3.4665 40.6679 3.5185 39.6279 4.1425 38.6399C4.2465 38.4319 4.3505 38.1719 4.3505 37.9119C4.3505 36.3519 4.3505 34.7919 4.3505 33.1799C3.6745 33.1799 3.0505 33.1799 2.3745 33.1799C1.4385 33.1799 0.866502 32.6079 0.866502 31.6719C0.866502 31.2559 0.866502 30.8399 0.866502 30.4239C0.866502 29.5399 1.4385 28.9679 2.3225 28.9679C4.7145 28.9679 7.1585 28.9679 9.5505 28.9679C9.7065 28.9679 9.8625 28.9679 10.1225 28.9679C9.9665 28.8119 9.8625 28.6559 9.7585 28.5519C6.8985 25.5879 3.9865 22.6239 1.0745 19.6599C0.294502 18.8799 0.294502 18.0999 1.0745 17.3719C1.3865 17.0599 1.6465 16.7999 1.9065 16.5919C1.5945 16.0199 1.2305 15.5519 1.0225 15.0319C0.658502 13.9399 1.1265 12.7439 2.1145 12.1199C3.1025 11.4959 4.4025 11.5999 5.2345 12.3799C5.3905 12.5359 5.5465 12.6919 5.7545 12.8479C9.8105 16.9039 13.9185 21.0119 17.9745 25.0679C18.2865 25.3799 18.6505 25.5359 19.0665 25.5359C19.5345 25.4839 19.9505 25.5359 20.4705 25.5359C20.4705 25.3279 20.4705 25.1719 20.4705 25.0679C20.4705 23.8199 20.4705 22.5719 20.4705 21.3759C20.4705 20.2319 21.3545 19.2959 22.5505 19.2959C26.2945 19.2959 30.0385 19.2959 33.7825 19.2959C34.9265 19.2959 35.8625 20.2319 35.8625 21.3759C35.8625 22.7799 35.8625 24.1319 35.8625 25.5359C36.7985 25.5359 37.6825 25.5359 38.6705 25.5359C38.6705 25.3799 38.6705 25.2239 38.6705 25.0679C38.6705 23.6119 38.6705 22.2079 38.6705 20.7519C38.6705 19.8679 39.2425 19.2959 40.1265 19.2959C40.5425 19.2959 41.0105 19.2959 41.4265 19.2959C42.2585 19.2959 42.8305 19.8679 42.8305 20.6999C42.8305 24.1839 42.8305 27.7199 42.8305 31.2039C42.8305 32.2959 41.8945 33.2319 40.8025 33.2319C40.3345 33.2319 39.8665 33.2319 39.3985 33.2319C39.3985 33.3359 39.3465 33.4399 39.3465 33.5439C39.3465 35.0519 39.3465 36.5599 39.3465 38.0679C39.3465 38.2239 39.3985 38.3799 39.4505 38.5359C40.3345 39.6279 40.1785 41.1359 39.3465 42.0719C38.5145 43.0079 37.1625 43.3199 36.0185 42.7479C34.8225 42.1239 34.2505 40.8759 34.5105 39.4719ZM2.3225 31.7759C2.4785 31.7759 2.6345 31.7759 2.7905 31.7759C15.3225 31.7759 27.8545 31.7759 40.3865 31.7759C41.1665 31.7759 41.3745 31.5679 41.3745 30.7359C41.3745 27.5119 41.3745 24.2879 41.3745 21.0639C41.3745 20.9079 41.3745 20.7519 41.3745 20.5959C40.8545 20.5959 40.4385 20.5959 39.9705 20.5959C39.9705 20.7519 39.9705 20.9079 39.9705 21.0639C39.9705 23.8199 39.9705 26.5759 39.9705 29.3319C39.9705 30.1119 39.7625 30.3199 38.9825 30.3199C31.6505 30.3199 24.3185 30.3199 16.9865 30.3199C16.2065 30.3199 15.5825 30.0599 15.0105 29.4879C11.1105 25.5879 7.2105 21.6879 3.3105 17.7359C3.2065 17.6319 3.1025 17.4759 3.0505 17.3719C2.6345 17.7879 2.2705 18.0999 1.9065 18.4119C2.0105 18.5679 2.1665 18.6719 2.2705 18.7759C5.5465 22.1559 8.8745 25.5359 12.1505 28.8639C12.4105 29.1239 12.6185 29.4359 12.4625 29.7999C12.3065 30.1639 11.9945 30.2159 11.5785 30.2159C8.6145 30.2159 5.7025 30.2159 2.7385 30.2159C2.5825 30.2159 2.4265 30.2159 2.2705 30.2159C2.3225 30.8399 2.3225 31.2559 2.3225 31.7759ZM8.6145 35.2079C17.4545 35.2079 26.2945 35.2079 35.0825 35.2079C35.0825 34.4799 35.0825 33.8039 35.0825 33.1799C26.2425 33.1799 17.4025 33.1799 8.6145 33.1799C8.6145 33.8559 8.6145 34.5319 8.6145 35.2079ZM20.4705 26.8879C20.0025 26.8879 19.5345 26.8359 19.1185 26.8879C18.2345 26.9399 17.5585 26.6279 16.9345 26.0039C12.8265 21.8439 8.6665 17.7359 4.5585 13.5759C3.9865 13.0039 3.2585 12.9519 2.7385 13.4719C2.2185 13.9919 2.2705 14.7199 2.8425 15.2919C7.2625 19.7119 11.7345 24.1839 16.2065 28.6039C16.4145 28.8119 16.7265 28.9159 16.9865 28.9159C18.0785 28.9679 19.1185 28.9159 20.2105 28.9159C20.3145 28.9159 20.4185 28.9159 20.4705 28.8639C20.4705 28.2399 20.4705 27.5639 20.4705 26.8879ZM28.8425 28.9159C28.8425 26.8359 28.8425 24.8079 28.8425 22.7799C28.8425 22.2079 29.1025 21.9999 29.6225 21.9999C30.4545 21.9999 31.2865 21.9999 32.1705 21.9999C32.7945 21.9999 33.0545 22.2079 33.0545 22.8839C33.0545 24.7559 33.0545 26.6279 33.0545 28.4999C33.0545 28.6559 33.0545 28.8119 33.0545 28.9679C33.5745 28.9679 33.9905 28.9679 34.4585 28.9679C34.4585 26.4719 34.4585 24.0279 34.4585 21.5319C34.4585 20.8559 34.1985 20.5959 33.5225 20.5959C29.9865 20.5959 26.3985 20.5959 22.8625 20.5959C22.1345 20.5959 21.8745 20.8559 21.8745 21.5319C21.8745 23.8719 21.8745 26.2119 21.8745 28.5519C21.8745 28.6559 21.8745 28.8119 21.8745 28.9159C22.3425 28.9159 22.8105 28.9159 23.2265 28.9159C23.2265 26.8359 23.2265 24.8079 23.2265 22.7799C23.2265 22.2079 23.4865 21.9999 24.0065 21.9999C24.8385 21.9999 25.6705 21.9999 26.5545 21.9999C27.1785 21.9999 27.4385 22.2079 27.4385 22.8839C27.4385 24.7559 27.4385 26.6279 27.4385 28.4999C27.4385 28.6559 27.4385 28.8119 27.4385 28.9679C27.9585 28.9159 28.3745 28.9159 28.8425 28.9159ZM35.1345 36.6639C26.2945 36.6639 17.4545 36.6639 8.6665 36.6639C8.6665 37.1319 8.6665 37.5999 8.6665 38.0159C17.5065 38.0159 26.3465 38.0159 35.1345 38.0159C35.1345 37.5479 35.1345 37.1319 35.1345 36.6639ZM6.5345 41.5519C7.2625 41.5519 7.9385 40.8759 7.9385 40.1479C7.9385 39.4199 7.2625 38.7439 6.5345 38.7439C5.8065 38.7439 5.1305 39.4199 5.1305 40.1479C5.1305 40.8759 5.7545 41.4999 6.5345 41.5519ZM37.2665 41.5519C37.9945 41.5519 38.6705 40.8759 38.6705 40.1479C38.6705 39.4199 37.9945 38.7439 37.2665 38.7439C36.5385 38.7439 35.8625 39.4199 35.8625 40.1479C35.8625 40.8759 36.4865 41.4999 37.2665 41.5519ZM7.2105 37.3919C7.2105 35.9879 7.2105 34.5839 7.2105 33.1799C6.7425 33.1799 6.2745 33.1799 5.8585 33.1799C5.8585 34.5839 5.8585 35.9879 5.8585 37.3919C6.3265 37.3919 6.7425 37.3919 7.2105 37.3919ZM37.9425 37.3919C37.9425 36.7159 37.9425 35.9879 37.9425 35.3119C37.9425 34.5839 37.9425 33.9079 37.9425 33.1799C37.4225 33.1799 37.0065 33.1799 36.5385 33.1799C36.5385 33.9079 36.5385 34.5839 36.5385 35.3119C36.5385 36.0399 36.5385 36.7159 36.5385 37.3919C37.0065 37.3919 37.4745 37.3919 37.9425 37.3919ZM38.6185 28.9679C38.6185 28.2399 38.6185 27.5639 38.6185 26.8879C37.6825 26.8879 36.7985 26.8879 35.8625 26.8879C35.8625 27.5639 35.8625 28.2399 35.8625 28.9679C36.7985 28.9679 37.6825 28.9679 38.6185 28.9679ZM24.6825 23.4039C24.6825 24.1319 24.6825 24.8079 24.6825 25.4839C25.1505 25.4839 25.5665 25.4839 26.0345 25.4839C26.0345 24.7559 26.0345 24.0799 26.0345 23.4039C25.5665 23.4039 25.1505 23.4039 24.6825 23.4039ZM30.2985 23.4039C30.2985 24.1319 30.2985 24.7559 30.2985 25.4319C30.7665 25.4319 31.1825 25.4319 31.6505 25.4319C31.6505 24.7559 31.6505 24.0799 31.6505 23.4039C31.1825 23.4039 30.7145 23.4039 30.2985 23.4039ZM26.0345 26.8879C25.5665 26.8879 25.0985 26.8879 24.6825 26.8879C24.6825 27.5639 24.6825 28.2399 24.6825 28.9159C25.1505 28.9159 25.5665 28.9159 26.0345 28.9159C26.0345 28.2399 26.0345 27.5639 26.0345 26.8879ZM31.6505 26.8879C31.1825 26.8879 30.7665 26.8879 30.2985 26.8879C30.2985 27.5639 30.2985 28.2399 30.2985 28.9159C30.7665 28.9159 31.2345 28.9159 31.6505 28.9159C31.6505 28.2399 31.6505 27.5639 31.6505 26.8879Z" fill="#2B3990" stroke="#2B3990" stroke-width="0.2" stroke-miterlimit="10"/>
<path d="M28.8945 1.04395C32.7945 1.04395 35.8625 4.16395 35.8625 8.06395C35.8625 11.9119 32.7425 14.9799 28.8425 14.9799C24.9945 14.9799 21.9265 11.8079 21.9265 7.95995C21.8745 4.11195 24.9945 1.04395 28.8945 1.04395ZM28.8425 13.5759C31.9105 13.5759 34.4585 11.0799 34.4585 7.95995C34.4585 4.89195 31.9625 2.39595 28.8945 2.39595C25.8785 2.39595 23.2785 4.94395 23.3305 7.95995C23.2785 11.0799 25.7745 13.5759 28.8425 13.5759Z" fill="#2B3990" stroke="#2B3990" stroke-width="0.25" stroke-miterlimit="10"/>
<path d="M26.7625 10.0919C26.5025 10.0919 26.2425 10.0919 26.0345 10.0919C25.2545 10.0919 24.6825 9.46793 24.6825 8.73993C24.6825 8.27193 24.6825 7.80393 24.6825 7.33593C24.6825 6.50393 25.2545 5.93193 26.1385 5.93193C26.3465 5.93193 26.5545 5.93193 26.8145 5.93193C26.8145 5.67193 26.8145 5.46393 26.8145 5.20393C26.8145 4.42393 27.3865 3.85193 28.1665 3.79993C28.6345 3.79993 29.0505 3.79993 29.5185 3.79993C30.4025 3.79993 30.9745 4.37193 30.9745 5.25593C30.9745 5.46393 30.9745 5.67193 30.9745 5.93193C31.2345 5.93193 31.4425 5.93193 31.7025 5.93193C32.4825 5.93193 33.0545 6.55593 33.0545 7.33593C33.0545 7.80393 33.0545 8.21993 33.0545 8.68793C33.0545 9.57193 32.4825 10.1439 31.5985 10.1439C31.3905 10.1439 31.1825 10.1439 30.9745 10.1439C30.9745 10.4039 30.9745 10.6639 30.9745 10.8719C30.9745 11.6519 30.4025 12.2239 29.6225 12.2239C29.1545 12.2239 28.7385 12.2239 28.2705 12.2239C27.3865 12.2239 26.8145 11.6519 26.8145 10.7679C26.7625 10.5599 26.7625 10.3519 26.7625 10.0919ZM31.6505 7.28393C31.1825 7.28393 30.8185 7.28393 30.4025 7.28393C29.7785 7.28393 29.5705 7.02393 29.5705 6.45193C29.5705 6.03593 29.5705 5.61993 29.5705 5.20393C29.0505 5.20393 28.6345 5.20393 28.1665 5.20393C28.1665 5.67193 28.1665 6.08793 28.1665 6.50393C28.1665 6.97193 27.9065 7.23193 27.3865 7.23193C26.9705 7.23193 26.5025 7.23193 26.0865 7.23193C26.0865 7.69993 26.0865 8.16793 26.0865 8.63593C26.5545 8.63593 26.9705 8.63593 27.3865 8.63593C27.9065 8.63593 28.1665 8.89593 28.1665 9.41593C28.1665 9.83193 28.1665 10.2999 28.1665 10.7159C28.6865 10.7159 29.1025 10.7159 29.5705 10.7159C29.5705 10.2479 29.5705 9.83193 29.5705 9.41593C29.5705 8.89593 29.8305 8.63593 30.3505 8.63593C30.7665 8.63593 31.2345 8.63593 31.6505 8.63593C31.6505 8.21993 31.6505 7.80393 31.6505 7.28393Z" fill="#2B3990" stroke="#2B3990" stroke-width="0.1" stroke-miterlimit="10"/>
</svg>
