<svg width="46" height="46" viewBox="0 0 46 46" fill="none" xmlns="http://www.w3.org/2000/svg">
<path d="M22.9998 35.116C23.1558 35.012 23.2598 34.856 23.3638 34.752C25.4438 32.672 27.4718 30.644 29.5518 28.564C29.8638 28.252 30.1758 28.096 30.6438 28.096C37.4558 27.992 43.2278 32.776 44.6318 39.12C44.9958 40.836 44.9438 42.552 44.9438 44.268C44.9438 44.684 44.5798 44.944 44.1638 44.944C43.7478 44.944 43.4878 44.632 43.4878 44.216C43.4358 43.176 43.5398 42.136 43.3838 41.096C42.8638 36.156 40.2638 32.62 35.7398 30.54C35.4278 30.384 35.1158 30.28 34.7518 30.124C34.7518 30.28 34.6998 30.436 34.6998 30.54C34.6998 32.568 34.6998 34.544 34.6998 36.572C34.6998 36.832 34.7518 36.988 35.0118 37.092C36.3638 37.612 37.0918 38.964 36.8838 40.316C36.6238 41.72 35.4278 42.76 34.0238 42.76C32.5678 42.76 31.3718 41.824 31.1118 40.368C30.8518 39.016 31.5798 37.612 32.8798 37.092C33.1918 36.988 33.2438 36.832 33.2438 36.52C33.2438 34.284 33.2438 32.048 33.2438 29.708C32.4118 29.656 31.5798 29.604 30.7478 29.552C30.6438 29.552 30.4878 29.656 30.4358 29.76C28.2518 31.892 26.1198 34.076 23.9878 36.26C23.8318 36.416 23.7798 36.676 23.7798 36.832C23.7798 39.224 23.7798 41.668 23.7798 44.06C23.7798 44.632 23.4678 44.944 22.9998 44.892C22.5838 44.892 22.3238 44.58 22.3238 44.06C22.3238 41.668 22.3238 39.328 22.3238 36.936C22.3238 36.624 22.2198 36.364 22.0118 36.156C19.8798 34.076 17.7998 31.944 15.6678 29.864C15.5118 29.708 15.2518 29.604 14.9918 29.604C14.2638 29.604 13.5358 29.708 12.8078 29.76C12.8078 31.32 12.8078 32.828 12.8078 34.336C13.0158 34.388 13.2758 34.44 13.4838 34.492C15.1998 34.96 16.3958 36.52 16.4478 38.34C16.4478 39.536 16.4478 40.732 16.4478 41.928C16.4478 42.5 16.1878 42.76 15.6158 42.76C15.1478 42.76 14.7318 42.76 14.2638 42.76C13.7958 42.76 13.4838 42.448 13.4838 42.032C13.4838 41.616 13.7958 41.304 14.2638 41.304C14.4718 41.304 14.6798 41.304 14.9918 41.304C14.9398 40.056 14.9918 38.86 14.7838 37.664C14.6278 36.728 13.8998 36.052 12.9118 35.896C12.2878 35.792 11.5598 35.792 10.9358 35.948C9.84381 36.208 9.21981 37.04 9.11581 38.132C9.01181 39.172 9.11581 40.212 9.11581 41.304C9.37581 41.304 9.63581 41.304 9.84381 41.304C10.2598 41.304 10.5718 41.616 10.5198 42.032C10.5198 42.396 10.2598 42.708 9.84381 42.76C9.32382 42.76 8.80381 42.76 8.28381 42.76C7.91981 42.76 7.60781 42.5 7.60781 42.188C7.60781 40.68 7.50381 39.172 7.65981 37.664C7.86781 35.896 9.06382 34.856 10.8318 34.44C10.9358 34.388 11.0918 34.388 11.1958 34.336C11.1958 32.984 11.1958 31.632 11.1958 30.228C10.9878 30.28 10.8318 30.332 10.6758 30.384C6.15181 32.204 3.39581 35.48 2.61581 40.316C2.40781 41.564 2.45981 42.916 2.40781 44.164C2.40781 44.684 1.99181 45.1 1.52381 44.944C1.41981 44.84 1.10781 44.528 1.10781 44.32C0.899815 41.096 1.26381 37.924 3.03181 35.064C5.42381 31.112 8.95981 28.772 13.6398 28.2C14.2638 28.148 14.8358 28.148 15.4598 28.096C15.8238 28.044 16.1358 28.2 16.3958 28.46C18.4758 30.54 20.5558 32.62 22.6358 34.7C22.7398 34.856 22.8438 35.012 22.9998 35.116ZM35.4278 39.848C35.4278 39.068 34.7518 38.392 33.9718 38.392C33.1918 38.392 32.5158 39.068 32.5158 39.848C32.5158 40.628 33.1918 41.304 33.9718 41.304C34.7518 41.304 35.4278 40.628 35.4278 39.848Z" fill="#2B3990" stroke="#2B3990" stroke-width="0.5" stroke-miterlimit="10"/>
<path d="M33.4518 12.184C35.4278 12.964 35.8438 14.888 35.1678 16.24C34.6998 17.228 33.8678 17.748 32.8278 17.904C32.6718 17.904 32.4638 18.06 32.4638 18.164C32.1518 20.14 31.1638 21.752 29.8118 23.156C29.1878 23.78 28.4078 24.352 27.7318 24.924C27.5758 25.028 27.4718 25.288 27.4198 25.444C27.3678 26.276 27.4198 27.16 27.4198 27.992C27.4198 28.512 27.1598 28.824 26.6918 28.824C26.2238 28.824 25.9638 28.512 25.9638 27.94C25.9638 27.264 25.9638 26.588 25.9638 25.86C23.9878 26.848 22.0638 26.848 20.0878 25.86C20.0878 26.64 20.0878 27.316 20.0878 27.992C20.0878 28.512 19.8278 28.824 19.3598 28.824C18.8918 28.824 18.6318 28.512 18.6318 27.992C18.6318 27.16 18.6318 26.38 18.6318 25.548C18.6318 25.184 18.5278 25.028 18.2678 24.82C16.3958 23.52 14.8358 21.908 14.0038 19.724C13.7958 19.152 13.6398 18.528 13.4838 17.904C11.7678 17.644 10.7798 16.76 10.5718 15.356C10.3638 14.004 11.0918 12.86 12.5478 12.132C12.3918 11.352 12.1838 10.624 12.0278 9.84404C11.5598 7.76404 12.2878 5.99604 13.6918 4.48804C15.1998 2.87604 17.0718 1.94004 19.2038 1.47204C22.7398 0.640043 26.2238 0.848043 29.4998 2.51204C30.3838 2.98004 31.2158 3.55204 31.9438 4.22804C33.7638 5.89204 34.4398 7.97204 33.7638 10.416C33.7118 10.988 33.5558 11.56 33.4518 12.184ZM14.9398 13.224C14.9398 14.472 14.9398 15.668 14.9398 16.916C14.9398 18.008 15.1998 19.048 15.7198 20.036C17.0198 22.324 18.9438 23.884 21.3358 24.872C22.4798 25.34 23.6238 25.288 24.7678 24.82C26.6918 24.04 28.2518 22.792 29.5518 21.18C30.3318 20.14 30.9038 19.048 31.0078 17.748C31.1118 16.24 31.0598 14.784 31.0598 13.276C31.0598 13.172 30.9558 13.068 30.8518 13.016C29.6038 12.236 28.5638 11.196 27.6278 10.104C27.2638 9.68804 26.8998 9.22004 26.4838 8.75204C22.9478 10.988 19.0998 12.496 14.9398 13.224ZM31.9958 11.976C32.2038 11.04 32.3598 10.26 32.5678 9.53204C32.8798 8.18004 32.4638 7.03604 31.6318 5.99604C30.9038 5.06004 29.9678 4.43604 28.9798 3.86404C27.4198 3.03204 25.7558 2.66804 23.9878 2.56404C21.1798 2.40804 18.4758 2.87604 16.1358 4.48804C14.8878 5.37204 13.8478 6.41204 13.5358 7.97204C13.2758 9.32404 13.8478 10.572 14.1078 11.924C15.1998 11.664 16.1878 11.456 17.1758 11.196C20.3478 10.312 23.4158 9.11604 26.1198 7.19204C26.6918 6.77604 27.0038 6.82804 27.4718 7.40004C28.4598 8.54404 29.3958 9.68804 30.4358 10.728C30.7998 11.196 31.3718 11.508 31.9958 11.976ZM13.4838 16.396C13.4838 15.408 13.4838 14.472 13.4838 13.536C12.5998 13.64 12.0278 14.212 12.0278 14.992C12.0278 15.72 12.5998 16.292 13.4838 16.396ZM32.5678 16.396C33.4518 16.292 34.0238 15.72 34.0238 14.94C34.0238 14.16 33.3998 13.588 32.5678 13.536C32.5678 14.472 32.5678 15.408 32.5678 16.396Z" fill="#2B3990" stroke="#2B3990" stroke-width="0.25" stroke-miterlimit="10"/>
<path d="M22.9998 22.272C22.1158 22.272 21.2838 22.012 20.5038 21.492C20.0878 21.18 19.9318 20.764 20.1918 20.4C20.4518 20.036 20.8678 19.984 21.2838 20.244C22.4278 20.972 23.5718 20.972 24.7158 20.244C25.1838 19.932 25.5998 19.984 25.8598 20.4C26.1198 20.764 25.9638 21.18 25.5478 21.492C24.7678 22.012 23.9358 22.272 22.9998 22.272Z" fill="#2B3990" stroke="#2B3990" stroke-width="0.25" stroke-miterlimit="10"/>
<path d="M20.0878 14.94C20.0878 15.772 19.4638 16.448 18.6318 16.396C17.7998 16.396 17.1758 15.772 17.1758 14.94C17.1758 14.108 17.7998 13.484 18.6318 13.484C19.4118 13.484 20.0878 14.16 20.0878 14.94Z" fill="#2B3990" stroke="#2B3990" stroke-width="0.25" stroke-miterlimit="10"/>
<path d="M25.9638 14.888C25.9638 14.056 26.6918 13.484 27.5238 13.484C28.3038 13.536 28.9278 14.212 28.8758 14.992C28.8758 15.772 28.1998 16.396 27.3678 16.396C26.5358 16.396 25.9118 15.72 25.9638 14.888Z" fill="#2B3990" stroke="#2B3990" stroke-width="0.25" stroke-miterlimit="10"/>
</svg>
