<svg width="46" height="46" viewBox="0 0 46 46" fill="none" xmlns="http://www.w3.org/2000/svg">
<path d="M16.729 21.8561C17.093 21.8561 17.405 21.8561 17.769 21.8561C18.445 21.9081 18.913 22.3761 18.913 23.0001C18.913 23.6241 18.445 24.0921 17.769 24.1441C17.041 24.1441 16.313 24.1441 15.585 24.1441C14.909 24.1441 14.441 23.6241 14.441 23.0001C14.441 22.3761 14.909 21.9081 15.585 21.8561C15.949 21.8561 16.365 21.8561 16.729 21.8561Z" fill="#2B3990" stroke="#2B3990" stroke-width="0.5" stroke-miterlimit="10"/>
<path d="M16.677 29.656C16.313 29.656 15.897 29.656 15.533 29.656C14.909 29.656 14.493 29.188 14.441 28.616C14.441 27.992 14.805 27.524 15.429 27.472C16.261 27.42 17.093 27.42 17.925 27.472C18.549 27.524 18.913 27.992 18.913 28.616C18.913 29.188 18.445 29.656 17.821 29.656C17.457 29.656 17.041 29.656 16.677 29.656Z" fill="#2B3990" stroke="#2B3990" stroke-width="0.5" stroke-miterlimit="10"/>
<path d="M23.3331 29.656C22.9691 29.656 22.5531 29.656 22.1891 29.656C21.6171 29.656 21.2011 29.188 21.1491 28.616C21.0971 27.992 21.4611 27.472 22.0851 27.472C22.9171 27.42 23.8011 27.42 24.6331 27.472C25.2571 27.524 25.6211 27.992 25.5691 28.616C25.5171 29.188 25.1011 29.604 24.5291 29.656C24.4771 29.656 24.4771 29.656 24.4251 29.656C24.0611 29.656 23.6971 29.656 23.3331 29.656Z" fill="#2B3990" stroke="#2B3990" stroke-width="0.5" stroke-miterlimit="10"/>
<path d="M29.9891 29.656C29.6251 29.656 29.2091 29.656 28.8451 29.656C28.2731 29.656 27.8571 29.188 27.8051 28.616C27.7531 27.992 28.1171 27.472 28.7411 27.472C29.5731 27.42 30.4571 27.42 31.2891 27.472C31.9131 27.524 32.2771 27.992 32.2251 28.616C32.1731 29.188 31.7571 29.604 31.1851 29.656C30.7691 29.656 30.3531 29.656 29.9891 29.656Z" fill="#2B3990" stroke="#2B3990" stroke-width="0.5" stroke-miterlimit="10"/>
<path d="M7.78503 16.344C7.78503 16.084 7.78503 15.876 7.78503 15.72C7.78503 12.756 7.78503 9.74002 7.78503 6.77602C7.78503 5.63202 8.14903 5.26802 9.29303 5.26802C10.957 5.26802 12.569 5.26802 14.233 5.26802C14.285 5.26802 14.285 5.26802 14.441 5.21602C14.441 4.95602 14.441 4.69602 14.441 4.43602C14.441 2.20002 15.793 0.848022 18.029 0.848022C21.513 0.848022 25.049 0.848022 28.533 0.848022C30.821 0.848022 32.173 2.20002 32.173 4.48802C32.173 4.74802 32.173 4.95602 32.173 5.26802C32.797 5.26802 33.369 5.26802 33.993 5.26802C35.137 5.26802 36.333 5.26802 37.477 5.26802C38.413 5.26802 38.829 5.68402 38.829 6.67202C38.829 9.68802 38.829 12.704 38.829 15.72C38.829 15.928 38.829 16.136 38.829 16.344C40.597 16.344 42.261 16.344 43.925 16.344C45.173 16.344 45.485 16.656 45.485 17.904C45.485 26.484 45.485 35.012 45.485 43.592C45.485 44.84 45.173 45.204 43.873 45.204C30.145 45.204 16.417 45.204 2.74103 45.204C2.53303 45.204 2.32503 45.204 2.11703 45.152C1.59703 45.1 1.23303 44.736 1.18103 44.216C1.12903 44.008 1.12903 43.852 1.12903 43.644C1.12903 35.064 1.12903 26.484 1.12903 17.852C1.12903 17.696 1.12903 17.592 1.12903 17.436C1.18103 16.708 1.59703 16.344 2.32503 16.344C3.93703 16.344 5.54903 16.344 7.16103 16.344C7.36903 16.344 7.52503 16.344 7.78503 16.344ZM10.073 7.50402C10.073 19.36 10.073 31.112 10.073 42.916C12.673 42.916 15.169 42.916 17.769 42.916C17.769 42.708 17.769 42.5 17.769 42.292C17.769 39.692 17.769 37.092 17.769 34.492C17.769 33.296 18.081 32.984 19.277 32.984C21.981 32.984 24.685 32.984 27.389 32.984C28.533 32.984 28.897 33.348 28.897 34.492C28.897 37.092 28.897 39.692 28.897 42.292C28.897 42.5 28.897 42.708 28.897 42.916C31.497 42.916 34.045 42.916 36.593 42.916C36.593 31.112 36.593 19.308 36.593 7.55602C35.137 7.55602 33.681 7.55602 32.173 7.55602C32.173 7.81602 32.173 8.02402 32.173 8.23202C32.173 10.468 32.173 12.756 32.173 14.992C32.173 17.228 30.821 18.632 28.533 18.632C25.049 18.632 21.513 18.632 18.029 18.632C17.665 18.632 17.249 18.632 16.885 18.528C15.325 18.112 14.389 16.864 14.389 15.148C14.389 12.86 14.389 10.52 14.389 8.23202C14.389 8.02402 14.389 7.81602 14.389 7.60802C12.933 7.50402 11.529 7.50402 10.073 7.50402ZM29.989 9.74002C29.989 7.97202 29.989 6.25602 29.989 4.48802C29.989 3.44802 29.573 3.08402 28.585 3.08402C25.101 3.08402 21.565 3.08402 18.081 3.08402C17.093 3.08402 16.677 3.50002 16.677 4.43602C16.677 7.97202 16.677 11.456 16.677 14.992C16.677 15.98 17.093 16.396 18.081 16.396C21.565 16.396 25.101 16.396 28.585 16.396C29.573 16.396 29.989 15.98 29.989 14.94C29.989 13.172 29.989 11.456 29.989 9.74002ZM7.78503 18.632C6.27703 18.632 4.87303 18.632 3.41703 18.632C3.41703 26.744 3.41703 34.856 3.41703 42.968C4.87303 42.968 6.32903 42.968 7.78503 42.968C7.78503 34.804 7.78503 26.744 7.78503 18.632ZM38.881 42.916C40.389 42.916 41.845 42.916 43.249 42.916C43.249 34.804 43.249 26.692 43.249 18.632C41.793 18.632 40.337 18.632 38.881 18.632C38.881 26.744 38.881 34.804 38.881 42.916ZM26.661 35.22C24.425 35.22 22.241 35.22 20.057 35.22C20.057 37.82 20.057 40.368 20.057 42.916C22.293 42.916 24.425 42.916 26.661 42.916C26.661 40.368 26.661 37.82 26.661 35.22Z" fill="#2B3990" stroke="#2B3990" stroke-width="0.5" stroke-miterlimit="10"/>
<path d="M23.333 21.8561C23.697 21.8561 24.061 21.8561 24.425 21.8561C25.101 21.9081 25.569 22.3241 25.569 22.9481C25.569 23.5721 25.101 24.0921 24.425 24.0921C23.697 24.0921 23.021 24.0921 22.293 24.0921C21.617 24.0921 21.149 23.6241 21.149 23.0001C21.149 22.3761 21.617 21.9081 22.293 21.8561C22.605 21.8561 22.969 21.8561 23.333 21.8561Z" fill="#2B3990" stroke="#2B3990" stroke-width="0.5" stroke-miterlimit="10"/>
<path d="M30.0411 21.8561C30.4051 21.8561 30.7171 21.8561 31.0811 21.8561C31.7571 21.9081 32.2251 22.3241 32.2251 22.9481C32.2251 23.5721 31.8091 24.0401 31.1331 24.0921C30.4051 24.1441 29.6251 24.1441 28.8971 24.0921C28.2731 24.0401 27.8051 23.5721 27.8051 23.0001C27.8051 22.3761 28.2211 21.9081 28.8971 21.8561C29.2611 21.8561 29.6251 21.8561 30.0411 21.8561Z" fill="#2B3990" stroke="#2B3990" stroke-width="0.5" stroke-miterlimit="10"/>
<path d="M22.1891 8.49206C22.1891 7.86806 22.1891 7.19206 22.1891 6.56806C22.1891 5.73606 22.6571 5.21606 23.3331 5.21606C24.0091 5.21606 24.4251 5.73606 24.4251 6.51606C24.4251 7.14006 24.4251 7.81606 24.4251 8.54406C24.7891 8.54406 25.1011 8.54406 25.4651 8.54406C25.7771 8.54406 26.1411 8.54406 26.4531 8.54406C27.2331 8.54406 27.7531 9.01206 27.7531 9.63606C27.7531 10.3121 27.2331 10.7801 26.4531 10.7801C25.7771 10.7801 25.1531 10.7801 24.4251 10.7801C24.4251 11.5081 24.4251 12.2361 24.4251 12.9121C24.4251 13.3801 24.2171 13.7961 23.7491 14.0041C23.3331 14.2121 22.9171 14.1601 22.6571 13.8481C22.4491 13.5881 22.2411 13.2241 22.2411 12.8601C22.1891 12.1841 22.2411 11.5601 22.2411 10.7801C21.8771 10.7801 21.5651 10.7801 21.2011 10.7801C20.8371 10.7801 20.5251 10.7801 20.1611 10.7801C19.4331 10.7801 18.9131 10.3121 18.9131 9.68806C18.9131 9.06406 19.4331 8.59606 20.1611 8.54406C20.8371 8.54406 21.4611 8.54406 22.1371 8.54406C22.0851 8.54406 22.1371 8.54406 22.1891 8.49206Z" fill="#2B3990"/>
</svg>
