<svg width="79" height="79" viewBox="0 0 79 79" fill="none" xmlns="http://www.w3.org/2000/svg">
<path d="M24.2283 36.5898C21.3185 36.5635 17.3948 36.5767 16.7892 40.5662C16.46 41.7775 14.1558 52.1792 26.019 63.226C28.9815 65.991 36.4733 72.4163 41.9243 72.4163C45.9665 72.4163 50.9435 69.4538 54.9198 64.6875C56.3155 63.0153 57.5137 61.1062 58.567 58.8415C61.2267 53.1667 63.9653 45.4642 61.8455 40.9743C61.2135 39.6313 60.1733 38.6833 58.8172 38.1172C60.2392 36.5635 61.1213 34.5095 61.2003 32.3633C61.3188 29.1375 59.6072 25.8985 56.8422 24.1078C55.8152 23.4363 54.6565 22.9887 53.4452 22.7385C52.958 12.4553 49.1133 6.58301 42.8065 6.58301C39.3305 6.58301 35.341 6.97801 32.0362 8.92667C31.0355 8.53167 29.9822 8.30784 28.8893 8.30784C24.202 8.30784 20.3968 12.113 20.3968 16.8003C20.3968 20.1447 22.3587 23.1203 25.3343 24.4897C25.4528 28.4002 26.8222 32.2975 28.9552 35.5497C28.2837 36.5108 26.6247 36.5767 24.2283 36.5898ZM42.9382 34.1672C43.2147 34.5622 43.3727 34.7992 43.399 35.023C43.4122 35.181 43.3727 35.2995 43.162 35.6682C42.767 36.3923 42.0297 37.7353 43.5833 39.684C43.7282 39.8552 43.873 40.0132 44.031 40.158C43.083 40.6057 42.0692 40.8558 41.0158 40.8558C37.0658 40.8558 32.3917 37.1297 29.8373 31.9025C29.8373 31.863 29.8637 31.8235 29.8637 31.784C29.8637 28.9927 31.4042 26.2672 33.7873 24.8188C34.788 24.2132 35.9203 23.805 37.1185 23.3837C37.4345 23.2652 37.7505 23.1598 38.0665 23.0413C39.6333 22.462 41.4108 21.6852 42.7538 20.2632C43.0172 19.9867 43.241 19.7102 43.4517 19.4205C43.8862 19.9603 44.426 20.3817 45.058 20.566C46.0323 20.8425 47.0067 20.7767 47.8493 20.724C48.2048 20.6977 48.534 20.6713 48.9158 20.6845C49.5347 20.6977 50.4958 21.3033 50.746 21.8037C50.7592 22.0538 50.7855 22.2777 50.7987 22.5147C49.7058 22.5673 48.613 22.778 47.5728 23.173C44.821 24.2263 41.6215 26.7148 41.6215 30.2567C41.6347 32.2843 42.3852 33.3772 42.9382 34.1672ZM46.954 41.501C47.5333 41.6063 48.1258 41.659 48.7052 41.6853C48.3233 42.765 47.6123 44.2265 46.322 45.293C44.4523 46.8335 39.0277 47.4128 35.3278 43.002C34.946 42.5412 34.5642 41.8697 34.2482 41.1192C36.3812 42.607 38.7117 43.4892 41.029 43.4892C43.1488 43.5023 45.1897 42.8045 46.954 41.501ZM50.3115 18.3145C49.8507 18.1565 49.3898 18.0643 48.9685 18.0512C48.5472 18.038 48.1258 18.0775 47.6913 18.1038C46.9935 18.1565 46.3352 18.196 45.7953 18.038C45.453 17.8932 44.8737 16.8267 44.5445 15.7207C44.505 15.352 44.426 14.9702 44.2943 14.6147C44.0573 13.9827 43.3858 13.614 42.7275 13.7852C42.0692 13.9563 41.6478 14.5883 41.7532 15.2598C41.7927 15.4968 41.8453 15.7997 41.9375 16.142C41.9638 17.169 41.2265 18.0775 40.8578 18.4725C39.8835 19.4995 38.4483 20.1183 37.1712 20.5923L36.2495 20.9215C34.9723 21.3692 33.6557 21.8432 32.4312 22.5805C30.6142 23.6865 29.179 25.3718 28.2837 27.3073C28.073 26.2277 27.9545 25.1085 27.9545 23.9893C27.9545 17.169 29.9295 13.4692 32.9315 11.4547C32.9578 11.4415 32.9842 11.4283 33.0105 11.402C35.6833 9.62451 39.1725 9.21634 42.8065 9.21634C47.507 9.21634 49.482 13.9168 50.3115 18.3145ZM23.0302 16.8003C23.0302 13.5745 25.6635 10.9412 28.8893 10.9412C29.0737 10.9412 29.258 10.9543 29.4423 10.9675C27.3093 13.2058 25.782 16.5502 25.4133 21.5008C23.9387 20.4343 23.0302 18.7095 23.0302 16.8003ZM30.7985 37.9855C30.8775 40.1053 31.9703 43.0942 33.3133 44.7005C37.8558 50.0988 44.9263 49.8618 47.9942 47.3207C51.1147 44.74 51.6677 40.711 51.694 40.553C51.7467 40.1712 51.6018 39.7893 51.3517 39.4997C51.1015 39.21 50.6933 39.0388 50.3247 39.0652C48.5472 39.0915 46.5195 39.131 45.6373 38.0382C45.1765 37.472 45.1897 37.4588 45.4662 36.9453C45.7295 36.4582 46.1377 35.7208 46.006 34.6938C45.8875 33.8248 45.4662 33.2192 45.0975 32.6793C44.6498 32.0342 44.2548 31.468 44.2548 30.283C44.2548 28.229 46.4668 26.4383 48.5208 25.6483C50.7855 24.7793 53.4188 25.0295 55.3938 26.3067C57.3952 27.6102 58.646 29.9538 58.5538 32.258C58.4748 34.5753 56.9738 36.8268 54.9198 37.7485C54.5643 37.9065 54.301 38.2093 54.1957 38.5912C54.0903 38.973 54.1562 39.368 54.3668 39.684C56.5262 42.9098 55.96 47.6367 53.1292 49.8487C49.5742 52.8638 44.1627 57.4458 42.0428 59.197C40.0547 56.9192 34.6563 50.4148 32.1415 47.3733C29.8373 44.5952 29.7583 44.503 29.6662 44.4108C29.1658 43.9105 28.3627 43.8973 27.836 44.3977C27.3225 44.8848 27.283 45.7012 27.757 46.241C27.8887 46.399 28.8103 47.505 30.1007 49.0587C39.765 60.7112 41.0948 62.3175 41.9243 62.3175C42.056 62.3175 42.1745 62.278 42.3193 62.2253C42.6353 62.12 42.7802 62.0673 54.775 51.8895C58.0403 49.3483 59.1068 44.5425 57.6453 40.474C58.488 40.7768 59.0805 41.2903 59.4492 42.0935C60.7263 44.7927 59.5018 50.6387 56.1707 57.7223C55.2095 59.7763 54.1298 61.5143 52.879 63.0022C49.4557 67.1233 45.1502 69.783 41.9243 69.783C38.8038 69.783 33.524 66.6098 27.8228 61.3037C16.7233 50.9678 19.2382 41.6063 19.3435 41.2113C19.3567 41.1455 19.3698 41.0797 19.383 41.0138C19.5937 39.4602 20.726 39.1968 24.2152 39.2232C26.4403 39.2232 29.0078 39.2232 30.5615 37.7353C30.6537 37.8143 30.7195 37.9065 30.7985 37.9855Z" fill="white"/>
</svg>
