<svg width="80" height="80" viewBox="0 0 80 80" fill="none" xmlns="http://www.w3.org/2000/svg">
<path d="M71.9214 12.6398C72.2414 12.6398 72.5614 12.6398 72.8814 12.6398C73.6014 12.6398 74.4014 12.6398 75.2014 12.6398C76.2414 12.7198 76.8814 12.3998 77.2814 11.5998V10.8798C76.9614 10.0798 76.4014 9.75977 75.2814 9.75977H75.2014C72.0814 9.75977 68.8814 9.75977 65.7614 9.75977C64.5614 9.75977 63.3614 9.75977 62.1614 9.75977H60.0814C58.4014 9.75977 56.7214 9.75977 55.0414 9.75977C54.1614 9.75977 53.4414 10.3198 53.4414 11.1198C53.4414 11.5198 53.5214 11.9198 53.8414 12.2398C54.0814 12.5598 54.4814 12.7198 54.8814 12.7198C55.7614 12.7198 56.7214 12.7198 57.6014 12.7198C58.0014 12.7198 58.4014 12.7198 58.8014 12.7198H59.5214V23.0398H58.8014C58.4014 23.0398 58.0014 23.0398 57.6014 23.0398C57.2014 23.0398 56.8014 23.0398 56.4014 23.0398C55.9214 23.0398 55.3614 23.0398 54.8814 23.0398C54.1614 23.0398 53.6014 23.5998 53.5214 24.3198C53.4414 25.0398 53.8414 25.6798 54.5614 25.9198C54.7214 25.9998 54.9614 25.9998 55.2814 25.9998C55.4414 25.9998 55.6014 25.9998 55.6814 26.0798L56.3214 26.1598V27.6798C56.3214 29.5998 56.3214 31.5198 56.3214 33.4398C56.3214 38.3198 56.3214 43.2798 56.3214 48.2398C56.3214 50.3198 56.8814 52.1598 58.0814 53.9198C59.3614 55.8398 61.0414 57.5998 63.2014 59.5198C63.7614 59.9998 64.0014 60.4798 64.0014 61.1998V61.5198C64.0014 63.8398 63.9214 66.3198 64.0014 68.7198C64.0014 69.1198 64.2414 69.6798 64.5614 69.9998C65.0414 70.5598 65.6814 70.3998 66.0014 70.2398C66.6414 69.9998 66.9614 69.5198 66.9614 68.7998V68.3998C66.9614 66.0798 66.9614 63.6798 66.9614 61.2798C66.9614 60.4798 67.2014 59.9198 67.7614 59.4398C70.2414 57.2798 71.9214 55.3598 73.2014 53.3598C74.1614 51.8398 74.5614 50.3198 74.5614 48.6398C74.5614 43.5198 74.5614 38.3998 74.5614 33.3598C74.5614 31.4398 74.5614 29.5998 74.5614 27.6798V25.9198L75.3614 25.9998C76.4014 26.0798 77.0414 25.7598 77.4414 24.8798V23.9998C77.0414 23.1998 76.4014 22.8798 75.4414 22.9598C74.7214 23.0398 73.9214 23.0398 73.2014 22.9598C72.8814 22.9598 72.5614 22.9598 72.1614 22.9598H71.2014V12.6398H71.9214ZM62.4814 12.7198H68.2414V22.9598H62.4814V12.7198ZM71.4414 25.9198V33.1998H69.9214C69.3614 33.1998 68.7214 33.1998 68.1614 33.1998C67.1214 33.1998 66.4814 33.7598 66.4814 34.6398C66.4814 35.0398 66.6414 35.3598 66.8814 35.5998C67.2014 35.9198 67.6814 36.0798 68.2414 36.0798C68.8014 36.0798 69.3614 36.0798 70.0014 36.0798H71.5214V43.3598H69.9214C69.2814 43.3598 68.7214 43.3598 68.1614 43.3598C67.6014 43.3598 67.2014 43.5198 66.8814 43.8398C66.5614 44.0798 66.4014 44.3998 66.4014 44.7998C66.4014 45.6798 67.0414 46.2398 68.0014 46.2398C68.5614 46.2398 69.2014 46.2398 69.7614 46.2398C70.0814 46.2398 70.3214 46.2398 70.6414 46.2398H71.3614L71.4414 47.1998C71.5214 48.6398 71.6014 50.1598 70.6414 51.5998C69.2014 53.8398 67.3614 55.5998 65.7614 57.0398L65.2814 57.5198L64.8014 57.0398C64.7214 56.9598 64.6414 56.8798 64.5614 56.7998C64.4014 56.6398 64.1614 56.4798 63.9214 56.2398C63.6814 55.9198 63.3614 55.5998 63.1214 55.2798C62.1614 54.1598 61.1214 52.9598 60.1614 51.8398C59.4414 50.9598 59.1214 49.9198 59.1214 48.6398C59.1214 43.2798 59.1214 37.7598 59.1214 32.4798V25.8398H71.4414V25.9198Z" fill="white"/>
<path d="M45.2795 40.1601C44.5595 40.0001 44.3195 39.5201 44.1595 39.1201C41.1195 31.7601 35.5995 27.6001 27.7595 26.7201C27.5195 26.7201 27.0395 26.6401 26.7995 26.3201L26.3995 25.8401C25.5995 24.8801 24.7195 23.8401 23.9995 22.8001C23.3595 21.9201 23.3595 20.8001 23.9195 19.7601C24.4795 18.8001 25.4395 18.3201 26.5595 18.4001C27.9995 18.4801 28.9595 19.6001 29.1195 21.1201C29.1995 22.0801 29.9195 22.8001 30.7995 22.7201C31.6795 22.6401 32.3195 21.9201 32.3195 20.9601C32.3195 19.2001 31.5195 17.6001 30.0795 16.4801C28.9595 15.6001 27.6795 15.1201 26.3195 15.1201C25.9195 15.1201 25.5195 15.2001 25.1995 15.2001C23.1195 15.6001 21.4395 17.0401 20.7195 19.0401C19.9995 21.0401 20.3195 23.2801 21.6795 25.0401C21.8395 25.2801 21.9995 25.5201 22.2395 25.7601L23.1195 26.8001L22.0795 27.1201C21.9995 27.1201 21.9195 27.2001 21.9195 27.2001C15.4395 28.9601 10.8795 32.9601 8.39949 39.2801C8.23949 39.7601 7.67949 40.0801 7.35949 40.1601C4.79949 40.7201 2.87949 43.0401 2.79949 45.6001C2.71949 48.3201 4.47949 50.6401 7.11949 51.2801C7.83949 51.4401 8.31949 51.8401 8.55949 52.6401C11.3595 60.0001 18.3995 64.8001 26.0795 64.8001C26.7995 64.8001 27.4395 64.8001 28.1595 64.7201C35.7595 63.8401 41.1195 59.7601 44.1595 52.4801C44.3995 51.9201 44.7195 51.5201 45.4395 51.3601C48.0795 50.8001 49.9195 48.4801 49.9195 45.7601C49.8395 43.0401 47.9195 40.7201 45.2795 40.1601ZM44.1595 48.2401C42.5595 48.4001 41.9195 48.8801 41.4395 50.4001C39.3595 57.0401 33.2795 61.6001 26.3195 61.6001C19.3595 61.6001 13.2795 57.1201 11.1995 50.4801C10.6395 48.8001 10.1595 48.4001 8.39949 48.2401C6.95949 48.0801 5.91949 47.0401 5.99949 45.6001C6.07949 44.3201 7.11949 43.2801 8.47949 43.2001C10.0795 43.1201 10.7195 42.6401 11.1995 41.1201C13.2795 34.4001 19.4395 29.9201 26.3995 29.9201C33.3595 29.9201 39.4395 34.4001 41.5995 41.1201C42.0795 42.6401 42.7195 43.1201 44.3195 43.2001C45.7595 43.2801 46.7995 44.4001 46.7995 45.6801C46.6395 47.1201 45.5995 48.1601 44.1595 48.2401Z" fill="white"/>
<path d="M33.5216 56.88C31.3616 58.88 28.8016 59.92 25.9216 59.92C22.9616 59.92 20.4016 58.88 18.2416 56.88C17.8416 56.48 17.6016 56 17.6016 55.6C17.6016 55.2 17.7616 54.8 18.0816 54.48C18.4016 54.16 18.8016 54 19.2016 54C19.6016 54 20.0816 54.16 20.4816 54.56C23.9216 57.52 28.0016 57.52 31.4416 54.56C32.2416 53.84 33.2016 53.84 33.8416 54.56C34.3216 55.2 34.2416 56.16 33.5216 56.88Z" fill="white"/>
</svg>
