<svg width="80" height="80" viewBox="0 0 80 80" fill="none" xmlns="http://www.w3.org/2000/svg">
<path d="M70.8811 28.0798C70.8811 31.6798 70.8011 35.2798 70.8811 38.8798C71.0411 44.7198 69.5211 50.1598 66.4811 55.1198C60.4011 64.9598 51.8411 71.6798 40.8811 75.2798C40.3211 75.4398 39.6811 75.4398 39.2011 75.2798C33.0411 73.4398 27.6811 70.2398 22.8011 66.0798C18.4811 62.3198 14.8011 57.9998 12.2411 52.7998C10.2411 48.7198 9.12109 44.4798 9.12109 39.9998C9.12109 31.5198 9.12109 22.9598 9.12109 14.4798C9.12109 13.3598 9.28109 13.1198 10.4811 12.9598C17.8411 12.2398 24.3211 9.3598 30.3211 5.1998C30.7211 4.9598 31.2011 4.7998 31.6811 4.7998C37.1211 4.7998 42.6411 4.7998 48.0811 4.7998C48.7211 4.7998 49.2811 4.9598 49.7611 5.3598C54.0011 8.3198 58.5611 10.7198 63.6811 11.9198C65.6011 12.3998 67.6811 12.6398 69.6011 13.0398C70.5611 13.1998 70.8011 13.4398 70.8011 14.3998C70.8811 18.8798 70.8811 23.4398 70.8811 28.0798ZM11.2011 14.8798C11.2011 15.1998 11.2011 15.3598 11.2011 15.5998C11.2011 23.6798 11.2011 31.7598 11.2011 39.8398C11.2011 44.1598 12.2411 48.1598 14.1611 51.9998C16.9611 57.5198 20.9611 61.9998 25.7611 65.8398C29.9211 69.1198 34.4011 71.6798 39.4411 73.2798C39.8411 73.3598 40.3211 73.3598 40.7211 73.2798C50.0011 70.1598 57.4411 64.5598 63.2011 56.6398C67.1211 51.1998 69.1211 45.1998 68.9611 38.3998C68.8011 30.8798 68.9611 23.3598 68.9611 15.7598C68.9611 15.5198 68.9611 15.1998 68.9611 14.8798C68.0011 14.7198 67.1211 14.6398 66.3211 14.4798C60.0011 13.3598 54.4011 10.7198 49.1211 7.1198C48.8011 6.8798 48.3211 6.7198 47.9211 6.7198C42.8011 6.7198 37.6811 6.7198 32.5611 6.7198C32.0011 6.7198 31.5211 6.8798 31.0411 7.1998C24.9611 11.1998 18.4811 13.9998 11.2011 14.8798Z" fill="white"/>
<path d="M44.5627 46.6397C44.5627 47.9997 44.5627 49.2797 44.5627 50.6397C44.5627 52.7997 43.1227 54.2397 40.9627 54.3997C40.3227 54.3997 39.6827 54.3997 39.0427 54.3997C36.8827 54.3197 35.4427 52.7997 35.4427 50.6397C35.4427 47.9997 35.4427 45.2797 35.4427 42.6397C35.4427 42.2397 35.2827 41.9197 35.0427 41.5997C33.7627 39.8397 32.4027 38.1597 31.2827 36.3197C30.2427 34.3997 29.4427 32.3197 28.5627 30.3997C28.4827 30.2397 28.2427 29.9997 28.0827 29.9197C25.6027 29.0397 23.0427 28.1597 20.5627 27.2797C19.9227 27.0397 19.3627 27.1997 18.8827 27.5997C18.0027 28.4797 17.6827 29.5197 17.9227 30.7197C18.0827 31.9197 18.8027 32.7197 20.0027 33.0397C20.3227 33.1197 20.6427 33.1197 20.9627 33.0397C23.0427 32.3197 24.9627 32.6397 26.4827 34.1597C28.0027 35.5997 28.4827 37.4397 27.8427 39.4397C27.2027 41.5197 25.6827 42.6397 23.5227 43.0397C20.4827 43.5197 17.6027 40.8797 17.7627 37.7597C17.7627 37.2797 17.6027 37.0397 17.2027 36.8797C12.5627 34.2397 12.0027 27.5197 16.1627 24.1597C17.5227 23.1197 19.0427 22.7197 20.7227 22.8797C23.9227 23.1997 27.2027 23.5197 30.4027 23.8397C30.8827 23.9197 31.4427 23.8397 31.9227 23.6797C33.4427 23.2797 34.9627 22.7997 36.4027 22.3197C38.8027 21.5197 41.1227 21.5197 43.4427 22.3197C44.1627 22.5597 44.8827 22.7197 45.5227 22.9597C47.7627 23.9197 50.0027 23.9197 52.3227 23.5997C54.3227 23.3597 56.4027 23.1997 58.4027 22.9597C62.6427 22.3997 65.4427 25.5197 66.1627 28.6397C66.8827 31.8397 65.6027 35.0397 62.8027 36.7197C62.4027 36.9597 62.3227 37.1997 62.3227 37.6797C62.4827 40.4797 60.4827 42.7997 57.6827 43.1197C55.2027 43.4397 52.6427 41.5997 52.1627 39.1197C51.6027 36.3997 53.1227 33.7597 55.7627 33.0397C56.8827 32.7197 57.9227 32.7997 58.9627 33.1197C59.3627 33.1997 59.8427 33.1997 60.1627 33.0397C62.2427 32.1597 62.5627 29.0397 60.7227 27.7597C60.3227 27.4397 59.6027 27.2797 59.1227 27.4397C56.6427 28.2397 54.2427 29.1197 51.7627 29.9197C51.3627 30.0797 51.2027 30.3197 51.0427 30.7197C49.6027 34.7997 47.6027 38.6397 44.5627 41.8397C44.4027 41.9997 44.3227 42.3197 44.2427 42.5597C44.4827 43.9197 44.5627 45.2797 44.5627 46.6397ZM37.4427 46.0797C37.4427 47.5997 37.4427 49.1197 37.4427 50.6397C37.4427 51.7597 38.0827 52.3997 39.2027 52.3997C39.6027 52.3997 40.0827 52.3997 40.4827 52.3997C41.9227 52.3997 42.4827 51.8397 42.4827 50.3197C42.4827 47.4397 42.4827 44.5597 42.4827 41.6797C42.4827 41.0397 42.6427 40.6397 43.2827 40.3197C43.6027 40.1597 43.9227 39.8397 44.1627 39.5197C46.3227 36.8797 47.9227 33.8397 49.1227 30.7197C49.2827 30.3997 49.2027 29.9997 49.2827 29.6797C49.3627 29.3597 49.5227 28.9597 49.7627 28.7197C49.9227 28.4797 50.2427 28.3997 50.5627 28.2397C53.3627 27.1997 56.1627 26.2397 58.9627 25.2797C59.4427 25.1197 59.9227 25.1997 60.4027 25.2797C62.4827 25.6797 63.9227 27.7597 64.0027 30.0797C64.0827 32.3197 62.4827 34.3997 60.3227 35.0397C59.7627 35.1997 59.2027 35.1997 58.5627 34.9597C57.2027 34.3197 55.6027 34.7997 54.8027 35.9997C53.9227 37.1997 54.0027 38.7997 54.9627 39.9197C55.9227 41.0397 57.5227 41.3597 58.8027 40.7197C60.1627 40.0797 60.8027 38.6397 60.4827 37.1197C60.1627 35.9197 60.2427 35.7597 61.3627 35.2797C63.9227 34.1597 65.2027 31.3597 64.4027 28.6397C63.6027 25.8397 61.4427 24.5597 58.4827 24.8797C55.4427 25.1997 52.4027 25.5197 49.3627 25.7597C48.8027 25.8397 48.2427 25.6797 47.7627 25.5197C46.1627 25.0397 44.5627 24.5597 42.9627 23.9997C41.1227 23.3597 39.3627 23.3597 37.5227 23.9997C36.0027 24.4797 34.4027 25.0397 32.8027 25.4397C32.0027 25.6797 31.1227 25.7597 30.3227 25.6797C27.1227 25.4397 23.9227 25.0397 20.6427 24.7197C19.3627 24.5597 18.2427 24.9597 17.3627 25.7597C14.7227 28.2397 14.6427 33.5197 19.0427 35.2797C20.0827 35.6797 20.2427 35.8397 20.0027 37.0397C19.6827 38.5597 20.4027 39.9997 21.6827 40.6397C22.9627 41.2797 24.5627 40.9597 25.5227 39.8397C26.4827 38.7197 26.4827 37.0397 25.6027 35.9197C24.7227 34.7197 23.2027 34.3997 21.7627 34.9597C21.2827 35.1197 20.6427 35.2797 20.0827 35.1197C18.0827 34.7197 16.7227 33.5197 16.1627 31.5197C15.6027 29.4397 16.1627 27.5997 17.7627 26.1597C18.6427 25.2797 19.8427 24.9597 21.0427 25.3597C24.0027 26.3197 26.8827 27.3597 29.7627 28.4797C30.4827 28.7197 30.9627 29.1997 30.7227 30.0797C30.6427 30.3197 30.8027 30.5597 30.8827 30.7997C32.1627 33.9997 33.7627 37.1197 36.0027 39.8397C36.2427 40.0797 36.4827 40.3997 36.8027 40.4797C37.3627 40.7197 37.6027 41.1197 37.6027 41.6797C37.4427 43.0397 37.4427 44.5597 37.4427 46.0797Z" fill="white"/>
</svg>
