<svg width="80" height="80" viewBox="0 0 80 80" fill="none" xmlns="http://www.w3.org/2000/svg">
<path d="M75.8009 43.0707L69.8225 33.1067C69.6223 32.8276 69.3543 32.6084 69.0162 32.5287L54.6852 29.4131C55.6785 27.3119 56.2507 24.9743 56.2507 22.5C56.2507 13.5394 48.9607 6.25 40.0007 6.25C31.0407 6.25 23.7507 13.5394 23.7507 22.5C23.7507 24.9744 24.3229 27.312 25.3163 29.4132L10.9852 32.5287C10.6473 32.6079 10.3792 32.8279 10.1789 33.1067L4.20054 43.0707C2.99471 44.974 3.93221 47.7226 6.0499 48.4918L10.0007 50.0378V63.2935C10.0007 64.848 10.9358 66.2189 12.3841 66.7859L39.5454 77.4139C39.8383 77.5287 40.163 77.5287 40.456 77.4139L67.6179 66.7859C69.0656 66.2189 70.0007 64.848 70.0007 63.2935V50.0378L73.9515 48.4918C76.0692 47.7226 77.0067 44.974 75.8009 43.0707ZM40.0007 8.75C47.5825 8.75 53.7507 14.9182 53.7507 22.5C53.7507 30.0818 47.5825 36.25 40.0007 36.25C32.4189 36.25 26.2507 30.0818 26.2507 22.5C26.2507 14.9182 32.4189 8.75 40.0007 8.75ZM26.6124 31.6898C29.5451 35.9489 34.4501 38.75 40.0007 38.75C45.5512 38.75 50.4563 35.9489 53.389 31.6896L64.444 34.093L40.0007 43.6578L15.5573 34.093L26.6124 31.6898ZM6.96052 46.1639C6.25587 45.9095 5.9391 44.9912 6.34407 44.3567L11.7792 35.2991L38.1678 45.625L32.5159 55.0452C32.201 55.5701 31.5595 55.788 30.9882 55.5664L6.96052 46.1639ZM38.7507 74.4187L13.2954 64.458C12.8126 64.2688 12.5007 63.8116 12.5007 63.2935V51.0162L30.0776 57.8943C31.7521 58.5583 33.7128 57.9195 34.6595 56.3318L38.7507 49.513V74.4187ZM67.5007 63.2935C67.5007 63.8116 67.1888 64.2688 66.7066 64.458L41.2507 74.4187V49.513L45.3419 56.3318C46.2885 57.9195 48.2493 58.5584 49.9238 57.8943L67.5007 51.0162V63.2935ZM73.0408 46.1639L49.0131 55.5664C48.4418 55.788 47.8004 55.5701 47.4854 55.0452L41.8336 45.625L68.2221 35.2991L73.6573 44.3567C74.0623 44.9912 73.7455 45.9095 73.0408 46.1639ZM32.5007 26.25H36.2507V30C36.2507 31.3788 37.3725 32.5 38.7507 32.5H41.2507C42.6289 32.5 43.7507 31.3788 43.7507 30V26.25H47.5007C48.8789 26.25 50.0007 25.1288 50.0007 23.75V21.25C50.0007 19.8712 48.8789 18.75 47.5007 18.75H43.7507V15C43.7507 13.6212 42.6289 12.5 41.2507 12.5H38.7507C37.3725 12.5 36.2507 13.6212 36.2507 15V18.75H32.5007C31.1225 18.75 30.0007 19.8712 30.0007 21.25V23.75C30.0007 25.1288 31.1225 26.25 32.5007 26.25ZM32.5007 21.25H37.5007C38.1916 21.25 38.7507 20.6903 38.7507 20V15H41.2507V20C41.2507 20.6903 41.8098 21.25 42.5007 21.25H47.5007V23.75H42.5007C41.8098 23.75 41.2507 24.3097 41.2507 25V30H38.7507V25C38.7507 24.3097 38.1916 23.75 37.5007 23.75H32.5007V21.25Z" fill="white"/>
</svg>
