<svg width="80" height="80" viewBox="0 0 80 80" fill="none" xmlns="http://www.w3.org/2000/svg">
<path d="M21.25 76.2496V66.1546L12.345 59.1746C11.4225 58.4396 10.1625 56.9621 9.705 55.8771L3.75 42.0321V29.9846C3.75 28.4746 9.005 26.2121 10.5125 32.2446C11.0125 34.2546 11.1175 35.9796 11.2175 37.4996" stroke="white" stroke-width="3" stroke-miterlimit="10" stroke-linecap="round" stroke-linejoin="round"/>
<path d="M26.4531 50.21C32.0256 51.6125 36.2456 56.62 36.2456 62.5925V76.25" stroke="white" stroke-width="3" stroke-miterlimit="10" stroke-linecap="round" stroke-linejoin="round"/>
<path d="M21.905 54.7914L10.9375 43.8414C11.6925 43.0864 15.4675 39.3139 20.7925 44.6414L26.43 50.2664" stroke="white" stroke-width="3" stroke-miterlimit="10" stroke-linecap="round" stroke-linejoin="round"/>
<path d="M58.75 76.25V66.155L67.6575 59.175C68.58 58.44 69.84 56.9625 70.2975 55.8775L76.2525 42.035V29.9875C76.2525 28.4775 70.9975 26.215 69.49 32.2475C68.99 34.2575 68.885 35.9825 68.785 37.5025" stroke="white" stroke-width="3" stroke-miterlimit="10" stroke-linecap="round" stroke-linejoin="round"/>
<path d="M53.5425 50.21C47.97 51.6125 43.75 56.62 43.75 62.5925V76.25" stroke="white" stroke-width="3" stroke-miterlimit="10" stroke-linecap="round" stroke-linejoin="round"/>
<path d="M58.0992 54.7914L69.0667 43.8414C68.3117 43.0864 64.5367 39.3139 59.2117 44.6414L53.5742 50.2664" stroke="white" stroke-width="3" stroke-miterlimit="10" stroke-linecap="round" stroke-linejoin="round"/>
<path d="M58.0992 54.7914L69.0667 43.8414C68.3117 43.0864 64.5367 39.3139 59.2117 44.6414L53.5742 50.2664" stroke="white" stroke-width="3" stroke-miterlimit="10" stroke-linecap="round" stroke-linejoin="round"/>
<path d="M40.9388 21.4148C40.3613 20.4073 40.1163 19.1998 40.3188 17.9673C40.5813 16.3823 39.5138 14.8873 37.9288 14.6223C36.3438 14.3573 34.8488 15.4298 34.5838 17.0123C33.5863 23.0198 37.6613 28.7223 43.6713 29.7198C44.4788 29.8548 45.2813 29.8973 46.0663 29.8573" stroke="white" stroke-width="3" stroke-miterlimit="10" stroke-linecap="round" stroke-linejoin="round"/>
<path d="M43.0166 23.4146C41.0966 22.3821 39.9441 20.2346 40.3216 17.9646C40.6866 15.7546 42.3941 14.1171 44.4716 13.7046C44.4816 13.6271 44.4716 13.5496 44.4866 13.4721C45.5391 7.13708 51.5266 2.85458 57.8641 3.90708C64.2016 4.95958 68.8516 11.0196 68.1166 17.3971C67.1016 26.2271 56.9266 30.1271 55.6091 31.0721C53.5141 32.5696 50.2641 49.2771 34.7816 46.4196C28.8216 45.3196 23.3391 39.1171 28.3716 26.0121C26.7241 30.9496 24.9491 31.3846 23.7116 31.6846C21.8191 32.1421 17.7416 30.6496 18.2366 27.7146C18.7916 24.4321 22.7391 25.3646 22.7391 25.3646C24.0841 20.8271 27.2641 18.4071 31.1866 19.4121C36.0666 20.6646 36.6566 26.9671 35.5266 31.3046" stroke="white" stroke-width="3" stroke-miterlimit="10" stroke-linecap="round" stroke-linejoin="round"/>
</svg>
