<svg width="80" height="80" viewBox="0 0 80 80" fill="none" xmlns="http://www.w3.org/2000/svg">
<g clip-path="url(#clip0_1118_2498)">
<path d="M57.9742 66.5283C53.885 66.5283 49.6005 65.8235 45.3967 64.3897C44.7842 64.1808 44.457 63.5147 44.6659 62.9022C44.8748 62.2899 45.5408 61.9624 46.1534 62.1714C50.9083 63.7932 55.9002 64.4491 60.5906 64.0675C65.2905 63.6853 69.4784 62.2739 72.7019 59.9858C75.892 57.7216 76.8031 53.3024 74.7764 49.925L69.0306 40.3502C68.6977 39.7952 68.8777 39.0753 69.4325 38.7422C69.9875 38.4092 70.7072 38.5892 71.0403 39.1441L72.9539 42.3328L74.06 42.881C74.7409 43.2183 75.3636 43.1222 75.7659 42.9822C76.2806 42.803 76.7144 42.4503 76.8977 42.0619C77.4081 40.9797 77.6562 39.4521 77.6562 37.3916C77.6562 34.2539 76.1311 33.1183 74.7038 33.1016C74.6934 33.1014 74.6831 33.1014 74.6728 33.1014C73.6948 33.1014 72.6839 33.6442 72.3536 34.5914L73.6514 35.2238C74.2333 35.5072 74.475 36.2088 74.1916 36.7905C73.9081 37.3725 73.2067 37.6142 72.6248 37.3307L67.3303 34.751C65.6213 33.9185 64.0648 34.5575 63.1781 35.4338C62.2914 36.3099 61.6331 37.8585 62.445 39.5774L67.6303 50.5566C67.9067 51.1419 67.6564 51.8403 67.0711 52.1167C66.4861 52.3933 65.7873 52.1428 65.5109 51.5575L62.5209 45.2267C59.7886 43.7691 56.4939 43.4136 54.1087 43.3857L42.8441 50.0953C42.2881 50.4269 41.5687 50.2444 41.2377 49.6883C40.9064 49.1322 41.0887 48.413 41.6447 48.0819L53.1897 41.2052C54.7939 40.2496 55.3998 38.2571 54.5991 36.5702C53.9495 35.2016 52.5002 34.3828 50.9925 34.5322L49.1383 34.7163C48.6111 34.7685 48.1147 34.461 47.9269 33.9658C47.6836 33.3244 47.0564 32.4842 46.0256 32.0492C45.312 31.748 44.5427 31.6997 43.7306 31.9039C44.1747 33.8967 44.0269 36.1716 43.037 38.5964L47.3122 36.6191C47.8997 36.3474 48.5959 36.6033 48.8678 37.1908C49.1395 37.7783 48.8836 38.4747 48.2961 38.7464L38.7525 43.1605C37.6836 43.6549 36.7733 44.4339 36.1195 45.4136C35.5494 46.2682 34.8797 47.9207 34.6697 48.4853C34.4442 49.0921 33.7694 49.4008 33.1631 49.1757C32.5566 48.9503 32.2473 48.276 32.4727 47.6694C32.5072 47.5761 33.3302 45.3713 34.1698 44.113C35.0631 42.7739 36.3077 41.7089 37.7686 41.0333L39.5055 40.23C41.7611 36.8763 42.0008 33.941 41.2372 31.6736C39.9858 32.5282 38.2491 33.1127 36.6727 33.1438C36.0286 33.1522 35.4906 32.6424 35.478 31.9952C35.4653 31.348 35.9794 30.8132 36.6266 30.8005C38.0166 30.773 39.3844 30.1532 40.1311 29.5769C39.6989 29.0016 39.1981 28.5053 38.6631 28.0963C38.3325 27.8435 38.1606 27.4341 38.2119 27.021C38.33 26.0678 38.1448 25.3242 37.6902 24.9271C37.2217 24.5177 36.4153 24.4244 35.4781 24.6719C34.9744 24.8046 34.443 24.5889 34.1745 24.1421C33.6569 23.2797 33.0586 22.4574 32.3964 21.6974C31.9713 21.2094 32.022 20.4692 32.51 20.0439C32.9978 19.6188 33.738 19.6696 34.1634 20.1575C34.7347 20.813 35.2641 21.5096 35.7434 22.236C37.1191 22.0603 38.3363 22.3789 39.2325 23.1621C40.1541 23.9674 40.6248 25.1875 40.5883 26.6438C41.5472 27.48 42.3587 28.5085 42.9462 29.6883C44.6502 29.2017 46.0298 29.5069 46.9373 29.8899C48.0978 30.3796 49.0895 31.251 49.7162 32.3038L50.7614 32.2C53.2502 31.9536 55.6441 33.3053 56.7167 35.5653C57.6005 37.4271 57.4464 39.5146 56.4563 41.1653C57.9014 41.3038 59.4803 41.5764 61.0323 42.0744L60.3259 40.5785C59.2262 38.2502 59.6994 35.5763 61.5311 33.7666C63.363 31.9569 66.0422 31.5163 68.3572 32.6442L70.237 33.5602C70.5031 32.926 70.9209 32.3592 71.4725 31.898C72.3681 31.1489 73.5216 30.7436 74.7314 30.7583C77.3539 30.7889 80.0002 32.8521 80.0002 37.3919C80.0002 39.8057 79.6787 41.6603 79.0175 43.0621C78.5686 44.0138 77.6411 44.8114 76.5367 45.196C75.9759 45.3911 75.3967 45.4753 74.8241 45.4492L76.7864 48.7191C79.4394 53.14 78.2412 58.9285 74.0588 61.8972C69.7463 64.9578 64.078 66.5283 57.9742 66.5283ZM41.4783 62.6975C41.3083 62.6975 41.1358 62.6603 40.9722 62.5819C35.88 60.1388 31.3991 56.6335 27.9787 52.423H19.4759C8.73688 52.4232 0 43.6863 0 32.9472C0 22.2082 8.73688 13.4714 19.4759 13.4714C23.5292 13.4714 27.415 14.705 30.713 17.0388C31.2413 17.4127 31.3666 18.1439 30.9927 18.6722C30.6189 19.2007 29.8873 19.3257 29.3592 18.9519C26.4592 16.8999 23.0416 15.8152 19.4759 15.8152C10.0292 15.8152 2.34375 23.5005 2.34375 32.9472C2.34375 42.3939 10.0292 50.0794 19.4759 50.0794H28.5425C28.9022 50.0794 29.242 50.2446 29.4642 50.5275C32.7064 54.6564 37.0364 58.0941 41.9861 60.4688C42.5697 60.7488 42.8158 61.4488 42.5358 62.0322C42.3341 62.4524 41.915 62.6974 41.4783 62.6975ZM22.4175 45.8597C19.1675 45.8597 16.5234 43.2157 16.5234 39.9657C16.5234 37.2805 18.708 35.096 21.3931 35.096C22.0403 35.096 22.565 35.6207 22.565 36.2678C22.565 36.915 22.0403 37.4397 21.3931 37.4397C20.0003 37.4397 18.8672 38.5728 18.8672 39.9657C18.8672 41.9233 20.4598 43.516 22.4175 43.516C23.8103 43.516 24.9434 42.3828 24.9434 40.99C24.9434 40.3428 25.4681 39.8182 26.1153 39.8182C26.7625 39.8182 27.2872 40.3428 27.2872 40.99C27.287 43.6752 25.1025 45.8597 22.4175 45.8597ZM29.0248 31.1758C28.7905 31.1758 28.5545 31.1536 28.3194 31.1089C27.6836 30.988 27.2663 30.3744 27.3872 29.7386C27.5081 29.1028 28.1219 28.6853 28.7575 28.8064C29.1219 28.8755 29.4914 28.7991 29.7981 28.5903C30.1048 28.3817 30.3119 28.0661 30.3813 27.7017C30.502 27.066 31.115 26.6482 31.7516 26.7696C32.3873 26.8905 32.8047 27.5039 32.6838 28.1399C32.4975 29.1192 31.9409 29.9675 31.1166 30.5283C30.4902 30.9544 29.7661 31.1758 29.0248 31.1758Z" fill="white"/>
</g>
<defs>
<clipPath id="clip0_1118_2498">
<rect width="80" height="80" fill="white"/>
</clipPath>
</defs>
</svg>
